  0
SECTION
  2
HEADER
  9
$ACADVER
  1
AC1015
  9
$ACADMAINTVER
 70
     6
  9
$DWGCODEPAGE
  3
ANSI_1252
  9
$INSBASE
 10
0.0
 20
0.0
 30
0.0
  9
$EXTMIN
 10
0.0
 20
0.0
 30
0.0
  9
$EXTMAX
 10
1016.0
 20
152.4
 30
0.0
  9
$LIMMIN
 10
0.0
 20
0.0
  9
$LIMMAX
 10
1016.0
 20
152.4
  9
$ORTHOMODE
 70
     0
  9
$REGENMODE
 70
     1
  9
$FILLMODE
 70
     1
  9
$QTEXTMODE
 70
     0
  9
$MIRRTEXT
 70
     1
  9
$LTSCALE
 40
1.0
  9
$ATTMODE
 70
     1
  9
$TEXTSIZE
 40
3.5
  9
$TRACEWID
 40
1.0
  9
$TEXTSTYLE
  7
Standard
  9
$CLAYER
  8
0
  9
$CELTYPE
  6
ByLayer
  9
$CECOLOR
 62
   256
  9
$CELTSCALE
 40
1.0
  9
$DISPSILH
 70
     0
  9
$DIMSCALE
 40
1.0
  9
$DIMASZ
 40
3.556
  9
$DIMEXO
 40
1.0
  9
$DIMDLI
 40
3.75
  9
$DIMRND
 40
0.0
  9
$DIMDLE
 40
0.0
  9
$DIMEXE
 40
1.0
  9
$DIMTP
 40
0.0
  9
$DIMTM
 40
0.0
  9
$DIMTXT
 40
3.5
  9
$DIMCEN
 40
2.5
  9
$DIMTSZ
 40
0.0
  9
$DIMTOL
 70
     0
  9
$DIMLIM
 70
     0
  9
$DIMTIH
 70
     1
  9
$DIMTOH
 70
     1
  9
$DIMSE1
 70
     0
  9
$DIMSE2
 70
     0
  9
$DIMTAD
 70
     1
  9
$DIMZIN
 70
     1
  9
$DIMBLK
  1

  9
$DIMASO
 70
     1
  9
$DIMSHO
 70
     1
  9
$DIMPOST
  1

  9
$DIMAPOST
  1

  9
$DIMALT
 70
     0
  9
$DIMALTD
 70
     3
  9
$DIMALTF
 40
0.0393700787
  9
$DIMLFAC
 40
5.0
  9
$DIMTOFL
 70
     1
  9
$DIMTVP
 40
0.0
  9
$DIMTIX
 70
     0
  9
$DIMSOXD
 70
     0
  9
$DIMSAH
 70
     0
  9
$DIMBLK1
  1

  9
$DIMBLK2
  1

  9
$DIMSTYLE
  2
ISO-25
  9
$DIMCLRD
 70
     0
  9
$DIMCLRE
 70
     0
  9
$DIMCLRT
 70
     0
  9
$DIMTFAC
 40
1.0
  9
$DIMGAP
 40
1.524
  9
$DIMJUST
 70
     0
  9
$DIMSD1
 70
     0
  9
$DIMSD2
 70
     0
  9
$DIMTOLJ
 70
     0
  9
$DIMTZIN
 70
     1
  9
$DIMALTZ
 70
     0
  9
$DIMALTTZ
 70
     0
  9
$DIMUPT
 70
     0
  9
$DIMDEC
 70
     2
  9
$DIMTDEC
 70
     2
  9
$DIMALTU
 70
     2
  9
$DIMALTTD
 70
     3
  9
$DIMTXSTY
  7
Standard
  9
$DIMAUNIT
 70
     0
  9
$DIMADEC
 70
     2
  9
$DIMALTRND
 40
0.0
  9
$DIMAZIN
 70
     0
  9
$DIMDSEP
 70
    44
  9
$DIMATFIT
 70
     3
  9
$DIMFRAC
 70
     0
  9
$DIMLDRBLK
  1

  9
$DIMLUNIT
 70
     2
  9
$DIMLWD
 70
    -2
  9
$DIMLWE
 70
    -2
  9
$DIMTMOVE
 70
     0
  9
$LUNITS
 70
     2
  9
$LUPREC
 70
     2
  9
$SKETCHINC
 40
1.0
  9
$FILLETRAD
 40
0.0
  9
$AUNITS
 70
     0
  9
$AUPREC
 70
     2
  9
$MENU
  1
.
  9
$ELEVATION
 40
0.0
  9
$PELEVATION
 40
0.0
  9
$THICKNESS
 40
0.0
  9
$LIMCHECK
 70
     0
  9
$CHAMFERA
 40
0.0
  9
$CHAMFERB
 40
0.0
  9
$CHAMFERC
 40
0.0
  9
$CHAMFERD
 40
0.0
  9
$SKPOLY
 70
     0
  9
$TDCREATE
 40
2460356.956947222
  9
$TDUCREATE
 40
2460357.165280555
  9
$TDUPDATE
 40
2460356.956947662
  9
$TDUUPDATE
 40
2460357.165280995
  9
$TDINDWG
 40
0.0000000116
  9
$TDUSRTIMER
 40
0.0000000116
  9
$USRTIMER
 70
     1
  9
$ANGBASE
 50
0.0
  9
$ANGDIR
 70
     0
  9
$PDMODE
 70
     0
  9
$PDSIZE
 40
-1.0
  9
$PLINEWID
 40
0.0
  9
$SPLFRAME
 70
     0
  9
$SPLINETYPE
 70
     6
  9
$SPLINESEGS
 70
     8
  9
$HANDSEED
  5
14A
  9
$SURFTAB1
 70
     6
  9
$SURFTAB2
 70
     6
  9
$SURFTYPE
 70
     6
  9
$SURFU
 70
     6
  9
$SURFV
 70
     6
  9
$UCSBASE
  2

  9
$UCSNAME
  2

  9
$UCSORG
 10
0.0
 20
0.0
 30
0.0
  9
$UCSXDIR
 10
1.0
 20
0.0
 30
0.0
  9
$UCSYDIR
 10
0.0
 20
1.0
 30
0.0
  9
$UCSORTHOREF
  2

  9
$UCSORTHOVIEW
 70
     0
  9
$UCSORGTOP
 10
0.0
 20
0.0
 30
0.0
  9
$UCSORGBOTTOM
 10
0.0
 20
0.0
 30
0.0
  9
$UCSORGLEFT
 10
0.0
 20
0.0
 30
0.0
  9
$UCSORGRIGHT
 10
0.0
 20
0.0
 30
0.0
  9
$UCSORGFRONT
 10
0.0
 20
0.0
 30
0.0
  9
$UCSORGBACK
 10
0.0
 20
0.0
 30
0.0
  9
$PUCSBASE
  2

  9
$PUCSNAME
  2

  9
$PUCSORG
 10
0.0
 20
0.0
 30
0.0
  9
$PUCSXDIR
 10
1.0
 20
0.0
 30
0.0
  9
$PUCSYDIR
 10
0.0
 20
1.0
 30
0.0
  9
$PUCSORTHOREF
  2

  9
$PUCSORTHOVIEW
 70
     0
  9
$PUCSORGTOP
 10
0.0
 20
0.0
 30
0.0
  9
$PUCSORGBOTTOM
 10
0.0
 20
0.0
 30
0.0
  9
$PUCSORGLEFT
 10
0.0
 20
0.0
 30
0.0
  9
$PUCSORGRIGHT
 10
0.0
 20
0.0
 30
0.0
  9
$PUCSORGFRONT
 10
0.0
 20
0.0
 30
0.0
  9
$PUCSORGBACK
 10
0.0
 20
0.0
 30
0.0
  9
$USERI1
 70
     0
  9
$USERI2
 70
     0
  9
$USERI3
 70
     0
  9
$USERI4
 70
     0
  9
$USERI5
 70
     0
  9
$USERR1
 40
0.0
  9
$USERR2
 40
0.0
  9
$USERR3
 40
0.0
  9
$USERR4
 40
0.0
  9
$USERR5
 40
0.0
  9
$WORLDVIEW
 70
     1
  9
$SHADEDGE
 70
     3
  9
$SHADEDIF
 70
    70
  9
$TILEMODE
 70
     1
  9
$MAXACTVP
 70
    64
  9
$PINSBASE
 10
0.0
 20
0.0
 30
0.0
  9
$PLIMCHECK
 70
     0
  9
$PEXTMIN
 10
1.0000000000E+20
 20
1.0000000000E+20
 30
1.0000000000E+20
  9
$PEXTMAX
 10
-1.0000000000E+20
 20
-1.0000000000E+20
 30
-1.0000000000E+20
  9
$PLIMMIN
 10
0.0
 20
0.0
  9
$PLIMMAX
 10
420.0
 20
297.0
  9
$UNITMODE
 70
     0
  9
$VISRETAIN
 70
     1
  9
$PLINEGEN
 70
     0
  9
$PSLTSCALE
 70
     1
  9
$TREEDEPTH
 70
  3020
  9
$CMLSTYLE
  2
Standard
  9
$CMLJUST
 70
     0
  9
$CMLSCALE
 40
20.0
  9
$PROXYGRAPHICS
 70
     1
  9
$MEASUREMENT
 70
     1
  9
$CELWEIGHT
370
    -1
  9
$ENDCAPS
280
     0
  9
$JOINSTYLE
280
     0
  9
$LWDISPLAY
290
     1
  9
$INSUNITS
 70
     4
  9
$HYPERLINKBASE
  1

  9
$STYLESHEET
  1

  9
$XEDIT
290
     1
  9
$CEPSNTYPE
380
     0
  9
$PSTYLEMODE
290
     1
  9
$FINGERPRINTGUID
  2
{2836066d-0f02-47ec-94d5-1a20e5a4769a}
  9
$VERSIONGUID
  2
{FAEB1C32-E019-11D5-929B-00C0DF256EC4}
  9
$EXTNAMES
290
     1
  9
$PSVPSCALE
 40
0.0
  9
$OLESTARTUP
290
     0
  0
ENDSEC
  0
SECTION
  2
CLASSES
  0
CLASS
  1
ACDBDICTIONARYWDFLT
  2
AcDbDictionaryWithDefault
  3
ObjectDBX Classes
 90
        0
280
     0
281
     0
  0
CLASS
  1
VISUALSTYLE
  2
AcDbVisualStyle
  3
ObjectDBX Classes
 90
     4095
280
     0
281
     0
  0
CLASS
  1
MATERIAL
  2
AcDbMaterial
  3
ObjectDBX Classes
 90
     1153
280
     0
281
     0
  0
CLASS
  1
SCALE
  2
AcDbScale
  3
ObjectDBX Classes
 90
     1153
280
     0
281
     0
  0
CLASS
  1
TABLESTYLE
  2
AcDbTableStyle
  3
ObjectDBX Classes
 90
     4095
280
     0
281
     0
  0
CLASS
  1
MLEADERSTYLE
  2
AcDbMLeaderStyle
  3
ACDB_MLEADERSTYLE_CLASS
 90
     4095
280
     0
281
     0
  0
CLASS
  1
SUN
  2
AcDbSun
  3
SCENEOE
 90
     1153
280
     0
281
     0
  0
CLASS
  1
ACDBPLACEHOLDER
  2
AcDbPlaceHolder
  3
ObjectDBX Classes
 90
        0
280
     0
281
     0
  0
CLASS
  1
LAYOUT
  2
AcDbLayout
  3
ObjectDBX Classes
 90
        0
280
     0
281
     0
  0
ENDSEC
  0
SECTION
  2
TABLES
  0
TABLE
  2
VPORT
  5
8
330
0
100
AcDbSymbolTable
 70
     1
  0
VPORT
  5
29
330
8
100
AcDbSymbolTableRecord
100
AcDbViewportTableRecord
  2
*Active
 70
     0
 10
0.0
 20
0.0
 11
1.0
 21
1.0
 12
508.0
 22
76.2
 13
0.0
 23
0.0
 14
10.0
 24
10.0
 15
10.0
 25
10.0
 16
0.0
 26
0.0
 36
1.0
 17
0.0
 27
0.0
 37
0.0
 40
152.4
 41
6.6666666667
 42
50.0
 43
0.0
 44
0.0
 50
0.0
 51
0.0
 71
     0
 72
  2000
 73
     1
 74
     3
 75
     0
 76
     0
 77
     0
 78
     0
281
     0
 65
     1
110
0.0
120
0.0
130
0.0
111
1.0
121
0.0
131
0.0
112
0.0
122
1.0
132
0.0
 79
     0
146
0.0
  0
ENDTAB
  0
TABLE
  2
LTYPE
  5
5
330
0
100
AcDbSymbolTable
 70
     6
  0
LTYPE
  5
14
330
5
100
AcDbSymbolTableRecord
100
AcDbLinetypeTableRecord
  2
ByBlock
 70
     0
  3

 72
    65
 73
     0
 40
0.0
  0
LTYPE
  5
15
330
5
100
AcDbSymbolTableRecord
100
AcDbLinetypeTableRecord
  2
ByLayer
 70
     0
  3

 72
    65
 73
     0
 40
0.0
  0
LTYPE
  5
16
330
5
100
AcDbSymbolTableRecord
100
AcDbLinetypeTableRecord
  2
Continuous
 70
     0
  3
Solid line
 72
    65
 73
     0
 40
0.0
  0
LTYPE
  5
5E
330
5
100
AcDbSymbolTableRecord
100
AcDbLinetypeTableRecord
  2
HIDDEN
 70
     0
  3
Hidden __ __ __ __ __ __ __ __ __ __ __ __ __ __
 72
    65
 73
     2
 40
1.905
 49
1.27
 74
     0
 49
-0.635
 74
     0
  0
LTYPE
  5
5F
330
5
100
AcDbSymbolTableRecord
100
AcDbLinetypeTableRecord
  2
PHANTOM
 70
     0
  3
Phantom ______  __  __  ______  __  __  ______
 72
    65
 73
     6
 40
12.7
 49
6.35
 74
     0
 49
-1.27
 74
     0
 49
1.27
 74
     0
 49
-1.27
 74
     0
 49
1.27
 74
     0
 49
-1.27
 74
     0
  0
LTYPE
  5
60
330
5
100
AcDbSymbolTableRecord
100
AcDbLinetypeTableRecord
  2
CENTER
 70
     0
  3
Center ____ _ ____ _ ____ _ ____ _ ____ _ ____
 72
    65
 73
     4
 40
10.16
 49
6.35
 74
     0
 49
-1.27
 74
     0
 49
1.27
 74
     0
 49
-1.27
 74
     0
  0
LTYPE
  5
61
330
5
100
AcDbSymbolTableRecord
100
AcDbLinetypeTableRecord
  2
CENTERX2
 70
     0
  3
Center (2x) ________  __  ________  __  _____
 72
    65
 73
     4
 40
20.32
 49
12.7
 74
     0
 49
-2.54
 74
     0
 49
2.54
 74
     0
 49
-2.54
 74
     0
  0
LTYPE
  5
62
330
5
100
AcDbSymbolTableRecord
100
AcDbLinetypeTableRecord
  2
DOT2
 70
     0
  3
Dot (.5x) ........................................
 72
    65
 73
     2
 40
0.635
 49
0.0
 74
     0
 49
-0.635
 74
     0
  0
ENDTAB
  0
TABLE
  2
LAYER
  5
2
330
0
100
AcDbSymbolTable
 70
     1
  0
LAYER
  5
10
330
2
100
AcDbSymbolTableRecord
100
AcDbLayerTableRecord
  2
0
 70
     0
 62
     7
  6
Continuous
370
    -3
390
F
  0
ENDTAB
  0
TABLE
  2
STYLE
  5
3
330
0
100
AcDbSymbolTable
 70
     2
  0
STYLE
  5
11
330
3
100
AcDbSymbolTableRecord
100
AcDbTextStyleTableRecord
  2
Standard
 70
     0
 40
0.0
 41
1.0
 50
0.0
 71
     0
 42
3.5
  3
txt
  4

  0
STYLE
  5
146
330
3
100
AcDbSymbolTableRecord
100
AcDbTextStyleTableRecord
  2
SLDTEXTSTYLE0
 70
     0
 40
0.0
 41
0.7
 50
0.0
 71
     0
 42
3.5
  3
TXT
  4

  0
ENDTAB
  0
TABLE
  2
VIEW
  5
6
330
0
100
AcDbSymbolTable
 70
     0
  0
ENDTAB
  0
TABLE
  2
UCS
  5
7
330
0
100
AcDbSymbolTable
 70
     0
  0
ENDTAB
  0
TABLE
  2
APPID
  5
9
330
0
100
AcDbSymbolTable
 70
     1
  0
APPID
  5
12
330
9
100
AcDbSymbolTableRecord
100
AcDbRegAppTableRecord
  2
ACAD
 70
     0
  0
ENDTAB
  0
TABLE
  2
DIMSTYLE
  5
A
330
0
100
AcDbSymbolTable
 70
     1
100
AcDbDimStyleTable
  0
DIMSTYLE
105
27
330
A
100
AcDbSymbolTableRecord
100
AcDbDimStyleTableRecord
  2
ISO-25
 70
     0
 41
2.5
 42
0.625
 43
3.75
 44
1.25
 73
     0
 74
     0
 77
     1
 78
     8
140
2.5
141
2.5
143
0.0393700787
147
0.625
171
     3
172
     1
178
     0
271
     2
272
     2
274
     3
278
    44
283
     0
284
     8
340
11
  0
ENDTAB
  0
TABLE
  2
BLOCK_RECORD
  5
1
330
0
100
AcDbSymbolTable
 70
     1
  0
BLOCK_RECORD
  5
1F
330
1
100
AcDbSymbolTableRecord
100
AcDbBlockTableRecord
  2
*Model_Space
340
22
  0
BLOCK_RECORD
  5
1B
330
1
100
AcDbSymbolTableRecord
100
AcDbBlockTableRecord
  2
*Paper_Space
340
1E
  0
BLOCK_RECORD
  5
23
330
1
100
AcDbSymbolTableRecord
100
AcDbBlockTableRecord
  2
*Paper_Space0
340
26
  0
ENDTAB
  0
ENDSEC
  0
SECTION
  2
BLOCKS
  0
BLOCK
  5
20
330
1F
100
AcDbEntity
  8
0
100
AcDbBlockBegin
  2
*Model_Space
 70
     0
 10
0.0
 20
0.0
 30
0.0
  3
*Model_Space
  1

  0
ENDBLK
  5
21
330
1F
100
AcDbEntity
  8
0
100
AcDbBlockEnd
  0
BLOCK
  5
1C
330
1B
100
AcDbEntity
 67
     1
  8
0
100
AcDbBlockBegin
  2
*Paper_Space
 70
     0
 10
0.0
 20
0.0
 30
0.0
  3
*Paper_Space
  1

  0
ENDBLK
  5
1D
330
1B
100
AcDbEntity
 67
     1
  8
0
100
AcDbBlockEnd
  0
BLOCK
  5
24
330
23
100
AcDbEntity
  8
0
100
AcDbBlockBegin
  2
*Paper_Space0
 70
     0
 10
0.0
 20
0.0
 30
0.0
  3
*Paper_Space0
  1

  0
ENDBLK
  5
25
330
23
100
AcDbEntity
  8
0
100
AcDbBlockEnd
  0
ENDSEC
  0
SECTION
  2
ENTITIES
  0
LINE
  5
63
330
1F
100
AcDbEntity
  8
0
  6
Continuous
 62
     7
370
    25
100
AcDbLine
 10
684.8884645992
 20
73.0852404267
 30
0.0
 11
676.4402775553
 21
106.4674851369
 31
0.0
  0
SPLINE
  5
64
330
1F
100
AcDbEntity
  8
0
  6
Continuous
 62
     7
370
    25
100
AcDbSpline
210
0.0
220
0.0
230
1.0
 70
     8
 71
     3
 72
    26
 73
    22
 74
     0
 42
0.00000001
 43
0.00000001
 40
0.0
 40
0.0
 40
0.0
 40
0.0
 40
0.0503977265825939
 40
0.1005277783516283
 40
0.1480889907517826
 40
0.1966636604485072
 40
0.2464508760840319
 40
0.2942180994160776
 40
0.3479846122259342
 40
0.4012202494474733
 40
0.4543285983563752
 40
0.5077334398726449
 40
0.5599244183499935
 40
0.6139097976076414
 40
0.6668021468510352
 40
0.7199806106682408
 40
0.7731015458781231
 40
0.8248817571248043
 40
0.8839843080048622
 40
0.9416299461365994
 40
1.0
 40
1.0
 40
1.0
 40
1.0
 10
856.3448897454621
 20
148.6338960023822
 30
0.0
 10
853.1782027205926
 20
148.6013755288384
 30
0.0
 10
846.861647730293
 20
148.5365073060441
 30
0.0
 10
837.5574826761668
 20
148.375196079931
 30
0.0
 10
828.3690449639896
 20
148.1585938747222
 30
0.0
 10
819.204058619768
 20
147.8712864991492
 30
0.0
 10
810.0289456144467
 20
147.5040473165814
 30
0.0
 10
800.5323370772503
 20
147.0222540726977
 30
0.0
 10
790.8289321210923
 20
146.3593131357805
 30
0.0
 10
780.8103447039194
 20
145.4234697917294
 30
0.0
 10
770.8481012165562
 20
144.175372575456
 30
0.0
 10
761.002390561238
 20
142.5751374861856
 30
0.0
 10
751.171095513877
 20
140.5878246891738
 30
0.0
 10
741.4609477035907
 20
138.2034972913045
 30
0.0
 10
731.8062639013798
 20
135.3737405546174
 30
0.0
 10
722.3444583146263
 20
132.1155911835929
 30
0.0
 10
713.121743724556
 20
128.4146905841039
 30
0.0
 10
703.7694910841043
 20
124.0723502484041
 30
0.0
 10
694.4557932888177
 20
119.0198617418619
 30
0.0
 10
685.1287458518225
 20
113.1533687469214
 30
0.0
 10
679.3484538814482
 20
108.7053842383147
 30
0.0
 10
676.4402614821729
 20
106.4675051127751
 30
0.0
  0
LINE
  5
65
330
1F
100
AcDbEntity
  8
0
  6
Continuous
 62
     7
370
    25
100
AcDbLine
 10
856.3448897301
 20
148.6338977277
 30
0.0
 11
861.8121593595
 21
127.030477761
 31
0.0
  0
ARC
  5
66
330
1F
100
AcDbEntity
  8
0
  6
Continuous
 62
     7
370
    25
100
AcDbCircle
 10
872.5850302045
 20
129.756814132
 30
0.0
 40
11.11250000000011
100
AcDbArc
 50
194.2019042652
 51
14.2019042652
  0
LINE
  5
67
330
1F
100
AcDbEntity
  8
0
  6
Continuous
 62
     7
370
    25
100
AcDbLine
 10
883.3579010495
 20
132.4831505029
 30
0.0
 11
879.2610696651
 21
148.6714080661
 31
0.0
  0
SPLINE
  5
68
330
1F
100
AcDbEntity
  8
0
  6
Continuous
 62
     7
370
    25
100
AcDbSpline
210
0.0
220
0.0
230
1.0
 70
     8
 71
     3
 72
    32
 73
    28
 74
     0
 42
0.00000001
 43
0.00000001
 40
0.0
 40
0.0
 40
0.0
 40
0.0
 40
0.0259843027267757
 40
0.0519011127925582
 40
0.07756912947063
 40
0.1033335837620904
 40
0.1291040959630373
 40
0.1548030404876344
 40
0.1805473028096251
 40
0.2063411229099646
 40
0.2321056119253583
 40
0.2578039962408635
 40
0.2835809763114738
 40
0.2963324783748282
 40
0.3094133329765716
 40
0.3521499687625135
 40
0.3960582567479365
 40
0.4395198184901559
 40
0.4844021747604858
 40
0.5251776772993187
 40
0.5660625884427087
 40
0.6110703806908949
 40
0.6534981624533422
 40
0.6963677586058634
 40
0.7983531743582678
 40
0.8972151923649795
 40
1.0
 40
1.0
 40
1.0
 40
1.0
 10
958.613389892668
 20
117.3057200198538
 30
0.0
 10
959.6595628791138
 20
117.4550879649838
 30
0.0
 10
961.7491914806964
 20
117.7534358810047
 30
0.0
 10
964.7801868986251
 20
118.700529044083
 30
0.0
 10
967.5112280296454
 20
120.3178034195386
 30
0.0
 10
969.7736940982323
 20
122.5362604975194
 30
0.0
 10
971.4316343578397
 20
125.2389402233258
 30
0.0
 10
972.3822486751446
 20
128.2627479741037
 30
0.0
 10
972.5680906244546
 20
131.4281911931878
 30
0.0
 10
971.9755205403486
 20
134.5460414778561
 30
0.0
 10
970.6411104646365
 20
137.4234450417862
 30
0.0
 10
968.649689917383
 20
139.8896536821029
 30
0.0
 10
966.5458123765429
 20
141.4812131381397
 30
0.0
 10
964.6727916557593
 20
142.4328130721827
 30
0.0
 10
962.0545339947578
 20
143.4089231529529
 30
0.0
 10
958.0082119197855
 20
143.9731875432932
 30
0.0
 10
952.7564797557992
 20
144.4894011913119
 30
0.0
 10
947.4124709358113
 20
145.0918166868175
 30
0.0
 10
942.1996537924748
 20
145.6880528020105
 30
0.0
 10
937.0815962230796
 20
146.196840883147
 30
0.0
 10
931.9511964486518
 20
146.6226437613897
 30
0.0
 10
926.7495074336957
 20
146.9975097482324
 30
0.0
 10
921.4642399426809
 20
147.3313393170861
 30
0.0
 10
913.8645146517833
 20
147.7534850064513
 30
0.0
 10
903.9685248510781
 20
148.1841188242369
 30
0.0
 10
891.6329451763619
 20
148.5349170350972
 30
0.0
 10
883.4381677382269
 20
148.6253006336921
 30
0.0
 10
879.2610693886251
 20
148.671371583559
 30
0.0
  0
SPLINE
  5
69
330
1F
100
AcDbEntity
  8
0
  6
Continuous
 62
     7
370
    25
100
AcDbSpline
210
0.0
220
0.0
230
1.0
 70
     8
 71
     3
 72
    44
 73
    40
 74
     0
 42
0.00000001
 43
0.00000001
 40
0.0
 40
0.0
 40
0.0
 40
0.0
 40
0.0078237613760209
 40
0.0156096341703308
 40
0.0234929623848169
 40
0.031279731938315
 40
0.0391064305825192
 40
0.0469479562046856
 40
0.0547061693389434
 40
0.0626000932147072
 40
0.072860930821123
 40
0.0831691160613972
 40
0.0938614173946131
 40
0.1251824537399524
 40
0.1585889657329347
 40
0.1906535530886262
 40
0.2231575485209678
 40
0.2559401398421251
 40
0.2887311756426213
 40
0.3214471695914887
 40
0.3575177873449188
 40
0.3922080553080511
 40
0.4279728957699214
 40
0.4634554152013067
 40
0.4995141933905559
 40
0.5459446595835001
 40
0.5922619429275638
 40
0.6390021598005257
 40
0.6863872456487286
 40
0.7335875256662775
 40
0.7798390432416541
 40
0.8074223566662749
 40
0.8358794111250489
 40
0.8615092348538278
 40
0.8898791146135872
 40
0.9169370880900178
 40
0.9450348483940443
 40
0.9725752341680354
 40
1.0
 40
1.0
 40
1.0
 40
1.0
 10
644.9718996461696
 20
50.42774178327342
 30
0.0
 10
645.3180913237148
 20
49.63500505570678
 30
0.0
 10
646.008798156346
 20
48.05337063257248
 30
0.0
 10
647.2879439431166
 20
45.78605034356914
 30
0.0
 10
648.8510215881698
 20
43.70793549615365
 30
0.0
 10
650.679966784883
 20
41.85334005210711
 30
0.0
 10
652.7404375052928
 20
40.26648523040161
 30
0.0
 10
654.9981677267766
 20
38.98226042343894
 30
0.0
 10
657.4140348082157
 20
38.00974707289312
 30
0.0
 10
660.1955414608772
 20
37.29556984557242
 30
0.0
 10
663.3352564945706
 20
36.95116131947124
 30
0.0
 10
666.79794749504
 20
37.06026576506288
 30
0.0
 10
672.527907783656
 20
37.92079090116168
 30
0.0
 10
680.5075162480052
 20
40.40889720407254
 30
0.0
 10
690.8496144317033
 20
43.13535084395642
 30
0.0
 10
701.0732363854776
 20
46.74166773995053
 30
0.0
 10
711.0281241462104
 20
50.8278896210071
 30
0.0
 10
720.9411467268269
 20
55.21565523036226
 30
0.0
 10
730.8720786993443
 20
59.61921350732741
 30
0.0
 10
741.1900366810411
 20
64.04550108805435
 30
0.0
 10
751.7635294245819
 20
68.40613980347216
 30
0.0
 10
762.7336129750278
 20
72.68407274610983
 30
0.0
 10
773.7341449272473
 20
76.69742873049584
 30
0.0
 10
784.9580288228974
 20
80.53204241786199
 30
0.0
 10
797.3760269032633
 20
84.51016394389205
 30
0.0
 10
811.0208926739657
 20
88.57565136753348
 30
0.0
 10
825.8859362550884
 20
92.66761207309032
 30
0.0
 10
840.9243631549767
 20
96.51684376138253
 30
0.0
 10
856.1118680090441
 20
100.1688790364025
 30
0.0
 10
871.2841538095508
 20
103.6504153158917
 30
0.0
 10
884.3862448283086
 20
106.3593085050808
 30
0.0
 10
895.5144545540743
 20
108.3623244707734
 30
0.0
 10
904.4373937596438
 20
109.7296210238601
 30
0.0
 10
913.4238289360302
 20
111.247953858727
 30
0.0
 10
922.2475401131377
 20
112.7980221572373
 30
0.0
 10
931.3757235491244
 20
114.1911599873858
 30
0.0
 10
940.4602097680103
 20
115.2048882115657
 30
0.0
 10
949.5117906173842
 20
116.8131973983935
 30
0.0
 10
955.5837809722669
 20
117.1417762026911
 30
0.0
 10
958.6133898926681
 20
117.3057200198539
 30
0.0
  0
SPLINE
  5
6A
330
1F
100
AcDbEntity
  8
0
  6
Continuous
 62
     7
370
    25
100
AcDbSpline
210
0.0
220
0.0
230
1.0
 70
     8
 71
     3
 72
    15
 73
    11
 74
     0
 42
0.00000001
 43
0.00000001
 40
0.0
 40
0.0
 40
0.0
 40
0.0
 40
0.1312741266841258
 40
0.2627638614184239
 40
0.3948124238601595
 40
0.5462193640477819
 40
0.6964137373717324
 40
0.797782514255132
 40
0.898662859532664
 40
1.0
 40
1.0
 40
1.0
 40
1.0
 10
658.021587388032
 20
88.65859853812891
 30
0.0
 10
656.8733303455188
 20
87.23478428057257
 30
0.0
 10
654.5749303331717
 20
84.38481725578067
 30
0.0
 10
651.4952163980253
 20
79.82060989313561
 30
0.0
 10
648.6334221017847
 20
74.7911085878426
 30
0.0
 10
646.2676816002055
 20
69.21260910099308
 30
0.0
 10
644.8688022844595
 20
63.74934852898756
 30
0.0
 10
644.342066535496
 20
58.85918987439825
 30
0.0
 10
644.3760968618897
 20
54.6173170991297
 30
0.0
 10
644.772999859351
 20
51.82636840800697
 30
0.0
 10
644.9718996461696
 20
50.42774178327342
 30
0.0
  0
LINE
  5
6B
330
1F
100
AcDbEntity
  8
0
  6
Continuous
 62
     7
370
    25
100
AcDbLine
 10
658.0215724494
 20
88.6586110084
 30
0.0
 11
663.3427229092
 21
67.6325676848
 31
0.0
  0
ARC
  5
6C
330
1F
100
AcDbEntity
  8
0
  6
Continuous
 62
     7
370
    25
100
AcDbCircle
 10
674.1155937542
 20
70.3589040557
 30
0.0
 40
11.11250000000036
100
AcDbArc
 50
194.2019042652
 51
14.2019042652
  0
LINE
  5
6D
330
1F
100
AcDbEntity
  8
0
  6
Continuous
 62
     7
370
    25
100
AcDbLine
 10
389.2306371699
 20
35.940168227
 30
0.0
 11
390.0958824513
 21
70.3639605344
 31
0.0
  0
SPLINE
  5
6E
330
1F
100
AcDbEntity
  8
0
  6
Continuous
 62
     7
370
    25
100
AcDbSpline
210
0.0
220
0.0
230
1.0
 70
     8
 71
     3
 72
    26
 73
    22
 74
     0
 42
0.00000001
 43
0.00000001
 40
0.0
 40
0.0
 40
0.0
 40
0.0
 40
0.0503977265825944
 40
0.100527778351629
 40
0.148088990751783
 40
0.1966636604485076
 40
0.2464508760840325
 40
0.2942180994160777
 40
0.3479846122259345
 40
0.4012202494474735
 40
0.4543285983563757
 40
0.5077334398726452
 40
0.5599244183499938
 40
0.6139097976076415
 40
0.6668021468510354
 40
0.7199806106682414
 40
0.7731015458781234
 40
0.8248817571248046
 40
0.8839843080048623
 40
0.9416299461365993
 40
1.0
 40
1.0
 40
1.0
 40
1.0
 10
574.7069476005121
 20
62.46267475020733
 30
0.0
 10
571.6487661124391
 20
63.28516504235865
 30
0.0
 10
565.5486458959405
 20
64.92577717692077
 30
0.0
 10
556.5455544133428
 20
67.27904138267299
 30
0.0
 10
547.6389968469872
 20
69.54785967047222
 30
0.0
 10
538.7359585373621
 20
71.74226826396097
 30
0.0
 10
529.8016172717856
 20
73.86243557524702
 30
0.0
 10
520.5268003840224
 20
75.95897322982498
 30
0.0
 10
511.0040042038715
 20
77.93682846728206
 30
0.0
 10
501.1041175827461
 20
79.73686776935446
 30
0.0
 10
491.1742979649721
 20
81.2210255511449
 30
0.0
 10
481.2617516644347
 20
82.33466664632711
 30
0.0
 10
471.2587226979665
 20
83.0716781505993
 30
0.0
 10
461.2653108420922
 20
83.39371404410805
 30
0.0
 10
451.2052117060026
 20
83.27186216043685
 30
0.0
 10
441.2153440165101
 20
82.68547847046953
 30
0.0
 10
431.3363377467393
 20
81.60827617794192
 30
0.0
 10
421.1596448393774
 20
79.9483151810722
 30
0.0
 10
410.8286078480405
 20
77.59411013174095
 30
0.0
 10
400.2652426146425
 20
74.45964544100408
 30
0.0
 10
393.4997439695829
 20
71.73487581124121
 30
0.0
 10
390.0958723593403
 20
70.36398410409811
 30
0.0
  0
LINE
  5
6F
330
1F
100
AcDbEntity
  8
0
  6
Continuous
 62
     7
370
    25
100
AcDbLine
 10
574.7069480509
 20
62.4626764158
 30
0.0
 11
574.1470019673
 21
40.185215792
 31
0.0
  0
ARC
  5
70
330
1F
100
AcDbEntity
  8
0
  6
Continuous
 62
     7
370
    25
100
AcDbCircle
 10
585.255993341
 20
39.9059902413
 30
0.0
 40
11.11250000000015
100
AcDbArc
 50
178.5601683175
 51
358.5601683175
  0
LINE
  5
71
330
1F
100
AcDbEntity
  8
0
  6
Continuous
 62
     7
370
    25
100
AcDbLine
 10
596.3649847147
 20
39.6267646905
 30
0.0
 11
596.784573439
 21
56.3201063459
 31
0.0
  0
SPLINE
  5
72
330
1F
100
AcDbEntity
  8
0
  6
Continuous
 62
     7
370
    25
100
AcDbSpline
210
0.0
220
0.0
230
1.0
 70
     8
 71
     3
 72
    44
 73
    40
 74
     0
 42
0.00000001
 43
0.00000001
 40
0.0
 40
0.0
 40
0.0
 40
0.0
 40
0.0078237613760211
 40
0.0156096341703307
 40
0.0234929623848169
 40
0.0312797319383149
 40
0.0391064305825191
 40
0.0469479562046857
 40
0.0547061693389435
 40
0.0626000932147071
 40
0.072860930821123
 40
0.0831691160613972
 40
0.093861417394613
 40
0.1251824537399524
 40
0.1585889657329348
 40
0.1906535530886262
 40
0.2231575485209679
 40
0.2559401398421252
 40
0.2887311756426215
 40
0.3214471695914887
 40
0.3575177873449188
 40
0.3922080553080512
 40
0.4279728957699215
 40
0.4634554152013067
 40
0.4995141933905557
 40
0.5459446595835001
 40
0.5922619429275637
 40
0.6390021598005258
 40
0.6863872456487287
 40
0.7335875256662778
 40
0.7798390432416543
 40
0.8074223566662753
 40
0.8358794111250489
 40
0.8615092348538278
 40
0.8898791146135875
 40
0.9169370880900183
 40
0.9450348483940448
 40
0.9725752341680357
 40
0.9999999999999999
 40
0.9999999999999999
 40
0.9999999999999999
 40
0.9999999999999999
 10
344.6833801663021
 20
24.88411577221489
 30
0.0
 10
344.8030123843286
 20
24.02739625612754
 30
0.0
 10
345.04169747052
 20
22.31810610910262
 30
0.0
 10
345.6621539653041
 20
19.78986779461961
 30
0.0
 10
346.6070411315013
 20
17.36727387762321
 30
0.0
 10
347.8682154249393
 20
15.08823807377335
 30
0.0
 10
349.4245296103774
 20
13.00460327586839
 30
0.0
 10
351.2523935835326
 20
11.15920564840134
 30
0.0
 10
353.3165821051859
 20
9.571338613903023
 30
0.0
 10
355.8025221896341
 20
8.1336563585504
 30
0.0
 10
358.7331024518514
 20
6.955468320776037
 30
0.0
 10
362.0969745028168
 20
6.126916832023321
 30
0.0
 10
367.8467498056802
 20
5.410654041174412
 30
0.0
 10
376.2016913873027
 20
5.655144095315922
 30
0.0
 10
386.8958947708842
 20
5.492176975061048
 30
0.0
 10
397.7132394381398
 20
6.208432346991588
 30
0.0
 10
408.4011947287792
 20
7.459276580026152
 30
0.0
 10
419.1301378824409
 20
9.011785044395593
 30
0.0
 10
429.880585219433
 20
10.57467256304917
 30
0.0
 10
441.0098539132039
 20
12.05509716471093
 30
0.0
 10
452.3674936669188
 20
13.40340648713823
 30
0.0
 10
464.0847378092641
 20
14.56514358052163
 30
0.0
 10
475.7599671446701
 20
15.46389240799512
 30
0.0
 10
487.6020841633023
 20
16.13029795373777
 30
0.0
 10
500.6327858225068
 20
16.61293805633962
 30
0.0
 10
514.8684755827205
 20
16.84891886744366
 30
0.0
 10
530.2862933652464
 20
16.78140657720412
 30
0.0
 10
545.8056285376852
 20
16.43340654998887
 30
0.0
 10
561.4153524120131
 20
15.85531839965482
 30
0.0
 10
576.9644506802154
 20
15.11714882331977
 30
0.0
 10
590.3116998168474
 20
14.19311859711997
 30
0.0
 10
601.5678479804125
 20
13.1215528365069
 30
0.0
 10
610.5289911580428
 20
12.03239863237393
 30
0.0
 10
619.5920014290109
 20
11.07156742703264
 30
0.0
 10
628.5068705110092
 20
10.18517027118848
 30
0.0
 10
637.6726243507495
 20
9.065562123623138
 30
0.0
 10
646.6940023092523
 20
7.592376967754944
 30
0.0
 10
655.8440052209249
 20
6.700625304134622
 30
0.0
 10
661.7797199072737
 20
5.379897450758008
 30
0.0
 10
664.7413343222667
 20
4.720922608547617
 30
0.0
  0
SPLINE
  5
73
330
1F
100
AcDbEntity
  8
0
  6
Continuous
 62
     7
370
    25
100
AcDbSpline
210
0.0
220
0.0
230
1.0
 70
     8
 71
     3
 72
    15
 73
    11
 74
     0
 42
0.00000001
 43
0.00000001
 40
0.0
 40
0.0
 40
0.0
 40
0.0
 40
0.1312741266841263
 40
0.2627638614184221
 40
0.3948124238601601
 40
0.546219364047782
 40
0.6964137373717322
 40
0.7977825142551318
 40
0.8986628595326617
 40
0.9999999999999999
 40
0.9999999999999999
 40
0.9999999999999999
 40
0.9999999999999999
 10
367.557646315806
 20
58.18067274875599
 30
0.0
 10
366.0680226241622
 20
57.11918203612826
 30
0.0
 10
363.0863286440641
 20
54.99445719083567
 30
0.0
 10
358.8900598049077
 20
51.42963537185358
 30
0.0
 10
354.7781870818968
 20
47.35799532345914
 30
0.0
 10
350.9959758783476
 20
42.62394176890943
 30
0.0
 10
348.1758904028521
 20
37.74017300610427
 30
0.0
 10
346.3501704074597
 20
33.17313362432578
 30
0.0
 10
345.2392410242942
 20
29.07917727254367
 30
0.0
 10
344.8689459425498
 20
26.28457387701338
 30
0.0
 10
344.6833801663021
 20
24.884115772215
 30
0.0
  0
LINE
  5
74
330
1F
100
AcDbEntity
  8
0
  6
Continuous
 62
     7
370
    25
100
AcDbLine
 10
367.5576352926
 20
58.180688785
 30
0.0
 11
367.0126544224
 21
36.4986193285
 31
0.0
  0
ARC
  5
75
330
1F
100
AcDbEntity
  8
0
  6
Continuous
 62
     7
370
    25
100
AcDbCircle
 10
378.1216457961
 20
36.2193937777
 30
0.0
 40
11.11250000000043
100
AcDbArc
 50
178.5601683175
 51
358.5601683175
  0
SPLINE
  5
76
330
1F
100
AcDbEntity
  8
0
  6
Continuous
 62
     7
370
    25
100
AcDbSpline
210
0.0
220
0.0
230
1.0
 70
     8
 71
     3
 72
    32
 73
    28
 74
     0
 42
0.00000001
 43
0.00000001
 40
0.0
 40
0.0
 40
0.0
 40
0.0
 40
0.0259843027267754
 40
0.0519011127925581
 40
0.0775691294706311
 40
0.1033335837620909
 40
0.1291040959630377
 40
0.1548030404876356
 40
0.1805473028096262
 40
0.2063411229099651
 40
0.2321056119253588
 40
0.2578039962408635
 40
0.2835809763114734
 40
0.296332478374829
 40
0.3094133329765718
 40
0.3521499687625137
 40
0.3960582567479372
 40
0.4395198184901569
 40
0.4844021747604859
 40
0.5251776772993191
 40
0.5660625884427093
 40
0.6110703806908958
 40
0.6534981624533435
 40
0.6963677586058635
 40
0.7983531743582677
 40
0.8972151923649796
 40
1.0
 40
1.0
 40
1.0
 40
1.0
 10
664.7413343222665
 20
4.720922608547617
 30
0.0
 10
665.7890365662499
 20
4.582688356086329
 30
0.0
 10
667.8817197107531
 20
4.30657890630698
 30
0.0
 10
671.0558230566289
 20
4.401376758372654
 30
0.0
 10
674.1217756562113
 20
5.222410693082214
 30
0.0
 10
676.8985978935424
 20
6.748701222637987
 30
0.0
 10
679.22383883733
 20
8.904274964834535
 30
0.0
 10
680.95453161935
 20
11.55979438449489
 30
0.0
 10
681.9869622359679
 20
14.55790295911996
 30
0.0
 10
682.2569761308392
 20
17.72005763572254
 30
0.0
 10
681.7477934548741
 20
20.85068609058188
 30
0.0
 10
680.49506482731
 20
23.76249168836436
 30
0.0
 10
678.8982198011448
 20
25.86236029648375
 30
0.0
 10
677.3511353936663
 20
27.2837254469957
 30
0.0
 10
675.0930212949872
 20
28.92962483229316
 30
0.0
 10
671.3486867278983
 20
30.56396729527827
 30
0.0
 10
666.4306272144369
 20
32.47704279684665
 30
0.0
 10
661.4469502378003
 20
34.49800753921101
 30
0.0
 10
656.5879403478048
 20
36.47764966945682
 30
0.0
 10
651.7966028890884
 20
38.34753307540889
 30
0.0
 10
646.9710057192965
 20
40.14083223937021
 30
0.0
 10
642.0630257314275
 20
41.90430198821288
 30
0.0
 10
637.0634981832739
 20
43.65078958561325
 30
0.0
 10
629.8590373997064
 20
46.10634986754408
 30
0.0
 10
620.4456395775442
 20
49.18920585873027
 30
0.0
 10
608.661473239267
 20
52.85294834529036
 30
0.0
 10
600.7945470772361
 20
55.14947163422451
 30
0.0
 10
596.7845633362576
 20
56.32007128899813
 30
0.0
  0
LINE
  5
77
330
1F
100
AcDbEntity
  8
0
  6
Continuous
 62
     7
370
    25
100
AcDbLine
 10
50.2107974921
 20
36.0861799485
 30
0.0
 11
51.0300094287
 21
70.5110985109
 31
0.0
  0
SPLINE
  5
78
330
1F
100
AcDbEntity
  8
0
  6
Continuous
 62
     7
370
    25
100
AcDbSpline
210
0.0
220
0.0
230
1.0
 70
     8
 71
     3
 72
    26
 73
    22
 74
     0
 42
0.00000001
 43
0.00000001
 40
0.0
 40
0.0
 40
0.0
 40
0.0
 40
0.0503977265825944
 40
0.1005277783516289
 40
0.1480889907517828
 40
0.1966636604485073
 40
0.2464508760840325
 40
0.2942180994160778
 40
0.3479846122259345
 40
0.4012202494474734
 40
0.4543285983563757
 40
0.5077334398726452
 40
0.5599244183499937
 40
0.6139097976076415
 40
0.6668021468510357
 40
0.7199806106682414
 40
0.7731015458781235
 40
0.8248817571248046
 40
0.8839843080048623
 40
0.9416299461365994
 40
0.9999999999999999
 40
0.9999999999999999
 40
0.9999999999999999
 40
0.9999999999999999
 10
235.651475364579
 20
62.85668747863099
 30
0.0
 10
232.5921967510776
 20
63.67508753951073
 30
0.0
 10
226.4898881108269
 20
65.30754093576135
 30
0.0
 10
217.4836578193789
 20
67.648763822097
 30
0.0
 10
208.5740742815841
 20
69.90566995415276
 30
0.0
 10
199.6681095003423
 20
72.08817116448756
 30
0.0
 10
190.7309410689005
 20
74.19638929970723
 30
0.0
 10
181.4533289180048
 20
76.28052250470024
 30
0.0
 10
171.9278964022766
 20
78.24564179302357
 30
0.0
 10
162.0256115637558
 20
80.03244104782054
 30
0.0
 10
152.093816161993
 20
81.50331903742497
 30
0.0
 10
142.1797895285189
 20
82.6037037701169
 30
0.0
 10
132.1757839508769
 20
83.32733825239231
 30
0.0
 10
122.1819503935893
 20
83.63601035523155
 30
0.0
 10
112.1220231963233
 20
83.50070590145393
 30
0.0
 10
102.132948569314
 20
82.90096397240026
 30
0.0
 10
92.25539160088469
 20
81.81055212698035
 30
0.0
 10
82.08092754418134
 20
80.13698402238262
 30
0.0
 10
71.75304790635073
 20
77.7689660923077
 30
0.0
 10
61.19388362176681
 20
74.62037854186504
 30
0.0
 10
54.43203467282781
 20
71.88656431201795
 30
0.0
 10
51.02999930521324
 20
70.51112206705507
 30
0.0
  0
LINE
  5
79
330
1F
100
AcDbEntity
  8
0
  6
Continuous
 62
     7
370
    25
100
AcDbLine
 10
235.6514758128
 20
62.8566891448
 30
0.0
 11
235.1213203465
 21
40.5784996618
 31
0.0
  0
ARC
  5
7A
330
1F
100
AcDbEntity
  8
0
  6
Continuous
 62
     7
370
    25
100
AcDbCircle
 10
246.2306751769
 20
40.3141296512
 30
0.0
 40
11.11250000000015
100
AcDbArc
 50
178.6367860478
 51
358.6367860478
  0
LINE
  5
7B
330
1F
100
AcDbEntity
  8
0
  6
Continuous
 62
     7
370
    25
100
AcDbLine
 10
257.3400300073
 20
40.0497596406
 30
0.0
 11
257.7372954981
 21
56.7436474578
 31
0.0
  0
SPLINE
  5
7C
330
1F
100
AcDbEntity
  8
0
  6
Continuous
 62
     7
370
    25
100
AcDbSpline
210
0.0
220
0.0
230
1.0
 70
     8
 71
     3
 72
    44
 73
    40
 74
     0
 42
0.00000001
 43
0.00000001
 40
0.0
 40
0.0
 40
0.0
 40
0.0
 40
0.0078237613760208
 40
0.0156096341703307
 40
0.0234929623848169
 40
0.0312797319383148
 40
0.0391064305825189
 40
0.0469479562046856
 40
0.0547061693389433
 40
0.0626000932147069
 40
0.072860930821123
 40
0.0831691160613971
 40
0.0938614173946129
 40
0.1251824537399523
 40
0.1585889657329347
 40
0.1906535530886261
 40
0.2231575485209677
 40
0.255940139842125
 40
0.2887311756426213
 40
0.3214471695914885
 40
0.3575177873449185
 40
0.3922080553080509
 40
0.4279728957699214
 40
0.4634554152013065
 40
0.4995141933905555
 40
0.5459446595834998
 40
0.5922619429275635
 40
0.6390021598005257
 40
0.6863872456487283
 40
0.7335875256662775
 40
0.779839043241654
 40
0.8074223566662748
 40
0.8358794111250488
 40
0.8615092348538277
 40
0.8898791146135874
 40
0.9169370880900181
 40
0.9450348483940444
 40
0.9725752341680357
 40
1.0
 40
1.0
 40
1.0
 40
1.0
 10
5.678364816900094
 20
24.97056739425124
 30
0.0
 10
5.799142560082848
 20
24.11400862009366
 30
0.0
 10
6.040113149086257
 20
22.40503917849373
 30
0.0
 10
6.663949928433444
 20
19.87763281831501
 30
0.0
 10
7.612075818131281
 20
17.45630460000169
 30
0.0
 10
8.876296581882492
 20
15.1789573155155
 30
0.0
 10
10.43539567741791
 20
13.09740553255717
 30
0.0
 10
12.26572573968698
 20
11.25445383189505
 30
0.0
 10
14.33203576119868
 20
9.669348514519394
 30
0.0
 10
16.81989613663781
 20
8.234991821383876
 30
0.0
 10
19.75204928851598
 20
7.060723700560434
 30
0.0
 10
23.11702629681539
 20
6.236671227475288
 30
0.0
 10
28.8677542678335
 20
5.528097856311865
 30
0.0
 10
37.22236143960856
 20
5.783760180923691
 30
0.0
 10
47.91677318629317
 20
5.635093829453652
 30
0.0
 10
58.73315038275029
 20
6.365813852435287
 30
0.0
 10
69.41942344934071
 20
7.630949235028828
 30
0.0
 10
80.14628094746551
 20
9.197803389492831
 30
0.0
 10
90.89462873049847
 20
10.77506534502765
 30
0.0
 10
102.0219078035987
 20
12.27037102906031
 30
0.0
 10
113.3777344011392
 20
13.63386693690327
 30
0.0
 10
125.0934145560069
 20
14.81127165674456
 30
0.0
 10
136.767431617631
 20
15.72563216229994
 30
0.0
 10
148.6086469099676
 20
16.40787276128752
 30
0.0
 10
161.6386915170652
 20
16.90793749397634
 30
0.0
 10
175.874052988315
 20
17.16295450346139
 30
0.0
 10
191.2919472654055
 20
17.11605946150013
 30
0.0
 10
206.8117339186131
 20
16.78881268557364
 30
0.0
 10
222.422216873925
 20
16.23159886284608
 30
0.0
 10
237.9722883432035
 20
15.51422268679009
 30
0.0
 10
251.3207611882431
 20
14.6080416455549
 30
0.0
 10
262.5783322189857
 20
13.55152891622619
 30
0.0
 10
271.5409238355602
 20
12.47435880669151
 30
0.0
 10
280.6052108568687
 20
11.52564780107762
 30
0.0
 10
289.5212572861213
 20
10.65117267938082
 30
0.0
 10
298.6885001058304
 20
9.543822265416113
 30
0.0
 10
307.7118399876155
 20
8.082702095338124
 30
0.0
 10
316.8630271965263
 20
7.203186898960324
 30
0.0
 10
322.8005026943604
 20
5.890397649674084
 30
0.0
 10
325.7629956631505
 20
5.235383760028133
 30
0.0
  0
SPLINE
  5
7D
330
1F
100
AcDbEntity
  8
0
  6
Continuous
 62
     7
370
    25
100
AcDbSpline
210
0.0
220
0.0
230
1.0
 70
     8
 71
     3
 72
    15
 73
    11
 74
     0
 42
0.00000001
 43
0.00000001
 40
0.0
 40
0.0
 40
0.0
 40
0.0
 40
0.1312741266841253
 40
0.2627638614184233
 40
0.3948124238601593
 40
0.5462193640477819
 40
0.6964137373717325
 40
0.7977825142551324
 40
0.8986628595326619
 40
1.0
 40
1.0
 40
1.0
 40
1.0
 10
28.50808531778209
 20
58.29768278430564
 30
0.0
 10
27.01988241656628
 20
57.23420104938287
 30
0.0
 10
24.04103235086735
 20
55.10549088939304
 30
0.0
 10
19.849534254747
 20
51.53506087582576
 30
0.0
 10
15.74310993249373
 20
47.45792594311376
 30
0.0
 10
11.9672326350021
 20
42.71881893019641
 30
0.0
 10
9.153680409189846
 20
37.83128342748338
 30
0.0
 10
7.334069233994933
 20
33.26180671921625
 30
0.0
 10
6.228615410519778
 20
29.16636845831638
 30
0.0
 10
5.862057690876887
 20
26.37127239126541
 30
0.0
 10
5.678364816899983
 20
24.97056739425135
 30
0.0
  0
LINE
  5
7E
330
1F
100
AcDbEntity
  8
0
  6
Continuous
 62
     7
370
    25
100
AcDbLine
 10
28.5080742732
 20
58.2976988058
 30
0.0
 11
27.9920878313
 21
36.6149199697
 31
0.0
  0
ARC
  5
7F
330
1F
100
AcDbEntity
  8
0
  6
Continuous
 62
     7
370
    25
100
AcDbCircle
 10
39.1014426617
 20
36.3505499591
 30
0.0
 40
11.11250000000048
100
AcDbArc
 50
178.6367860478
 51
358.6367860478
  0
SPLINE
  5
80
330
1F
100
AcDbEntity
  8
0
  6
Continuous
 62
     7
370
    25
100
AcDbSpline
210
0.0
220
0.0
230
1.0
 70
     8
 71
     3
 72
    32
 73
    28
 74
     0
 42
0.00000001
 43
0.00000001
 40
0.0
 40
0.0
 40
0.0
 40
0.0
 40
0.0259843027267754
 40
0.0519011127925583
 40
0.0775691294706308
 40
0.1033335837620907
 40
0.1291040959630375
 40
0.1548030404876353
 40
0.1805473028096262
 40
0.2063411229099646
 40
0.2321056119253588
 40
0.257803996240864
 40
0.2835809763114744
 40
0.2963324783748291
 40
0.3094133329765725
 40
0.3521499687625146
 40
0.396058256747937
 40
0.4395198184901572
 40
0.4844021747604861
 40
0.5251776772993196
 40
0.5660625884427094
 40
0.6110703806908956
 40
0.6534981624533432
 40
0.6963677586058638
 40
0.7983531743582685
 40
0.8972151923649798
 40
1.0
 40
1.0
 40
1.0
 40
1.0
 10
325.7629956631504
 20
5.235383760028023
 30
0.0
 10
326.8108818215529
 20
5.098550651354172
 30
0.0
 10
328.9039323171882
 20
4.825239849763019
 30
0.0
 10
332.0779060584658
 20
4.924282127290402
 30
0.0
 10
335.142758004554
 20
5.749415215579534
 30
0.0
 10
337.9175367557349
 20
7.279417633989982
 30
0.0
 10
340.2398931199446
 20
9.438098833780384
 30
0.0
 10
341.9670333109802
 20
12.09593021564781
 30
0.0
 10
342.9954538399978
 20
15.0954167081771
 30
0.0
 10
343.2612389613656
 20
18.25792962853679
 30
0.0
 10
342.747870366421
 20
21.38787438932793
 30
0.0
 10
341.4912491014427
 20
24.29800219579975
 30
0.0
 10
339.8915974930603
 20
26.39573357535058
 30
0.0
 10
338.3426137749078
 20
27.81502864539537
 30
0.0
 10
336.0823007470851
 20
29.45790693834011
 30
0.0
 10
332.3357840339508
 20
31.08724089883414
 30
0.0
 10
327.415170693332
 20
32.9937381070074
 30
0.0
 10
322.4287956753407
 20
35.00803671379121
 30
0.0
 10
317.5671428904151
 20
36.98117945412777
 30
0.0
 10
312.7733092490603
 20
38.84465406199594
 30
0.0
 10
307.945318338104
 20
40.6314986831901
 30
0.0
 10
303.0349845715551
 20
42.38840375105652
 30
0.0
 10
298.0331260356372
 20
44.12820426240477
 30
0.0
 10
290.8253880415635
 20
46.57412831865443
 30
0.0
 10
281.4078761444599
 20
49.64439366363676
 30
0.0
 10
269.6188210713511
 20
53.29237471885278
 30
0.0
 10
261.7488309603589
 20
55.57837605488653
 30
0.0
 10
257.7372854422309
 20
56.74361238741915
 30
0.0
  0
LINE
  5
81
330
1F
100
AcDbEntity
  8
0
  6
Continuous
 62
     7
370
    25
100
AcDbLine
 10
970.366673661
 20
85.6899594577
 30
0.0
 11
978.8165519433
 21
52.3081428019
 31
0.0
  0
SPLINE
  5
82
330
1F
100
AcDbEntity
  8
0
  6
Continuous
 62
     7
370
    25
100
AcDbSpline
210
0.0
220
0.0
230
1.0
 70
     8
 71
     3
 72
    26
 73
    22
 74
     0
 42
0.00000001
 43
0.00000001
 40
0.0
 40
0.0
 40
0.0
 40
0.0
 40
0.0503977265825942
 40
0.1005277783516289
 40
0.1480889907517827
 40
0.1966636604485069
 40
0.246450876084032
 40
0.2942180994160778
 40
0.3479846122259341
 40
0.401220249447473
 40
0.4543285983563752
 40
0.5077334398726451
 40
0.5599244183499933
 40
0.6139097976076415
 40
0.6668021468510354
 40
0.719980610668241
 40
0.7731015458781231
 40
0.824881757124804
 40
0.8839843080048622
 40
0.9416299461365997
 40
1.0
 40
1.0
 40
1.0
 40
1.0
 10
798.914076266617
 20
10.13261745878097
 30
0.0
 10
802.0807616398332
 20
10.16529836657848
 30
0.0
 10
808.3973133355988
 20
10.23048660577419
 30
0.0
 10
817.7014702052518
 20
10.39226920986014
 30
0.0
 10
826.8898969318897
 20
10.60933692986021
 30
0.0
 10
836.0548687084564
 20
10.89710863201454
 30
0.0
 10
845.229963096514
 20
11.26481265410906
 30
0.0
 10
854.7265472123659
 20
11.74708702534438
 30
0.0
 10
864.429918569404
 20
12.41051956633604
 30
0.0
 10
874.4484585609607
 20
13.34687048224309
 30
0.0
 10
884.4106388030195
 20
14.59547241541126
 30
0.0
 10
894.2562683727739
 20
16.19620631720653
 30
0.0
 10
904.087462724019
 20
18.18401719590557
 30
0.0
 10
913.79748972434
 20
20.56883653725422
 30
0.0
 10
923.4520301498108
 20
23.399082406869
 30
0.0
 10
932.913670656356
 20
26.65771113845489
 30
0.0
 10
942.1361977353597
 20
30.35907898483831
 30
0.0
 10
951.4882303672299
 20
34.70189312941269
 30
0.0
 10
960.8016721756509
 20
39.75485349060898
 30
0.0
 10
970.1284223857436
 20
45.62181901549317
 30
0.0
 10
975.9084889998555
 20
50.07009636610999
 30
0.0
 10
978.816568017424
 20
52.3081228269246
 30
0.0
  0
LINE
  5
83
330
1F
100
AcDbEntity
  8
0
  6
Continuous
 62
     7
370
    25
100
AcDbLine
 10
798.9140762821
 20
10.1326157334
 30
0.0
 11
793.4457121626
 21
31.7357586834
 31
0.0
  0
ARC
  5
84
330
1F
100
AcDbEntity
  8
0
  6
Continuous
 62
     7
370
    25
100
AcDbCircle
 10
782.6729794562
 20
29.0088765285
 30
0.0
 40
11.11250000000019
100
AcDbArc
 50
14.2048070491
 51
194.2048070491
  0
LINE
  5
85
330
1F
100
AcDbEntity
  8
0
  6
Continuous
 62
     7
370
    25
100
AcDbLine
 10
771.9002467499
 20
26.2819943736
 30
0.0
 11
775.9978982768
 21
10.0939443896
 31
0.0
  0
SPLINE
  5
86
330
1F
100
AcDbEntity
  8
0
  6
Continuous
 62
     7
370
    25
100
AcDbSpline
210
0.0
220
0.0
230
1.0
 70
     8
 71
     3
 72
    32
 73
    28
 74
     0
 42
0.00000001
 43
0.00000001
 40
0.0
 40
0.0
 40
0.0
 40
0.0
 40
0.0259843027267756
 40
0.0519011127925582
 40
0.0775691294706306
 40
0.103333583762091
 40
0.1291040959630374
 40
0.1548030404876352
 40
0.1805473028096263
 40
0.2063411229099651
 40
0.2321056119253594
 40
0.2578039962408638
 40
0.2835809763114744
 40
0.2963324783748292
 40
0.3094133329765728
 40
0.3521499687625142
 40
0.3960582567479371
 40
0.4395198184901572
 40
0.4844021747604861
 40
0.5251776772993193
 40
0.5660625884427093
 40
0.6110703806908958
 40
0.6534981624533434
 40
0.6963677586058638
 40
0.7983531743582676
 40
0.8972151923649799
 40
1.0
 40
1.0
 40
1.0
 40
1.0
 10
696.6439890670193
 20
41.45561215817045
 30
0.0
 10
695.5978236493647
 20
41.30619121082785
 30
0.0
 10
693.5082101657051
 20
41.00773742805202
 30
0.0
 10
690.4772627343756
 20
40.06049070645573
 30
0.0
 10
687.746303543052
 20
38.44307796996732
 30
0.0
 10
685.4839498713616
 20
36.22450627120804
 30
0.0
 10
683.8261465401122
 20
33.52174255241685
 30
0.0
 10
682.8756854196106
 20
30.49788664441727
 30
0.0
 10
682.6900038418197
 20
27.33243401405966
 30
0.0
 10
683.282731885238
 20
24.21461375485151
 30
0.0
 10
684.6172877375262
 20
21.33727780001366
 30
0.0
 10
686.6088332280873
 20
18.87117005447159
 30
0.0
 10
688.7127913996212
 20
17.27971718951177
 30
0.0
 10
690.5858603290372
 20
16.3282121497933
 30
0.0
 10
693.2041674394767
 20
15.35223471942004
 30
0.0
 10
697.2505180966592
 20
14.78817532916926
 30
0.0
 10
702.502276406908
 20
14.27222775103426
 30
0.0
 10
707.8463157402958
 20
13.67008300054728
 30
0.0
 10
713.0591630841334
 20
13.07411098378342
 30
0.0
 10
718.1772464237605
 20
12.56558220014709
 30
0.0
 10
723.3076677641129
 20
12.14003924459206
 30
0.0
 10
728.5093757642795
 20
11.76543679210867
 30
0.0
 10
733.7946601613643
 20
11.43187499190901
 30
0.0
 10
741.3944068297334
 20
11.01011432900179
 30
0.0
 10
751.2904184349977
 20
10.57998187364628
 30
0.0
 10
763.6260158664202
 20
10.22980862238709
 30
0.0
 10
771.8207978731548
 20
10.13984019703196
 30
0.0
 10
775.9978985514946
 20
10.09398087212604
 30
0.0
  0
SPLINE
  5
87
330
1F
100
AcDbEntity
  8
0
  6
Continuous
 62
     7
370
    25
100
AcDbSpline
210
0.0
220
0.0
230
1.0
 70
     8
 71
     3
 72
    44
 73
    40
 74
     0
 42
0.00000001
 43
0.00000001
 40
0.0
 40
0.0
 40
0.0
 40
0.0
 40
0.0078237613760208
 40
0.0156096341703307
 40
0.0234929623848171
 40
0.031279731938315
 40
0.039106430582519
 40
0.0469479562046857
 40
0.0547061693389436
 40
0.062600093214707
 40
0.0728609308211231
 40
0.0831691160613972
 40
0.0938614173946128
 40
0.1251824537399523
 40
0.1585889657329347
 40
0.1906535530886261
 40
0.2231575485209677
 40
0.2559401398421253
 40
0.2887311756426214
 40
0.3214471695914886
 40
0.3575177873449186
 40
0.3922080553080511
 40
0.4279728957699215
 40
0.4634554152013065
 40
0.4995141933905557
 40
0.5459446595834998
 40
0.5922619429275637
 40
0.6390021598005258
 40
0.6863872456487286
 40
0.7335875256662775
 40
0.7798390432416541
 40
0.8074223566662749
 40
0.8358794111250489
 40
0.8615092348538276
 40
0.8898791146135875
 40
0.9169370880900181
 40
0.9450348483940447
 40
0.9725752341680359
 40
1.0
 40
1.0
 40
1.0
 40
1.0
 10
1010.282090662889
 20
108.349480370402
 30
0.0
 10
1009.93585882326
 20
109.1421995577955
 30
0.0
 10
1009.245071860956
 20
110.723798985526
 30
0.0
 10
1007.96581120627
 20
112.9910544660818
 30
0.0
 10
1006.402628279408
 20
115.0690901204154
 30
0.0
 10
1004.573589125421
 20
116.9235929019823
 30
0.0
 10
1002.513038012613
 20
118.5103433317426
 30
0.0
 10
1000.255242731171
 20
119.7944537533642
 30
0.0
 10
997.8393263822563
 20
120.7668447072596
 30
0.0
 10
995.0577835507066
 20
121.4808810138135
 30
0.0
 10
991.9180510722267
 20
121.8251304716629
 30
0.0
 10
988.4553656037742
 20
121.7158505954262
 30
0.0
 10
982.7254489194142
 20
120.8550351626744
 30
0.0
 10
974.7459665205738
 20
118.3665245909676
 30
0.0
 10
964.4040064808399
 20
115.6395469914558
 30
0.0
 10
954.1805672475103
 20
112.0327121393407
 30
0.0
 10
944.2258865203678
 20
107.9459859176949
 30
0.0
 10
934.3130862504397
 20
103.5577180891601
 30
0.0
 10
924.3823773887391
 20
99.1536566856887
 30
0.0
 10
914.0646436698943
 20
94.72684637053402
 30
0.0
 10
903.4913718635551
 20
90.36567197441131
 30
0.0
 10
892.5215050606869
 20
86.08718325842895
 30
0.0
 10
881.5211764517854
 20
82.07326995774706
 30
0.0
 10
870.2974868440941
 20
78.23808763814549
 30
0.0
 10
857.8796903237774
 20
74.25933698249537
 30
0.0
 10
844.2350305409288
 20
70.19315827238087
 30
0.0
 10
829.3701942904453
 20
66.10044446235081
 30
0.0
 10
814.3319624240057
 20
62.2504508851312
 30
0.0
 10
799.1446426129892
 20
58.59764616817348
 30
0.0
 10
783.9725332175008
 20
55.11534121757361
 30
0.0
 10
770.8705794565819
 20
52.40578423884173
 30
0.0
 10
759.742471224168
 20
50.40220448571669
 30
0.0
 10
750.8196013015813
 20
49.03445587030214
 30
0.0
 10
741.8332430602305
 20
47.5156677563961
 30
0.0
 10
733.0096104257684
 20
45.96515242299587
 30
0.0
 10
723.8814975822281
 20
44.5715521322359
 30
0.0
 10
714.7970627336521
 20
43.55736366079638
 30
0.0
 10
705.7455633778816
 20
41.94859589456063
 30
0.0
 10
699.6735896776242
 20
41.61970946461152
 30
0.0
 10
696.6439890670191
 20
41.45561215817034
 30
0.0
  0
SPLINE
  5
88
330
1F
100
AcDbEntity
  8
0
  6
Continuous
 62
     7
370
    25
100
AcDbSpline
210
0.0
220
0.0
230
1.0
 70
     8
 71
     3
 72
    15
 73
    11
 74
     0
 42
0.00000001
 43
0.00000001
 40
0.0
 40
0.0
 40
0.0
 40
0.0
 40
0.131274126684125
 40
0.2627638614184237
 40
0.3948124238601595
 40
0.5462193640477822
 40
0.6964137373717326
 40
0.7977825142551329
 40
0.898662859532664
 40
1.0
 40
1.0
 40
1.0
 40
1.0
 10
997.2343398328705
 20
70.11796252650609
 30
0.0
 10
998.3825247390148
 20
71.54183495653783
 30
0.0
 10
1000.680780360145
 20
74.39191842182453
 30
0.0
 10
1003.760263054281
 20
78.95628180657816
 30
0.0
 10
1006.621802536539
 20
83.9859280928898
 30
0.0
 10
1008.987260410805
 20
89.56454742841308
 30
0.0
 10
1010.385862938842
 20
95.02787886502023
 30
0.0
 10
1010.912350936356
 20
99.91806419941834
 30
0.0
 10
1010.878105703429
 20
104.15993524516
 30
0.0
 10
1010.481061308264
 20
106.9508638243504
 30
0.0
 10
1010.282090662889
 20
108.349480370402
 30
0.0
  0
LINE
  5
89
330
1F
100
AcDbEntity
  8
0
  6
Continuous
 62
     7
370
    25
100
AcDbLine
 10
997.2343547722
 20
70.117950057
 30
0.0
 11
991.9121390738
 21
91.1437237675
 31
0.0
  0
ARC
  5
8A
330
1F
100
AcDbEntity
  8
0
  6
Continuous
 62
     7
370
    25
100
AcDbCircle
 10
981.1394063674
 20
88.4168416126
 30
0.0
 40
11.11250000000057
100
AcDbArc
 50
14.2048070491
 51
194.2048070491
  0
CIRCLE
  5
8B
330
1F
100
AcDbEntity
  8
0
  6
Continuous
 62
     7
370
    25
100
AcDbCircle
 10
87.9301064636
 20
99.6464257844
 30
0.0
 40
1.999999999999964
  0
CIRCLE
  5
8C
330
1F
100
AcDbEntity
  8
0
  6
Continuous
 62
     7
370
    25
100
AcDbCircle
 10
51.3413554488
 20
93.0804493381
 30
0.0
 40
1.999999999999964
  0
LINE
  5
8D
330
1F
100
AcDbEntity
  8
0
  6
Continuous
 62
     7
370
    25
100
AcDbLine
 10
118.1080699788
 20
107.8534703812
 30
0.0
 11
119.0787027249
 21
102.4446419811
 31
0.0
  0
SPLINE
  5
8E
330
1F
100
AcDbEntity
  8
0
  6
Continuous
 62
     7
370
    25
100
AcDbSpline
210
0.0
220
0.0
230
1.0
 70
     8
 71
     3
 72
    10
 73
     6
 74
     0
 42
0.00000001
 43
0.00000001
 40
0.0
 40
0.0
 40
0.0
 40
0.0
 40
0.2799885750701275
 40
0.5599885836926641
 40
1.0
 40
1.0
 40
1.0
 40
1.0
 10
103.3950423495399
 20
92.77518617881813
 30
0.0
 10
95.97751163175671
 20
92.22716319422014
 30
0.0
 10
81.14214729552316
 20
91.131094846077
 30
0.0
 10
54.61938654217441
 20
89.63490855032002
 30
0.0
 10
35.51542023184034
 20
88.71036154387218
 30
0.0
 10
23.84065649581141
 20
88.14535490138803
 30
0.0
  0
SPLINE
  5
8F
330
1F
100
AcDbEntity
  8
0
  6
Continuous
 62
     7
370
    25
100
AcDbSpline
210
0.0
220
0.0
230
1.0
 70
     8
 71
     3
 72
     9
 73
     5
 74
     0
 42
0.00000001
 43
0.00000001
 40
0.0
 40
0.0
 40
0.0
 40
0.0
 40
0.5599893578455252
 40
1.0
 40
1.0
 40
1.0
 40
1.0
 10
100.0408725482596
 20
111.4662193746795
 30
0.0
 10
101.6345287195729
 20
111.9162766190648
 30
0.0
 10
104.4803973936574
 20
112.7199655429344
 30
0.0
 10
107.3307601879211
 20
113.5075600899576
 30
0.0
 10
108.5849501513983
 20
113.8541100723507
 30
0.0
  0
CIRCLE
  5
90
330
1F
100
AcDbEntity
  8
0
  6
Continuous
 62
     7
370
    25
100
AcDbCircle
 10
110.9957494823
 20
103.7856216156
 30
0.0
 40
1.984375000000002
  0
ARC
  5
91
330
1F
100
AcDbEntity
  8
0
  6
Continuous
 62
     7
370
    25
100
AcDbCircle
 10
111.5785121014
 20
101.0987071347
 30
0.0
 40
7.620000000000072
100
AcDbArc
 50
274.9520187195
 51
10.1736368388
  0
SPLINE
  5
92
330
1F
100
AcDbEntity
  8
0
  6
Continuous
 62
     7
370
    25
100
AcDbSpline
210
0.0
220
0.0
230
1.0
 70
     8
 71
     3
 72
     9
 73
     5
 74
     0
 42
0.00000001
 43
0.00000001
 40
0.0
 40
0.0
 40
0.0
 40
0.0
 40
0.5600102078884619
 40
1.0
 40
1.0
 40
1.0
 40
1.0
 10
112.2362816848093
 20
93.50715003650684
 30
0.0
 10
110.5862548974511
 20
93.36605743547882
 30
0.0
 10
107.6398321999442
 20
93.11411095478867
 30
0.0
 10
104.6920405741578
 20
92.87874485856545
 30
0.0
 10
103.3950423495399
 20
92.77518617881813
 30
0.0
  0
ARC
  5
93
330
1F
100
AcDbEntity
  8
0
  6
Continuous
 62
     7
370
    25
100
AcDbCircle
 10
110.6078793552
 20
106.5075355348
 30
0.0
 40
7.620000000000117
100
AcDbArc
 50
10.1736368388
 51
105.395254958
  0
SPLINE
  5
94
330
1F
100
AcDbEntity
  8
0
  6
Continuous
 62
     7
370
    25
100
AcDbSpline
210
0.0
220
0.0
230
1.0
 70
     8
 71
     3
 72
     9
 73
     5
 74
     0
 42
0.00000001
 43
0.00000001
 40
0.0
 40
0.0
 40
0.0
 40
0.0
 40
0.5600161990385958
 40
1.0
 40
1.0
 40
1.0
 40
1.0
 10
23.84065649581141
 20
88.14535490138803
 30
0.0
 10
38.01548425078926
 20
92.66140788754423
 30
0.0
 10
63.32694448946186
 20
100.725554949556
 30
0.0
 10
88.82301467739428
 20
108.18443359663
 30
0.0
 10
100.0408725482596
 20
111.4662193746795
 30
0.0
  0
CIRCLE
  5
95
330
1F
100
AcDbEntity
  8
0
  6
Continuous
 62
     7
370
    25
100
AcDbCircle
 10
625.3328618974
 20
110.7360320506
 30
0.0
 40
2.000000000000014
  0
CIRCLE
  5
96
330
1F
100
AcDbEntity
  8
0
  6
Continuous
 62
     7
370
    25
100
AcDbCircle
 10
654.4876015256
 20
133.7979032827
 30
0.0
 40
2.000000000000112
  0
SPLINE
  5
97
330
1F
100
AcDbEntity
  8
0
  6
Continuous
 62
     7
370
    25
100
AcDbSpline
210
0.0
220
0.0
230
1.0
 70
     8
 71
     3
 72
     9
 73
     5
 74
     0
 42
0.00000001
 43
0.00000001
 40
0.0
 40
0.0
 40
0.0
 40
0.0
 40
0.56001020788854
 40
1.0
 40
1.0
 40
1.0
 40
1.0
 10
601.0075471127367
 20
104.6730359907439
 30
0.0
 10
602.3955065016353
 20
105.5763987394963
 30
0.0
 10
604.8739602322053
 20
107.1895171006033
 30
0.0
 10
607.3614483907836
 20
108.788665414313
 30
0.0
 10
608.4559177885562
 20
109.4922743484176
 30
0.0
  0
SPLINE
  5
98
330
1F
100
AcDbEntity
  8
0
  6
Continuous
 62
     7
370
    25
100
AcDbSpline
210
0.0
220
0.0
230
1.0
 70
     8
 71
     3
 72
    10
 73
     6
 74
     0
 42
0.00000001
 43
0.00000001
 40
0.0
 40
0.0
 40
0.0
 40
0.0
 40
0.2799885750701291
 40
0.559988583692677
 40
1.0
 40
1.0
 40
1.0
 40
1.0
 10
608.4559177885562
 20
109.4922743484176
 30
0.0
 10
614.7360671162177
 20
113.477222975838
 30
0.0
 10
627.2966222263494
 20
121.4472829591726
 30
0.0
 10
649.9712237558348
 20
135.2877257588097
 30
0.0
 10
666.375711271242
 20
145.1218045316467
 30
0.0
 10
676.4007768959343
 20
151.1315799033852
 30
0.0
  0
SPLINE
  5
99
330
1F
100
AcDbEntity
  8
0
  6
Continuous
 62
     7
370
    25
100
AcDbSpline
210
0.0
220
0.0
230
1.0
 70
     8
 71
     3
 72
     9
 73
     5
 74
     0
 42
0.00000001
 43
0.00000001
 40
0.0
 40
0.0
 40
0.0
 40
0.0
 40
0.5600161990386034
 40
0.9999999999999999
 40
0.9999999999999999
 40
0.9999999999999999
 40
0.9999999999999999
 10
676.4007768959343
 20
151.1315799033852
 30
0.0
 10
666.0371002100683
 20
140.4584977802164
 30
0.0
 10
647.5310700208382
 20
121.3999738634236
 30
0.0
 10
628.5765488256128
 20
102.7878651177841
 30
0.0
 10
620.2368665447343
 20
94.59883876797088
 30
0.0
  0
SPLINE
  5
9A
330
1F
100
AcDbEntity
  8
0
  6
Continuous
 62
     7
370
    25
100
AcDbSpline
210
0.0
220
0.0
230
1.0
 70
     8
 71
     3
 72
     9
 73
     5
 74
     0
 42
0.00000001
 43
0.00000001
 40
0.0
 40
0.0
 40
0.0
 40
0.0
 40
0.5599893578455677
 40
1.0
 40
1.0
 40
1.0
 40
1.0
 10
620.2368665447343
 20
94.59883876797088
 30
0.0
 10
619.0444635947877
 20
93.449723142567
 30
0.0
 10
616.9151321472507
 20
91.39769195785857
 30
0.0
 10
614.7742407263208
 20
89.35772696962691
 30
0.0
 10
613.8322257174144
 20
88.46012066518233
 30
0.0
  0
ARC
  5
9B
330
1F
100
AcDbEntity
  8
0
  6
Continuous
 62
     7
370
    25
100
AcDbCircle
 10
608.5805823727
 20
93.981410567
 30
0.0
 40
7.620000000000065
100
AcDbArc
 50
218.3445676964
 51
313.5661858157
  0
LINE
  5
9C
330
1F
100
AcDbEntity
  8
0
  6
Continuous
 62
     7
370
    25
100
AcDbLine
 10
599.1950800162
 20
93.5639203205
 30
0.0
 11
602.6042618172
 21
89.2540442159
 31
0.0
  0
ARC
  5
9D
330
1F
100
AcDbEntity
  8
0
  6
Continuous
 62
     7
370
    25
100
AcDbCircle
 10
605.1714005718
 20
98.2912866716
 30
0.0
 40
7.61999999999998
100
AcDbArc
 50
123.1229495771
 51
218.3445676964
  0
CIRCLE
  5
9E
330
1F
100
AcDbEntity
  8
0
  6
Continuous
 62
     7
370
    25
100
AcDbCircle
 10
606.9536483148
 20
96.197760555
 30
0.0
 40
1.984374999999829
  0
CIRCLE
  5
9F
330
1F
100
AcDbEntity
  8
0
  6
Continuous
 62
     7
370
    25
100
AcDbCircle
 10
678.8045821265
 20
121.8327859085
 30
0.0
 40
2.000000000000091
  0
SPLINE
  5
A0
330
1F
100
AcDbEntity
  8
0
  6
Continuous
 62
     7
370
    25
100
AcDbSpline
210
0.0
220
0.0
230
1.0
 70
     8
 71
     3
 72
    10
 73
     6
 74
     0
 42
0.00000001
 43
0.00000001
 40
0.0
 40
0.0
 40
0.0
 40
0.0
 40
0.2799885750701287
 40
0.5599885836926768
 40
0.9999999999999999
 40
0.9999999999999999
 40
0.9999999999999999
 40
0.9999999999999999
 10
634.6973424741491
 20
94.18805918158074
 30
0.0
 10
640.6654479986606
 20
98.62673100873803
 30
0.0
 10
652.6019027599401
 20
107.504255919688
 30
0.0
 10
674.1903561493884
 20
122.9843751589767
 30
0.0
 10
689.8222962695337
 20
134.0052083413502
 30
0.0
 10
699.3752448391573
 20
140.7402298278984
 30
0.0
  0
SPLINE
  5
A1
330
1F
100
AcDbEntity
  8
0
  6
Continuous
 62
     7
370
    25
100
AcDbSpline
210
0.0
220
0.0
230
1.0
 70
     8
 71
     3
 72
     9
 73
     5
 74
     0
 42
0.00000001
 43
0.00000001
 40
0.0
 40
0.0
 40
0.0
 40
0.0
 40
0.5600161990386038
 40
1.0
 40
1.0
 40
1.0
 40
1.0
 10
699.3752448391573
 20
140.7402298278984
 30
0.0
 10
689.8296339911445
 20
129.3296299315139
 30
0.0
 10
672.784393399176
 20
108.9541480865722
 30
0.0
 10
655.2588623992477
 20
88.99067572151692
 30
0.0
 10
647.5479126560326
 20
80.20707126995225
 30
0.0
  0
SPLINE
  5
A2
330
1F
100
AcDbEntity
  8
0
  6
Continuous
 62
     7
370
    25
100
AcDbSpline
210
0.0
220
0.0
230
1.0
 70
     8
 71
     3
 72
     9
 73
     5
 74
     0
 42
0.00000001
 43
0.00000001
 40
0.0
 40
0.0
 40
0.0
 40
0.0
 40
0.5599893578455684
 40
1.0
 40
1.0
 40
1.0
 40
1.0
 10
647.5479126560326
 20
80.20707126995225
 30
0.0
 10
646.4437965686509
 20
78.97288360951555
 30
0.0
 10
644.4721232289478
 20
76.76893518952271
 30
0.0
 10
642.4880288657051
 20
74.57616461621348
 30
0.0
 10
641.6150062308395
 20
73.6113222281542
 30
0.0
  0
ARC
  5
A3
330
1F
100
AcDbEntity
  8
0
  6
Continuous
 62
     7
370
    25
100
AcDbCircle
 10
635.9692565574
 20
78.7289301288
 30
0.0
 40
7.620000000000057
100
AcDbArc
 50
222.5875465209
 51
317.8091646402
  0
LINE
  5
A4
330
1F
100
AcDbEntity
  8
0
  6
Continuous
 62
     7
370
    25
100
AcDbLine
 10
626.6403659834
 20
77.6181856724
 30
0.0
 11
630.3590758176
 21
73.5723545145
 31
0.0
  0
ARC
  5
A5
330
1F
100
AcDbEntity
  8
0
  6
Continuous
 62
     7
370
    25
100
AcDbCircle
 10
632.2505467232
 20
82.7747612868
 30
0.0
 40
7.61999999999987
100
AcDbArc
 50
127.3659284016
 51
222.5875465209
  0
CIRCLE
  5
A6
330
1F
100
AcDbEntity
  8
0
  6
Continuous
 62
     7
370
    25
100
AcDbCircle
 10
634.1828020047
 20
80.8188348705
 30
0.0
 40
1.984375000000013
  0
SPLINE
  5
A7
330
1F
100
AcDbEntity
  8
0
  6
Continuous
 62
     7
370
    25
100
AcDbSpline
210
0.0
220
0.0
230
1.0
 70
     8
 71
     3
 72
     9
 73
     5
 74
     0
 42
0.00000001
 43
0.00000001
 40
0.0
 40
0.0
 40
0.0
 40
0.0
 40
0.560010207888533
 40
1.0
 40
1.0
 40
1.0
 40
1.0
 10
627.6259433904563
 20
88.8309518397748
 30
0.0
 10
628.943262289372
 20
89.8345286627557
 30
0.0
 10
631.2955745871828
 20
91.62659746586705
 30
0.0
 10
633.6579301438692
 20
93.40540293361815
 30
0.0
 10
634.6973424741491
 20
94.18805918158074
 30
0.0
  0
CIRCLE
  5
A8
330
1F
100
AcDbEntity
  8
0
  6
Continuous
 62
     7
370
    25
100
AcDbCircle
 10
651.4360102408
 20
96.6770704456
 30
0.0
 40
2.000000000000007
  0
CIRCLE
  5
A9
330
1F
100
AcDbEntity
  8
0
  6
Continuous
 62
     7
370
    25
100
AcDbCircle
 10
294.196567974
 20
76.7048732554
 30
0.0
 40
1.999999999999944
  0
CIRCLE
  5
AA
330
1F
100
AcDbEntity
  8
0
  6
Continuous
 62
     7
370
    25
100
AcDbCircle
 10
328.4416387367
 20
91.1659892557
 30
0.0
 40
1.999999999999996
  0
SPLINE
  5
AB
330
1F
100
AcDbEntity
  8
0
  6
Continuous
 62
     7
370
    25
100
AcDbSpline
210
0.0
220
0.0
230
1.0
 70
     8
 71
     3
 72
     9
 73
     5
 74
     0
 42
0.00000001
 43
0.00000001
 40
0.0
 40
0.0
 40
0.0
 40
0.0
 40
0.5600102078885376
 40
1.0
 40
1.0
 40
1.0
 40
1.0
 10
269.1351355313611
 20
77.34163421344469
 30
0.0
 10
270.7136012973813
 20
77.8425746755435
 30
0.0
 10
273.5322387861005
 20
78.73709490935771
 30
0.0
 10
276.3558623528511
 20
79.61574308786761
 30
0.0
 10
277.5982278989868
 20
80.00233931726925
 30
0.0
  0
SPLINE
  5
AC
330
1F
100
AcDbEntity
  8
0
  6
Continuous
 62
     7
370
    25
100
AcDbSpline
210
0.0
220
0.0
230
1.0
 70
     8
 71
     3
 72
    10
 73
     6
 74
     0
 42
0.00000001
 43
0.00000001
 40
0.0
 40
0.0
 40
0.0
 40
0.0
 40
0.2799885750701286
 40
0.559988583692677
 40
1.0
 40
1.0
 40
1.0
 40
1.0
 10
277.5982278989868
 20
80.00233931726925
 30
0.0
 10
284.7130529495328
 20
82.17013904072806
 30
0.0
 10
298.9429935900697
 20
86.50582701144299
 30
0.0
 10
324.4854012754549
 20
93.80519828879036
 30
0.0
 10
342.9169511462675
 20
98.91345487134967
 30
0.0
 10
354.1807895835328
 20
102.0351986880845
 30
0.0
  0
SPLINE
  5
AD
330
1F
100
AcDbEntity
  8
0
  6
Continuous
 62
     7
370
    25
100
AcDbSpline
210
0.0
220
0.0
230
1.0
 70
     8
 71
     3
 72
     9
 73
     5
 74
     0
 42
0.00000001
 43
0.00000001
 40
0.0
 40
0.0
 40
0.0
 40
0.0
 40
0.5600161990386038
 40
0.9999999999999999
 40
0.9999999999999999
 40
0.9999999999999999
 40
0.9999999999999999
 10
354.1807895835328
 20
102.0351986880845
 30
0.0
 10
341.3482028046298
 20
94.50889859979466
 30
0.0
 10
318.4335321202224
 20
81.06946577408297
 30
0.0
 10
295.2055113465657
 20
68.17979872491814
 30
0.0
 10
284.985558477762
 20
62.5085540234997
 30
0.0
  0
ARC
  5
AE
330
1F
100
AcDbEntity
  8
0
  6
Continuous
 62
     7
370
    25
100
AcDbCircle
 10
273.5860589356
 20
65.0188505141
 30
0.0
 40
7.620000000000073
100
AcDbArc
 50
202.8935138232
 51
298.1151319424
  0
LINE
  5
AF
330
1F
100
AcDbEntity
  8
0
  6
Continuous
 62
     7
370
    25
100
AcDbLine
 10
264.4285379964
 20
67.1168883685
 30
0.0
 11
266.5662905228
 21
62.054520669
 31
0.0
  0
ARC
  5
B0
330
1F
100
AcDbEntity
  8
0
  6
Continuous
 62
     7
370
    25
100
AcDbCircle
 10
271.4483064092
 20
70.0812182137
 30
0.0
 40
7.620000000000017
100
AcDbArc
 50
107.6718957039
 51
202.8935138232
  0
CIRCLE
  5
B1
330
1F
100
AcDbEntity
  8
0
  6
Continuous
 62
     7
370
    25
100
AcDbCircle
 10
272.6083939377
 20
67.58853782
 30
0.0
 40
1.984375000000046
  0
SPLINE
  5
B2
330
1F
100
AcDbEntity
  8
0
  6
Continuous
 62
     7
370
    25
100
AcDbSpline
210
0.0
220
0.0
230
1.0
 70
     8
 71
     3
 72
     9
 73
     5
 74
     0
 42
0.00000001
 43
0.00000001
 40
0.0
 40
0.0
 40
0.0
 40
0.0
 40
0.5599893578455675
 40
1.0
 40
1.0
 40
1.0
 40
1.0
 10
284.985558477762
 20
62.5085540234997
 30
0.0
 10
283.530109155666
 20
61.71864340425265
 30
0.0
 10
280.9310431168123
 20
60.30806192055066
 30
0.0
 10
278.3240495172153
 20
58.91219029282729
 30
0.0
 10
277.176944589364
 20
58.29799192154756
 30
0.0
  0
CIRCLE
  5
B3
330
1F
100
AcDbEntity
  8
0
  6
Continuous
 62
     7
370
    25
100
AcDbCircle
 10
69.8691226804
 20
108.9783467403
 30
0.0
 40
1.999999999999988
  0
LINE
  5
B4
330
1F
100
AcDbEntity
  8
0
  6
Continuous
 62
     7
370
    25
100
AcDbLine
 10
2.7794158425
 20
95.7493045876
 30
0.0
 11
1.9338019741
 21
101.1790826471
 31
0.0
  0
ARC
  5
B5
330
1F
100
AcDbEntity
  8
0
  6
Continuous
 62
     7
370
    25
100
AcDbCircle
 10
9.4630425927
 20
102.3516591717
 30
0.0
 40
7.620000000000026
100
AcDbArc
 50
93.6303107249
 51
188.8519288441
  0
SPLINE
  5
B6
330
1F
100
AcDbEntity
  8
0
  6
Continuous
 62
     7
370
    25
100
AcDbSpline
210
0.0
220
0.0
230
1.0
 70
     8
 71
     3
 72
     9
 73
     5
 74
     0
 42
0.00000001
 43
0.00000001
 40
0.0
 40
0.0
 40
0.0
 40
0.0
 40
0.5600102078884648
 40
1.0
 40
1.0
 40
1.0
 40
1.0
 10
8.9805557083793
 20
109.9563686602819
 30
0.0
 10
10.63339795022733
 20
110.0593640224438
 30
0.0
 10
13.5848481533945
 20
110.2432809595125
 30
0.0
 10
16.53728447564823
 20
110.4105903476086
 30
0.0
 10
17.8363263192991
 20
110.4842047704956
 30
0.0
  0
SPLINE
  5
B7
330
1F
100
AcDbEntity
  8
0
  6
Continuous
 62
     7
370
    25
100
AcDbSpline
210
0.0
220
0.0
230
1.0
 70
     8
 71
     3
 72
    10
 73
     6
 74
     0
 42
0.00000001
 43
0.00000001
 40
0.0
 40
0.0
 40
0.0
 40
0.0
 40
0.2799885750701275
 40
0.5599885836926645
 40
1.0
 40
1.0
 40
1.0
 40
1.0
 10
17.8363263192991
 20
110.4842047704956
 30
0.0
 10
25.26452430148279
 20
110.8609883667245
 30
0.0
 10
40.12122360212339
 20
111.6145709454354
 30
0.0
 10
66.67143895793703
 20
112.4985822411279
 30
0.0
 10
85.7916482062681
 20
112.9822290684158
 30
0.0
 10
97.47633828222102
 20
113.2777939971086
 30
0.0
  0
SPLINE
  5
B8
330
1F
100
AcDbEntity
  8
0
  6
Continuous
 62
     7
370
    25
100
AcDbSpline
210
0.0
220
0.0
230
1.0
 70
     8
 71
     3
 72
     9
 73
     5
 74
     0
 42
0.00000001
 43
0.00000001
 40
0.0
 40
0.0
 40
0.0
 40
0.0
 40
0.5600161990385961
 40
1.0
 40
1.0
 40
1.0
 40
1.0
 10
97.47633828222102
 20
113.2777939971086
 30
0.0
 10
83.20111407850194
 20
109.0899006853567
 30
0.0
 10
57.71037965291587
 20
101.611736091294
 30
0.0
 10
32.04904558312377
 20
94.74293710906417
 30
0.0
 10
20.75847428135624
 20
91.72077682482276
 30
0.0
  0
SPLINE
  5
B9
330
1F
100
AcDbEntity
  8
0
  6
Continuous
 62
     7
370
    25
100
AcDbSpline
210
0.0
220
0.0
230
1.0
 70
     8
 71
     3
 72
     9
 73
     5
 74
     0
 42
0.00000001
 43
0.00000001
 40
0.0
 40
0.0
 40
0.0
 40
0.0
 40
0.5599893578455214
 40
1.0
 40
1.0
 40
1.0
 40
1.0
 10
20.75847428135624
 20
91.72077682482276
 30
0.0
 10
19.15486104512071
 20
91.3075987710023
 30
0.0
 10
16.29121156005697
 20
90.56976679610545
 30
0.0
 10
13.42344038518428
 20
89.84812857788732
 30
0.0
 10
12.16159054897636
 20
89.53060008208597
 30
0.0
  0
ARC
  5
BA
330
1F
100
AcDbEntity
  8
0
  6
Continuous
 62
     7
370
    25
100
AcDbCircle
 10
10.3086564612
 20
96.9218811122
 30
0.0
 40
7.620000000000009
100
AcDbArc
 50
188.8519288441
 51
284.0735469634
  0
CIRCLE
  5
BB
330
1F
100
AcDbEntity
  8
0
  6
Continuous
 62
     7
370
    25
100
AcDbCircle
 10
9.9836734971
 20
99.6520174992
 30
0.0
 40
1.98437499999996
  0
CIRCLE
  5
BC
330
1F
100
AcDbEntity
  8
0
  6
Continuous
 62
     7
370
    25
100
AcDbCircle
 10
33.1386548622
 20
103.2580773956
 30
0.0
 40
1.999999999999981
  0
CIRCLE
  5
BD
330
1F
100
AcDbEntity
  8
0
  6
Continuous
 62
     7
370
    25
100
AcDbCircle
 10
36.6134270739
 20
78.4229969817
 30
0.0
 40
1.999999999999995
  0
CIRCLE
  5
BE
330
1F
100
AcDbEntity
  8
0
  6
Continuous
 62
     7
370
    25
100
AcDbCircle
 10
73.294764915
 20
84.4502850702
 30
0.0
 40
1.999999999999995
  0
LINE
  5
BF
330
1F
100
AcDbEntity
  8
0
  6
Continuous
 62
     7
370
    25
100
AcDbLine
 10
6.3180544618
 20
70.6605578527
 30
0.0
 11
5.4270547396
 21
76.083073144
 31
0.0
  0
ARC
  5
C0
330
1F
100
AcDbEntity
  8
0
  6
Continuous
 62
     7
370
    25
100
AcDbCircle
 10
12.9462243889
 20
77.3185842876
 30
0.0
 40
7.620000000000005
100
AcDbArc
 50
94.1095463337
 51
189.331164453
  0
SPLINE
  5
C1
330
1F
100
AcDbEntity
  8
0
  6
Continuous
 62
     7
370
    25
100
AcDbSpline
210
0.0
220
0.0
230
1.0
 70
     8
 71
     3
 72
     9
 73
     5
 74
     0
 42
0.00000001
 43
0.00000001
 40
0.0
 40
0.0
 40
0.0
 40
0.0
 40
0.5599893578455224
 40
1.0
 40
1.0
 40
1.0
 40
1.0
 10
24.33017916955338
 20
66.7825504011334
 30
0.0
 10
22.73007790758735
 20
66.35597395189701
 30
0.0
 10
19.87269992433033
 20
65.594215816211
 30
0.0
 10
17.01106494856502
 20
64.84861639634748
 30
0.0
 10
15.7519151052668
 20
64.52054471682351
 30
0.0
  0
CIRCLE
  5
C2
330
1F
100
AcDbEntity
  8
0
  6
Continuous
 62
     7
370
    25
100
AcDbCircle
 10
13.4894172672
 20
74.6233916794
 30
0.0
 40
1.984375000000003
  0
SPLINE
  5
C3
330
1F
100
AcDbEntity
  8
0
  6
Continuous
 62
     7
370
    25
100
AcDbSpline
210
0.0
220
0.0
230
1.0
 70
     8
 71
     3
 72
     9
 73
     5
 74
     0
 42
0.00000001
 43
0.00000001
 40
0.0
 40
0.0
 40
0.0
 40
0.0
 40
0.5600102078884631
 40
1.0
 40
1.0
 40
1.0
 40
1.0
 10
12.4001475138884
 20
84.91899217442416
 30
0.0
 10
14.05207047143231
 20
85.0358085405874
 30
0.0
 10
17.00187912540768
 20
85.24440539206918
 30
0.0
 10
19.9528127718685
 20
85.43640352355159
 30
0.0
 10
21.25119345350979
 20
85.52088074150838
 30
0.0
  0
ARC
  5
C4
330
1F
100
AcDbEntity
  8
0
  6
Continuous
 62
     7
370
    25
100
AcDbCircle
 10
13.837224111
 20
71.8960689963
 30
0.0
 40
7.620000000000052
100
AcDbArc
 50
189.331164453
 51
284.5527825723
  0
SPLINE
  5
C5
330
1F
100
AcDbEntity
  8
0
  6
Continuous
 62
     7
370
    25
100
AcDbSpline
210
0.0
220
0.0
230
1.0
 70
     8
 71
     3
 72
    10
 73
     6
 74
     0
 42
0.00000001
 43
0.00000001
 40
0.0
 40
0.0
 40
0.0
 40
0.0
 40
0.2799885750701278
 40
0.5599885836926644
 40
1.0
 40
1.0
 40
1.0
 40
1.0
 10
21.25119345350984
 20
85.52088074150826
 30
0.0
 10
28.67598012558753
 20
85.95978165862122
 30
0.0
 10
43.52585666671271
 20
86.83760141570923
 30
0.0
 10
70.06774929901333
 20
87.94365155309441
 30
0.0
 10
89.18324443094322
 20
88.58720560263417
 30
0.0
 10
100.865053628951
 20
88.98049259642853
 30
0.0
  0
SPLINE
  5
C6
330
1F
100
AcDbEntity
  8
0
  6
Continuous
 62
     7
370
    25
100
AcDbSpline
210
0.0
220
0.0
230
1.0
 70
     8
 71
     3
 72
     9
 73
     5
 74
     0
 42
0.00000001
 43
0.00000001
 40
0.0
 40
0.0
 40
0.0
 40
0.0
 40
0.5600161990385959
 40
1.0
 40
1.0
 40
1.0
 40
1.0
 10
100.865053628951
 20
88.98049259642853
 30
0.0
 10
86.62535690647056
 20
84.67334577877288
 30
0.0
 10
61.19806257654514
 20
76.98223465546988
 30
0.0
 10
35.59507774964848
 20
69.89904090875781
 30
0.0
 10
24.33017916955338
 20
66.7825504011334
 30
0.0
  0
CIRCLE
  5
C7
330
1F
100
AcDbEntity
  8
0
  6
Continuous
 62
     7
370
    25
100
AcDbCircle
 10
801.4230194071
 20
75.3918968592
 30
0.0
 40
1.999999999999946
  0
CIRCLE
  5
C8
330
1F
100
AcDbEntity
  8
0
  6
Continuous
 62
     7
370
    25
100
AcDbCircle
 10
836.01577154
 20
89.0003592038
 30
0.0
 40
1.999999999999946
  0
SPLINE
  5
C9
330
1F
100
AcDbEntity
  8
0
  6
Continuous
 62
     7
370
    25
100
AcDbSpline
210
0.0
220
0.0
230
1.0
 70
     8
 71
     3
 72
     9
 73
     5
 74
     0
 42
0.00000001
 43
0.00000001
 40
0.0
 40
0.0
 40
0.0
 40
0.0
 40
0.5599915941740408
 40
1.0
 40
1.0
 40
1.0
 40
1.0
 10
798.4821063437049
 20
82.86770669496407
 30
0.0
 10
810.3204790460632
 20
86.00406164819113
 30
0.0
 10
831.460747624236
 20
91.60477956227514
 30
0.0
 10
852.6797194013433
 20
96.89913806753175
 30
0.0
 10
862.0162453462542
 20
99.22870031330072
 30
0.0
  0
SPLINE
  5
CA
330
1F
100
AcDbEntity
  8
0
  6
Continuous
 62
     7
370
    25
100
AcDbSpline
210
0.0
220
0.0
230
1.0
 70
     8
 71
     3
 72
     9
 73
     5
 74
     0
 42
0.00000001
 43
0.00000001
 40
0.0
 40
0.0
 40
0.0
 40
0.0
 40
0.5600106846660954
 40
1.0
 40
1.0
 40
1.0
 40
1.0
 10
862.0162453462542
 20
99.22870031330072
 30
0.0
 10
851.2986131483289
 20
93.30180946051576
 30
0.0
 10
832.160349376959
 20
82.71827772608337
 30
0.0
 10
812.8571388527104
 20
72.43890235502809
 30
0.0
 10
804.3639324704
 20
67.91608702345725
 30
0.0
  0
ARC
  5
CB
330
1F
100
AcDbEntity
  8
0
  6
Continuous
 62
     7
370
    25
100
AcDbCircle
 10
800.8202950282
 20
74.6619771559
 30
0.0
 40
7.620000000000004
100
AcDbArc
 50
201.4742081096
 51
297.7130880546
  0
ARC
  5
CC
330
1F
100
AcDbEntity
  8
0
  6
Continuous
 62
     7
370
    25
100
AcDbCircle
 10
800.4845215741
 20
75.5155142842
 30
0.0
 40
7.620000000000023
100
AcDbArc
 50
105.2353281646
 51
201.4742081096
  0
LINE
  5
CD
330
1F
100
AcDbEntity
  8
0
  6
Continuous
 62
     7
370
    25
100
AcDbLine
 10
793.7292567175
 20
71.8724295805
 30
0.0
 11
793.3934832634
 21
72.7259667089
 31
0.0
  0
CIRCLE
  5
CE
330
1F
100
AcDbEntity
  8
0
  6
Continuous
 62
     7
370
    25
100
AcDbCircle
 10
1006.7454275125
 20
66.4671569866
 30
0.0
 40
2.000000000000027
  0
CIRCLE
  5
CF
330
1F
100
AcDbEntity
  8
0
  6
Continuous
 62
     7
370
    25
100
AcDbCircle
 10
1007.1117651884
 20
29.2957359185
 30
0.0
 40
2.000000000000034
  0
LINE
  5
D0
330
1F
100
AcDbEntity
  8
0
  6
Continuous
 62
     7
370
    25
100
AcDbLine
 10
1006.2035911099
 20
74.9103227177
 30
0.0
 11
1007.1207539847
 21
74.9193616865
 31
0.0
  0
ARC
  5
D1
330
1F
100
AcDbEntity
  8
0
  6
Continuous
 62
     7
370
    25
100
AcDbCircle
 10
1007.1958481687
 20
67.2997317176
 30
0.0
 40
7.619999999999957
100
AcDbArc
 50
354.3257722146
 51
90.5646521596
  0
SPLINE
  5
D2
330
1F
100
AcDbEntity
  8
0
  6
Continuous
 62
     7
370
    25
100
AcDbSpline
210
0.0
220
0.0
230
1.0
 70
     8
 71
     3
 72
     9
 73
     5
 74
     0
 42
0.00000001
 43
0.00000001
 40
0.0
 40
0.0
 40
0.0
 40
0.0
 40
0.5600106846660826
 40
1.0
 40
1.0
 40
1.0
 40
1.0
 10
1007.387110529718
 20
1.357092699063367
 30
0.0
 10
1005.675591810526
 20
13.48418545803365
 30
0.0
 10
1002.619366695441
 20
35.13929506759656
 30
0.0
 10
999.9061361893599
 20
56.83993733420639
 30
0.0
 10
998.7123437566462
 20
66.38798806739827
 30
0.0
  0
ARC
  5
D3
330
1F
100
AcDbEntity
  8
0
  6
Continuous
 62
     7
370
    25
100
AcDbCircle
 10
1006.2786852939
 20
67.2906927488
 30
0.0
 40
7.62000000000001
100
AcDbArc
 50
90.5646521596
 51
186.8035321046
  0
SPLINE
  5
D4
330
1F
100
AcDbEntity
  8
0
  6
Continuous
 62
     7
370
    25
100
AcDbSpline
210
0.0
220
0.0
230
1.0
 70
     8
 71
     3
 72
     9
 73
     5
 74
     0
 42
0.00000001
 43
0.00000001
 40
0.0
 40
0.0
 40
0.0
 40
0.0
 40
0.5599915941740241
 40
1.0
 40
1.0
 40
1.0
 40
1.0
 10
1014.778511268376
 20
66.54632590589976
 30
0.0
 10
1013.483279589881
 20
54.36822402048275
 30
0.0
 10
1011.170331159993
 20
32.62128708051054
 30
0.0
 10
1008.543109947277
 20
10.91016771831876
 30
0.0
 10
1007.387110529718
 20
1.357092699063367
 30
0.0
  0
CIRCLE
  5
D5
330
1F
100
AcDbEntity
  8
0
  6
Continuous
 62
     7
370
    25
100
AcDbCircle
 10
681.4665301944
 20
141.0897938495
 30
0.0
 40
1.999999999999904
  0
CIRCLE
  5
D6
330
1F
100
AcDbEntity
  8
0
  6
Continuous
 62
     7
370
    25
100
AcDbCircle
 10
653.3540234417
 20
116.7682866677
 30
0.0
 40
1.99999999999998
  0
LINE
  5
D7
330
1F
100
AcDbEntity
  8
0
  6
Continuous
 62
     7
370
    25
100
AcDbLine
 10
687.5554073327
 20
146.9639924709
 30
0.0
 11
688.1555130808
 21
146.2703480858
 31
0.0
  0
ARC
  5
D8
330
1F
100
AcDbEntity
  8
0
  6
Continuous
 62
     7
370
    25
100
AcDbCircle
 10
682.3928359272
 20
141.2847736932
 30
0.0
 40
7.619999999999967
100
AcDbArc
 50
304.6258084962
 51
40.8646884412
  0
SPLINE
  5
D9
330
1F
100
AcDbEntity
  8
0
  6
Continuous
 62
     7
370
    25
100
AcDbSpline
210
0.0
220
0.0
230
1.0
 70
     8
 71
     3
 72
     9
 73
     5
 74
     0
 42
0.00000001
 43
0.00000001
 40
0.0
 40
0.0
 40
0.0
 40
0.0
 40
0.5600106846660826
 40
1.0
 40
1.0
 40
1.0
 40
1.0
 10
632.22420721196
 20
98.48784722826393
 30
0.0
 10
640.3661581820442
 20
107.6368531585036
 30
0.0
 10
654.9050789437773
 20
123.9740520383697
 30
0.0
 10
669.7005715755373
 20
140.0791100123743
 30
0.0
 10
676.2104302486133
 20
147.1651634437694
 30
0.0
  0
ARC
  5
DA
330
1F
100
AcDbEntity
  8
0
  6
Continuous
 62
     7
370
    25
100
AcDbCircle
 10
681.7927301792
 20
141.9784180784
 30
0.0
 40
7.619999999999953
100
AcDbArc
 50
40.8646884412
 51
137.1035683862
  0
SPLINE
  5
DB
330
1F
100
AcDbEntity
  8
0
  6
Continuous
 62
     7
370
    25
100
AcDbSpline
210
0.0
220
0.0
230
1.0
 70
     8
 71
     3
 72
     9
 73
     5
 74
     0
 42
0.00000001
 43
0.00000001
 40
0.0
 40
0.0
 40
0.0
 40
0.0
 40
0.5599915941740248
 40
1.0
 40
1.0
 40
1.0
 40
1.0
 10
686.7226301401706
 20
135.0144242553083
 30
0.0
 10
676.597039266849
 20
128.1255781909316
 30
0.0
 10
658.5153555796917
 20
115.8238827082741
 30
0.0
 10
640.2577202343956
 20
103.7850394557818
 30
0.0
 10
632.22420721196
 20
98.48784722826393
 30
0.0
  0
CIRCLE
  5
DC
330
1F
100
AcDbEntity
  8
0
  6
Continuous
 62
     7
370
    25
100
AcDbCircle
 10
129.5588481409
 20
96.5024111974
 30
0.0
 40
2.000000000000054
  0
LINE
  5
DD
330
1F
100
AcDbEntity
  8
0
  6
Continuous
 62
     7
370
    25
100
AcDbLine
 10
121.3007154407
 20
98.341943354
 30
0.0
 11
121.5483740294
 21
99.2250824514
 31
0.0
  0
ARC
  5
DE
330
1F
100
AcDbEntity
  8
0
  6
Continuous
 62
     7
370
    25
100
AcDbCircle
 10
128.8853403612
 20
97.1675778839
 30
0.0
 40
7.620000000000063
100
AcDbArc
 50
68.0960366176
 51
164.3349165626
  0
SPLINE
  5
DF
330
1F
100
AcDbEntity
  8
0
  6
Continuous
 62
     7
370
    25
100
AcDbSpline
210
0.0
220
0.0
230
1.0
 70
     8
 71
     3
 72
     9
 73
     5
 74
     0
 42
0.00000001
 43
0.00000001
 40
0.0
 40
0.0
 40
0.0
 40
0.0
 40
0.5599915941740246
 40
1.0
 40
1.0
 40
1.0
 40
1.0
 10
131.7279963260904
 20
104.2374935174434
 30
0.0
 10
143.0587822206206
 20
99.59022747762053
 30
0.0
 10
163.2926321791057
 20
91.29141355224807
 30
0.0
 10
183.4042560087095
 20
82.70086163770868
 30
0.0
 10
192.2535395485451
 20
78.92094658462695
 30
0.0
  0
SPLINE
  5
E0
330
1F
100
AcDbEntity
  8
0
  6
Continuous
 62
     7
370
    25
100
AcDbSpline
210
0.0
220
0.0
230
1.0
 70
     8
 71
     3
 72
     9
 73
     5
 74
     0
 42
0.00000001
 43
0.00000001
 40
0.0
 40
0.0
 40
0.0
 40
0.0
 40
0.5600106846660825
 40
1.0
 40
1.0
 40
1.0
 40
1.0
 10
192.2535395485451
 20
78.92094658462695
 30
0.0
 10
180.1313750021222
 20
80.66702843272705
 30
0.0
 10
158.4850656042024
 20
83.78497224328335
 30
0.0
 10
136.8909014549831
 20
87.24496780094987
 30
0.0
 10
127.3896999557599
 20
88.76732887742617
 30
0.0
  0
CIRCLE
  5
E1
330
1F
100
AcDbEntity
  8
0
  6
Continuous
 62
     7
370
    25
100
AcDbCircle
 10
165.3513296651
 20
86.4651299988
 30
0.0
 40
2.000000000000054
  0
ARC
  5
E2
330
1F
100
AcDbEntity
  8
0
  6
Continuous
 62
     7
370
    25
100
AcDbCircle
 10
128.6376817726
 20
96.2844387865
 30
0.0
 40
7.620000000000051
100
AcDbArc
 50
164.3349165626
 51
260.5737965076
  0
CIRCLE
  5
E3
330
1F
100
AcDbEntity
  8
0
  6
Continuous
 62
     7
370
    25
100
AcDbCircle
 10
859.4154217196
 20
85.6363675898
 30
0.0
 40
2.00000000000006
  0
CIRCLE
  5
E4
330
1F
100
AcDbEntity
  8
0
  6
Continuous
 62
     7
370
    25
100
AcDbCircle
 10
824.7478857601
 20
72.2195610391
 30
0.0
 40
1.999999999999954
  0
LINE
  5
E5
330
1F
100
AcDbEntity
  8
0
  6
Continuous
 62
     7
370
    25
100
AcDbLine
 10
867.1285444442
 20
89.1132012188
 30
0.0
 11
867.4595890078
 21
88.2578188839
 31
0.0
  0
ARC
  5
E6
330
1F
100
AcDbEntity
  8
0
  6
Continuous
 62
     7
370
    25
100
AcDbCircle
 10
860.3532210414
 20
85.5075581098
 30
0.0
 40
7.620000000000046
100
AcDbArc
 50
284.9182333218
 51
21.1571132667
  0
ARC
  5
E7
330
1F
100
AcDbEntity
  8
0
  6
Continuous
 62
     7
370
    25
100
AcDbCircle
 10
860.0221764777
 20
86.3629404447
 30
0.0
 40
7.62000000000004
100
AcDbArc
 50
21.1571132667
 51
117.3959932117
  0
SPLINE
  5
E8
330
1F
100
AcDbEntity
  8
0
  6
Continuous
 62
     7
370
    25
100
AcDbSpline
210
0.0
220
0.0
230
1.0
 70
     8
 71
     3
 72
     9
 73
     5
 74
     0
 42
0.00000001
 43
0.00000001
 40
0.0
 40
0.0
 40
0.0
 40
0.0
 40
0.5600106846660833
 40
1.0
 40
1.0
 40
1.0
 40
1.0
 10
798.6912032164387
 20
62.13527153416292
 30
0.0
 10
809.4414725948093
 20
68.00275680498252
 30
0.0
 10
828.6380159335861
 20
78.48020916701753
 30
0.0
 10
847.9978202002789
 20
88.65259695543054
 30
0.0
 10
856.5159272245796
 20
93.12833889376532
 30
0.0
  0
SPLINE
  5
E9
330
1F
100
AcDbEntity
  8
0
  6
Continuous
 62
     7
370
    25
100
AcDbSpline
210
0.0
220
0.0
230
1.0
 70
     8
 71
     3
 72
     9
 73
     5
 74
     0
 42
0.00000001
 43
0.00000001
 40
0.0
 40
0.0
 40
0.0
 40
0.0
 40
0.5599915941740239
 40
1.0
 40
1.0
 40
1.0
 40
1.0
 10
862.314916214527
 20
78.14439628574216
 30
0.0
 10
850.4593672161355
 20
75.07360671637836
 30
0.0
 10
829.2884262203548
 20
69.58997160236696
 30
0.0
 10
808.0404787221833
 20
64.41312677420913
 30
0.0
 10
798.6912032164387
 20
62.13527153416292
 30
0.0
  0
LINE
  5
EA
330
1F
100
AcDbEntity
  8
0
  6
Continuous
 62
     7
370
    25
100
AcDbLine
 10
321.1158252752
 20
150.4950083737
 30
0.0
 11
327.8103315555
 21
144.864967986
 31
0.0
  0
LINE
  5
EB
330
1F
100
AcDbEntity
  8
0
  6
Continuous
 62
     7
370
    25
100
AcDbLine
 10
327.9169292504
 20
143.6307637957
 30
0.0
 11
327.8103315555
 21
144.864967986
 31
0.0
  0
LINE
  5
EC
330
1F
100
AcDbEntity
  8
0
  6
Continuous
 62
     7
370
    25
100
AcDbLine
 10
327.9169292504
 20
143.6307637957
 30
0.0
 11
322.5451255793
 21
133.4411622865
 31
0.0
  0
SPLINE
  5
ED
330
1F
100
AcDbEntity
  8
0
  6
Continuous
 62
     7
370
    25
100
AcDbSpline
210
0.0
220
0.0
230
1.0
 70
     8
 71
     3
 72
    26
 73
    22
 74
     0
 42
0.00000001
 43
0.00000001
 40
0.0
 40
0.0
 40
0.0
 40
0.0
 40
0.0224471125039046
 40
0.044037740523687
 40
0.0654990098929896
 40
0.0870666555914135
 40
0.108647348725903
 40
0.130232822166893
 40
0.1734789196155105
 40
0.2166892075786704
 40
0.2598504520228392
 40
0.3245764194947515
 40
0.3894242848069684
 40
0.4543596973264959
 40
0.5192093537141844
 40
0.5993970738732217
 40
0.6795317120085302
 40
0.7596135376738518
 40
0.8397590633519156
 40
0.9199347713739604
 40
1.0
 40
1.0
 40
1.0
 40
1.0
 10
162.8845840467753
 20
143.2966953057783
 30
0.0
 10
163.2199500923693
 20
142.0426953751456
 30
0.0
 10
163.87788606938
 20
139.5825427139816
 30
0.0
 10
165.8421366551317
 20
136.315003998343
 30
0.0
 10
168.2620236126074
 20
133.4776149759904
 30
0.0
 10
171.0474914041407
 20
130.9984073459714
 30
0.0
 10
174.0420950101418
 20
128.7746288566928
 30
0.0
 10
178.2476972163904
 20
126.1095537633688
 30
0.0
 10
183.7886529580478
 20
123.2604868294999
 30
0.0
 10
190.6606253541769
 20
120.3377076292368
 30
0.0
 10
198.9050117600505
 20
117.5371178500489
 30
0.0
 10
208.5964768334169
 20
115.2188100512763
 30
0.0
 10
219.7113824199473
 20
113.726058446941
 30
0.0
 10
230.918075640578
 20
113.2177081124644
 30
0.0
 10
243.0109049793121
 20
113.6061873439703
 30
0.0
 10
255.9108259911594
 20
115.0302345943072
 30
0.0
 10
269.5266258432482
 20
117.5744720957758
 30
0.0
 10
282.9507534441386
 20
120.9603066439125
 30
0.0
 10
296.2191881279687
 20
124.9066444706335
 30
0.0
 10
309.3848149380657
 20
129.1737600362133
 30
0.0
 10
318.1603721582996
 20
132.0193488410441
 30
0.0
 10
322.5451255793432
 20
133.4411622864738
 30
0.0
  0
SPLINE
  5
EE
330
1F
100
AcDbEntity
  8
0
  6
Continuous
 62
     7
370
    25
100
AcDbSpline
210
0.0
220
0.0
230
1.0
 70
     8
 71
     3
 72
    22
 73
    18
 74
     0
 42
0.00000001
 43
0.00000001
 40
0.0
 40
0.0
 40
0.0
 40
0.0
 40
0.1198646876447165
 40
0.2400408203087321
 40
0.3601589978511249
 40
0.4799267964573444
 40
0.6090254017624818
 40
0.7396874719206541
 40
0.8046253733819669
 40
0.8675850355232648
 40
0.8999995825340228
 40
0.9353576507225038
 40
0.9527735364180316
 40
0.9686165645517214
 40
0.9784548201473543
 40
0.9884943155554159
 40
1.0
 40
1.0
 40
1.0
 40
1.0
 10
321.1158252752176
 20
150.4950083736515
 30
0.0
 10
314.7083483536929
 20
149.8279498110575
 30
0.0
 10
301.8767459312103
 20
148.4920994642593
 30
0.0
 10
282.5672092312087
 20
147.1030482121079
 30
0.0
 10
263.2287630233334
 20
146.318740543606
 30
0.0
 10
243.3925190686654
 20
146.3072650863911
 30
0.0
 10
223.0091691992719
 20
147.2700662576709
 30
0.0
 10
205.6307738214523
 20
148.8413323522899
 30
0.0
 10
191.7611900531228
 20
149.7758904643137
 30
0.0
 10
183.1338657336862
 20
149.6550764062168
 30
0.0
 10
176.1281721995649
 20
149.1359162923132
 30
0.0
 10
171.5479905483803
 20
148.9724190980079
 30
0.0
 10
167.8911651380602
 20
148.4686671261146
 30
0.0
 10
165.6661567718149
 20
147.7015308929432
 30
0.0
 10
164.1228391920084
 20
146.5180332990799
 30
0.0
 10
163.1713618676216
 20
145.0671410484498
 30
0.0
 10
162.9844172941812
 20
143.9130238186498
 30
0.0
 10
162.8845840467753
 20
143.2966953057783
 30
0.0
  0
CIRCLE
  5
EF
330
1F
100
AcDbEntity
  8
0
  6
Continuous
 62
     7
370
    25
100
AcDbCircle
 10
175.9746083638
 20
139.3283627367
 30
0.0
 40
1.999999999999997
  0
CIRCLE
  5
F0
330
1F
100
AcDbEntity
  8
0
  6
Continuous
 62
     7
370
    25
100
AcDbCircle
 10
318.4039369243
 20
141.2515193812
 30
0.0
 40
2.049999999999956
  0
CIRCLE
  5
F1
330
1F
100
AcDbEntity
  8
0
  6
Continuous
 62
     7
370
    25
100
AcDbCircle
 10
266.29338842
 20
126.7335078682
 30
0.0
 40
2.000000000000024
  0
SPLINE
  5
F2
330
1F
100
AcDbEntity
  8
0
  6
Continuous
 62
     7
370
    25
100
AcDbSpline
210
0.0
220
0.0
230
1.0
 70
     8
 71
     3
 72
    26
 73
    22
 74
     0
 42
0.00000001
 43
0.00000001
 40
0.0
 40
0.0
 40
0.0
 40
0.0
 40
0.0224471125039048
 40
0.0440377405236868
 40
0.0654990098929899
 40
0.087066655591414
 40
0.108647348725903
 40
0.1302328221668932
 40
0.1734789196155107
 40
0.2166892075786704
 40
0.2598504520228392
 40
0.3245764194947516
 40
0.3894242848069685
 40
0.454359697326496
 40
0.5192093537141845
 40
0.5993970738732215
 40
0.6795317120085302
 40
0.759613537673852
 40
0.8397590633519157
 40
0.9199347713739607
 40
1.0
 40
1.0
 40
1.0
 40
1.0
 10
5.032629223213902
 20
118.0754231791388
 30
0.0
 10
5.322149554097377
 20
119.3407943454649
 30
0.0
 10
5.890143375376633
 20
121.8232556009666
 30
0.0
 10
7.734212201004897
 20
125.1600953915723
 30
0.0
 10
10.04926566937714
 20
128.0836474758875
 30
0.0
 10
12.74268947692214
 20
130.6625560596424
 30
0.0
 10
15.65440379438438
 20
132.9938135014401
 30
0.0
 10
19.76025947073718
 20
135.8101345653855
 30
0.0
 10
25.19389050677551
 20
138.8589091862569
 30
0.0
 10
31.95497514198481
 20
142.0297730152774
 30
0.0
 10
40.09201072160734
 20
145.1284602044919
 30
0.0
 10
49.6927135464641
 20
147.7978330871957
 30
0.0
 10
60.74595029413454
 20
149.6939847028847
 30
0.0
 10
71.92672890845186
 20
150.6097262502208
 30
0.0
 10
84.02568588503622
 20
150.6614718570039
 30
0.0
 10
96.96887676625133
 20
149.7076990876721
 30
0.0
 10
110.6682278781869
 20
147.6605231822032
 30
0.0
 10
124.2066530618927
 20
144.7653339003879
 30
0.0
 10
137.6098809304579
 20
141.304347927432
 30
0.0
 10
150.9220396940288
 20
137.5190561809164
 30
0.0
 10
159.7953166410955
 20
134.9946282472186
 30
0.0
 10
164.2288962387316
 20
133.733284523889
 30
0.0
  0
LINE
  5
F3
330
1F
100
AcDbEntity
  8
0
  6
Continuous
 62
     7
370
    25
100
AcDbLine
 10
163.4210041677
 20
116.6387276087
 30
0.0
 11
169.9062431886
 21
122.5086035822
 31
0.0
  0
SPLINE
  5
F4
330
1F
100
AcDbEntity
  8
0
  6
Continuous
 62
     7
370
    25
100
AcDbSpline
210
0.0
220
0.0
230
1.0
 70
     8
 71
     3
 72
    22
 73
    18
 74
     0
 42
0.00000001
 43
0.00000001
 40
0.0
 40
0.0
 40
0.0
 40
0.0
 40
0.1198646876447167
 40
0.2400408203087321
 40
0.3601589978511251
 40
0.4799267964573443
 40
0.6090254017624817
 40
0.7396874719206541
 40
0.8046253733819672
 40
0.8675850355232648
 40
0.899999582534023
 40
0.9353576507225038
 40
0.9527735364180319
 40
0.9686165645517214
 40
0.978454820147354
 40
0.9884943155554166
 40
1.0
 40
1.0
 40
1.0
 40
1.0
 10
163.4210041676981
 20
116.6387276087164
 30
0.0
 10
156.9935001270931
 20
117.072224360502
 30
0.0
 10
144.121791429886
 20
117.9403442208585
 30
0.0
 10
124.774501673579
 20
118.6259461719244
 30
0.0
 10
105.4203236466071
 20
118.7061531169513
 30
0.0
 10
85.59679503202221
 20
117.995928376491
 30
0.0
 10
65.261969363138
 20
116.2921669467113
 30
0.0
 10
47.95224620520477
 20
114.0896712614398
 30
0.0
 10
34.12584655912709
 20
112.651121436653
 30
0.0
 10
25.49983855297339
 20
112.4579716834798
 30
0.0
 10
18.47989487564555
 20
112.7219032750727
 30
0.0
 10
13.89679715353698
 20
112.7186536600386
 30
0.0
 10
10.22406502490902
 20
113.0890275820326
 30
0.0
 10
7.972619403131764
 20
113.774704504705
 30
0.0
 10
6.38726496869757
 20
114.9012687612123
 30
0.0
 10
5.383630461832434
 20
116.3165832839917
 30
0.0
 10
5.154819960947243
 20
117.4631349000755
 30
0.0
 10
5.032629223213902
 20
118.0754231791388
 30
0.0
  0
CIRCLE
  5
F5
330
1F
100
AcDbEntity
  8
0
  6
Continuous
 62
     7
370
    25
100
AcDbCircle
 10
107.7703598912
 20
138.3899179352
 30
0.0
 40
2.00000000000002
  0
LINE
  5
F6
330
1F
100
AcDbEntity
  8
0
  6
Continuous
 62
     7
370
    25
100
AcDbLine
 10
169.9678668469
 20
123.7458689445
 30
0.0
 11
169.9062431886
 21
122.5086035822
 31
0.0
  0
LINE
  5
F7
330
1F
100
AcDbEntity
  8
0
  6
Continuous
 62
     7
370
    25
100
AcDbLine
 10
169.9678668469
 20
123.7458689445
 30
0.0
 11
164.2288962387
 21
133.7332845239
 31
0.0
  0
CIRCLE
  5
F8
330
1F
100
AcDbEntity
  8
0
  6
Continuous
 62
     7
370
    25
100
AcDbCircle
 10
160.3746098081
 20
125.7774314877
 30
0.0
 40
2.050000000000024
  0
CIRCLE
  5
F9
330
1F
100
AcDbEntity
  8
0
  6
Continuous
 62
     7
370
    25
100
AcDbCircle
 10
17.9696091669
 20
122.5173765711
 30
0.0
 40
2.00000000000002
  0
CIRCLE
  5
FA
330
1F
100
AcDbEntity
  8
0
  6
Continuous
 62
     7
370
    25
100
AcDbCircle
 10
316.9557985923
 20
105.0503529318
 30
0.0
 40
2.04999999999998
  0
LINE
  5
FB
330
1F
100
AcDbEntity
  8
0
  6
Continuous
 62
     7
370
    25
100
AcDbLine
 10
319.6259990384
 20
114.3059705103
 30
0.0
 11
326.3458118911
 21
108.7061594127
 31
0.0
  0
LINE
  5
FC
330
1F
100
AcDbEntity
  8
0
  6
Continuous
 62
     7
370
    25
100
AcDbLine
 10
326.4579710558
 20
107.4724481929
 30
0.0
 11
326.3458118911
 21
108.7061594127
 31
0.0
  0
LINE
  5
FD
330
1F
100
AcDbEntity
  8
0
  6
Continuous
 62
     7
370
    25
100
AcDbLine
 10
326.4579710558
 20
107.4724481929
 30
0.0
 11
321.1321464297
 21
97.2587394811
 31
0.0
  0
SPLINE
  5
FE
330
1F
100
AcDbEntity
  8
0
  6
Continuous
 62
     7
370
    25
100
AcDbSpline
210
0.0
220
0.0
230
1.0
 70
     8
 71
     3
 72
    26
 73
    22
 74
     0
 42
0.00000001
 43
0.00000001
 40
0.0
 40
0.0
 40
0.0
 40
0.0
 40
0.0224471125039046
 40
0.0440377405236871
 40
0.06549900989299
 40
0.0870666555914137
 40
0.1086473487259032
 40
0.1302328221668931
 40
0.1734789196155106
 40
0.2166892075786706
 40
0.2598504520228392
 40
0.3245764194947515
 40
0.3894242848069686
 40
0.4543596973264959
 40
0.5192093537141844
 40
0.5993970738732216
 40
0.67953171200853
 40
0.7596135376738516
 40
0.8397590633519156
 40
0.9199347713739605
 40
1.0
 40
1.0
 40
1.0
 40
1.0
 10
161.4288076573345
 20
106.394583094358
 30
0.0
 10
161.7698220685391
 20
105.1421073932302
 30
0.0
 10
162.43883925963
 20
102.6849450330876
 30
0.0
 10
164.4177966769466
 20
99.4262923725126
 30
0.0
 10
166.8504471556518
 20
96.59983858736415
 30
0.0
 10
169.6470604335269
 20
94.13321022775484
 30
0.0
 10
172.6516561838374
 20
91.92295098873599
 30
0.0
 10
176.8692271565352
 20
89.27685759270526
 30
0.0
 10
182.4229673524081
 20
86.45279265694134
 30
0.0
 10
189.3080429050463
 20
83.5610150892297
 30
0.0
 10
197.5649678212863
 20
80.79761116504119
 30
0.0
 10
207.2667830650735
 20
78.5230062996754
 30
0.0
 10
218.3883035868976
 20
77.08036468361973
 30
0.0
 10
229.5971741186947
 20
76.62252802573272
 30
0.0
 10
241.68812976188
 20
77.06550563643472
 30
0.0
 10
254.5815015807301
 20
78.54767830652948
 30
0.0
 10
268.1856962767792
 20
81.15325631303932
 30
0.0
 10
281.5944275944389
 20
84.59955895255838
 30
0.0
 10
294.8449413907082
 20
88.60565747063659
 30
0.0
 10
307.9912026136621
 20
92.93206711497464
 30
0.0
 10
316.7538456491428
 20
95.8171784134379
 30
0.0
 10
321.1321464297038
 20
97.258739481134
 30
0.0
  0
SPLINE
  5
FF
330
1F
100
AcDbEntity
  8
0
  6
Continuous
 62
     7
370
    25
100
AcDbSpline
210
0.0
220
0.0
230
1.0
 70
     8
 71
     3
 72
    22
 73
    18
 74
     0
 42
0.00000001
 43
0.00000001
 40
0.0
 40
0.0
 40
0.0
 40
0.0
 40
0.1198646876447164
 40
0.2400408203087318
 40
0.3601589978511247
 40
0.4799267964573445
 40
0.6090254017624817
 40
0.7396874719206541
 40
0.8046253733819673
 40
0.8675850355232652
 40
0.899999582534023
 40
0.9353576507225039
 40
0.9527735364180319
 40
0.9686165645517215
 40
0.9784548201473541
 40
0.988494315555416
 40
1.0
 40
1.0
 40
1.0
 40
1.0
 10
319.6259990384463
 20
114.3059705102579
 30
0.0
 10
313.2215936246084
 20
113.6100402544092
 30
0.0
 10
300.3961421982132
 20
112.2163715036368
 30
0.0
 10
281.0930620640233
 20
110.7403063686071
 30
0.0
 10
261.7583471391008
 20
109.8688483800989
 30
0.0
 10
241.9223563721635
 20
109.7679711814678
 30
0.0
 10
221.5348741870415
 20
110.6388949122593
 30
0.0
 10
204.149573624968
 20
112.1318207022074
 30
0.0
 10
190.2759186748226
 20
113.0038591736974
 30
0.0
 10
181.6492264876685
 20
112.8441630326288
 30
0.0
 10
174.645943959443
 20
112.2934335638805
 30
0.0
 10
170.0665457082082
 20
112.1092951730385
 30
0.0
 10
166.4120278463978
 20
111.589067022649
 30
0.0
 10
164.1904995579576
 20
110.811910478724
 30
0.0
 10
162.6525316710154
 20
109.6214691800643
 30
0.0
 10
161.7076031748922
 20
108.1663033616865
 30
0.0
 10
161.5258621010772
 20
107.0113552954308
 30
0.0
 10
161.4288076573345
 20
106.394583094358
 30
0.0
  0
CIRCLE
  5
100
330
1F
100
AcDbEntity
  8
0
  6
Continuous
 62
     7
370
    25
100
AcDbCircle
 10
264.9112119611
 20
90.2976268754
 30
0.0
 40
1.999999999999976
  0
CIRCLE
  5
101
330
1F
100
AcDbEntity
  8
0
  6
Continuous
 62
     7
370
    25
100
AcDbCircle
 10
174.536584281
 20
102.4852875077
 30
0.0
 40
1.999999999999977
  0
SPLINE
  5
102
330
1F
100
AcDbEntity
  8
0
  6
Continuous
 62
     7
370
    25
100
AcDbSpline
210
0.0
220
0.0
230
1.0
 70
     8
 71
     3
 72
    26
 73
    22
 74
     0
 42
0.00000001
 43
0.00000001
 40
0.0
 40
0.0
 40
0.0
 40
0.0
 40
0.0224471125039047
 40
0.0440377405236869
 40
0.06549900989299
 40
0.0870666555914139
 40
0.108647348725903
 40
0.1302328221668931
 40
0.1734789196155107
 40
0.2166892075786706
 40
0.2598504520228393
 40
0.3245764194947517
 40
0.3894242848069687
 40
0.4543596973264961
 40
0.5192093537141848
 40
0.5993970738732218
 40
0.6795317120085304
 40
0.7596135376738519
 40
0.8397590633519159
 40
0.9199347713739608
 40
1.0
 40
1.0
 40
1.0
 40
1.0
 10
319.1213441196359
 20
120.8972860710011
 30
0.0
 10
319.4794125771174
 20
122.144993244308
 30
0.0
 10
320.1818871523013
 20
124.5928004951546
 30
0.0
 10
322.2051136760392
 20
127.824153780617
 30
0.0
 10
324.6760951584928
 20
130.6171593059418
 30
0.0
 10
327.5060969769067
 20
133.0454078513324
 30
0.0
 10
330.540564628657
 20
135.2144739169312
 30
0.0
 10
334.7938401113661
 20
137.8027866566221
 30
0.0
 10
340.3855883026855
 20
140.550826883683
 30
0.0
 10
347.3094716776013
 20
143.3484118917243
 30
0.0
 10
355.6033255416861
 20
145.9989209752499
 30
0.0
 10
365.3352672814245
 20
148.140965860976
 30
0.0
 10
376.4754328806757
 20
149.4317578546728
 30
0.0
 10
387.6895060422592
 20
149.736644933023
 30
0.0
 10
399.7732936844424
 20
149.1287685083437
 30
0.0
 10
412.6452465487744
 20
147.4708474784075
 30
0.0
 10
426.2126310963551
 20
144.6799288815851
 30
0.0
 10
439.5731016207737
 20
141.051030316113
 30
0.0
 10
452.7677328321923
 20
136.8645463024887
 30
0.0
 10
465.8537516134394
 20
132.3592031402416
 30
0.0
 10
474.5762217291638
 20
129.3548237946739
 30
0.0
 10
478.9344498986172
 20
127.8536698185805
 30
0.0
  0
LINE
  5
103
330
1F
100
AcDbEntity
  8
0
  6
Continuous
 62
     7
370
    25
100
AcDbLine
 10
484.1204475778
 20
117.5682587102
 30
0.0
 11
478.9344498986
 21
127.8536698186
 31
0.0
  0
LINE
  5
104
330
1F
100
AcDbEntity
  8
0
  6
Continuous
 62
     7
370
    25
100
AcDbLine
 10
484.1204475778
 20
117.5682587102
 30
0.0
 11
483.9914690492
 21
116.3361923195
 31
0.0
  0
LINE
  5
105
330
1F
100
AcDbEntity
  8
0
  6
Continuous
 62
     7
370
    25
100
AcDbLine
 10
477.1958910744
 20
110.8285713184
 30
0.0
 11
483.9914690492
 21
116.3361923195
 31
0.0
  0
CIRCLE
  5
106
330
1F
100
AcDbEntity
  8
0
  6
Continuous
 62
     7
370
    25
100
AcDbCircle
 10
474.6522005664
 20
120.1197534704
 30
0.0
 40
2.049999999999979
  0
CIRCLE
  5
107
330
1F
100
AcDbEntity
  8
0
  6
Continuous
 62
     7
370
    25
100
AcDbCircle
 10
422.8137075892
 20
135.5810784317
 30
0.0
 40
1.999999999999992
  0
CIRCLE
  5
108
330
1F
100
AcDbEntity
  8
0
  6
Continuous
 62
     7
370
    25
100
AcDbCircle
 10
332.2812301152
 20
124.6274067907
 30
0.0
 40
1.999999999999992
  0
SPLINE
  5
109
330
1F
100
AcDbEntity
  8
0
  6
Continuous
 62
     7
370
    25
100
AcDbSpline
210
0.0
220
0.0
230
1.0
 70
     8
 71
     3
 72
    22
 73
    18
 74
     0
 42
0.00000001
 43
0.00000001
 40
0.0
 40
0.0
 40
0.0
 40
0.0
 40
0.1198646876447167
 40
0.2400408203087321
 40
0.3601589978511253
 40
0.4799267964573445
 40
0.6090254017624819
 40
0.7396874719206542
 40
0.8046253733819673
 40
0.8675850355232652
 40
0.899999582534023
 40
0.9353576507225039
 40
0.9527735364180319
 40
0.9686165645517217
 40
0.9784548201473546
 40
0.988494315555416
 40
1.0
 40
1.0
 40
1.0
 40
1.0
 10
477.1958910743823
 20
110.8285713184485
 30
0.0
 10
470.8015752021925
 20
111.6118031822429
 30
0.0
 10
457.9963290748001
 20
113.1803019851131
 30
0.0
 10
438.7151810084112
 20
114.9195547533434
 30
0.0
 10
419.3941532834393
 20
116.0546881836598
 30
0.0
 10
399.5613844023978
 20
116.4261507341469
 30
0.0
 10
379.1639184961895
 20
115.8334260100207
 30
0.0
 10
361.7598697509682
 20
114.5778025306737
 30
0.0
 10
347.8756097546535
 20
113.8951041154201
 30
0.0
 10
339.2518988015355
 20
114.1724673185494
 30
0.0
 10
332.2567807693873
 20
114.8186815509926
 30
0.0
 10
327.6803205788843
 20
115.0652731468246
 30
0.0
 10
324.033239520284
 20
115.6353063763373
 30
0.0
 10
321.8225196094201
 20
116.4426958150934
 30
0.0
 10
320.3009343611869
 20
117.6540066914498
 30
0.0
 10
319.3759445880243
 20
119.1219274458865
 30
0.0
 10
319.2099757700029
 20
120.2792472828821
 30
0.0
 10
319.1213441196359
 20
120.8972860710011
 30
0.0
  0
SPLINE
  5
10A
330
1F
100
AcDbEntity
  8
0
  6
Continuous
 62
     7
370
    25
100
AcDbSpline
210
0.0
220
0.0
230
1.0
 70
     8
 71
     3
 72
    26
 73
    22
 74
     0
 42
0.00000001
 43
0.00000001
 40
0.0
 40
0.0
 40
0.0
 40
0.0
 40
0.022447112503905
 40
0.0440377405236869
 40
0.06549900989299
 40
0.0870666555914139
 40
0.1086473487259031
 40
0.1302328221668932
 40
0.1734789196155108
 40
0.2166892075786706
 40
0.2598504520228394
 40
0.3245764194947515
 40
0.3894242848069688
 40
0.454359697326496
 40
0.5192093537141848
 40
0.5993970738732217
 40
0.6795317120085301
 40
0.7596135376738519
 40
0.8397590633519156
 40
0.9199347713739605
 40
1.0
 40
1.0
 40
1.0
 40
1.0
 10
481.7979488863672
 20
93.47974325259584
 30
0.0
 10
482.4235994015123
 20
94.61708561242583
 30
0.0
 10
483.651028320919
 20
96.84837427906673
 30
0.0
 10
486.3400029161481
 20
99.55105910124578
 30
0.0
 10
489.3684658070579
 20
101.7270742366497
 30
0.0
 10
492.6661956416736
 20
103.4678439595892
 30
0.0
 10
496.1058749182579
 20
104.9105663863528
 30
0.0
 10
500.8269637578559
 20
106.4920325854491
 30
0.0
 10
506.8886442627768
 20
107.9326582762277
 30
0.0
 10
514.260320678687
 20
109.1264043487934
 30
0.0
 10
522.9353177954725
 20
109.8731542027669
 30
0.0
 10
532.8999782006323
 20
109.8054096238767
 30
0.0
 10
544.0492205332021
 20
108.5955216293233
 30
0.0
 10
555.052062770267
 20
106.4078617585586
 30
0.0
 10
566.7007350244196
 20
103.1374073185162
 30
0.0
 10
578.8852948074173
 20
98.66836093504133
 30
0.0
 10
591.4969321717516
 20
92.94038109337427
 30
0.0
 10
603.7211085585734
 20
86.4411050493667
 30
0.0
 10
615.6600111634544
 20
79.43485456905714
 30
0.0
 10
627.422344384721
 20
72.14173988843869
 30
0.0
 10
635.2622147114357
 20
67.27920830169548
 30
0.0
 10
639.1794472441278
 20
64.84961876397982
 30
0.0
  0
LINE
  5
10B
330
1F
100
AcDbEntity
  8
0
  6
Continuous
 62
     7
370
    25
100
AcDbLine
 10
641.957334764
 20
53.6707281874
 30
0.0
 11
639.1794472441
 21
64.849618764
 31
0.0
  0
LINE
  5
10C
330
1F
100
AcDbEntity
  8
0
  6
Continuous
 62
     7
370
    25
100
AcDbLine
 10
641.957334764
 20
53.6707281874
 30
0.0
 11
641.5585446936
 21
52.4978728972
 31
0.0
  0
LINE
  5
10D
330
1F
100
AcDbEntity
  8
0
  6
Continuous
 62
     7
370
    25
100
AcDbLine
 10
633.7114571762
 20
48.6330331079
 30
0.0
 11
641.5585446936
 21
52.4978728972
 31
0.0
  0
SPLINE
  5
10E
330
1F
100
AcDbEntity
  8
0
  6
Continuous
 62
     7
370
    25
100
AcDbSpline
210
0.0
220
0.0
230
1.0
 70
     8
 71
     3
 72
    22
 73
    18
 74
     0
 42
0.00000001
 43
0.00000001
 40
0.0
 40
0.0
 40
0.0
 40
0.0
 40
0.1198646876447166
 40
0.2400408203087319
 40
0.360158997851125
 40
0.4799267964573444
 40
0.609025401762482
 40
0.7396874719206542
 40
0.8046253733819672
 40
0.8675850355232652
 40
0.8999995825340231
 40
0.9353576507225039
 40
0.9527735364180318
 40
0.9686165645517216
 40
0.9784548201473546
 40
0.9884943155554164
 40
1.0
 40
1.0
 40
1.0
 40
1.0
 10
633.7114571761626
 20
48.63303310789452
 30
0.0
 10
627.6496689477764
 20
50.81373278918983
 30
0.0
 10
615.5103421162369
 20
55.18079827470351
 30
0.0
 10
597.093948091647
 20
61.14939124799817
 30
0.0
 10
578.5047968555136
 20
66.53772091255233
 30
0.0
 10
559.2474022067865
 20
71.29476382368976
 30
0.0
 10
539.225691651126
 20
75.23672328807656
 30
0.0
 10
521.9760850680794
 20
77.86894208180334
 30
0.0
 10
508.2857186602707
 20
80.27987973993427
 30
0.0
 10
499.937862847682
 20
82.46130686033176
 30
0.0
 10
493.2598467078222
 20
84.64152922368578
 30
0.0
 10
488.8518045664649
 20
85.89610475764614
 30
0.0
 10
485.421708960504
 20
87.26013637924329
 30
0.0
 10
483.444861894521
 20
88.53733483986697
 30
0.0
 10
482.2295234004628
 20
90.05570503572874
 30
0.0
 10
481.6528115950677
 20
91.69210379986865
 30
0.0
 10
481.7474236153844
 20
92.85742925624169
 30
0.0
 10
481.7979488863672
 20
93.47974325259584
 30
0.0
  0
CIRCLE
  5
10F
330
1F
100
AcDbEntity
  8
0
  6
Continuous
 62
     7
370
    25
100
AcDbCircle
 10
633.2898718876
 20
58.2568937171
 30
0.0
 40
2.049999999999983
  0
CIRCLE
  5
110
330
1F
100
AcDbEntity
  8
0
  6
Continuous
 62
     7
370
    25
100
AcDbCircle
 10
586.1662616621
 20
84.8209160597
 30
0.0
 40
2.000000000000048
  0
CIRCLE
  5
111
330
1F
100
AcDbEntity
  8
0
  6
Continuous
 62
     7
370
    25
100
AcDbCircle
 10
495.4572392549
 20
94.2009829001
 30
0.0
 40
2.000000000000052
  0
LINE
  5
112
330
1F
100
AcDbEntity
  8
0
  6
Continuous
 62
     7
370
    25
100
AcDbLine
 10
462.840316311
 20
104.2801643838
 30
0.0
 11
454.3250342595
 21
112.037369111
 31
0.0
  0
LINE
  5
113
330
1F
100
AcDbEntity
  8
0
  6
Continuous
 62
     7
370
    25
100
AcDbLine
 10
458.7771395079
 20
95.512983356
 30
0.0
 11
463.159549909
 21
103.0832045006
 31
0.0
  0
CIRCLE
  5
114
330
1F
100
AcDbEntity
  8
0
  6
Continuous
 62
     7
370
    25
100
AcDbCircle
 10
399.1422760023
 20
99.2266801226
 30
0.0
 40
2.000000000000007
  0
LINE
  5
115
330
1F
100
AcDbEntity
  8
0
  6
Continuous
 62
     7
370
    25
100
AcDbLine
 10
462.840316311
 20
104.2801643838
 30
0.0
 11
463.159549909
 21
103.0832045006
 31
0.0
  0
CIRCLE
  5
116
330
1F
100
AcDbEntity
  8
0
  6
Continuous
 62
     7
370
    25
100
AcDbCircle
 10
318.4811647308
 20
56.6837896654
 30
0.0
 40
1.999999999999976
  0
SPLINE
  5
117
330
1F
100
AcDbEntity
  8
0
  6
Continuous
 62
     7
370
    25
100
AcDbSpline
210
0.0
220
0.0
230
1.0
 70
     8
 71
     3
 72
    22
 73
    18
 74
     0
 42
0.00000001
 43
0.00000001
 40
0.0
 40
0.0
 40
0.0
 40
0.0
 40
0.1198646876447166
 40
0.2400408203087321
 40
0.360158997851125
 40
0.4799267964573443
 40
0.6090254017624818
 40
0.7396874719206541
 40
0.8046253733819672
 40
0.867585035523265
 40
0.899999582534023
 40
0.935357650722504
 40
0.9527735364180319
 40
0.9686165645517216
 40
0.9784548201473543
 40
0.9884943155554161
 40
1.0
 40
1.0
 40
1.0
 40
1.0
 10
458.7771395078719
 20
95.51298335597419
 30
0.0
 10
452.5243927295793
 20
93.9625365325218
 30
0.0
 10
440.0026526296685
 20
90.85761435185653
 30
0.0
 10
421.3705427982857
 20
85.60098480612139
 30
0.0
 10
402.9167867002855
 20
79.76578762613845
 30
0.0
 10
384.2575406170685
 20
73.03457365530325
 30
0.0
 10
365.4148993868671
 20
65.2011319172518
 30
0.0
 10
349.6051276616661
 20
57.81678217980352
 30
0.0
 10
336.8788733977616
 20
52.22382185615454
 30
0.0
 10
328.7240912858786
 20
49.40516088734531
 30
0.0
 10
321.9590093342844
 20
47.51229657469342
 30
0.0
 10
317.5959267018324
 20
46.10933355565511
 30
0.0
 10
313.9855838588061
 20
45.3402024312301
 30
0.0
 10
311.6322987405435
 20
45.3054262573605
 30
0.0
 10
309.7786075195596
 20
45.89391972722007
 30
0.0
 10
308.3906399594492
 20
46.93504578771518
 30
0.0
 10
307.8225595668583
 20
47.9569163867703
 30
0.0
 10
307.5191899138312
 20
48.50262177128501
 30
0.0
  0
SPLINE
  5
118
330
1F
100
AcDbEntity
  8
0
  6
Continuous
 62
     7
370
    25
100
AcDbSpline
210
0.0
220
0.0
230
1.0
 70
     8
 71
     3
 72
    26
 73
    22
 74
     0
 42
0.00000001
 43
0.00000001
 40
0.0
 40
0.0
 40
0.0
 40
0.0
 40
0.0224471125039049
 40
0.0440377405236866
 40
0.0654990098929897
 40
0.087066655591414
 40
0.1086473487259028
 40
0.1302328221668932
 40
0.1734789196155105
 40
0.2166892075786704
 40
0.2598504520228392
 40
0.3245764194947517
 40
0.3894242848069685
 40
0.4543596973264961
 40
0.5192093537141845
 40
0.5993970738732218
 40
0.6795317120085304
 40
0.7596135376738521
 40
0.8397590633519159
 40
0.9199347713739608
 40
1.0
 40
1.0
 40
1.0
 40
1.0
 10
307.5191899138312
 20
48.50262177128501
 30
0.0
 10
307.408377309543
 20
49.79595342917303
 30
0.0
 10
307.1909802294708
 20
52.33326881667494
 30
0.0
 10
307.9277128178896
 20
56.0738990730602
 30
0.0
 10
309.2391573332725
 20
59.564850610134
 30
0.0
 10
311.0161586384631
 20
62.8431989216724
 30
0.0
 10
313.0766614881952
 20
65.95240614099657
 30
0.0
 10
316.1260800412652
 20
69.88823663257688
 30
0.0
 10
320.3688196604404
 20
74.45096974427085
 30
0.0
 10
325.8382838251356
 20
79.5354170709494
 30
0.0
 10
332.6399891032024
 20
84.9714096786492
 30
0.0
 10
340.9665446048881
 20
90.44566942727933
 30
0.0
 10
350.9123925524322
 20
95.62732381116729
 30
0.0
 10
361.2791452640642
 20
99.9143777202945
 30
0.0
 10
372.7840976412539
 20
103.6591752218501
 30
0.0
 10
385.4000658111385
 20
106.7043714092165
 30
0.0
 10
399.0700287309355
 20
108.9393800998915
 30
0.0
 10
412.8457748044181
 20
110.3177478125401
 30
0.0
 10
426.6656023792967
 20
111.1160629146761
 30
0.0
 10
440.497769442142
 20
111.5777542599485
 30
0.0
 10
449.7180649892234
 20
111.8842345957756
 30
0.0
 10
454.3250342594916
 20
112.0373691110292
 30
0.0
  0
CIRCLE
  5
119
330
1F
100
AcDbEntity
  8
0
  6
Continuous
 62
     7
370
    25
100
AcDbCircle
 10
453.08498953
 20
103.2844604235
 30
0.0
 40
2.050000000000022
  0
LINE
  5
11A
330
1F
100
AcDbEntity
  8
0
  6
Continuous
 62
     7
370
    25
100
AcDbLine
 10
464.9130574888
 20
145.1121723392
 30
0.0
 11
469.5446371697
 21
134.5654798124
 31
0.0
  0
LINE
  5
11B
330
1F
100
AcDbEntity
  8
0
  6
Continuous
 62
     7
370
    25
100
AcDbLine
 10
464.9130574888
 20
145.1121723392
 30
0.0
 11
465.1073865532
 21
146.3356343398
 31
0.0
  0
SPLINE
  5
11C
330
1F
100
AcDbEntity
  8
0
  6
Continuous
 62
     7
370
    25
100
AcDbSpline
210
0.0
220
0.0
230
1.0
 70
     8
 71
     3
 72
    22
 73
    18
 74
     0
 42
0.00000001
 43
0.00000001
 40
0.0
 40
0.0
 40
0.0
 40
0.0
 40
0.1198646876447167
 40
0.2400408203087319
 40
0.3601589978511249
 40
0.4799267964573443
 40
0.6090254017624817
 40
0.739687471920654
 40
0.8046253733819668
 40
0.8675850355232646
 40
0.8999995825340227
 40
0.9353576507225034
 40
0.9527735364180315
 40
0.9686165645517213
 40
0.9784548201473542
 40
0.9884943155554164
 40
1.0
 40
1.0
 40
1.0
 40
1.0
 10
472.1862930589032
 20
151.4740048778314
 30
0.0
 10
478.5298975524994
 20
150.3517706533367
 30
0.0
 10
491.2335891590752
 20
148.1043862975312
 30
0.0
 10
510.3949332874715
 20
145.3420390813071
 30
0.0
 10
529.6282334856868
 20
143.1808348477627
 30
0.0
 10
549.4131697810246
 20
141.7550011601797
 30
0.0
 10
569.8132884659872
 20
141.2619538673582
 30
0.0
 10
587.2594866940598
 20
141.5900856011397
 30
0.0
 10
601.160405022466
 20
141.5333194276642
 30
0.0
 10
609.7571556853445
 20
140.7976571480348
 30
0.0
 10
616.7079997747744
 20
139.7802901727821
 30
0.0
 10
621.2648655650449
 20
139.2906275748075
 30
0.0
 10
624.8764640933438
 20
138.5274144976532
 30
0.0
 10
627.0411098605653
 20
137.6035806746336
 30
0.0
 10
628.4961120643163
 20
136.3130519868857
 30
0.0
 10
629.341714338962
 20
134.7980093423126
 30
0.0
 10
629.4458908419817
 20
133.6334999564002
 30
0.0
 10
629.5015237946183
 20
133.0116217628228
 30
0.0
  0
CIRCLE
  5
11D
330
1F
100
AcDbEntity
  8
0
  6
Continuous
 62
     7
370
    25
100
AcDbCircle
 10
474.2321885721
 20
142.0606771596
 30
0.0
 40
2.050000000000012
  0
CIRCLE
  5
11E
330
1F
100
AcDbEntity
  8
0
  6
Continuous
 62
     7
370
    25
100
AcDbCircle
 10
525.1749189812
 20
123.863970255
 30
0.0
 40
2.00000000000006
  0
CIRCLE
  5
11F
330
1F
100
AcDbEntity
  8
0
  6
Continuous
 62
     7
370
    25
100
AcDbCircle
 10
616.1618629042
 20
129.9867503063
 30
0.0
 40
1.99999999999993
  0
LINE
  5
120
330
1F
100
AcDbEntity
  8
0
  6
Continuous
 62
     7
370
    25
100
AcDbLine
 10
472.1862930589
 20
151.4740048778
 30
0.0
 11
465.1073865532
 21
146.3356343398
 31
0.0
  0
SPLINE
  5
121
330
1F
100
AcDbEntity
  8
0
  6
Continuous
 62
     7
370
    25
100
AcDbSpline
210
0.0
220
0.0
230
1.0
 70
     8
 71
     3
 72
    26
 73
    22
 74
     0
 42
0.00000001
 43
0.00000001
 40
0.0
 40
0.0
 40
0.0
 40
0.0
 40
0.0224471125039048
 40
0.0440377405236871
 40
0.06549900989299
 40
0.087066655591414
 40
0.1086473487259031
 40
0.1302328221668934
 40
0.1734789196155105
 40
0.2166892075786704
 40
0.2598504520228392
 40
0.3245764194947517
 40
0.3894242848069686
 40
0.4543596973264961
 40
0.5192093537141845
 40
0.5993970738732218
 40
0.6795317120085304
 40
0.7596135376738521
 40
0.8397590633519157
 40
0.9199347713739607
 40
1.0
 40
1.0
 40
1.0
 40
1.0
 10
629.5015237946183
 20
133.0116217628228
 30
0.0
 10
629.077597166871
 20
131.784726321128
 30
0.0
 10
628.2459191133769
 20
129.3777484480652
 30
0.0
 10
626.053682229003
 20
126.2585839662506
 30
0.0
 10
623.4376397540681
 20
123.600962638736
 30
0.0
 10
620.4824864375109
 20
121.3266780993568
 30
0.0
 10
617.3369425344431
 20
119.322084604325
 30
0.0
 10
612.9520165450823
 20
116.9636658039228
 30
0.0
 10
607.2220167063485
 20
114.5169384442081
 30
0.0
 10
600.1591321457124
 20
112.091592170007
 30
0.0
 10
591.7360392919924
 20
109.8859818013653
 30
0.0
 10
581.9039392798475
 20
108.2646071779955
 30
0.0
 10
570.7108866430772
 20
107.568183298295
 30
0.0
 10
559.496470949503
 20
107.8601998314052
 30
0.0
 10
547.4621214378687
 20
109.1099475503031
 30
0.0
 10
534.6965738544545
 20
111.4501756542875
 30
0.0
 10
521.2968427020155
 20
114.9587872199035
 30
0.0
 10
508.1483044879016
 20
119.2931868627986
 30
0.0
 10
495.1950285747011
 20
124.1755617273676
 30
0.0
 10
482.3671713326902
 20
129.3705673222972
 30
0.0
 10
473.8168501949372
 20
132.8346384262256
 30
0.0
 10
469.5446371697243
 20
134.5654798124189
 30
0.0
  0
ARC
  5
122
330
1F
100
AcDbEntity
  8
0
  6
Continuous
 62
     7
370
    25
100
AcDbCircle
 10
949.8239572766
 20
19.1458311831
 30
0.0
 40
5.079999999999965
100
AcDbArc
 50
355.3131992427
 51
98.4804915123
  0
LINE
  5
123
330
1F
100
AcDbEntity
  8
0
  6
Continuous
 62
     7
370
    25
100
AcDbLine
 10
954.1752178897
 20
10.0490391045
 30
0.0
 11
954.8869709584
 21
18.7307499159
 31
0.0
  0
ARC
  5
124
330
1F
100
AcDbEntity
  8
0
  6
Continuous
 62
     7
370
    25
100
AcDbCircle
 10
949.1122042079
 20
10.4641203716
 30
0.0
 40
5.080000000000031
100
AcDbArc
 50
265.9543441185
 51
355.3131992427
  0
SPLINE
  5
125
330
1F
100
AcDbEntity
  8
0
  6
Continuous
 62
     7
370
    25
100
AcDbSpline
210
0.0
220
0.0
230
1.0
 70
     8
 71
     3
 72
    15
 73
    11
 74
     0
 42
0.00000001
 43
0.00000001
 40
0.0
 40
0.0
 40
0.0
 40
0.0
 40
0.1867325496505951
 40
0.3733970005827348
 40
0.5600521443209479
 40
0.6480631864631436
 40
0.7360398399874611
 40
0.824033048873429
 40
0.91205016757287
 40
1.0
 40
1.0
 40
1.0
 40
1.0
 10
948.7538033200027
 20
5.396778977620476
 30
0.0
 10
943.5370302117926
 20
5.745560860042076
 30
0.0
 10
933.1053864787037
 20
6.442997429068287
 30
0.0
 10
917.427641603088
 20
6.992772793906921
 30
0.0
 10
904.5095862363337
 20
6.770829280085877
 30
0.0
 10
894.3565875724865
 20
6.870005777832644
 30
0.0
 10
886.9635277821693
 20
6.808666461391888
 30
0.0
 10
879.5823551755947
 20
6.396961889103824
 30
0.0
 10
872.1829452625684
 20
6.453207469928113
 30
0.0
 10
867.279249328237
 20
5.93483290425656
 30
0.0
 10
864.8283388991086
 20
5.675744729497334
 30
0.0
  0
SPLINE
  5
126
330
1F
100
AcDbEntity
  8
0
  6
Continuous
 62
     7
370
    25
100
AcDbSpline
210
0.0
220
0.0
230
1.0
 70
     8
 71
     3
 72
    32
 73
    28
 74
     0
 42
0.00000001
 43
0.00000001
 40
0.0
 40
0.0
 40
0.0
 40
0.0
 40
0.0134425910553877
 40
0.0165229897286401
 40
0.0173286429912924
 40
0.0179376162082073
 40
0.0182455808882127
 40
0.0185076141234506
 40
0.0187509501465796
 40
0.0190772698666369
 40
0.019469604350735
 40
0.0202720511162935
 40
0.0230354038652915
 40
0.03601172436775
 40
0.0541972894086333
 40
0.0735805641819403
 40
0.1174295788136767
 40
0.1521493343668319
 40
0.1822741157292816
 40
0.2122953756967616
 40
0.2446934164049759
 40
0.2791500903773412
 40
0.4286800384668946
 40
0.5758139011566523
 40
0.7181630503302531
 40
0.8586091490573111
 40
1.0
 40
1.0
 40
1.0
 40
1.0
 10
864.8283388991088
 20
5.67574472949739
 30
0.0
 10
864.4264068507023
 20
5.667906229796237
 30
0.0
 10
863.9323712083122
 20
5.658271521017333
 30
0.0
 10
863.416226148878
 20
5.729151580549763
 30
0.0
 10
863.2889047000693
 20
5.772687539362497
 30
0.0
 10
863.2432030822846
 20
5.797459089072921
 30
0.0
 10
863.2171989542168
 20
5.821672295839464
 30
0.0
 10
863.2044869237461
 20
5.842893336998999
 30
0.0
 10
863.20008760477
 20
5.867949504494819
 30
0.0
 10
863.2072426945882
 20
5.896611398487295
 30
0.0
 10
863.2319457111925
 20
5.935283596631368
 30
0.0
 10
863.3200430703054
 20
6.015825954005627
 30
0.0
 10
863.7598904976912
 20
6.249131128760799
 30
0.0
 10
864.7247132529922
 20
6.566275425476387
 30
0.0
 10
866.1724082999631
 20
6.993535501382597
 30
0.0
 10
868.5187169246175
 20
7.636743310593996
 30
0.0
 10
871.3352157566829
 20
8.430958367577068
 30
0.0
 10
874.4571130220885
 20
9.325207230171607
 30
0.0
 10
877.1825296041288
 20
10.10323303968147
 30
0.0
 10
879.8500123367082
 20
10.83109148221911
 30
0.0
 10
882.6522185966742
 20
11.55582383285325
 30
0.0
 10
888.9267772153133
 20
13.11316976773336
 30
0.0
 10
898.5754254330673
 20
15.30376341701861
 30
0.0
 10
911.4274803357296
 20
17.92762018074984
 30
0.0
 10
924.0661028433615
 20
20.22497067208434
 30
0.0
 10
936.5714970628592
 20
22.28412146958064
 30
0.0
 10
944.897726297376
 20
23.54016178254142
 30
0.0
 10
949.0747961882887
 20
24.17028714004304
 30
0.0
  0
CIRCLE
  5
127
330
1F
100
AcDbEntity
  8
0
  6
Continuous
 62
     7
370
    25
100
AcDbCircle
 10
945.4967364062
 20
14.642970351
 30
0.0
 40
2.000000000000077
  0
CIRCLE
  5
128
330
1F
100
AcDbEntity
  8
0
  6
Continuous
 62
     7
370
    25
100
AcDbCircle
 10
924.2982400408
 20
16.0913512023
 30
0.0
 40
1.999999999999964
  0
CIRCLE
  5
129
330
1F
100
AcDbEntity
  8
0
  6
Continuous
 62
     7
370
    25
100
AcDbCircle
 10
891.9072582489
 20
9.572184495
 30
0.0
 40
2.000000000000077
  0
ARC
  5
12A
330
1F
100
AcDbEntity
  8
0
  6
Continuous
 62
     7
370
    25
100
AcDbCircle
 10
976.6859068012
 20
86.959694858
 30
0.0
 40
5.080000000000115
100
AcDbArc
 50
115.4876211479
 51
204.8464762721
  0
LINE
  5
12B
330
1F
100
AcDbEntity
  8
0
  6
Continuous
 62
     7
370
    25
100
AcDbLine
 10
982.3629851468
 20
95.2937140865
 30
0.0
 11
974.4999011064
 21
91.5453004998
 31
0.0
  0
ARC
  5
12C
330
1F
100
AcDbEntity
  8
0
  6
Continuous
 62
     7
370
    25
100
AcDbCircle
 10
984.5489908416
 20
90.7081084447
 30
0.0
 40
5.080000000000054
100
AcDbArc
 50
12.3203288783
 51
115.4876211479
  0
CIRCLE
  5
12D
330
1F
100
AcDbEntity
  8
0
  6
Continuous
 62
     7
370
    25
100
AcDbCircle
 10
981.8763079943
 20
85.0638757659
 30
0.0
 40
2.000000000000039
  0
SPLINE
  5
12E
330
1F
100
AcDbEntity
  8
0
  6
Continuous
 62
     7
370
    25
100
AcDbSpline
210
0.0
220
0.0
230
1.0
 70
     8
 71
     3
 72
    32
 73
    28
 74
     0
 42
0.00000001
 43
0.00000001
 40
0.0
 40
0.0
 40
0.0
 40
0.0
 40
0.0134425910553882
 40
0.0165229897286406
 40
0.0173286429912938
 40
0.0179376162082078
 40
0.0182455808882132
 40
0.0185076141234506
 40
0.0187509501465801
 40
0.0190772698666367
 40
0.019469604350736
 40
0.0202720511162945
 40
0.0230354038652924
 40
0.0360117243677517
 40
0.0541972894086348
 40
0.0735805641819422
 40
0.1174295788136792
 40
0.1521493343668353
 40
0.1822741157292869
 40
0.2122953756967674
 40
0.2446934164049823
 40
0.2791500903773483
 40
0.4286800384668998
 40
0.5758139011566568
 40
0.7181630503302571
 40
0.8586091490573138
 40
1.0
 40
1.0
 40
1.0
 40
1.0
 10
1002.140550203174
 20
6.468952396751881
 30
0.0
 10
1002.275956861023
 20
6.090434430700176
 30
0.0
 10
1002.442392245958
 20
5.625178258031882
 30
0.0
 10
1002.691945998112
 20
5.16784617955518
 30
0.0
 10
1002.77785874606
 20
5.064283972275597
 30
0.0
 10
1002.817245275215
 20
5.030358040242544
 30
0.0
 10
1002.849114874492
 20
5.014647448261245
 30
0.0
 10
1002.873467041425
 20
5.010300003929657
 30
0.0
 10
1002.898452350434
 20
5.015085384874496
 30
0.0
 10
1002.922705161151
 20
5.031952531931561
 30
0.0
 10
1002.950084184457
 20
5.068778704981569
 30
0.0
 10
1002.994091673835
 20
5.17973616030809
 30
0.0
 10
1003.055991384003
 20
5.673766007410153
 30
0.0
 10
1003.00983621079
 20
6.688326579317893
 30
0.0
 10
1002.895141759329
 20
8.193390466430861
 30
0.0
 10
1002.663203729547
 20
10.61518426407343
 30
0.0
 10
1002.40545627454
 20
13.5301472959492
 30
0.0
 10
1002.132769283055
 20
16.76612711181219
 30
0.0
 10
1001.892232946444
 20
19.59019544963486
 30
0.0
 10
1001.625372610921
 20
22.34229057922427
 30
0.0
 10
1001.307746874426
 20
25.21921789755594
 30
0.0
 10
1000.535362484501
 20
31.63784972792477
 30
0.0
 10
999.1567432260739
 20
41.43552914228327
 30
0.0
 10
997.0455523529209
 20
54.38167963711099
 30
0.0
 10
994.7049308793445
 20
67.0123601131533
 30
0.0
 10
992.1889475030373
 20
79.43390648395615
 30
0.0
 10
990.4063064308947
 20
87.66348249620675
 30
0.0
 10
989.5119980784556
 20
91.79206377922561
 30
0.0
  0
CIRCLE
  5
12F
330
1F
100
AcDbEntity
  8
0
  6
Continuous
 62
     7
370
    25
100
AcDbCircle
 10
990.7583016385
 20
65.7614343621
 30
0.0
 40
1.999999999999985
  0
CIRCLE
  5
130
330
1F
100
AcDbEntity
  8
0
  6
Continuous
 62
     7
370
    25
100
AcDbCircle
 10
996.1667470757
 20
33.1665888501
 30
0.0
 40
1.999999999999992
  0
SPLINE
  5
131
330
1F
100
AcDbEntity
  8
0
  6
Continuous
 62
     7
370
    25
100
AcDbSpline
210
0.0
220
0.0
230
1.0
 70
     8
 71
     3
 72
    15
 73
    11
 74
     0
 42
0.00000001
 43
0.00000001
 40
0.0
 40
0.0
 40
0.0
 40
0.0
 40
0.1867325496505934
 40
0.3733970005827345
 40
0.5600521443209487
 40
0.6480631864631429
 40
0.7360398399874617
 40
0.8240330488734298
 40
0.9120501675728708
 40
1.0
 40
1.0
 40
1.0
 40
1.0
 10
972.0761271688551
 20
84.82513829018961
 30
0.0
 10
974.2547579345539
 20
80.07225090978604
 30
0.0
 10
978.6112249501404
 20
70.56820945974945
 30
0.0
 10
984.6926524932024
 20
56.10756713739146
 30
0.0
 10
989.072639439593
 20
43.95268631809529
 30
0.0
 10
992.7708880874881
 20
34.49667369203907
 30
0.0
 10
995.3389727946197
 20
27.5637063250353
 30
0.0
 10
997.5753074651473
 20
20.51742951069618
 30
0.0
 10
1000.255568013299
 20
13.62028270782378
 30
0.0
 10
1001.512383000258
 20
8.852121417004366
 30
0.0
 10
1002.140550203174
 20
6.468952396751937
 30
0.0
  0
ARC
  5
132
330
1F
100
AcDbEntity
  8
0
  6
Continuous
 62
     7
370
    25
100
AcDbCircle
 10
874.3121926553
 20
88.8630654353
 30
0.0
 40
5.080000000000017
100
AcDbArc
 50
184.7121333186
 51
287.8794255882
  0
LINE
  5
133
330
1F
100
AcDbEntity
  8
0
  6
Continuous
 62
     7
370
    25
100
AcDbLine
 10
868.5337714899
 20
97.1271409358
 30
0.0
 11
869.249362991
 21
88.4457456651
 31
0.0
  0
ARC
  5
134
330
1F
100
AcDbEntity
  8
0
  6
Continuous
 62
     7
370
    25
100
AcDbCircle
 10
873.5966011542
 20
97.544460706
 30
0.0
 40
5.079999999999978
100
AcDbArc
 50
95.3532781944
 51
184.7121333186
  0
SPLINE
  5
135
330
1F
100
AcDbEntity
  8
0
  6
Continuous
 62
     7
370
    25
100
AcDbSpline
210
0.0
220
0.0
230
1.0
 70
     8
 71
     3
 72
    32
 73
    28
 74
     0
 42
0.00000001
 43
0.00000001
 40
0.0
 40
0.0
 40
0.0
 40
0.0
 40
0.0134425910553874
 40
0.016522989728639
 40
0.0173286429912928
 40
0.0179376162082069
 40
0.0182455808882119
 40
0.0185076141234494
 40
0.0187509501465794
 40
0.0190772698666361
 40
0.0194696043507346
 40
0.0202720511162928
 40
0.0230354038652912
 40
0.0360117243677501
 40
0.0541972894086321
 40
0.0735805641819398
 40
0.117429578813675
 40
0.152149334366831
 40
0.1822741157292817
 40
0.2122953756967613
 40
0.2446934164049767
 40
0.2791500903773412
 40
0.4286800384668946
 40
0.5758139011566534
 40
0.718163050330255
 40
0.8586091490573119
 40
0.9999999999999999
 40
0.9999999999999999
 40
0.9999999999999999
 40
0.9999999999999999
 10
955.9669942494028
 20
116.0327498107936
 30
0.0
 10
956.3622503537814
 20
116.1061216416625
 30
0.0
 10
956.8480802452007
 20
116.1963067854955
 30
0.0
 10
957.368871413394
 20
116.2106686917012
 30
0.0
 10
957.5015933505097
 20
116.1885097557001
 30
0.0
 10
957.5507268157459
 20
116.1715341809806
 30
0.0
 10
957.5803360444762
 20
116.1518927036305
 30
0.0
 10
957.5963429759531
 20
116.1330325219962
 30
0.0
 10
957.6047750977345
 20
116.1090311707991
 30
0.0
 10
957.6023967689191
 20
116.0795855763987
 30
0.0
 10
957.5843408495541
 20
116.0373983542274
 30
0.0
 10
957.5105793596103
 20
115.9435502928978
 30
0.0
 10
957.1147373060529
 20
115.641546762156
 30
0.0
 10
956.2146591798722
 20
115.17109716777
 30
0.0
 10
954.8561739705139
 20
114.5131533575245
 30
0.0
 10
952.6464047988976
 20
113.4954104351055
 30
0.0
 10
949.997418261843
 20
112.2519018688825
 30
0.0
 10
947.0634694858845
 20
110.8598285432104
 30
0.0
 10
944.5016986105769
 20
109.6471663114456
 30
0.0
 10
941.9888911216769
 20
108.4934589981668
 30
0.0
 10
939.3426582272185
 20
107.3208344326159
 30
0.0
 10
933.4066607432089
 20
104.7597123954105
 30
0.0
 10
924.2452843079576
 20
101.022829365682
 30
0.0
 10
911.9942614449888
 20
96.33535900858764
 30
0.0
 10
899.9004847314318
 20
92.00486677639402
 30
0.0
 10
887.8992479206181
 20
87.93113364784494
 30
0.0
 10
879.8899175881169
 20
85.33221884385873
 30
0.0
 10
875.8718282903138
 20
84.02840550038576
 30
0.0
  0
CIRCLE
  5
136
330
1F
100
AcDbEntity
  8
0
  6
Continuous
 62
     7
370
    25
100
AcDbCircle
 10
877.8459700184
 20
94.0121443512
 30
0.0
 40
2.000000000000004
  0
CIRCLE
  5
137
330
1F
100
AcDbEntity
  8
0
  6
Continuous
 62
     7
370
    25
100
AcDbCircle
 10
898.9964124209
 20
96.0450834607
 30
0.0
 40
2.000000000000004
  0
CIRCLE
  5
138
330
1F
100
AcDbEntity
  8
0
  6
Continuous
 62
     7
370
    25
100
AcDbCircle
 10
929.8879222362
 20
107.7664254201
 30
0.0
 40
2.000000000000004
  0
SPLINE
  5
139
330
1F
100
AcDbEntity
  8
0
  6
Continuous
 62
     7
370
    25
100
AcDbSpline
210
0.0
220
0.0
230
1.0
 70
     8
 71
     3
 72
    15
 73
    11
 74
     0
 42
0.00000001
 43
0.00000001
 40
0.0
 40
0.0
 40
0.0
 40
0.0
 40
0.1867325496505931
 40
0.3733970005827343
 40
0.5600521443209471
 40
0.6480631864631423
 40
0.7360398399874605
 40
0.824033048873429
 40
0.9120501675728702
 40
1.0
 40
1.0
 40
1.0
 40
1.0
 10
873.1226551791457
 20
102.6023036467327
 30
0.0
 10
878.3263528863666
 20
103.1101428298527
 30
0.0
 10
888.731850585891
 20
104.1256359943291
 30
0.0
 10
904.2889073709053
 20
106.1435362704878
 30
0.0
 10
916.9972953627301
 20
108.4721169607556
 30
0.0
 10
927.0301883260719
 20
110.0323338148895
 30
0.0
 10
934.3139805897725
 20
111.3001925744527
 30
0.0
 10
941.5288279408883
 20
112.9117717388088
 30
0.0
 10
948.8380875864957
 20
114.0646611781949
 30
0.0
 10
953.5912978728828
 20
115.3768875230374
 30
0.0
 10
955.9669942494027
 20
116.0327498107935
 30
0.0
  0
ARC
  5
13A
330
1F
100
AcDbEntity
  8
0
  6
Continuous
 62
     7
370
    25
100
AcDbCircle
 10
786.856802147
 20
73.8845343452
 30
0.0
 40
5.0800000000001
100
AcDbArc
 50
6.7230576859
 51
109.8903499554
  0
LINE
  5
13B
330
1F
100
AcDbEntity
  8
0
  6
Continuous
 62
     7
370
    25
100
AcDbLine
 10
792.9216514892
 20
65.8283133018
 30
0.0
 11
791.9018701215
 21
74.4792520373
 31
0.0
  0
ARC
  5
13C
330
1F
100
AcDbEntity
  8
0
  6
Continuous
 62
     7
370
    25
100
AcDbCircle
 10
787.8765835147
 20
65.2335956097
 30
0.0
 40
5.0800000000001
100
AcDbArc
 50
277.3642025617
 51
6.7230576859
  0
SPLINE
  5
13D
330
1F
100
AcDbEntity
  8
0
  6
Continuous
 62
     7
370
    25
100
AcDbSpline
210
0.0
220
0.0
230
1.0
 70
     8
 71
     3
 72
    15
 73
    11
 74
     0
 42
0.00000001
 43
0.00000001
 40
0.0
 40
0.0
 40
0.0
 40
0.0
 40
0.1867325496505942
 40
0.373397000582735
 40
0.5600521443209484
 40
0.6480631864631429
 40
0.736039839987461
 40
0.8240330488734291
 40
0.9120501675728704
 40
1.0
 40
1.0
 40
1.0
 40
1.0
 10
788.5277175542452
 20
60.19549830390608
 30
0.0
 10
783.3450446201455
 20
59.50537387874771
 30
0.0
 10
772.9815887994265
 20
58.12537670704327
 30
0.0
 10
757.5049209684245
 20
55.56282130559237
 30
0.0
 10
744.8860693813758
 20
52.78973674036875
 30
0.0
 10
734.9141032093431
 20
50.87842606189891
 30
0.0
 10
727.6792858571913
 20
49.35575950091204
 30
0.0
 10
720.5254321230715
 20
47.49200349388888
 30
0.0
 10
713.2611287942359
 20
46.08334179815904
 30
0.0
 10
708.5568918329925
 20
44.60513321369369
 30
0.0
 10
706.2056727558304
 20
43.86631154028448
 30
0.0
  0
SPLINE
  5
13E
330
1F
100
AcDbEntity
  8
0
  6
Continuous
 62
     7
370
    25
100
AcDbSpline
210
0.0
220
0.0
230
1.0
 70
     8
 71
     3
 72
    32
 73
    28
 74
     0
 42
0.00000001
 43
0.00000001
 40
0.0
 40
0.0
 40
0.0
 40
0.0
 40
0.0134425910553875
 40
0.0165229897286397
 40
0.0173286429912928
 40
0.0179376162082075
 40
0.0182455808882123
 40
0.0185076141234506
 40
0.0187509501465795
 40
0.019077269866636
 40
0.0194696043507351
 40
0.0202720511162931
 40
0.0230354038652911
 40
0.0360117243677504
 40
0.0541972894086328
 40
0.0735805641819398
 40
0.1174295788136757
 40
0.1521493343668313
 40
0.1822741157292818
 40
0.2122953756967619
 40
0.2446934164049763
 40
0.2791500903773413
 40
0.4286800384668949
 40
0.5758139011566527
 40
0.7181630503302536
 40
0.8586091490573114
 40
1.0
 40
1.0
 40
1.0
 40
1.0
 10
706.2056727558304
 20
43.86631154028448
 30
0.0
 10
705.8132346889931
 20
43.77911534019047
 30
0.0
 10
705.3308685944835
 20
43.67193794316954
 30
0.0
 10
704.8109021130343
 20
43.63931029557927
 30
0.0
 10
704.677484354014
 20
43.65679836621212
 30
0.0
 10
704.627785473692
 20
43.67203939104375
 30
0.0
 10
704.5975052593205
 20
43.69062978308153
 30
0.0
 10
704.5808463809941
 20
43.70891666579785
 30
0.0
 10
704.5715772435756
 20
43.73260735233403
 30
0.0
 10
704.5729208604434
 20
43.76211826847104
 30
0.0
 10
704.5894853085846
 20
43.80491309288265
 30
0.0
 10
704.6599082400635
 20
43.90129165240725
 30
0.0
 10
705.0449091983385
 20
44.21699931159967
 30
0.0
 10
705.9279249176819
 20
44.71874296475081
 30
0.0
 10
707.2624862316796
 20
45.42395089200929
 30
0.0
 10
709.435181881276
 20
46.51860794432466
 30
0.0
 10
712.0389022795125
 20
47.8543037613322
 30
0.0
 10
714.9221962797408
 20
49.34847218297927
 30
0.0
 10
717.4398371268838
 20
50.65028026050805
 30
0.0
 10
719.9106134722981
 20
51.89145159917413
 30
0.0
 10
722.5140692466076
 20
53.15621044364322
 30
0.0
 10
728.3565411841231
 20
55.92404965121361
 30
0.0
 10
737.381148230988
 20
59.980104460501
 30
0.0
 10
749.460142808203
 20
65.09457701798222
 30
0.0
 10
761.394514454166
 20
69.84677351923169
 30
0.0
 10
773.2454128764325
 20
74.33912181127184
 30
0.0
 10
781.1586146602211
 20
77.21748385635024
 30
0.0
 10
785.1284785662921
 20
78.66148919117838
 30
0.0
  0
CIRCLE
  5
13F
330
1F
100
AcDbEntity
  8
0
  6
Continuous
 62
     7
370
    25
100
AcDbCircle
 10
783.5058824605
 20
68.6146260548
 30
0.0
 40
1.999999999999939
  0
CIRCLE
  5
140
330
1F
100
AcDbEntity
  8
0
  6
Continuous
 62
     7
370
    25
100
AcDbCircle
 10
762.4398013857
 20
65.8407689224
 30
0.0
 40
1.999999999999937
  0
CIRCLE
  5
141
330
1F
100
AcDbEntity
  8
0
  6
Continuous
 62
     7
370
    25
100
AcDbCircle
 10
731.9786183912
 20
53.042660993
 30
0.0
 40
2.000000000000051
  0
LINE
  5
142
330
1F
100
AcDbEntity
  8
0
  6
Continuous
 62
     7
370
    25
100
AcDbLine
 10
0.0398418729
 20
0.0644926707
 30
0.0
 11
1016.0398418729
 21
0.0644926707
 31
0.0
  0
LINE
  5
143
330
1F
100
AcDbEntity
  8
0
  6
Continuous
 62
     7
370
    25
100
AcDbLine
 10
0.0398418729
 20
152.4644926707
 30
0.0
 11
0.0398418729
 21
0.0644926707
 31
0.0
  0
LINE
  5
144
330
1F
100
AcDbEntity
  8
0
  6
Continuous
 62
     7
370
    25
100
AcDbLine
 10
1016.0398418729
 20
152.4644926707
 30
0.0
 11
0.0398418729
 21
152.4644926707
 31
0.0
  0
LINE
  5
145
330
1F
100
AcDbEntity
  8
0
  6
Continuous
 62
     7
370
    25
100
AcDbLine
 10
1016.0398418729
 20
0.0644926707
 30
0.0
 11
1016.0398418729
 21
152.4644926707
 31
0.0
  0
MTEXT
  5
147
330
1F
100
AcDbEntity
  8
0
  6
Continuous
 62
     7
100
AcDbMText
 10
0.0
 20
7.3534328773
 30
0.0
 40
2.63652
 41
0.0
 71
     1
 72
     1
  1
SOLIDWORKS Educational Product.
  7
SLDTEXTSTYLE0
 73
     1
 44
1.0
  0
MTEXT
  5
148
330
1F
100
AcDbEntity
  8
0
  6
Continuous
 62
     7
100
AcDbMText
 10
0.0
 20
3.3986528773
 30
0.0
 40
2.63652
 41
0.0
 71
     1
 72
     1
  1
For Instructional Use Only.
  7
SLDTEXTSTYLE0
 73
     1
 44
1.0
  0
ENDSEC
  0
SECTION
  2
OBJECTS
  0
DICTIONARY
  5
C
330
0
100
AcDbDictionary
281
     1
  3
ACAD_GROUP
350
D
  3
ACAD_LAYOUT
350
1A
  3
ACAD_MLINESTYLE
350
17
  3
ACAD_PLOTSETTINGS
350
19
  3
ACAD_PLOTSTYLENAME
350
E
  3
ACAD_SCALELIST
350
47
  3
DWGPROPS
350
149
  0
DICTIONARY
  5
D
102
{ACAD_REACTORS
330
C
102
}
330
C
100
AcDbDictionary
281
     1
  0
DICTIONARY
  5
1A
102
{ACAD_REACTORS
330
C
102
}
330
C
100
AcDbDictionary
281
     1
  3
Layout1
350
1E
  3
Layout2
350
26
  3
Model
350
22
  0
DICTIONARY
  5
17
102
{ACAD_REACTORS
330
C
102
}
330
C
100
AcDbDictionary
281
     1
  3
Standard
350
18
  0
DICTIONARY
  5
19
102
{ACAD_REACTORS
330
C
102
}
330
C
100
AcDbDictionary
281
     1
  0
ACDBDICTIONARYWDFLT
  5
E
102
{ACAD_REACTORS
330
C
102
}
330
C
100
AcDbDictionary
281
     1
  3
Normal
350
F
100
AcDbDictionaryWithDefault
340
F
  0
DICTIONARY
  5
47
102
{ACAD_REACTORS
330
C
102
}
330
C
100
AcDbDictionary
281
     1
  3
A0
350
48
  3
A1
350
49
  3
A2
350
4A
  3
A3
350
4B
  3
A4
350
4C
  3
A5
350
4D
  3
A6
350
4E
  3
A7
350
4F
  3
A8
350
50
  3
A9
350
51
  3
B0
350
52
  3
B1
350
53
  3
B2
350
54
  3
B3
350
55
  3
B4
350
56
  3
B5
350
57
  3
B6
350
58
  0
XRECORD
  5
149
102
{ACAD_REACTORS
330
C
102
}
330
C
100
AcDbXrecord
280
     1
  1
DWGPROPS COOKIE
  2

  3

  4

  6

  7

  8
joshu
  9

300
=
301
=
302
=
303
=
304
=
305
=
306
=
307
=
308
=
309
=
 40
0.0
 41
2460357.165280555
 42
2460357.165280995
  1

 90
        0
  0
LAYOUT
  5
1E
102
{ACAD_REACTORS
330
1A
102
}
330
1A
100
AcDbPlotSettings
  1

  2
none_device
  4

  6

 40
0.0
 41
0.0
 42
0.0
 43
0.0
 44
0.0
 45
0.0
 46
0.0
 47
0.0
 48
0.0
 49
0.0
140
0.0
141
0.0
142
1.0
143
1.0
 70
   688
 72
     1
 73
     0
 74
     5
  7

 75
    16
147
1.0
148
0.0
149
0.0
100
AcDbLayout
  1
Layout1
 70
     1
 71
     1
 10
0.0
 20
0.0
 11
420.0
 21
297.0
 12
0.0
 22
0.0
 32
0.0
 14
1.0000000000E+20
 24
1.0000000000E+20
 34
1.0000000000E+20
 15
-1.0000000000E+20
 25
-1.0000000000E+20
 35
-1.0000000000E+20
146
0.0
 13
0.0
 23
0.0
 33
0.0
 16
1.0
 26
0.0
 36
0.0
 17
0.0
 27
1.0
 37
0.0
 76
     0
330
1B
  0
LAYOUT
  5
26
102
{ACAD_REACTORS
330
1A
102
}
330
1A
100
AcDbPlotSettings
  1

  2
none_device
  4

  6

 40
0.0
 41
0.0
 42
0.0
 43
0.0
 44
0.0
 45
0.0
 46
0.0
 47
0.0
 48
0.0
 49
0.0
140
0.0
141
0.0
142
1.0
143
1.0
 70
   688
 72
     1
 73
     0
 74
     5
  7

 75
    16
147
1.0
148
0.0
149
0.0
100
AcDbLayout
  1
Layout2
 70
     1
 71
     2
 10
0.0
 20
0.0
 11
0.0
 21
0.0
 12
0.0
 22
0.0
 32
0.0
 14
0.0
 24
0.0
 34
0.0
 15
0.0
 25
0.0
 35
0.0
146
0.0
 13
0.0
 23
0.0
 33
0.0
 16
1.0
 26
0.0
 36
0.0
 17
0.0
 27
1.0
 37
0.0
 76
     0
330
23
  0
LAYOUT
  5
22
102
{ACAD_REACTORS
330
1A
102
}
330
1A
100
AcDbPlotSettings
  1

  2
none_device
  4
Letter_(8.50_x_11.00_Inches)
  6

 40
6.35
 41
6.35
 42
6.35000508
 43
6.35000508
 44
215.9
 45
279.4
 46
0.0
 47
0.0
 48
0.0
 49
0.0
140
0.0
141
0.0
142
1.0
143
1.0
 70
  1712
 72
     1
 73
     0
 74
     0
  7

 75
     0
147
1.0
148
0.0
149
0.0
100
AcDbLayout
  1
Model
 70
     1
 71
     0
 10
0.0
 20
0.0
 11
1016.0
 21
152.4
 12
0.0
 22
0.0
 32
0.0
 14
0.0
 24
0.0
 34
0.0
 15
1016.0
 25
152.4
 35
0.0
146
0.0
 13
0.0
 23
0.0
 33
0.0
 16
1.0
 26
0.0
 36
0.0
 17
0.0
 27
1.0
 37
0.0
 76
     0
330
1F
331
29
  0
MLINESTYLE
  5
18
102
{ACAD_REACTORS
330
17
102
}
330
17
100
AcDbMlineStyle
  2
Standard
 70
     0
  3

 62
   256
 51
90.0
 52
90.0
 71
     2
 49
0.5
 62
   256
  6
BYLAYER
 49
-0.5
 62
   256
  6
BYLAYER
  0
ACDBPLACEHOLDER
  5
F
102
{ACAD_REACTORS
330
E
102
}
330
E
  0
SCALE
  5
48
102
{ACAD_REACTORS
330
47
102
}
330
47
100
AcDbScale
 70
     0
300
1:1
140
1.0
141
1.0
290
     1
  0
SCALE
  5
49
102
{ACAD_REACTORS
330
47
102
}
330
47
100
AcDbScale
 70
     0
300
1:2
140
1.0
141
2.0
290
     0
  0
SCALE
  5
4A
102
{ACAD_REACTORS
330
47
102
}
330
47
100
AcDbScale
 70
     0
300
1:4
140
1.0
141
4.0
290
     0
  0
SCALE
  5
4B
102
{ACAD_REACTORS
330
47
102
}
330
47
100
AcDbScale
 70
     0
300
1:5
140
1.0
141
5.0
290
     0
  0
SCALE
  5
4C
102
{ACAD_REACTORS
330
47
102
}
330
47
100
AcDbScale
 70
     0
300
1:8
140
1.0
141
8.0
290
     0
  0
SCALE
  5
4D
102
{ACAD_REACTORS
330
47
102
}
330
47
100
AcDbScale
 70
     0
300
1:10
140
1.0
141
10.0
290
     0
  0
SCALE
  5
4E
102
{ACAD_REACTORS
330
47
102
}
330
47
100
AcDbScale
 70
     0
300
1:16
140
1.0
141
16.0
290
     0
  0
SCALE
  5
4F
102
{ACAD_REACTORS
330
47
102
}
330
47
100
AcDbScale
 70
     0
300
1:20
140
1.0
141
20.0
290
     0
  0
SCALE
  5
50
102
{ACAD_REACTORS
330
47
102
}
330
47
100
AcDbScale
 70
     0
300
1:30
140
1.0
141
30.0
290
     0
  0
SCALE
  5
51
102
{ACAD_REACTORS
330
47
102
}
330
47
100
AcDbScale
 70
     0
300
1:40
140
1.0
141
40.0
290
     0
  0
SCALE
  5
52
102
{ACAD_REACTORS
330
47
102
}
330
47
100
AcDbScale
 70
     0
300
1:50
140
1.0
141
50.0
290
     0
  0
SCALE
  5
53
102
{ACAD_REACTORS
330
47
102
}
330
47
100
AcDbScale
 70
     0
300
1:100
140
1.0
141
100.0
290
     0
  0
SCALE
  5
54
102
{ACAD_REACTORS
330
47
102
}
330
47
100
AcDbScale
 70
     0
300
2:1
140
2.0
141
1.0
290
     0
  0
SCALE
  5
55
102
{ACAD_REACTORS
330
47
102
}
330
47
100
AcDbScale
 70
     0
300
4:1
140
4.0
141
1.0
290
     0
  0
SCALE
  5
56
102
{ACAD_REACTORS
330
47
102
}
330
47
100
AcDbScale
 70
     0
300
8:1
140
8.0
141
1.0
290
     0
  0
SCALE
  5
57
102
{ACAD_REACTORS
330
47
102
}
330
47
100
AcDbScale
 70
     0
300
10:1
140
10.0
141
1.0
290
     0
  0
SCALE
  5
58
102
{ACAD_REACTORS
330
47
102
}
330
47
100
AcDbScale
 70
     0
300
100:1
140
100.0
141
1.0
290
     0
  0
ENDSEC
  0
EOF
