  0
SECTION
  2
HEADER
  9
$ACADVER
  1
AC1015
  9
$ACADMAINTVER
 70
     6
  9
$DWGCODEPAGE
  3
ANSI_1252
  9
$INSBASE
 10
0.0
 20
0.0
 30
0.0
  9
$EXTMIN
 10
0.0
 20
0.0
 30
0.0
  9
$EXTMAX
 10
1016.0
 20
152.4
 30
0.0
  9
$LIMMIN
 10
0.0
 20
0.0
  9
$LIMMAX
 10
1016.0
 20
152.4
  9
$ORTHOMODE
 70
     0
  9
$REGENMODE
 70
     1
  9
$FILLMODE
 70
     1
  9
$QTEXTMODE
 70
     0
  9
$MIRRTEXT
 70
     1
  9
$LTSCALE
 40
1.0
  9
$ATTMODE
 70
     1
  9
$TEXTSIZE
 40
3.5
  9
$TRACEWID
 40
1.0
  9
$TEXTSTYLE
  7
Standard
  9
$CLAYER
  8
0
  9
$CELTYPE
  6
ByLayer
  9
$CECOLOR
 62
   256
  9
$CELTSCALE
 40
1.0
  9
$DISPSILH
 70
     0
  9
$DIMSCALE
 40
1.0
  9
$DIMASZ
 40
3.556
  9
$DIMEXO
 40
1.0
  9
$DIMDLI
 40
3.75
  9
$DIMRND
 40
0.0
  9
$DIMDLE
 40
0.0
  9
$DIMEXE
 40
1.0
  9
$DIMTP
 40
0.0
  9
$DIMTM
 40
0.0
  9
$DIMTXT
 40
3.5
  9
$DIMCEN
 40
2.5
  9
$DIMTSZ
 40
0.0
  9
$DIMTOL
 70
     0
  9
$DIMLIM
 70
     0
  9
$DIMTIH
 70
     1
  9
$DIMTOH
 70
     1
  9
$DIMSE1
 70
     0
  9
$DIMSE2
 70
     0
  9
$DIMTAD
 70
     1
  9
$DIMZIN
 70
     1
  9
$DIMBLK
  1

  9
$DIMASO
 70
     1
  9
$DIMSHO
 70
     1
  9
$DIMPOST
  1

  9
$DIMAPOST
  1

  9
$DIMALT
 70
     0
  9
$DIMALTD
 70
     3
  9
$DIMALTF
 40
0.0393700787
  9
$DIMLFAC
 40
5.0
  9
$DIMTOFL
 70
     1
  9
$DIMTVP
 40
0.0
  9
$DIMTIX
 70
     0
  9
$DIMSOXD
 70
     0
  9
$DIMSAH
 70
     0
  9
$DIMBLK1
  1

  9
$DIMBLK2
  1

  9
$DIMSTYLE
  2
ISO-25
  9
$DIMCLRD
 70
     0
  9
$DIMCLRE
 70
     0
  9
$DIMCLRT
 70
     0
  9
$DIMTFAC
 40
1.0
  9
$DIMGAP
 40
1.524
  9
$DIMJUST
 70
     0
  9
$DIMSD1
 70
     0
  9
$DIMSD2
 70
     0
  9
$DIMTOLJ
 70
     0
  9
$DIMTZIN
 70
     1
  9
$DIMALTZ
 70
     0
  9
$DIMALTTZ
 70
     0
  9
$DIMUPT
 70
     0
  9
$DIMDEC
 70
     2
  9
$DIMTDEC
 70
     2
  9
$DIMALTU
 70
     2
  9
$DIMALTTD
 70
     3
  9
$DIMTXSTY
  7
Standard
  9
$DIMAUNIT
 70
     0
  9
$DIMADEC
 70
     2
  9
$DIMALTRND
 40
0.0
  9
$DIMAZIN
 70
     0
  9
$DIMDSEP
 70
    44
  9
$DIMATFIT
 70
     3
  9
$DIMFRAC
 70
     0
  9
$DIMLDRBLK
  1

  9
$DIMLUNIT
 70
     2
  9
$DIMLWD
 70
    -2
  9
$DIMLWE
 70
    -2
  9
$DIMTMOVE
 70
     0
  9
$LUNITS
 70
     2
  9
$LUPREC
 70
     2
  9
$SKETCHINC
 40
1.0
  9
$FILLETRAD
 40
0.0
  9
$AUNITS
 70
     0
  9
$AUPREC
 70
     2
  9
$MENU
  1
.
  9
$ELEVATION
 40
0.0
  9
$PELEVATION
 40
0.0
  9
$THICKNESS
 40
0.0
  9
$LIMCHECK
 70
     0
  9
$CHAMFERA
 40
0.0
  9
$CHAMFERB
 40
0.0
  9
$CHAMFERC
 40
0.0
  9
$CHAMFERD
 40
0.0
  9
$SKPOLY
 70
     0
  9
$TDCREATE
 40
2460356.530371458
  9
$TDUCREATE
 40
2460356.738704792
  9
$TDUPDATE
 40
2460356.530371921
  9
$TDUUPDATE
 40
2460356.738705255
  9
$TDINDWG
 40
0.0000000116
  9
$TDUSRTIMER
 40
0.0000000116
  9
$USRTIMER
 70
     1
  9
$ANGBASE
 50
0.0
  9
$ANGDIR
 70
     0
  9
$PDMODE
 70
     0
  9
$PDSIZE
 40
-1.0
  9
$PLINEWID
 40
0.0
  9
$SPLFRAME
 70
     0
  9
$SPLINETYPE
 70
     6
  9
$SPLINESEGS
 70
     8
  9
$HANDSEED
  5
157
  9
$SURFTAB1
 70
     6
  9
$SURFTAB2
 70
     6
  9
$SURFTYPE
 70
     6
  9
$SURFU
 70
     6
  9
$SURFV
 70
     6
  9
$UCSBASE
  2

  9
$UCSNAME
  2

  9
$UCSORG
 10
0.0
 20
0.0
 30
0.0
  9
$UCSXDIR
 10
1.0
 20
0.0
 30
0.0
  9
$UCSYDIR
 10
0.0
 20
1.0
 30
0.0
  9
$UCSORTHOREF
  2

  9
$UCSORTHOVIEW
 70
     0
  9
$UCSORGTOP
 10
0.0
 20
0.0
 30
0.0
  9
$UCSORGBOTTOM
 10
0.0
 20
0.0
 30
0.0
  9
$UCSORGLEFT
 10
0.0
 20
0.0
 30
0.0
  9
$UCSORGRIGHT
 10
0.0
 20
0.0
 30
0.0
  9
$UCSORGFRONT
 10
0.0
 20
0.0
 30
0.0
  9
$UCSORGBACK
 10
0.0
 20
0.0
 30
0.0
  9
$PUCSBASE
  2

  9
$PUCSNAME
  2

  9
$PUCSORG
 10
0.0
 20
0.0
 30
0.0
  9
$PUCSXDIR
 10
1.0
 20
0.0
 30
0.0
  9
$PUCSYDIR
 10
0.0
 20
1.0
 30
0.0
  9
$PUCSORTHOREF
  2

  9
$PUCSORTHOVIEW
 70
     0
  9
$PUCSORGTOP
 10
0.0
 20
0.0
 30
0.0
  9
$PUCSORGBOTTOM
 10
0.0
 20
0.0
 30
0.0
  9
$PUCSORGLEFT
 10
0.0
 20
0.0
 30
0.0
  9
$PUCSORGRIGHT
 10
0.0
 20
0.0
 30
0.0
  9
$PUCSORGFRONT
 10
0.0
 20
0.0
 30
0.0
  9
$PUCSORGBACK
 10
0.0
 20
0.0
 30
0.0
  9
$USERI1
 70
     0
  9
$USERI2
 70
     0
  9
$USERI3
 70
     0
  9
$USERI4
 70
     0
  9
$USERI5
 70
     0
  9
$USERR1
 40
0.0
  9
$USERR2
 40
0.0
  9
$USERR3
 40
0.0
  9
$USERR4
 40
0.0
  9
$USERR5
 40
0.0
  9
$WORLDVIEW
 70
     1
  9
$SHADEDGE
 70
     3
  9
$SHADEDIF
 70
    70
  9
$TILEMODE
 70
     1
  9
$MAXACTVP
 70
    64
  9
$PINSBASE
 10
0.0
 20
0.0
 30
0.0
  9
$PLIMCHECK
 70
     0
  9
$PEXTMIN
 10
1.0000000000E+20
 20
1.0000000000E+20
 30
1.0000000000E+20
  9
$PEXTMAX
 10
-1.0000000000E+20
 20
-1.0000000000E+20
 30
-1.0000000000E+20
  9
$PLIMMIN
 10
0.0
 20
0.0
  9
$PLIMMAX
 10
420.0
 20
297.0
  9
$UNITMODE
 70
     0
  9
$VISRETAIN
 70
     1
  9
$PLINEGEN
 70
     0
  9
$PSLTSCALE
 70
     1
  9
$TREEDEPTH
 70
  3020
  9
$CMLSTYLE
  2
Standard
  9
$CMLJUST
 70
     0
  9
$CMLSCALE
 40
20.0
  9
$PROXYGRAPHICS
 70
     1
  9
$MEASUREMENT
 70
     1
  9
$CELWEIGHT
370
    -1
  9
$ENDCAPS
280
     0
  9
$JOINSTYLE
280
     0
  9
$LWDISPLAY
290
     1
  9
$INSUNITS
 70
     4
  9
$HYPERLINKBASE
  1

  9
$STYLESHEET
  1

  9
$XEDIT
290
     1
  9
$CEPSNTYPE
380
     0
  9
$PSTYLEMODE
290
     1
  9
$FINGERPRINTGUID
  2
{32de0e02-5b59-40c8-a055-2dc010f82ece}
  9
$VERSIONGUID
  2
{FAEB1C32-E019-11D5-929B-00C0DF256EC4}
  9
$EXTNAMES
290
     1
  9
$PSVPSCALE
 40
0.0
  9
$OLESTARTUP
290
     0
  0
ENDSEC
  0
SECTION
  2
CLASSES
  0
CLASS
  1
ACDBDICTIONARYWDFLT
  2
AcDbDictionaryWithDefault
  3
ObjectDBX Classes
 90
        0
280
     0
281
     0
  0
CLASS
  1
VISUALSTYLE
  2
AcDbVisualStyle
  3
ObjectDBX Classes
 90
     4095
280
     0
281
     0
  0
CLASS
  1
MATERIAL
  2
AcDbMaterial
  3
ObjectDBX Classes
 90
     1153
280
     0
281
     0
  0
CLASS
  1
SCALE
  2
AcDbScale
  3
ObjectDBX Classes
 90
     1153
280
     0
281
     0
  0
CLASS
  1
TABLESTYLE
  2
AcDbTableStyle
  3
ObjectDBX Classes
 90
     4095
280
     0
281
     0
  0
CLASS
  1
MLEADERSTYLE
  2
AcDbMLeaderStyle
  3
ACDB_MLEADERSTYLE_CLASS
 90
     4095
280
     0
281
     0
  0
CLASS
  1
SUN
  2
AcDbSun
  3
SCENEOE
 90
     1153
280
     0
281
     0
  0
CLASS
  1
ACDBPLACEHOLDER
  2
AcDbPlaceHolder
  3
ObjectDBX Classes
 90
        0
280
     0
281
     0
  0
CLASS
  1
LAYOUT
  2
AcDbLayout
  3
ObjectDBX Classes
 90
        0
280
     0
281
     0
  0
ENDSEC
  0
SECTION
  2
TABLES
  0
TABLE
  2
VPORT
  5
8
330
0
100
AcDbSymbolTable
 70
     1
  0
VPORT
  5
29
330
8
100
AcDbSymbolTableRecord
100
AcDbViewportTableRecord
  2
*Active
 70
     0
 10
0.0
 20
0.0
 11
1.0
 21
1.0
 12
508.0
 22
76.2
 13
0.0
 23
0.0
 14
10.0
 24
10.0
 15
10.0
 25
10.0
 16
0.0
 26
0.0
 36
1.0
 17
0.0
 27
0.0
 37
0.0
 40
152.4
 41
6.6666666667
 42
50.0
 43
0.0
 44
0.0
 50
0.0
 51
0.0
 71
     0
 72
  2000
 73
     1
 74
     3
 75
     0
 76
     0
 77
     0
 78
     0
281
     0
 65
     1
110
0.0
120
0.0
130
0.0
111
1.0
121
0.0
131
0.0
112
0.0
122
1.0
132
0.0
 79
     0
146
0.0
  0
ENDTAB
  0
TABLE
  2
LTYPE
  5
5
330
0
100
AcDbSymbolTable
 70
     6
  0
LTYPE
  5
14
330
5
100
AcDbSymbolTableRecord
100
AcDbLinetypeTableRecord
  2
ByBlock
 70
     0
  3

 72
    65
 73
     0
 40
0.0
  0
LTYPE
  5
15
330
5
100
AcDbSymbolTableRecord
100
AcDbLinetypeTableRecord
  2
ByLayer
 70
     0
  3

 72
    65
 73
     0
 40
0.0
  0
LTYPE
  5
16
330
5
100
AcDbSymbolTableRecord
100
AcDbLinetypeTableRecord
  2
Continuous
 70
     0
  3
Solid line
 72
    65
 73
     0
 40
0.0
  0
LTYPE
  5
5E
330
5
100
AcDbSymbolTableRecord
100
AcDbLinetypeTableRecord
  2
HIDDEN
 70
     0
  3
Hidden __ __ __ __ __ __ __ __ __ __ __ __ __ __
 72
    65
 73
     2
 40
1.905
 49
1.27
 74
     0
 49
-0.635
 74
     0
  0
LTYPE
  5
5F
330
5
100
AcDbSymbolTableRecord
100
AcDbLinetypeTableRecord
  2
PHANTOM
 70
     0
  3
Phantom ______  __  __  ______  __  __  ______
 72
    65
 73
     6
 40
12.7
 49
6.35
 74
     0
 49
-1.27
 74
     0
 49
1.27
 74
     0
 49
-1.27
 74
     0
 49
1.27
 74
     0
 49
-1.27
 74
     0
  0
LTYPE
  5
60
330
5
100
AcDbSymbolTableRecord
100
AcDbLinetypeTableRecord
  2
CENTER
 70
     0
  3
Center ____ _ ____ _ ____ _ ____ _ ____ _ ____
 72
    65
 73
     4
 40
10.16
 49
6.35
 74
     0
 49
-1.27
 74
     0
 49
1.27
 74
     0
 49
-1.27
 74
     0
  0
LTYPE
  5
61
330
5
100
AcDbSymbolTableRecord
100
AcDbLinetypeTableRecord
  2
CENTERX2
 70
     0
  3
Center (2x) ________  __  ________  __  _____
 72
    65
 73
     4
 40
20.32
 49
12.7
 74
     0
 49
-2.54
 74
     0
 49
2.54
 74
     0
 49
-2.54
 74
     0
  0
LTYPE
  5
62
330
5
100
AcDbSymbolTableRecord
100
AcDbLinetypeTableRecord
  2
DOT2
 70
     0
  3
Dot (.5x) ........................................
 72
    65
 73
     2
 40
0.635
 49
0.0
 74
     0
 49
-0.635
 74
     0
  0
ENDTAB
  0
TABLE
  2
LAYER
  5
2
330
0
100
AcDbSymbolTable
 70
     1
  0
LAYER
  5
10
330
2
100
AcDbSymbolTableRecord
100
AcDbLayerTableRecord
  2
0
 70
     0
 62
     7
  6
Continuous
370
    -3
390
F
  0
ENDTAB
  0
TABLE
  2
STYLE
  5
3
330
0
100
AcDbSymbolTable
 70
     2
  0
STYLE
  5
11
330
3
100
AcDbSymbolTableRecord
100
AcDbTextStyleTableRecord
  2
Standard
 70
     0
 40
0.0
 41
1.0
 50
0.0
 71
     0
 42
3.5
  3
txt
  4

  0
STYLE
  5
153
330
3
100
AcDbSymbolTableRecord
100
AcDbTextStyleTableRecord
  2
SLDTEXTSTYLE0
 70
     0
 40
0.0
 41
0.7
 50
0.0
 71
     0
 42
3.5
  3
TXT
  4

  0
ENDTAB
  0
TABLE
  2
VIEW
  5
6
330
0
100
AcDbSymbolTable
 70
     0
  0
ENDTAB
  0
TABLE
  2
UCS
  5
7
330
0
100
AcDbSymbolTable
 70
     0
  0
ENDTAB
  0
TABLE
  2
APPID
  5
9
330
0
100
AcDbSymbolTable
 70
     1
  0
APPID
  5
12
330
9
100
AcDbSymbolTableRecord
100
AcDbRegAppTableRecord
  2
ACAD
 70
     0
  0
ENDTAB
  0
TABLE
  2
DIMSTYLE
  5
A
330
0
100
AcDbSymbolTable
 70
     1
100
AcDbDimStyleTable
  0
DIMSTYLE
105
27
330
A
100
AcDbSymbolTableRecord
100
AcDbDimStyleTableRecord
  2
ISO-25
 70
     0
 41
2.5
 42
0.625
 43
3.75
 44
1.25
 73
     0
 74
     0
 77
     1
 78
     8
140
2.5
141
2.5
143
0.0393700787
147
0.625
171
     3
172
     1
178
     0
271
     2
272
     2
274
     3
278
    44
283
     0
284
     8
340
11
  0
ENDTAB
  0
TABLE
  2
BLOCK_RECORD
  5
1
330
0
100
AcDbSymbolTable
 70
     1
  0
BLOCK_RECORD
  5
1F
330
1
100
AcDbSymbolTableRecord
100
AcDbBlockTableRecord
  2
*Model_Space
340
22
  0
BLOCK_RECORD
  5
1B
330
1
100
AcDbSymbolTableRecord
100
AcDbBlockTableRecord
  2
*Paper_Space
340
1E
  0
BLOCK_RECORD
  5
23
330
1
100
AcDbSymbolTableRecord
100
AcDbBlockTableRecord
  2
*Paper_Space0
340
26
  0
ENDTAB
  0
ENDSEC
  0
SECTION
  2
BLOCKS
  0
BLOCK
  5
20
330
1F
100
AcDbEntity
  8
0
100
AcDbBlockBegin
  2
*Model_Space
 70
     0
 10
0.0
 20
0.0
 30
0.0
  3
*Model_Space
  1

  0
ENDBLK
  5
21
330
1F
100
AcDbEntity
  8
0
100
AcDbBlockEnd
  0
BLOCK
  5
1C
330
1B
100
AcDbEntity
 67
     1
  8
0
100
AcDbBlockBegin
  2
*Paper_Space
 70
     0
 10
0.0
 20
0.0
 30
0.0
  3
*Paper_Space
  1

  0
ENDBLK
  5
1D
330
1B
100
AcDbEntity
 67
     1
  8
0
100
AcDbBlockEnd
  0
BLOCK
  5
24
330
23
100
AcDbEntity
  8
0
100
AcDbBlockBegin
  2
*Paper_Space0
 70
     0
 10
0.0
 20
0.0
 30
0.0
  3
*Paper_Space0
  1

  0
ENDBLK
  5
25
330
23
100
AcDbEntity
  8
0
100
AcDbBlockEnd
  0
ENDSEC
  0
SECTION
  2
ENTITIES
  0
LINE
  5
63
330
1F
100
AcDbEntity
  8
0
  6
Continuous
 62
     7
370
    25
100
AcDbLine
 10
1015.9358642484
 20
152.3773112746
 30
0.0
 11
-0.0641357516
 21
152.3773112746
 31
0.0
  0
LINE
  5
64
330
1F
100
AcDbEntity
  8
0
  6
Continuous
 62
     7
370
    25
100
AcDbLine
 10
1015.9358642484
 20
-0.0226887254
 30
0.0
 11
1015.9358642484
 21
152.3773112746
 31
0.0
  0
LINE
  5
65
330
1F
100
AcDbEntity
  8
0
  6
Continuous
 62
     7
370
    25
100
AcDbLine
 10
-0.0641357516
 20
152.3773112746
 30
0.0
 11
-0.0641357516
 21
-0.0226887254
 31
0.0
  0
LINE
  5
66
330
1F
100
AcDbEntity
  8
0
  6
Continuous
 62
     7
370
    25
100
AcDbLine
 10
-0.0641357516
 20
-0.0226887254
 30
0.0
 11
1015.9358642484
 21
-0.0226887254
 31
0.0
  0
CIRCLE
  5
67
330
1F
100
AcDbEntity
  8
0
  6
Continuous
 62
     7
370
    25
100
AcDbCircle
 10
936.2723011057
 20
136.3329559031
 30
0.0
 40
1.999999999999959
  0
SPLINE
  5
68
330
1F
100
AcDbEntity
  8
0
  6
Continuous
 62
     7
370
    25
100
AcDbSpline
210
0.0
220
0.0
230
1.0
 70
     8
 71
     3
 72
     9
 73
     5
 74
     0
 42
0.00000001
 43
0.00000001
 40
0.0
 40
0.0
 40
0.0
 40
0.0
 40
0.5600102078885356
 40
1.0
 40
1.0
 40
1.0
 40
1.0
 10
957.4297867092436
 20
122.885217672175
 30
0.0
 10
955.8186714135884
 20
123.2683665011841
 30
0.0
 10
952.9417322561224
 20
123.9525483671785
 30
0.0
 10
950.068689578007
 20
124.6529043038536
 30
0.0
 10
948.8045801273357
 20
124.9610537668353
 30
0.0
  0
SPLINE
  5
69
330
1F
100
AcDbEntity
  8
0
  6
Continuous
 62
     7
370
    25
100
AcDbSpline
210
0.0
220
0.0
230
1.0
 70
     8
 71
     3
 72
    10
 73
     6
 74
     0
 42
0.00000001
 43
0.00000001
 40
0.0
 40
0.0
 40
0.0
 40
0.0
 40
0.2799885750701281
 40
0.559988583692677
 40
1.0
 40
1.0
 40
1.0
 40
1.0
 10
948.8045801273357
 20
124.9610537668353
 30
0.0
 10
941.58900199197
 20
126.7653606457612
 30
0.0
 10
927.1575510674629
 20
130.3740480838953
 30
0.0
 10
901.5021341499507
 20
137.2657092914426
 30
0.0
 10
883.0708969825461
 20
142.3750940325242
 30
0.0
 10
871.8072496437337
 20
145.4975272864149
 30
0.0
  0
SPLINE
  5
6A
330
1F
100
AcDbEntity
  8
0
  6
Continuous
 62
     7
370
    25
100
AcDbSpline
210
0.0
220
0.0
230
1.0
 70
     8
 71
     3
 72
     9
 73
     5
 74
     0
 42
0.00000001
 43
0.00000001
 40
0.0
 40
0.0
 40
0.0
 40
0.0
 40
0.5600161990386042
 40
1.0
 40
1.0
 40
1.0
 40
1.0
 10
871.8072496437337
 20
145.4975272864149
 30
0.0
 10
886.6832962860537
 20
145.3435378303251
 30
0.0
 10
913.246896888783
 20
145.0685646128463
 30
0.0
 10
939.7961100190569
 20
144.1609590470554
 30
0.0
 10
951.4773337246489
 20
143.761627300445
 30
0.0
  0
SPLINE
  5
6B
330
1F
100
AcDbEntity
  8
0
  6
Continuous
 62
     7
370
    25
100
AcDbSpline
210
0.0
220
0.0
230
1.0
 70
     8
 71
     3
 72
     9
 73
     5
 74
     0
 42
0.00000001
 43
0.00000001
 40
0.0
 40
0.0
 40
0.0
 40
0.0
 40
0.5599893578455674
 40
1.0
 40
1.0
 40
1.0
 40
1.0
 10
951.4773337246489
 20
143.761627300445
 30
0.0
 10
953.1317506954184
 20
143.6895439985044
 30
0.0
 10
956.0861228590869
 20
143.5608213702425
 30
0.0
 10
959.0397186018931
 20
143.4154067303313
 30
0.0
 10
960.3393321613498
 20
143.3514227412454
 30
0.0
  0
ARC
  5
6C
330
1F
100
AcDbEntity
  8
0
  6
Continuous
 62
     7
370
    25
100
AcDbCircle
 10
959.9578615094
 20
135.7409772785
 30
0.0
 40
7.620000000000067
100
AcDbArc
 50
351.9088545669
 51
87.1304726862
  0
LINE
  5
6D
330
1F
100
AcDbEntity
  8
0
  6
Continuous
 62
     7
370
    25
100
AcDbLine
 10
966.7285637196
 20
129.2279484769
 30
0.0
 11
967.5020076171
 21
134.6684757608
 31
0.0
  0
ARC
  5
6E
330
1F
100
AcDbEntity
  8
0
  6
Continuous
 62
     7
370
    25
100
AcDbCircle
 10
959.1844176119
 20
130.3004499946
 30
0.0
 40
7.62000000000018
100
AcDbArc
 50
256.6872364476
 51
351.9088545669
  0
CIRCLE
  5
6F
330
1F
100
AcDbEntity
  8
0
  6
Continuous
 62
     7
370
    25
100
AcDbCircle
 10
959.4731217629
 20
133.0346607641
 30
0.0
 40
1.98437500000001
  0
CIRCLE
  5
70
330
1F
100
AcDbEntity
  8
0
  6
Continuous
 62
     7
370
    25
100
AcDbCircle
 10
899.4691187054
 20
141.5650217216
 30
0.0
 40
1.999999999999955
  0
CIRCLE
  5
71
330
1F
100
AcDbEntity
  8
0
  6
Continuous
 62
     7
370
    25
100
AcDbCircle
 10
697.2723011057
 20
136.3329559031
 30
0.0
 40
2.000000000000068
  0
SPLINE
  5
72
330
1F
100
AcDbEntity
  8
0
  6
Continuous
 62
     7
370
    25
100
AcDbSpline
210
0.0
220
0.0
230
1.0
 70
     8
 71
     3
 72
     9
 73
     5
 74
     0
 42
0.00000001
 43
0.00000001
 40
0.0
 40
0.0
 40
0.0
 40
0.0
 40
0.5600102078885356
 40
1.0
 40
1.0
 40
1.0
 40
1.0
 10
718.4297867092436
 20
122.885217672175
 30
0.0
 10
716.8186714135884
 20
123.2683665011841
 30
0.0
 10
713.9417322561224
 20
123.9525483671785
 30
0.0
 10
711.0686895780069
 20
124.6529043038536
 30
0.0
 10
709.8045801273356
 20
124.9610537668353
 30
0.0
  0
SPLINE
  5
73
330
1F
100
AcDbEntity
  8
0
  6
Continuous
 62
     7
370
    25
100
AcDbSpline
210
0.0
220
0.0
230
1.0
 70
     8
 71
     3
 72
    10
 73
     6
 74
     0
 42
0.00000001
 43
0.00000001
 40
0.0
 40
0.0
 40
0.0
 40
0.0
 40
0.2799885750701285
 40
0.5599885836926771
 40
0.9999999999999999
 40
0.9999999999999999
 40
0.9999999999999999
 40
0.9999999999999999
 10
709.8045801273356
 20
124.9610537668353
 30
0.0
 10
702.58900199197
 20
126.7653606457612
 30
0.0
 10
688.1575510674629
 20
130.3740480838953
 30
0.0
 10
662.5021341499507
 20
137.2657092914426
 30
0.0
 10
644.0708969825462
 20
142.3750940325241
 30
0.0
 10
632.8072496437337
 20
145.4975272864149
 30
0.0
  0
SPLINE
  5
74
330
1F
100
AcDbEntity
  8
0
  6
Continuous
 62
     7
370
    25
100
AcDbSpline
210
0.0
220
0.0
230
1.0
 70
     8
 71
     3
 72
     9
 73
     5
 74
     0
 42
0.00000001
 43
0.00000001
 40
0.0
 40
0.0
 40
0.0
 40
0.0
 40
0.5600161990386036
 40
1.0
 40
1.0
 40
1.0
 40
1.0
 10
632.8072496437337
 20
145.4975272864149
 30
0.0
 10
647.6832962860537
 20
145.3435378303251
 30
0.0
 10
674.2468968887831
 20
145.0685646128462
 30
0.0
 10
700.796110019057
 20
144.1609590470553
 30
0.0
 10
712.4773337246489
 20
143.7616273004449
 30
0.0
  0
ARC
  5
75
330
1F
100
AcDbEntity
  8
0
  6
Continuous
 62
     7
370
    25
100
AcDbCircle
 10
720.9578615094
 20
135.7409772785
 30
0.0
 40
7.62000000000007
100
AcDbArc
 50
351.9088545669
 51
87.1304726862
  0
LINE
  5
76
330
1F
100
AcDbEntity
  8
0
  6
Continuous
 62
     7
370
    25
100
AcDbLine
 10
727.7285637196
 20
129.2279484769
 30
0.0
 11
728.5020076171
 21
134.6684757608
 31
0.0
  0
ARC
  5
77
330
1F
100
AcDbEntity
  8
0
  6
Continuous
 62
     7
370
    25
100
AcDbCircle
 10
720.1844176119
 20
130.3004499946
 30
0.0
 40
7.620000000000042
100
AcDbArc
 50
256.6872364476
 51
351.9088545669
  0
CIRCLE
  5
78
330
1F
100
AcDbEntity
  8
0
  6
Continuous
 62
     7
370
    25
100
AcDbCircle
 10
720.4731217629
 20
133.0346607641
 30
0.0
 40
1.98437500000001
  0
SPLINE
  5
79
330
1F
100
AcDbEntity
  8
0
  6
Continuous
 62
     7
370
    25
100
AcDbSpline
210
0.0
220
0.0
230
1.0
 70
     8
 71
     3
 72
     9
 73
     5
 74
     0
 42
0.00000001
 43
0.00000001
 40
0.0
 40
0.0
 40
0.0
 40
0.0
 40
0.5599893578455674
 40
1.0
 40
1.0
 40
1.0
 40
1.0
 10
712.477333724649
 20
143.761627300445
 30
0.0
 10
714.1317506954184
 20
143.6895439985044
 30
0.0
 10
717.0861228590869
 20
143.5608213702425
 30
0.0
 10
720.0397186018931
 20
143.4154067303313
 30
0.0
 10
721.3393321613498
 20
143.3514227412453
 30
0.0
  0
CIRCLE
  5
7A
330
1F
100
AcDbEntity
  8
0
  6
Continuous
 62
     7
370
    25
100
AcDbCircle
 10
660.4691187054
 20
141.5650217216
 30
0.0
 40
1.999999999999959
  0
CIRCLE
  5
7B
330
1F
100
AcDbEntity
  8
0
  6
Continuous
 62
     7
370
    25
100
AcDbCircle
 10
458.2723011057
 20
136.3329559031
 30
0.0
 40
2.000000000000071
  0
SPLINE
  5
7C
330
1F
100
AcDbEntity
  8
0
  6
Continuous
 62
     7
370
    25
100
AcDbSpline
210
0.0
220
0.0
230
1.0
 70
     8
 71
     3
 72
    10
 73
     6
 74
     0
 42
0.00000001
 43
0.00000001
 40
0.0
 40
0.0
 40
0.0
 40
0.0
 40
0.2799885750701286
 40
0.559988583692677
 40
0.9999999999999999
 40
0.9999999999999999
 40
0.9999999999999999
 40
0.9999999999999999
 10
470.8045801273357
 20
124.9610537668353
 30
0.0
 10
463.5890019919701
 20
126.7653606457611
 30
0.0
 10
449.1575510674629
 20
130.3740480838953
 30
0.0
 10
423.5021341499507
 20
137.2657092914426
 30
0.0
 10
405.0708969825462
 20
142.3750940325241
 30
0.0
 10
393.8072496437337
 20
145.4975272864149
 30
0.0
  0
SPLINE
  5
7D
330
1F
100
AcDbEntity
  8
0
  6
Continuous
 62
     7
370
    25
100
AcDbSpline
210
0.0
220
0.0
230
1.0
 70
     8
 71
     3
 72
     9
 73
     5
 74
     0
 42
0.00000001
 43
0.00000001
 40
0.0
 40
0.0
 40
0.0
 40
0.0
 40
0.5600161990386037
 40
1.0
 40
1.0
 40
1.0
 40
1.0
 10
393.8072496437337
 20
145.4975272864149
 30
0.0
 10
408.6832962860537
 20
145.343537830325
 30
0.0
 10
435.2468968887831
 20
145.0685646128462
 30
0.0
 10
461.7961100190569
 20
144.1609590470553
 30
0.0
 10
473.4773337246489
 20
143.7616273004449
 30
0.0
  0
SPLINE
  5
7E
330
1F
100
AcDbEntity
  8
0
  6
Continuous
 62
     7
370
    25
100
AcDbSpline
210
0.0
220
0.0
230
1.0
 70
     8
 71
     3
 72
     9
 73
     5
 74
     0
 42
0.00000001
 43
0.00000001
 40
0.0
 40
0.0
 40
0.0
 40
0.0
 40
0.5599893578455678
 40
1.0
 40
1.0
 40
1.0
 40
1.0
 10
473.4773337246489
 20
143.7616273004449
 30
0.0
 10
475.1317506954185
 20
143.6895439985043
 30
0.0
 10
478.0861228590869
 20
143.5608213702424
 30
0.0
 10
481.039718601893
 20
143.4154067303313
 30
0.0
 10
482.3393321613498
 20
143.3514227412453
 30
0.0
  0
ARC
  5
7F
330
1F
100
AcDbEntity
  8
0
  6
Continuous
 62
     7
370
    25
100
AcDbCircle
 10
481.1844176119
 20
130.3004499946
 30
0.0
 40
7.620000000000015
100
AcDbArc
 50
256.6872364476
 51
351.9088545669
  0
CIRCLE
  5
80
330
1F
100
AcDbEntity
  8
0
  6
Continuous
 62
     7
370
    25
100
AcDbCircle
 10
421.4691187054
 20
141.5650217216
 30
0.0
 40
1.999999999999955
  0
SPLINE
  5
81
330
1F
100
AcDbEntity
  8
0
  6
Continuous
 62
     7
370
    25
100
AcDbSpline
210
0.0
220
0.0
230
1.0
 70
     8
 71
     3
 72
     9
 73
     5
 74
     0
 42
0.00000001
 43
0.00000001
 40
0.0
 40
0.0
 40
0.0
 40
0.0
 40
0.5600102078885373
 40
1.0
 40
1.0
 40
1.0
 40
1.0
 10
479.4297867092436
 20
122.885217672175
 30
0.0
 10
477.8186714135883
 20
123.2683665011841
 30
0.0
 10
474.9417322561224
 20
123.9525483671785
 30
0.0
 10
472.068689578007
 20
124.6529043038536
 30
0.0
 10
470.8045801273357
 20
124.9610537668353
 30
0.0
  0
CIRCLE
  5
82
330
1F
100
AcDbEntity
  8
0
  6
Continuous
 62
     7
370
    25
100
AcDbCircle
 10
481.4731217629
 20
133.0346607641
 30
0.0
 40
1.984374999999954
  0
LINE
  5
83
330
1F
100
AcDbEntity
  8
0
  6
Continuous
 62
     7
370
    25
100
AcDbLine
 10
488.7285637196
 20
129.2279484769
 30
0.0
 11
489.5020076171
 21
134.6684757608
 31
0.0
  0
ARC
  5
84
330
1F
100
AcDbEntity
  8
0
  6
Continuous
 62
     7
370
    25
100
AcDbCircle
 10
481.9578615094
 20
135.7409772785
 30
0.0
 40
7.620000000000011
100
AcDbArc
 50
351.9088545669
 51
87.1304726862
  0
CIRCLE
  5
85
330
1F
100
AcDbEntity
  8
0
  6
Continuous
 62
     7
370
    25
100
AcDbCircle
 10
528.4816348629
 20
134.5398143007
 30
0.0
 40
1.999999999999975
  0
CIRCLE
  5
86
330
1F
100
AcDbEntity
  8
0
  6
Continuous
 62
     7
370
    25
100
AcDbCircle
 10
565.308961289
 20
139.59913993
 30
0.0
 40
1.999999999999979
  0
SPLINE
  5
87
330
1F
100
AcDbEntity
  8
0
  6
Continuous
 62
     7
370
    25
100
AcDbSpline
210
0.0
220
0.0
230
1.0
 70
     8
 71
     3
 72
     9
 73
     5
 74
     0
 42
0.00000001
 43
0.00000001
 40
0.0
 40
0.0
 40
0.0
 40
0.0
 40
0.560010207888537
 40
1.0
 40
1.0
 40
1.0
 40
1.0
 10
504.4477997712593
 20
141.6711277407468
 30
0.0
 10
506.1022258969105
 20
141.7444060856251
 30
0.0
 10
509.0565044124558
 20
141.8752578876922
 30
0.0
 10
512.0114704621449
 20
141.9894871024001
 30
0.0
 10
513.3116253600441
 20
142.0397467908325
 30
0.0
  0
SPLINE
  5
88
330
1F
100
AcDbEntity
  8
0
  6
Continuous
 62
     7
370
    25
100
AcDbSpline
210
0.0
220
0.0
230
1.0
 70
     8
 71
     3
 72
     9
 73
     5
 74
     0
 42
0.00000001
 43
0.00000001
 40
0.0
 40
0.0
 40
0.0
 40
0.0
 40
0.5600161990386037
 40
0.9999999999999999
 40
0.9999999999999999
 40
0.9999999999999999
 40
0.9999999999999999
 10
592.9889773922253
 20
143.4018111657016
 30
0.0
 10
578.6408046404058
 20
139.4711095564448
 30
0.0
 10
553.0198087184103
 20
132.4522025748168
 30
0.0
 10
527.2391905595671
 20
126.0456283695436
 30
0.0
 10
515.8961361909047
 20
123.2268394995663
 30
0.0
  0
SPLINE
  5
89
330
1F
100
AcDbEntity
  8
0
  6
Continuous
 62
     7
370
    25
100
AcDbSpline
210
0.0
220
0.0
230
1.0
 70
     8
 71
     3
 72
     9
 73
     5
 74
     0
 42
0.00000001
 43
0.00000001
 40
0.0
 40
0.0
 40
0.0
 40
0.0
 40
0.5599893578455677
 40
1.0
 40
1.0
 40
1.0
 40
1.0
 10
515.8961361909047
 20
123.2268394995663
 30
0.0
 10
514.2853573622059
 20
122.8425439354431
 30
0.0
 10
511.4089119331431
 20
122.1562888151643
 30
0.0
 10
508.5286364699347
 20
121.4862989007157
 30
0.0
 10
507.2612846137867
 20
121.1914962082221
 30
0.0
  0
ARC
  5
8A
330
1F
100
AcDbEntity
  8
0
  6
Continuous
 62
     7
370
    25
100
AcDbCircle
 10
505.5414657116
 20
128.6148797322
 30
0.0
 40
7.620000000000006
100
AcDbArc
 50
187.8223094358
 51
283.0439275551
  0
LINE
  5
8B
330
1F
100
AcDbEntity
  8
0
  6
Continuous
 62
     7
370
    25
100
AcDbLine
 10
497.2444622863
 20
133.021884015
 30
0.0
 11
497.9923704108
 21
127.577787577
 31
0.0
  0
ARC
  5
8C
330
1F
100
AcDbEntity
  8
0
  6
Continuous
 62
     7
370
    25
100
AcDbCircle
 10
504.7935575871
 20
134.0589761702
 30
0.0
 40
7.620000000000005
100
AcDbArc
 50
92.6006913165
 51
187.8223094358
  0
CIRCLE
  5
8D
330
1F
100
AcDbEntity
  8
0
  6
Continuous
 62
     7
370
    25
100
AcDbCircle
 10
505.2655972
 20
131.3503903358
 30
0.0
 40
1.984374999999941
  0
SPLINE
  5
8E
330
1F
100
AcDbEntity
  8
0
  6
Continuous
 62
     7
370
    25
100
AcDbSpline
210
0.0
220
0.0
230
1.0
 70
     8
 71
     3
 72
    10
 73
     6
 74
     0
 42
0.00000001
 43
0.00000001
 40
0.0
 40
0.0
 40
0.0
 40
0.0
 40
0.2799885750701286
 40
0.559988583692677
 40
1.0
 40
1.0
 40
1.0
 40
1.0
 10
513.3116253600441
 20
142.0397467908325
 30
0.0
 10
520.7453945116373
 20
142.2829901704501
 30
0.0
 10
535.6132363786002
 20
142.7694868627189
 30
0.0
 10
562.1750499692537
 20
143.1762671306221
 30
0.0
 10
581.3008628436253
 20
143.3162594448328
 30
0.0
 10
592.9889773922253
 20
143.4018111657016
 30
0.0
  0
CIRCLE
  5
8F
330
1F
100
AcDbEntity
  8
0
  6
Continuous
 62
     7
370
    25
100
AcDbCircle
 10
767.4816348629
 20
134.5398143007
 30
0.0
 40
1.999999999999979
  0
CIRCLE
  5
90
330
1F
100
AcDbEntity
  8
0
  6
Continuous
 62
     7
370
    25
100
AcDbCircle
 10
804.308961289
 20
139.59913993
 30
0.0
 40
1.999999999999979
  0
SPLINE
  5
91
330
1F
100
AcDbEntity
  8
0
  6
Continuous
 62
     7
370
    25
100
AcDbSpline
210
0.0
220
0.0
230
1.0
 70
     8
 71
     3
 72
     9
 73
     5
 74
     0
 42
0.00000001
 43
0.00000001
 40
0.0
 40
0.0
 40
0.0
 40
0.0
 40
0.5600102078885385
 40
1.0
 40
1.0
 40
1.0
 40
1.0
 10
743.4477997712593
 20
141.6711277407469
 30
0.0
 10
745.1022258969105
 20
141.7444060856251
 30
0.0
 10
748.0565044124558
 20
141.8752578876922
 30
0.0
 10
751.0114704621449
 20
141.9894871024001
 30
0.0
 10
752.3116253600441
 20
142.0397467908325
 30
0.0
  0
SPLINE
  5
92
330
1F
100
AcDbEntity
  8
0
  6
Continuous
 62
     7
370
    25
100
AcDbSpline
210
0.0
220
0.0
230
1.0
 70
     8
 71
     3
 72
     9
 73
     5
 74
     0
 42
0.00000001
 43
0.00000001
 40
0.0
 40
0.0
 40
0.0
 40
0.0
 40
0.5600161990386037
 40
1.0
 40
1.0
 40
1.0
 40
1.0
 10
831.9889773922254
 20
143.4018111657016
 30
0.0
 10
817.6408046404058
 20
139.4711095564448
 30
0.0
 10
792.0198087184103
 20
132.4522025748169
 30
0.0
 10
766.239190559567
 20
126.0456283695436
 30
0.0
 10
754.8961361909048
 20
123.2268394995663
 30
0.0
  0
SPLINE
  5
93
330
1F
100
AcDbEntity
  8
0
  6
Continuous
 62
     7
370
    25
100
AcDbSpline
210
0.0
220
0.0
230
1.0
 70
     8
 71
     3
 72
     9
 73
     5
 74
     0
 42
0.00000001
 43
0.00000001
 40
0.0
 40
0.0
 40
0.0
 40
0.0
 40
0.559989357845567
 40
1.0
 40
1.0
 40
1.0
 40
1.0
 10
754.8961361909047
 20
123.2268394995663
 30
0.0
 10
753.285357362206
 20
122.8425439354432
 30
0.0
 10
750.4089119331431
 20
122.1562888151644
 30
0.0
 10
747.5286364699348
 20
121.4862989007157
 30
0.0
 10
746.2612846137868
 20
121.1914962082222
 30
0.0
  0
ARC
  5
94
330
1F
100
AcDbEntity
  8
0
  6
Continuous
 62
     7
370
    25
100
AcDbCircle
 10
744.5414657116
 20
128.6148797322
 30
0.0
 40
7.620000000000038
100
AcDbArc
 50
187.8223094358
 51
283.0439275551
  0
LINE
  5
95
330
1F
100
AcDbEntity
  8
0
  6
Continuous
 62
     7
370
    25
100
AcDbLine
 10
736.2444622863
 20
133.021884015
 30
0.0
 11
736.9923704108
 21
127.577787577
 31
0.0
  0
ARC
  5
96
330
1F
100
AcDbEntity
  8
0
  6
Continuous
 62
     7
370
    25
100
AcDbCircle
 10
743.7935575871
 20
134.0589761702
 30
0.0
 40
7.620000000000061
100
AcDbArc
 50
92.6006913165
 51
187.8223094358
  0
CIRCLE
  5
97
330
1F
100
AcDbEntity
  8
0
  6
Continuous
 62
     7
370
    25
100
AcDbCircle
 10
744.2655972
 20
131.3503903358
 30
0.0
 40
1.984374999999945
  0
SPLINE
  5
98
330
1F
100
AcDbEntity
  8
0
  6
Continuous
 62
     7
370
    25
100
AcDbSpline
210
0.0
220
0.0
230
1.0
 70
     8
 71
     3
 72
    10
 73
     6
 74
     0
 42
0.00000001
 43
0.00000001
 40
0.0
 40
0.0
 40
0.0
 40
0.0
 40
0.2799885750701288
 40
0.5599885836926773
 40
0.9999999999999999
 40
0.9999999999999999
 40
0.9999999999999999
 40
0.9999999999999999
 10
752.3116253600441
 20
142.0397467908325
 30
0.0
 10
759.7453945116373
 20
142.2829901704501
 30
0.0
 10
774.6132363786003
 20
142.769486862719
 30
0.0
 10
801.1750499692538
 20
143.1762671306221
 30
0.0
 10
820.3008628436253
 20
143.3162594448328
 30
0.0
 10
831.9889773922254
 20
143.4018111657016
 30
0.0
  0
CIRCLE
  5
99
330
1F
100
AcDbEntity
  8
0
  6
Continuous
 62
     7
370
    25
100
AcDbCircle
 10
289.4816348629
 20
134.5398143007
 30
0.0
 40
1.999999999999979
  0
CIRCLE
  5
9A
330
1F
100
AcDbEntity
  8
0
  6
Continuous
 62
     7
370
    25
100
AcDbCircle
 10
326.308961289
 20
139.59913993
 30
0.0
 40
2.000000000000035
  0
SPLINE
  5
9B
330
1F
100
AcDbEntity
  8
0
  6
Continuous
 62
     7
370
    25
100
AcDbSpline
210
0.0
220
0.0
230
1.0
 70
     8
 71
     3
 72
     9
 73
     5
 74
     0
 42
0.00000001
 43
0.00000001
 40
0.0
 40
0.0
 40
0.0
 40
0.0
 40
0.5600102078885371
 40
0.9999999999999999
 40
0.9999999999999999
 40
0.9999999999999999
 40
0.9999999999999999
 10
265.4477997712594
 20
141.6711277407468
 30
0.0
 10
267.1022258969106
 20
141.744406085625
 30
0.0
 10
270.0565044124559
 20
141.8752578876922
 30
0.0
 10
273.011470462145
 20
141.9894871024001
 30
0.0
 10
274.3116253600441
 20
142.0397467908325
 30
0.0
  0
SPLINE
  5
9C
330
1F
100
AcDbEntity
  8
0
  6
Continuous
 62
     7
370
    25
100
AcDbSpline
210
0.0
220
0.0
230
1.0
 70
     8
 71
     3
 72
     9
 73
     5
 74
     0
 42
0.00000001
 43
0.00000001
 40
0.0
 40
0.0
 40
0.0
 40
0.0
 40
0.5600161990386034
 40
1.0
 40
1.0
 40
1.0
 40
1.0
 10
353.9889773922253
 20
143.4018111657016
 30
0.0
 10
339.6408046404059
 20
139.4711095564448
 30
0.0
 10
314.0198087184105
 20
132.4522025748168
 30
0.0
 10
288.2391905595669
 20
126.0456283695436
 30
0.0
 10
276.8961361909047
 20
123.2268394995663
 30
0.0
  0
SPLINE
  5
9D
330
1F
100
AcDbEntity
  8
0
  6
Continuous
 62
     7
370
    25
100
AcDbSpline
210
0.0
220
0.0
230
1.0
 70
     8
 71
     3
 72
     9
 73
     5
 74
     0
 42
0.00000001
 43
0.00000001
 40
0.0
 40
0.0
 40
0.0
 40
0.0
 40
0.5599893578455706
 40
1.0
 40
1.0
 40
1.0
 40
1.0
 10
276.8961361909047
 20
123.2268394995663
 30
0.0
 10
275.285357362206
 20
122.8425439354431
 30
0.0
 10
272.4089119331431
 20
122.1562888151643
 30
0.0
 10
269.5286364699347
 20
121.4862989007157
 30
0.0
 10
268.2612846137868
 20
121.1914962082221
 30
0.0
  0
ARC
  5
9E
330
1F
100
AcDbEntity
  8
0
  6
Continuous
 62
     7
370
    25
100
AcDbCircle
 10
266.5414657116
 20
128.6148797322
 30
0.0
 40
7.620000000000038
100
AcDbArc
 50
187.8223094358
 51
283.0439275551
  0
LINE
  5
9F
330
1F
100
AcDbEntity
  8
0
  6
Continuous
 62
     7
370
    25
100
AcDbLine
 10
258.2444622863
 20
133.021884015
 30
0.0
 11
258.9923704108
 21
127.577787577
 31
0.0
  0
ARC
  5
A0
330
1F
100
AcDbEntity
  8
0
  6
Continuous
 62
     7
370
    25
100
AcDbCircle
 10
265.7935575871
 20
134.0589761702
 30
0.0
 40
7.620000000000061
100
AcDbArc
 50
92.6006913165
 51
187.8223094358
  0
CIRCLE
  5
A1
330
1F
100
AcDbEntity
  8
0
  6
Continuous
 62
     7
370
    25
100
AcDbCircle
 10
266.2655972
 20
131.3503903358
 30
0.0
 40
1.984375000000001
  0
SPLINE
  5
A2
330
1F
100
AcDbEntity
  8
0
  6
Continuous
 62
     7
370
    25
100
AcDbSpline
210
0.0
220
0.0
230
1.0
 70
     8
 71
     3
 72
    10
 73
     6
 74
     0
 42
0.00000001
 43
0.00000001
 40
0.0
 40
0.0
 40
0.0
 40
0.0
 40
0.2799885750701288
 40
0.5599885836926769
 40
0.9999999999999999
 40
0.9999999999999999
 40
0.9999999999999999
 40
0.9999999999999999
 10
274.311625360044
 20
142.0397467908325
 30
0.0
 10
281.7453945116372
 20
142.2829901704501
 30
0.0
 10
296.6132363786002
 20
142.7694868627189
 30
0.0
 10
323.1750499692538
 20
143.176267130622
 30
0.0
 10
342.3008628436253
 20
143.3162594448327
 30
0.0
 10
353.9889773922253
 20
143.4018111657016
 30
0.0
  0
CIRCLE
  5
A3
330
1F
100
AcDbEntity
  8
0
  6
Continuous
 62
     7
370
    25
100
AcDbCircle
 10
219.2723011057
 20
136.3329559031
 30
0.0
 40
2.000000000000039
  0
SPLINE
  5
A4
330
1F
100
AcDbEntity
  8
0
  6
Continuous
 62
     7
370
    25
100
AcDbSpline
210
0.0
220
0.0
230
1.0
 70
     8
 71
     3
 72
     9
 73
     5
 74
     0
 42
0.00000001
 43
0.00000001
 40
0.0
 40
0.0
 40
0.0
 40
0.0
 40
0.5600102078885356
 40
1.0
 40
1.0
 40
1.0
 40
1.0
 10
240.4297867092436
 20
122.885217672175
 30
0.0
 10
238.8186714135884
 20
123.268366501184
 30
0.0
 10
235.9417322561224
 20
123.9525483671784
 30
0.0
 10
233.068689578007
 20
124.6529043038535
 30
0.0
 10
231.8045801273357
 20
124.9610537668352
 30
0.0
  0
SPLINE
  5
A5
330
1F
100
AcDbEntity
  8
0
  6
Continuous
 62
     7
370
    25
100
AcDbSpline
210
0.0
220
0.0
230
1.0
 70
     8
 71
     3
 72
    10
 73
     6
 74
     0
 42
0.00000001
 43
0.00000001
 40
0.0
 40
0.0
 40
0.0
 40
0.0
 40
0.2799885750701281
 40
0.559988583692677
 40
1.0
 40
1.0
 40
1.0
 40
1.0
 10
231.8045801273357
 20
124.9610537668352
 30
0.0
 10
224.5890019919701
 20
126.7653606457611
 30
0.0
 10
210.157551067463
 20
130.3740480838952
 30
0.0
 10
184.5021341499506
 20
137.2657092914426
 30
0.0
 10
166.0708969825461
 20
142.3750940325241
 30
0.0
 10
154.8072496437337
 20
145.4975272864149
 30
0.0
  0
SPLINE
  5
A6
330
1F
100
AcDbEntity
  8
0
  6
Continuous
 62
     7
370
    25
100
AcDbSpline
210
0.0
220
0.0
230
1.0
 70
     8
 71
     3
 72
     9
 73
     5
 74
     0
 42
0.00000001
 43
0.00000001
 40
0.0
 40
0.0
 40
0.0
 40
0.0
 40
0.5600161990386042
 40
1.0
 40
1.0
 40
1.0
 40
1.0
 10
154.8072496437337
 20
145.4975272864149
 30
0.0
 10
169.6832962860538
 20
145.343537830325
 30
0.0
 10
196.2468968887832
 20
145.0685646128462
 30
0.0
 10
222.7961100190569
 20
144.1609590470553
 30
0.0
 10
234.477333724649
 20
143.7616273004449
 30
0.0
  0
SPLINE
  5
A7
330
1F
100
AcDbEntity
  8
0
  6
Continuous
 62
     7
370
    25
100
AcDbSpline
210
0.0
220
0.0
230
1.0
 70
     8
 71
     3
 72
     9
 73
     5
 74
     0
 42
0.00000001
 43
0.00000001
 40
0.0
 40
0.0
 40
0.0
 40
0.0
 40
0.5599893578455674
 40
1.0
 40
1.0
 40
1.0
 40
1.0
 10
234.4773337246489
 20
143.7616273004449
 30
0.0
 10
236.1317506954185
 20
143.6895439985043
 30
0.0
 10
239.0861228590869
 20
143.5608213702423
 30
0.0
 10
242.039718601893
 20
143.4154067303312
 30
0.0
 10
243.3393321613498
 20
143.3514227412453
 30
0.0
  0
ARC
  5
A8
330
1F
100
AcDbEntity
  8
0
  6
Continuous
 62
     7
370
    25
100
AcDbCircle
 10
242.9578615094
 20
135.7409772785
 30
0.0
 40
7.620000000000011
100
AcDbArc
 50
351.9088545669
 51
87.1304726862
  0
LINE
  5
A9
330
1F
100
AcDbEntity
  8
0
  6
Continuous
 62
     7
370
    25
100
AcDbLine
 10
249.7285637196
 20
129.2279484769
 30
0.0
 11
250.5020076171
 21
134.6684757608
 31
0.0
  0
ARC
  5
AA
330
1F
100
AcDbEntity
  8
0
  6
Continuous
 62
     7
370
    25
100
AcDbCircle
 10
242.1844176119
 20
130.3004499946
 30
0.0
 40
7.620000000000015
100
AcDbArc
 50
256.6872364476
 51
351.9088545669
  0
CIRCLE
  5
AB
330
1F
100
AcDbEntity
  8
0
  6
Continuous
 62
     7
370
    25
100
AcDbCircle
 10
242.4731217629
 20
133.0346607641
 30
0.0
 40
1.984374999999982
  0
CIRCLE
  5
AC
330
1F
100
AcDbEntity
  8
0
  6
Continuous
 62
     7
370
    25
100
AcDbCircle
 10
182.4691187054
 20
141.5650217216
 30
0.0
 40
1.999999999999987
  0
CIRCLE
  5
AD
330
1F
100
AcDbEntity
  8
0
  6
Continuous
 62
     7
370
    25
100
AcDbCircle
 10
50.4816348629
 20
134.5398143007
 30
0.0
 40
2.00000000000001
  0
CIRCLE
  5
AE
330
1F
100
AcDbEntity
  8
0
  6
Continuous
 62
     7
370
    25
100
AcDbCircle
 10
87.308961289
 20
139.59913993
 30
0.0
 40
2.000000000000007
  0
SPLINE
  5
AF
330
1F
100
AcDbEntity
  8
0
  6
Continuous
 62
     7
370
    25
100
AcDbSpline
210
0.0
220
0.0
230
1.0
 70
     8
 71
     3
 72
     9
 73
     5
 74
     0
 42
0.00000001
 43
0.00000001
 40
0.0
 40
0.0
 40
0.0
 40
0.0
 40
0.5600102078885398
 40
1.0
 40
1.0
 40
1.0
 40
1.0
 10
26.44779977125933
 20
141.6711277407468
 30
0.0
 10
28.10222589691047
 20
141.744406085625
 30
0.0
 10
31.05650441245578
 20
141.8752578876922
 30
0.0
 10
34.01147046214498
 20
141.9894871024001
 30
0.0
 10
35.31162536004412
 20
142.0397467908325
 30
0.0
  0
SPLINE
  5
B0
330
1F
100
AcDbEntity
  8
0
  6
Continuous
 62
     7
370
    25
100
AcDbSpline
210
0.0
220
0.0
230
1.0
 70
     8
 71
     3
 72
     9
 73
     5
 74
     0
 42
0.00000001
 43
0.00000001
 40
0.0
 40
0.0
 40
0.0
 40
0.0
 40
0.5600161990386034
 40
1.0
 40
1.0
 40
1.0
 40
1.0
 10
114.9889773922253
 20
143.4018111657016
 30
0.0
 10
100.6408046404059
 20
139.4711095564447
 30
0.0
 10
75.0198087184104
 20
132.4522025748168
 30
0.0
 10
49.23919055956699
 20
126.0456283695436
 30
0.0
 10
37.89613619090471
 20
123.2268394995662
 30
0.0
  0
SPLINE
  5
B1
330
1F
100
AcDbEntity
  8
0
  6
Continuous
 62
     7
370
    25
100
AcDbSpline
210
0.0
220
0.0
230
1.0
 70
     8
 71
     3
 72
     9
 73
     5
 74
     0
 42
0.00000001
 43
0.00000001
 40
0.0
 40
0.0
 40
0.0
 40
0.0
 40
0.559989357845561
 40
1.0
 40
1.0
 40
1.0
 40
1.0
 10
37.89613619090471
 20
123.2268394995662
 30
0.0
 10
36.28535736220601
 20
122.8425439354431
 30
0.0
 10
33.408911933143
 20
122.1562888151643
 30
0.0
 10
30.52863646993476
 20
121.4862989007156
 30
0.0
 10
29.26128461378663
 20
121.1914962082221
 30
0.0
  0
ARC
  5
B2
330
1F
100
AcDbEntity
  8
0
  6
Continuous
 62
     7
370
    25
100
AcDbCircle
 10
27.5414657116
 20
128.6148797322
 30
0.0
 40
7.620000000000038
100
AcDbArc
 50
187.8223094358
 51
283.0439275551
  0
LINE
  5
B3
330
1F
100
AcDbEntity
  8
0
  6
Continuous
 62
     7
370
    25
100
AcDbLine
 10
19.2444622863
 20
133.021884015
 30
0.0
 11
19.9923704108
 21
127.577787577
 31
0.0
  0
ARC
  5
B4
330
1F
100
AcDbEntity
  8
0
  6
Continuous
 62
     7
370
    25
100
AcDbCircle
 10
26.7935575871
 20
134.0589761702
 30
0.0
 40
7.620000000000037
100
AcDbArc
 50
92.6006913165
 51
187.8223094358
  0
CIRCLE
  5
B5
330
1F
100
AcDbEntity
  8
0
  6
Continuous
 62
     7
370
    25
100
AcDbCircle
 10
27.2655972
 20
131.3503903358
 30
0.0
 40
1.984374999999966
  0
SPLINE
  5
B6
330
1F
100
AcDbEntity
  8
0
  6
Continuous
 62
     7
370
    25
100
AcDbSpline
210
0.0
220
0.0
230
1.0
 70
     8
 71
     3
 72
    10
 73
     6
 74
     0
 42
0.00000001
 43
0.00000001
 40
0.0
 40
0.0
 40
0.0
 40
0.0
 40
0.2799885750701288
 40
0.5599885836926773
 40
0.9999999999999999
 40
0.9999999999999999
 40
0.9999999999999999
 40
0.9999999999999999
 10
35.31162536004406
 20
142.0397467908325
 30
0.0
 10
42.74539451163717
 20
142.28299017045
 30
0.0
 10
57.61323637860011
 20
142.7694868627188
 30
0.0
 10
84.17504996925379
 20
143.176267130622
 30
0.0
 10
103.3008628436253
 20
143.3162594448327
 30
0.0
 10
114.9889773922253
 20
143.4018111657016
 30
0.0
  0
SPLINE
  5
B7
330
1F
100
AcDbEntity
  8
0
  6
Continuous
 62
     7
370
    25
100
AcDbSpline
210
0.0
220
0.0
230
1.0
 70
     8
 71
     3
 72
    26
 73
    22
 74
     0
 42
0.00000001
 43
0.00000001
 40
0.0
 40
0.0
 40
0.0
 40
0.0
 40
0.0109354890684135
 40
0.0204690020023185
 40
0.0299192788275375
 40
0.0400000190448981
 40
0.0545769205449194
 40
0.0698668446932307
 40
0.0848548481877883
 40
0.1128111124119422
 40
0.1394232150797898
 40
0.1662015371234947
 40
0.221095331062438
 40
0.2768350833827092
 40
0.3322694276395818
 40
0.4420542989223854
 40
0.5519263265180243
 40
0.662121165716039
 40
0.7747995190622775
 40
0.887379577991634
 40
0.9999999999999999
 40
0.9999999999999999
 40
0.9999999999999999
 40
0.9999999999999999
 10
238.5215187924048
 20
10.49529621698312
 30
0.0
 10
238.3554899159675
 20
9.635224837245396
 30
0.0
 10
238.0447177700692
 20
8.025346880818338
 30
0.0
 10
236.5831985018238
 20
6.064171729804238
 30
0.0
 10
234.6340770515727
 20
4.783050540769093
 30
0.0
 10
232.0574351796099
 20
3.909973782245876
 30
0.0
 10
228.9141888688932
 20
3.454016516971872
 30
0.0
 10
225.3645380964717
 20
3.296420505027944
 30
0.0
 10
220.7539903870057
 20
3.173611347621646
 30
0.0
 10
215.2500486562074
 20
2.94072891930712
 30
0.0
 10
208.8080571909613
 20
2.778701378870554
 30
0.0
 10
200.2308816896743
 20
2.971098666047001
 30
0.0
 10
189.3757334146407
 20
3.832584043674148
 30
0.0
 10
176.3060769640632
 20
5.303742753529795
 30
0.0
 10
158.9035575961438
 20
7.149612345864989
 30
0.0
 10
137.1863581814988
 20
8.973063678519729
 30
0.0
 10
111.0695797837491
 20
9.919057771375957
 30
0.0
 10
84.70937308017778
 20
9.769114308218446
 30
0.0
 10
58.16237118821127
 20
8.622756792031922
 30
0.0
 10
31.45810972859009
 20
6.829503715598665
 30
0.0
 10
13.71066563712398
 20
5.043611372503462
 30
0.0
 10
4.835353138552767
 20
4.15050515664013
 30
0.0
  0
LINE
  5
B8
330
1F
100
AcDbEntity
  8
0
  6
Continuous
 62
     7
370
    25
100
AcDbLine
 10
3.7694232382
 20
21.8807151344
 30
0.0
 11
4.8353531386
 21
4.1505051566
 31
0.0
  0
SPLINE
  5
B9
330
1F
100
AcDbEntity
  8
0
  6
Continuous
 62
     7
370
    25
100
AcDbSpline
210
0.0
220
0.0
230
1.0
 70
     8
 71
     3
 72
    31
 73
    27
 74
     0
 42
0.00000001
 43
0.00000001
 40
0.0
 40
0.0
 40
0.0
 40
0.0
 40
0.0008302735896796
 40
0.062150136439814
 40
0.1240034758949082
 40
0.1864858328349698
 40
0.2491783966136555
 40
0.3117229493301391
 40
0.3741052389111412
 40
0.4365076984230797
 40
0.4990014559895785
 40
0.5490396500175868
 40
0.5991379043856945
 40
0.649271152882002
 40
0.6993353636335431
 40
0.7493107702574258
 40
0.7909475403705338
 40
0.8326218494828626
 40
0.8743545310485812
 40
0.8922200202581213
 40
0.9100645986236541
 40
0.9279215665704427
 40
0.945735274289352
 40
0.9634802372182274
 40
0.9813854322874996
 40
1.0
 40
1.0
 40
1.0
 40
1.0
 10
3.769423238203728
 20
21.88071513437545
 30
0.0
 10
3.836187875818742
 20
21.90238167176227
 30
0.0
 10
8.833855378080457
 20
23.52423050750462
 30
0.0
 10
18.83002675593415
 20
26.6839790981095
 30
0.0
 10
33.83461406160693
 20
31.29001959575563
 30
0.0
 10
48.99376885755091
 20
35.78649409840821
 30
0.0
 10
64.26783908143369
 20
40.09634253305324
 30
0.0
 10
79.60129698352597
 20
44.1598988459568
 30
0.0
 10
95.0382204323364
 20
47.71839267938676
 30
0.0
 10
110.638154427202
 20
50.47492347951808
 30
0.0
 10
125.3465169810487
 20
52.12541324389765
 30
0.0
 10
139.0867991623397
 20
52.79418653629787
 30
0.0
 10
151.7984594665121
 20
52.63214269744864
 30
0.0
 10
164.4747050070675
 20
51.61642004161068
 30
0.0
 10
177.0304966240734
 20
49.64757297441991
 30
0.0
 10
188.6797911686972
 20
46.79320814211376
 30
0.0
 10
199.3656299495157
 20
43.17898153789393
 30
0.0
 10
209.0848062316702
 20
38.99813914977284
 30
0.0
 10
216.6842172507254
 20
35.02505444159519
 30
0.0
 10
222.2264797403254
 20
31.53365577723475
 30
0.0
 10
225.9021557416543
 20
28.88227798614117
 30
0.0
 10
229.3770278976107
 20
25.97880934663628
 30
0.0
 10
232.5651679299534
 20
22.76430520227809
 30
0.0
 10
235.2882789842693
 20
19.14313000743187
 30
0.0
 10
237.45701207362
 20
15.05108840472651
 30
0.0
 10
238.1621178126596
 20
12.03343228216375
 30
0.0
 10
238.5215187924048
 20
10.49529621698312
 30
0.0
  0
CIRCLE
  5
BA
330
1F
100
AcDbEntity
  8
0
  6
Continuous
 62
     7
370
    25
100
AcDbCircle
 10
10.4922068903
 20
15.8707024604
 30
0.0
 40
5.000000000000041
  0
CIRCLE
  5
BB
330
1F
100
AcDbEntity
  8
0
  6
Continuous
 62
     7
370
    25
100
AcDbCircle
 10
217.6289960165
 20
19.4174639105
 30
0.0
 40
4.999999999999985
  0
CIRCLE
  5
BC
330
1F
100
AcDbEntity
  8
0
  6
Continuous
 62
     7
370
    25
100
AcDbCircle
 10
72.4234376651
 20
22.1385580378
 30
0.0
 40
2.999999999999965
  0
SPLINE
  5
BD
330
1F
100
AcDbEntity
  8
0
  6
Continuous
 62
     7
370
    25
100
AcDbSpline
210
0.0
220
0.0
230
1.0
 70
     8
 71
     3
 72
    26
 73
    22
 74
     0
 42
0.00000001
 43
0.00000001
 40
0.0
 40
0.0
 40
0.0
 40
0.0
 40
0.0109354890684134
 40
0.0204690020023185
 40
0.0299192788275376
 40
0.0400000190448981
 40
0.0545769205449195
 40
0.0698668446932307
 40
0.0848548481877882
 40
0.1128111124119422
 40
0.1394232150797899
 40
0.1662015371234947
 40
0.221095331062438
 40
0.2768350833827093
 40
0.3322694276395818
 40
0.4420542989223854
 40
0.5519263265180245
 40
0.6621211657160392
 40
0.7747995190622776
 40
0.887379577991634
 40
1.0
 40
1.0
 40
1.0
 40
1.0
 10
715.1928250571209
 20
98.9353213164203
 30
0.0
 10
715.0354196962955
 20
98.07363000368797
 30
0.0
 10
714.7407890103012
 20
96.46071986356033
 30
0.0
 10
713.2989878176938
 20
94.48500331875832
 30
0.0
 10
711.3627969232068
 20
93.18442239127693
 30
0.0
 10
708.7950297791343
 20
92.28557965951134
 30
0.0
 10
705.656508408969
 20
91.7981599157533
 30
0.0
 10
702.1086143332938
 20
91.60501557355948
 30
0.0
 10
697.4995280915255
 20
91.4360295198467
 30
0.0
 10
691.9981952345901
 20
91.14802674443916
 30
0.0
 10
685.5581499637142
 20
90.92147902047617
 30
0.0
 10
676.9794775661786
 20
91.02795057419462
 30
0.0
 10
666.1162445405546
 20
91.7806585918344
 30
0.0
 10
653.0325074483857
 20
93.12082700987642
 30
0.0
 10
635.6123714031785
 20
94.79228597412882
 30
0.0
 10
613.8779963371318
 20
96.39810840093304
 30
0.0
 10
587.7530523505415
 20
97.08244778925605
 30
0.0
 10
561.395670087468
 20
96.66846622522411
 30
0.0
 10
534.8614829143861
 20
95.2562495028861
 30
0.0
 10
508.1765239040585
 20
93.1955944329935
 30
0.0
 10
490.4478591701458
 20
91.23201861490865
 30
0.0
 10
481.58193803328
 20
90.25005473828935
 30
0.0
  0
LINE
  5
BE
330
1F
100
AcDbEntity
  8
0
  6
Continuous
 62
     7
370
    25
100
AcDbLine
 10
480.3384611688
 20
107.9686979622
 30
0.0
 11
481.5819380333
 21
90.2500547383
 31
0.0
  0
CIRCLE
  5
BF
330
1F
100
AcDbEntity
  8
0
  6
Continuous
 62
     7
370
    25
100
AcDbCircle
 10
487.1211087967
 20
102.0263277676
 30
0.0
 40
5.000000000000029
  0
CIRCLE
  5
C0
330
1F
100
AcDbEntity
  8
0
  6
Continuous
 62
     7
370
    25
100
AcDbCircle
 10
694.2119786442
 20
107.6477646068
 30
0.0
 40
5.000000000000028
  0
CIRCLE
  5
C1
330
1F
100
AcDbEntity
  8
0
  6
Continuous
 62
     7
370
    25
100
AcDbCircle
 10
548.9864484789
 20
108.9142232975
 30
0.0
 40
2.999999999999925
  0
SPLINE
  5
C2
330
1F
100
AcDbEntity
  8
0
  6
Continuous
 62
     7
370
    25
100
AcDbSpline
210
0.0
220
0.0
230
1.0
 70
     8
 71
     3
 72
    31
 73
    27
 74
     0
 42
0.00000001
 43
0.00000001
 40
0.0
 40
0.0
 40
0.0
 40
0.0
 40
0.0008302735896795
 40
0.0621501364398141
 40
0.1240034758949083
 40
0.1864858328349697
 40
0.2491783966136557
 40
0.3117229493301391
 40
0.3741052389111414
 40
0.4365076984230796
 40
0.4990014559895783
 40
0.5490396500175866
 40
0.5991379043856943
 40
0.649271152882002
 40
0.6993353636335431
 40
0.7493107702574258
 40
0.7909475403705337
 40
0.8326218494828624
 40
0.8743545310485812
 40
0.8922200202581213
 40
0.9100645986236539
 40
0.9279215665704427
 40
0.945735274289352
 40
0.9634802372182274
 40
0.9813854322874996
 40
1.0
 40
1.0
 40
1.0
 40
1.0
 10
480.3384611687963
 20
107.9686979621521
 30
0.0
 10
480.4050054269005
 20
107.9910321823436
 30
0.0
 10
485.3861764190538
 20
109.6628604199638
 30
0.0
 10
495.3501956381245
 20
112.9225804038287
 30
0.0
 10
510.3078922590001
 20
117.6786881693621
 30
0.0
 10
525.4212461191362
 20
122.3267837125617
 30
0.0
 10
540.6513790429311
 20
126.7894136386535
 30
0.0
 10
555.9433637309876
 20
131.006358675481
 30
0.0
 10
571.3438678982817
 20
134.7193029681071
 30
0.0
 10
586.915407558206
 20
137.6319573100506
 30
0.0
 10
601.6064995283812
 20
139.4296953892986
 30
0.0
 10
615.3393933780825
 20
140.23606915559
 30
0.0
 10
628.0520391075426
 20
140.201363945323
 30
0.0
 10
640.7378230029377
 20
139.3126680032982
 30
0.0
 10
653.3127063000105
 20
137.4696889017726
 30
0.0
 10
664.9900080813899
 20
134.7321562371455
 30
0.0
 10
675.7115138389381
 20
131.2251491531555
 30
0.0
 10
685.4720812870962
 20
127.1418718214205
 30
0.0
 10
693.1109087473886
 20
123.2451084251167
 30
0.0
 10
698.6878659190379
 20
119.809400806195
 30
0.0
 10
702.3899159048905
 20
117.1949746435163
 30
0.0
 10
705.8936972699848
 20
114.3264588624118
 30
0.0
 10
709.1138764854845
 20
111.1440510349976
 30
0.0
 10
711.8731236067608
 20
107.5503344449429
 30
0.0
 10
714.0827371632575
 20
103.4802219622144
 30
0.0
 10
714.8180348659298
 20
100.4697801564802
 30
0.0
 10
715.1928250571209
 20
98.9353213164203
 30
0.0
  0
LINE
  5
C3
330
1F
100
AcDbEntity
  8
0
  6
Continuous
 62
     7
370
    25
100
AcDbLine
 10
481.7694232382
 20
21.8807151344
 30
0.0
 11
482.8353531386
 21
4.1505051566
 31
0.0
  0
SPLINE
  5
C4
330
1F
100
AcDbEntity
  8
0
  6
Continuous
 62
     7
370
    25
100
AcDbSpline
210
0.0
220
0.0
230
1.0
 70
     8
 71
     3
 72
    31
 73
    27
 74
     0
 42
0.00000001
 43
0.00000001
 40
0.0
 40
0.0
 40
0.0
 40
0.0
 40
0.0008302735896796
 40
0.0621501364398141
 40
0.1240034758949083
 40
0.1864858328349698
 40
0.2491783966136556
 40
0.3117229493301391
 40
0.3741052389111413
 40
0.4365076984230796
 40
0.4990014559895783
 40
0.5490396500175867
 40
0.5991379043856944
 40
0.6492711528820021
 40
0.6993353636335432
 40
0.7493107702574259
 40
0.7909475403705338
 40
0.8326218494828626
 40
0.8743545310485813
 40
0.8922200202581214
 40
0.9100645986236541
 40
0.9279215665704428
 40
0.9457352742893521
 40
0.9634802372182274
 40
0.9813854322874996
 40
1.0
 40
1.0
 40
1.0
 40
1.0
 10
481.7694232382037
 20
21.88071513437551
 30
0.0
 10
481.8361878758187
 20
21.90238167176232
 30
0.0
 10
486.8338553780818
 20
23.52423050750484
 30
0.0
 10
496.8300267559337
 20
26.68397909810949
 30
0.0
 10
511.8346140616068
 20
31.29001959575571
 30
0.0
 10
526.993768857551
 20
35.78649409840827
 30
0.0
 10
542.2678390814337
 20
40.09634253305328
 30
0.0
 10
557.6012969835261
 20
44.15989884595686
 30
0.0
 10
573.0382204323363
 20
47.7183926793868
 30
0.0
 10
588.6381544272019
 20
50.47492347951814
 30
0.0
 10
603.3465169810488
 20
52.1254132438977
 30
0.0
 10
617.0867991623396
 20
52.79418653629793
 30
0.0
 10
629.798459466512
 20
52.63214269744869
 30
0.0
 10
642.4747050070677
 20
51.61642004161074
 30
0.0
 10
655.0304966240734
 20
49.64757297441996
 30
0.0
 10
666.6797911686971
 20
46.79320814211381
 30
0.0
 10
677.3656299495157
 20
43.17898153789397
 30
0.0
 10
687.0848062316701
 20
38.9981391497729
 30
0.0
 10
694.6842172507255
 20
35.02505444159524
 30
0.0
 10
700.2264797403253
 20
31.53365577723483
 30
0.0
 10
703.9021557416544
 20
28.8822779861412
 30
0.0
 10
707.3770278976106
 20
25.97880934663635
 30
0.0
 10
710.5651679299535
 20
22.76430520227817
 30
0.0
 10
713.2882789842691
 20
19.14313000743191
 30
0.0
 10
715.45701207362
 20
15.05108840472656
 30
0.0
 10
716.1621178126597
 20
12.0334322821638
 30
0.0
 10
716.5215187924048
 20
10.49529621698318
 30
0.0
  0
CIRCLE
  5
C5
330
1F
100
AcDbEntity
  8
0
  6
Continuous
 62
     7
370
    25
100
AcDbCircle
 10
488.4922068903
 20
15.8707024604
 30
0.0
 40
5.000000000000013
  0
CIRCLE
  5
C6
330
1F
100
AcDbEntity
  8
0
  6
Continuous
 62
     7
370
    25
100
AcDbCircle
 10
695.6289960165
 20
19.4174639105
 30
0.0
 40
4.999999999999901
  0
CIRCLE
  5
C7
330
1F
100
AcDbEntity
  8
0
  6
Continuous
 62
     7
370
    25
100
AcDbCircle
 10
550.4234376651
 20
22.1385580378
 30
0.0
 40
3.000000000000008
  0
SPLINE
  5
C8
330
1F
100
AcDbEntity
  8
0
  6
Continuous
 62
     7
370
    25
100
AcDbSpline
210
0.0
220
0.0
230
1.0
 70
     8
 71
     3
 72
    26
 73
    22
 74
     0
 42
0.00000001
 43
0.00000001
 40
0.0
 40
0.0
 40
0.0
 40
0.0
 40
0.0109354890684135
 40
0.0204690020023185
 40
0.0299192788275377
 40
0.0400000190448981
 40
0.0545769205449194
 40
0.0698668446932308
 40
0.0848548481877882
 40
0.1128111124119423
 40
0.1394232150797899
 40
0.1662015371234948
 40
0.221095331062438
 40
0.2768350833827095
 40
0.3322694276395819
 40
0.4420542989223855
 40
0.5519263265180245
 40
0.6621211657160392
 40
0.7747995190622777
 40
0.8873795779916342
 40
1.0
 40
1.0
 40
1.0
 40
1.0
 10
716.5215187924048
 20
10.49529621698318
 30
0.0
 10
716.3554899159675
 20
9.635224837245465
 30
0.0
 10
716.0447177700693
 20
8.025346880818393
 30
0.0
 10
714.5831985018237
 20
6.064171729804293
 30
0.0
 10
712.6340770515728
 20
4.783050540769162
 30
0.0
 10
710.0574351796098
 20
3.909973782245904
 30
0.0
 10
706.9141888688931
 20
3.454016516971928
 30
0.0
 10
703.364538096472
 20
3.296420505027972
 30
0.0
 10
698.7539903870056
 20
3.173611347621688
 30
0.0
 10
693.2500486562074
 20
2.940728919307176
 30
0.0
 10
686.8080571909612
 20
2.778701378870582
 30
0.0
 10
678.2308816896742
 20
2.97109866604707
 30
0.0
 10
667.3757334146409
 20
3.832584043674231
 30
0.0
 10
654.3060769640631
 20
5.303742753529836
 30
0.0
 10
636.903557596144
 20
7.149612345865059
 30
0.0
 10
615.1863581814988
 20
8.9730636785198
 30
0.0
 10
589.0695797837491
 20
9.919057771376014
 30
0.0
 10
562.709373080178
 20
9.769114308218516
 30
0.0
 10
536.1623711882113
 20
8.622756792031991
 30
0.0
 10
509.4581097285903
 20
6.829503715598747
 30
0.0
 10
491.710665637124
 20
5.043611372503517
 30
0.0
 10
482.8353531385528
 20
4.150505156640186
 30
0.0
  0
SPLINE
  5
C9
330
1F
100
AcDbEntity
  8
0
  6
Continuous
 62
     7
370
    25
100
AcDbSpline
210
0.0
220
0.0
230
1.0
 70
     8
 71
     3
 72
    26
 73
    22
 74
     0
 42
0.00000001
 43
0.00000001
 40
0.0
 40
0.0
 40
0.0
 40
0.0
 40
0.0109354890679663
 40
0.0204690020014814
 40
0.0299192788263141
 40
0.0400000190432624
 40
0.0545769205426876
 40
0.0698668446903737
 40
0.0848548481843182
 40
0.112811112407329
 40
0.1394232150740882
 40
0.1662015371166979
 40
0.2210953310533963
 40
0.2768350833713882
 40
0.3322694276259937
 40
0.4420542989043076
 40
0.5519263264954535
 40
0.6621211656889618
 40
0.7747995190442071
 40
0.8873795779825828
 40
0.9999999999999999
 40
0.9999999999999999
 40
0.9999999999999999
 40
0.9999999999999999
 10
719.3467720164316
 20
47.08846039338476
 30
0.0
 10
719.5641154602117
 20
46.2399026796724
 30
0.0
 10
719.9709379953624
 20
44.65157595442047
 30
0.0
 10
721.5475153937265
 20
42.78164273331983
 30
0.0
 10
723.5700054122005
 20
41.61979934714584
 30
0.0
 10
726.194397699106
 20
40.90292314649707
 30
0.0
 10
729.3593414554571
 20
40.63641720523987
 30
0.0
 10
732.9120522391286
 20
40.69212354882775
 30
0.0
 10
737.5216603217808
 20
40.84621960573595
 30
0.0
 10
743.029657886565
 20
40.94405430188347
 30
0.0
 10
749.469762472698
 20
41.16890954828403
 30
0.0
 10
758.0199334669132
 20
41.8756855139672
 30
0.0
 10
768.8038189830586
 20
43.38704725210306
 30
0.0
 10
781.7616343473181
 20
45.63987850887083
 30
0.0
 10
799.0220167627946
 20
48.5267650279807
 30
0.0
 10
820.5906482722825
 20
51.65020223495974
 30
0.0
 10
846.6035865993673
 20
54.16178705180396
 30
0.0
 10
872.9252828849867
 20
55.59401789966564
 30
0.0
 10
899.4932335695387
 20
56.04284029774293
 30
0.0
 10
926.2569812870892
 20
55.85537034154158
 30
0.0
 10
944.0796126750024
 20
55.13773970643717
 30
0.0
 10
952.992525559774
 20
54.7788600777833
 30
0.0
  0
SPLINE
  5
CA
330
1F
100
AcDbEntity
  8
0
  6
Continuous
 62
     7
370
    25
100
AcDbSpline
210
0.0
220
0.0
230
1.0
 70
     8
 71
     3
 72
    31
 73
    27
 74
     0
 42
0.00000001
 43
0.00000001
 40
0.0
 40
0.0
 40
0.0
 40
0.0
 40
0.0008302735896795
 40
0.0621501364398141
 40
0.1240034758949083
 40
0.1864858328349698
 40
0.2491783966136554
 40
0.3117229493301389
 40
0.3741052389111412
 40
0.4365076984230795
 40
0.4990014559895783
 40
0.5490396500175865
 40
0.5991379043856944
 40
0.6492711528820019
 40
0.699335363633543
 40
0.7493107702574258
 40
0.7909475403705336
 40
0.8326218494828623
 40
0.8743545310485811
 40
0.8922200202581212
 40
0.9100645986236539
 40
0.9279215665704426
 40
0.9457352742893519
 40
0.9634802372182273
 40
0.9813854322874995
 40
1.0
 40
1.0
 40
1.0
 40
1.0
 10
952.992525559774
 20
72.54108269791288
 30
0.0
 10
952.9245810192917
 20
72.55870356897127
 30
0.0
 10
947.8385918781212
 20
73.8777140181529
 30
0.0
 10
937.6708166035561
 20
76.43188694440869
 30
0.0
 10
922.4168584922281
 20
80.12918477084074
 30
0.0
 10
907.0151866377836
 20
83.70783831210694
 30
0.0
 10
891.5100060951444
 20
87.09330594212075
 30
0.0
 10
875.9603251604485
 20
90.2293614219456
 30
0.0
 10
860.3376744908815
 20
92.85505561275798
 30
0.0
 10
844.6004337226886
 20
94.67044970225005
 30
0.0
 10
829.8195322270918
 20
95.43530031196715
 30
0.0
 10
816.0638801950549
 20
95.27829931944393
 30
0.0
 10
803.3848543878127
 20
94.35370726147634
 30
0.0
 10
790.7924096912893
 20
92.57910023933233
 30
0.0
 10
778.3773998363519
 20
89.86031517878311
 30
0.0
 10
766.9203941488273
 20
86.31200816566614
 30
0.0
 10
756.4707079142325
 20
82.06302687660188
 30
0.0
 10
747.0199451904796
 20
77.3064614542383
 30
0.0
 10
739.6726595426242
 20
72.88448864295698
 30
0.0
 10
734.34990835765
 20
69.0667854119579
 30
0.0
 10
730.8399689874353
 20
66.19960493712442
 30
0.0
 10
727.5455997964306
 20
63.09283840676078
 30
0.0
 10
724.5561115269572
 20
59.69280404713964
 30
0.0
 10
722.0552188820519
 20
55.91473845949233
 30
0.0
 10
720.1359622477836
 20
51.69992391280895
 30
0.0
 10
719.6132200691756
 20
48.64539232973907
 30
0.0
 10
719.3467720164316
 20
47.08846039338476
 30
0.0
  0
CIRCLE
  5
CB
330
1F
100
AcDbEntity
  8
0
  6
Continuous
 62
     7
370
    25
100
AcDbCircle
 10
739.6662116653
 20
57.2483303063
 30
0.0
 40
5.0
  0
LINE
  5
CC
330
1F
100
AcDbEntity
  8
0
  6
Continuous
 62
     7
370
    25
100
AcDbLine
 10
952.9925255598
 20
54.7788600778
 30
0.0
 11
952.9925255598
 21
72.5410826979
 31
0.0
  0
CIRCLE
  5
CD
330
1F
100
AcDbEntity
  8
0
  6
Continuous
 62
     7
370
    25
100
AcDbCircle
 10
884.4467720164
 20
68.6784603934
 30
0.0
 40
2.999999999999886
  0
CIRCLE
  5
CE
330
1F
100
AcDbEntity
  8
0
  6
Continuous
 62
     7
370
    25
100
AcDbCircle
 10
946.6425255598
 20
66.1384603934
 30
0.0
 40
5.0
  0
SPLINE
  5
CF
330
1F
100
AcDbEntity
  8
0
  6
Continuous
 62
     7
370
    25
100
AcDbSpline
210
0.0
220
0.0
230
1.0
 70
     8
 71
     3
 72
    26
 73
    22
 74
     0
 42
0.00000001
 43
0.00000001
 40
0.0
 40
0.0
 40
0.0
 40
0.0
 40
0.0109354890684135
 40
0.0204690020023185
 40
0.0299192788275376
 40
0.0400000190448981
 40
0.0545769205449195
 40
0.0698668446932308
 40
0.0848548481877882
 40
0.1128111124119423
 40
0.1394232150797899
 40
0.1662015371234947
 40
0.221095331062438
 40
0.2768350833827093
 40
0.3322694276395818
 40
0.4420542989223853
 40
0.5519263265180244
 40
0.6621211657160391
 40
0.7747995190622775
 40
0.8873795779916337
 40
0.9999999999999999
 40
0.9999999999999999
 40
0.9999999999999999
 40
0.9999999999999999
 10
476.192825057121
 20
98.93532131642027
 30
0.0
 10
476.0354196962956
 20
98.07363000368794
 30
0.0
 10
475.7407890103013
 20
96.46071986356033
 30
0.0
 10
474.298987817694
 20
94.48500331875829
 30
0.0
 10
472.3627969232068
 20
93.18442239127688
 30
0.0
 10
469.7950297791343
 20
92.28557965951131
 30
0.0
 10
466.6565084089689
 20
91.79815991575326
 30
0.0
 10
463.1086143332938
 20
91.60501557355948
 30
0.0
 10
458.4995280915256
 20
91.43602951984664
 30
0.0
 10
452.9981952345901
 20
91.14802674443914
 30
0.0
 10
446.5581499637142
 20
90.92147902047614
 30
0.0
 10
437.9794775661786
 20
91.0279505741946
 30
0.0
 10
427.1162445405545
 20
91.78065859183437
 30
0.0
 10
414.0325074483858
 20
93.1208270098764
 30
0.0
 10
396.6123714031784
 20
94.79228597412879
 30
0.0
 10
374.8779963371318
 20
96.39810840093303
 30
0.0
 10
348.7530523505415
 20
97.08244778925601
 30
0.0
 10
322.395670087468
 20
96.66846622522407
 30
0.0
 10
295.8614829143861
 20
95.25624950288608
 30
0.0
 10
269.1765239040585
 20
93.19559443299345
 30
0.0
 10
251.4478591701457
 20
91.23201861490863
 30
0.0
 10
242.58193803328
 20
90.25005473828932
 30
0.0
  0
LINE
  5
D0
330
1F
100
AcDbEntity
  8
0
  6
Continuous
 62
     7
370
    25
100
AcDbLine
 10
241.3384611688
 20
107.9686979622
 30
0.0
 11
242.5819380333
 21
90.2500547383
 31
0.0
  0
CIRCLE
  5
D1
330
1F
100
AcDbEntity
  8
0
  6
Continuous
 62
     7
370
    25
100
AcDbCircle
 10
248.1211087967
 20
102.0263277676
 30
0.0
 40
5.000000000000029
  0
CIRCLE
  5
D2
330
1F
100
AcDbEntity
  8
0
  6
Continuous
 62
     7
370
    25
100
AcDbCircle
 10
455.2119786442
 20
107.6477646068
 30
0.0
 40
4.999999999999972
  0
CIRCLE
  5
D3
330
1F
100
AcDbEntity
  8
0
  6
Continuous
 62
     7
370
    25
100
AcDbCircle
 10
309.9864484789
 20
108.9142232975
 30
0.0
 40
2.999999999999982
  0
SPLINE
  5
D4
330
1F
100
AcDbEntity
  8
0
  6
Continuous
 62
     7
370
    25
100
AcDbSpline
210
0.0
220
0.0
230
1.0
 70
     8
 71
     3
 72
    31
 73
    27
 74
     0
 42
0.00000001
 43
0.00000001
 40
0.0
 40
0.0
 40
0.0
 40
0.0
 40
0.0008302735896794
 40
0.062150136439814
 40
0.1240034758949083
 40
0.1864858328349696
 40
0.2491783966136555
 40
0.3117229493301389
 40
0.3741052389111413
 40
0.4365076984230795
 40
0.4990014559895782
 40
0.5490396500175865
 40
0.5991379043856941
 40
0.6492711528820019
 40
0.699335363633543
 40
0.7493107702574257
 40
0.7909475403705335
 40
0.8326218494828622
 40
0.874354531048581
 40
0.8922200202581211
 40
0.9100645986236537
 40
0.9279215665704426
 40
0.9457352742893519
 40
0.9634802372182273
 40
0.9813854322874995
 40
1.0
 40
1.0
 40
1.0
 40
1.0
 10
241.3384611687963
 20
107.968697962152
 30
0.0
 10
241.4050054269005
 20
107.9910321823435
 30
0.0
 10
246.3861764190536
 20
109.662860419964
 30
0.0
 10
256.3501956381246
 20
112.9225804038286
 30
0.0
 10
271.307892259
 20
117.6786881693621
 30
0.0
 10
286.4212461191363
 20
122.3267837125617
 30
0.0
 10
301.6513790429311
 20
126.7894136386535
 30
0.0
 10
316.9433637309877
 20
131.006358675481
 30
0.0
 10
332.3438678982818
 20
134.7193029681071
 30
0.0
 10
347.9154075582059
 20
137.6319573100506
 30
0.0
 10
362.6064995283812
 20
139.4296953892986
 30
0.0
 10
376.3393933780825
 20
140.23606915559
 30
0.0
 10
389.0520391075426
 20
140.2013639453229
 30
0.0
 10
401.7378230029378
 20
139.3126680032982
 30
0.0
 10
414.3127063000105
 20
137.4696889017726
 30
0.0
 10
425.9900080813899
 20
134.7321562371455
 30
0.0
 10
436.7115138389381
 20
131.2251491531555
 30
0.0
 10
446.4720812870963
 20
127.1418718214205
 30
0.0
 10
454.1109087473887
 20
123.2451084251167
 30
0.0
 10
459.6878659190378
 20
119.8094008061949
 30
0.0
 10
463.3899159048904
 20
117.1949746435163
 30
0.0
 10
466.8936972699848
 20
114.3264588624118
 30
0.0
 10
470.1138764854845
 20
111.1440510349976
 30
0.0
 10
472.8731236067608
 20
107.5503344449429
 30
0.0
 10
475.0827371632575
 20
103.4802219622143
 30
0.0
 10
475.8180348659297
 20
100.4697801564802
 30
0.0
 10
476.192825057121
 20
98.93532131642027
 30
0.0
  0
LINE
  5
D5
330
1F
100
AcDbEntity
  8
0
  6
Continuous
 62
     7
370
    25
100
AcDbLine
 10
242.7694232382
 20
21.8807151344
 30
0.0
 11
243.8353531386
 21
4.1505051566
 31
0.0
  0
SPLINE
  5
D6
330
1F
100
AcDbEntity
  8
0
  6
Continuous
 62
     7
370
    25
100
AcDbSpline
210
0.0
220
0.0
230
1.0
 70
     8
 71
     3
 72
    31
 73
    27
 74
     0
 42
0.00000001
 43
0.00000001
 40
0.0
 40
0.0
 40
0.0
 40
0.0
 40
0.0008302735896796
 40
0.062150136439814
 40
0.1240034758949082
 40
0.1864858328349698
 40
0.2491783966136555
 40
0.3117229493301389
 40
0.3741052389111413
 40
0.4365076984230795
 40
0.4990014559895782
 40
0.5490396500175866
 40
0.5991379043856943
 40
0.6492711528820018
 40
0.6993353636335431
 40
0.7493107702574258
 40
0.7909475403705336
 40
0.8326218494828623
 40
0.8743545310485811
 40
0.8922200202581213
 40
0.9100645986236539
 40
0.9279215665704427
 40
0.945735274289352
 40
0.9634802372182273
 40
0.9813854322874995
 40
1.0
 40
1.0
 40
1.0
 40
1.0
 10
242.7694232382037
 20
21.88071513437548
 30
0.0
 10
242.8361878758187
 20
21.9023816717623
 30
0.0
 10
247.8338553780816
 20
23.52423050750463
 30
0.0
 10
257.8300267559337
 20
26.68397909810955
 30
0.0
 10
272.8346140616069
 20
31.29001959575565
 30
0.0
 10
287.9937688575509
 20
35.78649409840825
 30
0.0
 10
303.2678390814337
 20
40.09634253305325
 30
0.0
 10
318.6012969835263
 20
44.15989884595683
 30
0.0
 10
334.0382204323363
 20
47.71839267938677
 30
0.0
 10
349.6381544272019
 20
50.47492347951812
 30
0.0
 10
364.3465169810487
 20
52.12541324389768
 30
0.0
 10
378.0867991623397
 20
52.7941865362979
 30
0.0
 10
390.7984594665119
 20
52.63214269744868
 30
0.0
 10
403.4747050070677
 20
51.61642004161071
 30
0.0
 10
416.0304966240733
 20
49.64757297441994
 30
0.0
 10
427.6797911686971
 20
46.7932081421138
 30
0.0
 10
438.3656299495157
 20
43.17898153789394
 30
0.0
 10
448.0848062316703
 20
38.99813914977288
 30
0.0
 10
455.6842172507254
 20
35.02505444159519
 30
0.0
 10
461.2264797403254
 20
31.53365577723482
 30
0.0
 10
464.9021557416543
 20
28.88227798614115
 30
0.0
 10
468.3770278976106
 20
25.97880934663634
 30
0.0
 10
471.5651679299535
 20
22.76430520227815
 30
0.0
 10
474.2882789842692
 20
19.14313000743187
 30
0.0
 10
476.45701207362
 20
15.05108840472653
 30
0.0
 10
477.1621178126597
 20
12.03343228216377
 30
0.0
 10
477.5215187924048
 20
10.49529621698315
 30
0.0
  0
CIRCLE
  5
D7
330
1F
100
AcDbEntity
  8
0
  6
Continuous
 62
     7
370
    25
100
AcDbCircle
 10
249.4922068903
 20
15.8707024604
 30
0.0
 40
5.000000000000042
  0
CIRCLE
  5
D8
330
1F
100
AcDbEntity
  8
0
  6
Continuous
 62
     7
370
    25
100
AcDbCircle
 10
456.6289960165
 20
19.4174639105
 30
0.0
 40
4.999999999999956
  0
CIRCLE
  5
D9
330
1F
100
AcDbEntity
  8
0
  6
Continuous
 62
     7
370
    25
100
AcDbCircle
 10
311.4234376651
 20
22.1385580378
 30
0.0
 40
2.999999999999951
  0
SPLINE
  5
DA
330
1F
100
AcDbEntity
  8
0
  6
Continuous
 62
     7
370
    25
100
AcDbSpline
210
0.0
220
0.0
230
1.0
 70
     8
 71
     3
 72
    26
 73
    22
 74
     0
 42
0.00000001
 43
0.00000001
 40
0.0
 40
0.0
 40
0.0
 40
0.0
 40
0.0109354890684135
 40
0.0204690020023185
 40
0.0299192788275377
 40
0.0400000190448981
 40
0.0545769205449195
 40
0.0698668446932308
 40
0.0848548481877882
 40
0.1128111124119423
 40
0.1394232150797899
 40
0.1662015371234947
 40
0.221095331062438
 40
0.2768350833827095
 40
0.3322694276395819
 40
0.4420542989223856
 40
0.5519263265180245
 40
0.6621211657160392
 40
0.7747995190622777
 40
0.8873795779916344
 40
1.0
 40
1.0
 40
1.0
 40
1.0
 10
477.5215187924048
 20
10.49529621698315
 30
0.0
 10
477.3554899159676
 20
9.635224837245438
 30
0.0
 10
477.0447177700693
 20
8.025346880818379
 30
0.0
 10
475.5831985018237
 20
6.064171729804252
 30
0.0
 10
473.6340770515728
 20
4.783050540769162
 30
0.0
 10
471.0574351796099
 20
3.909973782245904
 30
0.0
 10
467.9141888688931
 20
3.454016516971886
 30
0.0
 10
464.3645380964718
 20
3.296420505027972
 30
0.0
 10
459.7539903870056
 20
3.173611347621661
 30
0.0
 10
454.2500486562074
 20
2.94072891930712
 30
0.0
 10
447.8080571909613
 20
2.778701378870582
 30
0.0
 10
439.2308816896743
 20
2.971098666047014
 30
0.0
 10
428.3757334146409
 20
3.832584043674217
 30
0.0
 10
415.3060769640632
 20
5.303742753529808
 30
0.0
 10
397.9035575961439
 20
7.149612345865044
 30
0.0
 10
376.1863581814989
 20
8.973063678519786
 30
0.0
 10
350.069579783749
 20
9.919057771375986
 30
0.0
 10
323.709373080178
 20
9.769114308218473
 30
0.0
 10
297.1623711882114
 20
8.622756792031963
 30
0.0
 10
270.4581097285902
 20
6.82950371559872
 30
0.0
 10
252.710665637124
 20
5.04361137250349
 30
0.0
 10
243.8353531385528
 20
4.150505156640158
 30
0.0
  0
SPLINE
  5
DB
330
1F
100
AcDbEntity
  8
0
  6
Continuous
 62
     7
370
    25
100
AcDbSpline
210
0.0
220
0.0
230
1.0
 70
     8
 71
     3
 72
    26
 73
    22
 74
     0
 42
0.00000001
 43
0.00000001
 40
0.0
 40
0.0
 40
0.0
 40
0.0
 40
0.0109354890684135
 40
0.0204690020023185
 40
0.0299192788275375
 40
0.0400000190448981
 40
0.0545769205449194
 40
0.0698668446932307
 40
0.0848548481877883
 40
0.1128111124119423
 40
0.1394232150797899
 40
0.1662015371234948
 40
0.2210953310624381
 40
0.2768350833827093
 40
0.3322694276395818
 40
0.4420542989223855
 40
0.5519263265180244
 40
0.6621211657160391
 40
0.7747995190622776
 40
0.8873795779916341
 40
0.9999999999999999
 40
0.9999999999999999
 40
0.9999999999999999
 40
0.9999999999999999
 10
955.5215187924048
 20
10.4952962169832
 30
0.0
 10
955.3554899159675
 20
9.63522483724548
 30
0.0
 10
955.0447177700693
 20
8.025346880818422
 30
0.0
 10
953.5831985018237
 20
6.064171729804321
 30
0.0
 10
951.6340770515727
 20
4.783050540769176
 30
0.0
 10
949.0574351796099
 20
3.909973782245946
 30
0.0
 10
945.9141888688931
 20
3.454016516971956
 30
0.0
 10
942.3645380964718
 20
3.296420505028
 30
0.0
 10
937.7539903870054
 20
3.173611347621744
 30
0.0
 10
932.2500486562074
 20
2.940728919307176
 30
0.0
 10
925.8080571909612
 20
2.778701378870624
 30
0.0
 10
917.2308816896741
 20
2.971098666047084
 30
0.0
 10
906.375733414641
 20
3.832584043674231
 30
0.0
 10
893.3060769640631
 20
5.303742753529877
 30
0.0
 10
875.903557596144
 20
7.149612345865072
 30
0.0
 10
854.1863581814988
 20
8.973063678519813
 30
0.0
 10
828.069579783749
 20
9.919057771376028
 30
0.0
 10
801.709373080178
 20
9.76911430821853
 30
0.0
 10
775.1623711882114
 20
8.622756792031991
 30
0.0
 10
748.4581097285903
 20
6.829503715598776
 30
0.0
 10
730.710665637124
 20
5.043611372503546
 30
0.0
 10
721.8353531385528
 20
4.150505156640214
 30
0.0
  0
LINE
  5
DC
330
1F
100
AcDbEntity
  8
0
  6
Continuous
 62
     7
370
    25
100
AcDbLine
 10
720.7694232382
 20
21.8807151344
 30
0.0
 11
721.8353531386
 21
4.1505051566
 31
0.0
  0
SPLINE
  5
DD
330
1F
100
AcDbEntity
  8
0
  6
Continuous
 62
     7
370
    25
100
AcDbSpline
210
0.0
220
0.0
230
1.0
 70
     8
 71
     3
 72
    31
 73
    27
 74
     0
 42
0.00000001
 43
0.00000001
 40
0.0
 40
0.0
 40
0.0
 40
0.0
 40
0.0008302735896796
 40
0.0621501364398141
 40
0.1240034758949083
 40
0.1864858328349698
 40
0.2491783966136556
 40
0.3117229493301391
 40
0.3741052389111412
 40
0.4365076984230797
 40
0.4990014559895785
 40
0.5490396500175868
 40
0.5991379043856945
 40
0.649271152882002
 40
0.6993353636335431
 40
0.7493107702574258
 40
0.7909475403705338
 40
0.8326218494828626
 40
0.8743545310485812
 40
0.8922200202581213
 40
0.9100645986236541
 40
0.9279215665704427
 40
0.945735274289352
 40
0.9634802372182274
 40
0.9813854322874996
 40
1.0
 40
1.0
 40
1.0
 40
1.0
 10
720.7694232382037
 20
21.88071513437553
 30
0.0
 10
720.8361878758187
 20
21.90238167176235
 30
0.0
 10
725.8338553780803
 20
23.52423050750484
 30
0.0
 10
735.8300267559343
 20
26.68397909810952
 30
0.0
 10
750.8346140616065
 20
31.29001959575572
 30
0.0
 10
765.9937688575511
 20
35.78649409840829
 30
0.0
 10
781.2678390814337
 20
40.0963425330533
 30
0.0
 10
796.6012969835261
 20
44.15989884595687
 30
0.0
 10
812.0382204323363
 20
47.71839267938684
 30
0.0
 10
827.638154427202
 20
50.47492347951815
 30
0.0
 10
842.3465169810489
 20
52.12541324389773
 30
0.0
 10
856.0867991623397
 20
52.79418653629794
 30
0.0
 10
868.7984594665119
 20
52.63214269744871
 30
0.0
 10
881.4747050070677
 20
51.61642004161076
 30
0.0
 10
894.0304966240733
 20
49.64757297441998
 30
0.0
 10
905.6797911686971
 20
46.79320814211383
 30
0.0
 10
916.3656299495157
 20
43.178981537894
 30
0.0
 10
926.0848062316702
 20
38.99813914977292
 30
0.0
 10
933.6842172507254
 20
35.02505444159527
 30
0.0
 10
939.2264797403253
 20
31.53365577723483
 30
0.0
 10
942.9021557416543
 20
28.88227798614125
 30
0.0
 10
946.3770278976104
 20
25.97880934663636
 30
0.0
 10
949.5651679299535
 20
22.76430520227818
 30
0.0
 10
952.288278984269
 20
19.14313000743195
 30
0.0
 10
954.45701207362
 20
15.05108840472657
 30
0.0
 10
955.1621178126597
 20
12.03343228216382
 30
0.0
 10
955.5215187924048
 20
10.4952962169832
 30
0.0
  0
CIRCLE
  5
DE
330
1F
100
AcDbEntity
  8
0
  6
Continuous
 62
     7
370
    25
100
AcDbCircle
 10
727.4922068903
 20
15.8707024604
 30
0.0
 40
5.000000000000013
  0
CIRCLE
  5
DF
330
1F
100
AcDbEntity
  8
0
  6
Continuous
 62
     7
370
    25
100
AcDbCircle
 10
934.6289960165
 20
19.4174639105
 30
0.0
 40
5.000000000000013
  0
CIRCLE
  5
E0
330
1F
100
AcDbEntity
  8
0
  6
Continuous
 62
     7
370
    25
100
AcDbCircle
 10
789.4234376651
 20
22.1385580378
 30
0.0
 40
3.000000000000121
  0
SPLINE
  5
E1
330
1F
100
AcDbEntity
  8
0
  6
Continuous
 62
     7
370
    25
100
AcDbSpline
210
0.0
220
0.0
230
1.0
 70
     8
 71
     3
 72
    26
 73
    22
 74
     0
 42
0.00000001
 43
0.00000001
 40
0.0
 40
0.0
 40
0.0
 40
0.0
 40
0.0109354890684135
 40
0.0204690020023185
 40
0.0299192788275376
 40
0.0400000190448981
 40
0.0545769205449195
 40
0.0698668446932309
 40
0.0848548481877882
 40
0.1128111124119423
 40
0.1394232150797899
 40
0.1662015371234948
 40
0.2210953310624381
 40
0.2768350833827094
 40
0.3322694276395819
 40
0.4420542989223853
 40
0.5519263265180245
 40
0.6621211657160392
 40
0.7747995190622777
 40
0.887379577991634
 40
1.0
 40
1.0
 40
1.0
 40
1.0
 10
954.192825057121
 20
98.93532131642033
 30
0.0
 10
954.0354196962955
 20
98.07363000368798
 30
0.0
 10
953.7407890103013
 20
96.46071986356036
 30
0.0
 10
952.298987817694
 20
94.48500331875836
 30
0.0
 10
950.3627969232068
 20
93.18442239127693
 30
0.0
 10
947.7950297791342
 20
92.28557965951136
 30
0.0
 10
944.656508408969
 20
91.7981599157533
 30
0.0
 10
941.1086143332939
 20
91.60501557355954
 30
0.0
 10
936.4995280915256
 20
91.43602951984673
 30
0.0
 10
930.9981952345898
 20
91.14802674443916
 30
0.0
 10
924.5581499637143
 20
90.9214790204762
 30
0.0
 10
915.9794775661785
 20
91.02795057419463
 30
0.0
 10
905.1162445405546
 20
91.7806585918344
 30
0.0
 10
892.0325074483858
 20
93.12082700987645
 30
0.0
 10
874.6123714031785
 20
94.79228597412882
 30
0.0
 10
852.8779963371315
 20
96.39810840093304
 30
0.0
 10
826.7530523505416
 20
97.08244778925607
 30
0.0
 10
800.3956700874679
 20
96.66846622522414
 30
0.0
 10
773.8614829143862
 20
95.2562495028861
 30
0.0
 10
747.1765239040584
 20
93.19559443299352
 30
0.0
 10
729.4478591701456
 20
91.23201861490868
 30
0.0
 10
720.5819380332799
 20
90.25005473828936
 30
0.0
  0
LINE
  5
E2
330
1F
100
AcDbEntity
  8
0
  6
Continuous
 62
     7
370
    25
100
AcDbLine
 10
719.3384611688
 20
107.9686979622
 30
0.0
 11
720.5819380333
 21
90.2500547383
 31
0.0
  0
SPLINE
  5
E3
330
1F
100
AcDbEntity
  8
0
  6
Continuous
 62
     7
370
    25
100
AcDbSpline
210
0.0
220
0.0
230
1.0
 70
     8
 71
     3
 72
    31
 73
    27
 74
     0
 42
0.00000001
 43
0.00000001
 40
0.0
 40
0.0
 40
0.0
 40
0.0
 40
0.0008302735896795
 40
0.0621501364398141
 40
0.1240034758949083
 40
0.1864858328349697
 40
0.2491783966136557
 40
0.3117229493301389
 40
0.3741052389111413
 40
0.4365076984230796
 40
0.4990014559895783
 40
0.5490396500175866
 40
0.5991379043856944
 40
0.649271152882002
 40
0.6993353636335432
 40
0.7493107702574258
 40
0.7909475403705337
 40
0.8326218494828626
 40
0.8743545310485813
 40
0.8922200202581213
 40
0.910064598623654
 40
0.9279215665704427
 40
0.945735274289352
 40
0.9634802372182274
 40
0.9813854322874996
 40
1.0
 40
1.0
 40
1.0
 40
1.0
 10
719.3384611687962
 20
107.9686979621521
 30
0.0
 10
719.4050054269004
 20
107.9910321823436
 30
0.0
 10
724.3861764190538
 20
109.6628604199643
 30
0.0
 10
734.3501956381245
 20
112.9225804038285
 30
0.0
 10
749.307892259
 20
117.6786881693621
 30
0.0
 10
764.4212461191362
 20
122.3267837125618
 30
0.0
 10
779.6513790429311
 20
126.7894136386535
 30
0.0
 10
794.9433637309877
 20
131.0063586754811
 30
0.0
 10
810.3438678982817
 20
134.7193029681071
 30
0.0
 10
825.915407558206
 20
137.6319573100506
 30
0.0
 10
840.6064995283813
 20
139.4296953892986
 30
0.0
 10
854.3393933780825
 20
140.23606915559
 30
0.0
 10
867.0520391075424
 20
140.201363945323
 30
0.0
 10
879.7378230029377
 20
139.3126680032983
 30
0.0
 10
892.3127063000105
 20
137.4696889017727
 30
0.0
 10
903.99000808139
 20
134.7321562371455
 30
0.0
 10
914.7115138389381
 20
131.2251491531555
 30
0.0
 10
924.4720812870961
 20
127.1418718214206
 30
0.0
 10
932.1109087473886
 20
123.2451084251167
 30
0.0
 10
937.687865919038
 20
119.809400806195
 30
0.0
 10
941.3899159048904
 20
117.1949746435163
 30
0.0
 10
944.8936972699848
 20
114.3264588624118
 30
0.0
 10
948.1138764854845
 20
111.1440510349976
 30
0.0
 10
950.8731236067607
 20
107.5503344449429
 30
0.0
 10
953.0827371632575
 20
103.4802219622144
 30
0.0
 10
953.8180348659298
 20
100.4697801564802
 30
0.0
 10
954.192825057121
 20
98.93532131642033
 30
0.0
  0
CIRCLE
  5
E4
330
1F
100
AcDbEntity
  8
0
  6
Continuous
 62
     7
370
    25
100
AcDbCircle
 10
726.1211087967
 20
102.0263277676
 30
0.0
 40
5.000000000000028
  0
CIRCLE
  5
E5
330
1F
100
AcDbEntity
  8
0
  6
Continuous
 62
     7
370
    25
100
AcDbCircle
 10
933.2119786442
 20
107.6477646068
 30
0.0
 40
4.999999999999916
  0
CIRCLE
  5
E6
330
1F
100
AcDbEntity
  8
0
  6
Continuous
 62
     7
370
    25
100
AcDbCircle
 10
787.9864484789
 20
108.9142232975
 30
0.0
 40
2.999999999999927
  0
SPLINE
  5
E7
330
1F
100
AcDbEntity
  8
0
  6
Continuous
 62
     7
370
    25
100
AcDbSpline
210
0.0
220
0.0
230
1.0
 70
     8
 71
     3
 72
    31
 73
    27
 74
     0
 42
0.00000001
 43
0.00000001
 40
0.0
 40
0.0
 40
0.0
 40
0.0
 40
0.0008302735896795
 40
0.0621501364398141
 40
0.1240034758949083
 40
0.1864858328349698
 40
0.2491783966136557
 40
0.3117229493301391
 40
0.3741052389111413
 40
0.4365076984230796
 40
0.4990014559895783
 40
0.5490396500175866
 40
0.5991379043856944
 40
0.649271152882002
 40
0.6993353636335431
 40
0.7493107702574259
 40
0.7909475403705337
 40
0.8326218494828624
 40
0.8743545310485812
 40
0.8922200202581213
 40
0.910064598623654
 40
0.9279215665704427
 40
0.945735274289352
 40
0.9634802372182274
 40
0.9813854322874996
 40
1.0
 40
1.0
 40
1.0
 40
1.0
 10
474.992525559774
 20
72.54108269791283
 30
0.0
 10
474.9245810192917
 20
72.55870356897123
 30
0.0
 10
469.8385918781198
 20
73.87771401815264
 30
0.0
 10
459.6708166035568
 20
76.43188694440873
 30
0.0
 10
444.4168584922281
 20
80.12918477084067
 30
0.0
 10
429.0151866377836
 20
83.70783831210692
 30
0.0
 10
413.5100060951442
 20
87.09330594212067
 30
0.0
 10
397.9603251604485
 20
90.22936142194557
 30
0.0
 10
382.3376744908816
 20
92.85505561275791
 30
0.0
 10
366.6004337226887
 20
94.67044970225002
 30
0.0
 10
351.8195322270916
 20
95.4353003119671
 30
0.0
 10
338.063880195055
 20
95.27829931944389
 30
0.0
 10
325.3848543878125
 20
94.3537072614763
 30
0.0
 10
312.7924096912893
 20
92.57910023933229
 30
0.0
 10
300.3773998363519
 20
89.86031517878307
 30
0.0
 10
288.9203941488272
 20
86.31200816566611
 30
0.0
 10
278.4707079142324
 20
82.06302687660182
 30
0.0
 10
269.0199451904796
 20
77.30646145423826
 30
0.0
 10
261.6726595426241
 20
72.88448864295692
 30
0.0
 10
256.34990835765
 20
69.06678541195784
 30
0.0
 10
252.8399689874352
 20
66.19960493712436
 30
0.0
 10
249.5455997964305
 20
63.09283840676073
 30
0.0
 10
246.5561115269573
 20
59.69280404713959
 30
0.0
 10
244.055218882052
 20
55.91473845949227
 30
0.0
 10
242.1359622477837
 20
51.69992391280891
 30
0.0
 10
241.6132200691757
 20
48.64539232973902
 30
0.0
 10
241.3467720164316
 20
47.08846039338471
 30
0.0
  0
CIRCLE
  5
E8
330
1F
100
AcDbEntity
  8
0
  6
Continuous
 62
     7
370
    25
100
AcDbCircle
 10
261.6662116653
 20
57.2483303063
 30
0.0
 40
5.0
  0
CIRCLE
  5
E9
330
1F
100
AcDbEntity
  8
0
  6
Continuous
 62
     7
370
    25
100
AcDbCircle
 10
468.6425255598
 20
66.1384603934
 30
0.0
 40
5.0
  0
CIRCLE
  5
EA
330
1F
100
AcDbEntity
  8
0
  6
Continuous
 62
     7
370
    25
100
AcDbCircle
 10
406.4467720164
 20
68.6784603934
 30
0.0
 40
3.0
  0
SPLINE
  5
EB
330
1F
100
AcDbEntity
  8
0
  6
Continuous
 62
     7
370
    25
100
AcDbSpline
210
0.0
220
0.0
230
1.0
 70
     8
 71
     3
 72
    26
 73
    22
 74
     0
 42
0.00000001
 43
0.00000001
 40
0.0
 40
0.0
 40
0.0
 40
0.0
 40
0.0109354890679662
 40
0.0204690020014814
 40
0.0299192788263142
 40
0.0400000190432622
 40
0.0545769205426875
 40
0.0698668446903735
 40
0.084854848184318
 40
0.112811112407329
 40
0.1394232150740881
 40
0.1662015371166978
 40
0.2210953310533963
 40
0.2768350833713882
 40
0.3322694276259937
 40
0.4420542989043076
 40
0.5519263264954535
 40
0.6621211656889618
 40
0.7747995190442071
 40
0.8873795779825828
 40
1.0
 40
1.0
 40
1.0
 40
1.0
 10
241.3467720164316
 20
47.08846039338471
 30
0.0
 10
241.5641154602117
 20
46.23990267967235
 30
0.0
 10
241.9709379953624
 20
44.65157595442042
 30
0.0
 10
243.5475153937266
 20
42.78164273331978
 30
0.0
 10
245.5700054122005
 20
41.61979934714581
 30
0.0
 10
248.194397699106
 20
40.90292314649701
 30
0.0
 10
251.3593414554569
 20
40.63641720523983
 30
0.0
 10
254.9120522391287
 20
40.6921235488277
 30
0.0
 10
259.5216603217807
 20
40.8462196057359
 30
0.0
 10
265.0296578865651
 20
40.94405430188342
 30
0.0
 10
271.4697624726979
 20
41.16890954828398
 30
0.0
 10
280.0199334669135
 20
41.87568551396714
 30
0.0
 10
290.8038189830585
 20
43.387047252103
 30
0.0
 10
303.7616343473182
 20
45.63987850887077
 30
0.0
 10
321.0220167627947
 20
48.52676502798064
 30
0.0
 10
342.5906482722826
 20
51.6502022349597
 30
0.0
 10
368.6035865993672
 20
54.16178705180391
 30
0.0
 10
394.9252828849866
 20
55.59401789966558
 30
0.0
 10
421.4932335695387
 20
56.04284029774288
 30
0.0
 10
448.2569812870892
 20
55.85537034154153
 30
0.0
 10
466.0796126750024
 20
55.13773970643711
 30
0.0
 10
474.992525559774
 20
54.77886007778324
 30
0.0
  0
LINE
  5
EC
330
1F
100
AcDbEntity
  8
0
  6
Continuous
 62
     7
370
    25
100
AcDbLine
 10
474.9925255598
 20
54.7788600778
 30
0.0
 11
474.9925255598
 21
72.5410826979
 31
0.0
  0
SPLINE
  5
ED
330
1F
100
AcDbEntity
  8
0
  6
Continuous
 62
     7
370
    25
100
AcDbSpline
210
0.0
220
0.0
230
1.0
 70
     8
 71
     3
 72
    26
 73
    22
 74
     0
 42
0.00000001
 43
0.00000001
 40
0.0
 40
0.0
 40
0.0
 40
0.0
 40
0.0109354890684135
 40
0.0204690020023186
 40
0.0299192788275376
 40
0.0400000190448981
 40
0.0545769205449195
 40
0.0698668446932309
 40
0.0848548481877882
 40
0.1128111124119423
 40
0.1394232150797899
 40
0.1662015371234948
 40
0.221095331062438
 40
0.2768350833827093
 40
0.3322694276395818
 40
0.4420542989223853
 40
0.5519263265180244
 40
0.6621211657160391
 40
0.7747995190622776
 40
0.8873795779916338
 40
1.0
 40
1.0
 40
1.0
 40
1.0
 10
237.192825057121
 20
98.93532131642024
 30
0.0
 10
237.0354196962957
 20
98.07363000368791
 30
0.0
 10
236.7407890103014
 20
96.46071986356029
 30
0.0
 10
235.2989878176939
 20
94.4850033187583
 30
0.0
 10
233.3627969232069
 20
93.18442239127685
 30
0.0
 10
230.7950297791343
 20
92.2855796595113
 30
0.0
 10
227.656508408969
 20
91.79815991575322
 30
0.0
 10
224.1086143332937
 20
91.60501557355946
 30
0.0
 10
219.4995280915256
 20
91.43602951984661
 30
0.0
 10
213.9981952345901
 20
91.14802674443911
 30
0.0
 10
207.5581499637141
 20
90.92147902047613
 30
0.0
 10
198.9794775661786
 20
91.02795057419456
 30
0.0
 10
188.1162445405546
 20
91.78065859183432
 30
0.0
 10
175.0325074483857
 20
93.12082700987636
 30
0.0
 10
157.6123714031784
 20
94.79228597412876
 30
0.0
 10
135.8779963371318
 20
96.398108400933
 30
0.0
 10
109.7530523505413
 20
97.082447789256
 30
0.0
 10
83.39567008746812
 20
96.66846622522404
 30
0.0
 10
56.86148291438603
 20
95.25624950288604
 30
0.0
 10
30.17652390405845
 20
93.19559443299345
 30
0.0
 10
12.44785917014568
 20
91.2320186149086
 30
0.0
 10
3.581938033279997
 20
90.25005473828931
 30
0.0
  0
LINE
  5
EE
330
1F
100
AcDbEntity
  8
0
  6
Continuous
 62
     7
370
    25
100
AcDbLine
 10
2.3384611688
 20
107.9686979622
 30
0.0
 11
3.5819380333
 21
90.2500547383
 31
0.0
  0
CIRCLE
  5
EF
330
1F
100
AcDbEntity
  8
0
  6
Continuous
 62
     7
370
    25
100
AcDbCircle
 10
9.1211087967
 20
102.0263277676
 30
0.0
 40
5.000000000000016
  0
CIRCLE
  5
F0
330
1F
100
AcDbEntity
  8
0
  6
Continuous
 62
     7
370
    25
100
AcDbCircle
 10
216.2119786442
 20
107.6477646068
 30
0.0
 40
5.000000000000028
  0
CIRCLE
  5
F1
330
1F
100
AcDbEntity
  8
0
  6
Continuous
 62
     7
370
    25
100
AcDbCircle
 10
70.9864484789
 20
108.9142232975
 30
0.0
 40
2.999999999999996
  0
SPLINE
  5
F2
330
1F
100
AcDbEntity
  8
0
  6
Continuous
 62
     7
370
    25
100
AcDbSpline
210
0.0
220
0.0
230
1.0
 70
     8
 71
     3
 72
    31
 73
    27
 74
     0
 42
0.00000001
 43
0.00000001
 40
0.0
 40
0.0
 40
0.0
 40
0.0
 40
0.0008302735896791
 40
0.062150136439814
 40
0.1240034758949083
 40
0.1864858328349697
 40
0.2491783966136556
 40
0.3117229493301389
 40
0.3741052389111413
 40
0.4365076984230796
 40
0.4990014559895783
 40
0.5490396500175866
 40
0.5991379043856944
 40
0.649271152882002
 40
0.6993353636335433
 40
0.7493107702574259
 40
0.7909475403705337
 40
0.8326218494828624
 40
0.8743545310485813
 40
0.8922200202581213
 40
0.910064598623654
 40
0.9279215665704427
 40
0.945735274289352
 40
0.9634802372182274
 40
0.9813854322874996
 40
1.0
 40
1.0
 40
1.0
 40
1.0
 10
2.338461168796213
 20
107.968697962152
 30
0.0
 10
2.405005426900475
 20
107.9910321823435
 30
0.0
 10
7.38617641905126
 20
109.6628604199647
 30
0.0
 10
17.35019563812557
 20
112.9225804038282
 30
0.0
 10
32.30789225899977
 20
117.6786881693621
 30
0.0
 10
47.42124611913628
 20
122.3267837125617
 30
0.0
 10
62.65137904293117
 20
126.7894136386535
 30
0.0
 10
77.94336373098754
 20
131.006358675481
 30
0.0
 10
93.3438678982817
 20
134.719302968107
 30
0.0
 10
108.9154075582059
 20
137.6319573100505
 30
0.0
 10
123.6064995283811
 20
139.4296953892986
 30
0.0
 10
137.3393933780827
 20
140.2360691555899
 30
0.0
 10
150.0520391075426
 20
140.2013639453229
 30
0.0
 10
162.7378230029379
 20
139.3126680032982
 30
0.0
 10
175.3127063000105
 20
137.4696889017726
 30
0.0
 10
186.9900080813898
 20
134.7321562371455
 30
0.0
 10
197.7115138389381
 20
131.2251491531554
 30
0.0
 10
207.4720812870962
 20
127.1418718214205
 30
0.0
 10
215.1109087473888
 20
123.2451084251167
 30
0.0
 10
220.6878659190378
 20
119.8094008061949
 30
0.0
 10
224.3899159048904
 20
117.1949746435163
 30
0.0
 10
227.8936972699849
 20
114.3264588624117
 30
0.0
 10
231.1138764854846
 20
111.1440510349976
 30
0.0
 10
233.8731236067609
 20
107.5503344449428
 30
0.0
 10
236.0827371632575
 20
103.4802219622143
 30
0.0
 10
236.8180348659298
 20
100.4697801564801
 30
0.0
 10
237.192825057121
 20
98.93532131642024
 30
0.0
  0
LINE
  5
F3
330
1F
100
AcDbEntity
  8
0
  6
Continuous
 62
     7
370
    25
100
AcDbLine
 10
713.9925255598
 20
54.7788600778
 30
0.0
 11
713.9925255598
 21
72.5410826979
 31
0.0
  0
CIRCLE
  5
F4
330
1F
100
AcDbEntity
  8
0
  6
Continuous
 62
     7
370
    25
100
AcDbCircle
 10
645.4467720164
 20
68.6784603934
 30
0.0
 40
3.000000000000114
  0
SPLINE
  5
F5
330
1F
100
AcDbEntity
  8
0
  6
Continuous
 62
     7
370
    25
100
AcDbSpline
210
0.0
220
0.0
230
1.0
 70
     8
 71
     3
 72
    31
 73
    27
 74
     0
 42
0.00000001
 43
0.00000001
 40
0.0
 40
0.0
 40
0.0
 40
0.0
 40
0.0008302735896795
 40
0.0621501364398141
 40
0.1240034758949083
 40
0.1864858328349699
 40
0.2491783966136558
 40
0.3117229493301392
 40
0.3741052389111415
 40
0.4365076984230798
 40
0.4990014559895785
 40
0.5490396500175867
 40
0.5991379043856944
 40
0.6492711528820021
 40
0.6993353636335433
 40
0.749310770257426
 40
0.7909475403705338
 40
0.8326218494828624
 40
0.8743545310485813
 40
0.8922200202581213
 40
0.910064598623654
 40
0.9279215665704427
 40
0.945735274289352
 40
0.9634802372182273
 40
0.9813854322874995
 40
1.0
 40
1.0
 40
1.0
 40
1.0
 10
713.992525559774
 20
72.54108269791286
 30
0.0
 10
713.9245810192917
 20
72.55870356897124
 30
0.0
 10
708.8385918781215
 20
73.87771401815307
 30
0.0
 10
698.670816603556
 20
76.43188694440857
 30
0.0
 10
683.4168584922282
 20
80.12918477084074
 30
0.0
 10
668.0151866377836
 20
83.70783831210693
 30
0.0
 10
652.5100060951441
 20
87.09330594212071
 30
0.0
 10
636.9603251604485
 20
90.2293614219456
 30
0.0
 10
621.3376744908816
 20
92.85505561275795
 30
0.0
 10
605.6004337226886
 20
94.67044970225005
 30
0.0
 10
590.8195322270917
 20
95.4353003119671
 30
0.0
 10
577.063880195055
 20
95.27829931944393
 30
0.0
 10
564.3848543878125
 20
94.35370726147632
 30
0.0
 10
551.7924096912893
 20
92.57910023933229
 30
0.0
 10
539.3773998363519
 20
89.8603151787831
 30
0.0
 10
527.9203941488272
 20
86.31200816566611
 30
0.0
 10
517.4707079142325
 20
82.06302687660187
 30
0.0
 10
508.0199451904795
 20
77.30646145423827
 30
0.0
 10
500.6726595426242
 20
72.88448864295697
 30
0.0
 10
495.34990835765
 20
69.06678541195787
 30
0.0
 10
491.8399689874353
 20
66.19960493712439
 30
0.0
 10
488.5455997964305
 20
63.09283840676075
 30
0.0
 10
485.5561115269572
 20
59.69280404713962
 30
0.0
 10
483.0552188820519
 20
55.91473845949228
 30
0.0
 10
481.1359622477837
 20
51.69992391280892
 30
0.0
 10
480.6132200691756
 20
48.64539232973905
 30
0.0
 10
480.3467720164316
 20
47.08846039338474
 30
0.0
  0
SPLINE
  5
F6
330
1F
100
AcDbEntity
  8
0
  6
Continuous
 62
     7
370
    25
100
AcDbSpline
210
0.0
220
0.0
230
1.0
 70
     8
 71
     3
 72
    26
 73
    22
 74
     0
 42
0.00000001
 43
0.00000001
 40
0.0
 40
0.0
 40
0.0
 40
0.0
 40
0.0109354890679663
 40
0.0204690020014814
 40
0.0299192788263141
 40
0.0400000190432623
 40
0.0545769205426875
 40
0.0698668446903736
 40
0.0848548481843181
 40
0.1128111124073289
 40
0.1394232150740881
 40
0.1662015371166979
 40
0.2210953310533963
 40
0.2768350833713882
 40
0.3322694276259938
 40
0.4420542989043077
 40
0.5519263264954535
 40
0.6621211656889618
 40
0.7747995190442071
 40
0.8873795779825828
 40
1.0
 40
1.0
 40
1.0
 40
1.0
 10
480.3467720164316
 20
47.08846039338474
 30
0.0
 10
480.5641154602117
 20
46.23990267967237
 30
0.0
 10
480.9709379953624
 20
44.65157595442044
 30
0.0
 10
482.5475153937265
 20
42.78164273331981
 30
0.0
 10
484.5700054122005
 20
41.61979934714581
 30
0.0
 10
487.1943976991061
 20
40.90292314649705
 30
0.0
 10
490.359341455457
 20
40.63641720523985
 30
0.0
 10
493.9120522391286
 20
40.69212354882772
 30
0.0
 10
498.5216603217808
 20
40.84621960573593
 30
0.0
 10
504.0296578865651
 20
40.94405430188344
 30
0.0
 10
510.4697624726979
 20
41.16890954828401
 30
0.0
 10
519.0199334669134
 20
41.87568551396717
 30
0.0
 10
529.8038189830586
 20
43.38704725210303
 30
0.0
 10
542.7616343473181
 20
45.63987850887081
 30
0.0
 10
560.0220167627947
 20
48.52676502798067
 30
0.0
 10
581.5906482722826
 20
51.65020223495971
 30
0.0
 10
607.6035865993672
 20
54.16178705180393
 30
0.0
 10
633.9252828849866
 20
55.59401789966561
 30
0.0
 10
660.4932335695386
 20
56.04284029774291
 30
0.0
 10
687.2569812870892
 20
55.85537034154156
 30
0.0
 10
705.0796126750024
 20
55.13773970643714
 30
0.0
 10
713.992525559774
 20
54.77886007778327
 30
0.0
  0
CIRCLE
  5
F7
330
1F
100
AcDbEntity
  8
0
  6
Continuous
 62
     7
370
    25
100
AcDbCircle
 10
500.6662116653
 20
57.2483303063
 30
0.0
 40
5.0
  0
CIRCLE
  5
F8
330
1F
100
AcDbEntity
  8
0
  6
Continuous
 62
     7
370
    25
100
AcDbCircle
 10
707.6425255598
 20
66.1384603934
 30
0.0
 40
5.0
  0
CIRCLE
  5
F9
330
1F
100
AcDbEntity
  8
0
  6
Continuous
 62
     7
370
    25
100
AcDbCircle
 10
22.6662116653
 20
57.2483303063
 30
0.0
 40
5.000000000000004
  0
CIRCLE
  5
FA
330
1F
100
AcDbEntity
  8
0
  6
Continuous
 62
     7
370
    25
100
AcDbCircle
 10
167.4467720164
 20
68.6784603934
 30
0.0
 40
3.0
  0
CIRCLE
  5
FB
330
1F
100
AcDbEntity
  8
0
  6
Continuous
 62
     7
370
    25
100
AcDbCircle
 10
229.6425255598
 20
66.1384603934
 30
0.0
 40
5.0
  0
LINE
  5
FC
330
1F
100
AcDbEntity
  8
0
  6
Continuous
 62
     7
370
    25
100
AcDbLine
 10
235.9925255598
 20
54.7788600778
 30
0.0
 11
235.9925255598
 21
72.5410826979
 31
0.0
  0
SPLINE
  5
FD
330
1F
100
AcDbEntity
  8
0
  6
Continuous
 62
     7
370
    25
100
AcDbSpline
210
0.0
220
0.0
230
1.0
 70
     8
 71
     3
 72
    31
 73
    27
 74
     0
 42
0.00000001
 43
0.00000001
 40
0.0
 40
0.0
 40
0.0
 40
0.0
 40
0.0008302735896795
 40
0.0621501364398141
 40
0.1240034758949083
 40
0.1864858328349698
 40
0.2491783966136554
 40
0.3117229493301389
 40
0.3741052389111412
 40
0.4365076984230795
 40
0.4990014559895783
 40
0.5490396500175865
 40
0.5991379043856944
 40
0.6492711528820019
 40
0.699335363633543
 40
0.7493107702574257
 40
0.7909475403705336
 40
0.8326218494828626
 40
0.8743545310485813
 40
0.8922200202581212
 40
0.9100645986236536
 40
0.9279215665704427
 40
0.945735274289352
 40
0.9634802372182274
 40
0.9813854322874996
 40
1.0
 40
1.0
 40
1.0
 40
1.0
 10
235.992525559774
 20
72.5410826979128
 30
0.0
 10
235.9245810192917
 20
72.5587035689712
 30
0.0
 10
230.8385918781192
 20
73.87771401815282
 30
0.0
 10
220.6708166035571
 20
76.43188694440862
 30
0.0
 10
205.4168584922281
 20
80.12918477084067
 30
0.0
 10
190.0151866377837
 20
83.70783831210687
 30
0.0
 10
174.5100060951442
 20
87.09330594212067
 30
0.0
 10
158.9603251604484
 20
90.22936142194554
 30
0.0
 10
143.3376744908816
 20
92.8550556127579
 30
0.0
 10
127.6004337226885
 20
94.67044970225
 30
0.0
 10
112.8195322270916
 20
95.43530031196707
 30
0.0
 10
99.06388019505502
 20
95.27829931944385
 30
0.0
 10
86.38485438781251
 20
94.35370726147629
 30
0.0
 10
73.79240969128936
 20
92.57910023933225
 30
0.0
 10
61.37739983635193
 20
89.86031517878304
 30
0.0
 10
49.92039414882738
 20
86.31200816566606
 30
0.0
 10
39.47070791423246
 20
82.0630268766018
 30
0.0
 10
30.01994519047957
 20
77.30646145423825
 30
0.0
 10
22.67265954262421
 20
72.88448864295691
 30
0.0
 10
17.34990835764993
 20
69.06678541195782
 30
0.0
 10
13.83996898743522
 20
66.19960493712426
 30
0.0
 10
10.54559979643055
 20
63.09283840676075
 30
0.0
 10
7.556111526957232
 20
59.69280404713956
 30
0.0
 10
5.055218882051959
 20
55.91473845949224
 30
0.0
 10
3.135962247783675
 20
51.69992391280888
 30
0.0
 10
2.613220069175637
 20
48.645392329739
 30
0.0
 10
2.346772016431631
 20
47.08846039338469
 30
0.0
  0
SPLINE
  5
FE
330
1F
100
AcDbEntity
  8
0
  6
Continuous
 62
     7
370
    25
100
AcDbSpline
210
0.0
220
0.0
230
1.0
 70
     8
 71
     3
 72
    26
 73
    22
 74
     0
 42
0.00000001
 43
0.00000001
 40
0.0
 40
0.0
 40
0.0
 40
0.0
 40
0.0109354890679662
 40
0.0204690020014815
 40
0.0299192788263139
 40
0.0400000190432622
 40
0.0545769205426875
 40
0.0698668446903737
 40
0.0848548481843182
 40
0.1128111124073287
 40
0.1394232150740883
 40
0.1662015371166977
 40
0.2210953310533962
 40
0.2768350833713881
 40
0.3322694276259937
 40
0.4420542989043076
 40
0.5519263264954535
 40
0.6621211656889618
 40
0.7747995190442071
 40
0.8873795779825828
 40
0.9999999999999999
 40
0.9999999999999999
 40
0.9999999999999999
 40
0.9999999999999999
 10
2.346772016431631
 20
47.08846039338469
 30
0.0
 10
2.564115460211625
 20
46.23990267967231
 30
0.0
 10
2.97093799536241
 20
44.65157595442036
 30
0.0
 10
4.547515393726664
 20
42.7816427333198
 30
0.0
 10
6.57000541220043
 20
41.61979934714574
 30
0.0
 10
9.194397699106238
 20
40.902923146497
 30
0.0
 10
12.35934145545692
 20
40.6364172052398
 30
0.0
 10
15.91205223912862
 20
40.69212354882767
 30
0.0
 10
20.52166032178071
 20
40.84621960573587
 30
0.0
 10
26.02965788656508
 20
40.94405430188339
 30
0.0
 10
32.46976247269784
 20
41.16890954828395
 30
0.0
 10
41.01993346691335
 20
41.87568551396712
 30
0.0
 10
51.80381898305875
 20
43.38704725210297
 30
0.0
 10
64.76163434731814
 20
45.63987850887076
 30
0.0
 10
82.0220167627948
 20
48.52676502798062
 30
0.0
 10
103.5906482722825
 20
51.65020223495967
 30
0.0
 10
129.6035865993672
 20
54.16178705180388
 30
0.0
 10
155.9252828849866
 20
55.59401789966556
 30
0.0
 10
182.4932335695386
 20
56.04284029774286
 30
0.0
 10
209.2569812870892
 20
55.8553703415415
 30
0.0
 10
227.0796126750024
 20
55.13773970643708
 30
0.0
 10
235.992525559774
 20
54.77886007778322
 30
0.0
  0
CIRCLE
  5
FF
330
1F
100
AcDbEntity
  8
0
  6
Continuous
 62
     7
370
    25
100
AcDbCircle
 10
1000.5462567317
 20
10.9252769868
 30
0.0
 40
2.000000000000005
  0
CIRCLE
  5
100
330
1F
100
AcDbEntity
  8
0
  6
Continuous
 62
     7
370
    25
100
AcDbCircle
 10
1001.8400904646
 20
48.0759800998
 30
0.0
 40
2.0
  0
SPLINE
  5
101
330
1F
100
AcDbEntity
  8
0
  6
Continuous
 62
     7
370
    25
100
AcDbSpline
210
0.0
220
0.0
230
1.0
 70
     8
 71
     3
 72
     9
 73
     5
 74
     0
 42
0.00000001
 43
0.00000001
 40
0.0
 40
0.0
 40
0.0
 40
0.0
 40
0.5600106846660954
 40
1.0
 40
1.0
 40
1.0
 40
1.0
 10
1002.812556891923
 20
75.99905136795729
 30
0.0
 10
1003.980860499846
 20
63.80763054056619
 30
0.0
 10
1006.06707713805
 20
42.03765157193243
 30
0.0
 10
1007.808608122641
 20
20.23750101299752
 30
0.0
 10
1008.574863148184
 20
10.6456676943957
 30
0.0
  0
ARC
  5
102
330
1F
100
AcDbEntity
  8
0
  6
Continuous
 62
     7
370
    25
100
AcDbCircle
 10
1000.9757602741
 20
10.0817213234
 30
0.0
 40
7.620000000000023
100
AcDbArc
 50
268.0053873342
 51
4.2442672792
  0
LINE
  5
103
330
1F
100
AcDbEntity
  8
0
  6
Continuous
 62
     7
370
    25
100
AcDbLine
 10
1000.7105421576
 20
2.4663382503
 30
0.0
 11
999.7938904749
 21
2.4982621378
 31
0.0
  0
ARC
  5
104
330
1F
100
AcDbEntity
  8
0
  6
Continuous
 62
     7
370
    25
100
AcDbCircle
 10
1000.0591085915
 20
10.1136452109
 30
0.0
 40
7.620000000000001
100
AcDbArc
 50
171.7665073892
 51
268.0053873342
  0
SPLINE
  5
105
330
1F
100
AcDbEntity
  8
0
  6
Continuous
 62
     7
370
    25
100
AcDbSpline
210
0.0
220
0.0
230
1.0
 70
     8
 71
     3
 72
     9
 73
     5
 74
     0
 42
0.00000001
 43
0.00000001
 40
0.0
 40
0.0
 40
0.0
 40
0.0
 40
0.5599915941740405
 40
1.0
 40
1.0
 40
1.0
 40
1.0
 10
992.5176503153006
 20
11.2048862791692
 30
0.0
 10
994.3553757757123
 20
23.31300569403828
 30
0.0
 10
997.6370776432594
 20
44.93497206074414
 30
0.0
 10
1001.23113947493
 20
66.50712343259354
 30
0.0
 10
1002.812556891923
 20
75.99905136795729
 30
0.0
  0
CIRCLE
  5
106
330
1F
100
AcDbEntity
  8
0
  6
Continuous
 62
     7
370
    25
100
AcDbCircle
 10
990.4465203331
 20
70.4159613722
 30
0.0
 40
1.999999999999994
  0
CIRCLE
  5
107
330
1F
100
AcDbEntity
  8
0
  6
Continuous
 62
     7
370
    25
100
AcDbCircle
 10
988.9410639906
 20
33.2732319529
 30
0.0
 40
2.000000000000001
  0
LINE
  5
108
330
1F
100
AcDbEntity
  8
0
  6
Continuous
 62
     7
370
    25
100
AcDbLine
 10
990.3304272477
 20
78.8756987585
 30
0.0
 11
991.2468821885
 21
78.8385533219
 31
0.0
  0
ARC
  5
109
330
1F
100
AcDbEntity
  8
0
  6
Continuous
 62
     7
370
    25
100
AcDbCircle
 10
990.9382843481
 20
71.2248047462
 30
0.0
 40
7.620000000000023
100
AcDbArc
 50
351.4400976602
 51
87.6789776052
  0
SPLINE
  5
10A
330
1F
100
AcDbEntity
  8
0
  6
Continuous
 62
     7
370
    25
100
AcDbSpline
210
0.0
220
0.0
230
1.0
 70
     8
 71
     3
 72
     9
 73
     5
 74
     0
 42
0.00000001
 43
0.00000001
 40
0.0
 40
0.0
 40
0.0
 40
0.0
 40
0.5599915941740246
 40
1.0
 40
1.0
 40
1.0
 40
1.0
 10
998.4734035614729
 20
70.09061850015398
 30
0.0
 10
996.566729253809
 20
57.99316489548708
 30
0.0
 10
993.1619025965867
 20
36.39024490432116
 30
0.0
 10
989.445004834762
 20
14.83891858114508
 30
0.0
 10
987.8095385759635
 20
5.356153842248982
 30
0.0
  0
SPLINE
  5
10B
330
1F
100
AcDbEntity
  8
0
  6
Continuous
 62
     7
370
    25
100
AcDbSpline
210
0.0
220
0.0
230
1.0
 70
     8
 71
     3
 72
     9
 73
     5
 74
     0
 42
0.00000001
 43
0.00000001
 40
0.0
 40
0.0
 40
0.0
 40
0.0
 40
0.5600106846660826
 40
1.0
 40
1.0
 40
1.0
 40
1.0
 10
987.8095385759635
 20
5.356153842248982
 30
0.0
 10
986.7107071547143
 20
17.55403253563219
 30
0.0
 10
984.7485456257702
 20
39.33554318780204
 30
0.0
 10
983.1312360414122
 20
61.14526130314788
 30
0.0
 10
982.4196371047074
 20
70.74130424434463
 30
0.0
  0
ARC
  5
10C
330
1F
100
AcDbEntity
  8
0
  6
Continuous
 62
     7
370
    25
100
AcDbCircle
 10
990.0218294074
 20
71.2619501829
 30
0.0
 40
7.620000000000046
100
AcDbArc
 50
87.6789776051
 51
183.9178575501
  0
CIRCLE
  5
10D
330
1F
100
AcDbEntity
  8
0
  6
Continuous
 62
     7
370
    25
100
AcDbCircle
 10
976.3776085531
 20
10.7158528508
 30
0.0
 40
2.000000000000002
  0
CIRCLE
  5
10E
330
1F
100
AcDbEntity
  8
0
  6
Continuous
 62
     7
370
    25
100
AcDbCircle
 10
976.0235259858
 20
47.8873926771
 30
0.0
 40
2.000000000000003
  0
SPLINE
  5
10F
330
1F
100
AcDbEntity
  8
0
  6
Continuous
 62
     7
370
    25
100
AcDbSpline
210
0.0
220
0.0
230
1.0
 70
     8
 71
     3
 72
     9
 73
     5
 74
     0
 42
0.00000001
 43
0.00000001
 40
0.0
 40
0.0
 40
0.0
 40
0.0
 40
0.5600106846660955
 40
1.0
 40
1.0
 40
1.0
 40
1.0
 10
975.7573917828747
 20
75.82612515701082
 30
0.0
 10
977.4649122138757
 20
63.69846878454776
 30
0.0
 10
980.5139976648419
 20
42.04235274152236
 30
0.0
 10
983.2200735137251
 20
20.34081712621133
 30
0.0
 10
984.4107179737167
 20
10.79237332913629
 30
0.0
  0
ARC
  5
110
330
1F
100
AcDbEntity
  8
0
  6
Continuous
 62
     7
370
    25
100
AcDbCircle
 10
976.8440792339
 20
9.8921632527
 30
0.0
 40
7.620000000000065
100
AcDbArc
 50
270.5457622477
 51
6.7846421927
  0
LINE
  5
111
330
1F
100
AcDbEntity
  8
0
  6
Continuous
 62
     7
370
    25
100
AcDbLine
 10
976.9166612893
 20
2.27250894
 30
0.0
 11
975.9994954842
 21
2.2637723521
 31
0.0
  0
ARC
  5
112
330
1F
100
AcDbEntity
  8
0
  6
Continuous
 62
     7
370
    25
100
AcDbCircle
 10
975.9269134289
 20
9.8834266648
 30
0.0
 40
7.620000000000027
100
AcDbArc
 50
174.3068823028
 51
270.5457622477
  0
SPLINE
  5
113
330
1F
100
AcDbEntity
  8
0
  6
Continuous
 62
     7
370
    25
100
AcDbSpline
210
0.0
220
0.0
230
1.0
 70
     8
 71
     3
 72
     9
 73
     5
 74
     0
 42
0.00000001
 43
0.00000001
 40
0.0
 40
0.0
 40
0.0
 40
0.0
 40
0.5599915941740407
 40
1.0
 40
1.0
 40
1.0
 40
1.0
 10
968.3444991325687
 20
10.63933237250916
 30
0.0
 10
969.6437457531053
 20
22.81700656964547
 30
0.0
 10
971.9638638299722
 20
44.56317976908029
 30
0.0
 10
974.5982428638408
 20
66.27343177972652
 30
0.0
 10
975.7573917828747
 20
75.82612515701082
 30
0.0
  0
CIRCLE
  5
114
330
1F
100
AcDbEntity
  8
0
  6
Continuous
 62
     7
370
    25
100
AcDbCircle
 10
964.3913037558
 20
69.7956975566
 30
0.0
 40
2.000000000000006
  0
CIRCLE
  5
115
330
1F
100
AcDbEntity
  8
0
  6
Continuous
 62
     7
370
    25
100
AcDbCircle
 10
963.497171662
 20
32.633226227
 30
0.0
 40
1.999999999999996
  0
LINE
  5
116
330
1F
100
AcDbEntity
  8
0
  6
Continuous
 62
     7
370
    25
100
AcDbLine
 10
964.1360357897
 20
78.2523796787
 30
0.0
 11
965.0529778399
 21
78.2303179781
 31
0.0
  0
ARC
  5
117
330
1F
100
AcDbEntity
  8
0
  6
Continuous
 62
     7
370
    25
100
AcDbCircle
 10
964.8696930608
 20
70.6125225825
 30
0.0
 40
7.619999999999991
100
AcDbArc
 50
352.3828448373
 51
88.6217247822
  0
SPLINE
  5
118
330
1F
100
AcDbEntity
  8
0
  6
Continuous
 62
     7
370
    25
100
AcDbSpline
210
0.0
220
0.0
230
1.0
 70
     8
 71
     3
 72
     9
 73
     5
 74
     0
 42
0.00000001
 43
0.00000001
 40
0.0
 40
0.0
 40
0.0
 40
0.0
 40
0.5599915941740244
 40
1.0
 40
1.0
 40
1.0
 40
1.0
 10
972.4224533913524
 20
69.60246744074338
 30
0.0
 10
970.7150802112409
 20
57.47528032021085
 30
0.0
 10
967.6661537668542
 20
35.81926396800134
 30
0.0
 10
964.3043495751884
 20
14.2096997003726
 30
0.0
 10
962.8251274721142
 20
4.701309776379323
 30
0.0
  0
SPLINE
  5
119
330
1F
100
AcDbEntity
  8
0
  6
Continuous
 62
     7
370
    25
100
AcDbSpline
210
0.0
220
0.0
230
1.0
 70
     8
 71
     3
 72
     9
 73
     5
 74
     0
 42
0.00000001
 43
0.00000001
 40
0.0
 40
0.0
 40
0.0
 40
0.0
 40
0.5600106846660826
 40
1.0
 40
1.0
 40
1.0
 40
1.0
 10
962.8251274721142
 20
4.701309776379323
 30
0.0
 10
961.5257494385977
 20
16.87945790476205
 30
0.0
 10
959.2054757918701
 20
38.62573607737257
 30
0.0
 10
957.2295433030998
 20
60.40589184730047
 30
0.0
 10
956.3601541202198
 20
69.9889276723771
 30
0.0
  0
ARC
  5
11A
330
1F
100
AcDbEntity
  8
0
  6
Continuous
 62
     7
370
    25
100
AcDbCircle
 10
963.9527510107
 20
70.6345842831
 30
0.0
 40
7.620000000000008
100
AcDbArc
 50
88.6217247822
 51
184.8606047272
  0
SPLINE
  5
11B
330
1F
100
AcDbEntity
  8
0
  6
Continuous
 62
     7
370
    25
100
AcDbSpline
210
0.0
220
0.0
230
1.0
 70
     8
 71
     3
 72
    31
 73
    27
 74
     0
 42
0.00000001
 43
0.00000001
 40
0.0
 40
0.0
 40
0.0
 40
0.0
 40
0.153515003832636
 40
0.3100717250102418
 40
0.4718237712858536
 40
0.6340408632091891
 40
0.6792124969583881
 40
0.7216853261768106
 40
0.7610422693637281
 40
0.8005349258972844
 40
0.846051451461148
 40
0.9035361532868867
 40
0.9289470269429495
 40
0.9527877401878733
 40
0.9697992949775036
 40
0.9734219649542312
 40
0.9747048087335678
 40
0.9750833729422622
 40
0.9754146795774358
 40
0.9757336855767846
 40
0.9760772030428577
 40
0.9764809352122489
 40
0.9778975408259699
 40
0.9800438806325121
 40
0.9851119113317075
 40
1.0
 40
1.0
 40
1.0
 40
1.0
 10
726.9490515870285
 20
39.19312932355294
 30
0.0
 10
723.5723840432538
 20
40.10887618605114
 30
0.0
 10
716.7521443015685
 20
41.95851434674258
 30
0.0
 10
706.3208318489933
 20
44.5712626343928
 30
0.0
 10
695.6524177927903
 20
47.0453216706178
 30
0.0
 10
687.4220588388974
 20
48.7913596261979
 30
0.0
 10
681.8317585829693
 20
49.8749959629268
 30
0.0
 10
678.9850047499259
 20
50.39804712127454
 30
0.0
 10
676.2591130563293
 20
50.86148671080913
 30
0.0
 10
673.4595639130647
 20
51.30383117768515
 30
0.0
 10
670.2513942688194
 20
51.80779172344511
 30
0.0
 10
667.362636236845
 20
52.27374369502723
 30
0.0
 10
664.9632487126273
 20
52.67882992669538
 30
0.0
 10
663.4713824210131
 20
52.90074228492866
 30
0.0
 10
662.4604398673422
 20
53.02027338090955
 30
0.0
 10
661.9601850320163
 20
52.99291605552477
 30
0.0
 10
661.8430747817117
 20
52.95531401351751
 30
0.0
 10
661.8070029800971
 20
52.9270393813924
 30
0.0
 10
661.7930485889956
 20
52.90768189364417
 30
0.0
 10
661.7870608083834
 20
52.88528843525668
 30
0.0
 10
661.7896377247922
 20
52.86068057612916
 30
0.0
 10
661.8085123768838
 20
52.81463734014131
 30
0.0
 10
661.870981594236
 20
52.74650387267775
 30
0.0
 10
662.0266218727711
 20
52.62679568039737
 30
0.0
 10
662.4643243162096
 20
52.3735940064926
 30
0.0
 10
662.8796066150675
 20
52.18809085571119
 30
0.0
 10
663.1894243493631
 20
52.04969784922413
 30
0.0
  0
ARC
  5
11C
330
1F
100
AcDbEntity
  8
0
  6
Continuous
 62
     7
370
    25
100
AcDbCircle
 10
725.6010698555
 20
34.2952374044
 30
0.0
 40
5.080000000000146
100
AcDbArc
 50
330.4018853824
 51
74.6122054623
  0
LINE
  5
11D
330
1F
100
AcDbEntity
  8
0
  6
Continuous
 62
     7
370
    25
100
AcDbLine
 10
727.9299161594
 20
28.1098555233
 30
0.0
 11
730.0181866639
 21
31.786158071
 31
0.0
  0
ARC
  5
11E
330
1F
100
AcDbEntity
  8
0
  6
Continuous
 62
     7
370
    25
100
AcDbCircle
 10
723.512799351
 20
30.6189348567
 30
0.0
 40
5.080000000000053
100
AcDbArc
 50
242.8174654035
 51
330.4018853824
  0
SPLINE
  5
11F
330
1F
100
AcDbEntity
  8
0
  6
Continuous
 62
     7
370
    25
100
AcDbSpline
210
0.0
220
0.0
230
1.0
 70
     8
 71
     3
 72
    14
 73
    10
 74
     0
 42
0.00000001
 43
0.00000001
 40
0.0
 40
0.0
 40
0.0
 40
0.0
 40
0.1119525779819337
 40
0.2239824102591575
 40
0.3359893928640953
 40
0.4479662170159491
 40
0.5599864505973803
 40
0.780006369030886
 40
1.0
 40
1.0
 40
1.0
 40
1.0
 10
663.1894243493631
 20
52.04969784922413
 30
0.0
 10
665.4382002073778
 20
51.28716585160873
 30
0.0
 10
669.9373037196881
 20
49.76157566150886
 30
0.0
 10
676.3785175885894
 20
46.70588932404469
 30
0.0
 10
682.9905384964553
 20
44.06106342995901
 30
0.0
 10
689.4936162206851
 20
41.1563817006796
 30
0.0
 10
697.9866036291241
 20
37.10562894289284
 30
0.0
 10
708.6844706187999
 20
32.36430493203004
 30
0.0
 10
717.023069113963
 20
28.18801318366157
 30
0.0
 10
721.1921192776111
 20
26.09999206031827
 30
0.0
  0
CIRCLE
  5
120
330
1F
100
AcDbEntity
  8
0
  6
Continuous
 62
     7
370
    25
100
AcDbCircle
 10
721.5135056458
 20
36.4466359404
 30
0.0
 40
1.999999999999889
  0
CIRCLE
  5
121
330
1F
100
AcDbEntity
  8
0
  6
Continuous
 62
     7
370
    25
100
AcDbCircle
 10
689.3901827934
 20
44.177571519
 30
0.0
 40
1.999999999999988
  0
SPLINE
  5
122
330
1F
100
AcDbEntity
  8
0
  6
Continuous
 62
     7
370
    25
100
AcDbSpline
210
0.0
220
0.0
230
1.0
 70
     8
 71
     3
 72
    31
 73
    27
 74
     0
 42
0.00000001
 43
0.00000001
 40
0.0
 40
0.0
 40
0.0
 40
0.0
 40
0.1535150038326365
 40
0.3100717250102416
 40
0.4718237712858535
 40
0.6340408632091894
 40
0.6792124969583885
 40
0.7216853261768115
 40
0.761042269363729
 40
0.8005349258972848
 40
0.8460514514611486
 40
0.9035361532868873
 40
0.9289470269429501
 40
0.9527877401878742
 40
0.9697992949775042
 40
0.9734219649542322
 40
0.9747048087335684
 40
0.9750833729422628
 40
0.9754146795774362
 40
0.975733685576785
 40
0.9760772030428582
 40
0.9764809352122491
 40
0.9778975408259707
 40
0.9800438806325129
 40
0.9851119113317084
 40
1.0
 40
1.0
 40
1.0
 40
1.0
 10
248.9490515870286
 20
39.19312932355288
 30
0.0
 10
245.5723840432539
 20
40.10887618605108
 30
0.0
 10
238.7521443015686
 20
41.95851434674252
 30
0.0
 10
228.3208318489933
 20
44.57126263439276
 30
0.0
 10
217.6524177927902
 20
47.04532167061776
 30
0.0
 10
209.4220588388974
 20
48.79135962619785
 30
0.0
 10
203.8317585829693
 20
49.87499596292676
 30
0.0
 10
200.9850047499261
 20
50.39804712127449
 30
0.0
 10
198.2591130563292
 20
50.86148671080907
 30
0.0
 10
195.4595639130647
 20
51.30383117768511
 30
0.0
 10
192.2513942688194
 20
51.80779172344506
 30
0.0
 10
189.362636236845
 20
52.27374369502718
 30
0.0
 10
186.9632487126274
 20
52.67882992669532
 30
0.0
 10
185.4713824210132
 20
52.90074228492863
 30
0.0
 10
184.4604398673421
 20
53.02027338090947
 30
0.0
 10
183.9601850320163
 20
52.99291605552474
 30
0.0
 10
183.8430747817117
 20
52.95531401351745
 30
0.0
 10
183.8070029800971
 20
52.92703938139234
 30
0.0
 10
183.7930485889956
 20
52.90768189364412
 30
0.0
 10
183.7870608083835
 20
52.88528843525662
 30
0.0
 10
183.7896377247922
 20
52.86068057612913
 30
0.0
 10
183.8085123768837
 20
52.81463734014122
 30
0.0
 10
183.870981594236
 20
52.74650387267774
 30
0.0
 10
184.0266218727712
 20
52.62679568039729
 30
0.0
 10
184.4643243162096
 20
52.37359400649259
 30
0.0
 10
184.8796066150674
 20
52.18809085571115
 30
0.0
 10
185.189424349363
 20
52.04969784922409
 30
0.0
  0
ARC
  5
123
330
1F
100
AcDbEntity
  8
0
  6
Continuous
 62
     7
370
    25
100
AcDbCircle
 10
247.6010698555
 20
34.2952374044
 30
0.0
 40
5.08000000000002
100
AcDbArc
 50
330.4018853824
 51
74.6122054623
  0
LINE
  5
124
330
1F
100
AcDbEntity
  8
0
  6
Continuous
 62
     7
370
    25
100
AcDbLine
 10
249.9299161594
 20
28.1098555233
 30
0.0
 11
252.0181866639
 21
31.786158071
 31
0.0
  0
ARC
  5
125
330
1F
100
AcDbEntity
  8
0
  6
Continuous
 62
     7
370
    25
100
AcDbCircle
 10
245.512799351
 20
30.6189348567
 30
0.0
 40
5.080000000000078
100
AcDbArc
 50
242.8174654035
 51
330.4018853824
  0
SPLINE
  5
126
330
1F
100
AcDbEntity
  8
0
  6
Continuous
 62
     7
370
    25
100
AcDbSpline
210
0.0
220
0.0
230
1.0
 70
     8
 71
     3
 72
    14
 73
    10
 74
     0
 42
0.00000001
 43
0.00000001
 40
0.0
 40
0.0
 40
0.0
 40
0.0
 40
0.111952577981934
 40
0.2239824102591578
 40
0.3359893928640956
 40
0.4479662170159497
 40
0.5599864505973805
 40
0.7800063690308863
 40
1.0
 40
1.0
 40
1.0
 40
1.0
 10
185.1894243493631
 20
52.04969784922409
 30
0.0
 10
187.4382002073778
 20
51.28716585160868
 30
0.0
 10
191.9373037196881
 20
49.76157566150881
 30
0.0
 10
198.3785175885893
 20
46.70588932404464
 30
0.0
 10
204.9905384964554
 20
44.06106342995894
 30
0.0
 10
211.4936162206852
 20
41.15638170067956
 30
0.0
 10
219.9866036291241
 20
37.10562894289278
 30
0.0
 10
230.6844706188
 20
32.36430493203
 30
0.0
 10
239.0230691139629
 20
28.18801318366151
 30
0.0
 10
243.1921192776112
 20
26.09999206031821
 30
0.0
  0
CIRCLE
  5
127
330
1F
100
AcDbEntity
  8
0
  6
Continuous
 62
     7
370
    25
100
AcDbCircle
 10
243.5135056458
 20
36.4466359404
 30
0.0
 40
1.999999999999988
  0
CIRCLE
  5
128
330
1F
100
AcDbEntity
  8
0
  6
Continuous
 62
     7
370
    25
100
AcDbCircle
 10
211.3901827934
 20
44.177571519
 30
0.0
 40
1.999999999999988
  0
SPLINE
  5
129
330
1F
100
AcDbEntity
  8
0
  6
Continuous
 62
     7
370
    25
100
AcDbSpline
210
0.0
220
0.0
230
1.0
 70
     8
 71
     3
 72
    31
 73
    27
 74
     0
 42
0.00000001
 43
0.00000001
 40
0.0
 40
0.0
 40
0.0
 40
0.0
 40
0.1535150038326362
 40
0.310071725010242
 40
0.4718237712858538
 40
0.6340408632091893
 40
0.6792124969583883
 40
0.721685326176811
 40
0.7610422693637284
 40
0.8005349258972847
 40
0.8460514514611485
 40
0.903536153286887
 40
0.9289470269429498
 40
0.9527877401878737
 40
0.9697992949775043
 40
0.9734219649542319
 40
0.974704808733568
 40
0.9750833729422625
 40
0.9754146795774361
 40
0.9757336855767847
 40
0.9760772030428578
 40
0.9764809352122488
 40
0.97789754082597
 40
0.980043880632512
 40
0.9851119113317075
 40
1.0
 40
1.0
 40
1.0
 40
1.0
 10
487.9490515870286
 20
39.19312932355291
 30
0.0
 10
484.5723840432539
 20
40.10887618605111
 30
0.0
 10
477.7521443015685
 20
41.95851434674255
 30
0.0
 10
467.3208318489933
 20
44.57126263439278
 30
0.0
 10
456.6524177927902
 20
47.04532167061777
 30
0.0
 10
448.4220588388973
 20
48.79135962619788
 30
0.0
 10
442.8317585829694
 20
49.87499596292678
 30
0.0
 10
439.985004749926
 20
50.39804712127452
 30
0.0
 10
437.2591130563292
 20
50.8614867108091
 30
0.0
 10
434.4595639130648
 20
51.30383117768513
 30
0.0
 10
431.2513942688194
 20
51.80779172344509
 30
0.0
 10
428.362636236845
 20
52.27374369502721
 30
0.0
 10
425.9632487126274
 20
52.67882992669534
 30
0.0
 10
424.4713824210132
 20
52.90074228492866
 30
0.0
 10
423.460439867342
 20
53.02027338090948
 30
0.0
 10
422.9601850320164
 20
52.99291605552477
 30
0.0
 10
422.8430747817117
 20
52.95531401351747
 30
0.0
 10
422.8070029800971
 20
52.92703938139237
 30
0.0
 10
422.7930485889956
 20
52.90768189364415
 30
0.0
 10
422.7870608083834
 20
52.88528843525665
 30
0.0
 10
422.7896377247922
 20
52.86068057612915
 30
0.0
 10
422.8085123768837
 20
52.81463734014125
 30
0.0
 10
422.870981594236
 20
52.74650387267776
 30
0.0
 10
423.0266218727711
 20
52.62679568039732
 30
0.0
 10
423.4643243162095
 20
52.3735940064926
 30
0.0
 10
423.8796066150674
 20
52.18809085571117
 30
0.0
 10
424.1894243493631
 20
52.04969784922412
 30
0.0
  0
ARC
  5
12A
330
1F
100
AcDbEntity
  8
0
  6
Continuous
 62
     7
370
    25
100
AcDbCircle
 10
486.6010698555
 20
34.2952374044
 30
0.0
 40
5.080000000000001
100
AcDbArc
 50
330.4018853824
 51
74.6122054623
  0
LINE
  5
12B
330
1F
100
AcDbEntity
  8
0
  6
Continuous
 62
     7
370
    25
100
AcDbLine
 10
488.9299161594
 20
28.1098555233
 30
0.0
 11
491.0181866639
 21
31.786158071
 31
0.0
  0
ARC
  5
12C
330
1F
100
AcDbEntity
  8
0
  6
Continuous
 62
     7
370
    25
100
AcDbCircle
 10
484.512799351
 20
30.6189348567
 30
0.0
 40
5.08000000000005
100
AcDbArc
 50
242.8174654035
 51
330.4018853824
  0
SPLINE
  5
12D
330
1F
100
AcDbEntity
  8
0
  6
Continuous
 62
     7
370
    25
100
AcDbSpline
210
0.0
220
0.0
230
1.0
 70
     8
 71
     3
 72
    14
 73
    10
 74
     0
 42
0.00000001
 43
0.00000001
 40
0.0
 40
0.0
 40
0.0
 40
0.0
 40
0.1119525779819339
 40
0.2239824102591577
 40
0.3359893928640952
 40
0.4479662170159493
 40
0.5599864505973802
 40
0.7800063690308862
 40
1.0
 40
1.0
 40
1.0
 40
1.0
 10
424.1894243493632
 20
52.04969784922411
 30
0.0
 10
426.4382002073777
 20
51.28716585160871
 30
0.0
 10
430.9373037196881
 20
49.76157566150884
 30
0.0
 10
437.3785175885893
 20
46.70588932404467
 30
0.0
 10
443.9905384964553
 20
44.06106342995897
 30
0.0
 10
450.4936162206851
 20
41.15638170067959
 30
0.0
 10
458.9866036291241
 20
37.10562894289279
 30
0.0
 10
469.6844706187999
 20
32.36430493203003
 30
0.0
 10
478.0230691139628
 20
28.18801318366154
 30
0.0
 10
482.1921192776113
 20
26.09999206031824
 30
0.0
  0
CIRCLE
  5
12E
330
1F
100
AcDbEntity
  8
0
  6
Continuous
 62
     7
370
    25
100
AcDbCircle
 10
482.5135056458
 20
36.4466359404
 30
0.0
 40
1.999999999999988
  0
CIRCLE
  5
12F
330
1F
100
AcDbEntity
  8
0
  6
Continuous
 62
     7
370
    25
100
AcDbCircle
 10
450.3901827934
 20
44.177571519
 30
0.0
 40
1.999999999999988
  0
SPLINE
  5
130
330
1F
100
AcDbEntity
  8
0
  6
Continuous
 62
     7
370
    25
100
AcDbSpline
210
0.0
220
0.0
230
1.0
 70
     8
 71
     3
 72
    31
 73
    27
 74
     0
 42
0.00000001
 43
0.00000001
 40
0.0
 40
0.0
 40
0.0
 40
0.0
 40
0.1535150038326361
 40
0.3100717250102418
 40
0.4718237712858537
 40
0.6340408632091891
 40
0.6792124969583883
 40
0.721685326176811
 40
0.7610422693637282
 40
0.8005349258972846
 40
0.8460514514611485
 40
0.9035361532868871
 40
0.9289470269429498
 40
0.9527877401878737
 40
0.9697992949775042
 40
0.9734219649542317
 40
0.9747048087335679
 40
0.9750833729422623
 40
0.975414679577436
 40
0.9757336855767847
 40
0.9760772030428579
 40
0.9764809352122489
 40
0.97789754082597
 40
0.9800438806325122
 40
0.9851119113317077
 40
1.0
 40
1.0
 40
1.0
 40
1.0
 10
734.313502238635
 20
84.49214615268549
 30
0.0
 10
730.8411228787791
 20
84.91999846201978
 30
0.0
 10
723.827563089051
 20
85.78418046568588
 30
0.0
 10
713.1312222125507
 20
86.89189204889668
 30
0.0
 10
702.219833324079
 20
87.82870532476977
 30
0.0
 10
693.8250787954764
 20
88.3904467748694
 30
0.0
 10
688.137620790932
 20
88.67070756101373
 30
0.0
 10
685.2454694147474
 20
88.78494554694444
 30
0.0
 10
682.4814097733793
 20
88.85730629132692
 30
0.0
 10
679.647426719486
 20
88.898343873794
 30
0.0
 10
676.400215130912
 20
88.94245279546601
 30
0.0
 10
673.474577596312
 20
88.9942140092993
 30
0.0
 10
671.041996850399
 20
89.05509307853612
 30
0.0
 10
669.5337386062733
 20
89.06329038409181
 30
0.0
 10
668.5160605605705
 20
89.03831189285607
 30
0.0
 10
668.0247351006296
 20
88.94031895467845
 30
0.0
 10
667.9141375418881
 20
88.88649605722809
 30
0.0
 10
667.8824379540305
 20
88.85339370348727
 30
0.0
 10
667.8713684228796
 20
88.8322536267836
 30
0.0
 10
667.8686154109085
 20
88.80923751459453
 30
0.0
 10
667.8746545065948
 20
88.7852434204814
 30
0.0
 10
667.8998652641905
 20
88.7423406260123
 30
0.0
 10
667.9713617040848
 20
88.68375025489509
 30
0.0
 10
668.142399182871
 20
88.58731308129497
 30
0.0
 10
668.6115735388161
 20
88.39871313329982
 30
0.0
 10
669.0489577772378
 20
88.27395001906031
 30
0.0
 10
669.3752644706295
 20
88.18087158666948
 30
0.0
  0
ARC
  5
131
330
1F
100
AcDbEntity
  8
0
  6
Continuous
 62
     7
370
    25
100
AcDbCircle
 10
733.6734154428
 20
79.4526333892
 30
0.0
 40
5.080000000000021
100
AcDbArc
 50
338.55109448
 51
82.7614145599
  0
LINE
  5
132
330
1F
100
AcDbEntity
  8
0
  6
Continuous
 62
     7
370
    25
100
AcDbLine
 10
736.8555326929
 20
73.6598271669
 30
0.0
 11
738.4015951235
 21
77.5950228524
 31
0.0
  0
ARC
  5
133
330
1F
100
AcDbEntity
  8
0
  6
Continuous
 62
     7
370
    25
100
AcDbCircle
 10
732.1273530122
 20
75.5174377037
 30
0.0
 40
5.080000000000021
100
AcDbArc
 50
250.966674501
 51
338.55109448
  0
SPLINE
  5
134
330
1F
100
AcDbEntity
  8
0
  6
Continuous
 62
     7
370
    25
100
AcDbSpline
210
0.0
220
0.0
230
1.0
 70
     8
 71
     3
 72
    14
 73
    10
 74
     0
 42
0.00000001
 43
0.00000001
 40
0.0
 40
0.0
 40
0.0
 40
0.0
 40
0.111952577981934
 40
0.2239824102591577
 40
0.3359893928640952
 40
0.4479662170159492
 40
0.5599864505973797
 40
0.7800063690308856
 40
1.0
 40
1.0
 40
1.0
 40
1.0
 10
669.3752644706295
 20
88.18087158666948
 30
0.0
 10
671.7094228486761
 20
87.74480671400505
 30
0.0
 10
676.3793503203403
 20
86.87237605658424
 30
0.0
 10
683.1886706399432
 20
84.76059673976795
 30
0.0
 10
690.1088331637449
 20
83.07974126107328
 30
0.0
 10
696.9579875291244
 20
81.12621104247309
 30
0.0
 10
705.9394152797237
 20
78.32025512952912
 30
0.0
 10
717.2013478424994
 20
75.14324608700639
 30
0.0
 10
726.0477409928938
 20
72.19113398553012
 30
0.0
 10
730.4706733157226
 20
70.71516611791937
 30
0.0
  0
CIRCLE
  5
135
330
1F
100
AcDbEntity
  8
0
  6
Continuous
 62
     7
370
    25
100
AcDbCircle
 10
729.3221624098
 20
81.0028894559
 30
0.0
 40
2.00000000000001
  0
CIRCLE
  5
136
330
1F
100
AcDbEntity
  8
0
  6
Continuous
 62
     7
370
    25
100
AcDbCircle
 10
696.4273404388
 20
84.1022318855
 30
0.0
 40
1.999999999999899
  0
SPLINE
  5
137
330
1F
100
AcDbEntity
  8
0
  6
Continuous
 62
     7
370
    25
100
AcDbSpline
210
0.0
220
0.0
230
1.0
 70
     8
 71
     3
 72
    31
 73
    27
 74
     0
 42
0.00000001
 43
0.00000001
 40
0.0
 40
0.0
 40
0.0
 40
0.0
 40
0.1535150038326364
 40
0.310071725010242
 40
0.4718237712858538
 40
0.6340408632091891
 40
0.6792124969583883
 40
0.7216853261768111
 40
0.7610422693637282
 40
0.8005349258972846
 40
0.8460514514611485
 40
0.9035361532868871
 40
0.9289470269429498
 40
0.9527877401878737
 40
0.9697992949775041
 40
0.9734219649542317
 40
0.9747048087335679
 40
0.9750833729422625
 40
0.9754146795774361
 40
0.9757336855767847
 40
0.9760772030428578
 40
0.9764809352122488
 40
0.97789754082597
 40
0.9800438806325122
 40
0.9851119113317076
 40
1.0
 40
1.0
 40
1.0
 40
1.0
 10
495.313502238635
 20
84.49214615268546
 30
0.0
 10
491.841122878779
 20
84.91999846201975
 30
0.0
 10
484.827563089051
 20
85.78418046568586
 30
0.0
 10
474.1312222125507
 20
86.89189204889664
 30
0.0
 10
463.2198333240789
 20
87.82870532476974
 30
0.0
 10
454.8250787954765
 20
88.39044677486939
 30
0.0
 10
449.1376207909319
 20
88.6707075610137
 30
0.0
 10
446.2454694147474
 20
88.78494554694441
 30
0.0
 10
443.4814097733792
 20
88.85730629132689
 30
0.0
 10
440.6474267194859
 20
88.89834387379398
 30
0.0
 10
437.400215130912
 20
88.94245279546598
 30
0.0
 10
434.4745775963121
 20
88.99421400929927
 30
0.0
 10
432.041996850399
 20
89.0550930785361
 30
0.0
 10
430.5337386062733
 20
89.06329038409174
 30
0.0
 10
429.5160605605705
 20
89.03831189285613
 30
0.0
 10
429.0247351006298
 20
88.94031895467839
 30
0.0
 10
428.9141375418881
 20
88.88649605722807
 30
0.0
 10
428.8824379540304
 20
88.85339370348724
 30
0.0
 10
428.8713684228796
 20
88.83225362678357
 30
0.0
 10
428.8686154109087
 20
88.80923751459451
 30
0.0
 10
428.8746545065947
 20
88.78524342048136
 30
0.0
 10
428.8998652641906
 20
88.74234062601228
 30
0.0
 10
428.9713617040848
 20
88.68375025489505
 30
0.0
 10
429.142399182871
 20
88.58731308129497
 30
0.0
 10
429.6115735388159
 20
88.39871313329975
 30
0.0
 10
430.0489577772378
 20
88.27395001906027
 30
0.0
 10
430.3752644706296
 20
88.18087158666945
 30
0.0
  0
ARC
  5
138
330
1F
100
AcDbEntity
  8
0
  6
Continuous
 62
     7
370
    25
100
AcDbCircle
 10
494.6734154428
 20
79.4526333892
 30
0.0
 40
5.079999999999984
100
AcDbArc
 50
338.55109448
 51
82.7614145599
  0
LINE
  5
139
330
1F
100
AcDbEntity
  8
0
  6
Continuous
 62
     7
370
    25
100
AcDbLine
 10
497.8555326929
 20
73.6598271669
 30
0.0
 11
499.4015951235
 21
77.5950228524
 31
0.0
  0
ARC
  5
13A
330
1F
100
AcDbEntity
  8
0
  6
Continuous
 62
     7
370
    25
100
AcDbCircle
 10
493.1273530122
 20
75.5174377037
 30
0.0
 40
5.080000000000079
100
AcDbArc
 50
250.966674501
 51
338.55109448
  0
SPLINE
  5
13B
330
1F
100
AcDbEntity
  8
0
  6
Continuous
 62
     7
370
    25
100
AcDbSpline
210
0.0
220
0.0
230
1.0
 70
     8
 71
     3
 72
    14
 73
    10
 74
     0
 42
0.00000001
 43
0.00000001
 40
0.0
 40
0.0
 40
0.0
 40
0.0
 40
0.1119525779819339
 40
0.2239824102591576
 40
0.3359893928640951
 40
0.4479662170159491
 40
0.5599864505973798
 40
0.7800063690308859
 40
1.0
 40
1.0
 40
1.0
 40
1.0
 10
430.3752644706296
 20
88.18087158666945
 30
0.0
 10
432.7094228486761
 20
87.74480671400502
 30
0.0
 10
437.3793503203404
 20
86.87237605658422
 30
0.0
 10
444.1886706399434
 20
84.7605967397679
 30
0.0
 10
451.1088331637447
 20
83.07974126107325
 30
0.0
 10
457.9579875291243
 20
81.12621104247306
 30
0.0
 10
466.9394152797237
 20
78.32025512952909
 30
0.0
 10
478.2013478424994
 20
75.14324608700637
 30
0.0
 10
487.0477409928936
 20
72.19113398553009
 30
0.0
 10
491.4706733157226
 20
70.71516611791934
 30
0.0
  0
CIRCLE
  5
13C
330
1F
100
AcDbEntity
  8
0
  6
Continuous
 62
     7
370
    25
100
AcDbCircle
 10
490.3221624098
 20
81.0028894559
 30
0.0
 40
2.00000000000001
  0
CIRCLE
  5
13D
330
1F
100
AcDbEntity
  8
0
  6
Continuous
 62
     7
370
    25
100
AcDbCircle
 10
457.4273404388
 20
84.1022318855
 30
0.0
 40
2.000000000000004
  0
ARC
  5
13E
330
1F
100
AcDbEntity
  8
0
  6
Continuous
 62
     7
370
    25
100
AcDbCircle
 10
1001.1051332678
 20
137.2143849304
 30
0.0
 40
5.080000000000116
100
AcDbArc
 50
313.1443268012
 51
57.3546468811
  0
SPLINE
  5
13F
330
1F
100
AcDbEntity
  8
0
  6
Continuous
 62
     7
370
    25
100
AcDbSpline
210
0.0
220
0.0
230
1.0
 70
     8
 71
     3
 72
    31
 73
    27
 74
     0
 42
0.00000001
 43
0.00000001
 40
0.0
 40
0.0
 40
0.0
 40
0.0
 40
0.1535150038326364
 40
0.3100717250102421
 40
0.4718237712858533
 40
0.6340408632091892
 40
0.6792124969583878
 40
0.7216853261768108
 40
0.761042269363728
 40
0.8005349258972844
 40
0.8460514514611482
 40
0.903536153286887
 40
0.9289470269429493
 40
0.9527877401878736
 40
0.9697992949775035
 40
0.9734219649542317
 40
0.9747048087335677
 40
0.9750833729422619
 40
0.9754146795774362
 40
0.9757336855767845
 40
0.9760772030428577
 40
0.9764809352122487
 40
0.97789754082597
 40
0.980043880632512
 40
0.9851119113317073
 40
1.0
 40
1.0
 40
1.0
 40
1.0
 10
1004.579032635352
 20
133.5078470331601
 30
0.0
 10
1002.017380300821
 20
131.124904873906
 30
0.0
 10
996.8433195353318
 20
126.3118053886915
 30
0.0
 10
988.8290879243526
 20
119.1416711651601
 30
0.0
 10
980.540447190933
 20
111.9838459799791
 30
0.0
 10
974.0702750064033
 20
106.6057116422379
 30
0.0
 10
969.627891326059
 20
103.0432754114658
 30
0.0
 10
967.3522934986519
 20
101.2546322307012
 30
0.0
 10
965.1558887274259
 20
99.5750287479397
 30
0.0
 10
962.8844776105396
 20
97.87978965830837
 30
0.0
 10
960.2801596533342
 20
95.93972350590083
 30
0.0
 10
957.9407988877433
 20
94.18204736521623
 30
0.0
 10
956.0061528775811
 20
92.70614080929168
 30
0.0
 10
954.7892968621373
 20
91.8149777689502
 30
0.0
 10
953.950346345017
 20
91.23838904242898
 30
0.0
 10
953.4949128306919
 20
91.02962209689112
 30
0.0
 10
953.3737660737909
 20
91.0083573941699
 30
0.0
 10
953.3286769583467
 20
91.0165793989141
 30
0.0
 10
953.3073131551491
 20
91.02721073353686
 30
0.0
 10
953.2915853824733
 20
91.04423887676741
 30
0.0
 10
953.2824055255205
 20
91.06721533113563
 30
0.0
 10
953.2776653124989
 20
91.11675079774616
 30
0.0
 10
953.3012156750448
 20
91.20613733436753
 30
0.0
 10
953.3831971840975
 20
91.38455532610313
 30
0.0
 10
953.6526152752385
 20
91.81246700954514
 30
0.0
 10
953.9337212516301
 20
92.17002852415686
 30
0.0
 10
954.1434379117
 20
92.43678417117815
 30
0.0
  0
SPLINE
  5
140
330
1F
100
AcDbEntity
  8
0
  6
Continuous
 62
     7
370
    25
100
AcDbSpline
210
0.0
220
0.0
230
1.0
 70
     8
 71
     3
 72
    14
 73
    10
 74
     0
 42
0.00000001
 43
0.00000001
 40
0.0
 40
0.0
 40
0.0
 40
0.0
 40
0.1119525779819335
 40
0.2239824102591576
 40
0.3359893928640952
 40
0.4479662170159493
 40
0.5599864505973802
 40
0.7800063690308858
 40
1.0
 40
1.0
 40
1.0
 40
1.0
 10
954.1434379117
 20
92.43678417117815
 30
0.0
 10
955.7783344522445
 20
94.15886465962578
 30
0.0
 10
959.0492557144116
 20
97.60421397998728
 30
0.0
 10
963.3262281644656
 20
103.3080689710762
 30
0.0
 10
967.9456977058182
 20
108.7278868326468
 30
0.0
 10
972.3477407923396
 20
114.3269235801768
 30
0.0
 10
977.9769807604231
 20
121.8668897874191
 30
0.0
 10
985.2357851651919
 20
131.0448127614957
 30
0.0
 10
990.669935607198
 20
138.6239714618179
 30
0.0
 10
993.386848503613
 20
142.413324413423
 30
0.0
  0
ARC
  5
141
330
1F
100
AcDbEntity
  8
0
  6
Continuous
 62
     7
370
    25
100
AcDbCircle
 10
997.5450397903
 20
139.4951322978
 30
0.0
 40
5.080000000000018
100
AcDbArc
 50
57.3546468811
 51
144.9390668601
  0
LINE
  5
142
330
1F
100
AcDbEntity
  8
0
  6
Continuous
 62
     7
370
    25
100
AcDbLine
 10
1003.8454756094
 20
141.4918752987
 30
0.0
 11
1000.2853821319
 21
143.7726226661
 31
0.0
  0
CIRCLE
  5
143
330
1F
100
AcDbEntity
  8
0
  6
Continuous
 62
     7
370
    25
100
AcDbCircle
 10
998.4898459451
 20
133.4068963816
 30
0.0
 40
2.000000000000031
  0
CIRCLE
  5
144
330
1F
100
AcDbEntity
  8
0
  6
Continuous
 62
     7
370
    25
100
AcDbCircle
 10
973.6632236471
 20
111.6051977947
 30
0.0
 40
2.000000000000043
  0
SPLINE
  5
145
330
1F
100
AcDbEntity
  8
0
  6
Continuous
 62
     7
370
    25
100
AcDbSpline
210
0.0
220
0.0
230
1.0
 70
     8
 71
     3
 72
    31
 73
    27
 74
     0
 42
0.00000001
 43
0.00000001
 40
0.0
 40
0.0
 40
0.0
 40
0.0
 40
0.1535150038326365
 40
0.3100717250102419
 40
0.4718237712858535
 40
0.6340408632091896
 40
0.6792124969583881
 40
0.7216853261768108
 40
0.7610422693637282
 40
0.8005349258972845
 40
0.8460514514611487
 40
0.9035361532868875
 40
0.9289470269429498
 40
0.9527877401878743
 40
0.9697992949775045
 40
0.9734219649542322
 40
0.974704808733568
 40
0.9750833729422627
 40
0.9754146795774363
 40
0.9757336855767851
 40
0.9760772030428583
 40
0.9764809352122492
 40
0.9778975408259705
 40
0.9800438806325126
 40
0.9851119113317081
 40
1.0
 40
1.0
 40
1.0
 40
1.0
 10
996.9209112994494
 20
94.68452399237549
 30
0.0
 10
993.4438197245116
 20
94.29682540216083
 30
0.0
 10
986.4207421376792
 20
93.51374643495477
 30
0.0
 10
975.7585622939082
 20
92.1149419178908
 30
0.0
 10
964.9267436964345
 20
90.50009441402597
 30
0.0
 10
956.6300194362873
 20
89.10301760749945
 30
0.0
 10
951.0322031516488
 20
88.05890195052207
 30
0.0
 10
948.192182884321
 20
87.5004444486812
 30
0.0
 10
945.4864695398286
 20
86.93090333883576
 30
0.0
 10
942.7199845429647
 20
86.31470142788727
 30
0.0
 10
939.5507873198181
 20
85.60581662854477
 30
0.0
 10
936.6926553490622
 20
84.97882711917407
 30
0.0
 10
934.3120728858729
 20
84.47486037184568
 30
0.0
 10
932.8428960531612
 20
84.13364260997442
 30
0.0
 10
931.8586512640438
 20
83.87372969220675
 30
0.0
 10
931.4033624278139
 20
83.66464741384615
 30
0.0
 10
931.3082308871872
 20
83.58668130410982
 30
0.0
 10
931.2850564402388
 20
83.54713924166776
 30
0.0
 10
931.2791820234945
 20
83.52401071835031
 30
0.0
 10
931.2818325070115
 20
83.50098257399742
 30
0.0
 10
931.29326263997
 20
83.47903857049823
 30
0.0
 10
931.3277212896473
 20
83.44313824272537
 30
0.0
 10
931.4108400352939
 20
83.40269264188419
 30
0.0
 10
931.5995575996185
 20
83.34847430073611
 30
0.0
 10
932.0996492362956
 20
83.27362196886916
 30
0.0
 10
932.5540349697328
 20
83.25351197276834
 30
0.0
 10
932.8930254800844
 20
83.23850908570627
 30
0.0
  0
ARC
  5
146
330
1F
100
AcDbEntity
  8
0
  6
Continuous
 62
     7
370
    25
100
AcDbCircle
 10
997.4649649367
 20
89.6337413164
 30
0.0
 40
5.080000000000008
100
AcDbArc
 50
351.937687073
 51
96.1480071529
  0
LINE
  5
147
330
1F
100
AcDbEntity
  8
0
  6
Continuous
 62
     7
370
    25
100
AcDbLine
 10
1001.9017763476
 20
84.7350497946
 30
0.0
 11
1002.4947548427
 21
88.9212713161
 31
0.0
  0
ARC
  5
148
330
1F
100
AcDbEntity
  8
0
  6
Continuous
 62
     7
370
    25
100
AcDbCircle
 10
996.8719864416
 20
85.4475197949
 30
0.0
 40
5.080000000000009
100
AcDbArc
 50
264.3532670941
 51
351.937687073
  0
SPLINE
  5
149
330
1F
100
AcDbEntity
  8
0
  6
Continuous
 62
     7
370
    25
100
AcDbSpline
210
0.0
220
0.0
230
1.0
 70
     8
 71
     3
 72
    14
 73
    10
 74
     0
 42
0.00000001
 43
0.00000001
 40
0.0
 40
0.0
 40
0.0
 40
0.0
 40
0.1119525779819344
 40
0.2239824102591582
 40
0.3359893928640953
 40
0.4479662170159494
 40
0.5599864505973797
 40
0.7800063690308859
 40
1.0
 40
1.0
 40
1.0
 40
1.0
 10
932.8930254800844
 20
83.23850908570627
 30
0.0
 10
935.264722819502
 20
83.3546970247358
 30
0.0
 10
940.0097541181444
 20
83.58715307975477
 30
0.0
 10
947.1229854643078
 20
83.10924627518737
 30
0.0
 10
954.2442798401088
 20
83.07621735953572
 30
0.0
 10
961.359625071223
 20
82.76148242686895
 30
0.0
 10
970.7466638152322
 20
82.1111466343014
 30
0.0
 10
982.4381525598662
 20
81.62782227232903
 30
0.0
 10
991.7276637021668
 20
80.8040380966504
 30
0.0
 10
996.3721417844832
 20
80.39217061623195
 30
0.0
  0
CIRCLE
  5
14A
330
1F
100
AcDbEntity
  8
0
  6
Continuous
 62
     7
370
    25
100
AcDbCircle
 10
992.8730194002
 20
90.1344737998
 30
0.0
 40
2.000000000000053
  0
CIRCLE
  5
14B
330
1F
100
AcDbEntity
  8
0
  6
Continuous
 62
     7
370
    25
100
AcDbCircle
 10
960.1543864871
 20
85.5337894711
 30
0.0
 40
2.000000000000049
  0
SPLINE
  5
14C
330
1F
100
AcDbEntity
  8
0
  6
Continuous
 62
     7
370
    25
100
AcDbSpline
210
0.0
220
0.0
230
1.0
 70
     8
 71
     3
 72
    31
 73
    27
 74
     0
 42
0.00000001
 43
0.00000001
 40
0.0
 40
0.0
 40
0.0
 40
0.0
 40
0.1535150038326364
 40
0.3100717250102421
 40
0.4718237712858536
 40
0.6340408632091893
 40
0.6792124969583876
 40
0.7216853261768104
 40
0.7610422693637283
 40
0.8005349258972839
 40
0.8460514514611486
 40
0.9035361532868863
 40
0.9289470269429492
 40
0.9527877401878738
 40
0.9697992949775038
 40
0.9734219649542314
 40
0.9747048087335679
 40
0.9750833729422623
 40
0.975414679577436
 40
0.9757336855767847
 40
0.9760772030428582
 40
0.9764809352122491
 40
0.9778975408259705
 40
0.9800438806325124
 40
0.9851119113317077
 40
1.0
 40
1.0
 40
1.0
 40
1.0
 10
256.313502238635
 20
84.49214615268544
 30
0.0
 10
252.841122878779
 20
84.91999846201972
 30
0.0
 10
245.827563089051
 20
85.78418046568584
 30
0.0
 10
235.1312222125507
 20
86.89189204889661
 30
0.0
 10
224.219833324079
 20
87.82870532476971
 30
0.0
 10
215.8250787954765
 20
88.39044677486935
 30
0.0
 10
210.1376207909319
 20
88.6707075610137
 30
0.0
 10
207.2454694147474
 20
88.78494554694439
 30
0.0
 10
204.4814097733793
 20
88.85730629132686
 30
0.0
 10
201.6474267194859
 20
88.89834387379395
 30
0.0
 10
198.400215130912
 20
88.94245279546595
 30
0.0
 10
195.474577596312
 20
88.99421400929924
 30
0.0
 10
193.041996850399
 20
89.05509307853607
 30
0.0
 10
191.5337386062733
 20
89.06329038409174
 30
0.0
 10
190.5160605605706
 20
89.03831189285604
 30
0.0
 10
190.0247351006298
 20
88.94031895467839
 30
0.0
 10
189.914137541888
 20
88.88649605722804
 30
0.0
 10
189.8824379540304
 20
88.85339370348721
 30
0.0
 10
189.8713684228797
 20
88.83225362678354
 30
0.0
 10
189.8686154109085
 20
88.80923751459449
 30
0.0
 10
189.8746545065948
 20
88.78524342048134
 30
0.0
 10
189.8998652641905
 20
88.74234062601225
 30
0.0
 10
189.9713617040848
 20
88.68375025489503
 30
0.0
 10
190.142399182871
 20
88.58731308129494
 30
0.0
 10
190.6115735388161
 20
88.39871313329972
 30
0.0
 10
191.0489577772379
 20
88.27395001906024
 30
0.0
 10
191.3752644706296
 20
88.18087158666943
 30
0.0
  0
ARC
  5
14D
330
1F
100
AcDbEntity
  8
0
  6
Continuous
 62
     7
370
    25
100
AcDbCircle
 10
255.6734154428
 20
79.4526333892
 30
0.0
 40
5.079999999999995
100
AcDbArc
 50
338.55109448
 51
82.7614145599
  0
LINE
  5
14E
330
1F
100
AcDbEntity
  8
0
  6
Continuous
 62
     7
370
    25
100
AcDbLine
 10
258.8555326929
 20
73.6598271669
 30
0.0
 11
260.4015951235
 21
77.5950228524
 31
0.0
  0
ARC
  5
14F
330
1F
100
AcDbEntity
  8
0
  6
Continuous
 62
     7
370
    25
100
AcDbCircle
 10
254.1273530122
 20
75.5174377037
 30
0.0
 40
5.080000000000052
100
AcDbArc
 50
250.966674501
 51
338.55109448
  0
SPLINE
  5
150
330
1F
100
AcDbEntity
  8
0
  6
Continuous
 62
     7
370
    25
100
AcDbSpline
210
0.0
220
0.0
230
1.0
 70
     8
 71
     3
 72
    14
 73
    10
 74
     0
 42
0.00000001
 43
0.00000001
 40
0.0
 40
0.0
 40
0.0
 40
0.0
 40
0.1119525779819336
 40
0.2239824102591577
 40
0.3359893928640948
 40
0.4479662170159492
 40
0.5599864505973802
 40
0.7800063690308856
 40
1.0
 40
1.0
 40
1.0
 40
1.0
 10
191.3752644706296
 20
88.18087158666943
 30
0.0
 10
193.7094228486762
 20
87.744806714005
 30
0.0
 10
198.3793503203404
 20
86.87237605658419
 30
0.0
 10
205.1886706399433
 20
84.76059673976789
 30
0.0
 10
212.1088331637447
 20
83.07974126107324
 30
0.0
 10
218.9579875291244
 20
81.12621104247303
 30
0.0
 10
227.9394152797237
 20
78.32025512952907
 30
0.0
 10
239.2013478424995
 20
75.14324608700632
 30
0.0
 10
248.0477409928937
 20
72.19113398553006
 30
0.0
 10
252.4706733157226
 20
70.71516611791931
 30
0.0
  0
CIRCLE
  5
151
330
1F
100
AcDbEntity
  8
0
  6
Continuous
 62
     7
370
    25
100
AcDbCircle
 10
251.3221624098
 20
81.0028894559
 30
0.0
 40
1.999999999999984
  0
CIRCLE
  5
152
330
1F
100
AcDbEntity
  8
0
  6
Continuous
 62
     7
370
    25
100
AcDbCircle
 10
218.4273404388
 20
84.1022318855
 30
0.0
 40
2.000000000000004
  0
MTEXT
  5
154
330
1F
100
AcDbEntity
  8
0
  6
Continuous
 62
     7
100
AcDbMText
 10
0.0
 20
7.3534328773
 30
0.0
 40
2.63652
 41
0.0
 71
     1
 72
     1
  1
SOLIDWORKS Educational Product.
  7
SLDTEXTSTYLE0
 73
     1
 44
1.0
  0
MTEXT
  5
155
330
1F
100
AcDbEntity
  8
0
  6
Continuous
 62
     7
100
AcDbMText
 10
0.0
 20
3.3986528773
 30
0.0
 40
2.63652
 41
0.0
 71
     1
 72
     1
  1
For Instructional Use Only.
  7
SLDTEXTSTYLE0
 73
     1
 44
1.0
  0
ENDSEC
  0
SECTION
  2
OBJECTS
  0
DICTIONARY
  5
C
330
0
100
AcDbDictionary
281
     1
  3
ACAD_GROUP
350
D
  3
ACAD_LAYOUT
350
1A
  3
ACAD_MLINESTYLE
350
17
  3
ACAD_PLOTSETTINGS
350
19
  3
ACAD_PLOTSTYLENAME
350
E
  3
ACAD_SCALELIST
350
47
  3
DWGPROPS
350
156
  0
DICTIONARY
  5
D
102
{ACAD_REACTORS
330
C
102
}
330
C
100
AcDbDictionary
281
     1
  0
DICTIONARY
  5
1A
102
{ACAD_REACTORS
330
C
102
}
330
C
100
AcDbDictionary
281
     1
  3
Layout1
350
1E
  3
Layout2
350
26
  3
Model
350
22
  0
DICTIONARY
  5
17
102
{ACAD_REACTORS
330
C
102
}
330
C
100
AcDbDictionary
281
     1
  3
Standard
350
18
  0
DICTIONARY
  5
19
102
{ACAD_REACTORS
330
C
102
}
330
C
100
AcDbDictionary
281
     1
  0
ACDBDICTIONARYWDFLT
  5
E
102
{ACAD_REACTORS
330
C
102
}
330
C
100
AcDbDictionary
281
     1
  3
Normal
350
F
100
AcDbDictionaryWithDefault
340
F
  0
DICTIONARY
  5
47
102
{ACAD_REACTORS
330
C
102
}
330
C
100
AcDbDictionary
281
     1
  3
A0
350
48
  3
A1
350
49
  3
A2
350
4A
  3
A3
350
4B
  3
A4
350
4C
  3
A5
350
4D
  3
A6
350
4E
  3
A7
350
4F
  3
A8
350
50
  3
A9
350
51
  3
B0
350
52
  3
B1
350
53
  3
B2
350
54
  3
B3
350
55
  3
B4
350
56
  3
B5
350
57
  3
B6
350
58
  0
XRECORD
  5
156
102
{ACAD_REACTORS
330
C
102
}
330
C
100
AcDbXrecord
280
     1
  1
DWGPROPS COOKIE
  2

  3

  4

  6

  7

  8
joshu
  9

300
=
301
=
302
=
303
=
304
=
305
=
306
=
307
=
308
=
309
=
 40
0.0
 41
2460356.738704792
 42
2460356.738705255
  1

 90
        0
  0
LAYOUT
  5
1E
102
{ACAD_REACTORS
330
1A
102
}
330
1A
100
AcDbPlotSettings
  1

  2
none_device
  4

  6

 40
0.0
 41
0.0
 42
0.0
 43
0.0
 44
0.0
 45
0.0
 46
0.0
 47
0.0
 48
0.0
 49
0.0
140
0.0
141
0.0
142
1.0
143
1.0
 70
   688
 72
     1
 73
     0
 74
     5
  7

 75
    16
147
1.0
148
0.0
149
0.0
100
AcDbLayout
  1
Layout1
 70
     1
 71
     1
 10
0.0
 20
0.0
 11
420.0
 21
297.0
 12
0.0
 22
0.0
 32
0.0
 14
1.0000000000E+20
 24
1.0000000000E+20
 34
1.0000000000E+20
 15
-1.0000000000E+20
 25
-1.0000000000E+20
 35
-1.0000000000E+20
146
0.0
 13
0.0
 23
0.0
 33
0.0
 16
1.0
 26
0.0
 36
0.0
 17
0.0
 27
1.0
 37
0.0
 76
     0
330
1B
  0
LAYOUT
  5
26
102
{ACAD_REACTORS
330
1A
102
}
330
1A
100
AcDbPlotSettings
  1

  2
none_device
  4

  6

 40
0.0
 41
0.0
 42
0.0
 43
0.0
 44
0.0
 45
0.0
 46
0.0
 47
0.0
 48
0.0
 49
0.0
140
0.0
141
0.0
142
1.0
143
1.0
 70
   688
 72
     1
 73
     0
 74
     5
  7

 75
    16
147
1.0
148
0.0
149
0.0
100
AcDbLayout
  1
Layout2
 70
     1
 71
     2
 10
0.0
 20
0.0
 11
0.0
 21
0.0
 12
0.0
 22
0.0
 32
0.0
 14
0.0
 24
0.0
 34
0.0
 15
0.0
 25
0.0
 35
0.0
146
0.0
 13
0.0
 23
0.0
 33
0.0
 16
1.0
 26
0.0
 36
0.0
 17
0.0
 27
1.0
 37
0.0
 76
     0
330
23
  0
LAYOUT
  5
22
102
{ACAD_REACTORS
330
1A
102
}
330
1A
100
AcDbPlotSettings
  1

  2
none_device
  4
Letter_(8.50_x_11.00_Inches)
  6

 40
6.35
 41
6.35
 42
6.35000508
 43
6.35000508
 44
215.9
 45
279.4
 46
0.0
 47
0.0
 48
0.0
 49
0.0
140
0.0
141
0.0
142
1.0
143
1.0
 70
  1712
 72
     1
 73
     0
 74
     0
  7

 75
     0
147
1.0
148
0.0
149
0.0
100
AcDbLayout
  1
Model
 70
     1
 71
     0
 10
0.0
 20
0.0
 11
1016.0
 21
152.4
 12
0.0
 22
0.0
 32
0.0
 14
0.0
 24
0.0
 34
0.0
 15
1016.0
 25
152.4
 35
0.0
146
0.0
 13
0.0
 23
0.0
 33
0.0
 16
1.0
 26
0.0
 36
0.0
 17
0.0
 27
1.0
 37
0.0
 76
     0
330
1F
331
29
  0
MLINESTYLE
  5
18
102
{ACAD_REACTORS
330
17
102
}
330
17
100
AcDbMlineStyle
  2
Standard
 70
     0
  3

 62
   256
 51
90.0
 52
90.0
 71
     2
 49
0.5
 62
   256
  6
BYLAYER
 49
-0.5
 62
   256
  6
BYLAYER
  0
ACDBPLACEHOLDER
  5
F
102
{ACAD_REACTORS
330
E
102
}
330
E
  0
SCALE
  5
48
102
{ACAD_REACTORS
330
47
102
}
330
47
100
AcDbScale
 70
     0
300
1:1
140
1.0
141
1.0
290
     1
  0
SCALE
  5
49
102
{ACAD_REACTORS
330
47
102
}
330
47
100
AcDbScale
 70
     0
300
1:2
140
1.0
141
2.0
290
     0
  0
SCALE
  5
4A
102
{ACAD_REACTORS
330
47
102
}
330
47
100
AcDbScale
 70
     0
300
1:4
140
1.0
141
4.0
290
     0
  0
SCALE
  5
4B
102
{ACAD_REACTORS
330
47
102
}
330
47
100
AcDbScale
 70
     0
300
1:5
140
1.0
141
5.0
290
     0
  0
SCALE
  5
4C
102
{ACAD_REACTORS
330
47
102
}
330
47
100
AcDbScale
 70
     0
300
1:8
140
1.0
141
8.0
290
     0
  0
SCALE
  5
4D
102
{ACAD_REACTORS
330
47
102
}
330
47
100
AcDbScale
 70
     0
300
1:10
140
1.0
141
10.0
290
     0
  0
SCALE
  5
4E
102
{ACAD_REACTORS
330
47
102
}
330
47
100
AcDbScale
 70
     0
300
1:16
140
1.0
141
16.0
290
     0
  0
SCALE
  5
4F
102
{ACAD_REACTORS
330
47
102
}
330
47
100
AcDbScale
 70
     0
300
1:20
140
1.0
141
20.0
290
     0
  0
SCALE
  5
50
102
{ACAD_REACTORS
330
47
102
}
330
47
100
AcDbScale
 70
     0
300
1:30
140
1.0
141
30.0
290
     0
  0
SCALE
  5
51
102
{ACAD_REACTORS
330
47
102
}
330
47
100
AcDbScale
 70
     0
300
1:40
140
1.0
141
40.0
290
     0
  0
SCALE
  5
52
102
{ACAD_REACTORS
330
47
102
}
330
47
100
AcDbScale
 70
     0
300
1:50
140
1.0
141
50.0
290
     0
  0
SCALE
  5
53
102
{ACAD_REACTORS
330
47
102
}
330
47
100
AcDbScale
 70
     0
300
1:100
140
1.0
141
100.0
290
     0
  0
SCALE
  5
54
102
{ACAD_REACTORS
330
47
102
}
330
47
100
AcDbScale
 70
     0
300
2:1
140
2.0
141
1.0
290
     0
  0
SCALE
  5
55
102
{ACAD_REACTORS
330
47
102
}
330
47
100
AcDbScale
 70
     0
300
4:1
140
4.0
141
1.0
290
     0
  0
SCALE
  5
56
102
{ACAD_REACTORS
330
47
102
}
330
47
100
AcDbScale
 70
     0
300
8:1
140
8.0
141
1.0
290
     0
  0
SCALE
  5
57
102
{ACAD_REACTORS
330
47
102
}
330
47
100
AcDbScale
 70
     0
300
10:1
140
10.0
141
1.0
290
     0
  0
SCALE
  5
58
102
{ACAD_REACTORS
330
47
102
}
330
47
100
AcDbScale
 70
     0
300
100:1
140
100.0
141
1.0
290
     0
  0
ENDSEC
  0
EOF
