  0
SECTION
  2
HEADER
  9
$ACADVER
  1
AC1015
  9
$ACADMAINTVER
 70
     6
  9
$DWGCODEPAGE
  3
ANSI_1252
  9
$INSBASE
 10
0.0
 20
0.0
 30
0.0
  9
$EXTMIN
 10
0.0
 20
0.0
 30
0.0
  9
$EXTMAX
 10
1016.0
 20
152.4
 30
0.0
  9
$LIMMIN
 10
0.0
 20
0.0
  9
$LIMMAX
 10
1016.0
 20
152.4
  9
$ORTHOMODE
 70
     0
  9
$REGENMODE
 70
     1
  9
$FILLMODE
 70
     1
  9
$QTEXTMODE
 70
     0
  9
$MIRRTEXT
 70
     1
  9
$LTSCALE
 40
1.0
  9
$ATTMODE
 70
     1
  9
$TEXTSIZE
 40
3.5
  9
$TRACEWID
 40
1.0
  9
$TEXTSTYLE
  7
Standard
  9
$CLAYER
  8
0
  9
$CELTYPE
  6
ByLayer
  9
$CECOLOR
 62
   256
  9
$CELTSCALE
 40
1.0
  9
$DISPSILH
 70
     0
  9
$DIMSCALE
 40
1.0
  9
$DIMASZ
 40
3.556
  9
$DIMEXO
 40
1.0
  9
$DIMDLI
 40
3.75
  9
$DIMRND
 40
0.0
  9
$DIMDLE
 40
0.0
  9
$DIMEXE
 40
1.0
  9
$DIMTP
 40
0.0
  9
$DIMTM
 40
0.0
  9
$DIMTXT
 40
3.5
  9
$DIMCEN
 40
2.5
  9
$DIMTSZ
 40
0.0
  9
$DIMTOL
 70
     0
  9
$DIMLIM
 70
     0
  9
$DIMTIH
 70
     1
  9
$DIMTOH
 70
     1
  9
$DIMSE1
 70
     0
  9
$DIMSE2
 70
     0
  9
$DIMTAD
 70
     1
  9
$DIMZIN
 70
     1
  9
$DIMBLK
  1

  9
$DIMASO
 70
     1
  9
$DIMSHO
 70
     1
  9
$DIMPOST
  1

  9
$DIMAPOST
  1

  9
$DIMALT
 70
     0
  9
$DIMALTD
 70
     3
  9
$DIMALTF
 40
0.0393700787
  9
$DIMLFAC
 40
5.0
  9
$DIMTOFL
 70
     1
  9
$DIMTVP
 40
0.0
  9
$DIMTIX
 70
     0
  9
$DIMSOXD
 70
     0
  9
$DIMSAH
 70
     0
  9
$DIMBLK1
  1

  9
$DIMBLK2
  1

  9
$DIMSTYLE
  2
ISO-25
  9
$DIMCLRD
 70
     0
  9
$DIMCLRE
 70
     0
  9
$DIMCLRT
 70
     0
  9
$DIMTFAC
 40
1.0
  9
$DIMGAP
 40
1.524
  9
$DIMJUST
 70
     0
  9
$DIMSD1
 70
     0
  9
$DIMSD2
 70
     0
  9
$DIMTOLJ
 70
     0
  9
$DIMTZIN
 70
     1
  9
$DIMALTZ
 70
     0
  9
$DIMALTTZ
 70
     0
  9
$DIMUPT
 70
     0
  9
$DIMDEC
 70
     2
  9
$DIMTDEC
 70
     2
  9
$DIMALTU
 70
     2
  9
$DIMALTTD
 70
     3
  9
$DIMTXSTY
  7
Standard
  9
$DIMAUNIT
 70
     0
  9
$DIMADEC
 70
     2
  9
$DIMALTRND
 40
0.0
  9
$DIMAZIN
 70
     0
  9
$DIMDSEP
 70
    44
  9
$DIMATFIT
 70
     3
  9
$DIMFRAC
 70
     0
  9
$DIMLDRBLK
  1

  9
$DIMLUNIT
 70
     2
  9
$DIMLWD
 70
    -2
  9
$DIMLWE
 70
    -2
  9
$DIMTMOVE
 70
     0
  9
$LUNITS
 70
     2
  9
$LUPREC
 70
     2
  9
$SKETCHINC
 40
1.0
  9
$FILLETRAD
 40
0.0
  9
$AUNITS
 70
     0
  9
$AUPREC
 70
     2
  9
$MENU
  1
.
  9
$ELEVATION
 40
0.0
  9
$PELEVATION
 40
0.0
  9
$THICKNESS
 40
0.0
  9
$LIMCHECK
 70
     0
  9
$CHAMFERA
 40
0.0
  9
$CHAMFERB
 40
0.0
  9
$CHAMFERC
 40
0.0
  9
$CHAMFERD
 40
0.0
  9
$SKPOLY
 70
     0
  9
$TDCREATE
 40
2460356.907147546
  9
$TDUCREATE
 40
2460357.11548088
  9
$TDUPDATE
 40
2460356.907147998
  9
$TDUUPDATE
 40
2460357.115481331
  9
$TDINDWG
 40
0.0000000116
  9
$TDUSRTIMER
 40
0.0000000116
  9
$USRTIMER
 70
     1
  9
$ANGBASE
 50
0.0
  9
$ANGDIR
 70
     0
  9
$PDMODE
 70
     0
  9
$PDSIZE
 40
-1.0
  9
$PLINEWID
 40
0.0
  9
$SPLFRAME
 70
     0
  9
$SPLINETYPE
 70
     6
  9
$SPLINESEGS
 70
     8
  9
$HANDSEED
  5
134
  9
$SURFTAB1
 70
     6
  9
$SURFTAB2
 70
     6
  9
$SURFTYPE
 70
     6
  9
$SURFU
 70
     6
  9
$SURFV
 70
     6
  9
$UCSBASE
  2

  9
$UCSNAME
  2

  9
$UCSORG
 10
0.0
 20
0.0
 30
0.0
  9
$UCSXDIR
 10
1.0
 20
0.0
 30
0.0
  9
$UCSYDIR
 10
0.0
 20
1.0
 30
0.0
  9
$UCSORTHOREF
  2

  9
$UCSORTHOVIEW
 70
     0
  9
$UCSORGTOP
 10
0.0
 20
0.0
 30
0.0
  9
$UCSORGBOTTOM
 10
0.0
 20
0.0
 30
0.0
  9
$UCSORGLEFT
 10
0.0
 20
0.0
 30
0.0
  9
$UCSORGRIGHT
 10
0.0
 20
0.0
 30
0.0
  9
$UCSORGFRONT
 10
0.0
 20
0.0
 30
0.0
  9
$UCSORGBACK
 10
0.0
 20
0.0
 30
0.0
  9
$PUCSBASE
  2

  9
$PUCSNAME
  2

  9
$PUCSORG
 10
0.0
 20
0.0
 30
0.0
  9
$PUCSXDIR
 10
1.0
 20
0.0
 30
0.0
  9
$PUCSYDIR
 10
0.0
 20
1.0
 30
0.0
  9
$PUCSORTHOREF
  2

  9
$PUCSORTHOVIEW
 70
     0
  9
$PUCSORGTOP
 10
0.0
 20
0.0
 30
0.0
  9
$PUCSORGBOTTOM
 10
0.0
 20
0.0
 30
0.0
  9
$PUCSORGLEFT
 10
0.0
 20
0.0
 30
0.0
  9
$PUCSORGRIGHT
 10
0.0
 20
0.0
 30
0.0
  9
$PUCSORGFRONT
 10
0.0
 20
0.0
 30
0.0
  9
$PUCSORGBACK
 10
0.0
 20
0.0
 30
0.0
  9
$USERI1
 70
     0
  9
$USERI2
 70
     0
  9
$USERI3
 70
     0
  9
$USERI4
 70
     0
  9
$USERI5
 70
     0
  9
$USERR1
 40
0.0
  9
$USERR2
 40
0.0
  9
$USERR3
 40
0.0
  9
$USERR4
 40
0.0
  9
$USERR5
 40
0.0
  9
$WORLDVIEW
 70
     1
  9
$SHADEDGE
 70
     3
  9
$SHADEDIF
 70
    70
  9
$TILEMODE
 70
     1
  9
$MAXACTVP
 70
    64
  9
$PINSBASE
 10
0.0
 20
0.0
 30
0.0
  9
$PLIMCHECK
 70
     0
  9
$PEXTMIN
 10
1.0000000000E+20
 20
1.0000000000E+20
 30
1.0000000000E+20
  9
$PEXTMAX
 10
-1.0000000000E+20
 20
-1.0000000000E+20
 30
-1.0000000000E+20
  9
$PLIMMIN
 10
0.0
 20
0.0
  9
$PLIMMAX
 10
420.0
 20
297.0
  9
$UNITMODE
 70
     0
  9
$VISRETAIN
 70
     1
  9
$PLINEGEN
 70
     0
  9
$PSLTSCALE
 70
     1
  9
$TREEDEPTH
 70
  3020
  9
$CMLSTYLE
  2
Standard
  9
$CMLJUST
 70
     0
  9
$CMLSCALE
 40
20.0
  9
$PROXYGRAPHICS
 70
     1
  9
$MEASUREMENT
 70
     1
  9
$CELWEIGHT
370
    -1
  9
$ENDCAPS
280
     0
  9
$JOINSTYLE
280
     0
  9
$LWDISPLAY
290
     1
  9
$INSUNITS
 70
     4
  9
$HYPERLINKBASE
  1

  9
$STYLESHEET
  1

  9
$XEDIT
290
     1
  9
$CEPSNTYPE
380
     0
  9
$PSTYLEMODE
290
     1
  9
$FINGERPRINTGUID
  2
{c34d37b7-bbca-480c-a344-374fbac174e4}
  9
$VERSIONGUID
  2
{FAEB1C32-E019-11D5-929B-00C0DF256EC4}
  9
$EXTNAMES
290
     1
  9
$PSVPSCALE
 40
0.0
  9
$OLESTARTUP
290
     0
  0
ENDSEC
  0
SECTION
  2
CLASSES
  0
CLASS
  1
ACDBDICTIONARYWDFLT
  2
AcDbDictionaryWithDefault
  3
ObjectDBX Classes
 90
        0
280
     0
281
     0
  0
CLASS
  1
VISUALSTYLE
  2
AcDbVisualStyle
  3
ObjectDBX Classes
 90
     4095
280
     0
281
     0
  0
CLASS
  1
MATERIAL
  2
AcDbMaterial
  3
ObjectDBX Classes
 90
     1153
280
     0
281
     0
  0
CLASS
  1
SCALE
  2
AcDbScale
  3
ObjectDBX Classes
 90
     1153
280
     0
281
     0
  0
CLASS
  1
TABLESTYLE
  2
AcDbTableStyle
  3
ObjectDBX Classes
 90
     4095
280
     0
281
     0
  0
CLASS
  1
MLEADERSTYLE
  2
AcDbMLeaderStyle
  3
ACDB_MLEADERSTYLE_CLASS
 90
     4095
280
     0
281
     0
  0
CLASS
  1
SUN
  2
AcDbSun
  3
SCENEOE
 90
     1153
280
     0
281
     0
  0
CLASS
  1
ACDBPLACEHOLDER
  2
AcDbPlaceHolder
  3
ObjectDBX Classes
 90
        0
280
     0
281
     0
  0
CLASS
  1
LAYOUT
  2
AcDbLayout
  3
ObjectDBX Classes
 90
        0
280
     0
281
     0
  0
ENDSEC
  0
SECTION
  2
TABLES
  0
TABLE
  2
VPORT
  5
8
330
0
100
AcDbSymbolTable
 70
     1
  0
VPORT
  5
29
330
8
100
AcDbSymbolTableRecord
100
AcDbViewportTableRecord
  2
*Active
 70
     0
 10
0.0
 20
0.0
 11
1.0
 21
1.0
 12
508.0
 22
76.2
 13
0.0
 23
0.0
 14
10.0
 24
10.0
 15
10.0
 25
10.0
 16
0.0
 26
0.0
 36
1.0
 17
0.0
 27
0.0
 37
0.0
 40
152.4
 41
6.6666666667
 42
50.0
 43
0.0
 44
0.0
 50
0.0
 51
0.0
 71
     0
 72
  2000
 73
     1
 74
     3
 75
     0
 76
     0
 77
     0
 78
     0
281
     0
 65
     1
110
0.0
120
0.0
130
0.0
111
1.0
121
0.0
131
0.0
112
0.0
122
1.0
132
0.0
 79
     0
146
0.0
  0
ENDTAB
  0
TABLE
  2
LTYPE
  5
5
330
0
100
AcDbSymbolTable
 70
     6
  0
LTYPE
  5
14
330
5
100
AcDbSymbolTableRecord
100
AcDbLinetypeTableRecord
  2
ByBlock
 70
     0
  3

 72
    65
 73
     0
 40
0.0
  0
LTYPE
  5
15
330
5
100
AcDbSymbolTableRecord
100
AcDbLinetypeTableRecord
  2
ByLayer
 70
     0
  3

 72
    65
 73
     0
 40
0.0
  0
LTYPE
  5
16
330
5
100
AcDbSymbolTableRecord
100
AcDbLinetypeTableRecord
  2
Continuous
 70
     0
  3
Solid line
 72
    65
 73
     0
 40
0.0
  0
LTYPE
  5
5E
330
5
100
AcDbSymbolTableRecord
100
AcDbLinetypeTableRecord
  2
HIDDEN
 70
     0
  3
Hidden __ __ __ __ __ __ __ __ __ __ __ __ __ __
 72
    65
 73
     2
 40
1.905
 49
1.27
 74
     0
 49
-0.635
 74
     0
  0
LTYPE
  5
5F
330
5
100
AcDbSymbolTableRecord
100
AcDbLinetypeTableRecord
  2
PHANTOM
 70
     0
  3
Phantom ______  __  __  ______  __  __  ______
 72
    65
 73
     6
 40
12.7
 49
6.35
 74
     0
 49
-1.27
 74
     0
 49
1.27
 74
     0
 49
-1.27
 74
     0
 49
1.27
 74
     0
 49
-1.27
 74
     0
  0
LTYPE
  5
60
330
5
100
AcDbSymbolTableRecord
100
AcDbLinetypeTableRecord
  2
CENTER
 70
     0
  3
Center ____ _ ____ _ ____ _ ____ _ ____ _ ____
 72
    65
 73
     4
 40
10.16
 49
6.35
 74
     0
 49
-1.27
 74
     0
 49
1.27
 74
     0
 49
-1.27
 74
     0
  0
LTYPE
  5
61
330
5
100
AcDbSymbolTableRecord
100
AcDbLinetypeTableRecord
  2
CENTERX2
 70
     0
  3
Center (2x) ________  __  ________  __  _____
 72
    65
 73
     4
 40
20.32
 49
12.7
 74
     0
 49
-2.54
 74
     0
 49
2.54
 74
     0
 49
-2.54
 74
     0
  0
LTYPE
  5
62
330
5
100
AcDbSymbolTableRecord
100
AcDbLinetypeTableRecord
  2
DOT2
 70
     0
  3
Dot (.5x) ........................................
 72
    65
 73
     2
 40
0.635
 49
0.0
 74
     0
 49
-0.635
 74
     0
  0
ENDTAB
  0
TABLE
  2
LAYER
  5
2
330
0
100
AcDbSymbolTable
 70
     1
  0
LAYER
  5
10
330
2
100
AcDbSymbolTableRecord
100
AcDbLayerTableRecord
  2
0
 70
     0
 62
     7
  6
Continuous
370
    -3
390
F
  0
ENDTAB
  0
TABLE
  2
STYLE
  5
3
330
0
100
AcDbSymbolTable
 70
     2
  0
STYLE
  5
11
330
3
100
AcDbSymbolTableRecord
100
AcDbTextStyleTableRecord
  2
Standard
 70
     0
 40
0.0
 41
1.0
 50
0.0
 71
     0
 42
3.5
  3
txt
  4

  0
STYLE
  5
130
330
3
100
AcDbSymbolTableRecord
100
AcDbTextStyleTableRecord
  2
SLDTEXTSTYLE0
 70
     0
 40
0.0
 41
0.7
 50
0.0
 71
     0
 42
3.5
  3
TXT
  4

  0
ENDTAB
  0
TABLE
  2
VIEW
  5
6
330
0
100
AcDbSymbolTable
 70
     0
  0
ENDTAB
  0
TABLE
  2
UCS
  5
7
330
0
100
AcDbSymbolTable
 70
     0
  0
ENDTAB
  0
TABLE
  2
APPID
  5
9
330
0
100
AcDbSymbolTable
 70
     1
  0
APPID
  5
12
330
9
100
AcDbSymbolTableRecord
100
AcDbRegAppTableRecord
  2
ACAD
 70
     0
  0
ENDTAB
  0
TABLE
  2
DIMSTYLE
  5
A
330
0
100
AcDbSymbolTable
 70
     1
100
AcDbDimStyleTable
  0
DIMSTYLE
105
27
330
A
100
AcDbSymbolTableRecord
100
AcDbDimStyleTableRecord
  2
ISO-25
 70
     0
 41
2.5
 42
0.625
 43
3.75
 44
1.25
 73
     0
 74
     0
 77
     1
 78
     8
140
2.5
141
2.5
143
0.0393700787
147
0.625
171
     3
172
     1
178
     0
271
     2
272
     2
274
     3
278
    44
283
     0
284
     8
340
11
  0
ENDTAB
  0
TABLE
  2
BLOCK_RECORD
  5
1
330
0
100
AcDbSymbolTable
 70
     1
  0
BLOCK_RECORD
  5
1F
330
1
100
AcDbSymbolTableRecord
100
AcDbBlockTableRecord
  2
*Model_Space
340
22
  0
BLOCK_RECORD
  5
1B
330
1
100
AcDbSymbolTableRecord
100
AcDbBlockTableRecord
  2
*Paper_Space
340
1E
  0
BLOCK_RECORD
  5
23
330
1
100
AcDbSymbolTableRecord
100
AcDbBlockTableRecord
  2
*Paper_Space0
340
26
  0
ENDTAB
  0
ENDSEC
  0
SECTION
  2
BLOCKS
  0
BLOCK
  5
20
330
1F
100
AcDbEntity
  8
0
100
AcDbBlockBegin
  2
*Model_Space
 70
     0
 10
0.0
 20
0.0
 30
0.0
  3
*Model_Space
  1

  0
ENDBLK
  5
21
330
1F
100
AcDbEntity
  8
0
100
AcDbBlockEnd
  0
BLOCK
  5
1C
330
1B
100
AcDbEntity
 67
     1
  8
0
100
AcDbBlockBegin
  2
*Paper_Space
 70
     0
 10
0.0
 20
0.0
 30
0.0
  3
*Paper_Space
  1

  0
ENDBLK
  5
1D
330
1B
100
AcDbEntity
 67
     1
  8
0
100
AcDbBlockEnd
  0
BLOCK
  5
24
330
23
100
AcDbEntity
  8
0
100
AcDbBlockBegin
  2
*Paper_Space0
 70
     0
 10
0.0
 20
0.0
 30
0.0
  3
*Paper_Space0
  1

  0
ENDBLK
  5
25
330
23
100
AcDbEntity
  8
0
100
AcDbBlockEnd
  0
ENDSEC
  0
SECTION
  2
ENTITIES
  0
ARC
  5
63
330
1F
100
AcDbEntity
  8
0
  6
Continuous
 62
     7
370
    25
100
AcDbCircle
 10
487.1408470272
 20
33.3157429843
 30
0.0
 40
5.080000000000054
100
AcDbArc
 50
179.3284096177
 51
282.4957018872
  0
LINE
  5
64
330
1F
100
AcDbEntity
  8
0
  6
Continuous
 62
     7
370
    25
100
AcDbLine
 10
482.163297429
 20
42.0855260512
 30
0.0
 11
482.0611960007
 21
33.3752866548
 31
0.0
  0
ARC
  5
65
330
1F
100
AcDbEntity
  8
0
  6
Continuous
 62
     7
370
    25
100
AcDbCircle
 10
487.2429484555
 20
42.0259823806
 30
0.0
 40
5.080000000000008
100
AcDbArc
 50
89.9695544935
 51
179.3284096177
  0
SPLINE
  5
66
330
1F
100
AcDbEntity
  8
0
  6
Continuous
 62
     7
370
    25
100
AcDbSpline
210
0.0
220
0.0
230
1.0
 70
     8
 71
     3
 72
    32
 73
    28
 74
     0
 42
0.00000001
 43
0.00000001
 40
0.0
 40
0.0
 40
0.0
 40
0.0
 40
0.0134425910553878
 40
0.0165229897286397
 40
0.0173286429912927
 40
0.0179376162082075
 40
0.0182455808882122
 40
0.0185076141234503
 40
0.0187509501465797
 40
0.0190772698666365
 40
0.0194696043507353
 40
0.0202720511162935
 40
0.0230354038652914
 40
0.0360117243677507
 40
0.054197289408633
 40
0.0735805641819399
 40
0.1174295788136762
 40
0.1521493343668315
 40
0.1822741157292821
 40
0.2122953756967619
 40
0.2446934164049765
 40
0.279150090377341
 40
0.4286800384668946
 40
0.5758139011566529
 40
0.718163050330254
 40
0.858609149057312
 40
1.0
 40
1.0
 40
1.0
 40
1.0
 10
570.9846504785492
 20
52.70427039758997
 30
0.0
 10
571.3850471215425
 20
52.74023346049396
 30
0.0
 10
571.8771955170638
 20
52.78443753666682
 30
0.0
 10
572.3970368103978
 20
52.74987259831702
 30
0.0
 10
572.5270941925469
 20
52.7153587114752
 30
0.0
 10
572.5744181715716
 20
52.69384805010773
 30
0.0
 10
572.6020539125351
 20
52.67151511747698
 30
0.0
 10
572.6162206660846
 20
52.65123627627612
 30
0.0
 10
572.6223636522323
 20
52.62654965523924
 30
0.0
 10
572.6172330675607
 20
52.59745710329782
 30
0.0
 10
572.595298562013
 20
52.55715008895741
 30
0.0
 10
572.5130571183768
 20
52.47063673182314
 30
0.0
 10
572.090625628555
 20
52.20710551858075
 30
0.0
 10
571.1503778884055
 20
51.82318151408478
 30
0.0
 10
569.7361535177199
 20
51.29560066639714
 30
0.0
 10
567.4406421593687
 20
50.4896800427388
 30
0.0
 10
564.6866684001384
 20
49.50019949152158
 30
0.0
 10
561.6350503056927
 20
48.38954627397374
 30
0.0
 10
558.9708016427269
 20
47.42259293083465
 30
0.0
 10
556.3608318463627
 20
46.50974042190958
 30
0.0
 10
553.6162503089383
 20
45.59057281593264
 30
0.0
 10
547.4661399949032
 20
43.59769666704039
 30
0.0
 10
537.9945626210244
 20
40.73686898665057
 30
0.0
 10
525.3577789789304
 20
37.21953495069022
 30
0.0
 10
512.9110414691074
 20
34.04285058928031
 30
0.0
 10
500.5805261869511
 20
31.11311007715641
 30
0.0
 10
492.3626832791152
 20
29.27713935962424
 30
0.0
 10
488.2399882137103
 20
28.35607680071593
 30
0.0
  0
CIRCLE
  5
67
330
1F
100
AcDbEntity
  8
0
  6
Continuous
 62
     7
370
    25
100
AcDbCircle
 10
491.1421505702
 20
38.1105491422
 30
0.0
 40
2.000000000000004
  0
CIRCLE
  5
68
330
1F
100
AcDbEntity
  8
0
  6
Continuous
 62
     7
370
    25
100
AcDbCircle
 10
512.3900326618
 20
38.1500695294
 30
0.0
 40
2.000000000000004
  0
CIRCLE
  5
69
330
1F
100
AcDbEntity
  8
0
  6
Continuous
 62
     7
370
    25
100
AcDbCircle
 10
544.2450301846
 20
46.9212934362
 30
0.0
 40
1.999999999999947
  0
SPLINE
  5
6A
330
1F
100
AcDbEntity
  8
0
  6
Continuous
 62
     7
370
    25
100
AcDbSpline
210
0.0
220
0.0
230
1.0
 70
     8
 71
     3
 72
    15
 73
    11
 74
     0
 42
0.00000001
 43
0.00000001
 40
0.0
 40
0.0
 40
0.0
 40
0.0
 40
0.1867325496505937
 40
0.3733970005827347
 40
0.5600521443209477
 40
0.6480631864631428
 40
0.7360398399874606
 40
0.8240330488734291
 40
0.9120501675728704
 40
0.9999999999999999
 40
0.9999999999999999
 40
0.9999999999999999
 40
0.9999999999999999
 10
487.245647836993
 20
47.10598166344177
 30
0.0
 10
492.4740385181406
 20
47.1233410798525
 30
0.0
 10
502.9289131603401
 20
47.15805358194044
 30
0.0
 10
518.6066729440676
 20
47.70740365285708
 30
0.0
 10
531.4774801298969
 20
48.83334138073049
 30
0.0
 10
541.6125026926991
 20
49.44533443402827
 30
0.0
 10
548.983121135531
 20
50.02419481886371
 30
0.0
 10
556.3173485425573
 20
50.95172813088934
 30
0.0
 10
563.7025349685665
 20
51.41373687478912
 30
0.0
 10
568.5578975066691
 20
52.27420223161888
 30
0.0
 10
570.9846504785492
 20
52.70427039758997
 30
0.0
  0
ARC
  5
6B
330
1F
100
AcDbEntity
  8
0
  6
Continuous
 62
     7
370
    25
100
AcDbCircle
 10
480.3956566978
 20
79.2765829673
 30
0.0
 40
5.079999999999998
100
AcDbArc
 50
202.9512311842
 51
292.3100863085
  0
LINE
  5
6C
330
1F
100
AcDbEntity
  8
0
  6
Continuous
 62
     7
370
    25
100
AcDbLine
 10
472.3210350218
 20
85.3169124148
 30
0.0
 11
475.7178042243
 21
77.2956497942
 31
0.0
  0
ARC
  5
6D
330
1F
100
AcDbEntity
  8
0
  6
Continuous
 62
     7
370
    25
100
AcDbCircle
 10
476.9988874953
 20
87.2978455879
 30
0.0
 40
5.080000000000043
100
AcDbArc
 50
99.7839389147
 51
202.9512311842
  0
SPLINE
  5
6E
330
1F
100
AcDbEntity
  8
0
  6
Continuous
 62
     7
370
    25
100
AcDbSpline
210
0.0
220
0.0
230
1.0
 70
     8
 71
     3
 72
    15
 73
    11
 74
     0
 42
0.00000001
 43
0.00000001
 40
0.0
 40
0.0
 40
0.0
 40
0.0
 40
0.1867325496505941
 40
0.3733970005827348
 40
0.5600521443209479
 40
0.6480631864631428
 40
0.7360398399874606
 40
0.8240330488734292
 40
0.9120501675728705
 40
1.0
 40
1.0
 40
1.0
 40
1.0
 10
482.3241213544691
 20
74.57685701061963
 30
0.0
 10
487.1687653139678
 20
76.54301961064617
 30
0.0
 10
496.8562864598683
 20
80.47462777902162
 30
0.0
 10
511.5718888056359
 20
85.91015764628575
 30
0.0
 10
523.9086931854015
 20
89.7479527264381
 30
0.0
 10
533.5191038314053
 20
93.0241128356162
 30
0.0
 10
540.558926844027
 20
95.28287079651082
 30
0.0
 10
547.6972670640534
 20
97.20518934608808
 30
0.0
 10
554.7062688236712
 20
99.57759845078017
 30
0.0
 10
559.5253777878863
 20
100.6221724298432
 30
0.0
 10
561.9340109041465
 20
101.144259707188
 30
0.0
  0
CIRCLE
  5
6F
330
1F
100
AcDbEntity
  8
0
  6
Continuous
 62
     7
370
    25
100
AcDbCircle
 10
482.5193139755
 20
84.3780018231
 30
0.0
 40
2.00000000000002
  0
CIRCLE
  5
70
330
1F
100
AcDbEntity
  8
0
  6
Continuous
 62
     7
370
    25
100
AcDbCircle
 10
502.1959079398
 20
92.3970856365
 30
0.0
 40
1.999999999999968
  0
CIRCLE
  5
71
330
1F
100
AcDbEntity
  8
0
  6
Continuous
 62
     7
370
    25
100
AcDbCircle
 10
534.9981656107
 20
96.3577835164
 30
0.0
 40
1.999999999999968
  0
SPLINE
  5
72
330
1F
100
AcDbEntity
  8
0
  6
Continuous
 62
     7
370
    25
100
AcDbSpline
210
0.0
220
0.0
230
1.0
 70
     8
 71
     3
 72
    32
 73
    28
 74
     0
 42
0.00000001
 43
0.00000001
 40
0.0
 40
0.0
 40
0.0
 40
0.0
 40
0.0134425910553881
 40
0.0165229897286401
 40
0.0173286429912931
 40
0.0179376162082079
 40
0.0182455808882126
 40
0.0185076141234508
 40
0.0187509501465801
 40
0.0190772698666369
 40
0.0194696043507358
 40
0.020272051116294
 40
0.023035403865292
 40
0.0360117243677515
 40
0.0541972894086343
 40
0.0735805641819416
 40
0.1174295788136789
 40
0.152149334366835
 40
0.1822741157292864
 40
0.2122953756967669
 40
0.2446934164049823
 40
0.2791500903773476
 40
0.4286800384668996
 40
0.5758139011566569
 40
0.7181630503302565
 40
0.8586091490573131
 40
1.0
 40
1.0
 40
1.0
 40
1.0
 10
561.9340109041465
 20
101.144259707188
 30
0.0
 10
562.3181503148504
 20
101.2627828136175
 30
0.0
 10
562.7903160983126
 20
101.4084657449864
 30
0.0
 10
563.2582438624918
 20
101.6375362859305
 30
0.0
 10
563.3655065856141
 20
101.7187818351306
 30
0.0
 10
563.4011422884372
 20
101.7566284231866
 30
0.0
 10
563.4182478430266
 20
101.7877715453918
 30
0.0
 10
563.4236687065663
 20
101.8119074635443
 30
0.0
 10
563.4199937111154
 20
101.8370800666172
 30
0.0
 10
563.4042163699553
 20
101.8620555542692
 30
0.0
 10
563.36863790343
 20
101.8910374565249
 30
0.0
 10
563.2597366542868
 20
101.9399121324738
 30
0.0
 10
562.7689301036605
 20
102.0236139473175
 30
0.0
 10
561.7533209338121
 20
102.0224022523563
 30
0.0
 10
560.2446558565675
 20
101.9744251099833
 30
0.0
 10
557.8149704886737
 20
101.8498881235104
 30
0.0
 10
554.8914568686994
 20
101.7213916582231
 30
0.0
 10
551.6465798269038
 20
101.5921765367176
 30
0.0
 10
548.8146335120258
 20
101.4768518837904
 30
0.0
 10
546.0534249548238
 20
101.3320439260751
 30
0.0
 10
543.1652599380228
 20
101.1420446124593
 30
0.0
 10
536.718735315858
 20
100.6544663977625
 30
0.0
 10
526.8696452509627
 20
99.71078326247098
 30
0.0
 10
513.8427494612536
 20
98.17457832117397
 30
0.0
 10
501.1208614309536
 20
96.39520677060939
 30
0.0
 10
488.6001421727461
 20
94.43139011699574
 30
0.0
 10
480.2997397242506
 20
93.01468629244039
 30
0.0
 10
476.1356265136344
 20
92.30395989718824
 30
0.0
  0
ARC
  5
73
330
1F
100
AcDbEntity
  8
0
  6
Continuous
 62
     7
370
    25
100
AcDbCircle
 10
253.3061778114
 20
32.2310197
 30
0.0
 40
5.079999999999992
100
AcDbArc
 50
201.6641375924
 51
291.0229927166
  0
LINE
  5
74
330
1F
100
AcDbEntity
  8
0
  6
Continuous
 62
     7
370
    25
100
AcDbLine
 10
245.3692720823
 20
38.4511983543
 30
0.0
 11
248.5850096041
 21
30.3556608654
 31
0.0
  0
ARC
  5
75
330
1F
100
AcDbEntity
  8
0
  6
Continuous
 62
     7
370
    25
100
AcDbCircle
 10
250.0904402896
 20
40.3265571889
 30
0.0
 40
5.08000000000007
100
AcDbArc
 50
98.4968453228
 51
201.6641375924
  0
SPLINE
  5
76
330
1F
100
AcDbEntity
  8
0
  6
Continuous
 62
     7
370
    25
100
AcDbSpline
210
0.0
220
0.0
230
1.0
 70
     8
 71
     3
 72
    15
 73
    11
 74
     0
 42
0.00000001
 43
0.00000001
 40
0.0
 40
0.0
 40
0.0
 40
0.0
 40
0.1867325496505942
 40
0.3733970005827346
 40
0.560052144320948
 40
0.6480631864631426
 40
0.7360398399874605
 40
0.8240330488734291
 40
0.9120501675728706
 40
0.9999999999999999
 40
0.9999999999999999
 40
0.9999999999999999
 40
0.9999999999999999
 10
255.1285900426625
 20
27.48916208306089
 30
0.0
 10
260.0161758749942
 20
29.34600757895951
 30
0.0
 10
269.7895651062678
 20
33.05902140548015
 30
0.0
 10
284.6235482120345
 20
38.16263606124227
 30
0.0
 10
297.0434450064804
 20
41.72235192028986
 30
0.0
 10
306.7250204326579
 20
44.78181512697019
 30
0.0
 10
313.8138037778652
 20
46.88187375940286
 30
0.0
 10
320.9935223276898
 20
48.64336495955122
 30
0.0
 10
328.0540450432205
 20
50.85773837201469
 30
0.0
 10
332.8954014779465
 20
51.79380133926146
 30
0.0
 10
335.3151540759665
 20
52.26165385692757
 30
0.0
  0
CIRCLE
  5
77
330
1F
100
AcDbEntity
  8
0
  6
Continuous
 62
     7
370
    25
100
AcDbCircle
 10
255.5438880207
 20
37.2834495704
 30
0.0
 40
2.000000000000004
  0
CIRCLE
  5
78
330
1F
100
AcDbEntity
  8
0
  6
Continuous
 62
     7
370
    25
100
AcDbCircle
 10
308.2785903862
 20
48.0814218238
 30
0.0
 40
2.000000000000083
  0
SPLINE
  5
79
330
1F
100
AcDbEntity
  8
0
  6
Continuous
 62
     7
370
    25
100
AcDbSpline
210
0.0
220
0.0
230
1.0
 70
     8
 71
     3
 72
    32
 73
    28
 74
     0
 42
0.00000001
 43
0.00000001
 40
0.0
 40
0.0
 40
0.0
 40
0.0
 40
0.0134425910553882
 40
0.0165229897286403
 40
0.0173286429912931
 40
0.017937616208208
 40
0.0182455808882126
 40
0.0185076141234508
 40
0.0187509501465801
 40
0.019077269866637
 40
0.0194696043507357
 40
0.020272051116294
 40
0.023035403865292
 40
0.0360117243677516
 40
0.0541972894086343
 40
0.0735805641819416
 40
0.117429578813679
 40
0.1521493343668352
 40
0.1822741157292863
 40
0.2122953756967669
 40
0.2446934164049825
 40
0.2791500903773478
 40
0.4286800384668999
 40
0.5758139011566573
 40
0.7181630503302568
 40
0.8586091490573132
 40
1.0
 40
1.0
 40
1.0
 40
1.0
 10
335.3151540759665
 20
52.26165385692757
 30
0.0
 10
335.7018588478027
 20
52.37151846930472
 30
0.0
 10
336.1771778504219
 20
52.50655879407315
 30
0.0
 10
336.6501329664994
 20
52.72506088421067
 30
0.0
 10
336.7591935748687
 20
52.80387658530194
 30
0.0
 10
336.7956704016518
 20
52.84091317060669
 30
0.0
 10
336.8134711813267
 20
52.8716642080112
 30
0.0
 10
336.8194328213241
 20
52.89567227238811
 30
0.0
 10
336.8163241834192
 20
52.92092107250623
 30
0.0
 10
336.8011118256613
 20
52.94624465141953
 30
0.0
 10
336.7661933310832
 20
52.97601840958116
 30
0.0
 10
336.6584173877314
 20
53.02732690837642
 30
0.0
 10
336.1696147914863
 20
53.12203216615194
 30
0.0
 10
335.1542346481745
 20
53.14363352379815
 30
0.0
 10
333.6448725465504
 20
53.12955631992131
 30
0.0
 10
331.2130028354718
 20
53.05962666744684
 30
0.0
 10
328.2873405295664
 20
52.99683097037281
 30
0.0
 10
325.0403797410506
 20
52.94053530589382
 30
0.0
 10
322.2065575042897
 20
52.88885130099613
 30
0.0
 10
319.4427929198046
 20
52.8061025092842
 30
0.0
 10
316.5510888133484
 20
52.68102547641056
 30
0.0
 10
310.0952386388022
 20
52.33837296520799
 30
0.0
 10
300.2274364187512
 20
51.61615948415766
 30
0.0
 10
287.1693209489564
 20
50.37295398420408
 30
0.0
 10
274.4106742430398
 20
48.8797921028082
 30
0.0
 10
261.8490025230375
 20
47.19771297543372
 30
0.0
 10
253.5188721239688
 20
45.96781132570223
 30
0.0
 10
249.3398451121876
 20
45.35079910982662
 30
0.0
  0
CIRCLE
  5
7A
330
1F
100
AcDbEntity
  8
0
  6
Continuous
 62
     7
370
    25
100
AcDbCircle
 10
275.3956431884
 20
44.8585318805
 30
0.0
 40
2.000000000000033
  0
ARC
  5
7B
330
1F
100
AcDbEntity
  8
0
  6
Continuous
 62
     7
370
    25
100
AcDbCircle
 10
231.0077570185
 20
39.3441546994
 30
0.0
 40
5.080000000000001
100
AcDbArc
 50
339.2319264676
 51
82.3992187371
  0
LINE
  5
7C
330
1F
100
AcDbEntity
  8
0
  6
Continuous
 62
     7
370
    25
100
AcDbLine
 10
232.6689347683
 20
29.3980205998
 30
0.0
 11
235.7576759142
 21
37.5428578098
 31
0.0
  0
ARC
  5
7D
330
1F
100
AcDbEntity
  8
0
  6
Continuous
 62
     7
370
    25
100
AcDbCircle
 10
227.9190158726
 20
31.1993174894
 30
0.0
 40
5.07999999999999
100
AcDbArc
 50
249.8730713433
 51
339.2319264676
  0
SPLINE
  5
7E
330
1F
100
AcDbEntity
  8
0
  6
Continuous
 62
     7
370
    25
100
AcDbSpline
210
0.0
220
0.0
230
1.0
 70
     8
 71
     3
 72
    15
 73
    11
 74
     0
 42
0.00000001
 43
0.00000001
 40
0.0
 40
0.0
 40
0.0
 40
0.0
 40
0.1867325496505938
 40
0.3733970005827346
 40
0.5600521443209479
 40
0.6480631864631428
 40
0.7360398399874606
 40
0.8240330488734291
 40
0.9120501675728703
 40
1.0
 40
1.0
 40
1.0
 40
1.0
 10
226.1709826655331
 20
26.42953972657255
 30
0.0
 10
221.2549560194249
 20
28.20972299770028
 30
0.0
 10
211.4246955325607
 20
31.76944033230766
 30
0.0
 10
196.5127129428575
 20
36.64044767997915
 30
0.0
 10
184.0386659068018
 20
40.00549803979725
 30
0.0
 10
174.31042863379
 20
42.9131805200179
 30
0.0
 10
167.1896701407387
 20
44.90212347007414
 30
0.0
 10
159.9832822946334
 20
46.5511182894722
 30
0.0
 10
152.8889932486206
 20
48.65480399745535
 30
0.0
 10
148.0335901245471
 20
49.5150403076937
 30
0.0
 10
145.6068168674413
 20
49.94499399416052
 30
0.0
  0
SPLINE
  5
7F
330
1F
100
AcDbEntity
  8
0
  6
Continuous
 62
     7
370
    25
100
AcDbSpline
210
0.0
220
0.0
230
1.0
 70
     8
 71
     3
 72
    32
 73
    28
 74
     0
 42
0.00000001
 43
0.00000001
 40
0.0
 40
0.0
 40
0.0
 40
0.0
 40
0.0134425910553877
 40
0.0165229897286394
 40
0.0173286429912925
 40
0.0179376162082072
 40
0.0182455808882118
 40
0.01850761412345
 40
0.0187509501465793
 40
0.019077269866636
 40
0.0194696043507348
 40
0.0202720511162934
 40
0.0230354038652913
 40
0.0360117243677504
 40
0.0541972894086328
 40
0.0735805641819393
 40
0.117429578813676
 40
0.1521493343668312
 40
0.1822741157292819
 40
0.2122953756967615
 40
0.2446934164049766
 40
0.279150090377341
 40
0.4286800384668945
 40
0.5758139011566533
 40
0.718163050330254
 40
0.8586091490573116
 40
1.0
 40
1.0
 40
1.0
 40
1.0
 10
145.6068168674413
 20
49.94499399416052
 30
0.0
 10
145.2184412539716
 20
50.04879763800745
 30
0.0
 10
144.7410685327625
 20
50.17638811026174
 30
0.0
 10
144.2647541812934
 20
50.38746710922265
 30
0.0
 10
144.1544743404018
 20
50.46456761330258
 30
0.0
 10
144.1174227729238
 20
50.50102922175059
 30
0.0
 10
144.0991432660058
 20
50.53149811876585
 30
0.0
 10
144.0928069018115
 20
50.55541001528999
 30
0.0
 10
144.0955203028992
 20
50.58070434255054
 30
0.0
 10
144.1103347742279
 20
50.60626272506569
 30
0.0
 10
144.1447833777866
 20
50.63657891960781
 30
0.0
 10
144.2517437464643
 20
50.68956661201214
 30
0.0
 10
144.7390055060729
 20
50.79190449145684
 30
0.0
 10
145.7539236620187
 20
50.82938236247117
 30
0.0
 10
147.2633213306427
 20
50.83891123651151
 30
0.0
 10
149.6959872502848
 20
50.8070212479618
 30
0.0
 10
152.6222738131379
 20
50.78998658239642
 30
0.0
 10
155.8697179151245
 20
50.78447582282509
 30
0.0
 10
158.7040018683847
 20
50.77711523765868
 30
0.0
 10
161.4687225475068
 20
50.7375980588704
 30
0.0
 10
164.3620290584943
 20
50.65775861420538
 30
0.0
 10
170.82244835762
 20
50.41610866259702
 30
0.0
 10
180.700338265506
 20
49.8483024157675
 30
0.0
 10
193.7762988787283
 20
48.80945999312464
 30
0.0
 10
206.5567363258899
 20
47.51600847503529
 30
0.0
 10
219.1431772824088
 20
46.0305823947708
 30
0.0
 10
227.4915229602731
 20
44.93110298323543
 30
0.0
 10
231.6796881413826
 20
44.37952048217191
 30
0.0
  0
CIRCLE
  5
80
330
1F
100
AcDbEntity
  8
0
  6
Continuous
 62
     7
370
    25
100
AcDbCircle
 10
225.6025662302
 20
36.2161347703
 30
0.0
 40
1.999999999999993
  0
CIRCLE
  5
81
330
1F
100
AcDbEntity
  8
0
  6
Continuous
 62
     7
370
    25
100
AcDbCircle
 10
205.6347748365
 20
43.4798364506
 30
0.0
 40
2.000000000000017
  0
CIRCLE
  5
82
330
1F
100
AcDbEntity
  8
0
  6
Continuous
 62
     7
370
    25
100
AcDbCircle
 10
172.7054473373
 20
46.1880879985
 30
0.0
 40
2.000000000000046
  0
ARC
  5
83
330
1F
100
AcDbEntity
  8
0
  6
Continuous
 62
     7
370
    25
100
AcDbCircle
 10
245.9038756304
 20
78.729769435
 30
0.0
 40
5.080000000000022
100
AcDbArc
 50
201.8799175946
 51
291.2387727188
  0
LINE
  5
84
330
1F
100
AcDbEntity
  8
0
  6
Continuous
 62
     7
370
    25
100
AcDbLine
 10
237.9436006048
 20
84.9200130942
 30
0.0
 11
241.1898036227
 21
76.8366436847
 31
0.0
  0
ARC
  5
85
330
1F
100
AcDbEntity
  8
0
  6
Continuous
 62
     7
370
    25
100
AcDbCircle
 10
242.6576726125
 20
86.8131388445
 30
0.0
 40
5.080000000000016
100
AcDbArc
 50
98.712625325
 51
201.8799175946
  0
SPLINE
  5
86
330
1F
100
AcDbEntity
  8
0
  6
Continuous
 62
     7
370
    25
100
AcDbSpline
210
0.0
220
0.0
230
1.0
 70
     8
 71
     3
 72
    15
 73
    11
 74
     0
 42
0.00000001
 43
0.00000001
 40
0.0
 40
0.0
 40
0.0
 40
0.0
 40
0.186732549650594
 40
0.3733970005827348
 40
0.560052144320948
 40
0.6480631864631429
 40
0.7360398399874608
 40
0.8240330488734293
 40
0.9120501675728706
 40
1.0
 40
1.0
 40
1.0
 40
1.0
 10
247.7441330703549
 20
73.99480876410821
 30
0.0
 10
252.6246912453249
 20
75.87004804611564
 30
0.0
 10
262.3840277247619
 20
79.61984273690037
 30
0.0
 10
277.198685101019
 20
84.77928690859054
 30
0.0
 10
289.605087705294
 20
88.38575163217901
 30
0.0
 10
299.2750723432888
 20
91.48165456133124
 30
0.0
 10
306.3558964651403
 20
93.60839510271201
 30
0.0
 10
313.528930212872
 20
95.39691308047918
 30
0.0
 10
320.5810633888436
 20
97.63786115991124
 30
0.0
 10
325.4188602186899
 20
98.59215034031885
 30
0.0
 10
327.8368336948311
 20
99.06911247989416
 30
0.0
  0
CIRCLE
  5
87
330
1F
100
AcDbEntity
  8
0
  6
Continuous
 62
     7
370
    25
100
AcDbCircle
 10
248.1225422035
 20
83.790590832
 30
0.0
 40
1.99999999999999
  0
CIRCLE
  5
88
330
1F
100
AcDbEntity
  8
0
  6
Continuous
 62
     7
370
    25
100
AcDbCircle
 10
267.9456283556
 20
91.440382375
 30
0.0
 40
2.000000000000017
  0
CIRCLE
  5
89
330
1F
100
AcDbEntity
  8
0
  6
Continuous
 62
     7
370
    25
100
AcDbCircle
 10
300.8162047541
 20
94.7870887003
 30
0.0
 40
1.999999999999959
  0
SPLINE
  5
8A
330
1F
100
AcDbEntity
  8
0
  6
Continuous
 62
     7
370
    25
100
AcDbSpline
210
0.0
220
0.0
230
1.0
 70
     8
 71
     3
 72
    32
 73
    28
 74
     0
 42
0.00000001
 43
0.00000001
 40
0.0
 40
0.0
 40
0.0
 40
0.0
 40
0.0134425910553882
 40
0.0165229897286402
 40
0.0173286429912932
 40
0.0179376162082081
 40
0.0182455808882128
 40
0.0185076141234509
 40
0.0187509501465803
 40
0.0190772698666372
 40
0.019469604350736
 40
0.0202720511162943
 40
0.0230354038652922
 40
0.0360117243677515
 40
0.0541972894086345
 40
0.0735805641819419
 40
0.1174295788136791
 40
0.1521493343668351
 40
0.1822741157292865
 40
0.212295375696767
 40
0.2446934164049821
 40
0.2791500903773478
 40
0.4286800384668994
 40
0.575813901156657
 40
0.7181630503302564
 40
0.8586091490573129
 40
1.0
 40
1.0
 40
1.0
 40
1.0
 10
327.8368336948311
 20
99.06911247989416
 30
0.0
 10
328.2231219672894
 20
99.18043266752794
 30
0.0
 10
328.6979290288019
 20
99.31726211575592
 30
0.0
 10
329.1700578983039
 20
99.53754383492769
 30
0.0
 10
329.2788209083909
 20
99.61676970616429
 30
0.0
 10
329.3151579943948
 20
99.65394340283191
 30
0.0
 10
329.3328428375014
 20
99.68476126101169
 30
0.0
 10
329.3387140193476
 20
99.70879160704149
 30
0.0
 10
329.3355103149265
 20
99.73402852077929
 30
0.0
 10
329.3202026948657
 20
99.75929462941535
 30
0.0
 10
329.28517231808
 20
99.78893667119593
 30
0.0
 10
329.177203908018
 20
99.83983891518086
 30
0.0
 10
328.6880481122559
 20
99.93270264016651
 30
0.0
 10
327.6725938175879
 20
99.9504798594455
 30
0.0
 10
326.1632954354459
 20
99.9307184032448
 30
0.0
 10
323.7317063297577
 20
99.85163067312958
 30
0.0
 10
320.8063012641187
 20
99.777817194002
 30
0.0
 10
317.5595755148727
 20
99.70929367117613
 30
0.0
 10
314.7259680197532
 20
99.64693768087396
 30
0.0
 10
311.962534672018
 20
99.55378096556156
 30
0.0
 10
309.0713221204181
 20
99.41781448101585
 30
0.0
 10
302.6168081792356
 20
99.05085126391528
 30
0.0
 10
292.7517958392518
 20
98.2914801436992
 30
0.0
 10
279.6984549626286
 20
96.9991057798687
 30
0.0
 10
266.945522077538
 20
95.45790462530654
 30
0.0
 10
254.3902742556597
 20
93.72852938462538
 30
0.0
 10
246.0648348174673
 20
92.46726466439884
 30
0.0
 10
241.8881611484638
 20
91.8345183468355
 30
0.0
  0
ARC
  5
8B
330
1F
100
AcDbEntity
  8
0
  6
Continuous
 62
     7
370
    25
100
AcDbCircle
 10
249.3675406647
 20
127.5899962263
 30
0.0
 40
5.080000000000022
100
AcDbArc
 50
200.2850233368
 51
289.643878461
  0
LINE
  5
8C
330
1F
100
AcDbEntity
  8
0
  6
Continuous
 62
     7
370
    25
100
AcDbLine
 10
241.5826397922
 20
133.9993966233
 30
0.0
 11
244.6026043536
 21
125.8288085728
 31
0.0
  0
ARC
  5
8D
330
1F
100
AcDbEntity
  8
0
  6
Continuous
 62
     7
370
    25
100
AcDbCircle
 10
246.3475761033
 20
135.7605842768
 30
0.0
 40
5.079999999999998
100
AcDbArc
 50
97.1177310672
 51
200.2850233368
  0
SPLINE
  5
8E
330
1F
100
AcDbEntity
  8
0
  6
Continuous
 62
     7
370
    25
100
AcDbSpline
210
0.0
220
0.0
230
1.0
 70
     8
 71
     3
 72
    32
 73
    28
 74
     0
 42
0.00000001
 43
0.00000001
 40
0.0
 40
0.0
 40
0.0
 40
0.0
 40
0.0134425910553883
 40
0.0165229897286403
 40
0.0173286429912933
 40
0.0179376162082081
 40
0.0182455808882128
 40
0.0185076141234509
 40
0.0187509501465803
 40
0.0190772698666371
 40
0.0194696043507359
 40
0.0202720511162943
 40
0.0230354038652921
 40
0.0360117243677517
 40
0.0541972894086346
 40
0.0735805641819419
 40
0.117429578813679
 40
0.1521493343668351
 40
0.1822741157292867
 40
0.2122953756967669
 40
0.2446934164049824
 40
0.2791500903773478
 40
0.4286800384668995
 40
0.575813901156657
 40
0.7181630503302566
 40
0.858609149057313
 40
1.0
 40
1.0
 40
1.0
 40
1.0
 10
331.8348538506527
 20
145.6410557125267
 30
0.0
 10
332.224090800686
 20
145.7415813825939
 30
0.0
 10
332.7025222355864
 20
145.8651427263216
 30
0.0
 10
333.1805992064598
 20
146.0721985524617
 30
0.0
 10
333.2915251405938
 20
146.1483665783842
 30
0.0
 10
333.3288827887752
 20
146.1845145197577
 30
0.0
 10
333.3474185206883
 20
146.2148282245947
 30
0.0
 10
333.3539562541141
 20
146.2386858512209
 30
0.0
 10
333.35145619876
 20
146.2640021554586
 30
0.0
 10
333.3368577294018
 20
146.289684526259
 30
0.0
 10
333.3026659373576
 20
146.3202900698004
 30
0.0
 10
333.1961560941694
 20
146.3741776316128
 30
0.0
 10
332.7097744330642
 20
146.4806198398117
 30
0.0
 10
331.6952083117233
 20
146.5266528661305
 30
0.0
 10
330.1859446210024
 20
146.5489067053406
 30
0.0
 10
327.7530963007185
 20
146.5375269668206
 30
0.0
 10
324.8267701210838
 20
146.5451635990375
 30
0.0
 10
321.5793949707573
 20
146.5670313158605
 30
0.0
 10
318.7451496904528
 20
146.5835660367499
 30
0.0
 10
315.9801941089448
 20
146.5673588385921
 30
0.0
 10
313.0863173198069
 20
146.5119148782687
 30
0.0
 10
306.6240903360776
 20
146.3247394782163
 30
0.0
 10
296.741764466235
 20
145.8402311000726
 30
0.0
 10
283.6575103752251
 20
144.9116653137648
 30
0.0
 10
270.8666224105421
 20
143.7260080085644
 30
0.0
 10
258.2681055589294
 20
142.3467474343833
 30
0.0
 10
249.9107871747321
 20
141.3176896329661
 30
0.0
 10
245.718120601647
 20
140.8014359679229
 30
0.0
  0
SPLINE
  5
8F
330
1F
100
AcDbEntity
  8
0
  6
Continuous
 62
     7
370
    25
100
AcDbSpline
210
0.0
220
0.0
230
1.0
 70
     8
 71
     3
 72
    15
 73
    11
 74
     0
 42
0.00000001
 43
0.00000001
 40
0.0
 40
0.0
 40
0.0
 40
0.0
 40
0.1867325496505943
 40
0.3733970005827345
 40
0.5600521443209477
 40
0.6480631864631429
 40
0.7360398399874609
 40
0.8240330488734293
 40
0.9120501675728706
 40
0.9999999999999999
 40
0.9999999999999999
 40
0.9999999999999999
 40
0.9999999999999999
 10
251.0752991041562
 20
122.8056508047721
 30
0.0
 10
256.0061592594571
 20
124.5443251828303
 30
0.0
 10
265.8660813551354
 20
128.0210398690048
 30
0.0
 10
280.8186000680507
 20
132.7661554078088
 30
0.0
 10
293.3205735729939
 20
136.0259210226262
 30
0.0
 10
303.0729789596348
 20
138.8514841559516
 30
0.0
 10
310.2102526013133
 20
140.7803233246608
 30
0.0
 10
317.4302865465418
 20
142.3685045273709
 30
0.0
 10
324.542059045544
 20
144.4123055325537
 30
0.0
 10
329.4045420213019
 20
145.2315767435568
 30
0.0
 10
331.8348538506526
 20
145.6410557125267
 30
0.0
  0
CIRCLE
  5
90
330
1F
100
AcDbEntity
  8
0
  6
Continuous
 62
     7
370
    25
100
AcDbCircle
 10
251.7262033467
 20
132.5871058837
 30
0.0
 40
2.00000000000003
  0
CIRCLE
  5
91
330
1F
100
AcDbEntity
  8
0
  6
Continuous
 62
     7
370
    25
100
AcDbCircle
 10
271.7545233122
 20
139.6822066302
 30
0.0
 40
1.999999999999957
  0
CIRCLE
  5
92
330
1F
100
AcDbEntity
  8
0
  6
Continuous
 62
     7
370
    25
100
AcDbCircle
 10
304.705513033
 20
142.1127441048
 30
0.0
 40
1.999999999999957
  0
ARC
  5
93
330
1F
100
AcDbEntity
  8
0
  6
Continuous
 62
     7
370
    25
100
AcDbCircle
 10
225.6132199664
 20
85.452082143
 30
0.0
 40
5.08000000000002
100
AcDbArc
 50
337.9691224105
 51
81.13641468
  0
LINE
  5
94
330
1F
100
AcDbEntity
  8
0
  6
Continuous
 62
     7
370
    25
100
AcDbLine
 10
227.0547983316
 20
75.4717541493
 30
0.0
 11
230.3222877065
 21
83.5465425818
 31
0.0
  0
ARC
  5
95
330
1F
100
AcDbEntity
  8
0
  6
Continuous
 62
     7
370
    25
100
AcDbCircle
 10
222.3457305915
 20
77.3772937106
 30
0.0
 40
5.079999999999992
100
AcDbArc
 50
248.6102672862
 51
337.9691224105
  0
SPLINE
  5
96
330
1F
100
AcDbEntity
  8
0
  6
Continuous
 62
     7
370
    25
100
AcDbSpline
210
0.0
220
0.0
230
1.0
 70
     8
 71
     3
 72
    15
 73
    11
 74
     0
 42
0.00000001
 43
0.00000001
 40
0.0
 40
0.0
 40
0.0
 40
0.0
 40
0.1867325496505938
 40
0.3733970005827349
 40
0.5600521443209479
 40
0.6480631864631426
 40
0.7360398399874607
 40
0.8240330488734288
 40
0.91205016757287
 40
0.9999999999999999
 40
0.9999999999999999
 40
0.9999999999999999
 40
0.9999999999999999
 10
220.4930041207518
 20
72.64719808525142
 30
0.0
 10
215.6174036649649
 20
74.53528988905222
 30
0.0
 10
205.8679808158838
 20
78.3107849362909
 30
0.0
 10
191.0669686849375
 20
83.5092440576321
 30
0.0
 10
178.6701112608062
 20
87.14838398179157
 30
0.0
 10
169.008317104392
 20
90.26975411762457
 30
0.0
 10
161.9331209806472
 20
92.41514344953858
 30
0.0
 10
154.7648244205631
 20
94.22255434072623
 30
0.0
 10
147.7186200509563
 20
96.48207522093091
 30
0.0
 10
142.8833543223639
 20
97.4491074544239
 30
0.0
 10
140.4666459129281
 20
97.9324386841965
 30
0.0
  0
SPLINE
  5
97
330
1F
100
AcDbEntity
  8
0
  6
Continuous
 62
     7
370
    25
100
AcDbSpline
210
0.0
220
0.0
230
1.0
 70
     8
 71
     3
 72
    32
 73
    28
 74
     0
 42
0.00000001
 43
0.00000001
 40
0.0
 40
0.0
 40
0.0
 40
0.0
 40
0.0134425910553877
 40
0.0165229897286399
 40
0.0173286429912924
 40
0.0179376162082073
 40
0.018245580888212
 40
0.0185076141234501
 40
0.0187509501465795
 40
0.0190772698666362
 40
0.019469604350735
 40
0.0202720511162933
 40
0.0230354038652911
 40
0.0360117243677507
 40
0.0541972894086327
 40
0.0735805641819396
 40
0.1174295788136762
 40
0.1521493343668316
 40
0.1822741157292822
 40
0.2122953756967621
 40
0.2446934164049763
 40
0.2791500903773408
 40
0.4286800384668946
 40
0.5758139011566528
 40
0.7181630503302536
 40
0.858609149057312
 40
1.0
 40
1.0
 40
1.0
 40
1.0
 10
140.4666459129281
 20
97.9324386841965
 30
0.0
 10
140.0806522816649
 20
98.04477625688665
 30
0.0
 10
139.6062073790116
 20
98.18285622614643
 30
0.0
 10
139.1346605346019
 20
98.40438112033584
 30
0.0
 10
139.0261066420654
 20
98.48389327947868
 30
0.0
 10
138.9898676254305
 20
98.52116258610678
 30
0.0
 10
138.9722640409328
 20
98.55202693238721
 30
0.0
 10
138.9664561933208
 20
98.57607266408122
 30
0.0
 10
138.969726379477
 20
98.60130104927589
 30
0.0
 10
138.9851005161822
 20
98.6265267385254
 30
0.0
 10
139.0202088706273
 20
98.6560763812782
 30
0.0
 10
139.1283110204151
 20
98.70669397925808
 30
0.0
 10
139.6177097906614
 20
98.79826858068985
 30
0.0
 10
140.6332073991951
 20
98.81337027422302
 30
0.0
 10
142.1424484762233
 20
98.78963226888534
 30
0.0
 10
144.5738207659172
 20
98.7041381938469
 30
0.0
 10
147.4990211978627
 20
98.62261727191235
 30
0.0
 10
150.7455551358181
 20
98.54553968956387
 30
0.0
 10
153.5789885034404
 20
98.47571807995914
 30
0.0
 10
156.3421668151657
 20
98.37528074329924
 30
0.0
 10
159.2330110943761
 20
98.23169712026274
 30
0.0
 10
165.6865357774373
 20
97.84772917271371
 30
0.0
 10
175.5495131265191
 20
97.06236888739541
 30
0.0
 10
188.5994036176026
 20
95.73560677294202
 30
0.0
 10
201.348231564487
 20
94.16081023014681
 30
0.0
 10
213.8988793434114
 20
92.39836110428557
 30
0.0
 10
222.2209667723749
 20
91.11516534439839
 30
0.0
 10
226.3959588185895
 20
90.47141674922983
 30
0.0
  0
CIRCLE
  5
98
330
1F
100
AcDbEntity
  8
0
  6
Continuous
 62
     7
370
    25
100
AcDbCircle
 10
220.1404056977
 20
82.4439431644
 30
0.0
 40
1.999999999999979
  0
CIRCLE
  5
99
330
1F
100
AcDbEntity
  8
0
  6
Continuous
 62
     7
370
    25
100
AcDbCircle
 10
200.3375436075
 20
90.1459369504
 30
0.0
 40
2.000000000000032
  0
CIRCLE
  5
9A
330
1F
100
AcDbEntity
  8
0
  6
Continuous
 62
     7
370
    25
100
AcDbCircle
 10
167.4758990218
 20
93.5792372759
 30
0.0
 40
2.000000000000032
  0
ARC
  5
9B
330
1F
100
AcDbEntity
  8
0
  6
Continuous
 62
     7
370
    25
100
AcDbCircle
 10
494.6077742954
 20
130.3644284767
 30
0.0
 40
5.08000000000001
100
AcDbArc
 50
178.6938296963
 51
281.8611219659
  0
LINE
  5
9C
330
1F
100
AcDbEntity
  8
0
  6
Continuous
 62
     7
370
    25
100
AcDbLine
 10
489.7276578098
 20
139.1888014363
 30
0.0
 11
489.5290942812
 21
130.4802270657
 31
0.0
  0
ARC
  5
9D
330
1F
100
AcDbEntity
  8
0
  6
Continuous
 62
     7
370
    25
100
AcDbCircle
 10
494.806337824
 20
139.0730028473
 30
0.0
 40
5.079999999999997
100
AcDbArc
 50
89.3349745721
 51
178.6938296963
  0
SPLINE
  5
9E
330
1F
100
AcDbEntity
  8
0
  6
Continuous
 62
     7
370
    25
100
AcDbSpline
210
0.0
220
0.0
230
1.0
 70
     8
 71
     3
 72
    32
 73
    28
 74
     0
 42
0.00000001
 43
0.00000001
 40
0.0
 40
0.0
 40
0.0
 40
0.0
 40
0.0134425910553878
 40
0.0165229897286397
 40
0.0173286429912927
 40
0.0179376162082075
 40
0.0182455808882122
 40
0.0185076141234503
 40
0.0187509501465797
 40
0.0190772698666365
 40
0.0194696043507353
 40
0.0202720511162935
 40
0.0230354038652915
 40
0.0360117243677507
 40
0.0541972894086331
 40
0.0735805641819399
 40
0.1174295788136762
 40
0.1521493343668315
 40
0.1822741157292821
 40
0.212295375696762
 40
0.2446934164049766
 40
0.2791500903773411
 40
0.4286800384668947
 40
0.575813901156653
 40
0.7181630503302541
 40
0.8586091490573119
 40
1.0
 40
1.0
 40
1.0
 40
1.0
 10
578.6611687891578
 20
148.8231729225371
 30
0.0
 10
579.0619391757783
 20
148.8546992737666
 30
0.0
 10
579.5545469590834
 20
148.8934499562356
 30
0.0
 10
580.0739735526244
 20
148.8531297486396
 30
0.0
 10
580.2036407069381
 20
148.8171775563752
 30
0.0
 10
580.2507235467967
 20
148.7951440878776
 30
0.0
 10
580.2781102492429
 20
148.7725064513487
 30
0.0
 10
580.2920515400092
 20
148.7520719531078
 30
0.0
 10
580.2979207380866
 20
148.7273188108637
 30
0.0
 10
580.2924682598551
 20
148.6982848659256
 30
0.0
 10
580.2700886880394
 20
148.658223254575
 30
0.0
 10
580.1868941286274
 20
148.5726260507757
 30
0.0
 10
579.7615698650707
 20
148.3137895487597
 30
0.0
 10
578.8171277261367
 20
147.9403026008077
 30
0.0
 10
577.397146986861
 20
147.4284170456552
 30
0.0
 10
575.092850620071
 20
146.6479692883032
 30
0.0
 10
572.3280869931302
 20
145.6890504622749
 30
0.0
 10
569.2643552648227
 20
144.6122628968934
 30
0.0
 10
566.5895607262478
 20
143.6748761664921
 30
0.0
 10
563.9696409072242
 20
142.7909857983629
 30
0.0
 10
561.2150476617742
 20
141.9022715835732
 30
0.0
 10
555.0432428849036
 20
139.9776318729202
 30
0.0
 10
545.5405619546779
 20
137.2218800508976
 30
0.0
 10
532.8655978938798
 20
133.844717692482
 30
0.0
 10
520.3844411006876
 20
130.806079300996
 30
0.0
 10
508.0222343798329
 20
128.0130824190211
 30
0.0
 10
499.7845616010262
 20
126.2682392390157
 30
0.0
 10
495.6519183640492
 20
125.3928931842432
 30
0.0
  0
CIRCLE
  5
9F
330
1F
100
AcDbEntity
  8
0
  6
Continuous
 62
     7
370
    25
100
AcDbCircle
 10
498.6619362601
 20
135.1146249882
 30
0.0
 40
2.000000000000044
  0
CIRCLE
  5
A0
330
1F
100
AcDbEntity
  8
0
  6
Continuous
 62
     7
370
    25
100
AcDbCircle
 10
519.9089528587
 20
134.9188166535
 30
0.0
 40
1.999999999999987
  0
CIRCLE
  5
A1
330
1F
100
AcDbEntity
  8
0
  6
Continuous
 62
     7
370
    25
100
AcDbCircle
 10
551.8591404077
 20
143.3366994978
 30
0.0
 40
1.999999999999985
  0
SPLINE
  5
A2
330
1F
100
AcDbEntity
  8
0
  6
Continuous
 62
     7
370
    25
100
AcDbSpline
210
0.0
220
0.0
230
1.0
 70
     8
 71
     3
 72
    15
 73
    11
 74
     0
 42
0.00000001
 43
0.00000001
 40
0.0
 40
0.0
 40
0.0
 40
0.0
 40
0.1867325496505939
 40
0.3733970005827347
 40
0.5600521443209479
 40
0.6480631864631428
 40
0.7360398399874605
 40
0.8240330488734291
 40
0.9120501675728704
 40
0.9999999999999999
 40
0.9999999999999999
 40
0.9999999999999999
 40
0.9999999999999999
 10
494.8652994674122
 20
144.1526606630126
 30
0.0
 10
500.0935617370425
 20
144.1121131105795
 30
0.0
 10
510.5481796030376
 20
144.0310327928319
 30
0.0
 10
526.2310620327639
 20
144.4067135510033
 30
0.0
 10
539.1135498941413
 20
145.3900343955446
 30
0.0
 10
549.2547288433924
 20
145.8897416749186
 30
0.0
 10
556.6313062677159
 20
146.3869348746965
 30
0.0
 10
563.9753565393895
 20
147.2331826575741
 30
0.0
 10
571.3652068884536
 20
147.6133700387273
 30
0.0
 10
576.2298015304284
 20
148.4200081087341
 30
0.0
 10
578.6611687891578
 20
148.8231729225371
 30
0.0
  0
ARC
  5
A3
330
1F
100
AcDbEntity
  8
0
  6
Continuous
 62
     7
370
    25
100
AcDbCircle
 10
232.7103193535
 20
131.7882082805
 30
0.0
 40
5.080000000000018
100
AcDbArc
 50
338.1749342354
 51
81.342226505
  0
LINE
  5
A4
330
1F
100
AcDbEntity
  8
0
  6
Continuous
 62
     7
370
    25
100
AcDbLine
 10
234.1877386173
 20
121.8131229494
 30
0.0
 11
237.4262015752
 21
129.8995963905
 31
0.0
  0
ARC
  5
A5
330
1F
100
AcDbEntity
  8
0
  6
Continuous
 62
     7
370
    25
100
AcDbCircle
 10
229.4718563956
 20
123.7017348394
 30
0.0
 40
5.080000000000032
100
AcDbArc
 50
248.8160791112
 51
338.1749342354
  0
SPLINE
  5
A6
330
1F
100
AcDbEntity
  8
0
  6
Continuous
 62
     7
370
    25
100
AcDbSpline
210
0.0
220
0.0
230
1.0
 70
     8
 71
     3
 72
    15
 73
    11
 74
     0
 42
0.00000001
 43
0.00000001
 40
0.0
 40
0.0
 40
0.0
 40
0.0
 40
0.186732549650594
 40
0.3733970005827348
 40
0.5600521443209475
 40
0.6480631864631428
 40
0.7360398399874607
 40
0.8240330488734294
 40
0.9120501675728704
 40
0.9999999999999999
 40
0.9999999999999999
 40
0.9999999999999999
 40
0.9999999999999999
 10
227.6361327893246
 20
118.965014577285
 30
0.0
 10
222.7537816001536
 20
120.8355806225369
 30
0.0
 10
212.9908597462012
 20
124.5760305440738
 30
0.0
 10
198.1712697913293
 20
129.7212896149211
 30
0.0
 10
185.7614202417808
 20
133.3158754797213
 30
0.0
 10
176.0884761882597
 20
136.4025194798033
 30
0.0
 10
169.0056192870445
 20
138.5224802558209
 30
0.0
 10
161.8308765978467
 20
140.3041303468031
 30
0.0
 10
154.7766012933608
 20
142.5383260756662
 30
0.0
 10
149.9378930965893
 20
143.4879833787032
 30
0.0
 10
147.51946411123
 20
143.9626304651622
 30
0.0
  0
SPLINE
  5
A7
330
1F
100
AcDbEntity
  8
0
  6
Continuous
 62
     7
370
    25
100
AcDbSpline
210
0.0
220
0.0
230
1.0
 70
     8
 71
     3
 72
    32
 73
    28
 74
     0
 42
0.00000001
 43
0.00000001
 40
0.0
 40
0.0
 40
0.0
 40
0.0
 40
0.0134425910553879
 40
0.0165229897286398
 40
0.0173286429912929
 40
0.0179376162082078
 40
0.0182455808882122
 40
0.0185076141234504
 40
0.0187509501465798
 40
0.0190772698666364
 40
0.0194696043507357
 40
0.0202720511162934
 40
0.0230354038652916
 40
0.036011724367751
 40
0.0541972894086334
 40
0.0735805641819398
 40
0.1174295788136762
 40
0.1521493343668316
 40
0.1822741157292823
 40
0.2122953756967618
 40
0.2446934164049768
 40
0.2791500903773408
 40
0.4286800384668946
 40
0.5758139011566529
 40
0.7181630503302536
 40
0.8586091490573113
 40
1.0
 40
1.0
 40
1.0
 40
1.0
 10
147.5194641112299
 20
143.9626304651622
 30
0.0
 10
147.1330694439772
 20
144.0735807906802
 30
0.0
 10
146.6581316070744
 20
144.2099556220924
 30
0.0
 10
146.1857920683508
 20
144.4297852501594
 30
0.0
 10
146.0769532616216
 20
144.5089069613787
 30
0.0
 10
146.0405806042212
 20
144.5460458538878
 30
0.0
 10
146.0228662658997
 20
144.576846767451
 30
0.0
 10
146.016972081415
 20
144.6008714817228
 30
0.0
 10
146.0201516239377
 20
144.6261114509457
 30
0.0
 10
146.0354350486038
 20
144.6513922026754
 30
0.0
 10
146.0704370316794
 20
144.6810677670244
 30
0.0
 10
146.1783566612614
 20
144.7320733506886
 30
0.0
 10
146.6674233302529
 20
144.8254053239193
 30
0.0
 10
147.6828601406544
 20
144.8441546750297
 30
0.0
 10
149.1921767496823
 20
144.8258381469749
 30
0.0
 10
151.6238404553176
 20
144.7490783225016
 30
0.0
 10
154.5493148453326
 20
144.6780654987836
 30
0.0
 10
157.7961047073956
 20
144.612650243657
 30
0.0
 10
160.6297706001894
 20
144.5530070215792
 30
0.0
 10
163.3932918646738
 20
144.4624959077444
 30
0.0
 10
166.2846332581804
 20
144.3292973730617
 30
0.0
 10
172.7394955519115
 20
143.9685135200484
 30
0.0
 10
182.6052303512671
 20
143.2185869669492
 30
0.0
 10
195.659802494126
 20
141.9387097445119
 30
0.0
 10
208.4142049961717
 20
140.4097182513139
 30
0.0
 10
220.9711026730943
 20
138.6923635054441
 30
0.0
 10
229.2977457614472
 20
137.4390696800826
 30
0.0
 10
233.4750232729227
 20
136.8103221696631
 30
0.0
  0
CIRCLE
  5
A8
330
1F
100
AcDbEntity
  8
0
  6
Continuous
 62
     7
370
    25
100
AcDbCircle
 10
227.2483458877
 20
128.7604298882
 30
0.0
 40
1.99999999999997
  0
CIRCLE
  5
A9
330
1F
100
AcDbEntity
  8
0
  6
Continuous
 62
     7
370
    25
100
AcDbCircle
 10
207.4179453308
 20
136.3912403954
 30
0.0
 40
1.999999999999997
  0
CIRCLE
  5
AA
330
1F
100
AcDbEntity
  8
0
  6
Continuous
 62
     7
370
    25
100
AcDbCircle
 10
174.5441800432
 20
139.7064767088
 30
0.0
 40
2.000000000000023
  0
SPLINE
  5
AB
330
1F
100
AcDbEntity
  8
0
  6
Continuous
 62
     7
370
    25
100
AcDbSpline
210
0.0
220
0.0
230
1.0
 70
     8
 71
     3
 72
    25
 73
    21
 74
     0
 42
0.00000001
 43
0.00000001
 40
0.0
 40
0.0
 40
0.0
 40
0.0
 40
0.0852857485966717
 40
0.1705257596972619
 40
0.255706684949392
 40
0.3409518958392517
 40
0.4262491261338396
 40
0.4979110612592199
 40
0.5696677609631464
 40
0.6413277168654836
 40
0.7128529698933507
 40
0.7605481848193607
 40
0.8082975951516695
 40
0.8560865766577774
 40
0.8799395449469434
 40
0.9037872307715071
 40
0.9276204985625924
 40
0.9513362154826172
 40
0.9751948798249556
 40
0.9999999999999999
 40
0.9999999999999999
 40
0.9999999999999999
 40
0.9999999999999999
 10
865.172328606719
 20
24.04290004981565
 30
0.0
 10
860.9463346029439
 20
25.41587402244248
 30
0.0
 10
852.496612933995
 20
28.16108566189211
 30
0.0
 10
839.7169164991446
 20
31.933000857783
 30
0.0
 10
826.7877871208544
 20
35.16115783401075
 30
0.0
 10
813.6783404138548
 20
37.59236441175261
 30
0.0
 10
801.1244068854612
 20
38.99285624011607
 30
0.0
 10
789.2053155462185
 20
39.40829300555085
 30
0.0
 10
777.9972926173532
 20
38.93058774501121
 30
0.0
 10
766.8783443531509
 20
37.46821223243361
 30
0.0
 10
757.180581114958
 20
35.17639935995295
 30
0.0
 10
748.9285717512242
 20
32.3983503320469
 30
0.0
 10
742.048637609245
 20
29.49436201910848
 30
0.0
 10
736.4999165339066
 20
26.66044819740783
 30
0.0
 10
732.2870468391129
 20
24.00687624927038
 30
0.0
 10
729.2863772087892
 20
21.79128980335932
 30
0.0
 10
726.494144568204
 20
19.31970363848407
 30
0.0
 10
724.0665125479178
 20
16.48893834877249
 30
0.0
 10
722.0933396723839
 20
13.22677979575565
 30
0.0
 10
721.4286829756136
 20
10.76843434779255
 30
0.0
 10
721.0898912149227
 20
9.515355597891462
 30
0.0
  0
LINE
  5
AC
330
1F
100
AcDbEntity
  8
0
  6
Continuous
 62
     7
370
    25
100
AcDbLine
 10
863.3447848946
 20
3.5371448842
 30
0.0
 11
865.1723286067
 21
24.0429000498
 31
0.0
  0
SPLINE
  5
AD
330
1F
100
AcDbEntity
  8
0
  6
Continuous
 62
     7
370
    25
100
AcDbSpline
210
0.0
220
0.0
230
1.0
 70
     8
 71
     3
 72
    21
 73
    17
 74
     0
 42
0.00000001
 43
0.00000001
 40
0.0
 40
0.0
 40
0.0
 40
0.0
 40
0.0127769631279323
 40
0.0239257360036077
 40
0.0348510338069689
 40
0.0524445796124288
 40
0.0717847701455353
 40
0.1110495992563156
 40
0.1470456735411493
 40
0.2169618341660079
 40
0.289074812457108
 40
0.4341739120083907
 40
0.5775367973539688
 40
0.7180725693487131
 40
0.8590243711936754
 40
1.0
 40
1.0
 40
1.0
 40
1.0
 10
721.0898912149227
 20
9.515355597891462
 30
0.0
 10
721.1880397690824
 20
8.898756559335336
 30
0.0
 10
721.3718296393708
 20
7.744132751717037
 30
0.0
 10
722.3193383702751
 20
6.290645693777755
 30
0.0
 10
723.8594158905876
 20
5.102934897764033
 30
0.0
 10
726.0823194953168
 20
4.329720952116769
 30
0.0
 10
729.7377545868826
 20
3.815977440337723
 30
0.0
 10
734.3174722908324
 20
3.639963567901222
 30
0.0
 10
741.3217210589706
 20
3.101662204172073
 30
0.0
 10
749.9486817471463
 20
2.957255631679506
 30
0.0
 10
763.8207748328241
 20
3.853997918430621
 30
0.0
 10
781.2033450013693
 20
5.377072905192404
 30
0.0
 10
801.9539178763425
 20
6.303200663583225
 30
0.0
 10
822.5205310538852
 20
6.198072025526483
 30
0.0
 10
842.9516883234543
 20
5.286829370504787
 30
0.0
 10
856.5467030455331
 20
4.120405906187244
 30
0.0
 10
863.3447848946415
 20
3.537144884169105
 30
0.0
  0
CIRCLE
  5
AE
330
1F
100
AcDbEntity
  8
0
  6
Continuous
 62
     7
370
    25
100
AcDbCircle
 10
824.5435738001
 20
25.7958826028
 30
0.0
 40
1.999999999999985
  0
CIRCLE
  5
AF
330
1F
100
AcDbEntity
  8
0
  6
Continuous
 62
     7
370
    25
100
AcDbCircle
 10
734.1907114259
 20
13.44790055
 30
0.0
 40
1.999999999999992
  0
SPLINE
  5
B0
330
1F
100
AcDbEntity
  8
0
  6
Continuous
 62
     7
370
    25
100
AcDbSpline
210
0.0
220
0.0
230
1.0
 70
     8
 71
     3
 72
    25
 73
    21
 74
     0
 42
0.00000001
 43
0.00000001
 40
0.0
 40
0.0
 40
0.0
 40
0.0
 40
0.085285748596672
 40
0.1705257596972622
 40
0.2557066849493922
 40
0.340951895839252
 40
0.4262491261338396
 40
0.4979110612592199
 40
0.5696677609631463
 40
0.6413277168654836
 40
0.7128529698933508
 40
0.7605481848193605
 40
0.8082975951516693
 40
0.8560865766577772
 40
0.8799395449469433
 40
0.9037872307715069
 40
0.9276204985625923
 40
0.9513362154826172
 40
0.9751948798249557
 40
1.0
 40
1.0
 40
1.0
 40
1.0
 10
1009.172328606719
 20
24.04290004981566
 30
0.0
 10
1004.946334602944
 20
25.41587402244249
 30
0.0
 10
996.4966129339952
 20
28.16108566189211
 30
0.0
 10
983.7169164991442
 20
31.93300085778303
 30
0.0
 10
970.7877871208543
 20
35.16115783401076
 30
0.0
 10
957.6783404138548
 20
37.59236441175261
 30
0.0
 10
945.1244068854612
 20
38.9928562401161
 30
0.0
 10
933.2053155462186
 20
39.40829300555086
 30
0.0
 10
921.9972926173532
 20
38.93058774501122
 30
0.0
 10
910.8783443531507
 20
37.46821223243363
 30
0.0
 10
901.1805811149583
 20
35.17639935995297
 30
0.0
 10
892.9285717512244
 20
32.3983503320469
 30
0.0
 10
886.0486376092449
 20
29.4943620191085
 30
0.0
 10
880.4999165339067
 20
26.66044819740782
 30
0.0
 10
876.2870468391128
 20
24.00687624927041
 30
0.0
 10
873.2863772087894
 20
21.79128980335929
 30
0.0
 10
870.494144568204
 20
19.31970363848409
 30
0.0
 10
868.0665125479177
 20
16.4889383487725
 30
0.0
 10
866.0933396723838
 20
13.2267797957557
 30
0.0
 10
865.4286829756135
 20
10.76843434779258
 30
0.0
 10
865.0898912149227
 20
9.515355597891476
 30
0.0
  0
LINE
  5
B1
330
1F
100
AcDbEntity
  8
0
  6
Continuous
 62
     7
370
    25
100
AcDbLine
 10
1007.3447848946
 20
3.5371448842
 30
0.0
 11
1009.1723286067
 21
24.0429000498
 31
0.0
  0
CIRCLE
  5
B2
330
1F
100
AcDbEntity
  8
0
  6
Continuous
 62
     7
370
    25
100
AcDbCircle
 10
968.5435738001
 20
25.7958826028
 30
0.0
 40
1.999999999999995
  0
CIRCLE
  5
B3
330
1F
100
AcDbEntity
  8
0
  6
Continuous
 62
     7
370
    25
100
AcDbCircle
 10
878.1907114259
 20
13.44790055
 30
0.0
 40
2.000000000000002
  0
SPLINE
  5
B4
330
1F
100
AcDbEntity
  8
0
  6
Continuous
 62
     7
370
    25
100
AcDbSpline
210
0.0
220
0.0
230
1.0
 70
     8
 71
     3
 72
    21
 73
    17
 74
     0
 42
0.00000001
 43
0.00000001
 40
0.0
 40
0.0
 40
0.0
 40
0.0
 40
0.0127769631279323
 40
0.0239257360036079
 40
0.0348510338069689
 40
0.052444579612429
 40
0.0717847701455355
 40
0.1110495992563158
 40
0.1470456735411491
 40
0.2169618341660079
 40
0.2890748124571078
 40
0.4341739120083908
 40
0.5775367973539689
 40
0.7180725693487132
 40
0.8590243711936755
 40
1.0
 40
1.0
 40
1.0
 40
1.0
 10
865.0898912149227
 20
9.515355597891476
 30
0.0
 10
865.1880397690825
 20
8.898756559335364
 30
0.0
 10
865.3718296393708
 20
7.744132751717009
 30
0.0
 10
866.319338370275
 20
6.290645693777797
 30
0.0
 10
867.8594158905877
 20
5.102934897763991
 30
0.0
 10
870.0823194953169
 20
4.329720952116784
 30
0.0
 10
873.7377545868826
 20
3.815977440337723
 30
0.0
 10
878.3174722908323
 20
3.63996356790125
 30
0.0
 10
885.3217210589708
 20
3.101662204172073
 30
0.0
 10
893.9486817471462
 20
2.957255631679562
 30
0.0
 10
907.820774832824
 20
3.853997918430607
 30
0.0
 10
925.2033450013691
 20
5.377072905192431
 30
0.0
 10
945.9539178763425
 20
6.303200663583225
 30
0.0
 10
966.5205310538854
 20
6.198072025526469
 30
0.0
 10
986.9516883234543
 20
5.286829370504814
 30
0.0
 10
1000.546703045533
 20
4.120405906187258
 30
0.0
 10
1007.344784894642
 20
3.537144884169119
 30
0.0
  0
SPLINE
  5
B5
330
1F
100
AcDbEntity
  8
0
  6
Continuous
 62
     7
370
    25
100
AcDbSpline
210
0.0
220
0.0
230
1.0
 70
     8
 71
     3
 72
    25
 73
    21
 74
     0
 42
0.00000001
 43
0.00000001
 40
0.0
 40
0.0
 40
0.0
 40
0.0
 40
0.0852857485966716
 40
0.1705257596972619
 40
0.255706684949392
 40
0.3409518958392517
 40
0.4262491261338396
 40
0.4979110612592198
 40
0.5696677609631463
 40
0.6413277168654836
 40
0.7128529698933506
 40
0.7605481848193606
 40
0.8082975951516695
 40
0.8560865766577774
 40
0.8799395449469434
 40
0.9037872307715071
 40
0.9276204985625924
 40
0.9513362154826172
 40
0.9751948798249556
 40
0.9999999999999999
 40
0.9999999999999999
 40
0.9999999999999999
 40
0.9999999999999999
 10
865.172328606719
 20
133.5429000498156
 30
0.0
 10
860.9463346029439
 20
134.9158740224425
 30
0.0
 10
852.496612933995
 20
137.6610856618921
 30
0.0
 10
839.7169164991445
 20
141.433000857783
 30
0.0
 10
826.7877871208543
 20
144.6611578340107
 30
0.0
 10
813.6783404138548
 20
147.0923644117526
 30
0.0
 10
801.1244068854612
 20
148.4928562401161
 30
0.0
 10
789.2053155462185
 20
148.9082930055508
 30
0.0
 10
777.9972926173533
 20
148.4305877450112
 30
0.0
 10
766.8783443531509
 20
146.9682122324336
 30
0.0
 10
757.1805811149583
 20
144.676399359953
 30
0.0
 10
748.9285717512241
 20
141.8983503320469
 30
0.0
 10
742.048637609245
 20
138.9943620191085
 30
0.0
 10
736.4999165339066
 20
136.1604481974078
 30
0.0
 10
732.2870468391129
 20
133.5068762492704
 30
0.0
 10
729.2863772087892
 20
131.2912898033593
 30
0.0
 10
726.494144568204
 20
128.819703638484
 30
0.0
 10
724.0665125479178
 20
125.9889383487725
 30
0.0
 10
722.0933396723839
 20
122.7267797957557
 30
0.0
 10
721.4286829756136
 20
120.2684343477925
 30
0.0
 10
721.0898912149227
 20
119.0153555978914
 30
0.0
  0
LINE
  5
B6
330
1F
100
AcDbEntity
  8
0
  6
Continuous
 62
     7
370
    25
100
AcDbLine
 10
863.3447848946
 20
113.0371448842
 30
0.0
 11
865.1723286067
 21
133.5429000498
 31
0.0
  0
CIRCLE
  5
B7
330
1F
100
AcDbEntity
  8
0
  6
Continuous
 62
     7
370
    25
100
AcDbCircle
 10
824.5435738001
 20
135.2958826028
 30
0.0
 40
1.999999999999992
  0
CIRCLE
  5
B8
330
1F
100
AcDbEntity
  8
0
  6
Continuous
 62
     7
370
    25
100
AcDbCircle
 10
734.1907114259
 20
122.94790055
 30
0.0
 40
1.999999999999992
  0
SPLINE
  5
B9
330
1F
100
AcDbEntity
  8
0
  6
Continuous
 62
     7
370
    25
100
AcDbSpline
210
0.0
220
0.0
230
1.0
 70
     8
 71
     3
 72
    21
 73
    17
 74
     0
 42
0.00000001
 43
0.00000001
 40
0.0
 40
0.0
 40
0.0
 40
0.0
 40
0.0127769631279323
 40
0.0239257360036077
 40
0.0348510338069689
 40
0.0524445796124288
 40
0.0717847701455353
 40
0.1110495992563156
 40
0.1470456735411493
 40
0.2169618341660079
 40
0.289074812457108
 40
0.4341739120083907
 40
0.5775367973539688
 40
0.7180725693487131
 40
0.8590243711936754
 40
1.0
 40
1.0
 40
1.0
 40
1.0
 10
721.0898912149227
 20
119.0153555978914
 30
0.0
 10
721.1880397690824
 20
118.3987565593353
 30
0.0
 10
721.3718296393708
 20
117.244132751717
 30
0.0
 10
722.3193383702751
 20
115.7906456937778
 30
0.0
 10
723.8594158905876
 20
114.602934897764
 30
0.0
 10
726.0823194953168
 20
113.8297209521168
 30
0.0
 10
729.7377545868826
 20
113.3159774403377
 30
0.0
 10
734.3174722908324
 20
113.1399635679012
 30
0.0
 10
741.3217210589706
 20
112.601662204172
 30
0.0
 10
749.9486817471463
 20
112.4572556316795
 30
0.0
 10
763.8207748328241
 20
113.3539979184306
 30
0.0
 10
781.2033450013693
 20
114.8770729051924
 30
0.0
 10
801.9539178763425
 20
115.8032006635832
 30
0.0
 10
822.5205310538852
 20
115.6980720255264
 30
0.0
 10
842.9516883234543
 20
114.7868293705048
 30
0.0
 10
856.5467030455331
 20
113.6204059061872
 30
0.0
 10
863.3447848946415
 20
113.0371448841691
 30
0.0
  0
SPLINE
  5
BA
330
1F
100
AcDbEntity
  8
0
  6
Continuous
 62
     7
370
    25
100
AcDbSpline
210
0.0
220
0.0
230
1.0
 70
     8
 71
     3
 72
    25
 73
    21
 74
     0
 42
0.00000001
 43
0.00000001
 40
0.0
 40
0.0
 40
0.0
 40
0.0
 40
0.085285748596672
 40
0.1705257596972622
 40
0.2557066849493922
 40
0.340951895839252
 40
0.4262491261338396
 40
0.4979110612592198
 40
0.5696677609631462
 40
0.6413277168654836
 40
0.7128529698933508
 40
0.7605481848193604
 40
0.8082975951516693
 40
0.8560865766577772
 40
0.8799395449469433
 40
0.9037872307715069
 40
0.9276204985625923
 40
0.9513362154826172
 40
0.9751948798249557
 40
1.0
 40
1.0
 40
1.0
 40
1.0
 10
1009.172328606719
 20
97.04290004981567
 30
0.0
 10
1004.946334602944
 20
98.4158740224425
 30
0.0
 10
996.4966129339952
 20
101.1610856618921
 30
0.0
 10
983.7169164991442
 20
104.933000857783
 30
0.0
 10
970.7877871208543
 20
108.1611578340108
 30
0.0
 10
957.6783404138549
 20
110.5923644117526
 30
0.0
 10
945.1244068854611
 20
111.9928562401161
 30
0.0
 10
933.2053155462186
 20
112.4082930055509
 30
0.0
 10
921.9972926173532
 20
111.9305877450112
 30
0.0
 10
910.8783443531507
 20
110.4682122324336
 30
0.0
 10
901.1805811149582
 20
108.176399359953
 30
0.0
 10
892.9285717512242
 20
105.3983503320469
 30
0.0
 10
886.0486376092449
 20
102.4943620191085
 30
0.0
 10
880.4999165339067
 20
99.66044819740783
 30
0.0
 10
876.2870468391128
 20
97.0068762492704
 30
0.0
 10
873.2863772087894
 20
94.79128980335932
 30
0.0
 10
870.494144568204
 20
92.31970363848407
 30
0.0
 10
868.0665125479177
 20
89.48893834877249
 30
0.0
 10
866.0933396723838
 20
86.22677979575569
 30
0.0
 10
865.4286829756135
 20
83.76843434779256
 30
0.0
 10
865.0898912149227
 20
82.51535559789147
 30
0.0
  0
LINE
  5
BB
330
1F
100
AcDbEntity
  8
0
  6
Continuous
 62
     7
370
    25
100
AcDbLine
 10
1007.3447848946
 20
76.5371448842
 30
0.0
 11
1009.1723286067
 21
97.0429000498
 31
0.0
  0
CIRCLE
  5
BC
330
1F
100
AcDbEntity
  8
0
  6
Continuous
 62
     7
370
    25
100
AcDbCircle
 10
968.5435738001
 20
98.7958826028
 30
0.0
 40
2.000000000000002
  0
CIRCLE
  5
BD
330
1F
100
AcDbEntity
  8
0
  6
Continuous
 62
     7
370
    25
100
AcDbCircle
 10
878.1907114259
 20
86.44790055
 30
0.0
 40
2.000000000000002
  0
SPLINE
  5
BE
330
1F
100
AcDbEntity
  8
0
  6
Continuous
 62
     7
370
    25
100
AcDbSpline
210
0.0
220
0.0
230
1.0
 70
     8
 71
     3
 72
    21
 73
    17
 74
     0
 42
0.00000001
 43
0.00000001
 40
0.0
 40
0.0
 40
0.0
 40
0.0
 40
0.0127769631279323
 40
0.0239257360036079
 40
0.0348510338069689
 40
0.052444579612429
 40
0.0717847701455355
 40
0.1110495992563158
 40
0.1470456735411491
 40
0.2169618341660079
 40
0.2890748124571078
 40
0.4341739120083908
 40
0.5775367973539689
 40
0.7180725693487132
 40
0.8590243711936755
 40
1.0
 40
1.0
 40
1.0
 40
1.0
 10
865.0898912149227
 20
82.51535559789147
 30
0.0
 10
865.1880397690824
 20
81.89875655933534
 30
0.0
 10
865.3718296393708
 20
80.74413275171702
 30
0.0
 10
866.3193383702751
 20
79.29064569377779
 30
0.0
 10
867.8594158905876
 20
78.10293489776402
 30
0.0
 10
870.0823194953169
 20
77.32972095211679
 30
0.0
 10
873.7377545868826
 20
76.81597744033772
 30
0.0
 10
878.3174722908323
 20
76.63996356790125
 30
0.0
 10
885.3217210589708
 20
76.10166220417207
 30
0.0
 10
893.9486817471462
 20
75.95725563167952
 30
0.0
 10
907.820774832824
 20
76.85399791843064
 30
0.0
 10
925.2033450013691
 20
78.37707290519242
 30
0.0
 10
945.9539178763425
 20
79.30320066358324
 30
0.0
 10
966.5205310538854
 20
79.19807202552647
 30
0.0
 10
986.9516883234543
 20
78.2868293705048
 30
0.0
 10
1000.546703045533
 20
77.12040590618726
 30
0.0
 10
1007.344784894642
 20
76.53714488416911
 30
0.0
  0
SPLINE
  5
BF
330
1F
100
AcDbEntity
  8
0
  6
Continuous
 62
     7
370
    25
100
AcDbSpline
210
0.0
220
0.0
230
1.0
 70
     8
 71
     3
 72
    25
 73
    21
 74
     0
 42
0.00000001
 43
0.00000001
 40
0.0
 40
0.0
 40
0.0
 40
0.0
 40
0.085285748596672
 40
0.1705257596972622
 40
0.2557066849493922
 40
0.340951895839252
 40
0.4262491261338396
 40
0.4979110612592199
 40
0.5696677609631463
 40
0.6413277168654836
 40
0.7128529698933508
 40
0.7605481848193605
 40
0.8082975951516693
 40
0.8560865766577772
 40
0.8799395449469433
 40
0.9037872307715069
 40
0.9276204985625923
 40
0.9513362154826172
 40
0.9751948798249557
 40
1.0
 40
1.0
 40
1.0
 40
1.0
 10
1009.172328606719
 20
60.54290004981566
 30
0.0
 10
1004.946334602944
 20
61.91587402244249
 30
0.0
 10
996.4966129339952
 20
64.66108566189212
 30
0.0
 10
983.7169164991442
 20
68.43300085778301
 30
0.0
 10
970.7877871208543
 20
71.66115783401077
 30
0.0
 10
957.6783404138548
 20
74.09236441175261
 30
0.0
 10
945.1244068854612
 20
75.4928562401161
 30
0.0
 10
933.2053155462186
 20
75.90829300555087
 30
0.0
 10
921.9972926173532
 20
75.43058774501121
 30
0.0
 10
910.8783443531507
 20
73.96821223243361
 30
0.0
 10
901.1805811149583
 20
71.67639935995295
 30
0.0
 10
892.9285717512244
 20
68.8983503320469
 30
0.0
 10
886.0486376092449
 20
65.99436201910848
 30
0.0
 10
880.4999165339067
 20
63.16044819740783
 30
0.0
 10
876.2870468391128
 20
60.5068762492704
 30
0.0
 10
873.2863772087894
 20
58.29128980335931
 30
0.0
 10
870.494144568204
 20
55.81970363848408
 30
0.0
 10
868.0665125479177
 20
52.98893834877249
 30
0.0
 10
866.0933396723838
 20
49.72677979575569
 30
0.0
 10
865.4286829756135
 20
47.26843434779257
 30
0.0
 10
865.0898912149227
 20
46.01535559789147
 30
0.0
  0
LINE
  5
C0
330
1F
100
AcDbEntity
  8
0
  6
Continuous
 62
     7
370
    25
100
AcDbLine
 10
1007.3447848946
 20
40.0371448842
 30
0.0
 11
1009.1723286067
 21
60.5429000498
 31
0.0
  0
SPLINE
  5
C1
330
1F
100
AcDbEntity
  8
0
  6
Continuous
 62
     7
370
    25
100
AcDbSpline
210
0.0
220
0.0
230
1.0
 70
     8
 71
     3
 72
    21
 73
    17
 74
     0
 42
0.00000001
 43
0.00000001
 40
0.0
 40
0.0
 40
0.0
 40
0.0
 40
0.0127769631279323
 40
0.0239257360036079
 40
0.0348510338069689
 40
0.052444579612429
 40
0.0717847701455355
 40
0.1110495992563158
 40
0.1470456735411491
 40
0.2169618341660079
 40
0.2890748124571078
 40
0.4341739120083908
 40
0.5775367973539689
 40
0.7180725693487132
 40
0.8590243711936755
 40
1.0
 40
1.0
 40
1.0
 40
1.0
 10
865.0898912149227
 20
46.01535559789147
 30
0.0
 10
865.1880397690824
 20
45.39875655933535
 30
0.0
 10
865.3718296393708
 20
44.24413275171703
 30
0.0
 10
866.3193383702752
 20
42.79064569377779
 30
0.0
 10
867.8594158905875
 20
41.60293489776402
 30
0.0
 10
870.0823194953169
 20
40.82972095211679
 30
0.0
 10
873.7377545868827
 20
40.31597744033773
 30
0.0
 10
878.3174722908324
 20
40.13996356790124
 30
0.0
 10
885.3217210589705
 20
39.60166220417207
 30
0.0
 10
893.9486817471462
 20
39.45725563167952
 30
0.0
 10
907.820774832824
 20
40.35399791843063
 30
0.0
 10
925.2033450013691
 20
41.87707290519243
 30
0.0
 10
945.9539178763425
 20
42.80320066358323
 30
0.0
 10
966.5205310538854
 20
42.69807202552647
 30
0.0
 10
986.9516883234543
 20
41.7868293705048
 30
0.0
 10
1000.546703045533
 20
40.62040590618726
 30
0.0
 10
1007.344784894642
 20
40.03714488416912
 30
0.0
  0
CIRCLE
  5
C2
330
1F
100
AcDbEntity
  8
0
  6
Continuous
 62
     7
370
    25
100
AcDbCircle
 10
968.5435738001
 20
62.2958826028
 30
0.0
 40
2.000000000000002
  0
CIRCLE
  5
C3
330
1F
100
AcDbEntity
  8
0
  6
Continuous
 62
     7
370
    25
100
AcDbCircle
 10
878.1907114259
 20
49.94790055
 30
0.0
 40
1.999999999999995
  0
SPLINE
  5
C4
330
1F
100
AcDbEntity
  8
0
  6
Continuous
 62
     7
370
    25
100
AcDbSpline
210
0.0
220
0.0
230
1.0
 70
     8
 71
     3
 72
    25
 73
    21
 74
     0
 42
0.00000001
 43
0.00000001
 40
0.0
 40
0.0
 40
0.0
 40
0.0
 40
0.0852857485966717
 40
0.1705257596972619
 40
0.255706684949392
 40
0.3409518958392517
 40
0.4262491261338396
 40
0.4979110612592198
 40
0.5696677609631463
 40
0.6413277168654836
 40
0.7128529698933506
 40
0.7605481848193606
 40
0.8082975951516695
 40
0.8560865766577774
 40
0.8799395449469434
 40
0.9037872307715071
 40
0.9276204985625924
 40
0.9513362154826172
 40
0.9751948798249556
 40
0.9999999999999999
 40
0.9999999999999999
 40
0.9999999999999999
 40
0.9999999999999999
 10
865.172328606719
 20
97.04290004981564
 30
0.0
 10
860.9463346029439
 20
98.41587402244248
 30
0.0
 10
852.496612933995
 20
101.1610856618921
 30
0.0
 10
839.7169164991446
 20
104.933000857783
 30
0.0
 10
826.7877871208544
 20
108.1611578340108
 30
0.0
 10
813.6783404138548
 20
110.5923644117526
 30
0.0
 10
801.1244068854612
 20
111.9928562401161
 30
0.0
 10
789.2053155462185
 20
112.4082930055508
 30
0.0
 10
777.9972926173533
 20
111.9305877450112
 30
0.0
 10
766.8783443531509
 20
110.4682122324336
 30
0.0
 10
757.1805811149583
 20
108.1763993599529
 30
0.0
 10
748.9285717512241
 20
105.3983503320469
 30
0.0
 10
742.048637609245
 20
102.4943620191085
 30
0.0
 10
736.4999165339066
 20
99.66044819740783
 30
0.0
 10
732.2870468391129
 20
97.00687624927039
 30
0.0
 10
729.2863772087892
 20
94.79128980335929
 30
0.0
 10
726.494144568204
 20
92.31970363848406
 30
0.0
 10
724.0665125479178
 20
89.48893834877248
 30
0.0
 10
722.0933396723839
 20
86.22677979575568
 30
0.0
 10
721.4286829756136
 20
83.76843434779255
 30
0.0
 10
721.0898912149227
 20
82.51535559789146
 30
0.0
  0
LINE
  5
C5
330
1F
100
AcDbEntity
  8
0
  6
Continuous
 62
     7
370
    25
100
AcDbLine
 10
863.3447848946
 20
76.5371448842
 30
0.0
 11
865.1723286067
 21
97.0429000498
 31
0.0
  0
CIRCLE
  5
C6
330
1F
100
AcDbEntity
  8
0
  6
Continuous
 62
     7
370
    25
100
AcDbCircle
 10
824.5435738001
 20
98.7958826028
 30
0.0
 40
1.999999999999978
  0
CIRCLE
  5
C7
330
1F
100
AcDbEntity
  8
0
  6
Continuous
 62
     7
370
    25
100
AcDbCircle
 10
734.1907114259
 20
86.44790055
 30
0.0
 40
1.999999999999992
  0
SPLINE
  5
C8
330
1F
100
AcDbEntity
  8
0
  6
Continuous
 62
     7
370
    25
100
AcDbSpline
210
0.0
220
0.0
230
1.0
 70
     8
 71
     3
 72
    21
 73
    17
 74
     0
 42
0.00000001
 43
0.00000001
 40
0.0
 40
0.0
 40
0.0
 40
0.0
 40
0.0127769631279323
 40
0.0239257360036078
 40
0.0348510338069689
 40
0.0524445796124288
 40
0.0717847701455353
 40
0.1110495992563156
 40
0.1470456735411494
 40
0.2169618341660079
 40
0.289074812457108
 40
0.4341739120083907
 40
0.5775367973539688
 40
0.7180725693487131
 40
0.8590243711936754
 40
1.0
 40
1.0
 40
1.0
 40
1.0
 10
721.0898912149227
 20
82.51535559789146
 30
0.0
 10
721.1880397690824
 20
81.89875655933534
 30
0.0
 10
721.3718296393707
 20
80.74413275171702
 30
0.0
 10
722.3193383702751
 20
79.29064569377775
 30
0.0
 10
723.8594158905876
 20
78.10293489776402
 30
0.0
 10
726.0823194953168
 20
77.32972095211676
 30
0.0
 10
729.7377545868826
 20
76.81597744033772
 30
0.0
 10
734.3174722908323
 20
76.63996356790123
 30
0.0
 10
741.3217210589706
 20
76.10166220417206
 30
0.0
 10
749.9486817471463
 20
75.9572556316795
 30
0.0
 10
763.8207748328241
 20
76.85399791843062
 30
0.0
 10
781.2033450013693
 20
78.3770729051924
 30
0.0
 10
801.9539178763425
 20
79.30320066358323
 30
0.0
 10
822.5205310538852
 20
79.19807202552646
 30
0.0
 10
842.9516883234543
 20
78.28682937050479
 30
0.0
 10
856.5467030455331
 20
77.12040590618724
 30
0.0
 10
863.3447848946415
 20
76.5371448841691
 30
0.0
  0
SPLINE
  5
C9
330
1F
100
AcDbEntity
  8
0
  6
Continuous
 62
     7
370
    25
100
AcDbSpline
210
0.0
220
0.0
230
1.0
 70
     8
 71
     3
 72
    25
 73
    21
 74
     0
 42
0.00000001
 43
0.00000001
 40
0.0
 40
0.0
 40
0.0
 40
0.0
 40
0.085285748596672
 40
0.1705257596972623
 40
0.2557066849493922
 40
0.340951895839252
 40
0.4262491261338397
 40
0.4979110612592199
 40
0.5696677609631463
 40
0.6413277168654836
 40
0.7128529698933508
 40
0.7605481848193605
 40
0.8082975951516694
 40
0.8560865766577773
 40
0.8799395449469434
 40
0.903787230771507
 40
0.9276204985625924
 40
0.9513362154826172
 40
0.9751948798249556
 40
1.0
 40
1.0
 40
1.0
 40
1.0
 10
1009.172328606719
 20
133.5429000498156
 30
0.0
 10
1004.946334602944
 20
134.9158740224425
 30
0.0
 10
996.4966129339949
 20
137.6610856618921
 30
0.0
 10
983.7169164991444
 20
141.433000857783
 30
0.0
 10
970.7877871208543
 20
144.6611578340107
 30
0.0
 10
957.6783404138548
 20
147.0923644117526
 30
0.0
 10
945.1244068854613
 20
148.4928562401161
 30
0.0
 10
933.2053155462183
 20
148.9082930055509
 30
0.0
 10
921.9972926173534
 20
148.4305877450112
 30
0.0
 10
910.8783443531507
 20
146.9682122324336
 30
0.0
 10
901.1805811149582
 20
144.6763993599529
 30
0.0
 10
892.9285717512244
 20
141.8983503320469
 30
0.0
 10
886.0486376092449
 20
138.9943620191084
 30
0.0
 10
880.4999165339067
 20
136.1604481974078
 30
0.0
 10
876.2870468391128
 20
133.5068762492704
 30
0.0
 10
873.2863772087895
 20
131.2912898033593
 30
0.0
 10
870.4941445682039
 20
128.819703638484
 30
0.0
 10
868.0665125479177
 20
125.9889383487725
 30
0.0
 10
866.0933396723838
 20
122.7267797957556
 30
0.0
 10
865.4286829756137
 20
120.2684343477925
 30
0.0
 10
865.0898912149227
 20
119.0153555978915
 30
0.0
  0
LINE
  5
CA
330
1F
100
AcDbEntity
  8
0
  6
Continuous
 62
     7
370
    25
100
AcDbLine
 10
1007.3447848946
 20
113.0371448842
 30
0.0
 11
1009.1723286067
 21
133.5429000498
 31
0.0
  0
SPLINE
  5
CB
330
1F
100
AcDbEntity
  8
0
  6
Continuous
 62
     7
370
    25
100
AcDbSpline
210
0.0
220
0.0
230
1.0
 70
     8
 71
     3
 72
    21
 73
    17
 74
     0
 42
0.00000001
 43
0.00000001
 40
0.0
 40
0.0
 40
0.0
 40
0.0
 40
0.0127769631279323
 40
0.0239257360036079
 40
0.0348510338069689
 40
0.052444579612429
 40
0.0717847701455355
 40
0.1110495992563158
 40
0.1470456735411491
 40
0.2169618341660079
 40
0.2890748124571078
 40
0.4341739120083908
 40
0.5775367973539689
 40
0.7180725693487132
 40
0.8590243711936755
 40
1.0
 40
1.0
 40
1.0
 40
1.0
 10
865.0898912149227
 20
119.0153555978915
 30
0.0
 10
865.1880397690825
 20
118.3987565593353
 30
0.0
 10
865.3718296393708
 20
117.244132751717
 30
0.0
 10
866.319338370275
 20
115.7906456937778
 30
0.0
 10
867.8594158905877
 20
114.602934897764
 30
0.0
 10
870.0823194953169
 20
113.8297209521168
 30
0.0
 10
873.7377545868826
 20
113.3159774403377
 30
0.0
 10
878.3174722908323
 20
113.1399635679012
 30
0.0
 10
885.3217210589708
 20
112.6016622041721
 30
0.0
 10
893.9486817471462
 20
112.4572556316795
 30
0.0
 10
907.820774832824
 20
113.3539979184306
 30
0.0
 10
925.2033450013691
 20
114.8770729051924
 30
0.0
 10
945.9539178763425
 20
115.8032006635832
 30
0.0
 10
966.5205310538854
 20
115.6980720255265
 30
0.0
 10
986.9516883234543
 20
114.7868293705048
 30
0.0
 10
1000.546703045533
 20
113.6204059061873
 30
0.0
 10
1007.344784894642
 20
113.0371448841691
 30
0.0
  0
CIRCLE
  5
CC
330
1F
100
AcDbEntity
  8
0
  6
Continuous
 62
     7
370
    25
100
AcDbCircle
 10
968.5435738001
 20
135.2958826028
 30
0.0
 40
2.000000000000002
  0
CIRCLE
  5
CD
330
1F
100
AcDbEntity
  8
0
  6
Continuous
 62
     7
370
    25
100
AcDbCircle
 10
878.1907114259
 20
122.94790055
 30
0.0
 40
2.000000000000002
  0
SPLINE
  5
CE
330
1F
100
AcDbEntity
  8
0
  6
Continuous
 62
     7
370
    25
100
AcDbSpline
210
0.0
220
0.0
230
1.0
 70
     8
 71
     3
 72
    25
 73
    21
 74
     0
 42
0.00000001
 43
0.00000001
 40
0.0
 40
0.0
 40
0.0
 40
0.0
 40
0.0852857485966717
 40
0.1705257596972619
 40
0.2557066849493919
 40
0.3409518958392517
 40
0.4262491261338395
 40
0.4979110612592198
 40
0.5696677609631464
 40
0.6413277168654836
 40
0.7128529698933506
 40
0.7605481848193606
 40
0.8082975951516694
 40
0.8560865766577773
 40
0.8799395449469434
 40
0.9037872307715071
 40
0.9276204985625924
 40
0.9513362154826172
 40
0.9751948798249556
 40
1.0
 40
1.0
 40
1.0
 40
1.0
 10
865.172328606719
 20
60.54290004981565
 30
0.0
 10
860.9463346029439
 20
61.91587402244248
 30
0.0
 10
852.496612933995
 20
64.6610856618921
 30
0.0
 10
839.7169164991445
 20
68.433000857783
 30
0.0
 10
826.7877871208544
 20
71.66115783401075
 30
0.0
 10
813.6783404138549
 20
74.0923644117526
 30
0.0
 10
801.1244068854613
 20
75.49285624011608
 30
0.0
 10
789.2053155462185
 20
75.90829300555086
 30
0.0
 10
777.9972926173533
 20
75.43058774501121
 30
0.0
 10
766.8783443531507
 20
73.96821223243361
 30
0.0
 10
757.1805811149583
 20
71.67639935995292
 30
0.0
 10
748.9285717512241
 20
68.8983503320469
 30
0.0
 10
742.048637609245
 20
65.99436201910845
 30
0.0
 10
736.4999165339066
 20
63.16044819740783
 30
0.0
 10
732.2870468391129
 20
60.50687624927038
 30
0.0
 10
729.2863772087893
 20
58.29128980335931
 30
0.0
 10
726.494144568204
 20
55.81970363848406
 30
0.0
 10
724.0665125479178
 20
52.98893834877249
 30
0.0
 10
722.0933396723838
 20
49.72677979575565
 30
0.0
 10
721.4286829756137
 20
47.26843434779255
 30
0.0
 10
721.0898912149227
 20
46.01535559789146
 30
0.0
  0
LINE
  5
CF
330
1F
100
AcDbEntity
  8
0
  6
Continuous
 62
     7
370
    25
100
AcDbLine
 10
863.3447848946
 20
40.0371448842
 30
0.0
 11
865.1723286067
 21
60.5429000498
 31
0.0
  0
CIRCLE
  5
D0
330
1F
100
AcDbEntity
  8
0
  6
Continuous
 62
     7
370
    25
100
AcDbCircle
 10
824.5435738001
 20
62.2958826028
 30
0.0
 40
1.999999999999992
  0
CIRCLE
  5
D1
330
1F
100
AcDbEntity
  8
0
  6
Continuous
 62
     7
370
    25
100
AcDbCircle
 10
734.1907114259
 20
49.94790055
 30
0.0
 40
1.999999999999992
  0
SPLINE
  5
D2
330
1F
100
AcDbEntity
  8
0
  6
Continuous
 62
     7
370
    25
100
AcDbSpline
210
0.0
220
0.0
230
1.0
 70
     8
 71
     3
 72
    21
 73
    17
 74
     0
 42
0.00000001
 43
0.00000001
 40
0.0
 40
0.0
 40
0.0
 40
0.0
 40
0.0127769631279323
 40
0.0239257360036078
 40
0.0348510338069689
 40
0.0524445796124288
 40
0.0717847701455353
 40
0.1110495992563156
 40
0.1470456735411494
 40
0.2169618341660079
 40
0.289074812457108
 40
0.4341739120083907
 40
0.5775367973539688
 40
0.7180725693487131
 40
0.8590243711936754
 40
1.0
 40
1.0
 40
1.0
 40
1.0
 10
721.0898912149227
 20
46.01535559789146
 30
0.0
 10
721.1880397690824
 20
45.39875655933534
 30
0.0
 10
721.3718296393707
 20
44.24413275171701
 30
0.0
 10
722.3193383702751
 20
42.79064569377776
 30
0.0
 10
723.8594158905875
 20
41.60293489776403
 30
0.0
 10
726.0823194953168
 20
40.82972095211677
 30
0.0
 10
729.7377545868826
 20
40.31597744033771
 30
0.0
 10
734.3174722908321
 20
40.13996356790124
 30
0.0
 10
741.3217210589708
 20
39.60166220417205
 30
0.0
 10
749.9486817471463
 20
39.45725563167952
 30
0.0
 10
763.8207748328241
 20
40.3539979184306
 30
0.0
 10
781.2033450013693
 20
41.87707290519242
 30
0.0
 10
801.9539178763425
 20
42.80320066358322
 30
0.0
 10
822.5205310538852
 20
42.69807202552646
 30
0.0
 10
842.9516883234543
 20
41.78682937050479
 30
0.0
 10
856.5467030455331
 20
40.62040590618724
 30
0.0
 10
863.3447848946415
 20
40.0371448841691
 30
0.0
  0
SPLINE
  5
D3
330
1F
100
AcDbEntity
  8
0
  6
Continuous
 62
     7
370
    25
100
AcDbSpline
210
0.0
220
0.0
230
1.0
 70
     8
 71
     3
 72
    26
 73
    22
 74
     0
 42
0.00000001
 43
0.00000001
 40
0.0
 40
0.0
 40
0.0
 40
0.0
 40
0.0109354890684135
 40
0.0204690020023185
 40
0.0299192788275376
 40
0.0400000190448981
 40
0.0545769205449195
 40
0.0698668446932308
 40
0.0848548481877882
 40
0.1128111124119423
 40
0.1394232150797898
 40
0.1662015371234947
 40
0.2210953310624379
 40
0.2768350833827094
 40
0.3322694276395819
 40
0.4420542989223855
 40
0.5519263265180245
 40
0.6621211657160391
 40
0.7747995190622776
 40
0.887379577991634
 40
0.9999999999999999
 40
0.9999999999999999
 40
0.9999999999999999
 40
0.9999999999999999
 10
479.759405905056
 20
59.71029362935436
 30
0.0
 10
479.6022067911478
 20
58.84856466695296
 30
0.0
 10
479.307962157257
 20
57.23558405433466
 30
0.0
 10
477.8666338858904
 20
55.25952247670921
 30
0.0
 10
475.9307543357645
 20
53.95847816684602
 30
0.0
 10
473.3632023996949
 20
53.05902087591353
 30
0.0
 10
470.2247977814154
 20
52.5708499534369
 30
0.0
 10
466.676950035698
 20
52.37685644235716
 30
0.0
 10
462.0679043720929
 20
52.20676722691756
 30
0.0
 10
456.566640605059
 20
51.91744773749296
 30
0.0
 10
450.126649741949
 20
51.68935862064811
 30
0.0
 10
441.5479521065893
 20
51.79377689999956
 30
0.0
 10
430.6845392344359
 20
52.54388482420909
 30
0.0
 10
417.6004817530163
 20
53.88092166312591
 30
0.0
 10
400.1799461496847
 20
55.54821113882102
 30
0.0
 10
378.4451873589333
 20
57.14883148289741
 30
0.0
 10
352.32008032672
 20
57.8269179495765
 30
0.0
 10
325.9627979034585
 20
57.40662786217779
 30
0.0
 10
299.4289494988907
 20
55.98806032750959
 30
0.0
 10
272.7444844625504
 20
53.92101837721713
 30
0.0
 10
255.0162902105524
 20
51.95319932957261
 30
0.0
 10
246.1506043568066
 20
50.96911345791272
 30
0.0
  0
LINE
  5
D4
330
1F
100
AcDbEntity
  8
0
  6
Continuous
 62
     7
370
    25
100
AcDbLine
 10
244.9028866407
 20
68.687458553
 30
0.0
 11
246.1506043568
 21
50.9691134579
 31
0.0
  0
SPLINE
  5
D5
330
1F
100
AcDbEntity
  8
0
  6
Continuous
 62
     7
370
    25
100
AcDbSpline
210
0.0
220
0.0
230
1.0
 70
     8
 71
     3
 72
    31
 73
    27
 74
     0
 42
0.00000001
 43
0.00000001
 40
0.0
 40
0.0
 40
0.0
 40
0.0
 40
0.0008302735896795
 40
0.0621501364398142
 40
0.1240034758949082
 40
0.1864858328349701
 40
0.2491783966136557
 40
0.3117229493301391
 40
0.3741052389111414
 40
0.4365076984230797
 40
0.4990014559895785
 40
0.5490396500175868
 40
0.5991379043856944
 40
0.6492711528820021
 40
0.6993353636335432
 40
0.7493107702574259
 40
0.7909475403705338
 40
0.8326218494828626
 40
0.8743545310485813
 40
0.8922200202581214
 40
0.9100645986236541
 40
0.9279215665704428
 40
0.9457352742893521
 40
0.9634802372182274
 40
0.9813854322874996
 40
1.0
 40
1.0
 40
1.0
 40
1.0
 10
244.902886640746
 20
68.68745855298498
 30
0.0
 10
244.9694255513368
 20
68.70980869964178
 30
0.0
 10
249.9501962553346
 20
70.38282911295646
 30
0.0
 10
259.9134349879151
 20
73.64493385205324
 30
0.0
 10
274.8699928247658
 20
78.40462154689807
 30
0.0
 10
289.9822337487169
 20
83.05633427844754
 30
0.0
 10
305.2112981234441
 20
87.52260934880867
 30
0.0
 10
320.5022730643678
 20
91.74321434091799
 30
0.0
 10
335.9018881120062
 20
95.45984457697027
 30
0.0
 10
351.4727301936109
 20
98.37622582193177
 30
0.0
 10
366.1633914614846
 20
100.1774801044595
 30
0.0
 10
379.8960919154585
 20
100.9871407614953
 30
0.0
 10
392.6087455873417
 20
100.9554782737104
 30
0.0
 10
405.2947418252343
 20
100.0698186493551
 30
0.0
 10
417.8700658718819
 20
98.22984934921311
 30
0.0
 10
429.548022536404
 20
95.49511167900582
 30
0.0
 10
440.2703673751318
 20
91.99067084547696
 30
0.0
 10
450.031911859999
 20
87.90972978392472
 30
0.0
 10
457.6716717764012
 20
84.01479482238474
 30
0.0
 10
463.2494511113414
 20
80.58042212452003
 30
0.0
 10
466.9521267437195
 20
77.96688210775288
 30
0.0
 10
470.456594576364
 20
75.09920502502739
 30
0.0
 10
473.6775353963571
 20
71.91756802593007
 30
0.0
 10
476.4376425804555
 20
68.32451195369919
 30
0.0
 10
478.6482302389907
 20
64.25492844981969
 30
0.0
 10
479.3842484579441
 20
61.24466272091205
 30
0.0
 10
479.759405905056
 20
59.71029362935436
 30
0.0
  0
CIRCLE
  5
D6
330
1F
100
AcDbEntity
  8
0
  6
Continuous
 62
     7
370
    25
100
AcDbCircle
 10
251.6869563572
 20
62.7467119285
 30
0.0
 40
5.000000000000024
  0
CIRCLE
  5
D7
330
1F
100
AcDbEntity
  8
0
  6
Continuous
 62
     7
370
    25
100
AcDbCircle
 10
458.7764748043
 20
68.4177149876
 30
0.0
 40
4.999999999999994
  0
LINE
  5
D8
330
1F
100
AcDbEntity
  8
0
  6
Continuous
 62
     7
370
    25
100
AcDbLine
 10
289.6635252296
 20
80.4438311867
 30
0.0
 11
311.1466232315
 21
86.6154115548
 31
0.0
  0
LINE
  5
D9
330
1F
100
AcDbEntity
  8
0
  6
Continuous
 62
     7
370
    25
100
AcDbLine
 10
293.1701049842
 20
68.2375255038
 30
0.0
 11
289.6635252296
 21
80.4438311867
 31
0.0
  0
LINE
  5
DA
330
1F
100
AcDbEntity
  8
0
  6
Continuous
 62
     7
370
    25
100
AcDbLine
 10
314.6532029861
 20
74.4091058719
 30
0.0
 11
293.1701049842
 21
68.2375255038
 31
0.0
  0
LINE
  5
DB
330
1F
100
AcDbEntity
  8
0
  6
Continuous
 62
     7
370
    25
100
AcDbLine
 10
311.1466232315
 20
86.6154115548
 30
0.0
 11
314.6532029861
 21
74.4091058719
 31
0.0
  0
CIRCLE
  5
DC
330
1F
100
AcDbEntity
  8
0
  6
Continuous
 62
     7
370
    25
100
AcDbCircle
 10
288.7025940637
 20
73.56094754
 30
0.0
 40
0.9999999999998845
  0
CIRCLE
  5
DD
330
1F
100
AcDbEntity
  8
0
  6
Continuous
 62
     7
370
    25
100
AcDbCircle
 10
315.614134152
 20
81.2919895186
 30
0.0
 40
0.9999999999999989
  0
SPLINE
  5
DE
330
1F
100
AcDbEntity
  8
0
  6
Continuous
 62
     7
370
    25
100
AcDbSpline
210
0.0
220
0.0
230
1.0
 70
     8
 71
     3
 72
    26
 73
    22
 74
     0
 42
0.00000001
 43
0.00000001
 40
0.0
 40
0.0
 40
0.0
 40
0.0
 40
0.0109354890684135
 40
0.0204690020023185
 40
0.0299192788275377
 40
0.0400000190448981
 40
0.0545769205449195
 40
0.0698668446932308
 40
0.0848548481877882
 40
0.1128111124119423
 40
0.1394232150797899
 40
0.1662015371234947
 40
0.2210953310624379
 40
0.2768350833827094
 40
0.3322694276395819
 40
0.4420542989223855
 40
0.5519263265180245
 40
0.6621211657160391
 40
0.7747995190622776
 40
0.887379577991634
 40
0.9999999999999999
 40
0.9999999999999999
 40
0.9999999999999999
 40
0.9999999999999999
 10
718.759405905056
 20
11.71029362935438
 30
0.0
 10
718.6022067911478
 20
10.84856466695298
 30
0.0
 10
718.307962157257
 20
9.23558405433468
 30
0.0
 10
716.8666338858903
 20
7.259522476709246
 30
0.0
 10
714.9307543357644
 20
5.958478166846054
 30
0.0
 10
712.3632023996948
 20
5.059020875913547
 30
0.0
 10
709.2247977814153
 20
4.570849953436928
 30
0.0
 10
705.676950035698
 20
4.376856442357191
 30
0.0
 10
701.0679043720929
 20
4.206767226917568
 30
0.0
 10
695.566640605059
 20
3.917447737492974
 30
0.0
 10
689.126649741949
 20
3.68935862064812
 30
0.0
 10
680.5479521065892
 20
3.793776899999588
 30
0.0
 10
669.684539234436
 20
4.54388482420913
 30
0.0
 10
656.6004817530164
 20
5.880921663125941
 30
0.0
 10
639.1799461496847
 20
7.548211138821023
 30
0.0
 10
617.4451873589333
 20
9.14883148289744
 30
0.0
 10
591.32008032672
 20
9.82691794957654
 30
0.0
 10
564.9627979034585
 20
9.40662786217783
 30
0.0
 10
538.4289494988908
 20
7.988060327509608
 30
0.0
 10
511.7444844625504
 20
5.921018377217174
 30
0.0
 10
494.0162902105524
 20
3.953199329572637
 30
0.0
 10
485.1506043568066
 20
2.969113457912745
 30
0.0
  0
LINE
  5
DF
330
1F
100
AcDbEntity
  8
0
  6
Continuous
 62
     7
370
    25
100
AcDbLine
 10
483.9028866407
 20
20.687458553
 30
0.0
 11
485.1506043568
 21
2.9691134579
 31
0.0
  0
SPLINE
  5
E0
330
1F
100
AcDbEntity
  8
0
  6
Continuous
 62
     7
370
    25
100
AcDbSpline
210
0.0
220
0.0
230
1.0
 70
     8
 71
     3
 72
    31
 73
    27
 74
     0
 42
0.00000001
 43
0.00000001
 40
0.0
 40
0.0
 40
0.0
 40
0.0
 40
0.0008302735896795
 40
0.0621501364398141
 40
0.1240034758949082
 40
0.1864858328349699
 40
0.2491783966136557
 40
0.311722949330139
 40
0.3741052389111413
 40
0.4365076984230796
 40
0.4990014559895783
 40
0.5490396500175866
 40
0.5991379043856943
 40
0.649271152882002
 40
0.6993353636335431
 40
0.7493107702574258
 40
0.7909475403705337
 40
0.8326218494828624
 40
0.8743545310485812
 40
0.8922200202581212
 40
0.9100645986236539
 40
0.9279215665704427
 40
0.945735274289352
 40
0.9634802372182274
 40
0.9813854322874996
 40
1.0
 40
1.0
 40
1.0
 40
1.0
 10
483.902886640746
 20
20.687458552985
 30
0.0
 10
483.9694255513369
 20
20.7098086996418
 30
0.0
 10
488.9501962553344
 20
22.38282911295636
 30
0.0
 10
498.9134349879153
 20
25.64493385205335
 30
0.0
 10
513.8699928247657
 20
30.40462154689807
 30
0.0
 10
528.9822337487169
 20
35.05633427844759
 30
0.0
 10
544.2112981234441
 20
39.52260934880869
 30
0.0
 10
559.502273064368
 20
43.74321434091802
 30
0.0
 10
574.9018881120062
 20
47.45984457697028
 30
0.0
 10
590.4727301936109
 20
50.37622582193178
 30
0.0
 10
605.1633914614846
 20
52.17748010445953
 30
0.0
 10
618.8960919154584
 20
52.98714076149528
 30
0.0
 10
631.6087455873417
 20
52.95547827371039
 30
0.0
 10
644.2947418252343
 20
52.06981864935517
 30
0.0
 10
656.8700658718819
 20
50.22984934921315
 30
0.0
 10
668.548022536404
 20
47.49511167900586
 30
0.0
 10
679.2703673751319
 20
43.99067084547698
 30
0.0
 10
689.031911859999
 20
39.90972978392474
 30
0.0
 10
696.6716717764011
 20
36.01479482238479
 30
0.0
 10
702.2494511113415
 20
32.58042212452005
 30
0.0
 10
705.9521267437195
 20
29.96688210775289
 30
0.0
 10
709.456594576364
 20
27.09920502502743
 30
0.0
 10
712.6775353963571
 20
23.91756802593007
 30
0.0
 10
715.4376425804554
 20
20.32451195369923
 30
0.0
 10
717.6482302389905
 20
16.2549284498197
 30
0.0
 10
718.3842484579442
 20
13.24466272091207
 30
0.0
 10
718.759405905056
 20
11.71029362935439
 30
0.0
  0
CIRCLE
  5
E1
330
1F
100
AcDbEntity
  8
0
  6
Continuous
 62
     7
370
    25
100
AcDbCircle
 10
490.6869563572
 20
14.7467119285
 30
0.0
 40
5.000000000000052
  0
CIRCLE
  5
E2
330
1F
100
AcDbEntity
  8
0
  6
Continuous
 62
     7
370
    25
100
AcDbCircle
 10
697.7764748043
 20
20.4177149876
 30
0.0
 40
4.999999999999995
  0
LINE
  5
E3
330
1F
100
AcDbEntity
  8
0
  6
Continuous
 62
     7
370
    25
100
AcDbLine
 10
528.6635252296
 20
32.4438311867
 30
0.0
 11
550.1466232315
 21
38.6154115548
 31
0.0
  0
LINE
  5
E4
330
1F
100
AcDbEntity
  8
0
  6
Continuous
 62
     7
370
    25
100
AcDbLine
 10
532.1701049842
 20
20.2375255038
 30
0.0
 11
528.6635252296
 21
32.4438311867
 31
0.0
  0
LINE
  5
E5
330
1F
100
AcDbEntity
  8
0
  6
Continuous
 62
     7
370
    25
100
AcDbLine
 10
553.6532029861
 20
26.4091058719
 30
0.0
 11
532.1701049842
 21
20.2375255038
 31
0.0
  0
LINE
  5
E6
330
1F
100
AcDbEntity
  8
0
  6
Continuous
 62
     7
370
    25
100
AcDbLine
 10
550.1466232315
 20
38.6154115548
 30
0.0
 11
553.6532029861
 21
26.4091058719
 31
0.0
  0
CIRCLE
  5
E7
330
1F
100
AcDbEntity
  8
0
  6
Continuous
 62
     7
370
    25
100
AcDbCircle
 10
527.7025940637
 20
25.56094754
 30
0.0
 40
0.999999999999885
  0
CIRCLE
  5
E8
330
1F
100
AcDbEntity
  8
0
  6
Continuous
 62
     7
370
    25
100
AcDbCircle
 10
554.614134152
 20
33.2919895186
 30
0.0
 40
1.000000000000112
  0
SPLINE
  5
E9
330
1F
100
AcDbEntity
  8
0
  6
Continuous
 62
     7
370
    25
100
AcDbSpline
210
0.0
220
0.0
230
1.0
 70
     8
 71
     3
 72
    26
 73
    22
 74
     0
 42
0.00000001
 43
0.00000001
 40
0.0
 40
0.0
 40
0.0
 40
0.0
 40
0.0109354890684135
 40
0.0204690020023185
 40
0.0299192788275377
 40
0.0400000190448981
 40
0.0545769205449195
 40
0.0698668446932308
 40
0.0848548481877882
 40
0.1128111124119423
 40
0.1394232150797898
 40
0.1662015371234947
 40
0.2210953310624379
 40
0.2768350833827094
 40
0.3322694276395819
 40
0.4420542989223855
 40
0.5519263265180245
 40
0.6621211657160391
 40
0.7747995190622776
 40
0.887379577991634
 40
0.9999999999999999
 40
0.9999999999999999
 40
0.9999999999999999
 40
0.9999999999999999
 10
479.759405905056
 20
107.7102936293544
 30
0.0
 10
479.6022067911478
 20
106.848564666953
 30
0.0
 10
479.307962157257
 20
105.2355840543347
 30
0.0
 10
477.8666338858904
 20
103.2595224767092
 30
0.0
 10
475.9307543357644
 20
101.958478166846
 30
0.0
 10
473.3632023996949
 20
101.0590208759135
 30
0.0
 10
470.2247977814154
 20
100.5708499534369
 30
0.0
 10
466.6769500356981
 20
100.3768564423572
 30
0.0
 10
462.0679043720929
 20
100.2067672269175
 30
0.0
 10
456.5666406050591
 20
99.91744773749296
 30
0.0
 10
450.126649741949
 20
99.6893586206481
 30
0.0
 10
441.5479521065893
 20
99.79377689999956
 30
0.0
 10
430.684539234436
 20
100.5438848242091
 30
0.0
 10
417.6004817530163
 20
101.8809216631259
 30
0.0
 10
400.1799461496847
 20
103.548211138821
 30
0.0
 10
378.4451873589333
 20
105.1488314828974
 30
0.0
 10
352.32008032672
 20
105.8269179495765
 30
0.0
 10
325.9627979034585
 20
105.4066278621778
 30
0.0
 10
299.4289494988907
 20
103.9880603275096
 30
0.0
 10
272.7444844625504
 20
101.9210183772172
 30
0.0
 10
255.0162902105524
 20
99.95319932957261
 30
0.0
 10
246.1506043568066
 20
98.96911345791271
 30
0.0
  0
LINE
  5
EA
330
1F
100
AcDbEntity
  8
0
  6
Continuous
 62
     7
370
    25
100
AcDbLine
 10
244.9028866407
 20
116.687458553
 30
0.0
 11
246.1506043568
 21
98.9691134579
 31
0.0
  0
CIRCLE
  5
EB
330
1F
100
AcDbEntity
  8
0
  6
Continuous
 62
     7
370
    25
100
AcDbCircle
 10
251.6869563572
 20
110.7467119285
 30
0.0
 40
5.000000000000023
  0
CIRCLE
  5
EC
330
1F
100
AcDbEntity
  8
0
  6
Continuous
 62
     7
370
    25
100
AcDbCircle
 10
458.7764748043
 20
116.4177149876
 30
0.0
 40
4.999999999999995
  0
LINE
  5
ED
330
1F
100
AcDbEntity
  8
0
  6
Continuous
 62
     7
370
    25
100
AcDbLine
 10
289.6635252296
 20
128.4438311867
 30
0.0
 11
311.1466232315
 21
134.6154115548
 31
0.0
  0
LINE
  5
EE
330
1F
100
AcDbEntity
  8
0
  6
Continuous
 62
     7
370
    25
100
AcDbLine
 10
293.1701049842
 20
116.2375255038
 30
0.0
 11
289.6635252296
 21
128.4438311867
 31
0.0
  0
LINE
  5
EF
330
1F
100
AcDbEntity
  8
0
  6
Continuous
 62
     7
370
    25
100
AcDbLine
 10
314.6532029861
 20
122.4091058719
 30
0.0
 11
293.1701049842
 21
116.2375255038
 31
0.0
  0
LINE
  5
F0
330
1F
100
AcDbEntity
  8
0
  6
Continuous
 62
     7
370
    25
100
AcDbLine
 10
311.1466232315
 20
134.6154115548
 30
0.0
 11
314.6532029861
 21
122.4091058719
 31
0.0
  0
CIRCLE
  5
F1
330
1F
100
AcDbEntity
  8
0
  6
Continuous
 62
     7
370
    25
100
AcDbCircle
 10
288.7025940637
 20
121.56094754
 30
0.0
 40
0.9999999999998855
  0
CIRCLE
  5
F2
330
1F
100
AcDbEntity
  8
0
  6
Continuous
 62
     7
370
    25
100
AcDbCircle
 10
315.614134152
 20
129.2919895186
 30
0.0
 40
1.000000000000001
  0
SPLINE
  5
F3
330
1F
100
AcDbEntity
  8
0
  6
Continuous
 62
     7
370
    25
100
AcDbSpline
210
0.0
220
0.0
230
1.0
 70
     8
 71
     3
 72
    31
 73
    27
 74
     0
 42
0.00000001
 43
0.00000001
 40
0.0
 40
0.0
 40
0.0
 40
0.0
 40
0.0008302735896795
 40
0.0621501364398142
 40
0.1240034758949082
 40
0.18648583283497
 40
0.2491783966136557
 40
0.311722949330139
 40
0.3741052389111414
 40
0.4365076984230796
 40
0.4990014559895783
 40
0.5490396500175867
 40
0.5991379043856943
 40
0.6492711528820019
 40
0.6993353636335431
 40
0.7493107702574258
 40
0.7909475403705336
 40
0.8326218494828623
 40
0.8743545310485811
 40
0.8922200202581213
 40
0.9100645986236539
 40
0.9279215665704427
 40
0.945735274289352
 40
0.9634802372182273
 40
0.9813854322874995
 40
1.0
 40
1.0
 40
1.0
 40
1.0
 10
244.902886640746
 20
116.687458552985
 30
0.0
 10
244.9694255513368
 20
116.7098086996418
 30
0.0
 10
249.9501962553363
 20
118.3828291129564
 30
0.0
 10
259.9134349879145
 20
121.6449338520533
 30
0.0
 10
274.8699928247659
 20
126.4046215468981
 30
0.0
 10
289.9822337487169
 20
131.0563342784475
 30
0.0
 10
305.211298123444
 20
135.5226093488087
 30
0.0
 10
320.502273064368
 20
139.743214340918
 30
0.0
 10
335.9018881120062
 20
143.4598445769703
 30
0.0
 10
351.472730193611
 20
146.3762258219318
 30
0.0
 10
366.1633914614845
 20
148.1774801044596
 30
0.0
 10
379.8960919154586
 20
148.9871407614953
 30
0.0
 10
392.6087455873417
 20
148.9554782737104
 30
0.0
 10
405.2947418252344
 20
148.0698186493551
 30
0.0
 10
417.8700658718819
 20
146.2298493492131
 30
0.0
 10
429.548022536404
 20
143.4951116790058
 30
0.0
 10
440.2703673751318
 20
139.990670845477
 30
0.0
 10
450.031911859999
 20
135.9097297839247
 30
0.0
 10
457.6716717764012
 20
132.0147948223847
 30
0.0
 10
463.2494511113414
 20
128.58042212452
 30
0.0
 10
466.9521267437195
 20
125.9668821077529
 30
0.0
 10
470.456594576364
 20
123.0992050250274
 30
0.0
 10
473.6775353963571
 20
119.9175680259301
 30
0.0
 10
476.4376425804554
 20
116.3245119536992
 30
0.0
 10
478.6482302389907
 20
112.2549284498197
 30
0.0
 10
479.3842484579441
 20
109.244662720912
 30
0.0
 10
479.759405905056
 20
107.7102936293544
 30
0.0
  0
SPLINE
  5
F4
330
1F
100
AcDbEntity
  8
0
  6
Continuous
 62
     7
370
    25
100
AcDbSpline
210
0.0
220
0.0
230
1.0
 70
     8
 71
     3
 72
    26
 73
    22
 74
     0
 42
0.00000001
 43
0.00000001
 40
0.0
 40
0.0
 40
0.0
 40
0.0
 40
0.0109354890684135
 40
0.0204690020023185
 40
0.0299192788275377
 40
0.0400000190448981
 40
0.0545769205449195
 40
0.0698668446932308
 40
0.0848548481877882
 40
0.1128111124119423
 40
0.1394232150797898
 40
0.1662015371234947
 40
0.2210953310624379
 40
0.2768350833827093
 40
0.3322694276395819
 40
0.4420542989223854
 40
0.5519263265180245
 40
0.6621211657160392
 40
0.7747995190622777
 40
0.8873795779916341
 40
1.0
 40
1.0
 40
1.0
 40
1.0
 10
718.759405905056
 20
59.71029362935439
 30
0.0
 10
718.6022067911478
 20
58.84856466695298
 30
0.0
 10
718.307962157257
 20
57.23558405433468
 30
0.0
 10
716.8666338858903
 20
55.25952247670924
 30
0.0
 10
714.9307543357644
 20
53.95847816684606
 30
0.0
 10
712.3632023996948
 20
53.05902087591355
 30
0.0
 10
709.2247977814153
 20
52.57084995343692
 30
0.0
 10
705.676950035698
 20
52.37685644235719
 30
0.0
 10
701.0679043720929
 20
52.20676722691758
 30
0.0
 10
695.566640605059
 20
51.91744773749299
 30
0.0
 10
689.126649741949
 20
51.68935862064814
 30
0.0
 10
680.5479521065893
 20
51.79377689999959
 30
0.0
 10
669.684539234436
 20
52.54388482420912
 30
0.0
 10
656.6004817530164
 20
53.88092166312594
 30
0.0
 10
639.1799461496847
 20
55.54821113882105
 30
0.0
 10
617.4451873589331
 20
57.14883148289744
 30
0.0
 10
591.32008032672
 20
57.82691794957653
 30
0.0
 10
564.9627979034585
 20
57.40662786217781
 30
0.0
 10
538.4289494988908
 20
55.98806032750961
 30
0.0
 10
511.7444844625504
 20
53.92101837721715
 30
0.0
 10
494.0162902105524
 20
51.95319932957264
 30
0.0
 10
485.1506043568066
 20
50.96911345791275
 30
0.0
  0
LINE
  5
F5
330
1F
100
AcDbEntity
  8
0
  6
Continuous
 62
     7
370
    25
100
AcDbLine
 10
483.9028866407
 20
68.687458553
 30
0.0
 11
485.1506043568
 21
50.9691134579
 31
0.0
  0
SPLINE
  5
F6
330
1F
100
AcDbEntity
  8
0
  6
Continuous
 62
     7
370
    25
100
AcDbSpline
210
0.0
220
0.0
230
1.0
 70
     8
 71
     3
 72
    31
 73
    27
 74
     0
 42
0.00000001
 43
0.00000001
 40
0.0
 40
0.0
 40
0.0
 40
0.0
 40
0.0008302735896795
 40
0.0621501364398141
 40
0.1240034758949082
 40
0.1864858328349699
 40
0.2491783966136557
 40
0.311722949330139
 40
0.3741052389111413
 40
0.4365076984230796
 40
0.4990014559895783
 40
0.5490396500175866
 40
0.5991379043856943
 40
0.649271152882002
 40
0.6993353636335431
 40
0.7493107702574258
 40
0.7909475403705337
 40
0.8326218494828624
 40
0.8743545310485812
 40
0.8922200202581212
 40
0.9100645986236539
 40
0.9279215665704427
 40
0.945735274289352
 40
0.9634802372182274
 40
0.9813854322874996
 40
1.0
 40
1.0
 40
1.0
 40
1.0
 10
483.902886640746
 20
68.687458552985
 30
0.0
 10
483.9694255513369
 20
68.70980869964181
 30
0.0
 10
488.9501962553351
 20
70.38282911295647
 30
0.0
 10
498.913434987915
 20
73.64493385205328
 30
0.0
 10
513.8699928247657
 20
78.40462154689808
 30
0.0
 10
528.9822337487169
 20
83.05633427844758
 30
0.0
 10
544.2112981234441
 20
87.52260934880869
 30
0.0
 10
559.502273064368
 20
91.74321434091803
 30
0.0
 10
574.9018881120062
 20
95.45984457697028
 30
0.0
 10
590.4727301936109
 20
98.37622582193178
 30
0.0
 10
605.1633914614846
 20
100.1774801044595
 30
0.0
 10
618.8960919154584
 20
100.9871407614953
 30
0.0
 10
631.6087455873417
 20
100.9554782737104
 30
0.0
 10
644.2947418252343
 20
100.0698186493552
 30
0.0
 10
656.8700658718819
 20
98.22984934921315
 30
0.0
 10
668.548022536404
 20
95.49511167900584
 30
0.0
 10
679.2703673751319
 20
91.99067084547697
 30
0.0
 10
689.031911859999
 20
87.90972978392473
 30
0.0
 10
696.6716717764011
 20
84.01479482238477
 30
0.0
 10
702.2494511113415
 20
80.58042212452006
 30
0.0
 10
705.9521267437195
 20
77.9668821077529
 30
0.0
 10
709.456594576364
 20
75.09920502502743
 30
0.0
 10
712.6775353963571
 20
71.91756802593007
 30
0.0
 10
715.4376425804554
 20
68.32451195369921
 30
0.0
 10
717.6482302389905
 20
64.2549284498197
 30
0.0
 10
718.3842484579442
 20
61.24466272091207
 30
0.0
 10
718.759405905056
 20
59.71029362935439
 30
0.0
  0
CIRCLE
  5
F7
330
1F
100
AcDbEntity
  8
0
  6
Continuous
 62
     7
370
    25
100
AcDbCircle
 10
490.6869563572
 20
62.7467119285
 30
0.0
 40
5.000000000000052
  0
CIRCLE
  5
F8
330
1F
100
AcDbEntity
  8
0
  6
Continuous
 62
     7
370
    25
100
AcDbCircle
 10
697.7764748043
 20
68.4177149876
 30
0.0
 40
4.999999999999994
  0
LINE
  5
F9
330
1F
100
AcDbEntity
  8
0
  6
Continuous
 62
     7
370
    25
100
AcDbLine
 10
528.6635252296
 20
80.4438311867
 30
0.0
 11
550.1466232315
 21
86.6154115548
 31
0.0
  0
LINE
  5
FA
330
1F
100
AcDbEntity
  8
0
  6
Continuous
 62
     7
370
    25
100
AcDbLine
 10
532.1701049842
 20
68.2375255038
 30
0.0
 11
528.6635252296
 21
80.4438311867
 31
0.0
  0
LINE
  5
FB
330
1F
100
AcDbEntity
  8
0
  6
Continuous
 62
     7
370
    25
100
AcDbLine
 10
553.6532029861
 20
74.4091058719
 30
0.0
 11
532.1701049842
 21
68.2375255038
 31
0.0
  0
LINE
  5
FC
330
1F
100
AcDbEntity
  8
0
  6
Continuous
 62
     7
370
    25
100
AcDbLine
 10
550.1466232315
 20
86.6154115548
 30
0.0
 11
553.6532029861
 21
74.4091058719
 31
0.0
  0
CIRCLE
  5
FD
330
1F
100
AcDbEntity
  8
0
  6
Continuous
 62
     7
370
    25
100
AcDbCircle
 10
527.7025940637
 20
73.56094754
 30
0.0
 40
0.9999999999998845
  0
CIRCLE
  5
FE
330
1F
100
AcDbEntity
  8
0
  6
Continuous
 62
     7
370
    25
100
AcDbCircle
 10
554.614134152
 20
81.2919895186
 30
0.0
 40
1.000000000000112
  0
SPLINE
  5
FF
330
1F
100
AcDbEntity
  8
0
  6
Continuous
 62
     7
370
    25
100
AcDbSpline
210
0.0
220
0.0
230
1.0
 70
     8
 71
     3
 72
    26
 73
    22
 74
     0
 42
0.00000001
 43
0.00000001
 40
0.0
 40
0.0
 40
0.0
 40
0.0
 40
0.0109354890684135
 40
0.0204690020023185
 40
0.0299192788275377
 40
0.0400000190448981
 40
0.0545769205449195
 40
0.0698668446932308
 40
0.0848548481877882
 40
0.1128111124119423
 40
0.1394232150797899
 40
0.1662015371234947
 40
0.2210953310624379
 40
0.2768350833827094
 40
0.3322694276395819
 40
0.4420542989223855
 40
0.5519263265180245
 40
0.6621211657160391
 40
0.7747995190622776
 40
0.887379577991634
 40
0.9999999999999999
 40
0.9999999999999999
 40
0.9999999999999999
 40
0.9999999999999999
 10
718.759405905056
 20
107.7102936293544
 30
0.0
 10
718.6022067911478
 20
106.848564666953
 30
0.0
 10
718.307962157257
 20
105.2355840543347
 30
0.0
 10
716.8666338858903
 20
103.2595224767092
 30
0.0
 10
714.9307543357644
 20
101.958478166846
 30
0.0
 10
712.3632023996948
 20
101.0590208759136
 30
0.0
 10
709.2247977814153
 20
100.5708499534369
 30
0.0
 10
705.676950035698
 20
100.3768564423572
 30
0.0
 10
701.0679043720929
 20
100.2067672269176
 30
0.0
 10
695.566640605059
 20
99.91744773749298
 30
0.0
 10
689.126649741949
 20
99.68935862064814
 30
0.0
 10
680.5479521065892
 20
99.79377689999957
 30
0.0
 10
669.684539234436
 20
100.5438848242091
 30
0.0
 10
656.6004817530164
 20
101.8809216631259
 30
0.0
 10
639.1799461496847
 20
103.5482111388211
 30
0.0
 10
617.4451873589333
 20
105.1488314828974
 30
0.0
 10
591.32008032672
 20
105.8269179495765
 30
0.0
 10
564.9627979034585
 20
105.4066278621778
 30
0.0
 10
538.4289494988908
 20
103.9880603275096
 30
0.0
 10
511.7444844625504
 20
101.9210183772172
 30
0.0
 10
494.0162902105524
 20
99.95319932957264
 30
0.0
 10
485.1506043568066
 20
98.96911345791274
 30
0.0
  0
LINE
  5
100
330
1F
100
AcDbEntity
  8
0
  6
Continuous
 62
     7
370
    25
100
AcDbLine
 10
483.9028866407
 20
116.687458553
 30
0.0
 11
485.1506043568
 21
98.9691134579
 31
0.0
  0
CIRCLE
  5
101
330
1F
100
AcDbEntity
  8
0
  6
Continuous
 62
     7
370
    25
100
AcDbCircle
 10
490.6869563572
 20
110.7467119285
 30
0.0
 40
5.000000000000052
  0
CIRCLE
  5
102
330
1F
100
AcDbEntity
  8
0
  6
Continuous
 62
     7
370
    25
100
AcDbCircle
 10
697.7764748043
 20
116.4177149876
 30
0.0
 40
4.999999999999995
  0
LINE
  5
103
330
1F
100
AcDbEntity
  8
0
  6
Continuous
 62
     7
370
    25
100
AcDbLine
 10
528.6635252296
 20
128.4438311867
 30
0.0
 11
550.1466232315
 21
134.6154115548
 31
0.0
  0
LINE
  5
104
330
1F
100
AcDbEntity
  8
0
  6
Continuous
 62
     7
370
    25
100
AcDbLine
 10
532.1701049842
 20
116.2375255038
 30
0.0
 11
528.6635252296
 21
128.4438311867
 31
0.0
  0
LINE
  5
105
330
1F
100
AcDbEntity
  8
0
  6
Continuous
 62
     7
370
    25
100
AcDbLine
 10
553.6532029861
 20
122.4091058719
 30
0.0
 11
532.1701049842
 21
116.2375255038
 31
0.0
  0
LINE
  5
106
330
1F
100
AcDbEntity
  8
0
  6
Continuous
 62
     7
370
    25
100
AcDbLine
 10
550.1466232315
 20
134.6154115548
 30
0.0
 11
553.6532029861
 21
122.4091058719
 31
0.0
  0
CIRCLE
  5
107
330
1F
100
AcDbEntity
  8
0
  6
Continuous
 62
     7
370
    25
100
AcDbCircle
 10
527.7025940637
 20
121.56094754
 30
0.0
 40
0.9999999999998855
  0
CIRCLE
  5
108
330
1F
100
AcDbEntity
  8
0
  6
Continuous
 62
     7
370
    25
100
AcDbCircle
 10
554.614134152
 20
129.2919895186
 30
0.0
 40
1.00000000000011
  0
SPLINE
  5
109
330
1F
100
AcDbEntity
  8
0
  6
Continuous
 62
     7
370
    25
100
AcDbSpline
210
0.0
220
0.0
230
1.0
 70
     8
 71
     3
 72
    31
 73
    27
 74
     0
 42
0.00000001
 43
0.00000001
 40
0.0
 40
0.0
 40
0.0
 40
0.0
 40
0.0008302735896795
 40
0.0621501364398141
 40
0.1240034758949082
 40
0.1864858328349698
 40
0.2491783966136557
 40
0.311722949330139
 40
0.3741052389111413
 40
0.4365076984230796
 40
0.4990014559895783
 40
0.5490396500175866
 40
0.5991379043856943
 40
0.649271152882002
 40
0.6993353636335431
 40
0.7493107702574258
 40
0.7909475403705337
 40
0.8326218494828624
 40
0.8743545310485812
 40
0.8922200202581212
 40
0.9100645986236539
 40
0.9279215665704427
 40
0.945735274289352
 40
0.9634802372182274
 40
0.9813854322874996
 40
1.0
 40
1.0
 40
1.0
 40
1.0
 10
483.902886640746
 20
116.687458552985
 30
0.0
 10
483.9694255513369
 20
116.7098086996418
 30
0.0
 10
488.9501962553344
 20
118.3828291129568
 30
0.0
 10
498.9134349879153
 20
121.6449338520531
 30
0.0
 10
513.8699928247656
 20
126.4046215468981
 30
0.0
 10
528.9822337487169
 20
131.0563342784476
 30
0.0
 10
544.2112981234441
 20
135.5226093488087
 30
0.0
 10
559.502273064368
 20
139.7432143409181
 30
0.0
 10
574.9018881120062
 20
143.4598445769703
 30
0.0
 10
590.4727301936109
 20
146.3762258219318
 30
0.0
 10
605.1633914614846
 20
148.1774801044596
 30
0.0
 10
618.8960919154584
 20
148.9871407614953
 30
0.0
 10
631.6087455873417
 20
148.9554782737104
 30
0.0
 10
644.2947418252343
 20
148.0698186493551
 30
0.0
 10
656.8700658718819
 20
146.2298493492131
 30
0.0
 10
668.548022536404
 20
143.4951116790059
 30
0.0
 10
679.2703673751319
 20
139.990670845477
 30
0.0
 10
689.031911859999
 20
135.9097297839247
 30
0.0
 10
696.6716717764011
 20
132.0147948223848
 30
0.0
 10
702.2494511113415
 20
128.5804221245201
 30
0.0
 10
705.9521267437195
 20
125.9668821077529
 30
0.0
 10
709.456594576364
 20
123.0992050250274
 30
0.0
 10
712.6775353963571
 20
119.9175680259301
 30
0.0
 10
715.4376425804554
 20
116.3245119536992
 30
0.0
 10
717.6482302389905
 20
112.2549284498197
 30
0.0
 10
718.3842484579442
 20
109.2446627209121
 30
0.0
 10
718.759405905056
 20
107.7102936293544
 30
0.0
  0
SPLINE
  5
10A
330
1F
100
AcDbEntity
  8
0
  6
Continuous
 62
     7
370
    25
100
AcDbSpline
210
0.0
220
0.0
230
1.0
 70
     8
 71
     3
 72
    26
 73
    22
 74
     0
 42
0.00000001
 43
0.00000001
 40
0.0
 40
0.0
 40
0.0
 40
0.0
 40
0.0109354890679662
 40
0.0204690020014813
 40
0.0299192788263141
 40
0.0400000190432623
 40
0.0545769205426874
 40
0.0698668446903738
 40
0.0848548481843181
 40
0.1128111124073291
 40
0.1394232150740882
 40
0.166201537116698
 40
0.2210953310533965
 40
0.2768350833713881
 40
0.3322694276259936
 40
0.4420542989043075
 40
0.5519263264954533
 40
0.6621211656889615
 40
0.7747995190442069
 40
0.8873795779825828
 40
1.0
 40
1.0
 40
1.0
 40
1.0
 10
4.801528936908661
 20
108.609845872839
 30
0.0
 10
4.936601694838338
 20
107.7443727559138
 30
0.0
 10
5.189430309564758
 20
106.1243838507569
 30
0.0
 10
6.579665143892632
 20
104.1120484786507
 30
0.0
 10
8.48158076861849
 20
102.7618400187279
 30
0.0
 10
11.02524887498524
 20
101.7969053435929
 30
0.0
 10
14.1501181847935
 20
101.228498628106
 30
0.0
 10
17.69183215138847
 20
100.9436841482144
 30
0.0
 10
22.29500814029262
 20
100.6555815873325
 30
0.0
 10
27.78705513563218
 20
100.2254320756297
 30
0.0
 10
34.21908969806032
 20
99.83244562561298
 30
0.0
 10
42.79764697124156
 20
99.71707055578763
 30
0.0
 10
53.67671024287957
 20
100.1886460646128
 30
0.0
 10
66.79072464724733
 20
101.1900719918514
 30
0.0
 10
84.2482541206695
 20
102.4105553335297
 30
0.0
 10
106.0168831524513
 20
103.4538746780564
 30
0.0
 10
132.1507872689944
 20
103.4624960615247
 30
0.0
 10
158.4886536547613
 20
102.3671537408569
 30
0.0
 10
184.9774553713824
 20
100.2693385108289
 30
0.0
 10
211.6002124315417
 20
97.51940334997386
 30
0.0
 10
229.2721796173713
 20
95.09808984263272
 30
0.0
 10
238.109746899196
 20
93.8872161008188
 30
0.0
  0
SPLINE
  5
10B
330
1F
100
AcDbEntity
  8
0
  6
Continuous
 62
     7
370
    25
100
AcDbSpline
210
0.0
220
0.0
230
1.0
 70
     8
 71
     3
 72
    31
 73
    27
 74
     0
 42
0.00000001
 43
0.00000001
 40
0.0
 40
0.0
 40
0.0
 40
0.0
 40
0.0008302735896794
 40
0.0621501364398139
 40
0.1240034758949082
 40
0.1864858328349698
 40
0.2491783966136557
 40
0.3117229493301389
 40
0.3741052389111413
 40
0.4365076984230797
 40
0.4990014559895782
 40
0.5490396500175867
 40
0.5991379043856944
 40
0.649271152882002
 40
0.6993353636335433
 40
0.749310770257426
 40
0.7909475403705339
 40
0.8326218494828626
 40
0.8743545310485814
 40
0.8922200202581215
 40
0.9100645986236539
 40
0.9279215665704426
 40
0.945735274289352
 40
0.9634802372182274
 40
0.9813854322874996
 40
1.0
 40
1.0
 40
1.0
 40
1.0
 10
239.8109430730012
 20
111.5677840777044
 30
0.0
 10
239.7449985381713
 20
111.5918314061269
 30
0.0
 10
234.8087198366825
 20
113.3918943745824
 30
0.0
 10
224.9323154892108
 20
116.9081552489282
 30
0.0
 10
210.1025940055008
 20
122.0494206568908
 30
0.0
 10
195.1144745475954
 20
127.0867346431296
 30
0.0
 10
180.0048196502883
 20
131.941664469399
 30
0.0
 10
164.8269812137783
 20
136.5525907904953
 30
0.0
 10
149.5276280842071
 20
140.662490758093
 30
0.0
 10
134.0366042649337
 20
143.9767906429785
 30
0.0
 10
119.396906391365
 20
146.153782064263
 30
0.0
 10
105.68945347212
 20
147.3149653421361
 30
0.0
 10
92.98016055507524
 20
147.6089711977523
 30
0.0
 10
80.27563962015633
 20
147.0485772896489
 30
0.0
 10
67.65730816414067
 20
145.5313518054876
 30
0.0
 10
55.91312847191909
 20
143.0966638706352
 30
0.0
 10
45.10452964815281
 20
139.8680456115067
 30
0.0
 10
35.24164776595118
 20
136.0385036472975
 30
0.0
 10
27.5046190444449
 20
132.3405533369926
 30
0.0
 10
21.84069238217756
 20
129.0501927334144
 30
0.0
 10
18.07228121457027
 20
126.5323612200478
 30
0.0
 10
14.49550261452726
 20
123.7553985830821
 30
0.0
 10
11.19411532409531
 20
120.6573159956585
 30
0.0
 10
8.342871185547217
 20
117.1361442491655
 30
0.0
 10
6.02875911486489
 20
113.1245244995582
 30
0.0
 10
5.215868950500746
 20
110.1341010917533
 30
0.0
 10
4.801528936908661
 20
108.609845872839
 30
0.0
  0
LINE
  5
10C
330
1F
100
AcDbEntity
  8
0
  6
Continuous
 62
     7
370
    25
100
AcDbLine
 10
238.1097468992
 20
93.8872161008
 30
0.0
 11
239.810943073
 21
111.5677840777
 31
0.0
  0
CIRCLE
  5
10D
330
1F
100
AcDbEntity
  8
0
  6
Continuous
 62
     7
370
    25
100
AcDbCircle
 10
26.000630752
 20
116.7768934744
 30
0.0
 40
4.999999999999989
  0
CIRCLE
  5
10E
330
1F
100
AcDbEntity
  8
0
  6
Continuous
 62
     7
370
    25
100
AcDbCircle
 10
232.8769165238
 20
105.8027733934
 30
0.0
 40
5.000000000000009
  0
LINE
  5
10F
330
1F
100
AcDbEntity
  8
0
  6
Continuous
 62
     7
370
    25
100
AcDbLine
 10
191.5480384789
 20
112.3544520541
 30
0.0
 11
195.3661544168
 21
124.4669245798
 31
0.0
  0
LINE
  5
110
330
1F
100
AcDbEntity
  8
0
  6
Continuous
 62
     7
370
    25
100
AcDbLine
 10
195.3661544168
 20
124.4669245798
 30
0.0
 11
174.0482027717
 21
131.1868086305
 31
0.0
  0
LINE
  5
111
330
1F
100
AcDbEntity
  8
0
  6
Continuous
 62
     7
370
    25
100
AcDbLine
 10
174.0482027717
 20
131.1868086305
 30
0.0
 11
170.2300868338
 21
119.0743361049
 31
0.0
  0
LINE
  5
112
330
1F
100
AcDbEntity
  8
0
  6
Continuous
 62
     7
370
    25
100
AcDbLine
 10
170.2300868338
 20
119.0743361049
 30
0.0
 11
191.5480384789
 21
112.3544520541
 31
0.0
  0
CIRCLE
  5
113
330
1F
100
AcDbEntity
  8
0
  6
Continuous
 62
     7
370
    25
100
AcDbCircle
 10
196.1504525433
 20
117.5616836391
 30
0.0
 40
0.9999999999999319
  0
CIRCLE
  5
114
330
1F
100
AcDbEntity
  8
0
  6
Continuous
 62
     7
370
    25
100
AcDbCircle
 10
169.4457887073
 20
125.9795770455
 30
0.0
 40
0.9999999999999926
  0
SPLINE
  5
115
330
1F
100
AcDbEntity
  8
0
  6
Continuous
 62
     7
370
    25
100
AcDbSpline
210
0.0
220
0.0
230
1.0
 70
     8
 71
     3
 72
    26
 73
    22
 74
     0
 42
0.00000001
 43
0.00000001
 40
0.0
 40
0.0
 40
0.0
 40
0.0
 40
0.0109354890684135
 40
0.0204690020023185
 40
0.0299192788275377
 40
0.0400000190448981
 40
0.0545769205449195
 40
0.0698668446932308
 40
0.0848548481877882
 40
0.1128111124119423
 40
0.1394232150797898
 40
0.1662015371234947
 40
0.2210953310624379
 40
0.2768350833827094
 40
0.3322694276395819
 40
0.4420542989223855
 40
0.5519263265180245
 40
0.6621211657160391
 40
0.7747995190622776
 40
0.887379577991634
 40
0.9999999999999999
 40
0.9999999999999999
 40
0.9999999999999999
 40
0.9999999999999999
 10
479.759405905056
 20
11.71029362935436
 30
0.0
 10
479.6022067911478
 20
10.84856466695295
 30
0.0
 10
479.307962157257
 20
9.235584054334625
 30
0.0
 10
477.8666338858904
 20
7.259522476709218
 30
0.0
 10
475.9307543357644
 20
5.958478166845999
 30
0.0
 10
473.3632023996949
 20
5.059020875913534
 30
0.0
 10
470.2247977814154
 20
4.570849953436873
 30
0.0
 10
466.6769500356981
 20
4.376856442357163
 30
0.0
 10
462.0679043720929
 20
4.206767226917568
 30
0.0
 10
456.5666406050591
 20
3.917447737492946
 30
0.0
 10
450.126649741949
 20
3.68935862064812
 30
0.0
 10
441.5479521065893
 20
3.793776899999546
 30
0.0
 10
430.684539234436
 20
4.543884824209115
 30
0.0
 10
417.6004817530163
 20
5.880921663125912
 30
0.0
 10
400.1799461496847
 20
7.548211138821009
 30
0.0
 10
378.4451873589333
 20
9.148831482897426
 30
0.0
 10
352.32008032672
 20
9.826917949576504
 30
0.0
 10
325.9627979034585
 20
9.406627862177775
 30
0.0
 10
299.4289494988907
 20
7.988060327509566
 30
0.0
 10
272.7444844625504
 20
5.921018377217147
 30
0.0
 10
255.0162902105524
 20
3.95319932957261
 30
0.0
 10
246.1506043568066
 20
2.969113457912717
 30
0.0
  0
LINE
  5
116
330
1F
100
AcDbEntity
  8
0
  6
Continuous
 62
     7
370
    25
100
AcDbLine
 10
244.9028866407
 20
20.687458553
 30
0.0
 11
246.1506043568
 21
2.9691134579
 31
0.0
  0
SPLINE
  5
117
330
1F
100
AcDbEntity
  8
0
  6
Continuous
 62
     7
370
    25
100
AcDbSpline
210
0.0
220
0.0
230
1.0
 70
     8
 71
     3
 72
    31
 73
    27
 74
     0
 42
0.00000001
 43
0.00000001
 40
0.0
 40
0.0
 40
0.0
 40
0.0
 40
0.0008302735896795
 40
0.0621501364398142
 40
0.1240034758949082
 40
0.18648583283497
 40
0.2491783966136557
 40
0.311722949330139
 40
0.3741052389111414
 40
0.4365076984230796
 40
0.4990014559895783
 40
0.5490396500175867
 40
0.5991379043856943
 40
0.6492711528820019
 40
0.6993353636335431
 40
0.7493107702574258
 40
0.7909475403705336
 40
0.8326218494828623
 40
0.8743545310485811
 40
0.8922200202581213
 40
0.9100645986236539
 40
0.9279215665704427
 40
0.945735274289352
 40
0.9634802372182273
 40
0.9813854322874995
 40
1.0
 40
1.0
 40
1.0
 40
1.0
 10
244.902886640746
 20
20.68745855298498
 30
0.0
 10
244.9694255513368
 20
20.70980869964177
 30
0.0
 10
249.9501962553363
 20
22.38282911295666
 30
0.0
 10
259.9134349879145
 20
25.64493385205315
 30
0.0
 10
274.8699928247659
 20
30.4046215468981
 30
0.0
 10
289.9822337487169
 20
35.05633427844753
 30
0.0
 10
305.211298123444
 20
39.52260934880868
 30
0.0
 10
320.502273064368
 20
43.74321434091799
 30
0.0
 10
335.9018881120062
 20
47.45984457697025
 30
0.0
 10
351.472730193611
 20
50.37622582193175
 30
0.0
 10
366.1633914614845
 20
52.17748010445951
 30
0.0
 10
379.8960919154586
 20
52.98714076149525
 30
0.0
 10
392.6087455873417
 20
52.95547827371036
 30
0.0
 10
405.2947418252344
 20
52.06981864935514
 30
0.0
 10
417.8700658718819
 20
50.22984934921311
 30
0.0
 10
429.548022536404
 20
47.49511167900584
 30
0.0
 10
440.2703673751318
 20
43.99067084547693
 30
0.0
 10
450.031911859999
 20
39.90972978392473
 30
0.0
 10
457.6716717764012
 20
36.01479482238472
 30
0.0
 10
463.2494511113414
 20
32.58042212452006
 30
0.0
 10
466.9521267437195
 20
29.96688210775284
 30
0.0
 10
470.456594576364
 20
27.09920502502741
 30
0.0
 10
473.6775353963571
 20
23.91756802593006
 30
0.0
 10
476.4376425804554
 20
20.32451195369917
 30
0.0
 10
478.6482302389907
 20
16.25492844981967
 30
0.0
 10
479.3842484579441
 20
13.24466272091203
 30
0.0
 10
479.759405905056
 20
11.71029362935436
 30
0.0
  0
CIRCLE
  5
118
330
1F
100
AcDbEntity
  8
0
  6
Continuous
 62
     7
370
    25
100
AcDbCircle
 10
251.6869563572
 20
14.7467119285
 30
0.0
 40
5.000000000000023
  0
CIRCLE
  5
119
330
1F
100
AcDbEntity
  8
0
  6
Continuous
 62
     7
370
    25
100
AcDbCircle
 10
458.7764748043
 20
20.4177149876
 30
0.0
 40
4.999999999999995
  0
LINE
  5
11A
330
1F
100
AcDbEntity
  8
0
  6
Continuous
 62
     7
370
    25
100
AcDbLine
 10
289.6635252296
 20
32.4438311867
 30
0.0
 11
311.1466232315
 21
38.6154115548
 31
0.0
  0
LINE
  5
11B
330
1F
100
AcDbEntity
  8
0
  6
Continuous
 62
     7
370
    25
100
AcDbLine
 10
293.1701049842
 20
20.2375255038
 30
0.0
 11
289.6635252296
 21
32.4438311867
 31
0.0
  0
LINE
  5
11C
330
1F
100
AcDbEntity
  8
0
  6
Continuous
 62
     7
370
    25
100
AcDbLine
 10
314.6532029861
 20
26.4091058719
 30
0.0
 11
293.1701049842
 21
20.2375255038
 31
0.0
  0
LINE
  5
11D
330
1F
100
AcDbEntity
  8
0
  6
Continuous
 62
     7
370
    25
100
AcDbLine
 10
311.1466232315
 20
38.6154115548
 30
0.0
 11
314.6532029861
 21
26.4091058719
 31
0.0
  0
CIRCLE
  5
11E
330
1F
100
AcDbEntity
  8
0
  6
Continuous
 62
     7
370
    25
100
AcDbCircle
 10
288.7025940637
 20
25.56094754
 30
0.0
 40
0.999999999999885
  0
CIRCLE
  5
11F
330
1F
100
AcDbEntity
  8
0
  6
Continuous
 62
     7
370
    25
100
AcDbCircle
 10
315.614134152
 20
33.2919895186
 30
0.0
 40
0.9999999999999989
  0
SPLINE
  5
120
330
1F
100
AcDbEntity
  8
0
  6
Continuous
 62
     7
370
    25
100
AcDbSpline
210
0.0
220
0.0
230
1.0
 70
     8
 71
     3
 72
    31
 73
    27
 74
     0
 42
0.00000001
 43
0.00000001
 40
0.0
 40
0.0
 40
0.0
 40
0.0
 40
0.0008302735896795
 40
0.062150136439814
 40
0.1240034758949082
 40
0.1864858328349698
 40
0.2491783966136555
 40
0.3117229493301391
 40
0.3741052389111413
 40
0.4365076984230798
 40
0.4990014559895782
 40
0.5490396500175865
 40
0.5991379043856943
 40
0.649271152882002
 40
0.6993353636335431
 40
0.7493107702574257
 40
0.7909475403705337
 40
0.8326218494828627
 40
0.8743545310485814
 40
0.8922200202581214
 40
0.9100645986236539
 40
0.9279215665704428
 40
0.9457352742893521
 40
0.9634802372182275
 40
0.9813854322874996
 40
1.0
 40
1.0
 40
1.0
 40
1.0
 10
240.7265779880235
 20
19.37624933222373
 30
0.0
 10
240.6602534849308
 20
19.39922793026003
 30
0.0
 10
235.695532255989
 20
21.11929107679856
 30
0.0
 10
225.7635985224601
 20
24.47550109465729
 30
0.0
 10
210.8527361003581
 20
29.37646335820176
 30
0.0
 10
195.7851761249491
 20
34.17092823635574
 30
0.0
 10
180.5990437043546
 20
38.78106888907801
 30
0.0
 10
165.3486794733736
 20
43.14613612404647
 30
0.0
 10
149.9849124459594
 20
47.00827887831158
 30
0.0
 10
134.4423557706594
 20
50.07182823997203
 30
0.0
 10
119.7693915348309
 20
52.01197411382346
 30
0.0
 10
106.0449648713527
 20
52.95150851816052
 30
0.0
 10
93.33258051408139
 20
53.04010788260804
 30
0.0
 10
80.63877367027727
 20
52.27449614665314
 30
0.0
 10
68.0466063912692
 20
50.55357048842804
 30
0.0
 10
56.34330192139902
 20
47.92942749140576
 30
0.0
 10
45.58828520251645
 20
44.52657577955375
 30
0.0
 10
35.78857221101573
 20
40.53816056018142
 30
0.0
 10
28.11230844606039
 20
36.71567124747956
 30
0.0
 10
22.50228987054403
 20
33.33421745961097
 30
0.0
 10
18.77505608974095
 20
30.75582133001999
 30
0.0
 10
15.24361712840339
 20
27.92142448004029
 30
0.0
 10
11.99272246357097
 20
24.77039962484044
 30
0.0
 10
9.198748830850146
 20
21.20361466558546
 30
0.0
 10
6.949762233007584
 20
17.15512519742082
 30
0.0
 10
6.18530013434182
 20
14.151956824357
 30
0.0
 10
5.795644495440566
 20
12.62120534148215
 30
0.0
  0
LINE
  5
121
330
1F
100
AcDbEntity
  8
0
  6
Continuous
 62
     7
370
    25
100
AcDbLine
 10
239.3113023349
 20
1.670500344
 30
0.0
 11
240.726577988
 21
19.3762493322
 31
0.0
  0
CIRCLE
  5
122
330
1F
100
AcDbEntity
  8
0
  6
Continuous
 62
     7
370
    25
100
AcDbCircle
 10
26.8600080344
 20
21.1297406438
 30
0.0
 40
5.000000000000008
  0
CIRCLE
  5
123
330
1F
100
AcDbEntity
  8
0
  6
Continuous
 62
     7
370
    25
100
AcDbCircle
 10
233.8866129602
 20
13.4999451542
 30
0.0
 40
5.000000000000023
  0
CIRCLE
  5
124
330
1F
100
AcDbEntity
  8
0
  6
Continuous
 62
     7
370
    25
100
AcDbCircle
 10
172.0909906619
 20
20.9875631732
 30
0.0
 40
2.99999999999998
  0
SPLINE
  5
125
330
1F
100
AcDbEntity
  8
0
  6
Continuous
 62
     7
370
    25
100
AcDbSpline
210
0.0
220
0.0
230
1.0
 70
     8
 71
     3
 72
    26
 73
    22
 74
     0
 42
0.00000001
 43
0.00000001
 40
0.0
 40
0.0
 40
0.0
 40
0.0
 40
0.0109354890679662
 40
0.0204690020014815
 40
0.029919278826314
 40
0.0400000190432621
 40
0.0545769205426877
 40
0.0698668446903737
 40
0.0848548481843183
 40
0.1128111124073287
 40
0.1394232150740882
 40
0.1662015371166979
 40
0.2210953310533965
 40
0.2768350833713882
 40
0.3322694276259938
 40
0.4420542989043076
 40
0.5519263264954535
 40
0.6621211656889617
 40
0.774799519044207
 40
0.8873795779825828
 40
1.0
 40
1.0
 40
1.0
 40
1.0
 10
5.795644495440566
 20
12.62120534148215
 30
0.0
 10
5.944684705325165
 20
11.75802784994722
 30
0.0
 10
6.223657537309912
 20
10.14233588664776
 30
0.0
 10
7.646227969823394
 20
8.152727907937779
 30
0.0
 10
9.569713147985603
 20
6.833428587005058
 30
0.0
 10
12.12864142050418
 20
5.909722757894947
 30
0.0
 10
15.26228755995374
 20
5.391884684456532
 30
0.0
 10
18.80814139492071
 20
5.16433756805676
 30
0.0
 10
23.41537179581721
 20
4.950654851245365
 30
0.0
 10
28.91365247058097
 20
4.609306901262849
 30
0.0
 10
35.35119747048854
 20
4.320306319377131
 30
0.0
 10
43.9304990311733
 20
4.343566302660279
 30
0.0
 10
54.80052175673289
 20
4.990873860657663
 30
0.0
 10
67.89664201589085
 20
6.20407699426223
 30
0.0
 10
85.3321705145258
 20
7.706495336800096
 30
0.0
 10
107.0810984736317
 20
9.101435409938546
 30
0.0
 10
133.211451145859
 20
9.532350628887325
 30
0.0
 10
159.5635782887019
 20
8.86274208548471
 30
0.0
 10
186.0828199082731
 20
7.193230466894879
 30
0.0
 10
212.7465369179188
 20
4.873848630563588
 30
0.0
 10
230.4553225369633
 20
2.73841068564637
 30
0.0
 10
239.3113023349117
 20
1.670500344034834
 30
0.0
  0
SPLINE
  5
126
330
1F
100
AcDbEntity
  8
0
  6
Continuous
 62
     7
370
    25
100
AcDbSpline
210
0.0
220
0.0
230
1.0
 70
     8
 71
     3
 72
    31
 73
    27
 74
     0
 42
0.00000001
 43
0.00000001
 40
0.0
 40
0.0
 40
0.0
 40
0.0
 40
0.0008302735896795
 40
0.0621501364398139
 40
0.1240034758949083
 40
0.1864858328349697
 40
0.2491783966136557
 40
0.3117229493301389
 40
0.3741052389111413
 40
0.4365076984230795
 40
0.4990014559895781
 40
0.5490396500175865
 40
0.5991379043856941
 40
0.6492711528820019
 40
0.6993353636335432
 40
0.7493107702574259
 40
0.7909475403705337
 40
0.8326218494828622
 40
0.8743545310485813
 40
0.8922200202581212
 40
0.9100645986236537
 40
0.9279215665704426
 40
0.9457352742893519
 40
0.9634802372182272
 40
0.9813854322874995
 40
1.0
 40
1.0
 40
1.0
 40
1.0
 10
237.9650290314042
 20
63.44171092835303
 30
0.0
 10
237.8991590635929
 20
63.46596176377654
 30
0.0
 10
232.9684620769081
 20
65.28125825048318
 30
0.0
 10
223.1029622212457
 20
68.82799843961571
 30
0.0
 10
208.2891864849741
 20
74.01503012593963
 30
0.0
 10
193.3166925514046
 20
79.09859998280585
 30
0.0
 10
178.2221005972488
 20
84.00016182279616
 30
0.0
 10
163.0585720019242
 20
88.65793185599352
 30
0.0
 10
147.7719822380492
 20
92.81505313374979
 30
0.0
 10
132.2912660671362
 20
96.17716995680576
 30
0.0
 10
117.6583600351266
 20
98.39935503822971
 30
0.0
 10
103.9545579300809
 20
99.60285825960901
 30
0.0
 10
91.24623342331456
 20
99.93610610295919
 30
0.0
 10
78.54004268489584
 20
99.41494352087562
 30
0.0
 10
65.91708653746619
 20
97.93668779072432
 30
0.0
 10
54.16544507241339
 20
95.53827480290103
 30
0.0
 10
43.34692854050448
 20
92.34304641589775
 30
0.0
 10
33.47226892681843
 20
88.54397703093804
 30
0.0
 10
25.72385866443538
 20
84.86993452428487
 30
0.0
 10
20.04979912222615
 20
81.59707851636352
 30
0.0
 10
16.27363143153559
 20
79.09089499761735
 30
0.0
 10
12.68829525722925
 20
76.32498987306276
 30
0.0
 10
9.377357534742558
 20
73.23711598351689
 30
0.0
 10
6.515254415685234
 20
69.7247650127584
 30
0.0
 10
4.188766412645206
 20
65.72030983598006
 30
0.0
 10
3.366646380040139
 20
62.7324107029341
 30
0.0
 10
2.947601790233345
 20
61.20944213759707
 30
0.0
  0
LINE
  5
127
330
1F
100
AcDbEntity
  8
0
  6
Continuous
 62
     7
370
    25
100
AcDbLine
 10
236.209247418
 20
45.7664801425
 30
0.0
 11
237.9650290314
 21
63.4417109284
 31
0.0
  0
CIRCLE
  5
128
330
1F
100
AcDbEntity
  8
0
  6
Continuous
 62
     7
370
    25
100
AcDbCircle
 10
24.1718205202
 20
69.3109928282
 30
0.0
 40
4.999999999999984
  0
CIRCLE
  5
129
330
1F
100
AcDbEntity
  8
0
  6
Continuous
 62
     7
370
    25
100
AcDbCircle
 10
231.0132345037
 20
57.6981384147
 30
0.0
 40
5.000000000000029
  0
CIRCLE
  5
12A
330
1F
100
AcDbEntity
  8
0
  6
Continuous
 62
     7
370
    25
100
AcDbCircle
 10
169.3731663717
 20
66.3736994634
 30
0.0
 40
2.999999999999989
  0
SPLINE
  5
12B
330
1F
100
AcDbEntity
  8
0
  6
Continuous
 62
     7
370
    25
100
AcDbSpline
210
0.0
220
0.0
230
1.0
 70
     8
 71
     3
 72
    26
 73
    22
 74
     0
 42
0.00000001
 43
0.00000001
 40
0.0
 40
0.0
 40
0.0
 40
0.0
 40
0.0109354890679663
 40
0.0204690020014814
 40
0.0299192788263138
 40
0.0400000190432624
 40
0.0545769205426874
 40
0.0698668446903736
 40
0.0848548481843178
 40
0.112811112407329
 40
0.1394232150740882
 40
0.1662015371166977
 40
0.221095331053396
 40
0.2768350833713882
 40
0.3322694276259937
 40
0.4420542989043076
 40
0.5519263264954533
 40
0.662121165688962
 40
0.7747995190442071
 40
0.8873795779825828
 40
1.0
 40
1.0
 40
1.0
 40
1.0
 10
2.947601790233345
 20
61.20944213759707
 30
0.0
 10
3.080001521236886
 20
60.34355607275647
 30
0.0
 10
3.327826775513354
 20
58.72279421344503
 30
0.0
 10
4.711841351032975
 20
56.70617570734178
 30
0.0
 10
6.609578774122493
 20
55.35010100371044
 30
0.0
 10
9.150255256822447
 20
54.37731666333458
 30
0.0
 10
12.2733545599093
 20
53.79926377591963
 30
0.0
 10
15.81417220056369
 20
53.50351465121766
 30
0.0
 10
20.41643665050763
 20
53.20119990928173
 30
0.0
 10
25.90712926099037
 20
52.75409426334681
 30
0.0
 10
32.3379197085083
 20
52.34124903534755
 30
0.0
 10
40.9160798343643
 20
52.19938589299741
 30
0.0
 10
51.79654736088168
 20
52.63736709491172
 30
0.0
 10
64.91359142261139
 20
53.59829517148967
 30
0.0
 10
82.37480624627707
 20
54.76486783725591
 30
0.0
 10
104.1465530346303
 20
55.74096566115841
 30
0.0
 10
130.2803591870864
 20
55.66889148567393
 30
0.0
 10
156.6147178490522
 20
54.49222908001221
 30
0.0
 10
183.0969157153058
 20
52.31263249018052
 30
0.0
 10
209.7110546893327
 20
49.4805054548339
 30
0.0
 10
227.3754611675246
 20
47.00463649806696
 30
0.0
 10
236.2092474179709
 20
45.76648014250549
 30
0.0
  0
LINE
  5
12C
330
1F
100
AcDbEntity
  8
0
  6
Continuous
 62
     7
370
    25
100
AcDbLine
 10
1016.0438200678
 20
152.3394143538
 30
0.0
 11
0.0438200678
 21
152.3394143538
 31
0.0
  0
LINE
  5
12D
330
1F
100
AcDbEntity
  8
0
  6
Continuous
 62
     7
370
    25
100
AcDbLine
 10
1016.0438200678
 20
-0.0605856462
 30
0.0
 11
1016.0438200678
 21
152.3394143538
 31
0.0
  0
LINE
  5
12E
330
1F
100
AcDbEntity
  8
0
  6
Continuous
 62
     7
370
    25
100
AcDbLine
 10
0.0438200678
 20
-0.0605856462
 30
0.0
 11
1016.0438200678
 21
-0.0605856462
 31
0.0
  0
LINE
  5
12F
330
1F
100
AcDbEntity
  8
0
  6
Continuous
 62
     7
370
    25
100
AcDbLine
 10
0.0438200678
 20
152.3394143538
 30
0.0
 11
0.0438200678
 21
-0.0605856462
 31
0.0
  0
MTEXT
  5
131
330
1F
100
AcDbEntity
  8
0
  6
Continuous
 62
     7
100
AcDbMText
 10
0.0
 20
7.3534328773
 30
0.0
 40
2.63652
 41
0.0
 71
     1
 72
     1
  1
SOLIDWORKS Educational Product.
  7
SLDTEXTSTYLE0
 73
     1
 44
1.0
  0
MTEXT
  5
132
330
1F
100
AcDbEntity
  8
0
  6
Continuous
 62
     7
100
AcDbMText
 10
0.0
 20
3.3986528773
 30
0.0
 40
2.63652
 41
0.0
 71
     1
 72
     1
  1
For Instructional Use Only.
  7
SLDTEXTSTYLE0
 73
     1
 44
1.0
  0
ENDSEC
  0
SECTION
  2
OBJECTS
  0
DICTIONARY
  5
C
330
0
100
AcDbDictionary
281
     1
  3
ACAD_GROUP
350
D
  3
ACAD_LAYOUT
350
1A
  3
ACAD_MLINESTYLE
350
17
  3
ACAD_PLOTSETTINGS
350
19
  3
ACAD_PLOTSTYLENAME
350
E
  3
ACAD_SCALELIST
350
47
  3
DWGPROPS
350
133
  0
DICTIONARY
  5
D
102
{ACAD_REACTORS
330
C
102
}
330
C
100
AcDbDictionary
281
     1
  0
DICTIONARY
  5
1A
102
{ACAD_REACTORS
330
C
102
}
330
C
100
AcDbDictionary
281
     1
  3
Layout1
350
1E
  3
Layout2
350
26
  3
Model
350
22
  0
DICTIONARY
  5
17
102
{ACAD_REACTORS
330
C
102
}
330
C
100
AcDbDictionary
281
     1
  3
Standard
350
18
  0
DICTIONARY
  5
19
102
{ACAD_REACTORS
330
C
102
}
330
C
100
AcDbDictionary
281
     1
  0
ACDBDICTIONARYWDFLT
  5
E
102
{ACAD_REACTORS
330
C
102
}
330
C
100
AcDbDictionary
281
     1
  3
Normal
350
F
100
AcDbDictionaryWithDefault
340
F
  0
DICTIONARY
  5
47
102
{ACAD_REACTORS
330
C
102
}
330
C
100
AcDbDictionary
281
     1
  3
A0
350
48
  3
A1
350
49
  3
A2
350
4A
  3
A3
350
4B
  3
A4
350
4C
  3
A5
350
4D
  3
A6
350
4E
  3
A7
350
4F
  3
A8
350
50
  3
A9
350
51
  3
B0
350
52
  3
B1
350
53
  3
B2
350
54
  3
B3
350
55
  3
B4
350
56
  3
B5
350
57
  3
B6
350
58
  0
XRECORD
  5
133
102
{ACAD_REACTORS
330
C
102
}
330
C
100
AcDbXrecord
280
     1
  1
DWGPROPS COOKIE
  2

  3

  4

  6

  7

  8
joshu
  9

300
=
301
=
302
=
303
=
304
=
305
=
306
=
307
=
308
=
309
=
 40
0.0
 41
2460357.11548088
 42
2460357.115481331
  1

 90
        0
  0
LAYOUT
  5
1E
102
{ACAD_REACTORS
330
1A
102
}
330
1A
100
AcDbPlotSettings
  1

  2
none_device
  4

  6

 40
0.0
 41
0.0
 42
0.0
 43
0.0
 44
0.0
 45
0.0
 46
0.0
 47
0.0
 48
0.0
 49
0.0
140
0.0
141
0.0
142
1.0
143
1.0
 70
   688
 72
     1
 73
     0
 74
     5
  7

 75
    16
147
1.0
148
0.0
149
0.0
100
AcDbLayout
  1
Layout1
 70
     1
 71
     1
 10
0.0
 20
0.0
 11
420.0
 21
297.0
 12
0.0
 22
0.0
 32
0.0
 14
1.0000000000E+20
 24
1.0000000000E+20
 34
1.0000000000E+20
 15
-1.0000000000E+20
 25
-1.0000000000E+20
 35
-1.0000000000E+20
146
0.0
 13
0.0
 23
0.0
 33
0.0
 16
1.0
 26
0.0
 36
0.0
 17
0.0
 27
1.0
 37
0.0
 76
     0
330
1B
  0
LAYOUT
  5
26
102
{ACAD_REACTORS
330
1A
102
}
330
1A
100
AcDbPlotSettings
  1

  2
none_device
  4

  6

 40
0.0
 41
0.0
 42
0.0
 43
0.0
 44
0.0
 45
0.0
 46
0.0
 47
0.0
 48
0.0
 49
0.0
140
0.0
141
0.0
142
1.0
143
1.0
 70
   688
 72
     1
 73
     0
 74
     5
  7

 75
    16
147
1.0
148
0.0
149
0.0
100
AcDbLayout
  1
Layout2
 70
     1
 71
     2
 10
0.0
 20
0.0
 11
0.0
 21
0.0
 12
0.0
 22
0.0
 32
0.0
 14
0.0
 24
0.0
 34
0.0
 15
0.0
 25
0.0
 35
0.0
146
0.0
 13
0.0
 23
0.0
 33
0.0
 16
1.0
 26
0.0
 36
0.0
 17
0.0
 27
1.0
 37
0.0
 76
     0
330
23
  0
LAYOUT
  5
22
102
{ACAD_REACTORS
330
1A
102
}
330
1A
100
AcDbPlotSettings
  1

  2
none_device
  4
Letter_(8.50_x_11.00_Inches)
  6

 40
6.35
 41
6.35
 42
6.35000508
 43
6.35000508
 44
215.9
 45
279.4
 46
0.0
 47
0.0
 48
0.0
 49
0.0
140
0.0
141
0.0
142
1.0
143
1.0
 70
  1712
 72
     1
 73
     0
 74
     0
  7

 75
     0
147
1.0
148
0.0
149
0.0
100
AcDbLayout
  1
Model
 70
     1
 71
     0
 10
0.0
 20
0.0
 11
1016.0
 21
152.4
 12
0.0
 22
0.0
 32
0.0
 14
0.0
 24
0.0
 34
0.0
 15
1016.0
 25
152.4
 35
0.0
146
0.0
 13
0.0
 23
0.0
 33
0.0
 16
1.0
 26
0.0
 36
0.0
 17
0.0
 27
1.0
 37
0.0
 76
     0
330
1F
331
29
  0
MLINESTYLE
  5
18
102
{ACAD_REACTORS
330
17
102
}
330
17
100
AcDbMlineStyle
  2
Standard
 70
     0
  3

 62
   256
 51
90.0
 52
90.0
 71
     2
 49
0.5
 62
   256
  6
BYLAYER
 49
-0.5
 62
   256
  6
BYLAYER
  0
ACDBPLACEHOLDER
  5
F
102
{ACAD_REACTORS
330
E
102
}
330
E
  0
SCALE
  5
48
102
{ACAD_REACTORS
330
47
102
}
330
47
100
AcDbScale
 70
     0
300
1:1
140
1.0
141
1.0
290
     1
  0
SCALE
  5
49
102
{ACAD_REACTORS
330
47
102
}
330
47
100
AcDbScale
 70
     0
300
1:2
140
1.0
141
2.0
290
     0
  0
SCALE
  5
4A
102
{ACAD_REACTORS
330
47
102
}
330
47
100
AcDbScale
 70
     0
300
1:4
140
1.0
141
4.0
290
     0
  0
SCALE
  5
4B
102
{ACAD_REACTORS
330
47
102
}
330
47
100
AcDbScale
 70
     0
300
1:5
140
1.0
141
5.0
290
     0
  0
SCALE
  5
4C
102
{ACAD_REACTORS
330
47
102
}
330
47
100
AcDbScale
 70
     0
300
1:8
140
1.0
141
8.0
290
     0
  0
SCALE
  5
4D
102
{ACAD_REACTORS
330
47
102
}
330
47
100
AcDbScale
 70
     0
300
1:10
140
1.0
141
10.0
290
     0
  0
SCALE
  5
4E
102
{ACAD_REACTORS
330
47
102
}
330
47
100
AcDbScale
 70
     0
300
1:16
140
1.0
141
16.0
290
     0
  0
SCALE
  5
4F
102
{ACAD_REACTORS
330
47
102
}
330
47
100
AcDbScale
 70
     0
300
1:20
140
1.0
141
20.0
290
     0
  0
SCALE
  5
50
102
{ACAD_REACTORS
330
47
102
}
330
47
100
AcDbScale
 70
     0
300
1:30
140
1.0
141
30.0
290
     0
  0
SCALE
  5
51
102
{ACAD_REACTORS
330
47
102
}
330
47
100
AcDbScale
 70
     0
300
1:40
140
1.0
141
40.0
290
     0
  0
SCALE
  5
52
102
{ACAD_REACTORS
330
47
102
}
330
47
100
AcDbScale
 70
     0
300
1:50
140
1.0
141
50.0
290
     0
  0
SCALE
  5
53
102
{ACAD_REACTORS
330
47
102
}
330
47
100
AcDbScale
 70
     0
300
1:100
140
1.0
141
100.0
290
     0
  0
SCALE
  5
54
102
{ACAD_REACTORS
330
47
102
}
330
47
100
AcDbScale
 70
     0
300
2:1
140
2.0
141
1.0
290
     0
  0
SCALE
  5
55
102
{ACAD_REACTORS
330
47
102
}
330
47
100
AcDbScale
 70
     0
300
4:1
140
4.0
141
1.0
290
     0
  0
SCALE
  5
56
102
{ACAD_REACTORS
330
47
102
}
330
47
100
AcDbScale
 70
     0
300
8:1
140
8.0
141
1.0
290
     0
  0
SCALE
  5
57
102
{ACAD_REACTORS
330
47
102
}
330
47
100
AcDbScale
 70
     0
300
10:1
140
10.0
141
1.0
290
     0
  0
SCALE
  5
58
102
{ACAD_REACTORS
330
47
102
}
330
47
100
AcDbScale
 70
     0
300
100:1
140
100.0
141
1.0
290
     0
  0
ENDSEC
  0
EOF
