  0
SECTION
  2
HEADER
  9
$ACADVER
  1
AC1015
  9
$ACADMAINTVER
 70
     6
  9
$DWGCODEPAGE
  3
ANSI_1252
  9
$INSBASE
 10
0.0
 20
0.0
 30
0.0
  9
$EXTMIN
 10
0.0
 20
0.0
 30
0.0
  9
$EXTMAX
 10
1016.0
 20
152.4
 30
0.0
  9
$LIMMIN
 10
0.0
 20
0.0
  9
$LIMMAX
 10
1016.0
 20
152.4
  9
$ORTHOMODE
 70
     0
  9
$REGENMODE
 70
     1
  9
$FILLMODE
 70
     1
  9
$QTEXTMODE
 70
     0
  9
$MIRRTEXT
 70
     1
  9
$LTSCALE
 40
1.0
  9
$ATTMODE
 70
     1
  9
$TEXTSIZE
 40
3.5
  9
$TRACEWID
 40
1.0
  9
$TEXTSTYLE
  7
Standard
  9
$CLAYER
  8
0
  9
$CELTYPE
  6
ByLayer
  9
$CECOLOR
 62
   256
  9
$CELTSCALE
 40
1.0
  9
$DISPSILH
 70
     0
  9
$DIMSCALE
 40
1.0
  9
$DIMASZ
 40
3.556
  9
$DIMEXO
 40
1.0
  9
$DIMDLI
 40
3.75
  9
$DIMRND
 40
0.0
  9
$DIMDLE
 40
0.0
  9
$DIMEXE
 40
1.0
  9
$DIMTP
 40
0.0
  9
$DIMTM
 40
0.0
  9
$DIMTXT
 40
3.5
  9
$DIMCEN
 40
2.5
  9
$DIMTSZ
 40
0.0
  9
$DIMTOL
 70
     0
  9
$DIMLIM
 70
     0
  9
$DIMTIH
 70
     1
  9
$DIMTOH
 70
     1
  9
$DIMSE1
 70
     0
  9
$DIMSE2
 70
     0
  9
$DIMTAD
 70
     1
  9
$DIMZIN
 70
     1
  9
$DIMBLK
  1

  9
$DIMASO
 70
     1
  9
$DIMSHO
 70
     1
  9
$DIMPOST
  1

  9
$DIMAPOST
  1

  9
$DIMALT
 70
     0
  9
$DIMALTD
 70
     3
  9
$DIMALTF
 40
0.0393700787
  9
$DIMLFAC
 40
2.0
  9
$DIMTOFL
 70
     1
  9
$DIMTVP
 40
0.0
  9
$DIMTIX
 70
     0
  9
$DIMSOXD
 70
     0
  9
$DIMSAH
 70
     0
  9
$DIMBLK1
  1

  9
$DIMBLK2
  1

  9
$DIMSTYLE
  2
ISO-25
  9
$DIMCLRD
 70
     0
  9
$DIMCLRE
 70
     0
  9
$DIMCLRT
 70
     0
  9
$DIMTFAC
 40
1.0
  9
$DIMGAP
 40
1.524
  9
$DIMJUST
 70
     0
  9
$DIMSD1
 70
     0
  9
$DIMSD2
 70
     0
  9
$DIMTOLJ
 70
     0
  9
$DIMTZIN
 70
     1
  9
$DIMALTZ
 70
     0
  9
$DIMALTTZ
 70
     0
  9
$DIMUPT
 70
     0
  9
$DIMDEC
 70
     2
  9
$DIMTDEC
 70
     2
  9
$DIMALTU
 70
     2
  9
$DIMALTTD
 70
     3
  9
$DIMTXSTY
  7
Standard
  9
$DIMAUNIT
 70
     0
  9
$DIMADEC
 70
     2
  9
$DIMALTRND
 40
0.0
  9
$DIMAZIN
 70
     0
  9
$DIMDSEP
 70
    44
  9
$DIMATFIT
 70
     3
  9
$DIMFRAC
 70
     0
  9
$DIMLDRBLK
  1

  9
$DIMLUNIT
 70
     2
  9
$DIMLWD
 70
    -2
  9
$DIMLWE
 70
    -2
  9
$DIMTMOVE
 70
     0
  9
$LUNITS
 70
     2
  9
$LUPREC
 70
     2
  9
$SKETCHINC
 40
1.0
  9
$FILLETRAD
 40
0.0
  9
$AUNITS
 70
     0
  9
$AUPREC
 70
     2
  9
$MENU
  1
.
  9
$ELEVATION
 40
0.0
  9
$PELEVATION
 40
0.0
  9
$THICKNESS
 40
0.0
  9
$LIMCHECK
 70
     0
  9
$CHAMFERA
 40
0.0
  9
$CHAMFERB
 40
0.0
  9
$CHAMFERC
 40
0.0
  9
$CHAMFERD
 40
0.0
  9
$SKPOLY
 70
     0
  9
$TDCREATE
 40
2460356.475164016
  9
$TDUCREATE
 40
2460356.68349735
  9
$TDUPDATE
 40
2460356.475164375
  9
$TDUUPDATE
 40
2460356.683497708
  9
$TDINDWG
 40
0.0000000116
  9
$TDUSRTIMER
 40
0.0000000116
  9
$USRTIMER
 70
     1
  9
$ANGBASE
 50
0.0
  9
$ANGDIR
 70
     0
  9
$PDMODE
 70
     0
  9
$PDSIZE
 40
-1.0
  9
$PLINEWID
 40
0.0
  9
$SPLFRAME
 70
     0
  9
$SPLINETYPE
 70
     6
  9
$SPLINESEGS
 70
     8
  9
$HANDSEED
  5
B3
  9
$SURFTAB1
 70
     6
  9
$SURFTAB2
 70
     6
  9
$SURFTYPE
 70
     6
  9
$SURFU
 70
     6
  9
$SURFV
 70
     6
  9
$UCSBASE
  2

  9
$UCSNAME
  2

  9
$UCSORG
 10
0.0
 20
0.0
 30
0.0
  9
$UCSXDIR
 10
1.0
 20
0.0
 30
0.0
  9
$UCSYDIR
 10
0.0
 20
1.0
 30
0.0
  9
$UCSORTHOREF
  2

  9
$UCSORTHOVIEW
 70
     0
  9
$UCSORGTOP
 10
0.0
 20
0.0
 30
0.0
  9
$UCSORGBOTTOM
 10
0.0
 20
0.0
 30
0.0
  9
$UCSORGLEFT
 10
0.0
 20
0.0
 30
0.0
  9
$UCSORGRIGHT
 10
0.0
 20
0.0
 30
0.0
  9
$UCSORGFRONT
 10
0.0
 20
0.0
 30
0.0
  9
$UCSORGBACK
 10
0.0
 20
0.0
 30
0.0
  9
$PUCSBASE
  2

  9
$PUCSNAME
  2

  9
$PUCSORG
 10
0.0
 20
0.0
 30
0.0
  9
$PUCSXDIR
 10
1.0
 20
0.0
 30
0.0
  9
$PUCSYDIR
 10
0.0
 20
1.0
 30
0.0
  9
$PUCSORTHOREF
  2

  9
$PUCSORTHOVIEW
 70
     0
  9
$PUCSORGTOP
 10
0.0
 20
0.0
 30
0.0
  9
$PUCSORGBOTTOM
 10
0.0
 20
0.0
 30
0.0
  9
$PUCSORGLEFT
 10
0.0
 20
0.0
 30
0.0
  9
$PUCSORGRIGHT
 10
0.0
 20
0.0
 30
0.0
  9
$PUCSORGFRONT
 10
0.0
 20
0.0
 30
0.0
  9
$PUCSORGBACK
 10
0.0
 20
0.0
 30
0.0
  9
$USERI1
 70
     0
  9
$USERI2
 70
     0
  9
$USERI3
 70
     0
  9
$USERI4
 70
     0
  9
$USERI5
 70
     0
  9
$USERR1
 40
0.0
  9
$USERR2
 40
0.0
  9
$USERR3
 40
0.0
  9
$USERR4
 40
0.0
  9
$USERR5
 40
0.0
  9
$WORLDVIEW
 70
     1
  9
$SHADEDGE
 70
     3
  9
$SHADEDIF
 70
    70
  9
$TILEMODE
 70
     1
  9
$MAXACTVP
 70
    64
  9
$PINSBASE
 10
0.0
 20
0.0
 30
0.0
  9
$PLIMCHECK
 70
     0
  9
$PEXTMIN
 10
1.0000000000E+20
 20
1.0000000000E+20
 30
1.0000000000E+20
  9
$PEXTMAX
 10
-1.0000000000E+20
 20
-1.0000000000E+20
 30
-1.0000000000E+20
  9
$PLIMMIN
 10
0.0
 20
0.0
  9
$PLIMMAX
 10
420.0
 20
297.0
  9
$UNITMODE
 70
     0
  9
$VISRETAIN
 70
     1
  9
$PLINEGEN
 70
     0
  9
$PSLTSCALE
 70
     1
  9
$TREEDEPTH
 70
  3020
  9
$CMLSTYLE
  2
Standard
  9
$CMLJUST
 70
     0
  9
$CMLSCALE
 40
20.0
  9
$PROXYGRAPHICS
 70
     1
  9
$MEASUREMENT
 70
     1
  9
$CELWEIGHT
370
    -1
  9
$ENDCAPS
280
     0
  9
$JOINSTYLE
280
     0
  9
$LWDISPLAY
290
     1
  9
$INSUNITS
 70
     4
  9
$HYPERLINKBASE
  1

  9
$STYLESHEET
  1

  9
$XEDIT
290
     1
  9
$CEPSNTYPE
380
     0
  9
$PSTYLEMODE
290
     1
  9
$FINGERPRINTGUID
  2
{ff6f7a45-7157-4df8-9cdc-3a2baea0cd19}
  9
$VERSIONGUID
  2
{FAEB1C32-E019-11D5-929B-00C0DF256EC4}
  9
$EXTNAMES
290
     1
  9
$PSVPSCALE
 40
0.0
  9
$OLESTARTUP
290
     0
  0
ENDSEC
  0
SECTION
  2
CLASSES
  0
CLASS
  1
ACDBDICTIONARYWDFLT
  2
AcDbDictionaryWithDefault
  3
ObjectDBX Classes
 90
        0
280
     0
281
     0
  0
CLASS
  1
VISUALSTYLE
  2
AcDbVisualStyle
  3
ObjectDBX Classes
 90
     4095
280
     0
281
     0
  0
CLASS
  1
MATERIAL
  2
AcDbMaterial
  3
ObjectDBX Classes
 90
     1153
280
     0
281
     0
  0
CLASS
  1
SCALE
  2
AcDbScale
  3
ObjectDBX Classes
 90
     1153
280
     0
281
     0
  0
CLASS
  1
TABLESTYLE
  2
AcDbTableStyle
  3
ObjectDBX Classes
 90
     4095
280
     0
281
     0
  0
CLASS
  1
MLEADERSTYLE
  2
AcDbMLeaderStyle
  3
ACDB_MLEADERSTYLE_CLASS
 90
     4095
280
     0
281
     0
  0
CLASS
  1
SUN
  2
AcDbSun
  3
SCENEOE
 90
     1153
280
     0
281
     0
  0
CLASS
  1
ACDBPLACEHOLDER
  2
AcDbPlaceHolder
  3
ObjectDBX Classes
 90
        0
280
     0
281
     0
  0
CLASS
  1
LAYOUT
  2
AcDbLayout
  3
ObjectDBX Classes
 90
        0
280
     0
281
     0
  0
ENDSEC
  0
SECTION
  2
TABLES
  0
TABLE
  2
VPORT
  5
8
330
0
100
AcDbSymbolTable
 70
     1
  0
VPORT
  5
29
330
8
100
AcDbSymbolTableRecord
100
AcDbViewportTableRecord
  2
*Active
 70
     0
 10
0.0
 20
0.0
 11
1.0
 21
1.0
 12
508.0
 22
76.2
 13
0.0
 23
0.0
 14
10.0
 24
10.0
 15
10.0
 25
10.0
 16
0.0
 26
0.0
 36
1.0
 17
0.0
 27
0.0
 37
0.0
 40
152.4
 41
6.6666666667
 42
50.0
 43
0.0
 44
0.0
 50
0.0
 51
0.0
 71
     0
 72
  2000
 73
     1
 74
     3
 75
     0
 76
     0
 77
     0
 78
     0
281
     0
 65
     1
110
0.0
120
0.0
130
0.0
111
1.0
121
0.0
131
0.0
112
0.0
122
1.0
132
0.0
 79
     0
146
0.0
  0
ENDTAB
  0
TABLE
  2
LTYPE
  5
5
330
0
100
AcDbSymbolTable
 70
     6
  0
LTYPE
  5
14
330
5
100
AcDbSymbolTableRecord
100
AcDbLinetypeTableRecord
  2
ByBlock
 70
     0
  3

 72
    65
 73
     0
 40
0.0
  0
LTYPE
  5
15
330
5
100
AcDbSymbolTableRecord
100
AcDbLinetypeTableRecord
  2
ByLayer
 70
     0
  3

 72
    65
 73
     0
 40
0.0
  0
LTYPE
  5
16
330
5
100
AcDbSymbolTableRecord
100
AcDbLinetypeTableRecord
  2
Continuous
 70
     0
  3
Solid line
 72
    65
 73
     0
 40
0.0
  0
LTYPE
  5
5E
330
5
100
AcDbSymbolTableRecord
100
AcDbLinetypeTableRecord
  2
HIDDEN
 70
     0
  3
Hidden __ __ __ __ __ __ __ __ __ __ __ __ __ __
 72
    65
 73
     2
 40
1.905
 49
1.27
 74
     0
 49
-0.635
 74
     0
  0
LTYPE
  5
5F
330
5
100
AcDbSymbolTableRecord
100
AcDbLinetypeTableRecord
  2
PHANTOM
 70
     0
  3
Phantom ______  __  __  ______  __  __  ______
 72
    65
 73
     6
 40
12.7
 49
6.35
 74
     0
 49
-1.27
 74
     0
 49
1.27
 74
     0
 49
-1.27
 74
     0
 49
1.27
 74
     0
 49
-1.27
 74
     0
  0
LTYPE
  5
60
330
5
100
AcDbSymbolTableRecord
100
AcDbLinetypeTableRecord
  2
CENTER
 70
     0
  3
Center ____ _ ____ _ ____ _ ____ _ ____ _ ____
 72
    65
 73
     4
 40
10.16
 49
6.35
 74
     0
 49
-1.27
 74
     0
 49
1.27
 74
     0
 49
-1.27
 74
     0
  0
LTYPE
  5
61
330
5
100
AcDbSymbolTableRecord
100
AcDbLinetypeTableRecord
  2
CENTERX2
 70
     0
  3
Center (2x) ________  __  ________  __  _____
 72
    65
 73
     4
 40
20.32
 49
12.7
 74
     0
 49
-2.54
 74
     0
 49
2.54
 74
     0
 49
-2.54
 74
     0
  0
LTYPE
  5
62
330
5
100
AcDbSymbolTableRecord
100
AcDbLinetypeTableRecord
  2
DOT2
 70
     0
  3
Dot (.5x) ........................................
 72
    65
 73
     2
 40
0.635
 49
0.0
 74
     0
 49
-0.635
 74
     0
  0
ENDTAB
  0
TABLE
  2
LAYER
  5
2
330
0
100
AcDbSymbolTable
 70
     1
  0
LAYER
  5
10
330
2
100
AcDbSymbolTableRecord
100
AcDbLayerTableRecord
  2
0
 70
     0
 62
     7
  6
Continuous
370
    -3
390
F
  0
ENDTAB
  0
TABLE
  2
STYLE
  5
3
330
0
100
AcDbSymbolTable
 70
     2
  0
STYLE
  5
11
330
3
100
AcDbSymbolTableRecord
100
AcDbTextStyleTableRecord
  2
Standard
 70
     0
 40
0.0
 41
1.0
 50
0.0
 71
     0
 42
3.5
  3
txt
  4

  0
STYLE
  5
AF
330
3
100
AcDbSymbolTableRecord
100
AcDbTextStyleTableRecord
  2
SLDTEXTSTYLE0
 70
     0
 40
0.0
 41
0.7
 50
0.0
 71
     0
 42
3.5
  3
TXT
  4

  0
ENDTAB
  0
TABLE
  2
VIEW
  5
6
330
0
100
AcDbSymbolTable
 70
     0
  0
ENDTAB
  0
TABLE
  2
UCS
  5
7
330
0
100
AcDbSymbolTable
 70
     0
  0
ENDTAB
  0
TABLE
  2
APPID
  5
9
330
0
100
AcDbSymbolTable
 70
     1
  0
APPID
  5
12
330
9
100
AcDbSymbolTableRecord
100
AcDbRegAppTableRecord
  2
ACAD
 70
     0
  0
ENDTAB
  0
TABLE
  2
DIMSTYLE
  5
A
330
0
100
AcDbSymbolTable
 70
     1
100
AcDbDimStyleTable
  0
DIMSTYLE
105
27
330
A
100
AcDbSymbolTableRecord
100
AcDbDimStyleTableRecord
  2
ISO-25
 70
     0
 41
2.5
 42
0.625
 43
3.75
 44
1.25
 73
     0
 74
     0
 77
     1
 78
     8
140
2.5
141
2.5
143
0.0393700787
147
0.625
171
     3
172
     1
178
     0
271
     2
272
     2
274
     3
278
    44
283
     0
284
     8
340
11
  0
ENDTAB
  0
TABLE
  2
BLOCK_RECORD
  5
1
330
0
100
AcDbSymbolTable
 70
     1
  0
BLOCK_RECORD
  5
1F
330
1
100
AcDbSymbolTableRecord
100
AcDbBlockTableRecord
  2
*Model_Space
340
22
  0
BLOCK_RECORD
  5
1B
330
1
100
AcDbSymbolTableRecord
100
AcDbBlockTableRecord
  2
*Paper_Space
340
1E
  0
BLOCK_RECORD
  5
23
330
1
100
AcDbSymbolTableRecord
100
AcDbBlockTableRecord
  2
*Paper_Space0
340
26
  0
ENDTAB
  0
ENDSEC
  0
SECTION
  2
BLOCKS
  0
BLOCK
  5
20
330
1F
100
AcDbEntity
  8
0
100
AcDbBlockBegin
  2
*Model_Space
 70
     0
 10
0.0
 20
0.0
 30
0.0
  3
*Model_Space
  1

  0
ENDBLK
  5
21
330
1F
100
AcDbEntity
  8
0
100
AcDbBlockEnd
  0
BLOCK
  5
1C
330
1B
100
AcDbEntity
 67
     1
  8
0
100
AcDbBlockBegin
  2
*Paper_Space
 70
     0
 10
0.0
 20
0.0
 30
0.0
  3
*Paper_Space
  1

  0
ENDBLK
  5
1D
330
1B
100
AcDbEntity
 67
     1
  8
0
100
AcDbBlockEnd
  0
BLOCK
  5
24
330
23
100
AcDbEntity
  8
0
100
AcDbBlockBegin
  2
*Paper_Space0
 70
     0
 10
0.0
 20
0.0
 30
0.0
  3
*Paper_Space0
  1

  0
ENDBLK
  5
25
330
23
100
AcDbEntity
  8
0
100
AcDbBlockEnd
  0
ENDSEC
  0
SECTION
  2
ENTITIES
  0
LINE
  5
63
330
1F
100
AcDbEntity
  8
0
  6
Continuous
 62
     7
370
    25
100
AcDbLine
 10
1016.1344153052
 20
152.2319821574
 30
0.0
 11
0.1344153052
 21
152.2319821574
 31
0.0
  0
LINE
  5
64
330
1F
100
AcDbEntity
  8
0
  6
Continuous
 62
     7
370
    25
100
AcDbLine
 10
0.1344153052
 20
152.2319821574
 30
0.0
 11
0.1344153052
 21
-0.1680178426
 31
0.0
  0
LINE
  5
65
330
1F
100
AcDbEntity
  8
0
  6
Continuous
 62
     7
370
    25
100
AcDbLine
 10
1016.1344153052
 20
-0.1680178426
 30
0.0
 11
1016.1344153052
 21
152.2319821574
 31
0.0
  0
LINE
  5
66
330
1F
100
AcDbEntity
  8
0
  6
Continuous
 62
     7
370
    25
100
AcDbLine
 10
0.1344153052
 20
-0.1680178426
 30
0.0
 11
1016.1344153052
 21
-0.1680178426
 31
0.0
  0
SPLINE
  5
67
330
1F
100
AcDbEntity
  8
0
  6
Continuous
 62
     7
370
    25
100
AcDbSpline
210
0.0
220
0.0
230
1.0
 70
     8
 71
     3
 72
    56
 73
    52
 74
     0
 42
0.00000001
 43
0.00000001
 40
0.0
 40
0.0
 40
0.0
 40
0.0
 40
0.003056542827603
 40
0.0050733295616681
 40
0.0060575699309033
 40
0.0062236427101536
 40
0.0063582112307849
 40
0.006468074890974
 40
0.0065896101623483
 40
0.0067178320871222
 40
0.0068757942414003
 40
0.0070745216974522
 40
0.0080702832055785
 40
0.009552549727639
 40
0.0126890054439863
 40
0.0259196524929821
 40
0.0378551884524986
 40
0.0477583292776101
 40
0.0563044983153448
 40
0.0641690141527166
 40
0.0846927215053281
 40
0.1077749044240487
 40
0.1322509400014688
 40
0.1568938130743578
 40
0.1810125817286758
 40
0.2046696530125827
 40
0.2279831790671612
 40
0.2510705804670419
 40
0.297032991132929
 40
0.3433952701230112
 40
0.3902290302713394
 40
0.4372203513239589
 40
0.4841007304255085
 40
0.530859484909483
 40
0.5776333578005379
 40
0.6244756633083918
 40
0.6619818793368816
 40
0.6995331136985514
 40
0.737110577970343
 40
0.7746362948795527
 40
0.812095448499243
 40
0.8433043625083452
 40
0.8745414139401032
 40
0.9058222185466005
 40
0.9192133272939031
 40
0.9325887622814321
 40
0.9459734839013042
 40
0.9593257797415529
 40
0.9726265478039521
 40
0.9860474181480019
 40
1.0
 40
1.0
 40
1.0
 40
1.0
 10
176.988832878355
 20
53.76598310544298
 30
0.0
 10
176.6458356020101
 20
53.80470500240273
 30
0.0
 10
176.0765197704316
 20
53.86897661762632
 30
0.0
 10
175.3957156863048
 20
53.89520202136164
 30
0.0
 10
175.0342345837738
 20
53.86962679103299
 30
0.0
 10
174.8975756377635
 20
53.81996510869444
 30
0.0
 10
174.8571433849524
 20
53.79680258849792
 30
0.0
 10
174.8268540968676
 20
53.7678811951948
 30
0.0
 10
174.8109034354441
 20
53.7285134584787
 30
0.0
 10
174.8183229635136
 20
53.68147004124499
 30
0.0
 10
174.8449839721923
 20
53.63308988137147
 30
0.0
 10
174.9445866673671
 20
53.51673025747025
 30
0.0
 10
175.1991531894991
 20
53.3467709669204
 30
0.0
 10
175.7534865166363
 20
53.04419820463421
 30
0.0
 10
177.5942393257529
 20
52.21948035452992
 30
0.0
 10
180.5816910302311
 20
51.09754222894977
 30
0.0
 10
184.2653643480297
 20
49.65555794708617
 30
0.0
 10
187.4539976475039
 20
48.39981714947414
 30
0.0
 10
190.2130842923874
 20
47.30619342854001
 30
0.0
 10
194.0897876769998
 20
45.78134693988975
 30
0.0
 10
199.5285079073191
 20
43.74953229042708
 30
0.0
 10
206.7738966434774
 20
41.20504193600147
 30
0.0
 10
214.4923698698112
 20
38.60800841413645
 30
0.0
 10
222.3515907662563
 20
36.06443246042188
 30
0.0
 10
230.1501443812681
 20
33.63506669887003
 30
0.0
 10
237.8299835322664
 20
31.3302764049875
 30
0.0
 10
245.4197412735977
 20
29.13137477924829
 30
0.0
 10
255.4501021659656
 20
26.31715915239655
 30
0.0
 10
268.0220526333283
 20
22.94044393722614
 30
0.0
 10
283.2140412361782
 20
18.996205659257
 30
0.0
 10
298.5555679891947
 20
15.16792691518462
 30
0.0
 10
314.0037483760589
 20
11.53120170002683
 30
0.0
 10
329.5004663768539
 20
8.143113541693253
 30
0.0
 10
345.0784315781957
 20
5.264140072593543
 30
0.0
 10
360.7841261905729
 20
3.193498185335625
 30
0.0
 10
375.5506627615628
 20
2.188787425444233
 30
0.0
 10
389.3070507866907
 20
2.122451130297881
 30
0.0
 10
401.9994159625862
 20
2.841083284891105
 30
0.0
 10
414.6190110321662
 20
4.41102397993745
 30
0.0
 10
427.0765229335543
 20
6.927898854487885
 30
0.0
 10
438.589623822656
 20
10.28973910941119
 30
0.0
 10
449.106913131498
 20
14.36851465982739
 30
0.0
 10
458.6336509674443
 20
18.97102450587804
 30
0.0
 10
466.0517569873959
 20
23.27313480335588
 30
0.0
 10
471.4357853210986
 20
27.00392252701642
 30
0.0
 10
474.9918094555779
 20
29.8137429150209
 30
0.0
 10
478.3361813881709
 20
32.86661746490224
 30
0.0
 10
481.380473645203
 20
36.21767079388557
 30
0.0
 10
483.9423718293153
 20
39.95463765220028
 30
0.0
 10
485.9298010710236
 20
44.13773849969569
 30
0.0
 10
486.5020632504105
 20
47.18338105510275
 30
0.0
 10
486.7937522504503
 20
48.73578214583493
 30
0.0
  0
SPLINE
  5
68
330
1F
100
AcDbEntity
  8
0
  6
Continuous
 62
     7
370
    25
100
AcDbSpline
210
0.0
220
0.0
230
1.0
 70
     8
 71
     3
 72
    34
 73
    30
 74
     0
 42
0.00000001
 43
0.00000001
 40
0.0
 40
0.0
 40
0.0
 40
0.0
 40
0.0082689181299219
 40
0.0154777258428485
 40
0.0226235942062966
 40
0.0302461902351377
 40
0.0412685783823404
 40
0.0528301217393925
 40
0.0641633664669087
 40
0.0853026185517178
 40
0.1054254769669851
 40
0.1256740228939834
 40
0.1671822064861358
 40
0.2093300652270404
 40
0.2512469883182757
 40
0.3342613013372648
 40
0.4173415179853304
 40
0.5006658300455658
 40
0.5706282011463195
 40
0.6405156432004449
 40
0.7104265204560682
 40
0.7803306285572847
 40
0.8117106438589111
 40
0.8430964381230596
 40
0.8744849200520493
 40
0.9058612543494836
 40
0.9372430728130807
 40
0.9686336644808518
 40
0.9999999999999999
 40
0.9999999999999999
 40
0.9999999999999999
 40
0.9999999999999999
 10
486.7937522504503
 20
48.73578214583493
 30
0.0
 10
486.5902133878731
 20
49.58775649842792
 30
0.0
 10
486.2092302091989
 20
51.18247847382837
 30
0.0
 10
484.663218077605
 20
53.07776025588182
 30
0.0
 10
482.6598565847021
 20
54.2722847041732
 30
0.0
 10
480.0474483130501
 20
55.03167221056879
 30
0.0
 10
476.8872482599085
 20
55.34952441150773
 30
0.0
 10
473.3341013169684
 20
55.35150200875458
 30
0.0
 10
468.7225990510805
 20
55.27226108919611
 30
0.0
 10
463.2137390781655
 20
55.26385907322371
 30
0.0
 10
456.770832803128
 20
55.14358546433304
 30
0.0
 10
448.2103144582475
 20
54.57571108778023
 30
0.0
 10
437.4033138004315
 20
53.23961659816054
 30
0.0
 10
424.410632823294
 20
51.19746004923451
 30
0.0
 10
407.105656132313
 20
48.59110080413162
 30
0.0
 10
385.4891727379003
 20
45.81873993554139
 30
0.0
 10
359.4388337430827
 20
43.72769033575638
 30
0.0
 10
334.6930541640696
 20
42.79123464669352
 30
0.0
 10
311.314961003998
 20
42.67324732761033
 30
0.0
 10
289.3471074000949
 20
43.1158961372364
 30
0.0
 10
267.3966548814911
 20
43.8938687679524
 30
0.0
 10
249.4915536894444
 20
44.98487801057413
 30
0.0
 10
235.6698198546274
 20
46.42751708826439
 30
0.0
 10
225.8622109781945
 20
47.46214693299841
 30
0.0
 10
216.0396019028222
 20
48.33359534147727
 30
0.0
 10
206.2307157355564
 20
49.37222064836597
 30
0.0
 10
196.4843291478694
 20
50.88376608355657
 30
0.0
 10
186.6528063427087
 20
51.77654295261699
 30
0.0
 10
180.2093272111712
 20
53.1030072848567
 30
0.0
 10
176.988832878355
 20
53.76598310544298
 30
0.0
  0
CIRCLE
  5
69
330
1F
100
AcDbEntity
  8
0
  6
Continuous
 62
     7
370
    25
100
AcDbCircle
 10
240.249544305
 20
38.5129648535
 30
0.0
 40
1.984374999999989
  0
CIRCLE
  5
6A
330
1F
100
AcDbEntity
  8
0
  6
Continuous
 62
     7
370
    25
100
AcDbCircle
 10
259.2186858762
 20
33.3783330215
 30
0.0
 40
4.999999999999995
  0
CIRCLE
  5
6B
330
1F
100
AcDbEntity
  8
0
  6
Continuous
 62
     7
370
    25
100
AcDbCircle
 10
466.3120497359
 20
38.9071277926
 30
0.0
 40
4.999999999999995
  0
CIRCLE
  5
6C
330
1F
100
AcDbEntity
  8
0
  6
Continuous
 62
     7
370
    25
100
AcDbCircle
 10
321.3650070091
 20
29.8289487818
 30
0.0
 40
2.999999999999951
  0
CIRCLE
  5
6D
330
1F
100
AcDbEntity
  8
0
  6
Continuous
 62
     7
370
    25
100
AcDbCircle
 10
249.6662597645
 20
110.8783587855
 30
0.0
 40
1.984375000000047
  0
CIRCLE
  5
6E
330
1F
100
AcDbEntity
  8
0
  6
Continuous
 62
     7
370
    25
100
AcDbCircle
 10
230.8268999678
 20
116.470433396
 30
0.0
 40
5.000000000000004
  0
CIRCLE
  5
6F
330
1F
100
AcDbEntity
  8
0
  6
Continuous
 62
     7
370
    25
100
AcDbCircle
 10
23.6603921577
 20
115.9537438355
 30
0.0
 40
5.000000000000062
  0
CIRCLE
  5
70
330
1F
100
AcDbEntity
  8
0
  6
Continuous
 62
     7
370
    25
100
AcDbCircle
 10
168.7846456697
 20
121.5223677222
 30
0.0
 40
3.00000000000003
  0
SPLINE
  5
71
330
1F
100
AcDbEntity
  8
0
  6
Continuous
 62
     7
370
    25
100
AcDbSpline
210
0.0
220
0.0
230
1.0
 70
     8
 71
     3
 72
    34
 73
    30
 74
     0
 42
0.00000001
 43
0.00000001
 40
0.0
 40
0.0
 40
0.0
 40
0.0
 40
0.0082689181299221
 40
0.0154777258428485
 40
0.0226235942062966
 40
0.0302461902351378
 40
0.0412685783823406
 40
0.0528301217393925
 40
0.0641633664669088
 40
0.0853026185517179
 40
0.1054254769669852
 40
0.1256740228939835
 40
0.1671822064861358
 40
0.2093300652270404
 40
0.2512469883182757
 40
0.3342613013372648
 40
0.4173415179853304
 40
0.5006658300455658
 40
0.5706282011463194
 40
0.6405156432004447
 40
0.710426520456068
 40
0.7803306285572844
 40
0.8117106438589111
 40
0.8430964381230596
 40
0.8744849200520493
 40
0.9058612543494838
 40
0.9372430728130807
 40
0.9686336644808519
 40
1.0
 40
1.0
 40
1.0
 40
1.0
 10
2.946887383615815
 20
106.6235078115284
 30
0.0
 10
3.12975370987445
 20
105.766858365853
 30
0.0
 10
3.472042122850572
 20
104.1633855710726
 30
0.0
 10
4.971746609200856
 20
102.2312538472918
 30
0.0
 10
6.945620938496266
 20
100.9886090625844
 30
0.0
 10
9.538891612951407
 20
100.1662383604821
 30
0.0
 10
12.690476370396
 20
99.7720202556712
 30
0.0
 10
16.24253536877951
 20
99.6840772001296
 30
0.0
 10
20.85460491039315
 20
99.65172268049902
 30
0.0
 10
26.36205557889237
 20
99.52683901821888
 30
0.0
 10
32.80598578913474
 20
99.4911955694506
 30
0.0
 10
41.37773759360886
 20
99.85178764241029
 30
0.0
 10
52.21390068448684
 20
100.9260227987492
 30
0.0
 10
65.2521869935237
 20
102.6532322439456
 30
0.0
 10
82.61515720663326
 20
104.8401460896646
 30
0.0
 10
104.2923883331252
 20
107.0886989165426
 30
0.0
 10
130.3856932809995
 20
108.5488657121226
 30
0.0
 10
155.1468860562795
 20
108.8863395275586
 30
0.0
 10
178.5209904695893
 20
108.4386748269962
 30
0.0
 10
200.4717039204317
 20
107.4646579225249
 30
0.0
 10
222.3969084419409
 20
106.1558363626428
 30
0.0
 10
240.2703721022181
 20
104.6319444210428
 30
0.0
 10
254.0531562613889
 20
102.8553199444827
 30
0.0
 10
263.8328620134347
 20
101.5837043610216
 30
0.0
 10
273.6315116402567
 20
100.4748595265156
 30
0.0
 10
283.4123976416785
 20
99.19921874726897
 30
0.0
 10
293.1193603694535
 20
97.45230841159689
 30
0.0
 10
302.9264050888058
 20
96.32192569811124
 30
0.0
 10
309.3359051214845
 20
94.8399539458987
 30
0.0
 10
312.5394164714936
 20
94.09925446787368
 30
0.0
  0
SPLINE
  5
72
330
1F
100
AcDbEntity
  8
0
  6
Continuous
 62
     7
370
    25
100
AcDbSpline
210
0.0
220
0.0
230
1.0
 70
     8
 71
     3
 72
    56
 73
    52
 74
     0
 42
0.00000001
 43
0.00000001
 40
0.0
 40
0.0
 40
0.0
 40
0.0
 40
0.003056542827603
 40
0.0050733295616681
 40
0.0060575699309033
 40
0.0062236427101535
 40
0.0063582112307846
 40
0.0064680748909739
 40
0.0065896101623482
 40
0.0067178320871225
 40
0.0068757942414005
 40
0.0070745216974524
 40
0.0080702832055787
 40
0.0095525497276391
 40
0.0126890054439863
 40
0.0259196524929822
 40
0.0378551884524988
 40
0.0477583292776102
 40
0.0563044983153449
 40
0.0641690141527166
 40
0.0846927215053284
 40
0.1077749044240488
 40
0.132250940001469
 40
0.156893813074358
 40
0.1810125817286761
 40
0.2046696530125829
 40
0.2279831790671615
 40
0.2510705804670422
 40
0.2970329911329292
 40
0.3433952701230115
 40
0.3902290302713397
 40
0.4372203513239591
 40
0.4841007304255087
 40
0.5308594849094831
 40
0.5776333578005381
 40
0.6244756633083919
 40
0.6619818793368817
 40
0.6995331136985516
 40
0.7371105779703431
 40
0.7746362948795529
 40
0.812095448499243
 40
0.8433043625083452
 40
0.8745414139401032
 40
0.9058222185466005
 40
0.9192133272939031
 40
0.9325887622814321
 40
0.9459734839013042
 40
0.9593257797415526
 40
0.9726265478039521
 40
0.9860474181480021
 40
1.0
 40
1.0
 40
1.0
 40
1.0
 10
312.5394164714936
 20
94.09925446787379
 30
0.0
 10
312.8813764930217
 20
94.05224531386477
 30
0.0
 10
313.4489706619827
 20
93.97421829309168
 30
0.0
 10
314.1289409508913
 20
93.93152896226029
 30
0.0
 10
314.4909350143254
 20
93.94835091017703
 30
0.0
 10
314.6287554882473
 20
93.99469168256199
 30
0.0
 10
314.66973630733
 20
94.01686919091054
 30
0.0
 10
314.7007164629154
 20
94.04504928890864
 30
0.0
 10
314.7176149314865
 20
94.08401958598175
 30
0.0
 10
314.7113357596297
 20
94.13122874295973
 30
0.0
 10
314.685853081245
 20
94.18023978615916
 30
0.0
 10
314.5890947863929
 20
94.29897516983995
 30
0.0
 10
314.338714834936
 20
94.47504377732938
 30
0.0
 10
313.7918643230871
 20
94.79093969649018
 30
0.0
 10
311.971603852079
 20
95.65995192553986
 30
0.0
 10
309.012171201829
 20
96.85384104637704
 30
0.0
 10
305.3644640451089
 20
98.38452725857636
 30
0.0
 10
302.207145957951
 20
99.71704733940342
 30
0.0
 10
299.4753264706738
 20
100.8771052025716
 30
0.0
 10
295.6366505482445
 20
102.49529960028
 30
0.0
 10
290.2486807816992
 20
104.658105719249
 30
0.0
 10
283.0669752170182
 20
107.3771486177786
 30
0.0
 10
275.4135948933525
 20
110.1601652689414
 30
0.0
 10
267.6182147295957
 20
112.8931452970316
 30
0.0
 10
259.880720848429
 20
115.5104807605369
 30
0.0
 10
252.2588926595458
 20
118.0004050049923
 30
0.0
 10
244.7245576049738
 20
120.3822921176037
 30
0.0
 10
234.765220941718
 20
123.4383618899568
 30
0.0
 10
222.2786479974149
 20
127.1182586690498
 30
0.0
 10
207.1865347151303
 20
131.4289024698306
 30
0.0
 10
191.9421214922312
 20
135.6272386575762
 30
0.0
 10
176.5864513449837
 20
139.6366578031123
 30
0.0
 10
161.1762421830906
 20
143.3986870097388
 30
0.0
 10
145.6724919110638
 20
146.6537162803644
 30
0.0
 10
130.0214925704005
 20
149.1037409171937
 30
0.0
 10
115.2835868575972
 20
150.4654241453879
 30
0.0
 10
101.5328306453509
 20
150.8645677201941
 30
0.0
 10
88.82679402357091
 20
150.4532292976239
 30
0.0
 10
76.17290936006465
 20
149.189070910073
 30
0.0
 10
63.65814997346047
 20
146.9743340402014
 30
0.0
 10
52.06708176784747
 20
143.8920297341523
 30
0.0
 10
41.45418786804023
 20
140.0689069963916
 30
0.0
 10
31.81888407668654
 20
135.6982375366667
 30
0.0
 10
24.29886281845739
 20
131.5768627404736
 30
0.0
 10
18.82614659070247
 20
127.9774301146853
 30
0.0
 10
15.20318165288676
 20
125.2544678826285
 30
0.0
 10
11.78592642640836
 20
122.2834018520715
 30
0.0
 10
8.661448796327464
 20
119.0069840980231
 30
0.0
 10
6.009887107691569
 20
115.3330945763774
 30
0.0
 10
3.921832283146243
 20
111.1993027648799
 30
0.0
 10
3.276050315051959
 20
108.1683972521742
 30
0.0
 10
2.946887383615815
 20
106.6235078115284
 30
0.0
  0
SPLINE
  5
73
330
1F
100
AcDbEntity
  8
0
  6
Continuous
 62
     7
370
    25
100
AcDbSpline
210
0.0
220
0.0
230
1.0
 70
     8
 71
     3
 72
    56
 73
    52
 74
     0
 42
0.00000001
 43
0.00000001
 40
0.0
 40
0.0
 40
0.0
 40
0.0
 40
0.0030565428276031
 40
0.0050733295616683
 40
0.0060575699309034
 40
0.0062236427101537
 40
0.0063582112307847
 40
0.006468074890974
 40
0.0065896101623483
 40
0.0067178320871224
 40
0.0068757942414005
 40
0.0070745216974524
 40
0.0080702832055787
 40
0.0095525497276391
 40
0.0126890054439863
 40
0.0259196524929822
 40
0.0378551884524988
 40
0.0477583292776102
 40
0.0563044983153449
 40
0.0641690141527166
 40
0.0846927215053285
 40
0.1077749044240488
 40
0.1322509400014689
 40
0.1568938130743581
 40
0.1810125817286759
 40
0.2046696530125829
 40
0.2279831790671614
 40
0.2510705804670422
 40
0.2970329911329292
 40
0.3433952701230115
 40
0.3902290302713396
 40
0.4372203513239591
 40
0.4841007304255087
 40
0.5308594849094832
 40
0.5776333578005381
 40
0.6244756633083921
 40
0.6619818793368818
 40
0.6995331136985516
 40
0.7371105779703432
 40
0.7746362948795529
 40
0.812095448499243
 40
0.8433043625083452
 40
0.8745414139401032
 40
0.9058222185466007
 40
0.9192133272939034
 40
0.9325887622814321
 40
0.9459734839013042
 40
0.9593257797415529
 40
0.9726265478039521
 40
0.9860474181480023
 40
1.0
 40
1.0
 40
1.0
 40
1.0
 10
314.715356823346
 20
1.746365798202115
 30
0.0
 10
315.0578149491859
 20
1.703134456209981
 30
0.0
 10
315.6262358846841
 20
1.631377946424289
 30
0.0
 10
316.3066359946653
 20
1.596197510062763
 30
0.0
 10
316.6684223006331
 20
1.617014539329414
 30
0.0
 10
316.8057228140174
 20
1.664873908754555
 30
0.0
 10
316.8464563151883
 20
1.687502459118889
 30
0.0
 10
316.8771234987539
 20
1.71602283456232
 30
0.0
 10
316.8935907387342
 20
1.755177301758809
 30
0.0
 10
316.8867908005743
 20
1.8023142654158
 30
0.0
 10
316.8607686347287
 20
1.851041015131644
 30
0.0
 10
316.7627054980941
 20
1.968701034653381
 30
0.0
 10
316.5103971555296
 20
2.141994932142927
 30
0.0
 10
315.960092742976
 20
2.451834838507722
 30
0.0
 10
314.1303500309801
 20
3.30069998942975
 30
0.0
 10
311.1579181888336
 20
4.461846745017844
 30
0.0
 10
307.4935358257861
 20
5.952172105061909
 30
0.0
 10
304.3217002367272
 20
7.249756886600872
 30
0.0
 10
301.5772411566326
 20
8.379587101567582
 30
0.0
 10
297.7209356483355
 20
9.955307182321487
 30
0.0
 10
292.3094186495631
 20
12.05850291392938
 30
0.0
 10
285.0981347701919
 20
14.69810021521115
 30
0.0
 10
277.4144986567358
 20
17.39646048309915
 30
0.0
 10
269.5894237174346
 20
20.04321961943048
 30
0.0
 10
261.8235081510916
 20
22.57498025307
 30
0.0
 10
254.1746577405632
 20
24.98061428204054
 30
0.0
 10
246.6144877710895
 20
27.27918361195944
 30
0.0
 10
236.6220215534192
 20
30.2251245676268
 30
0.0
 10
224.095586528232
 20
33.76695598060361
 30
0.0
 10
208.9568070188404
 20
37.91073303403489
 30
0.0
 10
193.6669766294292
 20
41.94052805597734
 30
0.0
 10
178.2679815782759
 20
45.78018936528824
 30
0.0
 10
162.8171818100894
 20
49.37187374566052
 30
0.0
 10
147.2784434793209
 20
52.45555646894837
 30
0.0
 10
131.6013516183008
 20
54.73265810560332
 30
0.0
 10
116.8493121102349
 20
55.93156442633237
 30
0.0
 10
103.0949875710458
 20
56.17888703467885
 30
0.0
 10
90.39426599560308
 20
55.62730984607919
 30
0.0
 10
77.75510760722543
 20
54.22354037083274
 30
0.0
 10
65.26555959580205
 20
51.87078615976057
 30
0.0
 10
53.70922368796494
 20
48.66071414070902
 30
0.0
 10
43.13918048756049
 20
44.72066704224295
 30
0.0
 10
33.55271227765122
 20
40.24389834839167
 30
0.0
 10
26.07864570889329
 20
36.03976004658879
 30
0.0
 10
20.64599762430142
 20
32.38013261663028
 30
0.0
 10
17.05331263108634
 20
29.61734185412654
 30
0.0
 10
13.66906366942011
 20
26.60873327102956
 30
0.0
 10
10.58094528740094
 20
23.29802358599905
 30
0.0
 10
7.970101780543026
 20
19.59508694211784
 30
0.0
 10
5.927807731323398
 20
15.43849666791094
 30
0.0
 10
5.315523730092364
 20
12.40064695485696
 30
0.0
 10
5.003435120199073
 20
10.85221797074901
 30
0.0
  0
SPLINE
  5
74
330
1F
100
AcDbEntity
  8
0
  6
Continuous
 62
     7
370
    25
100
AcDbSpline
210
0.0
220
0.0
230
1.0
 70
     8
 71
     3
 72
    34
 73
    30
 74
     0
 42
0.00000001
 43
0.00000001
 40
0.0
 40
0.0
 40
0.0
 40
0.0
 40
0.0082689181299223
 40
0.0154777258428487
 40
0.0226235942062968
 40
0.0302461902351379
 40
0.0412685783823406
 40
0.0528301217393927
 40
0.0641633664669089
 40
0.085302618551718
 40
0.1054254769669853
 40
0.1256740228939836
 40
0.1671822064861359
 40
0.2093300652270405
 40
0.251246988318276
 40
0.3342613013372649
 40
0.4173415179853306
 40
0.5006658300455659
 40
0.5706282011463196
 40
0.6405156432004449
 40
0.7104265204560681
 40
0.7803306285572846
 40
0.8117106438589113
 40
0.8430964381230598
 40
0.8744849200520494
 40
0.905861254349484
 40
0.9372430728130808
 40
0.9686336644808521
 40
1.0
 40
1.0
 40
1.0
 40
1.0
 10
5.003435120199073
 20
10.85221797074901
 30
0.0
 10
5.195746984603788
 20
9.997639412122034
 30
0.0
 10
5.555715515772497
 20
8.398042894925933
 30
0.0
 10
7.076657710035295
 20
6.482584363364769
 30
0.0
 10
9.064129505542141
 20
5.26180518969091
 30
0.0
 10
11.66632043619242
 20
4.468112098434646
 30
0.0
 10
14.82206498966016
 20
4.108708828033131
 30
0.0
 10
18.37487836599194
 20
4.059982839339754
 30
0.0
 10
22.98702404552977
 20
4.078543613591362
 30
0.0
 10
28.4955177364451
 20
4.014465128879458
 30
0.0
 10
34.93944877034655
 20
4.049959357087046
 30
0.0
 10
43.50669764044734
 20
4.505154302515385
 30
0.0
 10
54.33034180672858
 20
5.698946020088941
 30
0.0
 10
67.34876672821677
 20
7.569981804773001
 30
0.0
 10
84.68653729135778
 20
9.948434808262158
 30
0.0
 10
106.3376254440053
 20
12.43614880567065
 30
0.0
 10
132.4132214430495
 20
14.18427450718898
 30
0.0
 10
157.1691800144164
 20
14.79507025327911
 30
0.0
 10
180.5468020046168
 20
14.60546304945412
 30
0.0
 10
202.506930244556
 20
13.87382268929502
 30
0.0
 10
224.4452470679484
 20
12.80711647759561
 30
0.0
 10
242.334444109859
 20
11.48062521843915
 30
0.0
 10
256.1360008611893
 20
9.85625920401681
 30
0.0
 10
265.9291482576472
 20
8.692680732253184
 30
0.0
 10
275.7394415240343
 20
7.692072215546047
 30
0.0
 10
285.5338135326872
 20
6.524481822214129
 30
0.0
 10
295.2594691868858
 20
4.884834538421617
 30
0.0
 10
305.0783947941162
 20
3.862782129785053
 30
0.0
 10
311.5038639818996
 20
2.451656104190985
 30
0.0
 10
314.715356823346
 20
1.746365798202115
 30
0.0
  0
CIRCLE
  5
75
330
1F
100
AcDbEntity
  8
0
  6
Continuous
 62
     7
370
    25
100
AcDbCircle
 10
251.6608041518
 20
17.8303815714
 30
0.0
 40
1.984375000000027
  0
CIRCLE
  5
76
330
1F
100
AcDbEntity
  8
0
  6
Continuous
 62
     7
370
    25
100
AcDbCircle
 10
232.7608605544
 20
23.2141449406
 30
0.0
 40
5.000000000000046
  0
CIRCLE
  5
77
330
1F
100
AcDbEntity
  8
0
  6
Continuous
 62
     7
370
    25
100
AcDbCircle
 10
25.6126798882
 20
20.4105449365
 30
0.0
 40
5.000000000000032
  0
CIRCLE
  5
78
330
1F
100
AcDbEntity
  8
0
  6
Continuous
 62
     7
370
    25
100
AcDbCircle
 10
170.6666176379
 20
27.5808777526
 30
0.0
 40
2.999999999999948
  0
CIRCLE
  5
79
330
1F
100
AcDbEntity
  8
0
  6
Continuous
 62
     7
370
    25
100
AcDbCircle
 10
249.7001707653
 20
63.7883689506
 30
0.0
 40
1.984375000000064
  0
CIRCLE
  5
7A
330
1F
100
AcDbEntity
  8
0
  6
Continuous
 62
     7
370
    25
100
AcDbCircle
 10
230.84186332
 20
69.3162090622
 30
0.0
 40
5.000000000000033
  0
CIRCLE
  5
7B
330
1F
100
AcDbEntity
  8
0
  6
Continuous
 62
     7
370
    25
100
AcDbCircle
 10
23.6783192925
 20
68.0935266579
 30
0.0
 40
5.000000000000026
  0
CIRCLE
  5
7C
330
1F
100
AcDbEntity
  8
0
  6
Continuous
 62
     7
370
    25
100
AcDbCircle
 10
168.7827529698
 20
74.1566823202
 30
0.0
 40
3.000000000000022
  0
SPLINE
  5
7D
330
1F
100
AcDbEntity
  8
0
  6
Continuous
 62
     7
370
    25
100
AcDbSpline
210
0.0
220
0.0
230
1.0
 70
     8
 71
     3
 72
    56
 73
    52
 74
     0
 42
0.00000001
 43
0.00000001
 40
0.0
 40
0.0
 40
0.0
 40
0.0
 40
0.0030565428276031
 40
0.0050733295616684
 40
0.0060575699309035
 40
0.0062236427101538
 40
0.006358211230785
 40
0.0064680748909742
 40
0.0065896101623486
 40
0.0067178320871227
 40
0.0068757942414007
 40
0.0070745216974526
 40
0.0080702832055789
 40
0.0095525497276393
 40
0.0126890054439866
 40
0.0259196524929824
 40
0.0378551884524989
 40
0.0477583292776105
 40
0.0563044983153451
 40
0.0641690141527167
 40
0.0846927215053285
 40
0.1077749044240489
 40
0.1322509400014692
 40
0.1568938130743582
 40
0.181012581728676
 40
0.204669653012583
 40
0.2279831790671615
 40
0.2510705804670422
 40
0.2970329911329294
 40
0.3433952701230116
 40
0.3902290302713397
 40
0.4372203513239592
 40
0.4841007304255087
 40
0.5308594849094832
 40
0.5776333578005383
 40
0.624475663308392
 40
0.6619818793368818
 40
0.6995331136985518
 40
0.7371105779703432
 40
0.7746362948795531
 40
0.8120954484992432
 40
0.8433043625083454
 40
0.8745414139401034
 40
0.9058222185466007
 40
0.9192133272939035
 40
0.9325887622814323
 40
0.9459734839013044
 40
0.9593257797415529
 40
0.9726265478039523
 40
0.9860474181480021
 40
1.0
 40
1.0
 40
1.0
 40
1.0
 10
312.6301433317078
 20
47.22362540314792
 30
0.0
 10
312.972261568475
 20
47.1777818762826
 30
0.0
 10
313.5401183472193
 20
47.10168959386571
 30
0.0
 10
314.2202301672292
 20
47.06131775903052
 30
0.0
 10
314.582164801682
 20
47.0793732367801
 30
0.0
 10
314.7198265521335
 20
47.12618341387873
 30
0.0
 10
314.7607315552568
 20
47.14850045061544
 30
0.0
 10
314.791615496929
 20
47.17678596121863
 30
0.0
 10
314.8083810617964
 20
47.21581361972735
 30
0.0
 10
314.8019410438873
 20
47.26300110399092
 30
0.0
 10
314.7762914903731
 20
47.31192502102219
 30
0.0
 10
314.6791291230156
 20
47.43032997585924
 30
0.0
 10
314.4281506071192
 20
47.60554429945493
 30
0.0
 10
313.8802267395337
 20
47.91957479062189
 30
0.0
 10
312.0570153605642
 20
48.78237876844513
 30
0.0
 10
309.0935312801489
 20
49.96617560462288
 30
0.0
 10
305.4406289303387
 20
51.48442202867762
 30
0.0
 10
302.2787881262631
 20
52.80617465265266
 30
0.0
 10
299.5430311795344
 20
53.95691610293171
 30
0.0
 10
295.6988629566998
 20
55.5620194082562
 30
0.0
 10
290.303553922029
 20
57.70645148548656
 30
0.0
 10
283.1126239242774
 20
60.40100429982351
 30
0.0
 10
275.4498038924382
 20
63.15792309060517
 30
0.0
 10
267.6451553632133
 20
65.86432163233977
 30
0.0
 10
259.898786881706
 20
68.45527354974854
 30
0.0
 10
252.2685176212864
 20
70.91920916121983
 30
0.0
 10
244.7261091632675
 20
73.27540643313543
 30
0.0
 10
234.7564156534129
 20
76.29751836771435
 30
0.0
 10
222.2573746183679
 20
79.9348412022238
 30
0.0
 10
207.1506588734053
 20
84.1940280616392
 30
0.0
 10
191.8920268015777
 20
88.34038894227066
 30
0.0
 10
176.5227822555457
 20
92.2974547289269
 30
0.0
 10
161.0998420835005
 20
96.00694615152402
 30
0.0
 10
145.5850891326965
 20
99.20912180652994
 30
0.0
 10
129.9258313167886
 20
101.6057956970383
 30
0.0
 10
115.1833707490422
 20
102.9172462000576
 30
0.0
 10
101.4313341565143
 20
103.2695267128741
 30
0.0
 10
88.7267731025932
 20
102.8148901997235
 30
0.0
 10
76.07727000087306
 20
101.5076164006643
 30
0.0
 10
63.5701308129421
 20
99.25024375949762
 30
0.0
 10
51.98963399649637
 20
96.12845653635935
 30
0.0
 10
41.38983041626587
 20
92.26918867093667
 30
0.0
 10
31.76947723406642
 20
87.86570875982189
 30
0.0
 10
24.26354473899706
 20
83.71873066554988
 30
0.0
 10
18.80312667677858
 20
80.10066865351581
 30
0.0
 10
15.18946226910184
 20
77.36537565156185
 30
0.0
 10
11.78235188292243
 20
74.38268132307066
 30
0.0
 10
8.669057991012474
 20
71.09563479122558
 30
0.0
 10
6.030031825224214
 20
67.41273043431038
 30
0.0
 10
3.956076537058539
 20
63.27184681438078
 30
0.0
 10
3.320627240866014
 20
60.23875816265409
 30
0.0
 10
2.996730998096941
 20
58.69275594946985
 30
0.0
  0
SPLINE
  5
7E
330
1F
100
AcDbEntity
  8
0
  6
Continuous
 62
     7
370
    25
100
AcDbSpline
210
0.0
220
0.0
230
1.0
 70
     8
 71
     3
 72
    34
 73
    30
 74
     0
 42
0.00000001
 43
0.00000001
 40
0.0
 40
0.0
 40
0.0
 40
0.0
 40
0.0082689181299222
 40
0.0154777258428487
 40
0.0226235942062967
 40
0.0302461902351378
 40
0.0412685783823406
 40
0.0528301217393925
 40
0.0641633664669088
 40
0.0853026185517179
 40
0.1054254769669852
 40
0.1256740228939836
 40
0.1671822064861359
 40
0.2093300652270405
 40
0.2512469883182759
 40
0.334261301337265
 40
0.4173415179853306
 40
0.5006658300455659
 40
0.5706282011463196
 40
0.640515643200445
 40
0.7104265204560684
 40
0.780330628557285
 40
0.8117106438589112
 40
0.8430964381230598
 40
0.8744849200520496
 40
0.905861254349484
 40
0.937243072813081
 40
0.968633664480852
 40
0.9999999999999999
 40
0.9999999999999999
 40
0.9999999999999999
 40
0.9999999999999999
 10
2.996730998096941
 20
58.69275594946985
 30
0.0
 10
3.182515609610914
 20
57.83673466224612
 30
0.0
 10
3.53026645653598
 20
56.23443765178879
 30
0.0
 10
5.036546681778886
 20
54.30742794048435
 30
0.0
 10
7.014644316977736
 20
53.07151707216403
 30
0.0
 10
9.610702462576503
 20
52.257988666184
 30
0.0
 10
12.763612362169
 20
51.87451303127552
 30
0.0
 10
16.31595043268635
 20
51.79867542999059
 30
0.0
 10
20.92810345284968
 20
51.78203841646198
 30
0.0
 10
26.43594772758862
 20
51.67592413711039
 30
0.0
 10
32.87996198737414
 20
51.66224095052027
 30
0.0
 10
41.45043516772717
 20
52.05204231716207
 30
0.0
 10
52.28287448501079
 20
53.1631994350302
 30
0.0
 10
65.31519898383875
 20
54.93483159246135
 30
0.0
 10
82.6706156628682
 20
57.18090342728551
 30
0.0
 10
104.3400581458216
 20
59.50331631146186
 30
0.0
 10
130.4282355214294
 20
61.05239713327234
 30
0.0
 10
155.18813444777
 20
61.47425183346741
 30
0.0
 10
178.5636287140843
 20
61.10624556455932
 30
0.0
 10
200.5175340214199
 20
60.2070394214935
 30
0.0
 10
222.447071517185
 20
58.97294363612824
 30
0.0
 10
240.3256246105375
 20
57.50997092514229
 30
0.0
 10
254.1143832353104
 20
55.78032665629426
 30
0.0
 10
263.8983656950203
 20
54.54204639044733
 30
0.0
 10
273.7007372184876
 20
53.46660048657878
 30
0.0
 10
283.4859136380508
 20
52.22429907045253
 30
0.0
 10
293.1987732370542
 20
50.5104789138032
 30
0.0
 10
303.009613202524
 20
49.41352386537765
 30
0.0
 10
309.4241263787425
 20
47.95340344041885
 30
0.0
 10
312.6301433317078
 20
47.22362540314792
 30
0.0
  0
SPLINE
  5
7F
330
1F
100
AcDbEntity
  8
0
  6
Continuous
 62
     7
370
    25
100
AcDbSpline
210
0.0
220
0.0
230
1.0
 70
     8
 71
     3
 72
    34
 73
    30
 74
     0
 42
0.00000001
 43
0.00000001
 40
0.0
 40
0.0
 40
0.0
 40
0.0
 40
0.0082689181299223
 40
0.0154777258428486
 40
0.0226235942062967
 40
0.0302461902351379
 40
0.0412685783823407
 40
0.0528301217393926
 40
0.0641633664669088
 40
0.085302618551718
 40
0.1054254769669853
 40
0.1256740228939836
 40
0.1671822064861359
 40
0.2093300652270405
 40
0.2512469883182759
 40
0.3342613013372649
 40
0.4173415179853305
 40
0.500665830045566
 40
0.5706282011463198
 40
0.6405156432004449
 40
0.710426520456068
 40
0.7803306285572846
 40
0.8117106438589111
 40
0.8430964381230599
 40
0.8744849200520496
 40
0.9058612543494842
 40
0.9372430728130808
 40
0.9686336644808523
 40
1.0
 40
1.0
 40
1.0
 40
1.0
 10
493.0034351201994
 20
10.85221797074906
 30
0.0
 10
493.1957469846041
 20
9.997639412122256
 30
0.0
 10
493.5557155157728
 20
8.398042894926045
 30
0.0
 10
495.0766577100355
 20
6.482584363364824
 30
0.0
 10
497.0641295055424
 20
5.26180518969091
 30
0.0
 10
499.6663204361927
 20
4.468112098434868
 30
0.0
 10
502.8220649896604
 20
4.108708828033075
 30
0.0
 10
506.3748783659923
 20
4.05998283933981
 30
0.0
 10
510.9870240455301
 20
4.078543613591417
 30
0.0
 10
516.4955177364454
 20
4.014465128879513
 30
0.0
 10
522.9394487703469
 20
4.049959357087157
 30
0.0
 10
531.5066976404474
 20
4.505154302515496
 30
0.0
 10
542.3303418067289
 20
5.698946020089052
 30
0.0
 10
555.3487667282171
 20
7.569981804773112
 30
0.0
 10
572.6865372913581
 20
9.948434808262158
 30
0.0
 10
594.3376254440055
 20
12.43614880567087
 30
0.0
 10
620.4132214430498
 20
14.18427450718898
 30
0.0
 10
645.1691800144168
 20
14.79507025327928
 30
0.0
 10
668.546802004617
 20
14.60546304945418
 30
0.0
 10
690.5069302445562
 20
13.87382268929485
 30
0.0
 10
712.4452470679488
 20
12.80711647759578
 30
0.0
 10
730.3344441098592
 20
11.48062521843915
 30
0.0
 10
744.1360008611896
 20
9.85625920401681
 30
0.0
 10
753.9291482576474
 20
8.692680732253239
 30
0.0
 10
763.7394415240348
 20
7.692072215546214
 30
0.0
 10
773.5338135326875
 20
6.524481822214073
 30
0.0
 10
783.259469186886
 20
4.884834538421728
 30
0.0
 10
793.0783947941164
 20
3.862782129785108
 30
0.0
 10
799.5038639818998
 20
2.451656104191096
 30
0.0
 10
802.7153568233463
 20
1.746365798202171
 30
0.0
  0
CIRCLE
  5
80
330
1F
100
AcDbEntity
  8
0
  6
Continuous
 62
     7
370
    25
100
AcDbCircle
 10
739.6608041518
 20
17.8303815714
 30
0.0
 40
1.984374999999942
  0
CIRCLE
  5
81
330
1F
100
AcDbEntity
  8
0
  6
Continuous
 62
     7
370
    25
100
AcDbCircle
 10
720.7608605544
 20
23.2141449406
 30
0.0
 40
4.999999999999989
  0
CIRCLE
  5
82
330
1F
100
AcDbEntity
  8
0
  6
Continuous
 62
     7
370
    25
100
AcDbCircle
 10
513.6126798882
 20
20.4105449365
 30
0.0
 40
5.000000000000103
  0
CIRCLE
  5
83
330
1F
100
AcDbEntity
  8
0
  6
Continuous
 62
     7
370
    25
100
AcDbCircle
 10
658.6666176379
 20
27.5808777526
 30
0.0
 40
3.000000000000062
  0
SPLINE
  5
84
330
1F
100
AcDbEntity
  8
0
  6
Continuous
 62
     7
370
    25
100
AcDbSpline
210
0.0
220
0.0
230
1.0
 70
     8
 71
     3
 72
    56
 73
    52
 74
     0
 42
0.00000001
 43
0.00000001
 40
0.0
 40
0.0
 40
0.0
 40
0.0
 40
0.0030565428276033
 40
0.0050733295616682
 40
0.0060575699309034
 40
0.0062236427101537
 40
0.0063582112307846
 40
0.0064680748909739
 40
0.0065896101623482
 40
0.0067178320871222
 40
0.0068757942414004
 40
0.0070745216974523
 40
0.0080702832055788
 40
0.009552549727639
 40
0.0126890054439861
 40
0.025919652492982
 40
0.0378551884524987
 40
0.0477583292776099
 40
0.0563044983153446
 40
0.0641690141527165
 40
0.0846927215053285
 40
0.1077749044240487
 40
0.1322509400014686
 40
0.1568938130743582
 40
0.1810125817286757
 40
0.2046696530125829
 40
0.2279831790671613
 40
0.2510705804670421
 40
0.2970329911329292
 40
0.3433952701230113
 40
0.3902290302713396
 40
0.437220351323959
 40
0.4841007304255088
 40
0.5308594849094832
 40
0.5776333578005381
 40
0.624475663308392
 40
0.6619818793368818
 40
0.6995331136985516
 40
0.7371105779703432
 40
0.7746362948795528
 40
0.812095448499243
 40
0.8433043625083451
 40
0.874541413940103
 40
0.9058222185466005
 40
0.9192133272939033
 40
0.9325887622814322
 40
0.9459734839013042
 40
0.9593257797415528
 40
0.9726265478039522
 40
0.9860474181480022
 40
1.0
 40
1.0
 40
1.0
 40
1.0
 10
802.7153568233463
 20
1.746365798202171
 30
0.0
 10
803.0578149491862
 20
1.703134456210259
 30
0.0
 10
803.6262358846845
 20
1.631377946424789
 30
0.0
 10
804.3066359946654
 20
1.596197510062208
 30
0.0
 10
804.6684223006337
 20
1.617014539330081
 30
0.0
 10
804.8057228140175
 20
1.664873908754444
 30
0.0
 10
804.8464563151884
 20
1.687502459118889
 30
0.0
 10
804.877123498754
 20
1.716022834562431
 30
0.0
 10
804.8935907387346
 20
1.755177301759031
 30
0.0
 10
804.8867908005744
 20
1.8023142654158
 30
0.0
 10
804.8607686347291
 20
1.851041015131921
 30
0.0
 10
804.7627054980942
 20
1.968701034653103
 30
0.0
 10
804.51039715553
 20
2.141994932143038
 30
0.0
 10
803.9600927429764
 20
2.451834838507944
 30
0.0
 10
802.1303500309804
 20
3.300699989429584
 30
0.0
 10
799.1579181888342
 20
4.461846745018177
 30
0.0
 10
795.4935358257864
 20
5.952172105061909
 30
0.0
 10
792.3217002367273
 20
7.249756886600761
 30
0.0
 10
789.5772411566331
 20
8.379587101567749
 30
0.0
 10
785.7209356483353
 20
9.955307182321155
 30
0.0
 10
780.3094186495634
 20
12.0585029139296
 30
0.0
 10
773.0981347701921
 20
14.69810021521126
 30
0.0
 10
765.4144986567361
 20
17.39646048309909
 30
0.0
 10
757.589423717435
 20
20.0432196194307
 30
0.0
 10
749.8235081510918
 20
22.57498025307
 30
0.0
 10
742.1746577405635
 20
24.98061428204054
 30
0.0
 10
734.6144877710899
 20
27.27918361195972
 30
0.0
 10
724.6220215534192
 20
30.22512456762669
 30
0.0
 10
712.0955865282326
 20
33.76695598060406
 30
0.0
 10
696.9568070188405
 20
37.91073303403456
 30
0.0
 10
681.6669766294294
 20
41.94052805597745
 30
0.0
 10
666.267981578276
 20
45.78018936528813
 30
0.0
 10
650.81718181009
 20
49.37187374566107
 30
0.0
 10
635.2784434793209
 20
52.45555646894837
 30
0.0
 10
619.6013516183014
 20
54.73265810560332
 30
0.0
 10
604.849312110235
 20
55.93156442633237
 30
0.0
 10
591.0949875710462
 20
56.17888703467874
 30
0.0
 10
578.3942659956032
 20
55.62730984607908
 30
0.0
 10
565.7551076072256
 20
54.22354037083285
 30
0.0
 10
553.2655595958024
 20
51.87078615976057
 30
0.0
 10
541.7092236879652
 20
48.66071414070925
 30
0.0
 10
531.139180487561
 20
44.72066704224295
 30
0.0
 10
521.5527122776513
 20
40.24389834839179
 30
0.0
 10
514.0786457088934
 20
36.03976004658879
 30
0.0
 10
508.6459976243016
 20
32.3801326166305
 30
0.0
 10
505.0533126310866
 20
29.61734185412654
 30
0.0
 10
501.6690636694203
 20
26.6087332710295
 30
0.0
 10
498.5809452874013
 20
23.29802358599922
 30
0.0
 10
495.9701017805433
 20
19.59508694211773
 30
0.0
 10
493.9278077313236
 20
15.43849666791094
 30
0.0
 10
493.3155237300927
 20
12.40064695485696
 30
0.0
 10
493.0034351201994
 20
10.85221797074906
 30
0.0
  0
SPLINE
  5
85
330
1F
100
AcDbEntity
  8
0
  6
Continuous
 62
     7
370
    25
100
AcDbSpline
210
0.0
220
0.0
230
1.0
 70
     8
 71
     3
 72
    56
 73
    52
 74
     0
 42
0.00000001
 43
0.00000001
 40
0.0
 40
0.0
 40
0.0
 40
0.0
 40
0.003056542827603
 40
0.0050733295616681
 40
0.0060575699309033
 40
0.0062236427101537
 40
0.0063582112307849
 40
0.0064680748909739
 40
0.0065896101623482
 40
0.0067178320871222
 40
0.0068757942414004
 40
0.0070745216974522
 40
0.0080702832055786
 40
0.0095525497276391
 40
0.0126890054439864
 40
0.025919652492982
 40
0.0378551884524986
 40
0.0477583292776101
 40
0.0563044983153449
 40
0.0641690141527167
 40
0.0846927215053281
 40
0.1077749044240487
 40
0.1322509400014688
 40
0.156893813074358
 40
0.1810125817286757
 40
0.2046696530125826
 40
0.2279831790671612
 40
0.2510705804670417
 40
0.2970329911329288
 40
0.3433952701230113
 40
0.3902290302713396
 40
0.437220351323959
 40
0.4841007304255084
 40
0.5308594849094831
 40
0.5776333578005379
 40
0.6244756633083918
 40
0.6619818793368815
 40
0.6995331136985515
 40
0.7371105779703431
 40
0.7746362948795528
 40
0.8120954484992431
 40
0.8433043625083453
 40
0.8745414139401033
 40
0.9058222185466008
 40
0.9192133272939035
 40
0.9325887622814322
 40
0.9459734839013042
 40
0.9593257797415528
 40
0.9726265478039521
 40
0.9860474181480019
 40
1.0
 40
1.0
 40
1.0
 40
1.0
 10
664.9888328783553
 20
101.7659831054431
 30
0.0
 10
664.6458356020103
 20
101.8047050024028
 30
0.0
 10
664.0765197704317
 20
101.8689766176263
 30
0.0
 10
663.3957156863055
 20
101.8952020213624
 30
0.0
 10
663.0342345837737
 20
101.8696267910327
 30
0.0
 10
662.8975756377639
 20
101.8199651086948
 30
0.0
 10
662.8571433849526
 20
101.796802588498
 30
0.0
 10
662.826854096868
 20
101.7678811951948
 30
0.0
 10
662.8109034354444
 20
101.7285134584787
 30
0.0
 10
662.8183229635139
 20
101.6814700412452
 30
0.0
 10
662.8449839721927
 20
101.6330898813715
 30
0.0
 10
662.9445866673672
 20
101.5167302574703
 30
0.0
 10
663.1991531894998
 20
101.3467709669204
 30
0.0
 10
663.7534865166364
 20
101.0441982046345
 30
0.0
 10
665.5942393257535
 20
100.21948035453
 30
0.0
 10
668.5816910302315
 20
99.09754222895026
 30
0.0
 10
672.2653643480301
 20
97.65555794708622
 30
0.0
 10
675.4539976475044
 20
96.39981714947452
 30
0.0
 10
678.2130842923877
 20
95.30619342853994
 30
0.0
 10
682.0897876770003
 20
93.78134693989013
 30
0.0
 10
687.5285079073195
 20
91.74953229042701
 30
0.0
 10
694.7738966434778
 20
89.20504193600185
 30
0.0
 10
702.4923698698115
 20
86.60800841413638
 30
0.0
 10
710.3515907662569
 20
84.06443246042247
 30
0.0
 10
718.1501443812684
 20
81.63506669886986
 30
0.0
 10
725.829983532267
 20
79.330276404988
 30
0.0
 10
733.4197412735981
 20
77.13137477924845
 30
0.0
 10
743.4501021659657
 20
74.31715915239675
 30
0.0
 10
756.0220526333286
 20
70.94044393722629
 30
0.0
 10
771.2140412361788
 20
66.99620565925731
 30
0.0
 10
786.555567989195
 20
63.16792691518467
 30
0.0
 10
802.003748376059
 20
59.53120170002688
 30
0.0
 10
817.5004663768545
 20
56.14311354169352
 30
0.0
 10
833.0784315781959
 20
53.2641400725937
 30
0.0
 10
848.7841261905731
 20
51.19349818533578
 30
0.0
 10
863.5506627615632
 20
50.1887874254445
 30
0.0
 10
877.3070507866909
 20
50.12245113029798
 30
0.0
 10
889.9994159625866
 20
50.84108328489131
 30
0.0
 10
902.6190110321664
 20
52.41102397993777
 30
0.0
 10
915.0765229335548
 20
54.92789885448799
 30
0.0
 10
926.5896238226561
 20
58.28973910941146
 30
0.0
 10
937.1069131314987
 20
62.3685146598277
 30
0.0
 10
946.6336509674444
 20
66.97102450587819
 30
0.0
 10
954.0517569873963
 20
71.27313480335614
 30
0.0
 10
959.4357853210985
 20
75.00392252701634
 30
0.0
 10
962.9918094555786
 20
77.81374291502127
 30
0.0
 10
966.336181388171
 20
80.86661746490229
 30
0.0
 10
969.3804736452034
 20
84.21767079388562
 30
0.0
 10
971.9423718293159
 20
87.95463765220055
 30
0.0
 10
973.9298010710241
 20
92.13773849969584
 30
0.0
 10
974.5020632504109
 20
95.18338105510301
 30
0.0
 10
974.7937522504507
 20
96.73578214583509
 30
0.0
  0
SPLINE
  5
86
330
1F
100
AcDbEntity
  8
0
  6
Continuous
 62
     7
370
    25
100
AcDbSpline
210
0.0
220
0.0
230
1.0
 70
     8
 71
     3
 72
    34
 73
    30
 74
     0
 42
0.00000001
 43
0.00000001
 40
0.0
 40
0.0
 40
0.0
 40
0.0
 40
0.008268918129922
 40
0.0154777258428484
 40
0.0226235942062967
 40
0.0302461902351379
 40
0.0412685783823404
 40
0.0528301217393924
 40
0.0641633664669087
 40
0.0853026185517179
 40
0.1054254769669851
 40
0.1256740228939833
 40
0.1671822064861356
 40
0.2093300652270405
 40
0.2512469883182757
 40
0.3342613013372647
 40
0.4173415179853304
 40
0.5006658300455659
 40
0.5706282011463196
 40
0.6405156432004449
 40
0.710426520456068
 40
0.7803306285572847
 40
0.8117106438589111
 40
0.8430964381230596
 40
0.8744849200520493
 40
0.9058612543494835
 40
0.937243072813081
 40
0.968633664480852
 40
0.9999999999999999
 40
0.9999999999999999
 40
0.9999999999999999
 40
0.9999999999999999
 10
974.7937522504508
 20
96.7357821458352
 30
0.0
 10
974.5902133878734
 20
97.58775649842819
 30
0.0
 10
974.2092302091996
 20
99.18247847382874
 30
0.0
 10
972.6632180776053
 20
101.077760255882
 30
0.0
 10
970.6598565847029
 20
102.2722847041735
 30
0.0
 10
968.0474483130502
 20
103.0316722105686
 30
0.0
 10
964.8872482599088
 20
103.3495244115079
 30
0.0
 10
961.3341013169686
 20
103.3515020087546
 30
0.0
 10
956.722599051081
 20
103.2722610891964
 30
0.0
 10
951.2137390781658
 20
103.2638590732239
 30
0.0
 10
944.7708328031287
 20
103.1435854643334
 30
0.0
 10
936.2103144582475
 20
102.5757110877798
 30
0.0
 10
925.4033138004316
 20
101.2396165981606
 30
0.0
 10
912.4106328232946
 20
99.19746004923476
 30
0.0
 10
895.1056561323132
 20
96.59110080413188
 30
0.0
 10
873.4891727379006
 20
93.81873993554143
 30
0.0
 10
847.4388337430829
 20
91.72769033575642
 30
0.0
 10
822.6930541640698
 20
90.79123464669378
 30
0.0
 10
799.3149610039983
 20
90.67324732761037
 30
0.0
 10
777.3471074000952
 20
91.11589613723656
 30
0.0
 10
755.3966548814914
 20
91.89386876795244
 30
0.0
 10
737.4915536894448
 20
92.98487801057418
 30
0.0
 10
723.6698198546277
 20
94.42751708826455
 30
0.0
 10
713.8622109781946
 20
95.46214693299856
 30
0.0
 10
704.0396019028225
 20
96.3335953414773
 30
0.0
 10
694.2307157355569
 20
97.37222064836624
 30
0.0
 10
684.4843291478695
 20
98.88376608355662
 30
0.0
 10
674.6528063427091
 20
99.77654295261726
 30
0.0
 10
668.2093272111715
 20
101.1030072848569
 30
0.0
 10
664.9888328783553
 20
101.7659831054431
 30
0.0
  0
CIRCLE
  5
87
330
1F
100
AcDbEntity
  8
0
  6
Continuous
 62
     7
370
    25
100
AcDbCircle
 10
728.249544305
 20
86.5129648535
 30
0.0
 40
1.984374999999931
  0
CIRCLE
  5
88
330
1F
100
AcDbEntity
  8
0
  6
Continuous
 62
     7
370
    25
100
AcDbCircle
 10
747.2186858762
 20
81.3783330215
 30
0.0
 40
5.000000000000052
  0
CIRCLE
  5
89
330
1F
100
AcDbEntity
  8
0
  6
Continuous
 62
     7
370
    25
100
AcDbCircle
 10
954.3120497359
 20
86.9071277926
 30
0.0
 40
5.000000000000052
  0
CIRCLE
  5
8A
330
1F
100
AcDbEntity
  8
0
  6
Continuous
 62
     7
370
    25
100
AcDbCircle
 10
809.3650070091
 20
77.8289487818
 30
0.0
 40
2.999999999999894
  0
CIRCLE
  5
8B
330
1F
100
AcDbEntity
  8
0
  6
Continuous
 62
     7
370
    25
100
AcDbCircle
 10
728.249544305
 20
38.5129648535
 30
0.0
 40
1.984374999999931
  0
CIRCLE
  5
8C
330
1F
100
AcDbEntity
  8
0
  6
Continuous
 62
     7
370
    25
100
AcDbCircle
 10
747.2186858762
 20
33.3783330215
 30
0.0
 40
5.000000000000052
  0
CIRCLE
  5
8D
330
1F
100
AcDbEntity
  8
0
  6
Continuous
 62
     7
370
    25
100
AcDbCircle
 10
954.3120497359
 20
38.9071277926
 30
0.0
 40
5.000000000000052
  0
CIRCLE
  5
8E
330
1F
100
AcDbEntity
  8
0
  6
Continuous
 62
     7
370
    25
100
AcDbCircle
 10
809.3650070091
 20
29.8289487818
 30
0.0
 40
2.999999999999894
  0
SPLINE
  5
8F
330
1F
100
AcDbEntity
  8
0
  6
Continuous
 62
     7
370
    25
100
AcDbSpline
210
0.0
220
0.0
230
1.0
 70
     8
 71
     3
 72
    56
 73
    52
 74
     0
 42
0.00000001
 43
0.00000001
 40
0.0
 40
0.0
 40
0.0
 40
0.0
 40
0.003056542827603
 40
0.0050733295616681
 40
0.0060575699309033
 40
0.0062236427101537
 40
0.0063582112307849
 40
0.0064680748909739
 40
0.0065896101623482
 40
0.0067178320871222
 40
0.0068757942414004
 40
0.0070745216974522
 40
0.0080702832055786
 40
0.0095525497276391
 40
0.0126890054439864
 40
0.025919652492982
 40
0.0378551884524986
 40
0.0477583292776101
 40
0.0563044983153449
 40
0.0641690141527167
 40
0.0846927215053281
 40
0.1077749044240486
 40
0.1322509400014688
 40
0.1568938130743579
 40
0.1810125817286757
 40
0.2046696530125826
 40
0.2279831790671611
 40
0.2510705804670417
 40
0.2970329911329287
 40
0.3433952701230112
 40
0.3902290302713395
 40
0.437220351323959
 40
0.4841007304255083
 40
0.530859484909483
 40
0.5776333578005378
 40
0.6244756633083917
 40
0.6619818793368814
 40
0.6995331136985514
 40
0.737110577970343
 40
0.7746362948795527
 40
0.812095448499243
 40
0.8433043625083452
 40
0.8745414139401032
 40
0.9058222185466007
 40
0.9192133272939033
 40
0.9325887622814323
 40
0.9459734839013042
 40
0.9593257797415529
 40
0.9726265478039521
 40
0.9860474181480019
 40
1.0
 40
1.0
 40
1.0
 40
1.0
 10
664.9888328783553
 20
53.76598310544309
 30
0.0
 10
664.6458356020105
 20
53.80470500240283
 30
0.0
 10
664.076519770432
 20
53.86897661762632
 30
0.0
 10
663.3957156863048
 20
53.89520202136186
 30
0.0
 10
663.034234583774
 20
53.86962679103299
 30
0.0
 10
662.8975756377638
 20
53.81996510869466
 30
0.0
 10
662.8571433849527
 20
53.79680258849792
 30
0.0
 10
662.826854096868
 20
53.7678811951949
 30
0.0
 10
662.8109034354443
 20
53.7285134584787
 30
0.0
 10
662.8183229635139
 20
53.68147004124521
 30
0.0
 10
662.8449839721928
 20
53.63308988137158
 30
0.0
 10
662.9445866673668
 20
53.51673025747014
 30
0.0
 10
663.1991531894998
 20
53.3467709669205
 30
0.0
 10
663.7534865166364
 20
53.04419820463455
 30
0.0
 10
665.5942393257535
 20
52.21948035452992
 30
0.0
 10
668.5816910302314
 20
51.09754222894999
 30
0.0
 10
672.2653643480302
 20
49.6555579470864
 30
0.0
 10
675.453997647504
 20
48.39981714947425
 30
0.0
 10
678.2130842923877
 20
47.30619342854001
 30
0.0
 10
682.089787677
 20
45.78134693988964
 30
0.0
 10
687.5285079073195
 20
43.7495322904273
 30
0.0
 10
694.7738966434778
 20
41.20504193600169
 30
0.0
 10
702.4923698698115
 20
38.60800841413634
 30
0.0
 10
710.3515907662569
 20
36.06443246042232
 30
0.0
 10
718.1501443812684
 20
33.63506669886981
 30
0.0
 10
725.8299835322669
 20
31.33027640498784
 30
0.0
 10
733.4197412735978
 20
29.13137477924818
 30
0.0
 10
743.4501021659661
 20
26.31715915239682
 30
0.0
 10
756.0220526333286
 20
22.9404439372263
 30
0.0
 10
771.2140412361787
 20
18.99620565925705
 30
0.0
 10
786.555567989195
 20
15.16792691518473
 30
0.0
 10
802.0037483760589
 20
11.53120170002667
 30
0.0
 10
817.5004663768547
 20
8.143113541693642
 30
0.0
 10
833.0784315781959
 20
5.264140072593432
 30
0.0
 10
848.7841261905731
 20
3.193498185335902
 30
0.0
 10
863.5506627615632
 20
2.188787425444344
 30
0.0
 10
877.3070507866909
 20
2.122451130297992
 30
0.0
 10
889.9994159625866
 20
2.841083284891161
 30
0.0
 10
902.6190110321664
 20
4.411023979937728
 30
0.0
 10
915.0765229335548
 20
6.927898854487885
 30
0.0
 10
926.5896238226561
 20
10.28973910941136
 30
0.0
 10
937.1069131314987
 20
14.36851465982755
 30
0.0
 10
946.6336509674444
 20
18.97102450587798
 30
0.0
 10
954.0517569873963
 20
23.2731348033561
 30
0.0
 10
959.4357853210988
 20
27.00392252701642
 30
0.0
 10
962.9918094555783
 20
29.81374291502101
 30
0.0
 10
966.3361813881712
 20
32.86661746490246
 30
0.0
 10
969.3804736452037
 20
36.21767079388569
 30
0.0
 10
971.9423718293157
 20
39.95463765220039
 30
0.0
 10
973.929801071024
 20
44.13773849969569
 30
0.0
 10
974.502063250411
 20
47.18338105510298
 30
0.0
 10
974.7937522504507
 20
48.73578214583505
 30
0.0
  0
SPLINE
  5
90
330
1F
100
AcDbEntity
  8
0
  6
Continuous
 62
     7
370
    25
100
AcDbSpline
210
0.0
220
0.0
230
1.0
 70
     8
 71
     3
 72
    34
 73
    30
 74
     0
 42
0.00000001
 43
0.00000001
 40
0.0
 40
0.0
 40
0.0
 40
0.0
 40
0.008268918129922
 40
0.0154777258428484
 40
0.0226235942062967
 40
0.0302461902351379
 40
0.0412685783823404
 40
0.0528301217393924
 40
0.0641633664669087
 40
0.0853026185517179
 40
0.1054254769669851
 40
0.1256740228939833
 40
0.1671822064861356
 40
0.2093300652270405
 40
0.2512469883182757
 40
0.3342613013372647
 40
0.4173415179853304
 40
0.5006658300455659
 40
0.5706282011463196
 40
0.6405156432004449
 40
0.710426520456068
 40
0.7803306285572847
 40
0.8117106438589111
 40
0.8430964381230596
 40
0.8744849200520493
 40
0.9058612543494835
 40
0.937243072813081
 40
0.968633664480852
 40
0.9999999999999999
 40
0.9999999999999999
 40
0.9999999999999999
 40
0.9999999999999999
 10
974.7937522504508
 20
48.73578214583515
 30
0.0
 10
974.5902133878734
 20
49.58775649842803
 30
0.0
 10
974.2092302091996
 20
51.1824784738287
 30
0.0
 10
972.6632180776053
 20
53.07776025588193
 30
0.0
 10
970.6598565847029
 20
54.27228470417342
 30
0.0
 10
968.0474483130502
 20
55.03167221056857
 30
0.0
 10
964.8872482599088
 20
55.34952441150795
 30
0.0
 10
961.3341013169686
 20
55.35150200875469
 30
0.0
 10
956.722599051081
 20
55.27226108919622
 30
0.0
 10
951.2137390781658
 20
55.26385907322381
 30
0.0
 10
944.7708328031287
 20
55.14358546433337
 30
0.0
 10
936.2103144582475
 20
54.57571108777989
 30
0.0
 10
925.4033138004316
 20
53.23961659816054
 30
0.0
 10
912.4106328232946
 20
51.19746004923473
 30
0.0
 10
895.1056561323132
 20
48.59110080413195
 30
0.0
 10
873.4891727379006
 20
45.81873993554128
 30
0.0
 10
847.4388337430829
 20
43.72769033575638
 30
0.0
 10
822.6930541640698
 20
42.79123464669362
 30
0.0
 10
799.3149610039983
 20
42.67324732761033
 30
0.0
 10
777.3471074000952
 20
43.11589613723662
 30
0.0
 10
755.3966548814914
 20
43.89386876795218
 30
0.0
 10
737.4915536894448
 20
44.98487801057446
 30
0.0
 10
723.6698198546277
 20
46.42751708826439
 30
0.0
 10
713.8622109781946
 20
47.46214693299864
 30
0.0
 10
704.0396019028225
 20
48.33359534147716
 30
0.0
 10
694.2307157355569
 20
49.3722206483663
 30
0.0
 10
684.4843291478695
 20
50.88376608355647
 30
0.0
 10
674.6528063427091
 20
51.77654295261721
 30
0.0
 10
668.2093272111715
 20
53.10300728485692
 30
0.0
 10
664.9888328783553
 20
53.76598310544309
 30
0.0
  0
SPLINE
  5
91
330
1F
100
AcDbEntity
  8
0
  6
Continuous
 62
     7
370
    25
100
AcDbSpline
210
0.0
220
0.0
230
1.0
 70
     8
 71
     3
 72
    34
 73
    30
 74
     0
 42
0.00000001
 43
0.00000001
 40
0.0
 40
0.0
 40
0.0
 40
0.0
 40
0.0082689181299219
 40
0.0154777258428485
 40
0.0226235942062966
 40
0.0302461902351377
 40
0.0412685783823404
 40
0.0528301217393925
 40
0.0641633664669087
 40
0.0853026185517178
 40
0.1054254769669851
 40
0.1256740228939834
 40
0.1671822064861358
 40
0.2093300652270404
 40
0.2512469883182757
 40
0.3342613013372648
 40
0.4173415179853303
 40
0.5006658300455656
 40
0.5706282011463194
 40
0.6405156432004447
 40
0.7104265204560681
 40
0.7803306285572846
 40
0.8117106438589111
 40
0.8430964381230597
 40
0.8744849200520493
 40
0.9058612543494837
 40
0.9372430728130808
 40
0.9686336644808519
 40
1.0
 40
1.0
 40
1.0
 40
1.0
 10
486.7937522504503
 20
144.7357821458349
 30
0.0
 10
486.5902133878731
 20
145.587756498428
 30
0.0
 10
486.209230209199
 20
147.1824784738286
 30
0.0
 10
484.663218077605
 20
149.0777602558818
 30
0.0
 10
482.6598565847021
 20
150.272284704173
 30
0.0
 10
480.04744831305
 20
151.0316722105688
 30
0.0
 10
476.8872482599085
 20
151.3495244115077
 30
0.0
 10
473.3341013169684
 20
151.3515020087544
 30
0.0
 10
468.7225990510806
 20
151.2722610891962
 30
0.0
 10
463.2137390781656
 20
151.2638590732238
 30
0.0
 10
456.770832803128
 20
151.143585464333
 30
0.0
 10
448.2103144582472
 20
150.5757110877798
 30
0.0
 10
437.4033138004315
 20
149.2396165981605
 30
0.0
 10
424.410632823294
 20
147.1974600492345
 30
0.0
 10
407.105656132313
 20
144.5911008041317
 30
0.0
 10
385.4891727379003
 20
141.8187399355414
 30
0.0
 10
359.4388337430826
 20
139.7276903357561
 30
0.0
 10
334.6930541640696
 20
138.7912346466936
 30
0.0
 10
311.3149610039981
 20
138.6732473276103
 30
0.0
 10
289.3471074000948
 20
139.1158961372363
 30
0.0
 10
267.3966548814911
 20
139.8938687679521
 30
0.0
 10
249.4915536894444
 20
140.9848780105742
 30
0.0
 10
235.6698198546273
 20
142.4275170882642
 30
0.0
 10
225.8622109781945
 20
143.4621469329984
 30
0.0
 10
216.0396019028221
 20
144.3335953414772
 30
0.0
 10
206.2307157355564
 20
145.3722206483658
 30
0.0
 10
196.4843291478695
 20
146.8837660835567
 30
0.0
 10
186.6528063427087
 20
147.7765429526171
 30
0.0
 10
180.2093272111712
 20
149.1030072848567
 30
0.0
 10
176.988832878355
 20
149.765983105443
 30
0.0
  0
CIRCLE
  5
92
330
1F
100
AcDbEntity
  8
0
  6
Continuous
 62
     7
370
    25
100
AcDbCircle
 10
240.249544305
 20
134.5129648535
 30
0.0
 40
1.984374999999988
  0
CIRCLE
  5
93
330
1F
100
AcDbEntity
  8
0
  6
Continuous
 62
     7
370
    25
100
AcDbCircle
 10
259.2186858762
 20
129.3783330215
 30
0.0
 40
4.999999999999995
  0
CIRCLE
  5
94
330
1F
100
AcDbEntity
  8
0
  6
Continuous
 62
     7
370
    25
100
AcDbCircle
 10
466.3120497359
 20
134.9071277926
 30
0.0
 40
4.999999999999995
  0
CIRCLE
  5
95
330
1F
100
AcDbEntity
  8
0
  6
Continuous
 62
     7
370
    25
100
AcDbCircle
 10
321.3650070091
 20
125.8289487818
 30
0.0
 40
2.999999999999951
  0
SPLINE
  5
96
330
1F
100
AcDbEntity
  8
0
  6
Continuous
 62
     7
370
    25
100
AcDbSpline
210
0.0
220
0.0
230
1.0
 70
     8
 71
     3
 72
    56
 73
    52
 74
     0
 42
0.00000001
 43
0.00000001
 40
0.0
 40
0.0
 40
0.0
 40
0.0
 40
0.003056542827603
 40
0.0050733295616681
 40
0.0060575699309033
 40
0.0062236427101536
 40
0.0063582112307849
 40
0.006468074890974
 40
0.0065896101623483
 40
0.0067178320871222
 40
0.0068757942414003
 40
0.0070745216974522
 40
0.0080702832055785
 40
0.009552549727639
 40
0.0126890054439863
 40
0.0259196524929821
 40
0.0378551884524986
 40
0.0477583292776101
 40
0.0563044983153448
 40
0.0641690141527166
 40
0.0846927215053281
 40
0.1077749044240487
 40
0.1322509400014688
 40
0.1568938130743578
 40
0.1810125817286759
 40
0.2046696530125827
 40
0.2279831790671612
 40
0.2510705804670418
 40
0.297032991132929
 40
0.3433952701230112
 40
0.3902290302713394
 40
0.4372203513239589
 40
0.4841007304255085
 40
0.530859484909483
 40
0.5776333578005379
 40
0.6244756633083918
 40
0.6619818793368816
 40
0.6995331136985514
 40
0.737110577970343
 40
0.7746362948795527
 40
0.812095448499243
 40
0.8433043625083452
 40
0.8745414139401032
 40
0.9058222185466007
 40
0.9192133272939033
 40
0.9325887622814321
 40
0.9459734839013042
 40
0.9593257797415529
 40
0.9726265478039521
 40
0.9860474181480019
 40
1.0
 40
1.0
 40
1.0
 40
1.0
 10
176.988832878355
 20
149.765983105443
 30
0.0
 10
176.6458356020101
 20
149.8047050024027
 30
0.0
 10
176.0765197704316
 20
149.8689766176262
 30
0.0
 10
175.3957156863048
 20
149.8952020213618
 30
0.0
 10
175.0342345837738
 20
149.8696267910326
 30
0.0
 10
174.8975756377635
 20
149.8199651086945
 30
0.0
 10
174.8571433849524
 20
149.7968025884978
 30
0.0
 10
174.8268540968676
 20
149.7678811951948
 30
0.0
 10
174.8109034354441
 20
149.7285134584787
 30
0.0
 10
174.8183229635136
 20
149.6814700412449
 30
0.0
 10
174.8449839721923
 20
149.6330898813714
 30
0.0
 10
174.9445866673671
 20
149.5167302574701
 30
0.0
 10
175.1991531894991
 20
149.3467709669204
 30
0.0
 10
175.7534865166363
 20
149.0441982046343
 30
0.0
 10
177.5942393257529
 20
148.2194803545298
 30
0.0
 10
180.5816910302311
 20
147.0975422289497
 30
0.0
 10
184.2653643480297
 20
145.655557947086
 30
0.0
 10
187.4539976475039
 20
144.3998171494741
 30
0.0
 10
190.2130842923874
 20
143.30619342854
 30
0.0
 10
194.0897876769998
 20
141.7813469398896
 30
0.0
 10
199.5285079073191
 20
139.7495322904271
 30
0.0
 10
206.7738966434774
 20
137.2050419360013
 30
0.0
 10
214.4923698698112
 20
134.6080084141364
 30
0.0
 10
222.3515907662564
 20
132.0644324604218
 30
0.0
 10
230.1501443812681
 20
129.6350666988698
 30
0.0
 10
237.8299835322664
 20
127.3302764049875
 30
0.0
 10
245.4197412735977
 20
125.1313747792483
 30
0.0
 10
255.4501021659657
 20
122.3171591523967
 30
0.0
 10
268.0220526333283
 20
118.9404439372262
 30
0.0
 10
283.2140412361782
 20
114.9962056592569
 30
0.0
 10
298.5555679891947
 20
111.1679269151847
 30
0.0
 10
314.0037483760589
 20
107.5312017000268
 30
0.0
 10
329.5004663768539
 20
104.143113541693
 30
0.0
 10
345.0784315781957
 20
101.2641400725936
 30
0.0
 10
360.7841261905729
 20
99.19349818533571
 30
0.0
 10
375.5506627615628
 20
98.1887874254442
 30
0.0
 10
389.3070507866907
 20
98.1224511302979
 30
0.0
 10
401.9994159625862
 20
98.84108328489103
 30
0.0
 10
414.6190110321662
 20
100.4110239799375
 30
0.0
 10
427.0765229335543
 20
102.9278988544878
 30
0.0
 10
438.589623822656
 20
106.2897391094113
 30
0.0
 10
449.106913131498
 20
110.3685146598274
 30
0.0
 10
458.6336509674443
 20
114.9710245058779
 30
0.0
 10
466.0517569873959
 20
119.273134803356
 30
0.0
 10
471.4357853210985
 20
123.0039225270163
 30
0.0
 10
474.991809455578
 20
125.8137429150209
 30
0.0
 10
478.3361813881709
 20
128.8666174649022
 30
0.0
 10
481.380473645203
 20
132.2176707938854
 30
0.0
 10
483.9423718293153
 20
135.9546376522003
 30
0.0
 10
485.9298010710236
 20
140.1377384996956
 30
0.0
 10
486.5020632504105
 20
143.1833810551028
 30
0.0
 10
486.7937522504503
 20
144.7357821458349
 30
0.0
  0
SPLINE
  5
97
330
1F
100
AcDbEntity
  8
0
  6
Continuous
 62
     7
370
    25
100
AcDbSpline
210
0.0
220
0.0
230
1.0
 70
     8
 71
     3
 72
    34
 73
    30
 74
     0
 42
0.00000001
 43
0.00000001
 40
0.0
 40
0.0
 40
0.0
 40
0.0
 40
0.0082689181299219
 40
0.0154777258428485
 40
0.0226235942062966
 40
0.0302461902351377
 40
0.0412685783823404
 40
0.0528301217393925
 40
0.0641633664669087
 40
0.0853026185517178
 40
0.1054254769669851
 40
0.1256740228939834
 40
0.1671822064861358
 40
0.2093300652270404
 40
0.2512469883182757
 40
0.3342613013372648
 40
0.4173415179853304
 40
0.5006658300455658
 40
0.5706282011463195
 40
0.6405156432004449
 40
0.7104265204560682
 40
0.7803306285572847
 40
0.8117106438589111
 40
0.8430964381230596
 40
0.8744849200520493
 40
0.9058612543494836
 40
0.9372430728130807
 40
0.9686336644808518
 40
0.9999999999999999
 40
0.9999999999999999
 40
0.9999999999999999
 40
0.9999999999999999
 10
486.7937522504503
 20
96.73578214583497
 30
0.0
 10
486.5902133878731
 20
97.58775649842808
 30
0.0
 10
486.2092302091989
 20
99.18247847382864
 30
0.0
 10
484.663218077605
 20
101.0777602558817
 30
0.0
 10
482.6598565847021
 20
102.2722847041731
 30
0.0
 10
480.0474483130501
 20
103.0316722105688
 30
0.0
 10
476.8872482599085
 20
103.3495244115079
 30
0.0
 10
473.3341013169684
 20
103.3515020087546
 30
0.0
 10
468.7225990510805
 20
103.272261089196
 30
0.0
 10
463.2137390781655
 20
103.2638590732237
 30
0.0
 10
456.770832803128
 20
103.1435854643332
 30
0.0
 10
448.2103144582475
 20
102.5757110877803
 30
0.0
 10
437.4033138004315
 20
101.2396165981606
 30
0.0
 10
424.410632823294
 20
99.19746004923455
 30
0.0
 10
407.105656132313
 20
96.59110080413177
 30
0.0
 10
385.4891727379003
 20
93.81873993554154
 30
0.0
 10
359.4388337430827
 20
91.72769033575642
 30
0.0
 10
334.6930541640696
 20
90.79123464669355
 30
0.0
 10
311.314961003998
 20
90.67324732761037
 30
0.0
 10
289.3471074000949
 20
91.11589613723622
 30
0.0
 10
267.3966548814911
 20
91.89386876795244
 30
0.0
 10
249.4915536894444
 20
92.98487801057428
 30
0.0
 10
235.6698198546274
 20
94.42751708826444
 30
0.0
 10
225.8622109781945
 20
95.46214693299834
 30
0.0
 10
216.0396019028222
 20
96.3335953414773
 30
0.0
 10
206.2307157355564
 20
97.37222064836601
 30
0.0
 10
196.4843291478694
 20
98.88376608355651
 30
0.0
 10
186.6528063427087
 20
99.77654295261715
 30
0.0
 10
180.2093272111712
 20
101.1030072848569
 30
0.0
 10
176.988832878355
 20
101.765983105443
 30
0.0
  0
CIRCLE
  5
98
330
1F
100
AcDbEntity
  8
0
  6
Continuous
 62
     7
370
    25
100
AcDbCircle
 10
240.249544305
 20
86.5129648535
 30
0.0
 40
1.98437499999999
  0
CIRCLE
  5
99
330
1F
100
AcDbEntity
  8
0
  6
Continuous
 62
     7
370
    25
100
AcDbCircle
 10
259.2186858762
 20
81.3783330215
 30
0.0
 40
4.999999999999995
  0
CIRCLE
  5
9A
330
1F
100
AcDbEntity
  8
0
  6
Continuous
 62
     7
370
    25
100
AcDbCircle
 10
466.3120497359
 20
86.9071277926
 30
0.0
 40
4.999999999999995
  0
CIRCLE
  5
9B
330
1F
100
AcDbEntity
  8
0
  6
Continuous
 62
     7
370
    25
100
AcDbCircle
 10
321.3650070091
 20
77.8289487818
 30
0.0
 40
2.999999999999951
  0
SPLINE
  5
9C
330
1F
100
AcDbEntity
  8
0
  6
Continuous
 62
     7
370
    25
100
AcDbSpline
210
0.0
220
0.0
230
1.0
 70
     8
 71
     3
 72
    56
 73
    52
 74
     0
 42
0.00000001
 43
0.00000001
 40
0.0
 40
0.0
 40
0.0
 40
0.0
 40
0.003056542827603
 40
0.0050733295616681
 40
0.0060575699309033
 40
0.0062236427101536
 40
0.0063582112307849
 40
0.006468074890974
 40
0.0065896101623483
 40
0.0067178320871222
 40
0.0068757942414003
 40
0.0070745216974522
 40
0.0080702832055785
 40
0.009552549727639
 40
0.0126890054439863
 40
0.0259196524929821
 40
0.0378551884524986
 40
0.0477583292776101
 40
0.0563044983153448
 40
0.0641690141527166
 40
0.0846927215053281
 40
0.1077749044240487
 40
0.1322509400014688
 40
0.1568938130743578
 40
0.1810125817286758
 40
0.2046696530125827
 40
0.2279831790671612
 40
0.2510705804670418
 40
0.297032991132929
 40
0.3433952701230112
 40
0.3902290302713394
 40
0.4372203513239589
 40
0.4841007304255085
 40
0.530859484909483
 40
0.5776333578005379
 40
0.6244756633083918
 40
0.6619818793368816
 40
0.6995331136985514
 40
0.737110577970343
 40
0.7746362948795527
 40
0.812095448499243
 40
0.8433043625083452
 40
0.8745414139401032
 40
0.9058222185466007
 40
0.9192133272939033
 40
0.9325887622814321
 40
0.9459734839013042
 40
0.9593257797415529
 40
0.9726265478039521
 40
0.9860474181480019
 40
1.0
 40
1.0
 40
1.0
 40
1.0
 10
176.988832878355
 20
101.765983105443
 30
0.0
 10
176.6458356020101
 20
101.8047050024029
 30
0.0
 10
176.0765197704316
 20
101.8689766176264
 30
0.0
 10
175.3957156863048
 20
101.8952020213616
 30
0.0
 10
175.0342345837738
 20
101.8696267910331
 30
0.0
 10
174.8975756377635
 20
101.8199651086945
 30
0.0
 10
174.8571433849524
 20
101.796802588498
 30
0.0
 10
174.8268540968676
 20
101.7678811951948
 30
0.0
 10
174.8109034354441
 20
101.7285134584787
 30
0.0
 10
174.8183229635136
 20
101.6814700412451
 30
0.0
 10
174.8449839721923
 20
101.6330898813715
 30
0.0
 10
174.9445866673671
 20
101.5167302574703
 30
0.0
 10
175.1991531894991
 20
101.3467709669204
 30
0.0
 10
175.7534865166363
 20
101.0441982046344
 30
0.0
 10
177.5942393257529
 20
100.21948035453
 30
0.0
 10
180.5816910302311
 20
99.0975422289497
 30
0.0
 10
184.2653643480297
 20
97.65555794708622
 30
0.0
 10
187.4539976475039
 20
96.39981714947419
 30
0.0
 10
190.2130842923874
 20
95.30619342854004
 30
0.0
 10
194.0897876769998
 20
93.78134693988957
 30
0.0
 10
199.5285079073191
 20
91.74953229042713
 30
0.0
 10
206.7738966434774
 20
89.2050419360015
 30
0.0
 10
214.4923698698112
 20
86.60800841413649
 30
0.0
 10
222.3515907662563
 20
84.06443246042191
 30
0.0
 10
230.1501443812681
 20
81.63506669887008
 30
0.0
 10
237.8299835322664
 20
79.33027640498754
 30
0.0
 10
245.4197412735977
 20
77.13137477924833
 30
0.0
 10
255.4501021659657
 20
74.31715915239675
 30
0.0
 10
268.0220526333283
 20
70.94044393722618
 30
0.0
 10
283.2140412361782
 20
66.99620565925699
 30
0.0
 10
298.5555679891947
 20
63.16792691518467
 30
0.0
 10
314.0037483760589
 20
59.53120170002688
 30
0.0
 10
329.5004663768539
 20
56.14311354169318
 30
0.0
 10
345.0784315781957
 20
53.2641400725937
 30
0.0
 10
360.7841261905729
 20
51.19349818533567
 30
0.0
 10
375.5506627615628
 20
50.18878742544427
 30
0.0
 10
389.3070507866907
 20
50.12245113029809
 30
0.0
 10
401.9994159625862
 20
50.84108328489098
 30
0.0
 10
414.6190110321662
 20
52.41102397993755
 30
0.0
 10
427.0765229335543
 20
54.92789885448787
 30
0.0
 10
438.589623822656
 20
58.28973910941124
 30
0.0
 10
449.106913131498
 20
62.3685146598277
 30
0.0
 10
458.6336509674443
 20
66.97102450587786
 30
0.0
 10
466.0517569873959
 20
71.27313480335603
 30
0.0
 10
471.4357853210985
 20
75.00392252701646
 30
0.0
 10
474.991809455578
 20
77.81374291502105
 30
0.0
 10
478.3361813881709
 20
80.86661746490239
 30
0.0
 10
481.380473645203
 20
84.21767079388539
 30
0.0
 10
483.9423718293153
 20
87.95463765220032
 30
0.0
 10
485.9298010710236
 20
92.13773849969573
 30
0.0
 10
486.5020632504105
 20
95.1833810551029
 30
0.0
 10
486.7937522504503
 20
96.73578214583497
 30
0.0
  0
SPLINE
  5
9D
330
1F
100
AcDbEntity
  8
0
  6
Continuous
 62
     7
370
    25
100
AcDbSpline
210
0.0
220
0.0
230
1.0
 70
     8
 71
     3
 72
    56
 73
    52
 74
     0
 42
0.00000001
 43
0.00000001
 40
0.0
 40
0.0
 40
0.0
 40
0.0
 40
0.003056542827603
 40
0.0050733295616683
 40
0.0060575699309035
 40
0.0062236427101537
 40
0.0063582112307847
 40
0.0064680748909742
 40
0.0065896101623484
 40
0.0067178320871227
 40
0.0068757942414007
 40
0.0070745216974526
 40
0.0080702832055789
 40
0.0095525497276395
 40
0.0126890054439865
 40
0.0259196524929824
 40
0.0378551884524988
 40
0.0477583292776104
 40
0.0563044983153451
 40
0.0641690141527166
 40
0.0846927215053286
 40
0.107774904424049
 40
0.132250940001469
 40
0.1568938130743581
 40
0.1810125817286762
 40
0.204669653012583
 40
0.2279831790671616
 40
0.2510705804670422
 40
0.2970329911329292
 40
0.3433952701230117
 40
0.3902290302713399
 40
0.4372203513239591
 40
0.4841007304255087
 40
0.5308594849094834
 40
0.5776333578005383
 40
0.6244756633083921
 40
0.6619818793368818
 40
0.6995331136985518
 40
0.7371105779703432
 40
0.774636294879553
 40
0.812095448499243
 40
0.8433043625083452
 40
0.8745414139401032
 40
0.9058222185466005
 40
0.9192133272939031
 40
0.9325887622814321
 40
0.9459734839013042
 40
0.9593257797415526
 40
0.9726265478039521
 40
0.9860474181480021
 40
1.0
 40
1.0
 40
1.0
 40
1.0
 10
800.5394164714938
 20
94.09925446787379
 30
0.0
 10
800.8813764930219
 20
94.05224531386466
 30
0.0
 10
801.4489706619829
 20
93.97421829309135
 30
0.0
 10
802.1289409508917
 20
93.93152896226073
 30
0.0
 10
802.4909350143254
 20
93.94835091017636
 30
0.0
 10
802.6287554882476
 20
93.99469168256222
 30
0.0
 10
802.6697363073303
 20
94.01686919091065
 30
0.0
 10
802.7007164629158
 20
94.04504928890874
 30
0.0
 10
802.7176149314868
 20
94.08401958598154
 30
0.0
 10
802.7113357596302
 20
94.13122874295985
 30
0.0
 10
802.6858530812455
 20
94.1802397861595
 30
0.0
 10
802.589094786393
 20
94.29897516983974
 30
0.0
 10
802.3387148349364
 20
94.47504377732938
 30
0.0
 10
801.7918643230872
 20
94.7909396964903
 30
0.0
 10
799.9716038520794
 20
95.65995192554041
 30
0.0
 10
797.0121712018293
 20
96.85384104637714
 30
0.0
 10
793.3644640451093
 20
98.38452725857658
 30
0.0
 10
790.2071459579513
 20
99.71704733940342
 30
0.0
 10
787.4753264706743
 20
100.8771052025717
 30
0.0
 10
783.6366505482448
 20
102.4952996002801
 30
0.0
 10
778.2486807816995
 20
104.6581057192491
 30
0.0
 10
771.0669752170186
 20
107.3771486177787
 30
0.0
 10
763.4135948933528
 20
110.1601652689412
 30
0.0
 10
755.6182147295964
 20
112.8931452970322
 30
0.0
 10
747.8807208484292
 20
115.5104807605368
 30
0.0
 10
740.2588926595462
 20
118.0004050049924
 30
0.0
 10
732.7245576049744
 20
120.382292117604
 30
0.0
 10
722.7652209417181
 20
123.4383618899565
 30
0.0
 10
710.2786479974152
 20
127.1182586690501
 30
0.0
 10
695.1865347151305
 20
131.4289024698305
 30
0.0
 10
679.9421214922314
 20
135.6272386575763
 30
0.0
 10
664.5864513449839
 20
139.6366578031124
 30
0.0
 10
649.1762421830908
 20
143.398687009739
 30
0.0
 10
633.6724919110641
 20
146.6537162803644
 30
0.0
 10
618.0214925704007
 20
149.1037409171939
 30
0.0
 10
603.2835868575977
 20
150.465424145388
 30
0.0
 10
589.5328306453512
 20
150.8645677201941
 30
0.0
 10
576.8267940235713
 20
150.4532292976243
 30
0.0
 10
564.172909360065
 20
149.189070910073
 30
0.0
 10
551.6581499734607
 20
146.9743340402016
 30
0.0
 10
540.0670817678476
 20
143.8920297341522
 30
0.0
 10
529.4541878680408
 20
140.0689069963918
 30
0.0
 10
519.8188840766869
 20
135.6982375366669
 30
0.0
 10
512.2988628184575
 20
131.5768627404737
 30
0.0
 10
506.8261465907029
 20
127.9774301146855
 30
0.0
 10
503.2031816528868
 20
125.2544678826286
 30
0.0
 10
499.7859264264087
 20
122.2834018520716
 30
0.0
 10
496.6614487963277
 20
119.0069840980232
 30
0.0
 10
494.0098871076918
 20
115.3330945763775
 30
0.0
 10
491.9218322831467
 20
111.1993027648801
 30
0.0
 10
491.2760503150523
 20
108.1683972521742
 30
0.0
 10
490.9468873836161
 20
106.6235078115285
 30
0.0
  0
CIRCLE
  5
9E
330
1F
100
AcDbEntity
  8
0
  6
Continuous
 62
     7
370
    25
100
AcDbCircle
 10
737.6662597645
 20
110.8783587855
 30
0.0
 40
1.984375000000018
  0
CIRCLE
  5
9F
330
1F
100
AcDbEntity
  8
0
  6
Continuous
 62
     7
370
    25
100
AcDbCircle
 10
718.8268999678
 20
116.470433396
 30
0.0
 40
5.000000000000032
  0
CIRCLE
  5
A0
330
1F
100
AcDbEntity
  8
0
  6
Continuous
 62
     7
370
    25
100
AcDbCircle
 10
511.6603921577
 20
115.9537438355
 30
0.0
 40
5.000000000000093
  0
CIRCLE
  5
A1
330
1F
100
AcDbEntity
  8
0
  6
Continuous
 62
     7
370
    25
100
AcDbCircle
 10
656.7846456697
 20
121.5223677222
 30
0.0
 40
2.999999999999973
  0
SPLINE
  5
A2
330
1F
100
AcDbEntity
  8
0
  6
Continuous
 62
     7
370
    25
100
AcDbSpline
210
0.0
220
0.0
230
1.0
 70
     8
 71
     3
 72
    34
 73
    30
 74
     0
 42
0.00000001
 43
0.00000001
 40
0.0
 40
0.0
 40
0.0
 40
0.0
 40
0.0082689181299221
 40
0.0154777258428486
 40
0.0226235942062967
 40
0.0302461902351377
 40
0.0412685783823405
 40
0.0528301217393925
 40
0.0641633664669089
 40
0.0853026185517179
 40
0.1054254769669851
 40
0.1256740228939835
 40
0.1671822064861357
 40
0.2093300652270403
 40
0.2512469883182758
 40
0.3342613013372648
 40
0.4173415179853305
 40
0.5006658300455659
 40
0.5706282011463195
 40
0.640515643200445
 40
0.7104265204560682
 40
0.7803306285572846
 40
0.811710643858911
 40
0.8430964381230599
 40
0.8744849200520494
 40
0.905861254349484
 40
0.9372430728130808
 40
0.9686336644808521
 40
1.0
 40
1.0
 40
1.0
 40
1.0
 10
490.9468873836161
 20
106.6235078115285
 30
0.0
 10
491.1297537098748
 20
105.766858365853
 30
0.0
 10
491.4720421228509
 20
104.1633855710726
 30
0.0
 10
492.9717466092011
 20
102.231253847292
 30
0.0
 10
494.9456209384966
 20
100.9886090625846
 30
0.0
 10
497.5388916129517
 20
100.166238360482
 30
0.0
 10
500.6904763703963
 20
99.77202025567153
 30
0.0
 10
504.2425353687798
 20
99.68407720012948
 30
0.0
 10
508.8546049103937
 20
99.65172268049935
 30
0.0
 10
514.3620555788926
 20
99.52683901821877
 30
0.0
 10
520.8059857891351
 20
99.49119556945082
 30
0.0
 10
529.377737593609
 20
99.85178764241051
 30
0.0
 10
540.213900684487
 20
100.9260227987493
 30
0.0
 10
553.2521869935239
 20
102.6532322439457
 30
0.0
 10
570.6151572066336
 20
104.8401460896647
 30
0.0
 10
592.2923883331255
 20
107.0886989165427
 30
0.0
 10
618.3856932809999
 20
108.5488657121229
 30
0.0
 10
643.1468860562796
 20
108.8863395275584
 30
0.0
 10
666.5209904695898
 20
108.4386748269964
 30
0.0
 10
688.4717039204321
 20
107.4646579225249
 30
0.0
 10
710.3969084419412
 20
106.1558363626427
 30
0.0
 10
728.2703721022184
 20
104.6319444210435
 30
0.0
 10
742.0531562613893
 20
102.8553199444827
 30
0.0
 10
751.8328620134349
 20
101.5837043610216
 30
0.0
 10
761.631511640257
 20
100.4748595265156
 30
0.0
 10
771.4123976416788
 20
99.1992187472692
 30
0.0
 10
781.1193603694535
 20
97.45230841159677
 30
0.0
 10
790.9264050888062
 20
96.32192569811146
 30
0.0
 10
797.3359051214848
 20
94.8399539458987
 30
0.0
 10
800.5394164714938
 20
94.09925446787379
 30
0.0
  0
CIRCLE
  5
A3
330
1F
100
AcDbEntity
  8
0
  6
Continuous
 62
     7
370
    25
100
AcDbCircle
 10
728.249544305
 20
134.5129648535
 30
0.0
 40
1.984374999999933
  0
CIRCLE
  5
A4
330
1F
100
AcDbEntity
  8
0
  6
Continuous
 62
     7
370
    25
100
AcDbCircle
 10
747.2186858762
 20
129.3783330215
 30
0.0
 40
5.000000000000052
  0
CIRCLE
  5
A5
330
1F
100
AcDbEntity
  8
0
  6
Continuous
 62
     7
370
    25
100
AcDbCircle
 10
954.3120497359
 20
134.9071277926
 30
0.0
 40
5.000000000000052
  0
CIRCLE
  5
A6
330
1F
100
AcDbEntity
  8
0
  6
Continuous
 62
     7
370
    25
100
AcDbCircle
 10
809.3650070091
 20
125.8289487818
 30
0.0
 40
2.999999999999894
  0
SPLINE
  5
A7
330
1F
100
AcDbEntity
  8
0
  6
Continuous
 62
     7
370
    25
100
AcDbSpline
210
0.0
220
0.0
230
1.0
 70
     8
 71
     3
 72
    56
 73
    52
 74
     0
 42
0.00000001
 43
0.00000001
 40
0.0
 40
0.0
 40
0.0
 40
0.0
 40
0.003056542827603
 40
0.0050733295616681
 40
0.0060575699309033
 40
0.0062236427101537
 40
0.0063582112307849
 40
0.0064680748909739
 40
0.0065896101623482
 40
0.0067178320871222
 40
0.0068757942414004
 40
0.0070745216974522
 40
0.0080702832055786
 40
0.0095525497276391
 40
0.0126890054439864
 40
0.025919652492982
 40
0.0378551884524986
 40
0.0477583292776101
 40
0.0563044983153449
 40
0.0641690141527167
 40
0.0846927215053281
 40
0.1077749044240487
 40
0.1322509400014688
 40
0.156893813074358
 40
0.1810125817286756
 40
0.2046696530125826
 40
0.2279831790671612
 40
0.2510705804670417
 40
0.2970329911329288
 40
0.3433952701230113
 40
0.3902290302713396
 40
0.437220351323959
 40
0.4841007304255084
 40
0.5308594849094831
 40
0.5776333578005379
 40
0.6244756633083918
 40
0.6619818793368815
 40
0.6995331136985515
 40
0.7371105779703431
 40
0.7746362948795528
 40
0.8120954484992431
 40
0.8433043625083453
 40
0.8745414139401033
 40
0.9058222185466008
 40
0.9192133272939035
 40
0.9325887622814322
 40
0.9459734839013042
 40
0.9593257797415528
 40
0.9726265478039521
 40
0.9860474181480019
 40
1.0
 40
1.0
 40
1.0
 40
1.0
 10
664.9888328783553
 20
149.7659831054431
 30
0.0
 10
664.6458356020103
 20
149.8047050024028
 30
0.0
 10
664.0765197704317
 20
149.8689766176264
 30
0.0
 10
663.3957156863055
 20
149.8952020213621
 30
0.0
 10
663.0342345837737
 20
149.8696267910327
 30
0.0
 10
662.8975756377639
 20
149.8199651086948
 30
0.0
 10
662.8571433849526
 20
149.796802588498
 30
0.0
 10
662.826854096868
 20
149.7678811951947
 30
0.0
 10
662.8109034354444
 20
149.7285134584789
 30
0.0
 10
662.8183229635139
 20
149.6814700412451
 30
0.0
 10
662.8449839721927
 20
149.6330898813715
 30
0.0
 10
662.9445866673672
 20
149.5167302574702
 30
0.0
 10
663.1991531894998
 20
149.3467709669206
 30
0.0
 10
663.7534865166364
 20
149.0441982046344
 30
0.0
 10
665.5942393257535
 20
148.2194803545301
 30
0.0
 10
668.5816910302315
 20
147.0975422289502
 30
0.0
 10
672.2653643480301
 20
145.6555579470862
 30
0.0
 10
675.4539976475044
 20
144.3998171494743
 30
0.0
 10
678.2130842923877
 20
143.3061934285399
 30
0.0
 10
682.0897876770003
 20
141.7813469398901
 30
0.0
 10
687.5285079073195
 20
139.7495322904272
 30
0.0
 10
694.7738966434778
 20
137.2050419360017
 30
0.0
 10
702.4923698698116
 20
134.6080084141365
 30
0.0
 10
710.3515907662567
 20
132.0644324604221
 30
0.0
 10
718.1501443812684
 20
129.63506669887
 30
0.0
 10
725.8299835322669
 20
127.3302764049879
 30
0.0
 10
733.4197412735981
 20
125.1313747792484
 30
0.0
 10
743.4501021659657
 20
122.3171591523966
 30
0.0
 10
756.0220526333286
 20
118.9404439372262
 30
0.0
 10
771.2140412361788
 20
114.9962056592573
 30
0.0
 10
786.555567989195
 20
111.1679269151846
 30
0.0
 10
802.003748376059
 20
107.5312017000268
 30
0.0
 10
817.5004663768545
 20
104.1431135416935
 30
0.0
 10
833.0784315781959
 20
101.2641400725936
 30
0.0
 10
848.7841261905731
 20
99.19349818533583
 30
0.0
 10
863.5506627615632
 20
98.18878742544432
 30
0.0
 10
877.3070507866909
 20
98.12245113029802
 30
0.0
 10
889.9994159625866
 20
98.84108328489114
 30
0.0
 10
902.6190110321664
 20
100.4110239799376
 30
0.0
 10
915.0765229335548
 20
102.927898854488
 30
0.0
 10
926.5896238226561
 20
106.2897391094113
 30
0.0
 10
937.1069131314987
 20
110.3685146598276
 30
0.0
 10
946.6336509674444
 20
114.9710245058779
 30
0.0
 10
954.0517569873963
 20
119.2731348033562
 30
0.0
 10
959.4357853210985
 20
123.0039225270163
 30
0.0
 10
962.9918094555786
 20
125.8137429150212
 30
0.0
 10
966.336181388171
 20
128.8666174649022
 30
0.0
 10
969.3804736452034
 20
132.2176707938856
 30
0.0
 10
971.9423718293159
 20
135.9546376522004
 30
0.0
 10
973.9298010710241
 20
140.1377384996958
 30
0.0
 10
974.5020632504109
 20
143.183381055103
 30
0.0
 10
974.7937522504507
 20
144.735782145835
 30
0.0
  0
SPLINE
  5
A8
330
1F
100
AcDbEntity
  8
0
  6
Continuous
 62
     7
370
    25
100
AcDbSpline
210
0.0
220
0.0
230
1.0
 70
     8
 71
     3
 72
    34
 73
    30
 74
     0
 42
0.00000001
 43
0.00000001
 40
0.0
 40
0.0
 40
0.0
 40
0.0
 40
0.008268918129922
 40
0.0154777258428484
 40
0.0226235942062967
 40
0.0302461902351379
 40
0.0412685783823404
 40
0.0528301217393924
 40
0.0641633664669087
 40
0.0853026185517179
 40
0.1054254769669851
 40
0.1256740228939833
 40
0.1671822064861356
 40
0.2093300652270405
 40
0.2512469883182757
 40
0.3342613013372647
 40
0.4173415179853304
 40
0.5006658300455659
 40
0.5706282011463196
 40
0.6405156432004449
 40
0.710426520456068
 40
0.7803306285572847
 40
0.8117106438589111
 40
0.8430964381230596
 40
0.8744849200520493
 40
0.9058612543494835
 40
0.937243072813081
 40
0.968633664480852
 40
0.9999999999999999
 40
0.9999999999999999
 40
0.9999999999999999
 40
0.9999999999999999
 10
974.7937522504508
 20
144.7357821458351
 30
0.0
 10
974.5902133878734
 20
145.5877564984281
 30
0.0
 10
974.2092302091996
 20
147.1824784738286
 30
0.0
 10
972.6632180776053
 20
149.0777602558819
 30
0.0
 10
970.6598565847029
 20
150.2722847041734
 30
0.0
 10
968.0474483130502
 20
151.0316722105685
 30
0.0
 10
964.8872482599088
 20
151.3495244115078
 30
0.0
 10
961.3341013169686
 20
151.3515020087546
 30
0.0
 10
956.722599051081
 20
151.2722610891963
 30
0.0
 10
951.2137390781658
 20
151.2638590732237
 30
0.0
 10
944.7708328031287
 20
151.1435854643333
 30
0.0
 10
936.2103144582475
 20
150.5757110877798
 30
0.0
 10
925.4033138004316
 20
149.2396165981605
 30
0.0
 10
912.4106328232946
 20
147.1974600492347
 30
0.0
 10
895.1056561323132
 20
144.5911008041319
 30
0.0
 10
873.4891727379006
 20
141.8187399355413
 30
0.0
 10
847.4388337430829
 20
139.7276903357564
 30
0.0
 10
822.6930541640698
 20
138.7912346466937
 30
0.0
 10
799.3149610039983
 20
138.6732473276103
 30
0.0
 10
777.3471074000952
 20
139.1158961372365
 30
0.0
 10
755.3966548814914
 20
139.8938687679525
 30
0.0
 10
737.4915536894448
 20
140.9848780105743
 30
0.0
 10
723.6698198546277
 20
142.4275170882644
 30
0.0
 10
713.8622109781946
 20
143.4621469329986
 30
0.0
 10
704.0396019028225
 20
144.3335953414772
 30
0.0
 10
694.2307157355569
 20
145.3722206483662
 30
0.0
 10
684.4843291478695
 20
146.8837660835565
 30
0.0
 10
674.6528063427091
 20
147.7765429526171
 30
0.0
 10
668.2093272111715
 20
149.1030072848569
 30
0.0
 10
664.9888328783553
 20
149.7659831054431
 30
0.0
  0
SPLINE
  5
A9
330
1F
100
AcDbEntity
  8
0
  6
Continuous
 62
     7
370
    25
100
AcDbSpline
210
0.0
220
0.0
230
1.0
 70
     8
 71
     3
 72
    56
 73
    52
 74
     0
 42
0.00000001
 43
0.00000001
 40
0.0
 40
0.0
 40
0.0
 40
0.0
 40
0.003056542827603
 40
0.0050733295616682
 40
0.0060575699309036
 40
0.0062236427101538
 40
0.006358211230785
 40
0.0064680748909742
 40
0.0065896101623486
 40
0.0067178320871228
 40
0.0068757942414008
 40
0.0070745216974526
 40
0.0080702832055789
 40
0.0095525497276395
 40
0.0126890054439866
 40
0.0259196524929822
 40
0.0378551884524991
 40
0.0477583292776106
 40
0.0563044983153449
 40
0.0641690141527167
 40
0.0846927215053283
 40
0.1077749044240489
 40
0.132250940001469
 40
0.1568938130743583
 40
0.181012581728676
 40
0.2046696530125829
 40
0.2279831790671616
 40
0.251070580467042
 40
0.2970329911329293
 40
0.3433952701230116
 40
0.3902290302713394
 40
0.4372203513239592
 40
0.4841007304255086
 40
0.5308594849094831
 40
0.5776333578005381
 40
0.624475663308392
 40
0.6619818793368817
 40
0.6995331136985518
 40
0.7371105779703432
 40
0.7746362948795528
 40
0.8120954484992431
 40
0.8433043625083453
 40
0.8745414139401032
 40
0.9058222185466007
 40
0.9192133272939035
 40
0.9325887622814323
 40
0.9459734839013044
 40
0.9593257797415529
 40
0.9726265478039523
 40
0.9860474181480021
 40
1.0
 40
1.0
 40
1.0
 40
1.0
 10
800.630143331708
 20
47.22362540314803
 30
0.0
 10
800.9722615684751
 20
47.17778187628272
 30
0.0
 10
801.5401183472193
 20
47.10168959386571
 30
0.0
 10
802.2202301672299
 20
47.06131775903074
 30
0.0
 10
802.5821648016818
 20
47.07937323678021
 30
0.0
 10
802.719826552134
 20
47.12618341387895
 30
0.0
 10
802.7607315552568
 20
47.14850045061566
 30
0.0
 10
802.7916154969294
 20
47.17678596121874
 30
0.0
 10
802.8083810617967
 20
47.21581361972735
 30
0.0
 10
802.8019410438875
 20
47.26300110399115
 30
0.0
 10
802.7762914903732
 20
47.3119250210223
 30
0.0
 10
802.6791291230163
 20
47.43032997585958
 30
0.0
 10
802.4281506071193
 20
47.60554429945493
 30
0.0
 10
801.880226739534
 20
47.91957479062201
 30
0.0
 10
800.0570153605646
 20
48.78237876844535
 30
0.0
 10
797.0935312801488
 20
49.96617560462277
 30
0.0
 10
793.4406289303389
 20
51.48442202867795
 30
0.0
 10
790.2787881262634
 20
52.80617465265278
 30
0.0
 10
787.5430311795349
 20
53.95691610293205
 30
0.0
 10
783.6988629566998
 20
55.56201940825598
 30
0.0
 10
778.3035539220297
 20
57.706451485487
 30
0.0
 10
771.1126239242776
 20
60.4010042998234
 30
0.0
 10
763.4498038924384
 20
63.15792309060539
 30
0.0
 10
755.6451553632139
 20
65.86432163234
 30
0.0
 10
747.8987868817061
 20
68.45527354974843
 30
0.0
 10
740.2685176212867
 20
70.91920916121994
 30
0.0
 10
732.7261091632678
 20
73.27540643313554
 30
0.0
 10
722.7564156534132
 20
76.29751836771435
 30
0.0
 10
710.2573746183679
 20
79.9348412022237
 30
0.0
 10
695.1506588734055
 20
84.19402806163953
 30
0.0
 10
679.892026801578
 20
88.34038894227066
 30
0.0
 10
664.522782255546
 20
92.29745472892711
 30
0.0
 10
649.0998420835009
 20
96.00694615152436
 30
0.0
 10
633.5850891326966
 20
99.20912180652961
 30
0.0
 10
617.9258313167891
 20
101.6057956970387
 30
0.0
 10
603.1833707490424
 20
102.9172462000576
 30
0.0
 10
589.4313341565145
 20
103.2695267128743
 30
0.0
 10
576.7267731025936
 20
102.8148901997235
 30
0.0
 10
564.0772700008733
 20
101.5076164006645
 30
0.0
 10
551.5701308129424
 20
99.25024375949795
 30
0.0
 10
539.9896339964964
 20
96.12845653635924
 30
0.0
 10
529.3898304162662
 20
92.269188670937
 30
0.0
 10
519.7694772340665
 20
87.86570875982189
 30
0.0
 10
512.2635447389972
 20
83.71873066554966
 30
0.0
 10
506.803126676779
 20
80.10066865351592
 30
0.0
 10
503.189462269102
 20
77.36537565156185
 30
0.0
 10
499.7823518829227
 20
74.38268132307088
 30
0.0
 10
496.6690579910128
 20
71.09563479122569
 30
0.0
 10
494.0300318252245
 20
67.41273043431048
 30
0.0
 10
491.9560765370588
 20
63.271846814381
 30
0.0
 10
491.3206272408663
 20
60.2387581626542
 30
0.0
 10
490.9967309980972
 20
58.69275594946996
 30
0.0
  0
CIRCLE
  5
AA
330
1F
100
AcDbEntity
  8
0
  6
Continuous
 62
     7
370
    25
100
AcDbCircle
 10
737.7001707653
 20
63.7883689506
 30
0.0
 40
1.984375000000036
  0
CIRCLE
  5
AB
330
1F
100
AcDbEntity
  8
0
  6
Continuous
 62
     7
370
    25
100
AcDbCircle
 10
718.84186332
 20
69.3162090622
 30
0.0
 40
5.000000000000004
  0
CIRCLE
  5
AC
330
1F
100
AcDbEntity
  8
0
  6
Continuous
 62
     7
370
    25
100
AcDbCircle
 10
511.6783192925
 20
68.0935266579
 30
0.0
 40
5.000000000000175
  0
CIRCLE
  5
AD
330
1F
100
AcDbEntity
  8
0
  6
Continuous
 62
     7
370
    25
100
AcDbCircle
 10
656.7827529698
 20
74.1566823202
 30
0.0
 40
2.999999999999937
  0
SPLINE
  5
AE
330
1F
100
AcDbEntity
  8
0
  6
Continuous
 62
     7
370
    25
100
AcDbSpline
210
0.0
220
0.0
230
1.0
 70
     8
 71
     3
 72
    34
 73
    30
 74
     0
 42
0.00000001
 43
0.00000001
 40
0.0
 40
0.0
 40
0.0
 40
0.0
 40
0.0082689181299222
 40
0.0154777258428486
 40
0.0226235942062966
 40
0.0302461902351378
 40
0.0412685783823405
 40
0.0528301217393926
 40
0.0641633664669089
 40
0.0853026185517179
 40
0.1054254769669851
 40
0.1256740228939835
 40
0.1671822064861358
 40
0.2093300652270405
 40
0.2512469883182758
 40
0.3342613013372648
 40
0.4173415179853305
 40
0.5006658300455659
 40
0.5706282011463197
 40
0.6405156432004447
 40
0.7104265204560681
 40
0.7803306285572846
 40
0.8117106438589115
 40
0.8430964381230596
 40
0.8744849200520496
 40
0.905861254349484
 40
0.9372430728130811
 40
0.9686336644808519
 40
1.0
 40
1.0
 40
1.0
 40
1.0
 10
490.9967309980972
 20
58.69275594947007
 30
0.0
 10
491.1825156096112
 20
57.83673466224623
 30
0.0
 10
491.5302664565364
 20
56.23443765178879
 30
0.0
 10
493.0365466817792
 20
54.30742794048446
 30
0.0
 10
495.0146443169779
 20
53.07151707216393
 30
0.0
 10
497.6107024625768
 20
52.25798866618423
 30
0.0
 10
500.7636123621693
 20
51.87451303127552
 30
0.0
 10
504.3159504326869
 20
51.79867542999092
 30
0.0
 10
508.9281034528499
 20
51.78203841646176
 30
0.0
 10
514.435947727589
 20
51.67592413711117
 30
0.0
 10
520.8799619873743
 20
51.66224095052027
 30
0.0
 10
529.4504351677276
 20
52.0520423171624
 30
0.0
 10
540.282874485011
 20
53.16319943503031
 30
0.0
 10
553.3151989838392
 20
54.93483159246157
 30
0.0
 10
570.6706156628685
 20
57.18090342728585
 30
0.0
 10
592.3400581458218
 20
59.50331631146175
 30
0.0
 10
618.4282355214297
 20
61.05239713327246
 30
0.0
 10
643.1881344477703
 20
61.47425183346753
 30
0.0
 10
666.5636287140846
 20
61.10624556455943
 30
0.0
 10
688.51753402142
 20
60.2070394214936
 30
0.0
 10
710.447071517185
 20
58.97294363612824
 30
0.0
 10
728.3256246105377
 20
57.50997092514207
 30
0.0
 10
742.1143832353107
 20
55.78032665629459
 30
0.0
 10
751.8983656950207
 20
54.54204639044743
 30
0.0
 10
761.7007372184878
 20
53.466600486579
 30
0.0
 10
771.485913638051
 20
52.22429907045264
 30
0.0
 10
781.1987732370546
 20
50.51047891380342
 30
0.0
 10
791.009613202524
 20
49.41352386537753
 30
0.0
 10
797.4241263787428
 20
47.95340344041907
 30
0.0
 10
800.630143331708
 20
47.22362540314803
 30
0.0
  0
MTEXT
  5
B0
330
1F
100
AcDbEntity
  8
0
  6
Continuous
 62
     7
100
AcDbMText
 10
0.0
 20
7.3534328773
 30
0.0
 40
2.63652
 41
0.0
 71
     1
 72
     1
  1
SOLIDWORKS Educational Product.
  7
SLDTEXTSTYLE0
 73
     1
 44
1.0
  0
MTEXT
  5
B1
330
1F
100
AcDbEntity
  8
0
  6
Continuous
 62
     7
100
AcDbMText
 10
0.0
 20
3.3986528773
 30
0.0
 40
2.63652
 41
0.0
 71
     1
 72
     1
  1
For Instructional Use Only.
  7
SLDTEXTSTYLE0
 73
     1
 44
1.0
  0
ENDSEC
  0
SECTION
  2
OBJECTS
  0
DICTIONARY
  5
C
330
0
100
AcDbDictionary
281
     1
  3
ACAD_GROUP
350
D
  3
ACAD_LAYOUT
350
1A
  3
ACAD_MLINESTYLE
350
17
  3
ACAD_PLOTSETTINGS
350
19
  3
ACAD_PLOTSTYLENAME
350
E
  3
ACAD_SCALELIST
350
47
  3
DWGPROPS
350
B2
  0
DICTIONARY
  5
D
102
{ACAD_REACTORS
330
C
102
}
330
C
100
AcDbDictionary
281
     1
  0
DICTIONARY
  5
1A
102
{ACAD_REACTORS
330
C
102
}
330
C
100
AcDbDictionary
281
     1
  3
Layout1
350
1E
  3
Layout2
350
26
  3
Model
350
22
  0
DICTIONARY
  5
17
102
{ACAD_REACTORS
330
C
102
}
330
C
100
AcDbDictionary
281
     1
  3
Standard
350
18
  0
DICTIONARY
  5
19
102
{ACAD_REACTORS
330
C
102
}
330
C
100
AcDbDictionary
281
     1
  0
ACDBDICTIONARYWDFLT
  5
E
102
{ACAD_REACTORS
330
C
102
}
330
C
100
AcDbDictionary
281
     1
  3
Normal
350
F
100
AcDbDictionaryWithDefault
340
F
  0
DICTIONARY
  5
47
102
{ACAD_REACTORS
330
C
102
}
330
C
100
AcDbDictionary
281
     1
  3
A0
350
48
  3
A1
350
49
  3
A2
350
4A
  3
A3
350
4B
  3
A4
350
4C
  3
A5
350
4D
  3
A6
350
4E
  3
A7
350
4F
  3
A8
350
50
  3
A9
350
51
  3
B0
350
52
  3
B1
350
53
  3
B2
350
54
  3
B3
350
55
  3
B4
350
56
  3
B5
350
57
  3
B6
350
58
  0
XRECORD
  5
B2
102
{ACAD_REACTORS
330
C
102
}
330
C
100
AcDbXrecord
280
     1
  1
DWGPROPS COOKIE
  2

  3

  4

  6

  7

  8
joshu
  9

300
=
301
=
302
=
303
=
304
=
305
=
306
=
307
=
308
=
309
=
 40
0.0
 41
2460356.68349735
 42
2460356.683497708
  1

 90
        0
  0
LAYOUT
  5
1E
102
{ACAD_REACTORS
330
1A
102
}
330
1A
100
AcDbPlotSettings
  1

  2
none_device
  4

  6

 40
0.0
 41
0.0
 42
0.0
 43
0.0
 44
0.0
 45
0.0
 46
0.0
 47
0.0
 48
0.0
 49
0.0
140
0.0
141
0.0
142
1.0
143
1.0
 70
   688
 72
     1
 73
     0
 74
     5
  7

 75
    16
147
1.0
148
0.0
149
0.0
100
AcDbLayout
  1
Layout1
 70
     1
 71
     1
 10
0.0
 20
0.0
 11
420.0
 21
297.0
 12
0.0
 22
0.0
 32
0.0
 14
1.0000000000E+20
 24
1.0000000000E+20
 34
1.0000000000E+20
 15
-1.0000000000E+20
 25
-1.0000000000E+20
 35
-1.0000000000E+20
146
0.0
 13
0.0
 23
0.0
 33
0.0
 16
1.0
 26
0.0
 36
0.0
 17
0.0
 27
1.0
 37
0.0
 76
     0
330
1B
  0
LAYOUT
  5
26
102
{ACAD_REACTORS
330
1A
102
}
330
1A
100
AcDbPlotSettings
  1

  2
none_device
  4

  6

 40
0.0
 41
0.0
 42
0.0
 43
0.0
 44
0.0
 45
0.0
 46
0.0
 47
0.0
 48
0.0
 49
0.0
140
0.0
141
0.0
142
1.0
143
1.0
 70
   688
 72
     1
 73
     0
 74
     5
  7

 75
    16
147
1.0
148
0.0
149
0.0
100
AcDbLayout
  1
Layout2
 70
     1
 71
     2
 10
0.0
 20
0.0
 11
0.0
 21
0.0
 12
0.0
 22
0.0
 32
0.0
 14
0.0
 24
0.0
 34
0.0
 15
0.0
 25
0.0
 35
0.0
146
0.0
 13
0.0
 23
0.0
 33
0.0
 16
1.0
 26
0.0
 36
0.0
 17
0.0
 27
1.0
 37
0.0
 76
     0
330
23
  0
LAYOUT
  5
22
102
{ACAD_REACTORS
330
1A
102
}
330
1A
100
AcDbPlotSettings
  1

  2
none_device
  4
Letter_(8.50_x_11.00_Inches)
  6

 40
6.35
 41
6.35
 42
6.35000508
 43
6.35000508
 44
215.9
 45
279.4
 46
0.0
 47
0.0
 48
0.0
 49
0.0
140
0.0
141
0.0
142
1.0
143
1.0
 70
  1712
 72
     1
 73
     0
 74
     0
  7

 75
     0
147
1.0
148
0.0
149
0.0
100
AcDbLayout
  1
Model
 70
     1
 71
     0
 10
0.0
 20
0.0
 11
1016.0
 21
152.4
 12
0.0
 22
0.0
 32
0.0
 14
0.0
 24
0.0
 34
0.0
 15
1016.0
 25
152.4
 35
0.0
146
0.0
 13
0.0
 23
0.0
 33
0.0
 16
1.0
 26
0.0
 36
0.0
 17
0.0
 27
1.0
 37
0.0
 76
     0
330
1F
331
29
  0
MLINESTYLE
  5
18
102
{ACAD_REACTORS
330
17
102
}
330
17
100
AcDbMlineStyle
  2
Standard
 70
     0
  3

 62
   256
 51
90.0
 52
90.0
 71
     2
 49
0.5
 62
   256
  6
BYLAYER
 49
-0.5
 62
   256
  6
BYLAYER
  0
ACDBPLACEHOLDER
  5
F
102
{ACAD_REACTORS
330
E
102
}
330
E
  0
SCALE
  5
48
102
{ACAD_REACTORS
330
47
102
}
330
47
100
AcDbScale
 70
     0
300
1:1
140
1.0
141
1.0
290
     1
  0
SCALE
  5
49
102
{ACAD_REACTORS
330
47
102
}
330
47
100
AcDbScale
 70
     0
300
1:2
140
1.0
141
2.0
290
     0
  0
SCALE
  5
4A
102
{ACAD_REACTORS
330
47
102
}
330
47
100
AcDbScale
 70
     0
300
1:4
140
1.0
141
4.0
290
     0
  0
SCALE
  5
4B
102
{ACAD_REACTORS
330
47
102
}
330
47
100
AcDbScale
 70
     0
300
1:5
140
1.0
141
5.0
290
     0
  0
SCALE
  5
4C
102
{ACAD_REACTORS
330
47
102
}
330
47
100
AcDbScale
 70
     0
300
1:8
140
1.0
141
8.0
290
     0
  0
SCALE
  5
4D
102
{ACAD_REACTORS
330
47
102
}
330
47
100
AcDbScale
 70
     0
300
1:10
140
1.0
141
10.0
290
     0
  0
SCALE
  5
4E
102
{ACAD_REACTORS
330
47
102
}
330
47
100
AcDbScale
 70
     0
300
1:16
140
1.0
141
16.0
290
     0
  0
SCALE
  5
4F
102
{ACAD_REACTORS
330
47
102
}
330
47
100
AcDbScale
 70
     0
300
1:20
140
1.0
141
20.0
290
     0
  0
SCALE
  5
50
102
{ACAD_REACTORS
330
47
102
}
330
47
100
AcDbScale
 70
     0
300
1:30
140
1.0
141
30.0
290
     0
  0
SCALE
  5
51
102
{ACAD_REACTORS
330
47
102
}
330
47
100
AcDbScale
 70
     0
300
1:40
140
1.0
141
40.0
290
     0
  0
SCALE
  5
52
102
{ACAD_REACTORS
330
47
102
}
330
47
100
AcDbScale
 70
     0
300
1:50
140
1.0
141
50.0
290
     0
  0
SCALE
  5
53
102
{ACAD_REACTORS
330
47
102
}
330
47
100
AcDbScale
 70
     0
300
1:100
140
1.0
141
100.0
290
     0
  0
SCALE
  5
54
102
{ACAD_REACTORS
330
47
102
}
330
47
100
AcDbScale
 70
     0
300
2:1
140
2.0
141
1.0
290
     0
  0
SCALE
  5
55
102
{ACAD_REACTORS
330
47
102
}
330
47
100
AcDbScale
 70
     0
300
4:1
140
4.0
141
1.0
290
     0
  0
SCALE
  5
56
102
{ACAD_REACTORS
330
47
102
}
330
47
100
AcDbScale
 70
     0
300
8:1
140
8.0
141
1.0
290
     0
  0
SCALE
  5
57
102
{ACAD_REACTORS
330
47
102
}
330
47
100
AcDbScale
 70
     0
300
10:1
140
10.0
141
1.0
290
     0
  0
SCALE
  5
58
102
{ACAD_REACTORS
330
47
102
}
330
47
100
AcDbScale
 70
     0
300
100:1
140
100.0
141
1.0
290
     0
  0
ENDSEC
  0
EOF
