  0
SECTION
  2
HEADER
  9
$ACADVER
  1
AC1015
  9
$ACADMAINTVER
 70
     6
  9
$DWGCODEPAGE
  3
ANSI_1252
  9
$INSBASE
 10
0.0
 20
0.0
 30
0.0
  9
$EXTMIN
 10
0.0
 20
0.0
 30
0.0
  9
$EXTMAX
 10
1016.0
 20
152.4
 30
0.0
  9
$LIMMIN
 10
0.0
 20
0.0
  9
$LIMMAX
 10
1016.0
 20
152.4
  9
$ORTHOMODE
 70
     0
  9
$REGENMODE
 70
     1
  9
$FILLMODE
 70
     1
  9
$QTEXTMODE
 70
     0
  9
$MIRRTEXT
 70
     1
  9
$LTSCALE
 40
1.0
  9
$ATTMODE
 70
     1
  9
$TEXTSIZE
 40
3.5
  9
$TRACEWID
 40
1.0
  9
$TEXTSTYLE
  7
Standard
  9
$CLAYER
  8
0
  9
$CELTYPE
  6
ByLayer
  9
$CECOLOR
 62
   256
  9
$CELTSCALE
 40
1.0
  9
$DISPSILH
 70
     0
  9
$DIMSCALE
 40
1.0
  9
$DIMASZ
 40
3.556
  9
$DIMEXO
 40
1.0
  9
$DIMDLI
 40
3.75
  9
$DIMRND
 40
0.0
  9
$DIMDLE
 40
0.0
  9
$DIMEXE
 40
1.0
  9
$DIMTP
 40
0.0
  9
$DIMTM
 40
0.0
  9
$DIMTXT
 40
3.5
  9
$DIMCEN
 40
2.5
  9
$DIMTSZ
 40
0.0
  9
$DIMTOL
 70
     0
  9
$DIMLIM
 70
     0
  9
$DIMTIH
 70
     1
  9
$DIMTOH
 70
     1
  9
$DIMSE1
 70
     0
  9
$DIMSE2
 70
     0
  9
$DIMTAD
 70
     1
  9
$DIMZIN
 70
     1
  9
$DIMBLK
  1

  9
$DIMASO
 70
     1
  9
$DIMSHO
 70
     1
  9
$DIMPOST
  1

  9
$DIMAPOST
  1

  9
$DIMALT
 70
     0
  9
$DIMALTD
 70
     3
  9
$DIMALTF
 40
0.0393700787
  9
$DIMLFAC
 40
5.0
  9
$DIMTOFL
 70
     1
  9
$DIMTVP
 40
0.0
  9
$DIMTIX
 70
     0
  9
$DIMSOXD
 70
     0
  9
$DIMSAH
 70
     0
  9
$DIMBLK1
  1

  9
$DIMBLK2
  1

  9
$DIMSTYLE
  2
ISO-25
  9
$DIMCLRD
 70
     0
  9
$DIMCLRE
 70
     0
  9
$DIMCLRT
 70
     0
  9
$DIMTFAC
 40
1.0
  9
$DIMGAP
 40
1.524
  9
$DIMJUST
 70
     0
  9
$DIMSD1
 70
     0
  9
$DIMSD2
 70
     0
  9
$DIMTOLJ
 70
     0
  9
$DIMTZIN
 70
     1
  9
$DIMALTZ
 70
     0
  9
$DIMALTTZ
 70
     0
  9
$DIMUPT
 70
     0
  9
$DIMDEC
 70
     2
  9
$DIMTDEC
 70
     2
  9
$DIMALTU
 70
     2
  9
$DIMALTTD
 70
     3
  9
$DIMTXSTY
  7
Standard
  9
$DIMAUNIT
 70
     0
  9
$DIMADEC
 70
     2
  9
$DIMALTRND
 40
0.0
  9
$DIMAZIN
 70
     0
  9
$DIMDSEP
 70
    44
  9
$DIMATFIT
 70
     3
  9
$DIMFRAC
 70
     0
  9
$DIMLDRBLK
  1

  9
$DIMLUNIT
 70
     2
  9
$DIMLWD
 70
    -2
  9
$DIMLWE
 70
    -2
  9
$DIMTMOVE
 70
     0
  9
$LUNITS
 70
     2
  9
$LUPREC
 70
     2
  9
$SKETCHINC
 40
1.0
  9
$FILLETRAD
 40
0.0
  9
$AUNITS
 70
     0
  9
$AUPREC
 70
     2
  9
$MENU
  1
.
  9
$ELEVATION
 40
0.0
  9
$PELEVATION
 40
0.0
  9
$THICKNESS
 40
0.0
  9
$LIMCHECK
 70
     0
  9
$CHAMFERA
 40
0.0
  9
$CHAMFERB
 40
0.0
  9
$CHAMFERC
 40
0.0
  9
$CHAMFERD
 40
0.0
  9
$SKPOLY
 70
     0
  9
$TDCREATE
 40
2460356.546278622
  9
$TDUCREATE
 40
2460356.754611956
  9
$TDUPDATE
 40
2460356.546278981
  9
$TDUUPDATE
 40
2460356.754612315
  9
$TDINDWG
 40
0.0000000116
  9
$TDUSRTIMER
 40
0.0000000116
  9
$USRTIMER
 70
     1
  9
$ANGBASE
 50
0.0
  9
$ANGDIR
 70
     0
  9
$PDMODE
 70
     0
  9
$PDSIZE
 40
-1.0
  9
$PLINEWID
 40
0.0
  9
$SPLFRAME
 70
     0
  9
$SPLINETYPE
 70
     6
  9
$SPLINESEGS
 70
     8
  9
$HANDSEED
  5
B3
  9
$SURFTAB1
 70
     6
  9
$SURFTAB2
 70
     6
  9
$SURFTYPE
 70
     6
  9
$SURFU
 70
     6
  9
$SURFV
 70
     6
  9
$UCSBASE
  2

  9
$UCSNAME
  2

  9
$UCSORG
 10
0.0
 20
0.0
 30
0.0
  9
$UCSXDIR
 10
1.0
 20
0.0
 30
0.0
  9
$UCSYDIR
 10
0.0
 20
1.0
 30
0.0
  9
$UCSORTHOREF
  2

  9
$UCSORTHOVIEW
 70
     0
  9
$UCSORGTOP
 10
0.0
 20
0.0
 30
0.0
  9
$UCSORGBOTTOM
 10
0.0
 20
0.0
 30
0.0
  9
$UCSORGLEFT
 10
0.0
 20
0.0
 30
0.0
  9
$UCSORGRIGHT
 10
0.0
 20
0.0
 30
0.0
  9
$UCSORGFRONT
 10
0.0
 20
0.0
 30
0.0
  9
$UCSORGBACK
 10
0.0
 20
0.0
 30
0.0
  9
$PUCSBASE
  2

  9
$PUCSNAME
  2

  9
$PUCSORG
 10
0.0
 20
0.0
 30
0.0
  9
$PUCSXDIR
 10
1.0
 20
0.0
 30
0.0
  9
$PUCSYDIR
 10
0.0
 20
1.0
 30
0.0
  9
$PUCSORTHOREF
  2

  9
$PUCSORTHOVIEW
 70
     0
  9
$PUCSORGTOP
 10
0.0
 20
0.0
 30
0.0
  9
$PUCSORGBOTTOM
 10
0.0
 20
0.0
 30
0.0
  9
$PUCSORGLEFT
 10
0.0
 20
0.0
 30
0.0
  9
$PUCSORGRIGHT
 10
0.0
 20
0.0
 30
0.0
  9
$PUCSORGFRONT
 10
0.0
 20
0.0
 30
0.0
  9
$PUCSORGBACK
 10
0.0
 20
0.0
 30
0.0
  9
$USERI1
 70
     0
  9
$USERI2
 70
     0
  9
$USERI3
 70
     0
  9
$USERI4
 70
     0
  9
$USERI5
 70
     0
  9
$USERR1
 40
0.0
  9
$USERR2
 40
0.0
  9
$USERR3
 40
0.0
  9
$USERR4
 40
0.0
  9
$USERR5
 40
0.0
  9
$WORLDVIEW
 70
     1
  9
$SHADEDGE
 70
     3
  9
$SHADEDIF
 70
    70
  9
$TILEMODE
 70
     1
  9
$MAXACTVP
 70
    64
  9
$PINSBASE
 10
0.0
 20
0.0
 30
0.0
  9
$PLIMCHECK
 70
     0
  9
$PEXTMIN
 10
1.0000000000E+20
 20
1.0000000000E+20
 30
1.0000000000E+20
  9
$PEXTMAX
 10
-1.0000000000E+20
 20
-1.0000000000E+20
 30
-1.0000000000E+20
  9
$PLIMMIN
 10
0.0
 20
0.0
  9
$PLIMMAX
 10
420.0
 20
297.0
  9
$UNITMODE
 70
     0
  9
$VISRETAIN
 70
     1
  9
$PLINEGEN
 70
     0
  9
$PSLTSCALE
 70
     1
  9
$TREEDEPTH
 70
  3020
  9
$CMLSTYLE
  2
Standard
  9
$CMLJUST
 70
     0
  9
$CMLSCALE
 40
20.0
  9
$PROXYGRAPHICS
 70
     1
  9
$MEASUREMENT
 70
     1
  9
$CELWEIGHT
370
    -1
  9
$ENDCAPS
280
     0
  9
$JOINSTYLE
280
     0
  9
$LWDISPLAY
290
     1
  9
$INSUNITS
 70
     4
  9
$HYPERLINKBASE
  1

  9
$STYLESHEET
  1

  9
$XEDIT
290
     1
  9
$CEPSNTYPE
380
     0
  9
$PSTYLEMODE
290
     1
  9
$FINGERPRINTGUID
  2
{1b97f679-4d17-474a-9cc1-0aa130d12675}
  9
$VERSIONGUID
  2
{FAEB1C32-E019-11D5-929B-00C0DF256EC4}
  9
$EXTNAMES
290
     1
  9
$PSVPSCALE
 40
0.0
  9
$OLESTARTUP
290
     0
  0
ENDSEC
  0
SECTION
  2
CLASSES
  0
CLASS
  1
ACDBDICTIONARYWDFLT
  2
AcDbDictionaryWithDefault
  3
ObjectDBX Classes
 90
        0
280
     0
281
     0
  0
CLASS
  1
VISUALSTYLE
  2
AcDbVisualStyle
  3
ObjectDBX Classes
 90
     4095
280
     0
281
     0
  0
CLASS
  1
MATERIAL
  2
AcDbMaterial
  3
ObjectDBX Classes
 90
     1153
280
     0
281
     0
  0
CLASS
  1
SCALE
  2
AcDbScale
  3
ObjectDBX Classes
 90
     1153
280
     0
281
     0
  0
CLASS
  1
TABLESTYLE
  2
AcDbTableStyle
  3
ObjectDBX Classes
 90
     4095
280
     0
281
     0
  0
CLASS
  1
MLEADERSTYLE
  2
AcDbMLeaderStyle
  3
ACDB_MLEADERSTYLE_CLASS
 90
     4095
280
     0
281
     0
  0
CLASS
  1
SUN
  2
AcDbSun
  3
SCENEOE
 90
     1153
280
     0
281
     0
  0
CLASS
  1
ACDBPLACEHOLDER
  2
AcDbPlaceHolder
  3
ObjectDBX Classes
 90
        0
280
     0
281
     0
  0
CLASS
  1
LAYOUT
  2
AcDbLayout
  3
ObjectDBX Classes
 90
        0
280
     0
281
     0
  0
ENDSEC
  0
SECTION
  2
TABLES
  0
TABLE
  2
VPORT
  5
8
330
0
100
AcDbSymbolTable
 70
     1
  0
VPORT
  5
29
330
8
100
AcDbSymbolTableRecord
100
AcDbViewportTableRecord
  2
*Active
 70
     0
 10
0.0
 20
0.0
 11
1.0
 21
1.0
 12
508.0
 22
76.2
 13
0.0
 23
0.0
 14
10.0
 24
10.0
 15
10.0
 25
10.0
 16
0.0
 26
0.0
 36
1.0
 17
0.0
 27
0.0
 37
0.0
 40
152.4
 41
6.6666666667
 42
50.0
 43
0.0
 44
0.0
 50
0.0
 51
0.0
 71
     0
 72
  2000
 73
     1
 74
     3
 75
     0
 76
     0
 77
     0
 78
     0
281
     0
 65
     1
110
0.0
120
0.0
130
0.0
111
1.0
121
0.0
131
0.0
112
0.0
122
1.0
132
0.0
 79
     0
146
0.0
  0
ENDTAB
  0
TABLE
  2
LTYPE
  5
5
330
0
100
AcDbSymbolTable
 70
     6
  0
LTYPE
  5
14
330
5
100
AcDbSymbolTableRecord
100
AcDbLinetypeTableRecord
  2
ByBlock
 70
     0
  3

 72
    65
 73
     0
 40
0.0
  0
LTYPE
  5
15
330
5
100
AcDbSymbolTableRecord
100
AcDbLinetypeTableRecord
  2
ByLayer
 70
     0
  3

 72
    65
 73
     0
 40
0.0
  0
LTYPE
  5
16
330
5
100
AcDbSymbolTableRecord
100
AcDbLinetypeTableRecord
  2
Continuous
 70
     0
  3
Solid line
 72
    65
 73
     0
 40
0.0
  0
LTYPE
  5
5E
330
5
100
AcDbSymbolTableRecord
100
AcDbLinetypeTableRecord
  2
HIDDEN
 70
     0
  3
Hidden __ __ __ __ __ __ __ __ __ __ __ __ __ __
 72
    65
 73
     2
 40
1.905
 49
1.27
 74
     0
 49
-0.635
 74
     0
  0
LTYPE
  5
5F
330
5
100
AcDbSymbolTableRecord
100
AcDbLinetypeTableRecord
  2
PHANTOM
 70
     0
  3
Phantom ______  __  __  ______  __  __  ______
 72
    65
 73
     6
 40
12.7
 49
6.35
 74
     0
 49
-1.27
 74
     0
 49
1.27
 74
     0
 49
-1.27
 74
     0
 49
1.27
 74
     0
 49
-1.27
 74
     0
  0
LTYPE
  5
60
330
5
100
AcDbSymbolTableRecord
100
AcDbLinetypeTableRecord
  2
CENTER
 70
     0
  3
Center ____ _ ____ _ ____ _ ____ _ ____ _ ____
 72
    65
 73
     4
 40
10.16
 49
6.35
 74
     0
 49
-1.27
 74
     0
 49
1.27
 74
     0
 49
-1.27
 74
     0
  0
LTYPE
  5
61
330
5
100
AcDbSymbolTableRecord
100
AcDbLinetypeTableRecord
  2
CENTERX2
 70
     0
  3
Center (2x) ________  __  ________  __  _____
 72
    65
 73
     4
 40
20.32
 49
12.7
 74
     0
 49
-2.54
 74
     0
 49
2.54
 74
     0
 49
-2.54
 74
     0
  0
LTYPE
  5
62
330
5
100
AcDbSymbolTableRecord
100
AcDbLinetypeTableRecord
  2
DOT2
 70
     0
  3
Dot (.5x) ........................................
 72
    65
 73
     2
 40
0.635
 49
0.0
 74
     0
 49
-0.635
 74
     0
  0
ENDTAB
  0
TABLE
  2
LAYER
  5
2
330
0
100
AcDbSymbolTable
 70
     1
  0
LAYER
  5
10
330
2
100
AcDbSymbolTableRecord
100
AcDbLayerTableRecord
  2
0
 70
     0
 62
     7
  6
Continuous
370
    -3
390
F
  0
ENDTAB
  0
TABLE
  2
STYLE
  5
3
330
0
100
AcDbSymbolTable
 70
     2
  0
STYLE
  5
11
330
3
100
AcDbSymbolTableRecord
100
AcDbTextStyleTableRecord
  2
Standard
 70
     0
 40
0.0
 41
1.0
 50
0.0
 71
     0
 42
3.5
  3
txt
  4

  0
STYLE
  5
AF
330
3
100
AcDbSymbolTableRecord
100
AcDbTextStyleTableRecord
  2
SLDTEXTSTYLE0
 70
     0
 40
0.0
 41
0.7
 50
0.0
 71
     0
 42
3.5
  3
TXT
  4

  0
ENDTAB
  0
TABLE
  2
VIEW
  5
6
330
0
100
AcDbSymbolTable
 70
     0
  0
ENDTAB
  0
TABLE
  2
UCS
  5
7
330
0
100
AcDbSymbolTable
 70
     0
  0
ENDTAB
  0
TABLE
  2
APPID
  5
9
330
0
100
AcDbSymbolTable
 70
     1
  0
APPID
  5
12
330
9
100
AcDbSymbolTableRecord
100
AcDbRegAppTableRecord
  2
ACAD
 70
     0
  0
ENDTAB
  0
TABLE
  2
DIMSTYLE
  5
A
330
0
100
AcDbSymbolTable
 70
     1
100
AcDbDimStyleTable
  0
DIMSTYLE
105
27
330
A
100
AcDbSymbolTableRecord
100
AcDbDimStyleTableRecord
  2
ISO-25
 70
     0
 41
2.5
 42
0.625
 43
3.75
 44
1.25
 73
     0
 74
     0
 77
     1
 78
     8
140
2.5
141
2.5
143
0.0393700787
147
0.625
171
     3
172
     1
178
     0
271
     2
272
     2
274
     3
278
    44
283
     0
284
     8
340
11
  0
ENDTAB
  0
TABLE
  2
BLOCK_RECORD
  5
1
330
0
100
AcDbSymbolTable
 70
     1
  0
BLOCK_RECORD
  5
1F
330
1
100
AcDbSymbolTableRecord
100
AcDbBlockTableRecord
  2
*Model_Space
340
22
  0
BLOCK_RECORD
  5
1B
330
1
100
AcDbSymbolTableRecord
100
AcDbBlockTableRecord
  2
*Paper_Space
340
1E
  0
BLOCK_RECORD
  5
23
330
1
100
AcDbSymbolTableRecord
100
AcDbBlockTableRecord
  2
*Paper_Space0
340
26
  0
ENDTAB
  0
ENDSEC
  0
SECTION
  2
BLOCKS
  0
BLOCK
  5
20
330
1F
100
AcDbEntity
  8
0
100
AcDbBlockBegin
  2
*Model_Space
 70
     0
 10
0.0
 20
0.0
 30
0.0
  3
*Model_Space
  1

  0
ENDBLK
  5
21
330
1F
100
AcDbEntity
  8
0
100
AcDbBlockEnd
  0
BLOCK
  5
1C
330
1B
100
AcDbEntity
 67
     1
  8
0
100
AcDbBlockBegin
  2
*Paper_Space
 70
     0
 10
0.0
 20
0.0
 30
0.0
  3
*Paper_Space
  1

  0
ENDBLK
  5
1D
330
1B
100
AcDbEntity
 67
     1
  8
0
100
AcDbBlockEnd
  0
BLOCK
  5
24
330
23
100
AcDbEntity
  8
0
100
AcDbBlockBegin
  2
*Paper_Space0
 70
     0
 10
0.0
 20
0.0
 30
0.0
  3
*Paper_Space0
  1

  0
ENDBLK
  5
25
330
23
100
AcDbEntity
  8
0
100
AcDbBlockEnd
  0
ENDSEC
  0
SECTION
  2
ENTITIES
  0
LINE
  5
63
330
1F
100
AcDbEntity
  8
0
  6
Continuous
 62
     7
370
    25
100
AcDbLine
 10
1015.9686436195
 20
152.3195078972
 30
0.0
 11
-0.0313563805
 21
152.3195078972
 31
0.0
  0
LINE
  5
64
330
1F
100
AcDbEntity
  8
0
  6
Continuous
 62
     7
370
    25
100
AcDbLine
 10
1015.9686436195
 20
-0.0804921028
 30
0.0
 11
1015.9686436195
 21
152.3195078972
 31
0.0
  0
LINE
  5
65
330
1F
100
AcDbEntity
  8
0
  6
Continuous
 62
     7
370
    25
100
AcDbLine
 10
-0.0313563805
 20
-0.0804921028
 30
0.0
 11
1015.9686436195
 21
-0.0804921028
 31
0.0
  0
LINE
  5
66
330
1F
100
AcDbEntity
  8
0
  6
Continuous
 62
     7
370
    25
100
AcDbLine
 10
-0.0313563805
 20
152.3195078972
 30
0.0
 11
-0.0313563805
 21
-0.0804921028
 31
0.0
  0
LINE
  5
67
330
1F
100
AcDbEntity
  8
0
  6
Continuous
 62
     7
370
    25
100
AcDbLine
 10
548.6009222949
 20
104.8674935108
 30
0.0
 11
551.471856006
 21
139.1822697136
 31
0.0
  0
SPLINE
  5
68
330
1F
100
AcDbEntity
  8
0
  6
Continuous
 62
     7
370
    25
100
AcDbSpline
210
0.0
220
0.0
230
1.0
 70
     8
 71
     3
 72
    26
 73
    22
 74
     0
 42
0.00000001
 43
0.00000001
 40
0.0
 40
0.0
 40
0.0
 40
0.0
 40
0.050397726582594
 40
0.1005277783516287
 40
0.1480889907517827
 40
0.1966636604485072
 40
0.2464508760840324
 40
0.2942180994160778
 40
0.3479846122259344
 40
0.4012202494474738
 40
0.4543285983563758
 40
0.5077334398726453
 40
0.559924418349994
 40
0.6139097976076419
 40
0.6668021468510357
 40
0.7199806106682417
 40
0.7731015458781235
 40
0.8248817571248049
 40
0.8839843080048626
 40
0.9416299461365998
 40
1.0
 40
1.0
 40
1.0
 40
1.0
 10
735.3081352702573
 20
120.5302425093298
 30
0.0
 10
732.3031139703862
 20
121.5296479735918
 30
0.0
 10
726.3090317833597
 20
123.5231508120599
 30
0.0
 10
717.4584700791426
 20
126.3973578654818
 30
0.0
 10
708.6993542373119
 20
129.1816340326836
 30
0.0
 10
699.9394130319059
 20
131.8914219018091
 30
0.0
 10
691.1438933136851
 20
134.5289199897741
 30
0.0
 10
682.0070994488224
 20
137.1626808577356
 30
0.0
 10
672.6158281254994
 20
139.6924202436737
 30
0.0
 10
662.8377399352881
 20
142.0666333648142
 30
0.0
 10
653.0113514561953
 20
144.1272476957181
 30
0.0
 10
643.180603056618
 20
145.816968546446
 30
0.0
 10
633.2375656536336
 20
147.1359763797378
 30
0.0
 10
623.2799328666439
 20
148.0401538608241
 30
0.0
 10
613.2298443310061
 20
148.5050871198502
 30
0.0
 10
603.2227821319078
 20
148.5021838801755
 30
0.0
 10
593.2977744041061
 20
148.0028330413103
 30
0.0
 10
583.041607377135
 20
146.9390722802608
 30
0.0
 10
572.5908793163971
 20
145.1912479952777
 30
0.0
 10
561.8627233979174
 20
142.6780379880513
 30
0.0
 10
554.9498609138436
 20
140.3523824400681
 30
0.0
 10
551.4718473054553
 20
139.1822938316306
 30
0.0
  0
LINE
  5
69
330
1F
100
AcDbEntity
  8
0
  6
Continuous
 62
     7
370
    25
100
AcDbLine
 10
735.308135817
 20
120.5302441458
 30
0.0
 11
733.4502024397
 21
98.3233336217
 31
0.0
  0
ARC
  5
6A
330
1F
100
AcDbEntity
  8
0
  6
Continuous
 62
     7
370
    25
100
AcDbCircle
 10
744.5240129433
 20
97.3968471514
 30
0.0
 40
11.11250000000022
100
AcDbArc
 50
175.217506747
 51
355.217506747
  0
LINE
  5
6B
330
1F
100
AcDbEntity
  8
0
  6
Continuous
 62
     7
370
    25
100
AcDbLine
 10
755.5978234469
 20
96.470360681
 30
0.0
 11
756.9900430165
 21
113.1108364853
 31
0.0
  0
SPLINE
  5
6C
330
1F
100
AcDbEntity
  8
0
  6
Continuous
 62
     7
370
    25
100
AcDbSpline
210
0.0
220
0.0
230
1.0
 70
     8
 71
     3
 72
    32
 73
    28
 74
     0
 42
0.00000001
 43
0.00000001
 40
0.0
 40
0.0
 40
0.0
 40
0.0
 40
0.0259843027267753
 40
0.0519011127925582
 40
0.0775691294706308
 40
0.1033335837620909
 40
0.1291040959630377
 40
0.1548030404876349
 40
0.1805473028096262
 40
0.2063411229099648
 40
0.2321056119253589
 40
0.2578039962408637
 40
0.2835809763114739
 40
0.2963324783748286
 40
0.3094133329765723
 40
0.3521499687625139
 40
0.396058256747937
 40
0.4395198184901565
 40
0.4844021747604859
 40
0.525177677299319
 40
0.5660625884427087
 40
0.6110703806908958
 40
0.6534981624533439
 40
0.6963677586058639
 40
0.7983531743582678
 40
0.8972151923649794
 40
1.0
 40
1.0
 40
1.0
 40
1.0
 10
821.8225753652944
 20
57.63706014594862
 30
0.0
 10
822.8604350565179
 20
57.43797232127159
 30
0.0
 10
824.9334586609393
 20
57.04031379054873
 30
0.0
 10
828.1076892493709
 20
56.94987677089986
 30
0.0
 10
831.2162980002378
 20
57.59074625750686
 30
0.0
 10
834.0773899435094
 20
58.95253089925205
 30
0.0
 10
836.5243607217111
 20
60.96885865419183
 30
0.0
 10
838.4069453688419
 20
63.51894805268716
 30
0.0
 10
839.612431288538
 20
66.45175757612758
 30
0.0
 10
840.0663626977072
 20
69.59278861353448
 30
0.0
 10
839.740584989066
 20
72.74777996129302
 30
0.0
 10
838.6597673561329
 20
75.72767494231788
 30
0.0
 10
837.188076873919
 20
77.9170788186079
 30
0.0
 10
835.7265006054441
 20
79.42623217939848
 30
0.0
 10
833.5681963345365
 20
81.20099603505831
 30
0.0
 10
829.9255262803073
 20
83.05088022403717
 30
0.0
 10
825.127380351052
 20
85.24746004143994
 30
0.0
 10
820.2700193319446
 20
87.55557152648404
 30
0.0
 10
815.534703888224
 20
89.81516169361161
 30
0.0
 10
810.8605460016488
 20
91.96123407042502
 30
0.0
 10
806.1477212657231
 20
94.032850093006
 30
0.0
 10
801.3509145968942
 20
96.07949097461729
 30
0.0
 10
796.4617259351692
 20
98.11451649354379
 30
0.0
 10
789.4126994952884
 20
100.9859721749044
 30
0.0
 10
780.1950700861958
 20
104.6124536235418
 30
0.0
 10
768.644575558938
 20
108.9570665489699
 30
0.0
 10
760.9249377797519
 20
111.7083824184453
 30
0.0
 10
756.9900308868688
 20
113.1108020771096
 30
0.0
  0
SPLINE
  5
6D
330
1F
100
AcDbEntity
  8
0
  6
Continuous
 62
     7
370
    25
100
AcDbSpline
210
0.0
220
0.0
230
1.0
 70
     8
 71
     3
 72
    44
 73
    40
 74
     0
 42
0.00000001
 43
0.00000001
 40
0.0
 40
0.0
 40
0.0
 40
0.0
 40
0.007823761376021
 40
0.0156096341703308
 40
0.023492962384817
 40
0.031279731938315
 40
0.0391064305825191
 40
0.0469479562046856
 40
0.0547061693389436
 40
0.0626000932147071
 40
0.0728609308211231
 40
0.0831691160613972
 40
0.0938614173946131
 40
0.1251824537399524
 40
0.1585889657329348
 40
0.1906535530886262
 40
0.2231575485209679
 40
0.2559401398421252
 40
0.2887311756426215
 40
0.3214471695914886
 40
0.3575177873449186
 40
0.392208055308051
 40
0.4279728957699214
 40
0.4634554152013065
 40
0.4995141933905556
 40
0.5459446595835
 40
0.5922619429275635
 40
0.6390021598005259
 40
0.6863872456487286
 40
0.7335875256662776
 40
0.7798390432416542
 40
0.807422356666275
 40
0.835879411125049
 40
0.8615092348538278
 40
0.8898791146135875
 40
0.9169370880900182
 40
0.9450348483940447
 40
0.9725752341680357
 40
1.0
 40
1.0
 40
1.0
 40
1.0
 10
503.4848052509102
 20
96.42768395709778
 30
0.0
 10
503.5542808818566
 20
95.5654465573409
 30
0.0
 10
503.6928956900931
 20
93.84514736475136
 30
0.0
 10
504.1648816844852
 20
91.28503321537517
 30
0.0
 10
504.9669062354741
 20
88.81146703208321
 30
0.0
 10
506.0930503023847
 20
86.46277285569072
 30
0.0
 10
507.5252254504945
 20
84.29193841705381
 30
0.0
 10
509.242379373583
 20
82.34310247930976
 30
0.0
 10
511.2104717104411
 20
80.63757953142226
 30
0.0
 10
513.6083549532784
 20
79.05739462941149
 30
0.0
 10
516.4652523210814
 20
77.71033666648187
 30
0.0
 10
519.7750906935603
 20
76.68705630761302
 30
0.0
 10
525.4733203872681
 20
75.63675788491611
 30
0.0
 10
533.828303097622
 20
75.39367738674991
 30
0.0
 10
544.4948100210843
 20
74.60743674711141
 30
0.0
 10
555.3355138686941
 20
74.69174271629245
 30
0.0
 10
566.078218938395
 20
75.31727239220315
 30
0.0
 10
576.8794313828693
 20
76.24156317749544
 30
0.0
 10
587.7027166004125
 20
77.17496150678119
 30
0.0
 10
598.8993704827604
 20
78.0039491413437
 30
0.0
 10
610.3163035991753
 20
78.68773055336078
 30
0.0
 10
622.0813507672297
 20
79.16428957270777
 30
0.0
 10
633.7891204572393
 20
79.38075752623946
 30
0.0
 10
645.6499465772457
 20
79.35554670822752
 30
0.0
 10
658.6866202952459
 20
79.077579857273
 30
0.0
 10
672.9118499897891
 20
78.48311368517858
 30
0.0
 10
688.2995006450423
 20
77.51674398554168
 30
0.0
 10
703.7721414767216
 20
76.26444453761071
 30
0.0
 10
719.321601398765
 20
74.77717809373081
 30
0.0
 10
734.8012049328072
 20
73.13363749292164
 30
0.0
 10
748.0718683443561
 20
71.4329364634535
 30
0.0
 10
759.2463860100471
 20
69.7068774845647
 30
0.0
 10
768.1287776952375
 20
68.09707567029442
 30
0.0
 10
777.1203453405311
 20
66.60943893474831
 30
0.0
 10
785.9683638856392
 20
65.20474733426165
 30
0.0
 10
795.0532424353579
 20
63.55261308073612
 30
0.0
 10
803.9733745913038
 20
61.55592154369636
 30
0.0
 10
813.0558147206445
 20
60.1321745120484
 30
0.0
 10
818.9044226924805
 20
58.46759778140405
 30
0.0
 10
821.8225753652946
 20
57.63706014594864
 30
0.0
  0
SPLINE
  5
6E
330
1F
100
AcDbEntity
  8
0
  6
Continuous
 62
     7
370
    25
100
AcDbSpline
210
0.0
220
0.0
230
1.0
 70
     8
 71
     3
 72
    15
 73
    11
 74
     0
 42
0.00000001
 43
0.00000001
 40
0.0
 40
0.0
 40
0.0
 40
0.0
 40
0.1312741266841268
 40
0.2627638614184236
 40
0.3948124238601606
 40
0.546219364047783
 40
0.6964137373717335
 40
0.7977825142551329
 40
0.8986628595326631
 40
1.0
 40
1.0
 40
1.0
 40
1.0
 10
528.2615892937331
 20
128.3338546904482
 30
0.0
 10
526.7126072084646
 20
127.3610259412745
 30
0.0
 10
523.612098949343
 20
125.4137706436116
 30
0.0
 10
519.2151139590705
 20
122.0996870950447
 30
0.0
 10
514.8728302664855
 20
118.2747266629561
 30
0.0
 10
510.8210236496246
 20
113.7692580097349
 30
0.0
 10
507.7209763769821
 20
109.0582298496584
 30
0.0
 10
505.6320705035477
 20
104.6054133849677
 30
0.0
 10
504.2843233768355
 20
100.5831975296066
 30
0.0
 10
503.7517123366103
 20
97.8149395817802
 30
0.0
 10
503.4848052509102
 20
96.42768395709778
 30
0.0
  0
LINE
  5
6F
330
1F
100
AcDbEntity
  8
0
  6
Continuous
 62
     7
370
    25
100
AcDbLine
 10
528.2615792244
 20
128.3338713422
 30
0.0
 11
526.4533012876
 21
106.7204664515
 31
0.0
  0
ARC
  5
70
330
1F
100
AcDbEntity
  8
0
  6
Continuous
 62
     7
370
    25
100
AcDbCircle
 10
537.5271117912
 20
105.7939799811
 30
0.0
 40
11.11250000000044
100
AcDbArc
 50
175.217506747
 51
355.217506747
  0
ARC
  5
71
330
1F
100
AcDbEntity
  8
0
  6
Continuous
 62
     7
370
    25
100
AcDbCircle
 10
412.8992780571
 20
100.8133899618
 30
0.0
 40
11.11250000000007
100
AcDbArc
 50
1.9237382914
 51
181.9237382914
  0
ARC
  5
72
330
1F
100
AcDbEntity
  8
0
  6
Continuous
 62
     7
370
    25
100
AcDbCircle
 10
205.7411822583
 20
102.7504680072
 30
0.0
 40
11.11250000000036
100
AcDbArc
 50
1.9237382914
 51
181.9237382914
  0
LINE
  5
73
330
1F
100
AcDbEntity
  8
0
  6
Continuous
 62
     7
370
    25
100
AcDbLine
 10
401.7930411333
 20
100.4403515701
 30
0.0
 11
402.5411151755
 21
78.1684145935
 31
0.0
  0
LINE
  5
74
330
1F
100
AcDbEntity
  8
0
  6
Continuous
 62
     7
370
    25
100
AcDbLine
 10
424.5660763474
 20
84.4971880894
 30
0.0
 11
424.0055149809
 21
101.1864283534
 31
0.0
  0
SPLINE
  5
75
330
1F
100
AcDbEntity
  8
0
  6
Continuous
 62
     7
370
    25
100
AcDbSpline
210
0.0
220
0.0
230
1.0
 70
     8
 71
     3
 72
    26
 73
    22
 74
     0
 42
0.00000001
 43
0.00000001
 40
0.0
 40
0.0
 40
0.0
 40
0.0
 40
0.025984768579947
 40
0.0519020432888747
 40
0.0775705201496623
 40
0.1033354363527981
 40
0.1291064105740224
 40
0.1548058158358179
 40
0.1805505397074756
 40
0.206344822245965
 40
0.2321097731736549
 40
0.2578086182163141
 40
0.2835860604231628
 40
0.309378226305356
 40
0.3349487058679609
 40
0.3605874845633538
 40
0.4376337295048149
 40
0.5146788420216152
 40
0.6687740929247211
 40
0.8227729926540862
 40
1.0
 40
1.0
 40
1.0
 40
1.0
 10
492.08462294328
 20
136.6685091287914
 30
0.0
 10
493.131120342061
 20
136.8155869918987
 30
0.0
 10
495.2213969256727
 20
137.1093606922242
 30
0.0
 10
498.3961876777562
 20
137.0413736210714
 30
0.0
 10
501.4689651782991
 20
136.2462630014026
 30
0.0
 10
504.2585786426453
 20
134.7434789017681
 30
0.0
 10
506.6019429238362
 20
132.6076206547466
 30
0.0
 10
508.3549978119261
 20
129.9668112503675
 30
0.0
 10
509.4127267948625
 20
126.9775349332664
 30
0.0
 10
509.7093845594972
 20
123.8177519153588
 30
0.0
 10
509.2268577416651
 20
120.6830150918745
 30
0.0
 10
507.9980302431346
 20
117.7604338209906
 30
0.0
 10
506.1011291239416
 20
115.2192074645243
 30
0.0
 10
503.6618685002956
 20
113.2045345102632
 30
0.0
 10
500.8808378012968
 20
111.7442722733581
 30
0.0
 10
496.0731292601936
 20
109.7321411350283
 30
0.0
 10
489.3026249555643
 20
106.9902315104745
 30
0.0
 10
477.7453388889487
 20
102.1601921899042
 30
0.0
 10
463.0174298889187
 20
96.84278788197676
 30
0.0
 10
444.3403782544307
 20
90.5003932057837
 30
0.0
 10
431.4586326686312
 20
86.5896730513233
 30
0.0
 10
424.5660763474139
 20
84.4971880894364
 30
0.0
  0
SPLINE
  5
76
330
1F
100
AcDbEntity
  8
0
  6
Continuous
 62
     7
370
    25
100
AcDbSpline
210
0.0
220
0.0
230
1.0
 70
     8
 71
     3
 72
    20
 73
    16
 74
     0
 42
0.00000001
 43
0.00000001
 40
0.0
 40
0.0
 40
0.0
 40
0.0
 40
0.0932201362358007
 40
0.1864464534937289
 40
0.2797037589571283
 40
0.3730768250126502
 40
0.4666184389463768
 40
0.5599221995415417
 40
0.6263152200217162
 40
0.6928694190195788
 40
0.7590340292620742
 40
0.8248766240666073
 40
0.8906968899679908
 40
0.9568922476976349
 40
1.0
 40
1.0
 40
1.0
 40
1.0
 10
402.5411151754745
 20
78.1684145935256
 30
0.0
 10
396.8959808703896
 20
76.60554267497086
 30
0.0
 10
385.6053379558959
 20
73.47969521061627
 30
0.0
 10
368.5980397926142
 20
69.0461003223218
 30
0.0
 10
351.5190847953511
 20
64.85619630129659
 30
0.0
 10
334.3090870131574
 20
61.13041535815881
 30
0.0
 10
316.9255423778662
 20
58.26966603773946
 30
0.0
 10
301.0758994860799
 20
56.71580769205315
 30
0.0
 10
286.8623568707159
 20
56.20544625954167
 30
0.0
 10
274.346673275416
 20
56.45698246461188
 30
0.0
 10
261.9022930351151
 20
57.45447939061859
 30
0.0
 10
249.59293703404
 20
59.26003143840299
 30
0.0
 10
237.4483790624389
 20
61.96283877421067
 30
0.0
 10
226.9001728085659
 20
65.1583932004326
 30
0.0
 10
220.5197297609093
 20
67.70423145120873
 30
0.0
 10
218.0033644132336
 20
68.70827758204804
 30
0.0
  0
LINE
  5
77
330
1F
100
AcDbEntity
  8
0
  6
Continuous
 62
     7
370
    25
100
AcDbLine
 10
218.0033644132
 20
68.708277582
 30
0.0
 11
216.8474191822
 21
103.1235063989
 31
0.0
  0
LINE
  5
78
330
1F
100
AcDbEntity
  8
0
  6
Continuous
 62
     7
370
    25
100
AcDbLine
 10
194.6349453345
 20
102.3774296156
 30
0.0
 11
195.3630270303
 21
80.7007121683
 31
0.0
  0
SPLINE
  5
79
330
1F
100
AcDbEntity
  8
0
  6
Continuous
 62
     7
370
    25
100
AcDbSpline
210
0.0
220
0.0
230
1.0
 70
     8
 71
     3
 72
    14
 73
    10
 74
     0
 42
0.00000001
 43
0.00000001
 40
0.0
 40
0.0
 40
0.0
 40
0.0
 40
0.0952084508092486
 40
0.2448036205279157
 40
0.394877009910909
 40
0.546315422498445
 40
0.6965410161705368
 40
0.8481722847418389
 40
0.9999999999999999
 40
0.9999999999999999
 40
0.9999999999999999
 40
0.9999999999999999
 10
195.3630270303059
 20
80.7007121682807
 30
0.0
 10
194.2733292917497
 20
81.45634656180988
 30
0.0
 10
191.4714566700209
 20
83.39926269750008
 30
0.0
 10
187.1904374966998
 20
86.8627750010594
 30
0.0
 10
182.6522538304928
 20
91.22034687312271
 30
0.0
 10
178.6674431243495
 20
96.1172256148857
 30
0.0
 10
175.4640910334799
 20
101.5816002525097
 30
0.0
 10
173.1744558099422
 20
107.521556105634
 30
0.0
 10
172.530541066081
 20
111.7082375462742
 30
0.0
 10
172.2083752723788
 20
113.8029334080496
 30
0.0
  0
SPLINE
  5
7A
330
1F
100
AcDbEntity
  8
0
  6
Continuous
 62
     7
370
    25
100
AcDbSpline
210
0.0
220
0.0
230
1.0
 70
     8
 71
     3
 72
    34
 73
    30
 74
     0
 42
0.00000001
 43
0.00000001
 40
0.0
 40
0.0
 40
0.0
 40
0.0
 40
0.0124928877332333
 40
0.0250085472448653
 40
0.0374888064522565
 40
0.0500287075702004
 40
0.0625443041452622
 40
0.0781304634390254
 40
0.0937822236114168
 40
0.1093471492474472
 40
0.1249003179812934
 40
0.1663764676428733
 40
0.207956715643358
 40
0.2496244538992575
 40
0.3121491472817859
 40
0.3746027095312931
 40
0.4370179130584964
 40
0.4994729966198618
 40
0.5695428365899629
 40
0.6396945813589531
 40
0.7097658143737771
 40
0.7797729656455418
 40
0.8111978090269041
 40
0.8426320047730728
 40
0.8740593709729052
 40
0.9054915590756487
 40
0.9369599530413494
 40
0.9684117129080597
 40
1.0
 40
1.0
 40
1.0
 40
1.0
 10
172.2083752723788
 20
113.8029334080496
 30
0.0
 10
172.3955090608364
 20
115.1737519170088
 30
0.0
 10
172.7701177413662
 20
117.9178876346656
 30
0.0
 10
174.2107821733694
 20
121.8424216810544
 30
0.0
 10
176.4424238217702
 20
125.3757773153938
 30
0.0
 10
179.4015515120583
 20
128.3324141734157
 30
0.0
 10
183.2102488119705
 20
130.7724475584889
 30
0.0
 10
187.795158058213
 20
132.4355914658902
 30
0.0
 10
192.9281314734399
 20
133.2338098206698
 30
0.0
 10
198.0998451875714
 20
133.3666756209522
 30
0.0
 10
206.1205440847421
 20
133.3685102668672
 30
0.0
 10
217.0260959601462
 20
133.5626415549419
 30
0.0
 10
230.7789428365813
 20
132.3995046847841
 30
0.0
 10
246.7485391793434
 20
130.2902974822165
 30
0.0
 10
264.9948077375384
 20
127.7821242924172
 30
0.0
 10
285.5876082178235
 20
125.5487469749323
 30
0.0
 10
306.2419928511795
 20
124.0764011858868
 30
0.0
 10
327.7763493225159
 20
123.3240510140076
 30
0.0
 10
350.1788399048565
 20
123.270683636134
 30
0.0
 10
373.4126867654717
 20
123.9189796385569
 30
0.0
 10
396.6196863355882
 20
125.0280476470811
 30
0.0
 10
415.5340223437348
 20
126.3185697505043
 30
0.0
 10
430.1373240435562
 20
127.867631429716
 30
0.0
 10
440.4694758961092
 20
129.2234056449527
 30
0.0
 10
450.8289085326545
 20
130.3475649877749
 30
0.0
 10
461.1928133834694
 20
131.5003372803332
 30
0.0
 10
471.4736131379611
 20
133.2559794870698
 30
0.0
 10
481.8626609614363
 20
134.4258489355439
 30
0.0
 10
488.6723862917
 20
135.9198771810273
 30
0.0
 10
492.08462294328
 20
136.6685091287914
 30
0.0
  0
SPLINE
  5
7B
330
1F
100
AcDbEntity
  8
0
  6
Continuous
 62
     7
370
    25
100
AcDbSpline
210
0.0
220
0.0
230
1.0
 70
     8
 71
     3
 72
    14
 73
    10
 74
     0
 42
0.00000001
 43
0.00000001
 40
0.0
 40
0.0
 40
0.0
 40
0.0
 40
0.1431432332445476
 40
0.2859391166216069
 40
0.4287615570756397
 40
0.5715587809626433
 40
0.7143818125914527
 40
0.8571827695390881
 40
1.0
 40
1.0
 40
1.0
 40
1.0
 10
322.1999617426164
 20
3.190599110018122
 30
0.0
 10
318.945433547101
 20
3.87316742283321
 30
0.0
 10
312.4442745600329
 20
5.236647735359131
 30
0.0
 10
302.525427218275
 20
6.184160210663661
 30
0.0
 10
292.7026386539465
 20
7.748043018342241
 30
0.0
 10
282.8079883315857
 20
8.77774824838079
 30
0.0
 10
272.9060128712669
 20
9.692876047392899
 30
0.0
 10
263.0253585263831
 20
10.82914700403412
 30
0.0
 10
256.4266388088691
 20
11.47112759903833
 30
0.0
 10
253.1270909642665
 20
11.79213618543132
 30
0.0
  0
LINE
  5
7C
330
1F
100
AcDbEntity
  8
0
  6
Continuous
 62
     7
370
    25
100
AcDbLine
 10
253.1270909643
 20
11.7921361854
 30
0.0
 11
253.5853034096
 21
34.5781782931
 31
0.0
  0
ARC
  5
7D
330
1F
100
AcDbEntity
  8
0
  6
Continuous
 62
     7
370
    25
100
AcDbCircle
 10
242.4750495974
 20
34.801598251
 30
0.0
 40
11.11250000000043
100
AcDbArc
 50
358.847974514
 51
178.847974514
  0
LINE
  5
7E
330
1F
100
AcDbEntity
  8
0
  6
Continuous
 62
     7
370
    25
100
AcDbLine
 10
231.3647957852
 20
35.0250182089
 30
0.0
 11
230.9272163232
 21
13.2650159435
 31
0.0
  0
SPLINE
  5
7F
330
1F
100
AcDbEntity
  8
0
  6
Continuous
 62
     7
370
    25
100
AcDbSpline
210
0.0
220
0.0
230
1.0
 70
     8
 71
     3
 72
    17
 73
    13
 74
     0
 42
0.00000001
 43
0.00000001
 40
0.0
 40
0.0
 40
0.0
 40
0.0
 40
0.1325917196763271
 40
0.2651753550501173
 40
0.3978333184454633
 40
0.5094156554206748
 40
0.6210052775903628
 40
0.7326738335982754
 40
0.8443425544001988
 40
0.8962284741460057
 40
0.9481086165745686
 40
1.0
 40
1.0
 40
1.0
 40
1.0
 10
230.9272163231759
 20
13.26501594348407
 30
0.0
 10
222.7278604632538
 20
13.60760169957931
 30
0.0
 10
206.3296486696007
 20
14.29275232383727
 30
0.0
 10
181.7067499565839
 20
14.68119976941368
 30
0.0
 10
158.3826186849316
 20
14.35087848451964
 30
0.0
 10
136.381237233378
 20
13.28979929432858
 30
0.0
 10
115.7261351288398
 20
11.54499751444285
 30
0.0
 10
95.1453818722402
 20
9.035614289451544
 30
0.0
 10
78.30127607772141
 20
6.492780551455884
 30
0.0
 10
65.11011489380786
 20
4.555695388918562
 30
0.0
 10
55.54580525433489
 20
3.36274628467309
 30
0.0
 10
49.13385453991192
 20
2.968558398104004
 30
0.0
 10
45.92753189707815
 20
2.771443104720023
 30
0.0
  0
LINE
  5
80
330
1F
100
AcDbEntity
  8
0
  6
Continuous
 62
     7
370
    25
100
AcDbLine
 10
45.9275318971
 20
2.7714431047
 30
0.0
 11
46.4720873935
 21
29.851162558
 31
0.0
  0
ARC
  5
81
330
1F
100
AcDbEntity
  8
0
  6
Continuous
 62
     7
370
    25
100
AcDbCircle
 10
35.3618335812
 20
30.0745825158
 30
0.0
 40
11.1125
100
AcDbArc
 50
358.847974514
 51
178.847974514
  0
LINE
  5
82
330
1F
100
AcDbEntity
  8
0
  6
Continuous
 62
     7
370
    25
100
AcDbLine
 10
24.251579769
 20
30.2980024737
 30
0.0
 11
23.6957974592
 21
2.6599947319
 31
0.0
  0
SPLINE
  5
83
330
1F
100
AcDbEntity
  8
0
  6
Continuous
 62
     7
370
    25
100
AcDbSpline
210
0.0
220
0.0
230
1.0
 70
     8
 71
     3
 72
    15
 73
    11
 74
     0
 42
0.00000001
 43
0.00000001
 40
0.0
 40
0.0
 40
0.0
 40
0.0
 40
0.1151157698224961
 40
0.229656640635776
 40
0.3456648223174258
 40
0.4761809406218681
 40
0.6072235804417289
 40
0.7376730659035041
 40
0.8685524836265814
 40
1.0
 40
1.0
 40
1.0
 40
1.0
 10
23.69579745923622
 20
2.659994731882775
 30
0.0
 10
22.4806412294134
 20
2.764740430772794
 30
0.0
 10
20.05639737456111
 20
2.973708718655682
 30
0.0
 10
16.47536611537848
 20
3.789937170521951
 30
0.0
 10
12.89390438434923
 20
5.167830887493438
 30
0.0
 10
9.469520292483601
 20
7.285903703895327
 30
0.0
 10
6.462776850449492
 20
10.19605284040317
 30
0.0
 10
4.172842258854392
 20
13.69862239635714
 30
0.0
 10
2.66638982461298
 20
17.61483622754193
 30
0.0
 10
2.252270765588316
 20
20.36685247846727
 30
0.0
 10
2.044762825242352
 20
21.74584050518038
 30
0.0
  0
SPLINE
  5
84
330
1F
100
AcDbEntity
  8
0
  6
Continuous
 62
     7
370
    25
100
AcDbSpline
210
0.0
220
0.0
230
1.0
 70
     8
 71
     3
 72
    48
 73
    44
 74
     0
 42
0.00000001
 43
0.00000001
 40
0.0
 40
0.0
 40
0.0
 40
0.0
 40
0.0157151303792262
 40
0.031385205197489
 40
0.0471702089843392
 40
0.0628743795075366
 40
0.0786664900821159
 40
0.0943442847844333
 40
0.117829297575068
 40
0.1414256488632767
 40
0.164890775783109
 40
0.1882395093150961
 40
0.2193519333196874
 40
0.2506355089913023
 40
0.2819949201139081
 40
0.3131266084597414
 40
0.3441633513460159
 40
0.375211934143291
 40
0.4171025386266314
 40
0.4591924710547759
 40
0.5012048634052343
 40
0.5431989381537939
 40
0.5851995644916227
 40
0.6402198955759514
 40
0.6952472406951563
 40
0.7502300017946189
 40
0.7970680620618033
 40
0.8439172117622283
 40
0.8673737041159314
 40
0.8908310473359004
 40
0.8986498610601773
 40
0.9064481026422483
 40
0.9142844834049106
 40
0.9220713854805063
 40
0.9298738509825467
 40
0.9376623783842233
 40
0.9480261449513959
 40
0.9583909881075874
 40
0.968755540163481
 40
0.9765404712108513
 40
0.9843479766619125
 40
0.9921549513036886
 40
1.0
 40
1.0
 40
1.0
 40
1.0
 10
2.044762825242352
 20
21.74584050518038
 30
0.0
 10
2.33595195792291
 20
23.82974102962048
 30
0.0
 10
2.917495378812363
 20
27.99156749828056
 30
0.0
 10
5.107773164759633
 20
33.94974215942832
 30
0.0
 10
8.220480587517564
 20
39.45238075852816
 30
0.0
 10
12.14765071825108
 20
44.42688198875639
 30
0.0
 10
16.63454599688485
 20
48.86700955255469
 30
0.0
 10
22.29802915579226
 20
53.55015646767075
 30
0.0
 10
29.25503646075822
 20
58.25468096194609
 30
0.0
 10
37.46772535036169
 20
62.88944162181416
 30
0.0
 10
45.93650036119762
 20
66.99587699013908
 30
0.0
 10
55.5835745248508
 20
70.92495911987399
 30
0.0
 10
66.4967692731337
 20
74.44809855741424
 30
0.0
 10
78.69741295241522
 20
77.32924672154665
 30
0.0
 10
91.07647131087948
 20
79.31173503698207
 30
0.0
 10
103.5245350899071
 20
80.46886411220972
 30
0.0
 10
115.9767566120146
 20
80.88132685462074
 30
0.0
 10
129.8688132582602
 20
80.56840973258937
 30
0.0
 10
145.1941858840784
 20
79.30076622139659
 30
0.0
 10
161.856129338307
 20
76.86158438975174
 30
0.0
 10
178.3854714955342
 20
73.59768693794777
 30
0.0
 10
194.7981838913073
 20
69.858342915844
 30
0.0
 10
212.8403731694382
 20
65.46035222794148
 30
0.0
 10
232.4997842706969
 20
60.35456778764148
 30
0.0
 10
253.7773133400749
 20
54.5862225319737
 30
0.0
 10
273.883638067599
 20
48.6818774499737
 30
0.0
 10
292.7780086783665
 20
42.56569857385653
 30
0.0
 10
307.5697567919482
 20
37.43929224734644
 30
0.0
 10
319.188307637405
 20
32.75785382112009
 30
0.0
 10
326.0045632835993
 20
30.11254174564258
 30
0.0
 10
330.8419416593609
 20
28.15250691211293
 30
0.0
 10
333.6320810869052
 20
26.69905663446984
 30
0.0
 10
336.0630014151358
 20
24.68337942957294
 30
0.0
 10
337.9501143940387
 20
22.14946419882317
 30
0.0
 10
339.1715999601161
 20
19.24116560203351
 30
0.0
 10
339.7076923902932
 20
15.78264249082342
 30
0.0
 10
339.1981228777581
 20
11.9356746780795
 30
0.0
 10
337.3277475155303
 20
8.145459933461524
 30
0.0
 10
334.5857326980483
 20
5.40049916668324
 30
0.0
 10
331.5184226596518
 20
3.716450491045575
 30
0.0
 10
328.4701810389413
 20
2.897336558136593
 30
0.0
 10
325.315965372811
 20
2.795365011795656
 30
0.0
 10
323.2403126502093
 20
3.058640934869378
 30
0.0
 10
322.1999617426164
 20
3.190599110018122
 30
0.0
  0
SPLINE
  5
85
330
1F
100
AcDbEntity
  8
0
  6
Continuous
 62
     7
370
    25
100
AcDbSpline
210
0.0
220
0.0
230
1.0
 70
     8
 71
     3
 72
    48
 73
    44
 74
     0
 42
0.00000001
 43
0.00000001
 40
0.0
 40
0.0
 40
0.0
 40
0.0
 40
0.0157151303792261
 40
0.031385205197489
 40
0.0471702089843392
 40
0.0628743795075365
 40
0.0786664900821158
 40
0.0943442847844334
 40
0.117829297575068
 40
0.1414256488632768
 40
0.1648907757831091
 40
0.1882395093150961
 40
0.2193519333196875
 40
0.2506355089913024
 40
0.2819949201139081
 40
0.3131266084597414
 40
0.3441633513460159
 40
0.3752119341432911
 40
0.4171025386266316
 40
0.459192471054776
 40
0.5012048634052345
 40
0.543198938153794
 40
0.5851995644916228
 40
0.6402198955759515
 40
0.6952472406951564
 40
0.750230001794619
 40
0.7970680620618033
 40
0.8439172117622283
 40
0.8673737041159316
 40
0.8908310473359006
 40
0.8986498610601774
 40
0.9064481026422485
 40
0.9142844834049108
 40
0.9220713854805062
 40
0.9298738509825467
 40
0.9376623783842233
 40
0.9480261449513958
 40
0.9583909881075874
 40
0.968755540163481
 40
0.9765404712108514
 40
0.9843479766619126
 40
0.9921549513036887
 40
1.0
 40
1.0
 40
1.0
 40
1.0
 10
342.4790581161054
 20
23.13743286516977
 30
0.0
 10
342.7798282989602
 20
25.21997213343301
 30
0.0
 10
343.3805063511554
 20
29.3790799924853
 30
0.0
 10
345.5981633935418
 20
35.32711826696801
 30
0.0
 10
348.7361452474183
 20
40.81538292319017
 30
0.0
 10
352.6861522229522
 20
45.77176997612507
 30
0.0
 10
357.1934207726425
 20
50.19121476537182
 30
0.0
 10
362.8783824365827
 20
54.84826505491345
 30
0.0
 10
369.8569528844683
 20
59.52074361157756
 30
0.0
 10
378.0908707838768
 20
64.11768402858051
 30
0.0
 10
386.5784422593406
 20
68.18512696822737
 30
0.0
 10
396.2434847552316
 20
72.06979939377997
 30
0.0
 10
407.1727674619017
 20
75.54271036701029
 30
0.0
 10
419.3865328819948
 20
78.36771571132631
 30
0.0
 10
431.7745780407097
 20
80.29325015888483
 30
0.0
 10
444.2278319555873
 20
81.39311673036771
 30
0.0
 10
456.6818187521624
 20
81.74830572266451
 30
0.0
 10
470.572289328669
 20
81.37150053299398
 30
0.0
 10
485.8916698149633
 20
80.03338704461326
 30
0.0
 10
502.5422189367679
 20
77.51760056279161
 30
0.0
 10
519.0563751894659
 20
74.17771703367653
 30
0.0
 10
535.4517162735193
 20
70.36292835806726
 30
0.0
 10
553.4734878047306
 20
65.88200580622562
 30
0.0
 10
573.1092088196302
 20
60.68585917394799
 30
0.0
 10
594.3599834858984
 20
54.81971679839059
 30
0.0
 10
614.4389407161276
 20
48.82296255608525
 30
0.0
 10
633.304982396097
 20
42.61995069479111
 30
0.0
 10
648.0729970612526
 20
37.42556941018363
 30
0.0
 10
659.6698944834944
 20
32.69074526719704
 30
0.0
 10
666.4739119059755
 20
30.01411232158782
 30
0.0
 10
671.3022246659879
 20
28.03185048458541
 30
0.0
 10
674.085649977818
 20
26.56558336424818
 30
0.0
 10
676.5072742346226
 20
24.5387473582032
 30
0.0
 10
678.382713449288
 20
21.99617984801482
 30
0.0
 10
679.5908104530001
 20
19.0822942384129
 30
0.0
 10
680.1109910153945
 20
15.62134214585589
 30
0.0
 10
679.5837341863021
 20
11.77675859538262
 30
0.0
 10
677.6959469142238
 20
7.99518603607266
 30
0.0
 10
674.9413366645197
 20
5.262865183268323
 30
0.0
 10
671.8663139070646
 20
3.59294127640998
 30
0.0
 10
668.8143373131109
 20
2.787855266547304
 30
0.0
 10
665.6596860257226
 20
2.70039144714633
 30
0.0
 10
663.5852660955836
 20
2.973210782891644
 30
0.0
 10
662.5455330836261
 20
3.109952271706642
 30
0.0
  0
SPLINE
  5
86
330
1F
100
AcDbEntity
  8
0
  6
Continuous
 62
     7
370
    25
100
AcDbSpline
210
0.0
220
0.0
230
1.0
 70
     8
 71
     3
 72
    14
 73
    10
 74
     0
 42
0.00000001
 43
0.00000001
 40
0.0
 40
0.0
 40
0.0
 40
0.0
 40
0.1431432332445474
 40
0.2859391166216064
 40
0.4287615570756391
 40
0.5715587809626439
 40
0.7143818125914521
 40
0.8571827695390886
 40
0.9999999999999999
 40
0.9999999999999999
 40
0.9999999999999999
 40
0.9999999999999999
 10
662.5455330836261
 20
3.109952271706642
 30
0.0
 10
659.2941785287119
 20
3.807481364506899
 30
0.0
 10
652.7993591217232
 20
5.200846933331476
 30
0.0
 10
642.8849744154686
 20
6.193967457911967
 30
0.0
 10
633.0694822381222
 20
7.803010009276981
 30
0.0
 10
623.1796723105351
 20
8.878211134074027
 30
0.0
 10
613.2820103659395
 20
9.838869728885037
 30
0.0
 10
603.4066863774573
 20
11.02057108391727
 30
0.0
 10
596.8109890007003
 20
11.69289326034131
 30
0.0
 10
593.5129524125774
 20
12.02907350182215
 30
0.0
  0
LINE
  5
87
330
1F
100
AcDbEntity
  8
0
  6
Continuous
 62
     7
370
    25
100
AcDbLine
 10
593.5129524126
 20
12.0290735018
 30
0.0
 11
594.075955986
 21
34.8127672444
 31
0.0
  0
ARC
  5
88
330
1F
100
AcDbEntity
  8
0
  6
Continuous
 62
     7
370
    25
100
AcDbCircle
 10
582.9668472138
 20
35.087282343
 30
0.0
 40
11.11250000000046
100
AcDbArc
 50
358.584462836
 51
178.584462836
  0
LINE
  5
89
330
1F
100
AcDbEntity
  8
0
  6
Continuous
 62
     7
370
    25
100
AcDbLine
 10
571.8577384417
 20
35.3617974417
 30
0.0
 11
571.3200865243
 21
13.6040377962
 31
0.0
  0
SPLINE
  5
8A
330
1F
100
AcDbEntity
  8
0
  6
Continuous
 62
     7
370
    25
100
AcDbSpline
210
0.0
220
0.0
230
1.0
 70
     8
 71
     3
 72
    17
 73
    13
 74
     0
 42
0.00000001
 43
0.00000001
 40
0.0
 40
0.0
 40
0.0
 40
0.0
 40
0.1325917196763268
 40
0.2651753550501174
 40
0.3978333184454632
 40
0.5094156554206749
 40
0.6210052775903628
 40
0.7326738335982755
 40
0.8443425544001989
 40
0.8962284741460057
 40
0.9481086165745686
 40
1.0
 40
1.0
 40
1.0
 40
1.0
 10
571.3200865243411
 20
13.60403779620542
 30
0.0
 10
563.1223929777511
 20
13.98432983413622
 30
0.0
 10
546.7275057094084
 20
14.74489072306057
 30
0.0
 10
522.1066539298993
 20
15.24657797713415
 30
0.0
 10
498.7812501449536
 20
15.02353090193079
 30
0.0
 10
476.7752213398905
 20
14.0636501513401
 30
0.0
 10
456.1123131143168
 20
12.41386232815887
 30
0.0
 10
435.5202365407606
 20
9.999159206096786
 30
0.0
 10
418.6646140670313
 20
7.533820596667351
 30
0.0
 10
405.4646834867222
 20
5.657423788439364
 30
0.0
 10
395.8949884716796
 20
4.508474806060911
 30
0.0
 10
389.4812926489932
 20
4.143780484526766
 30
0.0
 10
386.2740973575085
 20
3.961413571097819
 30
0.0
  0
LINE
  5
8B
330
1F
100
AcDbEntity
  8
0
  6
Continuous
 62
     7
370
    25
100
AcDbLine
 10
386.2740973575
 20
3.9614135711
 30
0.0
 11
386.9431902498
 21
31.0383421461
 31
0.0
  0
ARC
  5
8C
330
1F
100
AcDbEntity
  8
0
  6
Continuous
 62
     7
370
    25
100
AcDbCircle
 10
375.8340814777
 20
31.3128572448
 30
0.0
 40
11.11250000000001
100
AcDbArc
 50
358.584462836
 51
178.584462836
  0
LINE
  5
8D
330
1F
100
AcDbEntity
  8
0
  6
Continuous
 62
     7
370
    25
100
AcDbLine
 10
364.7249727056
 20
31.5873723434
 30
0.0
 11
364.0420854781
 21
3.9522130179
 31
0.0
  0
SPLINE
  5
8E
330
1F
100
AcDbEntity
  8
0
  6
Continuous
 62
     7
370
    25
100
AcDbSpline
210
0.0
220
0.0
230
1.0
 70
     8
 71
     3
 72
    15
 73
    11
 74
     0
 42
0.00000001
 43
0.00000001
 40
0.0
 40
0.0
 40
0.0
 40
0.0
 40
0.115115769822496
 40
0.229656640635775
 40
0.3456648223174252
 40
0.4761809406218679
 40
0.6072235804417292
 40
0.7376730659035037
 40
0.8685524836265817
 40
1.0
 40
1.0
 40
1.0
 40
1.0
 10
364.0420854781407
 20
3.952213017885717
 30
0.0
 10
362.8274238389827
 20
4.062546270676759
 30
0.0
 10
360.404166695428
 20
4.282661761590687
 30
0.0
 10
356.8269272503409
 20
5.115351209941055
 30
0.0
 10
353.2518405096359
 20
6.509701962989972
 30
0.0
 10
349.8372339268711
 20
8.64350156678234
 30
0.0
 10
346.8439064390611
 20
11.56744832991834
 30
0.0
 10
344.570104839314
 20
15.08051254980772
 30
0.0
 10
343.0816795146426
 20
19.00361333376315
 30
0.0
 10
342.6802217163762
 20
21.75750506667782
 30
0.0
 10
342.4790581161054
 20
23.13743286516977
 30
0.0
  0
SPLINE
  5
8F
330
1F
100
AcDbEntity
  8
0
  6
Continuous
 62
     7
370
    25
100
AcDbSpline
210
0.0
220
0.0
230
1.0
 70
     8
 71
     3
 72
    26
 73
    22
 74
     0
 42
0.00000001
 43
0.00000001
 40
0.0
 40
0.0
 40
0.0
 40
0.0
 40
0.0109354890684136
 40
0.0204690020023187
 40
0.0299192788275379
 40
0.0400000190448986
 40
0.0545769205449204
 40
0.0698668446932319
 40
0.0848548481877897
 40
0.1128111124119438
 40
0.1394232150797912
 40
0.166201537123496
 40
0.2210953310624389
 40
0.27683508338271
 40
0.3322694276395823
 40
0.4420542989223856
 40
0.5519263265180244
 40
0.6621211657160394
 40
0.7747995190622776
 40
0.887379577991634
 40
1.0
 40
1.0
 40
1.0
 40
1.0
 10
935.0017416256389
 20
66.31969307677008
 30
0.0
 10
934.5852708475702
 20
65.54908263233673
 30
0.0
 10
933.8057226136627
 20
64.10665727472974
 30
0.0
 10
931.8230433258734
 20
62.67444591247207
 30
0.0
 10
929.5793074505485
 20
62.0372683464797
 30
0.0
 10
926.8594194679698
 20
61.97763844752005
 30
0.0
 10
923.7242111933123
 20
62.48593311806891
 30
0.0
 10
920.2908619737891
 20
63.40079389760497
 30
0.0
 10
915.8559486088569
 20
64.66719656498705
 30
0.0
 10
910.5357840522474
 20
66.0966922425042
 30
0.0
 10
904.3420643063988
 20
67.87527107742946
 30
0.0
 10
896.2179225044067
 20
70.63267497913063
 30
0.0
 10
886.1215760777068
 20
74.7119138739355
 30
0.0
 10
874.0957352943228
 20
80.03726655130893
 30
0.0
 10
858.0491660477155
 20
87.02028383014671
 30
0.0
 10
837.8800410836377
 20
95.27668276439333
 30
0.0
 10
813.2507906520437
 20
104.0163075777781
 30
0.0
 10
788.0604574584947
 20
111.7835525266074
 30
0.0
 10
762.3929299735317
 20
118.6563596543874
 30
0.0
 10
736.3812675321177
 20
124.9592759424146
 30
0.0
 10
718.915836312439
 20
128.5814155796344
 30
0.0
 10
710.1815555225934
 20
130.392809999479
 30
0.0
  0
LINE
  5
90
330
1F
100
AcDbEntity
  8
0
  6
Continuous
 62
     7
370
    25
100
AcDbLine
 10
714.4853048383
 20
147.6257521231
 30
0.0
 11
710.1815555226
 21
130.3928099995
 31
0.0
  0
CIRCLE
  5
91
330
1F
100
AcDbEntity
  8
0
  6
Continuous
 62
     7
370
    25
100
AcDbCircle
 10
719.0947449291
 20
139.8753241075
 30
0.0
 40
4.999999999999915
  0
CIRCLE
  5
92
330
1F
100
AcDbEntity
  8
0
  6
Continuous
 62
     7
370
    25
100
AcDbCircle
 10
917.7494978791
 20
81.1001758159
 30
0.0
 40
4.999999999999918
  0
CIRCLE
  5
93
330
1F
100
AcDbEntity
  8
0
  6
Continuous
 62
     7
370
    25
100
AcDbCircle
 10
780.0526198213
 20
127.2697361617
 30
0.0
 40
2.999999999999905
  0
SPLINE
  5
94
330
1F
100
AcDbEntity
  8
0
  6
Continuous
 62
     7
370
    25
100
AcDbSpline
210
0.0
220
0.0
230
1.0
 70
     8
 71
     3
 72
    31
 73
    27
 74
     0
 42
0.00000001
 43
0.00000001
 40
0.0
 40
0.0
 40
0.0
 40
0.0
 40
0.0008302735896784
 40
0.0621501364398133
 40
0.1240034758949078
 40
0.1864858328349691
 40
0.2491783966136553
 40
0.3117229493301386
 40
0.3741052389111409
 40
0.4365076984230792
 40
0.4990014559895778
 40
0.5490396500175863
 40
0.5991379043856939
 40
0.6492711528820014
 40
0.6993353636335428
 40
0.7493107702574255
 40
0.7909475403705335
 40
0.8326218494828622
 40
0.8743545310485811
 40
0.8922200202581213
 40
0.910064598623654
 40
0.9279215665704426
 40
0.9457352742893519
 40
0.9634802372182273
 40
0.9813854322874996
 40
1.0
 40
1.0
 40
1.0
 40
1.0
 10
714.4853048383197
 20
147.6257521230525
 30
0.0
 10
714.5554942606781
 20
147.6263851058197
 30
0.0
 10
719.8095240533066
 20
147.6737670361072
 30
0.0
 10
730.2931896844775
 20
147.6881998148747
 30
0.0
 10
745.9884563321021
 20
147.5793230981943
 30
0.0
 10
761.7982878721367
 20
147.3195467402448
 30
0.0
 10
777.6617351965174
 20
146.8472611060103
 30
0.0
 10
793.5079248443712
 20
146.1222129782055
 30
0.0
 10
809.3012503965753
 20
144.8843309446174
 30
0.0
 10
825.0094174633074
 20
142.8325292729478
 30
0.0
 10
839.535197867392
 20
139.9932073239523
 30
0.0
 10
852.842916582965
 20
136.5079189965241
 30
0.0
 10
864.9201047835567
 20
132.5387766380456
 30
0.0
 10
876.7073349812332
 20
127.7659265686406
 30
0.0
 10
888.0936451981592
 20
122.1200252634824
 30
0.0
 10
898.349506521278
 20
115.9014425869991
 30
0.0
 10
907.4582926890001
 20
109.2471357901183
 30
0.0
 10
915.4749347972833
 20
102.3424069767899
 30
0.0
 10
921.5318505400911
 20
96.27196863846399
 30
0.0
 10
925.7709723551114
 20
91.2783342531145
 30
0.0
 10
928.4816103767099
 20
87.6461393555747
 30
0.0
 10
930.9250506017437
 20
83.8337298146786
 30
0.0
 10
933.0016365970886
 20
79.81066327733916
 30
0.0
 10
934.5125900150114
 20
75.53921582070649
 30
0.0
 10
935.3534157130423
 20
70.98496288123916
 30
0.0
 10
935.1204745648805
 20
67.89479120336098
 30
0.0
 10
935.0017416256389
 20
66.31969307677008
 30
0.0
  0
SPLINE
  5
95
330
1F
100
AcDbEntity
  8
0
  6
Continuous
 62
     7
370
    25
100
AcDbSpline
210
0.0
220
0.0
230
1.0
 70
     8
 71
     3
 72
    26
 73
    22
 74
     0
 42
0.00000001
 43
0.00000001
 40
0.0
 40
0.0
 40
0.0
 40
0.0
 40
0.0109354890679663
 40
0.0204690020014815
 40
0.0299192788263143
 40
0.0400000190432628
 40
0.0545769205426884
 40
0.0698668446903748
 40
0.0848548481843194
 40
0.1128111124073305
 40
0.1394232150740897
 40
0.1662015371166992
 40
0.2210953310533974
 40
0.276835083371389
 40
0.3322694276259942
 40
0.4420542989043081
 40
0.5519263264954539
 40
0.6621211656889624
 40
0.7747995190442076
 40
0.8873795779825832
 40
0.9999999999999999
 40
0.9999999999999999
 40
0.9999999999999999
 40
0.9999999999999999
 10
847.4652943330562
 20
39.3245807992982
 30
0.0
 10
847.4190404472539
 20
40.19930872505746
 30
0.0
 10
847.3324626202192
 20
41.83662074209084
 30
0.0
 10
846.154335337022
 20
43.98004385687605
 30
0.0
 10
844.3997726692019
 20
45.51687689059002
 30
0.0
 10
841.9675662680031
 20
46.73577737241555
 30
0.0
 10
838.9168069278294
 20
47.61938466410849
 30
0.0
 10
835.4224955116109
 20
48.2633138804196
 30
0.0
 10
830.8725727427171
 20
49.01858539948321
 30
0.0
 10
825.452860311167
 20
50.00566491033481
 30
0.0
 10
819.0942612609957
 20
51.05147803002887
 30
0.0
 10
810.5720293029786
 20
52.03966766250894
 30
0.0
 10
799.7014863764749
 20
52.67817969204778
 30
0.0
 10
786.553660265636
 20
53.01714317806334
 30
0.0
 10
769.0625871738685
 20
53.58041664730917
 30
0.0
 10
747.3008549070393
 20
54.75886220178121
 30
0.0
 10
721.3018781135537
 20
57.41107342879872
 30
0.0
 10
695.2123975019272
 20
61.18227774168356
 30
0.0
 10
669.0748313086376
 20
65.96611287818433
 30
0.0
 10
642.8704005735849
 20
71.41231767831654
 30
0.0
 10
625.5367886770968
 20
75.62029604563193
 30
0.0
 10
616.8684293619503
 20
77.72466233097857
 30
0.0
  0
SPLINE
  5
96
330
1F
100
AcDbEntity
  8
0
  6
Continuous
 62
     7
370
    25
100
AcDbSpline
210
0.0
220
0.0
230
1.0
 70
     8
 71
     3
 72
    31
 73
    27
 74
     0
 42
0.00000001
 43
0.00000001
 40
0.0
 40
0.0
 40
0.0
 40
0.0
 40
0.0008302735896784
 40
0.0621501364398133
 40
0.1240034758949077
 40
0.1864858328349692
 40
0.2491783966136553
 40
0.3117229493301386
 40
0.3741052389111411
 40
0.4365076984230791
 40
0.4990014559895778
 40
0.549039650017586
 40
0.5991379043856938
 40
0.6492711528820013
 40
0.6993353636335427
 40
0.7493107702574254
 40
0.7909475403705334
 40
0.8326218494828621
 40
0.874354531048581
 40
0.8922200202581212
 40
0.910064598623654
 40
0.9279215665704426
 40
0.9457352742893518
 40
0.9634802372182273
 40
0.9813854322874996
 40
1.0
 40
1.0
 40
1.0
 40
1.0
 10
613.3759505533402
 20
60.30917657322684
 30
0.0
 10
613.4391040607762
 20
60.27854015410358
 30
0.0
 10
618.1664603835649
 20
57.98525074660233
 30
0.0
 10
627.6335385899341
 20
53.4817095171114
 30
0.0
 10
641.8627463492616
 20
46.85729287702847
 30
0.0
 10
656.2601126383543
 20
40.320160400315
 30
0.0
 10
670.7969520012404
 20
33.95209035740878
 30
0.0
 10
685.4264634710142
 20
27.819813838926
 30
0.0
 10
700.2278694964584
 20
22.17358823265362
 30
0.0
 10
715.3009531304024
 20
17.29931367531022
 30
0.0
 10
729.6429282528409
 20
13.64311413684334
 30
0.0
 10
743.1609259621888
 20
11.09235933322338
 30
0.0
 10
755.7742411045944
 20
9.505901955056185
 30
0.0
 10
768.469798609344
 20
8.769890296434616
 30
0.0
 10
781.1770330217962
 20
8.994513293153789
 30
0.0
 10
793.1080683972425
 20
10.22083170741447
 30
0.0
 10
804.1892175929934
 20
12.3322096692695
 30
0.0
 10
814.3907465024121
 20
15.13767551083614
 30
0.0
 10
822.4640714438245
 20
18.0286743564367
 30
0.0
 10
828.4335690316789
 20
20.72527159846641
 30
0.0
 10
832.4387471945032
 20
22.84634353074182
 30
0.0
 10
836.2796716923189
 20
25.24471081764917
 30
0.0
 10
839.8793303441053
 20
27.99056794258189
 30
0.0
 10
843.0742612632289
 20
31.20314635064182
 30
0.0
 10
845.7847856213418
 20
34.95831151281419
 30
0.0
 10
846.8979174750222
 20
37.85043185152582
 30
0.0
 10
847.4652943330562
 20
39.3245807992982
 30
0.0
  0
LINE
  5
97
330
1F
100
AcDbEntity
  8
0
  6
Continuous
 62
     7
370
    25
100
AcDbLine
 10
616.868429362
 20
77.724662331
 30
0.0
 11
613.3759505533
 21
60.3091765732
 31
0.0
  0
CIRCLE
  5
98
330
1F
100
AcDbEntity
  8
0
  6
Continuous
 62
     7
370
    25
100
AcDbCircle
 10
825.544837051
 20
33.3583309859
 30
0.0
 40
4.999999999999963
  0
CIRCLE
  5
99
330
1F
100
AcDbEntity
  8
0
  6
Continuous
 62
     7
370
    25
100
AcDbCircle
 10
620.8609010645
 20
65.3382508638
 30
0.0
 40
4.999999999999855
  0
CIRCLE
  5
9A
330
1F
100
AcDbEntity
  8
0
  6
Continuous
 62
     7
370
    25
100
AcDbCircle
 10
681.3431046056
 20
50.6186580149
 30
0.0
 40
3.000000000000068
  0
SPLINE
  5
9B
330
1F
100
AcDbEntity
  8
0
  6
Continuous
 62
     7
370
    25
100
AcDbSpline
210
0.0
220
0.0
230
1.0
 70
     8
 71
     3
 72
    25
 73
    21
 74
     0
 42
0.00000001
 43
0.00000001
 40
0.0
 40
0.0
 40
0.0
 40
0.0
 40
0.0852857485966724
 40
0.1705257596972629
 40
0.2557066849493926
 40
0.3409518958392521
 40
0.4262491261338391
 40
0.4979110612592189
 40
0.5696677609631446
 40
0.6413277168654816
 40
0.7128529698933486
 40
0.760548184819359
 40
0.8082975951516679
 40
0.8560865766577768
 40
0.8799395449469435
 40
0.9037872307715074
 40
0.9276204985625927
 40
0.951336215482617
 40
0.9751948798249556
 40
1.0
 40
1.0
 40
1.0
 40
1.0
 10
999.0453026687367
 20
48.46395774415105
 30
0.0
 10
997.1618255988488
 20
52.48845733747456
 30
0.0
 10
993.3958815402009
 20
60.53529824401724
 30
0.0
 10
987.4225180236093
 20
72.44608803775378
 30
0.0
 10
980.9499187651243
 20
84.09464343242765
 30
0.0
 10
973.7720523362862
 20
95.33059430082652
 30
0.0
 10
966.2207397542438
 20
105.456812878604
 30
0.0
 10
958.3835131982001
 20
114.4465406814089
 30
0.0
 10
950.3795702036083
 20
122.3068763504018
 30
0.0
 10
941.7172382029557
 20
129.4296256055886
 30
0.0
 10
933.4197267611262
 20
134.9478066409676
 30
0.0
 10
925.7544985569814
 20
139.0778782528147
 30
0.0
 10
918.9344008659832
 20
142.1197377835784
 30
0.0
 10
913.0746981779728
 20
144.2371082114566
 30
0.0
 10
908.2591003448794
 20
145.5019135953633
 30
0.0
 10
904.5913432368504
 20
146.1804409169605
 30
0.0
 10
900.8789591409205
 20
146.5318745719241
 30
0.0
 10
897.1532422423023
 20
146.3716779967281
 30
0.0
 10
893.4228184821875
 20
145.5848945501975
 30
0.0
 10
891.1732279571634
 20
144.3913396349113
 30
0.0
 10
890.0265566928696
 20
143.7829555274522
 30
0.0
  0
LINE
  5
9C
330
1F
100
AcDbEntity
  8
0
  6
Continuous
 62
     7
370
    25
100
AcDbLine
 10
982.8192110646
 20
35.7935251474
 30
0.0
 11
999.0453026687
 21
48.4639577442
 31
0.0
  0
CIRCLE
  5
9D
330
1F
100
AcDbEntity
  8
0
  6
Continuous
 62
     7
370
    25
100
AcDbCircle
 10
972.576514828
 20
79.3374404632
 30
0.0
 40
1.999999999999979
  0
CIRCLE
  5
9E
330
1F
100
AcDbEntity
  8
0
  6
Continuous
 62
     7
370
    25
100
AcDbCircle
 10
901.8467662468
 20
136.8997116627
 30
0.0
 40
1.999999999999988
  0
SPLINE
  5
9F
330
1F
100
AcDbEntity
  8
0
  6
Continuous
 62
     7
370
    25
100
AcDbSpline
210
0.0
220
0.0
230
1.0
 70
     8
 71
     3
 72
    21
 73
    17
 74
     0
 42
0.00000001
 43
0.00000001
 40
0.0
 40
0.0
 40
0.0
 40
0.0
 40
0.0127769631279332
 40
0.0239257360036096
 40
0.0348510338069718
 40
0.052444579612433
 40
0.0717847701455402
 40
0.1110495992563214
 40
0.1470456735411551
 40
0.2169618341660133
 40
0.2890748124571119
 40
0.4341739120083944
 40
0.5775367973539723
 40
0.7180725693487157
 40
0.8590243711936768
 40
1.0
 40
1.0
 40
1.0
 40
1.0
 10
890.0265566928696
 20
143.7829555274522
 30
0.0
 10
889.6432130411943
 20
143.2901318695865
 30
0.0
 10
888.9253758746615
 20
142.3672859150067
 30
0.0
 10
888.5108575322138
 20
140.6824797046336
 30
0.0
 10
888.6951895759272
 20
138.7463708747378
 30
0.0
 10
889.6486462668893
 20
136.5946086713049
 30
0.0
 10
891.7700371502804
 20
133.5737083378926
 30
0.0
 10
894.7693935219181
 20
130.1083574917188
 30
0.0
 10
899.1600674130093
 20
124.6246313911327
 30
0.0
 10
904.9467543851317
 20
118.2246659333994
 30
0.0
 10
915.0763166826916
 20
108.7046301684245
 30
0.0
 10
928.0610030613582
 20
97.04824038739193
 30
0.0
 10
942.9099916764376
 20
82.5240700367769
 30
0.0
 10
956.8800827488695
 20
67.429925971837
 30
0.0
 10
970.1688534213306
 20
51.88415083629219
 30
0.0
 10
978.6021876038105
 20
41.15736923330146
 30
0.0
 10
982.8192110646442
 20
35.79352514740911
 30
0.0
  0
LINE
  5
A0
330
1F
100
AcDbEntity
  8
0
  6
Continuous
 62
     7
370
    25
100
AcDbLine
 10
156.6690978277
 20
83.8983129105
 30
0.0
 11
157.1253429796
 21
104.4802892805
 31
0.0
  0
SPLINE
  5
A1
330
1F
100
AcDbEntity
  8
0
  6
Continuous
 62
     7
370
    25
100
AcDbSpline
210
0.0
220
0.0
230
1.0
 70
     8
 71
     3
 72
    21
 73
    17
 74
     0
 42
0.00000001
 43
0.00000001
 40
0.0
 40
0.0
 40
0.0
 40
0.0
 40
0.0127769631279332
 40
0.0239257360036094
 40
0.0348510338069717
 40
0.0524445796124331
 40
0.0717847701455401
 40
0.1110495992563213
 40
0.1470456735411548
 40
0.2169618341660129
 40
0.2890748124571121
 40
0.4341739120083943
 40
0.5775367973539723
 40
0.7180725693487156
 40
0.8590243711936765
 40
1.0
 40
1.0
 40
1.0
 40
1.0
 10
14.33216198616882
 20
80.37830234259769
 30
0.0
 10
14.47120418886416
 20
79.769619519691
 30
0.0
 10
14.73157020868765
 20
78.62981936647944
 30
0.0
 10
15.77388245531486
 20
77.24274236671774
 30
0.0
 10
17.38972408648409
 20
76.16036002829914
 30
0.0
 10
19.65923552717208
 20
75.5370799449908
 30
0.0
 10
23.34079033525494
 20
75.26820767117044
 30
0.0
 10
27.92205266370484
 20
75.39794050850612
 30
0.0
 10
34.94660648090886
 20
75.32784890152143
 30
0.0
 10
43.56399807946121
 20
75.75897070647011
 30
0.0
 10
57.34543101091344
 20
77.57864640901653
 30
0.0
 10
74.58776814855794
 20
80.25732390201581
 30
0.0
 10
95.23041497948381
 20
82.56494585504454
 30
0.0
 10
115.7582710257561
 20
83.83134064685856
 30
0.0
 10
136.2047206582366
 20
84.2843836653629
 30
0.0
 10
149.8472544405098
 20
84.02701041270527
 30
0.0
 10
156.6690978277406
 20
83.89831291048804
 30
0.0
  0
CIRCLE
  5
A2
330
1F
100
AcDbEntity
  8
0
  6
Continuous
 62
     7
370
    25
100
AcDbCircle
 10
116.4701178415
 20
103.5204278651
 30
0.0
 40
1.999999999999985
  0
CIRCLE
  5
A3
330
1F
100
AcDbEntity
  8
0
  6
Continuous
 62
     7
370
    25
100
AcDbCircle
 10
27.1416246465
 20
85.1756001606
 30
0.0
 40
1.999999999999985
  0
SPLINE
  5
A4
330
1F
100
AcDbEntity
  8
0
  6
Continuous
 62
     7
370
    25
100
AcDbSpline
210
0.0
220
0.0
230
1.0
 70
     8
 71
     3
 72
    25
 73
    21
 74
     0
 42
0.00000001
 43
0.00000001
 40
0.0
 40
0.0
 40
0.0
 40
0.0
 40
0.085285748596673
 40
0.1705257596972633
 40
0.255706684949393
 40
0.3409518958392522
 40
0.4262491261338395
 40
0.497911061259219
 40
0.569667760963145
 40
0.6413277168654817
 40
0.7128529698933487
 40
0.7605481848193589
 40
0.8082975951516682
 40
0.8560865766577769
 40
0.8799395449469433
 40
0.903787230771507
 40
0.9276204985625927
 40
0.9513362154826172
 40
0.9751948798249556
 40
1.0
 40
1.0
 40
1.0
 40
1.0
 10
157.1253429795563
 20
104.4802892804684
 30
0.0
 10
152.8172092852224
 20
105.5684376716352
 30
0.0
 10
144.2032522854672
 20
107.7441508959466
 30
0.0
 10
131.2004999740967
 20
110.6555796759577
 30
0.0
 10
118.0849026089726
 20
113.0144967367451
 30
0.0
 10
104.8425262499367
 20
114.5662140927614
 30
0.0
 10
92.22315032758222
 20
115.1265494628178
 30
0.0
 10
80.30288293953369
 20
114.746350229902
 30
0.0
 10
69.15165233281506
 20
113.5224073204113
 30
0.0
 10
58.15495156836437
 20
111.3219244327416
 30
0.0
 10
48.6315764456009
 20
108.3886081631186
 30
0.0
 10
40.58315802377083
 20
105.0665341350829
 30
0.0
 10
33.91215862765329
 20
101.7102848927504
 30
0.0
 10
28.564737713071
 20
98.51271352012763
 30
0.0
 10
24.53817113803691
 20
95.58415128481928
 30
0.0
 10
21.69190422510192
 20
93.17342396926045
 30
0.0
 10
19.07067938221685
 20
90.52116425109644
 30
0.0
 10
16.83719227073077
 20
87.53483461855745
 30
0.0
 10
15.08591636874435
 20
84.14837299366259
 30
0.0
 10
14.58665016889771
 20
81.6511817459259
 30
0.0
 10
14.33216198616882
 20
80.37830234259769
 30
0.0
  0
SPLINE
  5
A5
330
1F
100
AcDbEntity
  8
0
  6
Continuous
 62
     7
370
    25
100
AcDbSpline
210
0.0
220
0.0
230
1.0
 70
     8
 71
     3
 72
    25
 73
    21
 74
     0
 42
0.00000001
 43
0.00000001
 40
0.0
 40
0.0
 40
0.0
 40
0.0
 40
0.0852857485966727
 40
0.1705257596972627
 40
0.2557066849493927
 40
0.340951895839252
 40
0.4262491261338388
 40
0.4979110612592188
 40
0.5696677609631449
 40
0.6413277168654816
 40
0.7128529698933487
 40
0.7605481848193588
 40
0.808297595151668
 40
0.8560865766577769
 40
0.8799395449469434
 40
0.9037872307715075
 40
0.9276204985625924
 40
0.951336215482617
 40
0.9751948798249557
 40
1.0
 40
1.0
 40
1.0
 40
1.0
 10
842.347879288253
 20
68.45054381213536
 30
0.0
 10
845.7007611699629
 20
65.5346792856603
 30
0.0
 10
852.4047268320065
 20
59.70451396808863
 30
0.0
 10
862.6926548036994
 20
51.23654353467403
 30
0.0
 10
873.3307063061756
 20
43.21063273437264
 30
0.0
 10
884.4462938742204
 20
35.84774801407182
 30
0.0
 10
895.4535420970822
 20
29.6507236509648
 30
0.0
 10
906.2615849189547
 20
24.60854788847358
 30
0.0
 10
916.7643292429603
 20
20.66642384749306
 30
0.0
 10
927.5700479843812
 20
17.66542482664826
 30
0.0
 10
937.3919637830118
 20
15.98346522216537
 30
0.0
 10
946.0732877020366
 20
15.31426424071727
 30
0.0
 10
953.5409752543563
 20
15.29739590989973
 30
0.0
 10
959.7560042498976
 20
15.73647187748631
 30
0.0
 10
964.6709961820853
 20
16.53181422879463
 30
0.0
 10
968.2990345197181
 20
17.39794317434389
 30
0.0
 10
971.8353090572703
 20
18.58118604231816
 30
0.0
 10
975.1764234084337
 20
20.23756288464765
 30
0.0
 10
978.2679031539734
 20
22.46867081674798
 30
0.0
 10
979.8407575619514
 20
24.47150877259626
 30
0.0
 10
980.6424798898522
 20
25.49240422243967
 30
0.0
  0
LINE
  5
A6
330
1F
100
AcDbEntity
  8
0
  6
Continuous
 62
     7
370
    25
100
AcDbLine
 10
852.0467544978
 20
86.6097764667
 30
0.0
 11
842.3478792883
 21
68.4505438121
 31
0.0
  0
SPLINE
  5
A7
330
1F
100
AcDbEntity
  8
0
  6
Continuous
 62
     7
370
    25
100
AcDbSpline
210
0.0
220
0.0
230
1.0
 70
     8
 71
     3
 72
    21
 73
    17
 74
     0
 42
0.00000001
 43
0.00000001
 40
0.0
 40
0.0
 40
0.0
 40
0.0
 40
0.0127769631279332
 40
0.0239257360036097
 40
0.0348510338069718
 40
0.0524445796124331
 40
0.0717847701455403
 40
0.1110495992563214
 40
0.1470456735411551
 40
0.216961834166013
 40
0.289074812457112
 40
0.4341739120083943
 40
0.5775367973539723
 40
0.718072569348716
 40
0.8590243711936768
 40
1.0
 40
1.0
 40
1.0
 40
1.0
 10
980.6424798898522
 20
25.49240422243967
 30
0.0
 10
980.7932040940976
 20
26.09830002807512
 30
0.0
 10
981.0754454595943
 20
27.23288130111926
 30
0.0
 10
980.7715932794787
 20
28.94111760660396
 30
0.0
 10
979.8184284533473
 20
30.63639708732865
 30
0.0
 10
978.0747344570892
 20
32.21712207576805
 30
0.0
 10
974.9110824544475
 20
34.11908004342322
 30
0.0
 10
970.7646744770293
 20
36.07153900994808
 30
0.0
 10
964.5283395461606
 20
39.30532870536504
 30
0.0
 10
956.6444489136729
 20
42.8109773569675
 30
0.0
 10
943.5258422098117
 20
47.4089411950109
 30
0.0
 10
926.9312883022436
 20
52.80285291921543
 30
0.0
 10
907.4701669649654
 20
60.06293167637625
 30
0.0
 10
888.581536777738
 20
68.20027026312366
 30
0.0
 10
870.1327342682865
 20
77.02660792477225
 30
0.0
 10
858.0757540845623
 20
83.41520697628006
 30
0.0
 10
852.0467544977562
 20
86.60977646672383
 30
0.0
  0
CIRCLE
  5
A8
330
1F
100
AcDbEntity
  8
0
  6
Continuous
 62
     7
370
    25
100
AcDbCircle
 10
879.057685738
 20
50.9531504239
 30
0.0
 40
1.999999999999988
  0
CIRCLE
  5
A9
330
1F
100
AcDbEntity
  8
0
  6
Continuous
 62
     7
370
    25
100
AcDbCircle
 10
967.0469051255
 20
26.9946514811
 30
0.0
 40
1.999999999999992
  0
SPLINE
  5
AA
330
1F
100
AcDbEntity
  8
0
  6
Continuous
 62
     7
370
    25
100
AcDbSpline
210
0.0
220
0.0
230
1.0
 70
     8
 71
     3
 72
    25
 73
    21
 74
     0
 42
0.00000001
 43
0.00000001
 40
0.0
 40
0.0
 40
0.0
 40
0.0
 40
0.0852857485966725
 40
0.1705257596972629
 40
0.2557066849493927
 40
0.3409518958392521
 40
0.4262491261338389
 40
0.497911061259219
 40
0.5696677609631448
 40
0.6413277168654818
 40
0.7128529698933487
 40
0.7605481848193589
 40
0.8082975951516682
 40
0.8560865766577768
 40
0.8799395449469433
 40
0.9037872307715071
 40
0.9276204985625925
 40
0.951336215482617
 40
0.9751948798249556
 40
1.0
 40
1.0
 40
1.0
 40
1.0
 10
158.7438833938961
 20
136.8379091204166
 30
0.0
 10
154.4884632971522
 20
138.1167690227051
 30
0.0
 10
145.9799052230476
 20
140.6738029934737
 30
0.0
 10
133.1196557317506
 20
144.1612043517231
 30
0.0
 10
120.1220762405473
 20
147.1016654233214
 30
0.0
 10
106.9619083746983
 20
149.2413710409203
 30
0.0
 10
94.37998875133296
 20
150.3629427006063
 30
0.0
 10
82.45461364615214
 20
150.5137891789103
 30
0.0
 10
71.2599509346834
 20
149.7874923619234
 30
0.0
 10
60.17619106470379
 20
148.0787443446813
 30
0.0
 10
50.53167172430534
 20
145.5722996995349
 30
0.0
 10
42.34333998089151
 20
142.6118203126101
 30
0.0
 10
35.52954023501059
 20
139.5558793866944
 30
0.0
 10
30.04507079234892
 20
136.5995356899563
 30
0.0
 10
25.89212196044177
 20
133.8531323785664
 30
0.0
 10
22.94135568579725
 20
131.5715057828954
 30
0.0
 10
20.20465578232145
 20
129.0385677797323
 30
0.0
 10
17.84043700774674
 20
126.1546296844705
 30
0.0
 10
15.94013821230877
 20
122.8494891262157
 30
0.0
 10
15.33019655457391
 20
120.3770000887795
 30
0.0
 10
15.0192943863614
 20
119.1167120056943
 30
0.0
  0
LINE
  5
AB
330
1F
100
AcDbEntity
  8
0
  6
Continuous
 62
     7
370
    25
100
AcDbLine
 10
157.3718181661
 20
116.296649472
 30
0.0
 11
158.7438833939
 21
136.8379091204
 31
0.0
  0
SPLINE
  5
AC
330
1F
100
AcDbEntity
  8
0
  6
Continuous
 62
     7
370
    25
100
AcDbSpline
210
0.0
220
0.0
230
1.0
 70
     8
 71
     3
 72
    21
 73
    17
 74
     0
 42
0.00000001
 43
0.00000001
 40
0.0
 40
0.0
 40
0.0
 40
0.0
 40
0.0127769631279332
 40
0.0239257360036093
 40
0.0348510338069719
 40
0.0524445796124328
 40
0.0717847701455403
 40
0.1110495992563214
 40
0.147045673541155
 40
0.2169618341660133
 40
0.2890748124571123
 40
0.4341739120083944
 40
0.5775367973539722
 40
0.7180725693487157
 40
0.8590243711936768
 40
1.0
 40
1.0
 40
1.0
 40
1.0
 10
15.0192943863614
 20
119.1167120056943
 30
0.0
 10
15.13110127919759
 20
118.5024427392107
 30
0.0
 10
15.34046732139349
 20
117.3521815888996
 30
0.0
 10
16.31999602984635
 20
115.9200779152594
 30
0.0
 10
17.88604996668941
 20
114.766834328484
 30
0.0
 10
20.12556405073629
 20
114.0431376316425
 30
0.0
 10
23.79149916081102
 20
113.6106357550394
 30
0.0
 10
28.37399497712628
 20
113.53629044842
 30
0.0
 10
35.38846411558338
 20
113.1535478850841
 30
0.0
 10
44.01650496993248
 20
113.2006115567766
 30
0.0
 10
57.86528330235363
 20
114.4049586853104
 30
0.0
 10
75.20977581774297
 20
116.3133827637855
 30
0.0
 10
95.93468814776546
 20
117.6997435311579
 30
0.0
 10
116.4985699473538
 20
118.0510197156286
 30
0.0
 10
136.9449170898707
 20
117.5933745715763
 30
0.0
 10
150.5624675138048
 20
116.7289155249709
 30
0.0
 10
157.3718181661378
 20
116.2966494719978
 30
0.0
  0
CIRCLE
  5
AD
330
1F
100
AcDbEntity
  8
0
  6
Continuous
 62
     7
370
    25
100
AcDbCircle
 10
118.0862336167
 20
137.6888965217
 30
0.0
 40
1.99999999999999
  0
CIRCLE
  5
AE
330
1F
100
AcDbEntity
  8
0
  6
Continuous
 62
     7
370
    25
100
AcDbCircle
 10
28.0296244424
 20
123.3389995177
 30
0.0
 40
1.999999999999986
  0
MTEXT
  5
B0
330
1F
100
AcDbEntity
  8
0
  6
Continuous
 62
     7
100
AcDbMText
 10
0.0
 20
7.3534328773
 30
0.0
 40
2.63652
 41
0.0
 71
     1
 72
     1
  1
SOLIDWORKS Educational Product.
  7
SLDTEXTSTYLE0
 73
     1
 44
1.0
  0
MTEXT
  5
B1
330
1F
100
AcDbEntity
  8
0
  6
Continuous
 62
     7
100
AcDbMText
 10
0.0
 20
3.3986528773
 30
0.0
 40
2.63652
 41
0.0
 71
     1
 72
     1
  1
For Instructional Use Only.
  7
SLDTEXTSTYLE0
 73
     1
 44
1.0
  0
ENDSEC
  0
SECTION
  2
OBJECTS
  0
DICTIONARY
  5
C
330
0
100
AcDbDictionary
281
     1
  3
ACAD_GROUP
350
D
  3
ACAD_LAYOUT
350
1A
  3
ACAD_MLINESTYLE
350
17
  3
ACAD_PLOTSETTINGS
350
19
  3
ACAD_PLOTSTYLENAME
350
E
  3
ACAD_SCALELIST
350
47
  3
DWGPROPS
350
B2
  0
DICTIONARY
  5
D
102
{ACAD_REACTORS
330
C
102
}
330
C
100
AcDbDictionary
281
     1
  0
DICTIONARY
  5
1A
102
{ACAD_REACTORS
330
C
102
}
330
C
100
AcDbDictionary
281
     1
  3
Layout1
350
1E
  3
Layout2
350
26
  3
Model
350
22
  0
DICTIONARY
  5
17
102
{ACAD_REACTORS
330
C
102
}
330
C
100
AcDbDictionary
281
     1
  3
Standard
350
18
  0
DICTIONARY
  5
19
102
{ACAD_REACTORS
330
C
102
}
330
C
100
AcDbDictionary
281
     1
  0
ACDBDICTIONARYWDFLT
  5
E
102
{ACAD_REACTORS
330
C
102
}
330
C
100
AcDbDictionary
281
     1
  3
Normal
350
F
100
AcDbDictionaryWithDefault
340
F
  0
DICTIONARY
  5
47
102
{ACAD_REACTORS
330
C
102
}
330
C
100
AcDbDictionary
281
     1
  3
A0
350
48
  3
A1
350
49
  3
A2
350
4A
  3
A3
350
4B
  3
A4
350
4C
  3
A5
350
4D
  3
A6
350
4E
  3
A7
350
4F
  3
A8
350
50
  3
A9
350
51
  3
B0
350
52
  3
B1
350
53
  3
B2
350
54
  3
B3
350
55
  3
B4
350
56
  3
B5
350
57
  3
B6
350
58
  0
XRECORD
  5
B2
102
{ACAD_REACTORS
330
C
102
}
330
C
100
AcDbXrecord
280
     1
  1
DWGPROPS COOKIE
  2

  3

  4

  6

  7

  8
joshu
  9

300
=
301
=
302
=
303
=
304
=
305
=
306
=
307
=
308
=
309
=
 40
0.0
 41
2460356.754611956
 42
2460356.754612315
  1

 90
        0
  0
LAYOUT
  5
1E
102
{ACAD_REACTORS
330
1A
102
}
330
1A
100
AcDbPlotSettings
  1

  2
none_device
  4

  6

 40
0.0
 41
0.0
 42
0.0
 43
0.0
 44
0.0
 45
0.0
 46
0.0
 47
0.0
 48
0.0
 49
0.0
140
0.0
141
0.0
142
1.0
143
1.0
 70
   688
 72
     1
 73
     0
 74
     5
  7

 75
    16
147
1.0
148
0.0
149
0.0
100
AcDbLayout
  1
Layout1
 70
     1
 71
     1
 10
0.0
 20
0.0
 11
420.0
 21
297.0
 12
0.0
 22
0.0
 32
0.0
 14
1.0000000000E+20
 24
1.0000000000E+20
 34
1.0000000000E+20
 15
-1.0000000000E+20
 25
-1.0000000000E+20
 35
-1.0000000000E+20
146
0.0
 13
0.0
 23
0.0
 33
0.0
 16
1.0
 26
0.0
 36
0.0
 17
0.0
 27
1.0
 37
0.0
 76
     0
330
1B
  0
LAYOUT
  5
26
102
{ACAD_REACTORS
330
1A
102
}
330
1A
100
AcDbPlotSettings
  1

  2
none_device
  4

  6

 40
0.0
 41
0.0
 42
0.0
 43
0.0
 44
0.0
 45
0.0
 46
0.0
 47
0.0
 48
0.0
 49
0.0
140
0.0
141
0.0
142
1.0
143
1.0
 70
   688
 72
     1
 73
     0
 74
     5
  7

 75
    16
147
1.0
148
0.0
149
0.0
100
AcDbLayout
  1
Layout2
 70
     1
 71
     2
 10
0.0
 20
0.0
 11
0.0
 21
0.0
 12
0.0
 22
0.0
 32
0.0
 14
0.0
 24
0.0
 34
0.0
 15
0.0
 25
0.0
 35
0.0
146
0.0
 13
0.0
 23
0.0
 33
0.0
 16
1.0
 26
0.0
 36
0.0
 17
0.0
 27
1.0
 37
0.0
 76
     0
330
23
  0
LAYOUT
  5
22
102
{ACAD_REACTORS
330
1A
102
}
330
1A
100
AcDbPlotSettings
  1

  2
none_device
  4
Letter_(8.50_x_11.00_Inches)
  6

 40
6.35
 41
6.35
 42
6.35000508
 43
6.35000508
 44
215.9
 45
279.4
 46
0.0
 47
0.0
 48
0.0
 49
0.0
140
0.0
141
0.0
142
1.0
143
1.0
 70
  1712
 72
     1
 73
     0
 74
     0
  7

 75
     0
147
1.0
148
0.0
149
0.0
100
AcDbLayout
  1
Model
 70
     1
 71
     0
 10
0.0
 20
0.0
 11
1016.0
 21
152.4
 12
0.0
 22
0.0
 32
0.0
 14
0.0
 24
0.0
 34
0.0
 15
1016.0
 25
152.4
 35
0.0
146
0.0
 13
0.0
 23
0.0
 33
0.0
 16
1.0
 26
0.0
 36
0.0
 17
0.0
 27
1.0
 37
0.0
 76
     0
330
1F
331
29
  0
MLINESTYLE
  5
18
102
{ACAD_REACTORS
330
17
102
}
330
17
100
AcDbMlineStyle
  2
Standard
 70
     0
  3

 62
   256
 51
90.0
 52
90.0
 71
     2
 49
0.5
 62
   256
  6
BYLAYER
 49
-0.5
 62
   256
  6
BYLAYER
  0
ACDBPLACEHOLDER
  5
F
102
{ACAD_REACTORS
330
E
102
}
330
E
  0
SCALE
  5
48
102
{ACAD_REACTORS
330
47
102
}
330
47
100
AcDbScale
 70
     0
300
1:1
140
1.0
141
1.0
290
     1
  0
SCALE
  5
49
102
{ACAD_REACTORS
330
47
102
}
330
47
100
AcDbScale
 70
     0
300
1:2
140
1.0
141
2.0
290
     0
  0
SCALE
  5
4A
102
{ACAD_REACTORS
330
47
102
}
330
47
100
AcDbScale
 70
     0
300
1:4
140
1.0
141
4.0
290
     0
  0
SCALE
  5
4B
102
{ACAD_REACTORS
330
47
102
}
330
47
100
AcDbScale
 70
     0
300
1:5
140
1.0
141
5.0
290
     0
  0
SCALE
  5
4C
102
{ACAD_REACTORS
330
47
102
}
330
47
100
AcDbScale
 70
     0
300
1:8
140
1.0
141
8.0
290
     0
  0
SCALE
  5
4D
102
{ACAD_REACTORS
330
47
102
}
330
47
100
AcDbScale
 70
     0
300
1:10
140
1.0
141
10.0
290
     0
  0
SCALE
  5
4E
102
{ACAD_REACTORS
330
47
102
}
330
47
100
AcDbScale
 70
     0
300
1:16
140
1.0
141
16.0
290
     0
  0
SCALE
  5
4F
102
{ACAD_REACTORS
330
47
102
}
330
47
100
AcDbScale
 70
     0
300
1:20
140
1.0
141
20.0
290
     0
  0
SCALE
  5
50
102
{ACAD_REACTORS
330
47
102
}
330
47
100
AcDbScale
 70
     0
300
1:30
140
1.0
141
30.0
290
     0
  0
SCALE
  5
51
102
{ACAD_REACTORS
330
47
102
}
330
47
100
AcDbScale
 70
     0
300
1:40
140
1.0
141
40.0
290
     0
  0
SCALE
  5
52
102
{ACAD_REACTORS
330
47
102
}
330
47
100
AcDbScale
 70
     0
300
1:50
140
1.0
141
50.0
290
     0
  0
SCALE
  5
53
102
{ACAD_REACTORS
330
47
102
}
330
47
100
AcDbScale
 70
     0
300
1:100
140
1.0
141
100.0
290
     0
  0
SCALE
  5
54
102
{ACAD_REACTORS
330
47
102
}
330
47
100
AcDbScale
 70
     0
300
2:1
140
2.0
141
1.0
290
     0
  0
SCALE
  5
55
102
{ACAD_REACTORS
330
47
102
}
330
47
100
AcDbScale
 70
     0
300
4:1
140
4.0
141
1.0
290
     0
  0
SCALE
  5
56
102
{ACAD_REACTORS
330
47
102
}
330
47
100
AcDbScale
 70
     0
300
8:1
140
8.0
141
1.0
290
     0
  0
SCALE
  5
57
102
{ACAD_REACTORS
330
47
102
}
330
47
100
AcDbScale
 70
     0
300
10:1
140
10.0
141
1.0
290
     0
  0
SCALE
  5
58
102
{ACAD_REACTORS
330
47
102
}
330
47
100
AcDbScale
 70
     0
300
100:1
140
100.0
141
1.0
290
     0
  0
ENDSEC
  0
EOF
