  0
SECTION
  2
HEADER
  9
$ACADVER
  1
AC1015
  9
$ACADMAINTVER
 70
     6
  9
$DWGCODEPAGE
  3
ANSI_1252
  9
$INSBASE
 10
0.0
 20
0.0
 30
0.0
  9
$EXTMIN
 10
0.0
 20
0.0
 30
0.0
  9
$EXTMAX
 10
1016.0
 20
152.4
 30
0.0
  9
$LIMMIN
 10
0.0
 20
0.0
  9
$LIMMAX
 10
1016.0
 20
152.4
  9
$ORTHOMODE
 70
     0
  9
$REGENMODE
 70
     1
  9
$FILLMODE
 70
     1
  9
$QTEXTMODE
 70
     0
  9
$MIRRTEXT
 70
     1
  9
$LTSCALE
 40
1.0
  9
$ATTMODE
 70
     1
  9
$TEXTSIZE
 40
3.5
  9
$TRACEWID
 40
1.0
  9
$TEXTSTYLE
  7
Standard
  9
$CLAYER
  8
0
  9
$CELTYPE
  6
ByLayer
  9
$CECOLOR
 62
   256
  9
$CELTSCALE
 40
1.0
  9
$DISPSILH
 70
     0
  9
$DIMSCALE
 40
1.0
  9
$DIMASZ
 40
3.556
  9
$DIMEXO
 40
1.0
  9
$DIMDLI
 40
3.75
  9
$DIMRND
 40
0.0
  9
$DIMDLE
 40
0.0
  9
$DIMEXE
 40
1.0
  9
$DIMTP
 40
0.0
  9
$DIMTM
 40
0.0
  9
$DIMTXT
 40
3.5
  9
$DIMCEN
 40
2.5
  9
$DIMTSZ
 40
0.0
  9
$DIMTOL
 70
     0
  9
$DIMLIM
 70
     0
  9
$DIMTIH
 70
     1
  9
$DIMTOH
 70
     1
  9
$DIMSE1
 70
     0
  9
$DIMSE2
 70
     0
  9
$DIMTAD
 70
     1
  9
$DIMZIN
 70
     1
  9
$DIMBLK
  1

  9
$DIMASO
 70
     1
  9
$DIMSHO
 70
     1
  9
$DIMPOST
  1

  9
$DIMAPOST
  1

  9
$DIMALT
 70
     0
  9
$DIMALTD
 70
     3
  9
$DIMALTF
 40
0.0393700787
  9
$DIMLFAC
 40
2.0
  9
$DIMTOFL
 70
     1
  9
$DIMTVP
 40
0.0
  9
$DIMTIX
 70
     0
  9
$DIMSOXD
 70
     0
  9
$DIMSAH
 70
     0
  9
$DIMBLK1
  1

  9
$DIMBLK2
  1

  9
$DIMSTYLE
  2
ISO-25
  9
$DIMCLRD
 70
     0
  9
$DIMCLRE
 70
     0
  9
$DIMCLRT
 70
     0
  9
$DIMTFAC
 40
1.0
  9
$DIMGAP
 40
1.524
  9
$DIMJUST
 70
     0
  9
$DIMSD1
 70
     0
  9
$DIMSD2
 70
     0
  9
$DIMTOLJ
 70
     0
  9
$DIMTZIN
 70
     1
  9
$DIMALTZ
 70
     0
  9
$DIMALTTZ
 70
     0
  9
$DIMUPT
 70
     0
  9
$DIMDEC
 70
     2
  9
$DIMTDEC
 70
     2
  9
$DIMALTU
 70
     2
  9
$DIMALTTD
 70
     3
  9
$DIMTXSTY
  7
Standard
  9
$DIMAUNIT
 70
     0
  9
$DIMADEC
 70
     2
  9
$DIMALTRND
 40
0.0
  9
$DIMAZIN
 70
     0
  9
$DIMDSEP
 70
    44
  9
$DIMATFIT
 70
     3
  9
$DIMFRAC
 70
     0
  9
$DIMLDRBLK
  1

  9
$DIMLUNIT
 70
     2
  9
$DIMLWD
 70
    -2
  9
$DIMLWE
 70
    -2
  9
$DIMTMOVE
 70
     0
  9
$LUNITS
 70
     2
  9
$LUPREC
 70
     2
  9
$SKETCHINC
 40
1.0
  9
$FILLETRAD
 40
0.0
  9
$AUNITS
 70
     0
  9
$AUPREC
 70
     2
  9
$MENU
  1
.
  9
$ELEVATION
 40
0.0
  9
$PELEVATION
 40
0.0
  9
$THICKNESS
 40
0.0
  9
$LIMCHECK
 70
     0
  9
$CHAMFERA
 40
0.0
  9
$CHAMFERB
 40
0.0
  9
$CHAMFERC
 40
0.0
  9
$CHAMFERD
 40
0.0
  9
$SKPOLY
 70
     0
  9
$TDCREATE
 40
2460356.964761331
  9
$TDUCREATE
 40
2460357.173094664
  9
$TDUPDATE
 40
2460356.964761551
  9
$TDUUPDATE
 40
2460357.173094884
  9
$TDINDWG
 40
0.0000000116
  9
$TDUSRTIMER
 40
0.0000000116
  9
$USRTIMER
 70
     1
  9
$ANGBASE
 50
0.0
  9
$ANGDIR
 70
     0
  9
$PDMODE
 70
     0
  9
$PDSIZE
 40
-1.0
  9
$PLINEWID
 40
0.0
  9
$SPLFRAME
 70
     0
  9
$SPLINETYPE
 70
     6
  9
$SPLINESEGS
 70
     8
  9
$HANDSEED
  5
E3
  9
$SURFTAB1
 70
     6
  9
$SURFTAB2
 70
     6
  9
$SURFTYPE
 70
     6
  9
$SURFU
 70
     6
  9
$SURFV
 70
     6
  9
$UCSBASE
  2

  9
$UCSNAME
  2

  9
$UCSORG
 10
0.0
 20
0.0
 30
0.0
  9
$UCSXDIR
 10
1.0
 20
0.0
 30
0.0
  9
$UCSYDIR
 10
0.0
 20
1.0
 30
0.0
  9
$UCSORTHOREF
  2

  9
$UCSORTHOVIEW
 70
     0
  9
$UCSORGTOP
 10
0.0
 20
0.0
 30
0.0
  9
$UCSORGBOTTOM
 10
0.0
 20
0.0
 30
0.0
  9
$UCSORGLEFT
 10
0.0
 20
0.0
 30
0.0
  9
$UCSORGRIGHT
 10
0.0
 20
0.0
 30
0.0
  9
$UCSORGFRONT
 10
0.0
 20
0.0
 30
0.0
  9
$UCSORGBACK
 10
0.0
 20
0.0
 30
0.0
  9
$PUCSBASE
  2

  9
$PUCSNAME
  2

  9
$PUCSORG
 10
0.0
 20
0.0
 30
0.0
  9
$PUCSXDIR
 10
1.0
 20
0.0
 30
0.0
  9
$PUCSYDIR
 10
0.0
 20
1.0
 30
0.0
  9
$PUCSORTHOREF
  2

  9
$PUCSORTHOVIEW
 70
     0
  9
$PUCSORGTOP
 10
0.0
 20
0.0
 30
0.0
  9
$PUCSORGBOTTOM
 10
0.0
 20
0.0
 30
0.0
  9
$PUCSORGLEFT
 10
0.0
 20
0.0
 30
0.0
  9
$PUCSORGRIGHT
 10
0.0
 20
0.0
 30
0.0
  9
$PUCSORGFRONT
 10
0.0
 20
0.0
 30
0.0
  9
$PUCSORGBACK
 10
0.0
 20
0.0
 30
0.0
  9
$USERI1
 70
     0
  9
$USERI2
 70
     0
  9
$USERI3
 70
     0
  9
$USERI4
 70
     0
  9
$USERI5
 70
     0
  9
$USERR1
 40
0.0
  9
$USERR2
 40
0.0
  9
$USERR3
 40
0.0
  9
$USERR4
 40
0.0
  9
$USERR5
 40
0.0
  9
$WORLDVIEW
 70
     1
  9
$SHADEDGE
 70
     3
  9
$SHADEDIF
 70
    70
  9
$TILEMODE
 70
     1
  9
$MAXACTVP
 70
    64
  9
$PINSBASE
 10
0.0
 20
0.0
 30
0.0
  9
$PLIMCHECK
 70
     0
  9
$PEXTMIN
 10
1.0000000000E+20
 20
1.0000000000E+20
 30
1.0000000000E+20
  9
$PEXTMAX
 10
-1.0000000000E+20
 20
-1.0000000000E+20
 30
-1.0000000000E+20
  9
$PLIMMIN
 10
0.0
 20
0.0
  9
$PLIMMAX
 10
420.0
 20
297.0
  9
$UNITMODE
 70
     0
  9
$VISRETAIN
 70
     1
  9
$PLINEGEN
 70
     0
  9
$PSLTSCALE
 70
     1
  9
$TREEDEPTH
 70
  3020
  9
$CMLSTYLE
  2
Standard
  9
$CMLJUST
 70
     0
  9
$CMLSCALE
 40
20.0
  9
$PROXYGRAPHICS
 70
     1
  9
$MEASUREMENT
 70
     1
  9
$CELWEIGHT
370
    -1
  9
$ENDCAPS
280
     0
  9
$JOINSTYLE
280
     0
  9
$LWDISPLAY
290
     1
  9
$INSUNITS
 70
     4
  9
$HYPERLINKBASE
  1

  9
$STYLESHEET
  1

  9
$XEDIT
290
     1
  9
$CEPSNTYPE
380
     0
  9
$PSTYLEMODE
290
     1
  9
$FINGERPRINTGUID
  2
{62bc484f-9f60-43de-a75f-175af918b95d}
  9
$VERSIONGUID
  2
{FAEB1C32-E019-11D5-929B-00C0DF256EC4}
  9
$EXTNAMES
290
     1
  9
$PSVPSCALE
 40
0.0
  9
$OLESTARTUP
290
     0
  0
ENDSEC
  0
SECTION
  2
CLASSES
  0
CLASS
  1
ACDBDICTIONARYWDFLT
  2
AcDbDictionaryWithDefault
  3
ObjectDBX Classes
 90
        0
280
     0
281
     0
  0
CLASS
  1
VISUALSTYLE
  2
AcDbVisualStyle
  3
ObjectDBX Classes
 90
     4095
280
     0
281
     0
  0
CLASS
  1
MATERIAL
  2
AcDbMaterial
  3
ObjectDBX Classes
 90
     1153
280
     0
281
     0
  0
CLASS
  1
SCALE
  2
AcDbScale
  3
ObjectDBX Classes
 90
     1153
280
     0
281
     0
  0
CLASS
  1
TABLESTYLE
  2
AcDbTableStyle
  3
ObjectDBX Classes
 90
     4095
280
     0
281
     0
  0
CLASS
  1
MLEADERSTYLE
  2
AcDbMLeaderStyle
  3
ACDB_MLEADERSTYLE_CLASS
 90
     4095
280
     0
281
     0
  0
CLASS
  1
SUN
  2
AcDbSun
  3
SCENEOE
 90
     1153
280
     0
281
     0
  0
CLASS
  1
ACDBPLACEHOLDER
  2
AcDbPlaceHolder
  3
ObjectDBX Classes
 90
        0
280
     0
281
     0
  0
CLASS
  1
LAYOUT
  2
AcDbLayout
  3
ObjectDBX Classes
 90
        0
280
     0
281
     0
  0
ENDSEC
  0
SECTION
  2
TABLES
  0
TABLE
  2
VPORT
  5
8
330
0
100
AcDbSymbolTable
 70
     1
  0
VPORT
  5
29
330
8
100
AcDbSymbolTableRecord
100
AcDbViewportTableRecord
  2
*Active
 70
     0
 10
0.0
 20
0.0
 11
1.0
 21
1.0
 12
508.0
 22
76.2
 13
0.0
 23
0.0
 14
10.0
 24
10.0
 15
10.0
 25
10.0
 16
0.0
 26
0.0
 36
1.0
 17
0.0
 27
0.0
 37
0.0
 40
152.4
 41
6.6666666667
 42
50.0
 43
0.0
 44
0.0
 50
0.0
 51
0.0
 71
     0
 72
  2000
 73
     1
 74
     3
 75
     0
 76
     0
 77
     0
 78
     0
281
     0
 65
     1
110
0.0
120
0.0
130
0.0
111
1.0
121
0.0
131
0.0
112
0.0
122
1.0
132
0.0
 79
     0
146
0.0
  0
ENDTAB
  0
TABLE
  2
LTYPE
  5
5
330
0
100
AcDbSymbolTable
 70
     6
  0
LTYPE
  5
14
330
5
100
AcDbSymbolTableRecord
100
AcDbLinetypeTableRecord
  2
ByBlock
 70
     0
  3

 72
    65
 73
     0
 40
0.0
  0
LTYPE
  5
15
330
5
100
AcDbSymbolTableRecord
100
AcDbLinetypeTableRecord
  2
ByLayer
 70
     0
  3

 72
    65
 73
     0
 40
0.0
  0
LTYPE
  5
16
330
5
100
AcDbSymbolTableRecord
100
AcDbLinetypeTableRecord
  2
Continuous
 70
     0
  3
Solid line
 72
    65
 73
     0
 40
0.0
  0
LTYPE
  5
5E
330
5
100
AcDbSymbolTableRecord
100
AcDbLinetypeTableRecord
  2
HIDDEN
 70
     0
  3
Hidden __ __ __ __ __ __ __ __ __ __ __ __ __ __
 72
    65
 73
     2
 40
1.905
 49
1.27
 74
     0
 49
-0.635
 74
     0
  0
LTYPE
  5
5F
330
5
100
AcDbSymbolTableRecord
100
AcDbLinetypeTableRecord
  2
PHANTOM
 70
     0
  3
Phantom ______  __  __  ______  __  __  ______
 72
    65
 73
     6
 40
12.7
 49
6.35
 74
     0
 49
-1.27
 74
     0
 49
1.27
 74
     0
 49
-1.27
 74
     0
 49
1.27
 74
     0
 49
-1.27
 74
     0
  0
LTYPE
  5
60
330
5
100
AcDbSymbolTableRecord
100
AcDbLinetypeTableRecord
  2
CENTER
 70
     0
  3
Center ____ _ ____ _ ____ _ ____ _ ____ _ ____
 72
    65
 73
     4
 40
10.16
 49
6.35
 74
     0
 49
-1.27
 74
     0
 49
1.27
 74
     0
 49
-1.27
 74
     0
  0
LTYPE
  5
61
330
5
100
AcDbSymbolTableRecord
100
AcDbLinetypeTableRecord
  2
CENTERX2
 70
     0
  3
Center (2x) ________  __  ________  __  _____
 72
    65
 73
     4
 40
20.32
 49
12.7
 74
     0
 49
-2.54
 74
     0
 49
2.54
 74
     0
 49
-2.54
 74
     0
  0
LTYPE
  5
62
330
5
100
AcDbSymbolTableRecord
100
AcDbLinetypeTableRecord
  2
DOT2
 70
     0
  3
Dot (.5x) ........................................
 72
    65
 73
     2
 40
0.635
 49
0.0
 74
     0
 49
-0.635
 74
     0
  0
ENDTAB
  0
TABLE
  2
LAYER
  5
2
330
0
100
AcDbSymbolTable
 70
     1
  0
LAYER
  5
10
330
2
100
AcDbSymbolTableRecord
100
AcDbLayerTableRecord
  2
0
 70
     0
 62
     7
  6
Continuous
370
    -3
390
F
  0
ENDTAB
  0
TABLE
  2
STYLE
  5
3
330
0
100
AcDbSymbolTable
 70
     2
  0
STYLE
  5
11
330
3
100
AcDbSymbolTableRecord
100
AcDbTextStyleTableRecord
  2
Standard
 70
     0
 40
0.0
 41
1.0
 50
0.0
 71
     0
 42
3.5
  3
txt
  4

  0
STYLE
  5
DF
330
3
100
AcDbSymbolTableRecord
100
AcDbTextStyleTableRecord
  2
SLDTEXTSTYLE0
 70
     0
 40
0.0
 41
0.7
 50
0.0
 71
     0
 42
3.5
  3
TXT
  4

  0
ENDTAB
  0
TABLE
  2
VIEW
  5
6
330
0
100
AcDbSymbolTable
 70
     0
  0
ENDTAB
  0
TABLE
  2
UCS
  5
7
330
0
100
AcDbSymbolTable
 70
     0
  0
ENDTAB
  0
TABLE
  2
APPID
  5
9
330
0
100
AcDbSymbolTable
 70
     1
  0
APPID
  5
12
330
9
100
AcDbSymbolTableRecord
100
AcDbRegAppTableRecord
  2
ACAD
 70
     0
  0
ENDTAB
  0
TABLE
  2
DIMSTYLE
  5
A
330
0
100
AcDbSymbolTable
 70
     1
100
AcDbDimStyleTable
  0
DIMSTYLE
105
27
330
A
100
AcDbSymbolTableRecord
100
AcDbDimStyleTableRecord
  2
ISO-25
 70
     0
 41
2.5
 42
0.625
 43
3.75
 44
1.25
 73
     0
 74
     0
 77
     1
 78
     8
140
2.5
141
2.5
143
0.0393700787
147
0.625
171
     3
172
     1
178
     0
271
     2
272
     2
274
     3
278
    44
283
     0
284
     8
340
11
  0
ENDTAB
  0
TABLE
  2
BLOCK_RECORD
  5
1
330
0
100
AcDbSymbolTable
 70
     1
  0
BLOCK_RECORD
  5
1F
330
1
100
AcDbSymbolTableRecord
100
AcDbBlockTableRecord
  2
*Model_Space
340
22
  0
BLOCK_RECORD
  5
1B
330
1
100
AcDbSymbolTableRecord
100
AcDbBlockTableRecord
  2
*Paper_Space
340
1E
  0
BLOCK_RECORD
  5
23
330
1
100
AcDbSymbolTableRecord
100
AcDbBlockTableRecord
  2
*Paper_Space0
340
26
  0
ENDTAB
  0
ENDSEC
  0
SECTION
  2
BLOCKS
  0
BLOCK
  5
20
330
1F
100
AcDbEntity
  8
0
100
AcDbBlockBegin
  2
*Model_Space
 70
     0
 10
0.0
 20
0.0
 30
0.0
  3
*Model_Space
  1

  0
ENDBLK
  5
21
330
1F
100
AcDbEntity
  8
0
100
AcDbBlockEnd
  0
BLOCK
  5
1C
330
1B
100
AcDbEntity
 67
     1
  8
0
100
AcDbBlockBegin
  2
*Paper_Space
 70
     0
 10
0.0
 20
0.0
 30
0.0
  3
*Paper_Space
  1

  0
ENDBLK
  5
1D
330
1B
100
AcDbEntity
 67
     1
  8
0
100
AcDbBlockEnd
  0
BLOCK
  5
24
330
23
100
AcDbEntity
  8
0
100
AcDbBlockBegin
  2
*Paper_Space0
 70
     0
 10
0.0
 20
0.0
 30
0.0
  3
*Paper_Space0
  1

  0
ENDBLK
  5
25
330
23
100
AcDbEntity
  8
0
100
AcDbBlockEnd
  0
ENDSEC
  0
SECTION
  2
ENTITIES
  0
SPLINE
  5
63
330
1F
100
AcDbEntity
  8
0
  6
Continuous
 62
     7
370
    25
100
AcDbSpline
210
0.0
220
0.0
230
1.0
 70
     8
 71
     3
 72
    56
 73
    52
 74
     0
 42
0.00000001
 43
0.00000001
 40
0.0
 40
0.0
 40
0.0
 40
0.0
 40
0.0030565428276034
 40
0.0050733295616691
 40
0.0060575699309049
 40
0.0062236427101553
 40
0.0063582112307862
 40
0.0064680748909759
 40
0.0065896101623502
 40
0.0067178320871242
 40
0.0068757942414024
 40
0.0070745216974541
 40
0.0080702832055805
 40
0.0095525497276408
 40
0.0126890054439878
 40
0.025919652492982
 40
0.0378551884524969
 40
0.0477583292776071
 40
0.0563044983153406
 40
0.0641690141527116
 40
0.0846927215053224
 40
0.1077749044240444
 40
0.132250940001466
 40
0.1568938130743572
 40
0.1810125817286756
 40
0.2046696530125824
 40
0.2279831790671606
 40
0.2510705804670406
 40
0.2970329911329267
 40
0.3433952701230085
 40
0.3902290302713369
 40
0.4372203513239558
 40
0.4841007304255028
 40
0.5308594849094744
 40
0.5776333578005282
 40
0.6244756633083828
 40
0.6619818793368742
 40
0.6995331136985462
 40
0.7371105779703394
 40
0.7746362948795503
 40
0.8120954484992406
 40
0.8433043625083423
 40
0.8745414139400991
 40
0.9058222185465954
 40
0.9192133272938982
 40
0.9325887622814274
 40
0.9459734839013011
 40
0.9593257797415515
 40
0.9726265478039527
 40
0.9860474181480035
 40
0.9999999999999999
 40
0.9999999999999999
 40
0.9999999999999999
 40
0.9999999999999999
 10
818.0698496419119
 20
48.64897882424396
 30
0.0
 10
818.4126076617276
 20
48.60819332760396
 30
0.0
 10
818.9815263690745
 20
48.5404964957708
 30
0.0
 10
819.6621602878263
 20
48.51017420347542
 30
0.0
 10
820.0237887660558
 20
48.53357342625847
 30
0.0
 10
820.1607441218182
 20
48.5824117385269
 30
0.0
 10
820.2013150440946
 20
48.60533050103483
 30
0.0
 10
820.2317778446477
 20
48.63406907695195
 30
0.0
 10
820.2479651486847
 20
48.67334010293828
 30
0.0
 10
820.2408288819365
 20
48.72042732199705
 30
0.0
 10
820.2144595281337
 20
48.76896706275874
 30
0.0
 10
820.1155589376972
 20
48.88592402993758
 30
0.0
 10
819.8620199120253
 20
49.05741233011024
 30
0.0
 10
819.3095176336763
 20
49.36331582219739
 30
0.0
 10
817.473761658859
 20
50.1990971557254
 30
0.0
 10
814.4931163522042
 20
51.3389946950395
 30
0.0
 10
810.8181882129219
 20
52.80312274699034
 30
0.0
 10
807.6371702352427
 20
54.0780313299804
 30
0.0
 10
804.8847154443778
 20
55.18824058107102
 30
0.0
 10
801.0172594336108
 20
56.73639107472289
 30
0.0
 10
795.5908660128581
 20
58.80090141779831
 30
0.0
 10
788.3609223032208
 20
61.38895146702355
 30
0.0
 10
780.6582188981087
 20
64.03239095227813
 30
0.0
 10
772.8144486419557
 20
66.62322091584832
 30
0.0
 10
765.0306572038297
 20
69.0994776346427
 30
0.0
 10
757.364828332467
 20
71.45044666867123
 30
0.0
 10
749.7884419570597
 20
73.69498680471692
 30
0.0
 10
739.7751998488244
 20
76.56951836784515
 30
0.0
 10
727.2237995535424
 20
80.02183568028393
 30
0.0
 10
712.0558241648591
 20
84.05743426175988
 30
0.0
 10
696.7376154413298
 20
87.97797539255109
 30
0.0
 10
681.3116021663426
 20
91.70760834976893
 30
0.0
 10
665.8355557547546
 20
95.18890087283467
 30
0.0
 10
650.275199549088
 20
98.16157690677201
 30
0.0
 10
634.582251368367
 20
100.3267047274121
 30
0.0
 10
619.822029001055
 20
101.4202684799768
 30
0.0
 10
606.0662893552371
 20
101.569395266402
 30
0.0
 10
593.3698290200908
 20
100.9271640853068
 30
0.0
 10
580.7410139427271
 20
99.4332018207586
 30
0.0
 10
568.2685800524248
 20
96.99134704223239
 30
0.0
 10
556.7354547155143
 20
93.69885832617392
 30
0.0
 10
546.1938081076233
 20
89.68345408862993
 30
0.0
 10
536.6395429810188
 20
85.13836348794962
 30
0.0
 10
529.1956794113496
 20
80.88097636777198
 30
0.0
 10
523.789295147108
 20
77.18265954460985
 30
0.0
 10
520.2164247417435
 20
74.39429168431549
 30
0.0
 10
516.8537399035349
 20
71.36160025264809
 30
0.0
 10
513.7893347416729
 20
68.02892943723931
 30
0.0
 10
511.204992327255
 20
64.30744883256784
 30
0.0
 10
509.1924234303146
 20
60.13638492438073
 30
0.0
 10
508.6018416652376
 20
57.09424164109783
 30
0.0
 10
508.3008149493336
 20
55.54362417197084
 30
0.0
  0
CIRCLE
  5
64
330
1F
100
AcDbEntity
  8
0
  6
Continuous
 62
     7
370
    25
100
AcDbCircle
 10
735.9641872952
 20
69.5311532945
 30
0.0
 40
4.999999999999992
  0
CIRCLE
  5
65
330
1F
100
AcDbEntity
  8
0
  6
Continuous
 62
     7
370
    25
100
AcDbCircle
 10
528.8412994729
 20
65.2488330738
 30
0.0
 40
4.999999999999992
  0
SPLINE
  5
66
330
1F
100
AcDbEntity
  8
0
  6
Continuous
 62
     7
370
    25
100
AcDbSpline
210
0.0
220
0.0
230
1.0
 70
     8
 71
     3
 72
    34
 73
    30
 74
     0
 42
0.00000001
 43
0.00000001
 40
0.0
 40
0.0
 40
0.0
 40
0.0
 40
0.0082689181299195
 40
0.0154777258428444
 40
0.0226235942062919
 40
0.0302461902351333
 40
0.0412685783823369
 40
0.05283012173939
 40
0.0641633664669071
 40
0.0853026185517172
 40
0.105425476966985
 40
0.1256740228939836
 40
0.1671822064861364
 40
0.2093300652270417
 40
0.251246988318278
 40
0.3342613013372689
 40
0.4173415179853359
 40
0.5006658300455722
 40
0.5706282011463262
 40
0.6405156432004514
 40
0.7104265204560769
 40
0.7803306285572966
 40
0.8117106438589238
 40
0.843096438123073
 40
0.8744849200520624
 40
0.9058612543494932
 40
0.9372430728130843
 40
0.9686336644808571
 40
1.0
 40
1.0
 40
1.0
 40
1.0
 10
508.3008149493336
 20
55.54362417197084
 30
0.0
 10
508.4992225879098
 20
54.69044026740516
 30
0.0
 10
508.870601163288
 20
53.09345425775886
 30
0.0
 10
510.4051786973945
 20
51.18890225368239
 30
0.0
 10
512.4013147603481
 20
49.9823423724553
 30
0.0
 10
515.0091054076853
 20
49.20724605435839
 30
0.0
 10
518.1673352595519
 20
48.87038020524908
 30
0.0
 10
521.720405950005
 20
48.84701832045996
 30
0.0
 10
526.3323016026802
 20
48.89850385686206
 30
0.0
 10
531.8411123723503
 20
48.8737510988933
 30
0.0
 10
538.2846258177818
 20
48.95524642671894
 30
0.0
 10
546.8484068298172
 20
49.47158974127724
 30
0.0
 10
557.6632529388248
 20
50.74261898630122
 30
0.0
 10
570.6679891592196
 20
52.70654316557738
 30
0.0
 10
587.9883386017912
 20
55.20870662489513
 30
0.0
 10
609.6211157299315
 20
57.85092025191824
 30
0.0
 10
635.683567741649
 20
59.78515015309588
 30
0.0
 10
660.4345351355074
 20
60.57265843802801
 30
0.0
 10
683.8129149956422
 20
60.54994448463208
 30
0.0
 10
705.7777066976906
 20
59.97509196718637
 30
0.0
 10
727.7230795106825
 20
59.06502642865236
 30
0.0
 10
745.621290276668
 20
57.86627656262572
 30
0.0
 10
759.4340913833288
 20
56.34047864126163
 30
0.0
 10
769.235295800879
 20
55.24684124518581
 30
0.0
 10
779.0524822397882
 20
54.31629205254901
 30
0.0
 10
788.8549398786762
 20
53.21865157941225
 30
0.0
 10
798.5920528389144
 20
51.64847569154601
 30
0.0
 10
808.4180244825858
 20
50.69654477805147
 30
0.0
 10
814.8534037005405
 20
49.33132491869735
 30
0.0
 10
818.0698496419119
 20
48.64897882424396
 30
0.0
  0
SPLINE
  5
67
330
1F
100
AcDbEntity
  8
0
  6
Continuous
 62
     7
370
    25
100
AcDbSpline
210
0.0
220
0.0
230
1.0
 70
     8
 71
     3
 72
    56
 73
    52
 74
     0
 42
0.00000001
 43
0.00000001
 40
0.0
 40
0.0
 40
0.0
 40
0.0
 40
0.0030565428276035
 40
0.005073329561669
 40
0.0060575699309049
 40
0.006223642710155
 40
0.0063582112307863
 40
0.0064680748909759
 40
0.0065896101623504
 40
0.0067178320871244
 40
0.0068757942414026
 40
0.0070745216974543
 40
0.0080702832055807
 40
0.0095525497276409
 40
0.012689005443988
 40
0.0259196524929819
 40
0.0378551884524971
 40
0.0477583292776073
 40
0.0563044983153408
 40
0.0641690141527116
 40
0.0846927215053228
 40
0.1077749044240443
 40
0.1322509400014661
 40
0.1568938130743573
 40
0.1810125817286757
 40
0.2046696530125824
 40
0.2279831790671607
 40
0.2510705804670407
 40
0.2970329911329268
 40
0.3433952701230086
 40
0.390229030271337
 40
0.4372203513239558
 40
0.4841007304255029
 40
0.5308594849094744
 40
0.5776333578005282
 40
0.6244756633083828
 40
0.6619818793368744
 40
0.6995331136985463
 40
0.7371105779703397
 40
0.7746362948795505
 40
0.8120954484992406
 40
0.8433043625083423
 40
0.874541413940099
 40
0.9058222185465954
 40
0.9192133272938982
 40
0.9325887622814276
 40
0.9459734839013011
 40
0.9593257797415515
 40
0.9726265478039525
 40
0.9860474181480033
 40
0.9999999999999999
 40
0.9999999999999999
 40
0.9999999999999999
 40
0.9999999999999999
 10
704.1838781740155
 20
47.89349393753412
 30
0.0
 10
703.8398191861601
 20
47.92124154572125
 30
0.0
 10
703.2687410981056
 20
47.96729775000868
 30
0.0
 10
702.5874467393645
 20
47.9717664761215
 30
0.0
 10
702.2269668553242
 20
47.93465942698499
 30
0.0
 10
702.0919637028182
 20
47.88065851004103
 30
0.0
 10
702.0522918330457
 20
47.85621649379884
 30
0.0
 10
702.0229416787042
 20
47.82634248497125
 30
0.0
 10
702.0082564682646
 20
47.78648540419111
 30
0.0
 10
702.0171746686875
 20
47.73970294804514
 30
0.0
 10
702.045367226368
 20
47.69219895932225
 30
0.0
 10
702.1486353662211
 20
47.57907977327619
 30
0.0
 10
702.4085001288438
 20
47.41733744801208
 30
0.0
 10
702.972214140001
 20
47.13262315670058
 30
0.0
 10
704.8383674818601
 20
46.36711538977739
 30
0.0
 10
707.8601272691487
 20
45.34116186639486
 30
0.0
 10
711.5879750307884
 20
44.01756115340055
 30
0.0
 10
714.8150871289206
 20
42.8642984880086
 30
0.0
 10
717.6076940579954
 20
41.85935147614877
 30
0.0
 10
721.5311198407137
 20
40.4590957588909
 30
0.0
 10
727.0319570095227
 20
38.60201768952914
 30
0.0
 10
734.3549147042197
 20
36.29022624056704
 30
0.0
 10
742.1523936574528
 20
33.9410276467445
 30
0.0
 10
750.0888411697165
 20
31.64975450359336
 30
0.0
 10
757.9610047412984
 20
29.47069571781563
 30
0.0
 10
765.7105357588791
 20
27.4123573851946
 30
0.0
 10
773.3666494829216
 20
25.45697671220509
 30
0.0
 10
783.4817730125941
 20
22.9645431213103
 30
0.0
 10
796.1551544853683
 20
19.99106935419442
 30
0.0
 10
811.4653628802641
 20
16.5340399636093
 30
0.0
 10
826.9213296624697
 20
13.19768685232342
 30
0.0
 10
842.4777778962848
 20
10.05619582030165
 30
0.0
 10
858.0747980938435
 20
7.164765184485667
 30
0.0
 10
873.7367641056006
 20
4.784784365963135
 30
0.0
 10
889.500578138078
 20
3.216802149239195
 30
0.0
 10
904.2916698679311
 20
2.684212764712923
 30
0.0
 10
918.0431588687492
 20
3.05725734961132
 30
0.0
 10
930.7060977518056
 20
4.180887527159561
 30
0.0
 10
943.2691148364775
 20
6.15306785268327
 30
0.0
 10
955.6398885623347
 20
9.066522731519477
 30
0.0
 10
967.0397468264501
 20
12.79434965083076
 30
0.0
 10
977.4214042653576
 20
17.20694222410618
 30
0.0
 10
986.7962886936382
 20
22.11136600618485
 30
0.0
 10
994.0732110613008
 20
26.64819868878582
 30
0.0
 10
999.3353401165466
 20
30.54903654020486
 30
0.0
 10
1002.799811061062
 20
33.47099467345388
 30
0.0
 10
1006.0449751908
 20
36.62912329842855
 30
0.0
 10
1008.980689590206
 20
40.07569474336542
 30
0.0
 10
1011.42193082348
 20
43.89257630386273
 30
0.0
 10
1013.274747690567
 20
48.13701706185963
 30
0.0
 10
1013.749447197705
 20
51.19938264343011
 30
0.0
 10
1013.991407315889
 20
52.76030766419798
 30
0.0
  0
SPLINE
  5
68
330
1F
100
AcDbEntity
  8
0
  6
Continuous
 62
     7
370
    25
100
AcDbSpline
210
0.0
220
0.0
230
1.0
 70
     8
 71
     3
 72
    34
 73
    30
 74
     0
 42
0.00000001
 43
0.00000001
 40
0.0
 40
0.0
 40
0.0
 40
0.0
 40
0.0082689181299197
 40
0.0154777258428444
 40
0.0226235942062921
 40
0.0302461902351332
 40
0.0412685783823368
 40
0.05283012173939
 40
0.0641633664669071
 40
0.0853026185517172
 40
0.1054254769669851
 40
0.1256740228939835
 40
0.1671822064861363
 40
0.2093300652270416
 40
0.2512469883182779
 40
0.3342613013372688
 40
0.4173415179853358
 40
0.5006658300455723
 40
0.5706282011463263
 40
0.6405156432004513
 40
0.710426520456077
 40
0.7803306285572967
 40
0.8117106438589241
 40
0.8430964381230731
 40
0.8744849200520626
 40
0.9058612543494932
 40
0.937243072813084
 40
0.9686336644808569
 40
1.0
 40
1.0
 40
1.0
 40
1.0
 10
1013.991407315889
 20
52.76030766419798
 30
0.0
 10
1013.760762206816
 20
53.60534683471979
 30
0.0
 10
1013.329041671055
 20
55.18708756576823
 30
0.0
 10
1011.723287326298
 20
57.03202646142675
 30
0.0
 10
1009.6827974908
 20
58.16195883110048
 30
0.0
 10
1007.047468836135
 20
58.8375247009974
 30
0.0
 10
1003.878729459936
 20
59.05428531374951
 30
0.0
 10
1000.327331951127
 20
58.94278265257496
 30
0.0
 10
995.7207129567879
 20
58.7163014996887
 30
0.0
 10
990.2149316015363
 20
58.53196359467866
 30
0.0
 10
983.7791533548275
 20
58.20597990014215
 30
0.0
 10
975.2411386393997
 20
57.36499217149832
 30
0.0
 10
964.4823227899307
 20
55.68442880749641
 30
0.0
 10
951.5614915989746
 20
53.22835802699627
 30
0.0
 10
934.3485838804392
 20
50.07064767563335
 30
0.0
 10
912.8316706260913
 20
46.6093208878971
 30
0.0
 10
886.8614041506054
 20
43.68735077067692
 30
0.0
 10
862.1581565418697
 20
41.96105015601387
 30
0.0
 10
838.7957576675848
 20
41.09648110311276
 30
0.0
 10
816.824973519148
 20
40.83730194886775
 30
0.0
 10
794.8608721161008
 20
40.91383130460341
 30
0.0
 10
776.9300606923049
 20
41.43243669332314
 30
0.0
 10
763.0693033072365
 20
42.43290579393827
 30
0.0
 10
753.2336539902951
 20
43.15377561772399
 30
0.0
 10
743.3882237621325
 20
43.71106817877729
 30
0.0
 10
733.5511702001846
 20
44.43589063278136
 30
0.0
 10
723.76148036543
 20
45.63538805194361
 30
0.0
 10
713.906459773283
 20
46.21371350933073
 30
0.0
 10
707.4239035172429
 20
47.33371142474491
 30
0.0
 10
704.1838781740155
 20
47.89349393753412
 30
0.0
  0
CIRCLE
  5
69
330
1F
100
AcDbEntity
  8
0
  6
Continuous
 62
     7
370
    25
100
AcDbCircle
 10
787.0229167557
 20
30.1424746187
 30
0.0
 40
5.000000000000062
  0
CIRCLE
  5
6A
330
1F
100
AcDbEntity
  8
0
  6
Continuous
 62
     7
370
    25
100
AcDbCircle
 10
993.8340576496
 20
42.2825293348
 30
0.0
 40
4.999999999999947
  0
SPLINE
  5
6B
330
1F
100
AcDbEntity
  8
0
  6
Continuous
 62
     7
370
    25
100
AcDbSpline
210
0.0
220
0.0
230
1.0
 70
     8
 71
     3
 72
    56
 73
    52
 74
     0
 42
0.00000001
 43
0.00000001
 40
0.0
 40
0.0
 40
0.0
 40
0.0
 40
0.0030565428276034
 40
0.0050733295616691
 40
0.0060575699309049
 40
0.0062236427101553
 40
0.0063582112307862
 40
0.0064680748909759
 40
0.0065896101623502
 40
0.0067178320871242
 40
0.0068757942414024
 40
0.0070745216974541
 40
0.0080702832055805
 40
0.0095525497276408
 40
0.0126890054439878
 40
0.025919652492982
 40
0.0378551884524969
 40
0.0477583292776071
 40
0.0563044983153406
 40
0.0641690141527116
 40
0.0846927215053224
 40
0.1077749044240444
 40
0.132250940001466
 40
0.1568938130743572
 40
0.1810125817286756
 40
0.2046696530125824
 40
0.2279831790671606
 40
0.2510705804670406
 40
0.2970329911329267
 40
0.3433952701230085
 40
0.3902290302713369
 40
0.4372203513239558
 40
0.4841007304255028
 40
0.5308594849094744
 40
0.5776333578005282
 40
0.6244756633083828
 40
0.6619818793368742
 40
0.6995331136985462
 40
0.7371105779703394
 40
0.7746362948795503
 40
0.8120954484992406
 40
0.8433043625083423
 40
0.8745414139400991
 40
0.9058222185465954
 40
0.9192133272938982
 40
0.9325887622814274
 40
0.9459734839013011
 40
0.9593257797415515
 40
0.9726265478039527
 40
0.9860474181480035
 40
0.9999999999999999
 40
0.9999999999999999
 40
0.9999999999999999
 40
0.9999999999999999
 10
818.0698496419119
 20
2.648978824243919
 30
0.0
 10
818.4126076617276
 20
2.608193327603925
 30
0.0
 10
818.9815263690745
 20
2.540496495770761
 30
0.0
 10
819.6621602878263
 20
2.510174203475268
 30
0.0
 10
820.0237887660558
 20
2.53357342625854
 30
0.0
 10
820.1607441218182
 20
2.582411738526857
 30
0.0
 10
820.2013150440946
 20
2.605330501034897
 30
0.0
 10
820.2317778446477
 20
2.634069076951906
 30
0.0
 10
820.2479651486847
 20
2.673340102938238
 30
0.0
 10
820.2408288819365
 20
2.72042732199701
 30
0.0
 10
820.2144595281337
 20
2.768967062758587
 30
0.0
 10
820.1155589376972
 20
2.885924029937648
 30
0.0
 10
819.8620199120253
 20
3.057412330110199
 30
0.0
 10
819.3095176336763
 20
3.363315822197455
 30
0.0
 10
817.473761658859
 20
4.199097155725362
 30
0.0
 10
814.4931163522042
 20
5.338994695039345
 30
0.0
 10
810.8181882129219
 20
6.803122746990409
 30
0.0
 10
807.6371702352427
 20
8.078031329980362
 30
0.0
 10
804.8847154443778
 20
9.188240581070984
 30
0.0
 10
801.0172594336108
 20
10.73639107472285
 30
0.0
 10
795.5908660128581
 20
12.80090141779827
 30
0.0
 10
788.3609223032208
 20
15.3889514670234
 30
0.0
 10
780.6582188981087
 20
18.0323909522781
 30
0.0
 10
772.8144486419557
 20
20.62322091584828
 30
0.0
 10
765.0306572038297
 20
23.09947763464254
 30
0.0
 10
757.364828332467
 20
25.4504466686713
 30
0.0
 10
749.7884419570597
 20
27.69498680471688
 30
0.0
 10
739.7751998488244
 20
30.56951836784511
 30
0.0
 10
727.2237995535424
 20
34.021835680284
 30
0.0
 10
712.0558241648591
 20
38.05743426175972
 30
0.0
 10
696.7376154413298
 20
41.97797539255127
 30
0.0
 10
681.3116021663426
 20
45.70760834976878
 30
0.0
 10
665.8355557547546
 20
49.18890087283462
 30
0.0
 10
650.275199549088
 20
52.16157690677198
 30
0.0
 10
634.582251368367
 20
54.32670472741202
 30
0.0
 10
619.822029001055
 20
55.42026847997688
 30
0.0
 10
606.0662893552371
 20
55.56939526640187
 30
0.0
 10
593.3698290200908
 20
54.9271640853069
 30
0.0
 10
580.7410139427271
 20
53.43320182075855
 30
0.0
 10
568.2685800524248
 20
50.99134704223235
 30
0.0
 10
556.7354547155143
 20
47.69885832617376
 30
0.0
 10
546.1938081076233
 20
43.68345408862989
 30
0.0
 10
536.6395429810188
 20
39.13836348794969
 30
0.0
 10
529.1956794113496
 20
34.88097636777182
 30
0.0
 10
523.789295147108
 20
31.1826595446098
 30
0.0
 10
520.2164247417435
 20
28.39429168431545
 30
0.0
 10
516.8537399035349
 20
25.36160025264794
 30
0.0
 10
513.7893347416729
 20
22.02892943723916
 30
0.0
 10
511.204992327255
 20
18.30744883256769
 30
0.0
 10
509.1924234303146
 20
14.13638492438069
 30
0.0
 10
508.6018416652376
 20
11.0942416410979
 30
0.0
 10
508.3008149493336
 20
9.5436241719708
 30
0.0
  0
SPLINE
  5
6C
330
1F
100
AcDbEntity
  8
0
  6
Continuous
 62
     7
370
    25
100
AcDbSpline
210
0.0
220
0.0
230
1.0
 70
     8
 71
     3
 72
    34
 73
    30
 74
     0
 42
0.00000001
 43
0.00000001
 40
0.0
 40
0.0
 40
0.0
 40
0.0
 40
0.0082689181299195
 40
0.0154777258428444
 40
0.0226235942062919
 40
0.0302461902351333
 40
0.0412685783823369
 40
0.05283012173939
 40
0.0641633664669071
 40
0.0853026185517172
 40
0.105425476966985
 40
0.1256740228939836
 40
0.1671822064861364
 40
0.2093300652270417
 40
0.251246988318278
 40
0.3342613013372689
 40
0.4173415179853359
 40
0.5006658300455722
 40
0.5706282011463262
 40
0.6405156432004514
 40
0.7104265204560769
 40
0.7803306285572966
 40
0.8117106438589238
 40
0.843096438123073
 40
0.8744849200520624
 40
0.9058612543494932
 40
0.9372430728130843
 40
0.9686336644808571
 40
1.0
 40
1.0
 40
1.0
 40
1.0
 10
508.3008149493336
 20
9.5436241719708
 30
0.0
 10
508.4992225879098
 20
8.690440267405119
 30
0.0
 10
508.870601163288
 20
7.093454257758813
 30
0.0
 10
510.4051786973945
 20
5.188902253682349
 30
0.0
 10
512.4013147603481
 20
3.982342372455261
 30
0.0
 10
515.0091054076853
 20
3.207246054358459
 30
0.0
 10
518.1673352595519
 20
2.870380205249046
 30
0.0
 10
521.720405950005
 20
2.847018320460026
 30
0.0
 10
526.3323016026802
 20
2.898503856862022
 30
0.0
 10
531.8411123723503
 20
2.873751098893262
 30
0.0
 10
538.2846258177818
 20
2.955246426718794
 30
0.0
 10
546.8484068298172
 20
3.471589741277092
 30
0.0
 10
557.6632529388248
 20
4.742618986301183
 30
0.0
 10
570.6679891592196
 20
6.706543165577338
 30
0.0
 10
587.9883386017912
 20
9.20870662489498
 30
0.0
 10
609.6211157299315
 20
11.85092025191831
 30
0.0
 10
635.683567741649
 20
13.78515015309584
 30
0.0
 10
660.4345351355074
 20
14.57265843802796
 30
0.0
 10
683.8129149956422
 20
14.54994448463204
 30
0.0
 10
705.7777066976906
 20
13.97509196718621
 30
0.0
 10
727.7230795106825
 20
13.06502642865243
 30
0.0
 10
745.621290276668
 20
11.86627656262579
 30
0.0
 10
759.4340913833288
 20
10.34047864126148
 30
0.0
 10
769.235295800879
 20
9.246841245185767
 30
0.0
 10
779.0524822397882
 20
8.316292052549079
 30
0.0
 10
788.8549398786762
 20
7.218651579412205
 30
0.0
 10
798.5920528389144
 20
5.648475691546084
 30
0.0
 10
808.4180244825858
 20
4.696544778051315
 30
0.0
 10
814.8534037005405
 20
3.331324918697309
 30
0.0
 10
818.0698496419119
 20
2.648978824243919
 30
0.0
  0
CIRCLE
  5
6D
330
1F
100
AcDbEntity
  8
0
  6
Continuous
 62
     7
370
    25
100
AcDbCircle
 10
735.9641872952
 20
23.5311532945
 30
0.0
 40
4.999999999999992
  0
CIRCLE
  5
6E
330
1F
100
AcDbEntity
  8
0
  6
Continuous
 62
     7
370
    25
100
AcDbCircle
 10
528.8412994729
 20
19.2488330738
 30
0.0
 40
4.999999999999992
  0
SPLINE
  5
6F
330
1F
100
AcDbEntity
  8
0
  6
Continuous
 62
     7
370
    25
100
AcDbSpline
210
0.0
220
0.0
230
1.0
 70
     8
 71
     3
 72
    56
 73
    52
 74
     0
 42
0.00000001
 43
0.00000001
 40
0.0
 40
0.0
 40
0.0
 40
0.0
 40
0.0030565428276034
 40
0.0050733295616691
 40
0.0060575699309049
 40
0.0062236427101553
 40
0.0063582112307862
 40
0.0064680748909759
 40
0.0065896101623502
 40
0.0067178320871242
 40
0.0068757942414024
 40
0.0070745216974541
 40
0.0080702832055805
 40
0.0095525497276408
 40
0.0126890054439878
 40
0.025919652492982
 40
0.0378551884524969
 40
0.0477583292776071
 40
0.0563044983153406
 40
0.0641690141527116
 40
0.0846927215053224
 40
0.1077749044240444
 40
0.132250940001466
 40
0.1568938130743572
 40
0.1810125817286756
 40
0.2046696530125824
 40
0.2279831790671607
 40
0.2510705804670406
 40
0.2970329911329267
 40
0.3433952701230085
 40
0.3902290302713369
 40
0.4372203513239558
 40
0.4841007304255028
 40
0.5308594849094744
 40
0.5776333578005282
 40
0.6244756633083828
 40
0.6619818793368742
 40
0.6995331136985462
 40
0.7371105779703394
 40
0.7746362948795503
 40
0.8120954484992406
 40
0.8433043625083423
 40
0.8745414139400991
 40
0.9058222185465954
 40
0.9192133272938982
 40
0.9325887622814274
 40
0.9459734839013011
 40
0.9593257797415515
 40
0.9726265478039527
 40
0.9860474181480035
 40
0.9999999999999999
 40
0.9999999999999999
 40
0.9999999999999999
 40
0.9999999999999999
 10
818.0698496419119
 20
94.64897882424388
 30
0.0
 10
818.4126076617276
 20
94.60819332760401
 30
0.0
 10
818.9815263690745
 20
94.54049649577084
 30
0.0
 10
819.6621602878263
 20
94.51017420347513
 30
0.0
 10
820.0237887660558
 20
94.53357342625884
 30
0.0
 10
820.1607441218182
 20
94.58241173852672
 30
0.0
 10
820.2013150440946
 20
94.60533050103487
 30
0.0
 10
820.2317778446477
 20
94.63406907695176
 30
0.0
 10
820.2479651486847
 20
94.67334010293821
 30
0.0
 10
820.2408288819365
 20
94.72042732199698
 30
0.0
 10
820.2144595281337
 20
94.76896706275856
 30
0.0
 10
820.1155589376972
 20
94.88592402993751
 30
0.0
 10
819.8620199120253
 20
95.05741233011028
 30
0.0
 10
819.3095176336763
 20
95.36331582219731
 30
0.0
 10
817.473761658859
 20
96.19909715572555
 30
0.0
 10
814.4931163522042
 20
97.3389946950392
 30
0.0
 10
810.8181882129219
 20
98.8031227469905
 30
0.0
 10
807.6371702352427
 20
100.0780313299802
 30
0.0
 10
804.8847154443778
 20
101.188240581071
 30
0.0
 10
801.0172594336108
 20
102.7363910747228
 30
0.0
 10
795.5908660128581
 20
104.8009014177982
 30
0.0
 10
788.3609223032208
 20
107.3889514670235
 30
0.0
 10
780.6582188981087
 20
110.0323909522781
 30
0.0
 10
772.8144486419557
 20
112.6232209158483
 30
0.0
 10
765.0306572038297
 20
115.0994776346425
 30
0.0
 10
757.364828332467
 20
117.4504466686714
 30
0.0
 10
749.78844195706
 20
119.6949868047171
 30
0.0
 10
739.7751998488245
 20
122.5695183678451
 30
0.0
 10
727.2237995535422
 20
126.0218356802837
 30
0.0
 10
712.0558241648591
 20
130.0574342617597
 30
0.0
 10
696.7376154413298
 20
133.977975392551
 30
0.0
 10
681.3116021663426
 20
137.7076083497687
 30
0.0
 10
665.8355557547546
 20
141.1889008728348
 30
0.0
 10
650.275199549088
 20
144.1615769067718
 30
0.0
 10
634.582251368367
 20
146.3267047274119
 30
0.0
 10
619.822029001055
 20
147.4202684799768
 30
0.0
 10
606.0662893552371
 20
147.5693952664018
 30
0.0
 10
593.3698290200908
 20
146.9271640853069
 30
0.0
 10
580.7410139427271
 20
145.4332018207585
 30
0.0
 10
568.2685800524248
 20
142.9913470422322
 30
0.0
 10
556.7354547155143
 20
139.6988583261738
 30
0.0
 10
546.1938081076233
 20
135.6834540886299
 30
0.0
 10
536.6395429810188
 20
131.1383634879496
 30
0.0
 10
529.1956794113496
 20
126.8809763677718
 30
0.0
 10
523.789295147108
 20
123.1826595446098
 30
0.0
 10
520.2164247417435
 20
120.3942916843154
 30
0.0
 10
516.8537399035349
 20
117.361600252648
 30
0.0
 10
513.7893347416729
 20
114.0289294372392
 30
0.0
 10
511.204992327255
 20
110.3074488325677
 30
0.0
 10
509.1924234303146
 20
106.1363849243806
 30
0.0
 10
508.6018416652376
 20
103.0942416410979
 30
0.0
 10
508.3008149493336
 20
101.5436241719708
 30
0.0
  0
CIRCLE
  5
70
330
1F
100
AcDbEntity
  8
0
  6
Continuous
 62
     7
370
    25
100
AcDbCircle
 10
735.9641872952
 20
115.5311532945
 30
0.0
 40
4.999999999999992
  0
CIRCLE
  5
71
330
1F
100
AcDbEntity
  8
0
  6
Continuous
 62
     7
370
    25
100
AcDbCircle
 10
528.8412994729
 20
111.2488330738
 30
0.0
 40
4.999999999999992
  0
SPLINE
  5
72
330
1F
100
AcDbEntity
  8
0
  6
Continuous
 62
     7
370
    25
100
AcDbSpline
210
0.0
220
0.0
230
1.0
 70
     8
 71
     3
 72
    34
 73
    30
 74
     0
 42
0.00000001
 43
0.00000001
 40
0.0
 40
0.0
 40
0.0
 40
0.0
 40
0.0082689181299195
 40
0.0154777258428444
 40
0.0226235942062919
 40
0.0302461902351333
 40
0.0412685783823369
 40
0.05283012173939
 40
0.0641633664669071
 40
0.0853026185517172
 40
0.105425476966985
 40
0.1256740228939836
 40
0.1671822064861364
 40
0.2093300652270416
 40
0.251246988318278
 40
0.3342613013372689
 40
0.4173415179853359
 40
0.5006658300455722
 40
0.5706282011463262
 40
0.6405156432004514
 40
0.7104265204560769
 40
0.7803306285572967
 40
0.8117106438589238
 40
0.843096438123073
 40
0.8744849200520622
 40
0.9058612543494932
 40
0.9372430728130843
 40
0.9686336644808571
 40
1.0
 40
1.0
 40
1.0
 40
1.0
 10
508.3008149493336
 20
101.5436241719708
 30
0.0
 10
508.4992225879098
 20
100.6904402674052
 30
0.0
 10
508.870601163288
 20
99.09345425775889
 30
0.0
 10
510.4051786973944
 20
97.18890225368199
 30
0.0
 10
512.4013147603482
 20
95.98234237245535
 30
0.0
 10
515.0091054076852
 20
95.20724605435832
 30
0.0
 10
518.1673352595519
 20
94.87038020524913
 30
0.0
 10
521.720405950005
 20
94.84701832045988
 30
0.0
 10
526.3323016026802
 20
94.8985038568621
 30
0.0
 10
531.8411123723503
 20
94.87375109889335
 30
0.0
 10
538.2846258177818
 20
94.95524642671876
 30
0.0
 10
546.8484068298171
 20
95.47158974127717
 30
0.0
 10
557.6632529388248
 20
96.74261898630115
 30
0.0
 10
570.6679891592196
 20
98.70654316557732
 30
0.0
 10
587.988338601791
 20
101.2087066248949
 30
0.0
 10
609.6211157299315
 20
103.8509202519182
 30
0.0
 10
635.683567741649
 20
105.785150153096
 30
0.0
 10
660.4345351355074
 20
106.5726584380277
 30
0.0
 10
683.8129149956422
 20
106.5499444846321
 30
0.0
 10
705.7777066976906
 20
105.9750919671861
 30
0.0
 10
727.7230795106825
 20
105.0650264286523
 30
0.0
 10
745.6212902766681
 20
103.866276562626
 30
0.0
 10
759.4340913833288
 20
102.3404786412613
 30
0.0
 10
769.235295800879
 20
101.2468412451857
 30
0.0
 10
779.0524822397882
 20
100.316292052549
 30
0.0
 10
788.8549398786764
 20
99.21865157941228
 30
0.0
 10
798.5920528389144
 20
97.64847569154583
 30
0.0
 10
808.4180244825858
 20
96.69654477805139
 30
0.0
 10
814.8534037005406
 20
95.33132491869739
 30
0.0
 10
818.0698496419119
 20
94.64897882424388
 30
0.0
  0
SPLINE
  5
73
330
1F
100
AcDbEntity
  8
0
  6
Continuous
 62
     7
370
    25
100
AcDbSpline
210
0.0
220
0.0
230
1.0
 70
     8
 71
     3
 72
    56
 73
    52
 74
     0
 42
0.00000001
 43
0.00000001
 40
0.0
 40
0.0
 40
0.0
 40
0.0
 40
0.0030565428276035
 40
0.005073329561669
 40
0.0060575699309049
 40
0.006223642710155
 40
0.0063582112307863
 40
0.0064680748909759
 40
0.0065896101623504
 40
0.0067178320871244
 40
0.0068757942414026
 40
0.0070745216974543
 40
0.0080702832055807
 40
0.0095525497276409
 40
0.012689005443988
 40
0.0259196524929819
 40
0.0378551884524971
 40
0.0477583292776073
 40
0.0563044983153408
 40
0.0641690141527116
 40
0.0846927215053228
 40
0.1077749044240443
 40
0.1322509400014661
 40
0.1568938130743573
 40
0.1810125817286757
 40
0.2046696530125824
 40
0.2279831790671607
 40
0.2510705804670407
 40
0.2970329911329268
 40
0.3433952701230086
 40
0.390229030271337
 40
0.4372203513239558
 40
0.4841007304255029
 40
0.5308594849094744
 40
0.5776333578005282
 40
0.6244756633083828
 40
0.6619818793368744
 40
0.6995331136985463
 40
0.7371105779703397
 40
0.7746362948795505
 40
0.8120954484992406
 40
0.8433043625083423
 40
0.874541413940099
 40
0.9058222185465954
 40
0.9192133272938982
 40
0.9325887622814276
 40
0.9459734839013011
 40
0.9593257797415515
 40
0.9726265478039525
 40
0.9860474181480033
 40
0.9999999999999999
 40
0.9999999999999999
 40
0.9999999999999999
 40
0.9999999999999999
 10
704.1838781740155
 20
93.89349393753416
 30
0.0
 10
703.8398191861601
 20
93.92124154572129
 30
0.0
 10
703.2687410981056
 20
93.96729775000873
 30
0.0
 10
702.5874467393645
 20
93.97176647612154
 30
0.0
 10
702.2269668553242
 20
93.93465942698526
 30
0.0
 10
702.0919637028182
 20
93.88065851004096
 30
0.0
 10
702.0522918330457
 20
93.856216493799
 30
0.0
 10
702.0229416787042
 20
93.82634248497118
 30
0.0
 10
702.0082564682646
 20
93.78648540419127
 30
0.0
 10
702.0171746686875
 20
93.73970294804518
 30
0.0
 10
702.045367226368
 20
93.69219895932218
 30
0.0
 10
702.1486353662211
 20
93.57907977327635
 30
0.0
 10
702.4085001288438
 20
93.41733744801212
 30
0.0
 10
702.972214140001
 20
93.13262315670062
 30
0.0
 10
704.8383674818601
 20
92.36711538977744
 30
0.0
 10
707.8601272691487
 20
91.3411618663949
 30
0.0
 10
711.5879750307884
 20
90.01756115340037
 30
0.0
 10
714.8150871289206
 20
88.86429848800876
 30
0.0
 10
717.6076940579954
 20
87.85935147614882
 30
0.0
 10
721.5311198407137
 20
86.45909575889094
 30
0.0
 10
727.0319570095227
 20
84.60201768952929
 30
0.0
 10
734.3549147042197
 20
82.29022624056698
 30
0.0
 10
742.1523936574528
 20
79.94102764674454
 30
0.0
 10
750.0888411697165
 20
77.64975450359363
 30
0.0
 10
757.9610047412984
 20
75.47069571781556
 30
0.0
 10
765.7105357588791
 20
73.41235738519475
 30
0.0
 10
773.3666494829216
 20
71.45697671220502
 30
0.0
 10
783.4817730125941
 20
68.96454312131023
 30
0.0
 10
796.1551544853683
 20
65.99106935419458
 30
0.0
 10
811.4653628802641
 20
62.53403996360923
 30
0.0
 10
826.9213296624697
 20
59.19768685232335
 30
0.0
 10
842.4777778962848
 20
56.05619582030169
 30
0.0
 10
858.0747980938435
 20
53.16476518448571
 30
0.0
 10
873.7367641056006
 20
50.78478436596318
 30
0.0
 10
889.500578138078
 20
49.21680214923924
 30
0.0
 10
904.2916698679311
 20
48.68421276471285
 30
0.0
 10
918.0431588687492
 20
49.05725734961147
 30
0.0
 10
930.7060977518056
 20
50.1808875271596
 30
0.0
 10
943.2691148364775
 20
52.15306785268331
 30
0.0
 10
955.6398885623347
 20
55.06652273151952
 30
0.0
 10
967.0397468264501
 20
58.7943496508308
 30
0.0
 10
977.4214042653576
 20
63.20694222410634
 30
0.0
 10
986.7962886936382
 20
68.1113660061849
 30
0.0
 10
994.0732110613008
 20
72.64819868878575
 30
0.0
 10
999.3353401165466
 20
76.5490365402049
 30
0.0
 10
1002.799811061062
 20
79.47099467345392
 30
0.0
 10
1006.0449751908
 20
82.6291232984287
 30
0.0
 10
1008.980689590206
 20
86.07569474336535
 30
0.0
 10
1011.42193082348
 20
89.89257630386277
 30
0.0
 10
1013.274747690567
 20
94.13701706185968
 30
0.0
 10
1013.749447197705
 20
97.19938264343014
 30
0.0
 10
1013.991407315889
 20
98.76030766419802
 30
0.0
  0
CIRCLE
  5
74
330
1F
100
AcDbEntity
  8
0
  6
Continuous
 62
     7
370
    25
100
AcDbCircle
 10
787.0229167557
 20
76.1424746187
 30
0.0
 40
5.000000000000062
  0
CIRCLE
  5
75
330
1F
100
AcDbEntity
  8
0
  6
Continuous
 62
     7
370
    25
100
AcDbCircle
 10
993.8340576496
 20
88.2825293348
 30
0.0
 40
4.999999999999947
  0
SPLINE
  5
76
330
1F
100
AcDbEntity
  8
0
  6
Continuous
 62
     7
370
    25
100
AcDbSpline
210
0.0
220
0.0
230
1.0
 70
     8
 71
     3
 72
    34
 73
    30
 74
     0
 42
0.00000001
 43
0.00000001
 40
0.0
 40
0.0
 40
0.0
 40
0.0
 40
0.0082689181299197
 40
0.0154777258428444
 40
0.0226235942062921
 40
0.0302461902351332
 40
0.0412685783823368
 40
0.05283012173939
 40
0.0641633664669071
 40
0.0853026185517172
 40
0.1054254769669851
 40
0.1256740228939835
 40
0.1671822064861363
 40
0.2093300652270416
 40
0.2512469883182779
 40
0.3342613013372688
 40
0.4173415179853358
 40
0.5006658300455723
 40
0.5706282011463263
 40
0.6405156432004513
 40
0.710426520456077
 40
0.7803306285572967
 40
0.8117106438589241
 40
0.8430964381230731
 40
0.8744849200520626
 40
0.9058612543494932
 40
0.937243072813084
 40
0.9686336644808569
 40
1.0
 40
1.0
 40
1.0
 40
1.0
 10
1013.991407315889
 20
98.76030766419802
 30
0.0
 10
1013.760762206816
 20
99.60534683471984
 30
0.0
 10
1013.329041671055
 20
101.1870875657684
 30
0.0
 10
1011.723287326298
 20
103.0320264614267
 30
0.0
 10
1009.6827974908
 20
104.1619588311007
 30
0.0
 10
1007.047468836135
 20
104.8375247009973
 30
0.0
 10
1003.878729459936
 20
105.0542853137495
 30
0.0
 10
1000.327331951127
 20
104.942782652575
 30
0.0
 10
995.7207129567879
 20
104.7163014996887
 30
0.0
 10
990.2149316015363
 20
104.5319635946786
 30
0.0
 10
983.7791533548275
 20
104.2059799001423
 30
0.0
 10
975.2411386393997
 20
103.3649921714982
 30
0.0
 10
964.4823227899307
 20
101.6844288074966
 30
0.0
 10
951.5614915989746
 20
99.22835802699642
 30
0.0
 10
934.3485838804392
 20
96.07064767563328
 30
0.0
 10
912.8316706260913
 20
92.60932088789714
 30
0.0
 10
886.8614041506054
 20
89.68735077067697
 30
0.0
 10
862.1581565418697
 20
87.96105015601391
 30
0.0
 10
838.7957576675848
 20
87.0964811031128
 30
0.0
 10
816.824973519148
 20
86.83730194886769
 30
0.0
 10
794.8608721161008
 20
86.91383130460356
 30
0.0
 10
776.9300606923049
 20
87.43243669332318
 30
0.0
 10
763.0693033072365
 20
88.4329057939383
 30
0.0
 10
753.2336539902951
 20
89.15377561772414
 30
0.0
 10
743.3882237621325
 20
89.71106817877732
 30
0.0
 10
733.5511702001846
 20
90.43589063278141
 30
0.0
 10
723.76148036543
 20
91.63538805194365
 30
0.0
 10
713.906459773283
 20
92.21371350933077
 30
0.0
 10
707.4239035172429
 20
93.33371142474495
 30
0.0
 10
704.1838781740155
 20
93.89349393753416
 30
0.0
  0
SPLINE
  5
77
330
1F
100
AcDbEntity
  8
0
  6
Continuous
 62
     7
370
    25
100
AcDbSpline
210
0.0
220
0.0
230
1.0
 70
     8
 71
     3
 72
    56
 73
    52
 74
     0
 42
0.00000001
 43
0.00000001
 40
0.0
 40
0.0
 40
0.0
 40
0.0
 40
0.0030565428276035
 40
0.005073329561669
 40
0.0060575699309049
 40
0.006223642710155
 40
0.0063582112307863
 40
0.0064680748909759
 40
0.0065896101623504
 40
0.0067178320871244
 40
0.0068757942414026
 40
0.0070745216974543
 40
0.0080702832055807
 40
0.009552549727641
 40
0.012689005443988
 40
0.025919652492982
 40
0.0378551884524971
 40
0.0477583292776073
 40
0.0563044983153408
 40
0.0641690141527116
 40
0.0846927215053228
 40
0.1077749044240444
 40
0.1322509400014661
 40
0.1568938130743574
 40
0.1810125817286757
 40
0.2046696530125824
 40
0.2279831790671608
 40
0.2510705804670407
 40
0.2970329911329269
 40
0.3433952701230086
 40
0.390229030271337
 40
0.4372203513239558
 40
0.4841007304255029
 40
0.5308594849094745
 40
0.5776333578005282
 40
0.6244756633083828
 40
0.6619818793368744
 40
0.6995331136985463
 40
0.7371105779703397
 40
0.7746362948795505
 40
0.8120954484992406
 40
0.8433043625083423
 40
0.874541413940099
 40
0.9058222185465954
 40
0.9192133272938982
 40
0.9325887622814276
 40
0.9459734839013011
 40
0.9593257797415515
 40
0.9726265478039525
 40
0.9860474181480033
 40
0.9999999999999999
 40
0.9999999999999999
 40
0.9999999999999999
 40
0.9999999999999999
 10
704.1838781740155
 20
139.8934939375341
 30
0.0
 10
703.8398191861601
 20
139.9212415457211
 30
0.0
 10
703.2687410981056
 20
139.9672977500084
 30
0.0
 10
702.5874467393645
 20
139.9717664761219
 30
0.0
 10
702.2269668553242
 20
139.9346594269846
 30
0.0
 10
702.0919637028182
 20
139.8806585100411
 30
0.0
 10
702.0522918330457
 20
139.8562164937987
 30
0.0
 10
702.0229416787042
 20
139.8263424849713
 30
0.0
 10
702.0082564682646
 20
139.7864854041912
 30
0.0
 10
702.0171746686875
 20
139.7397029480451
 30
0.0
 10
702.045367226368
 20
139.6921989593222
 30
0.0
 10
702.1486353662212
 20
139.579079773276
 30
0.0
 10
702.4085001288438
 20
139.4173374480121
 30
0.0
 10
702.9722141400011
 20
139.1326231567004
 30
0.0
 10
704.8383674818598
 20
138.367115389777
 30
0.0
 10
707.860127269149
 20
137.3411618663948
 30
0.0
 10
711.5879750307884
 20
136.0175611534006
 30
0.0
 10
714.8150871289207
 20
134.8642984880085
 30
0.0
 10
717.6076940579954
 20
133.8593514761488
 30
0.0
 10
721.5311198407137
 20
132.4590957588909
 30
0.0
 10
727.0319570095226
 20
130.6020176895289
 30
0.0
 10
734.3549147042197
 20
128.290226240567
 30
0.0
 10
742.1523936574528
 20
125.9410276467445
 30
0.0
 10
750.0888411697165
 20
123.6497545035933
 30
0.0
 10
757.9610047412984
 20
121.4706957178156
 30
0.0
 10
765.7105357588791
 20
119.4123573851946
 30
0.0
 10
773.3666494829214
 20
117.4569767122048
 30
0.0
 10
783.4817730125942
 20
114.9645431213104
 30
0.0
 10
796.1551544853683
 20
111.9910693541947
 30
0.0
 10
811.465362880264
 20
108.534039963609
 30
0.0
 10
826.9213296624697
 20
105.1976868523234
 30
0.0
 10
842.477777896285
 20
102.0561958203017
 30
0.0
 10
858.0747980938434
 20
99.16476518448553
 30
0.0
 10
873.7367641056006
 20
96.7847843659631
 30
0.0
 10
889.5005781380781
 20
95.21680214923906
 30
0.0
 10
904.2916698679313
 20
94.68421276471301
 30
0.0
 10
918.0431588687492
 20
95.05725734961129
 30
0.0
 10
930.7060977518056
 20
96.18088752715964
 30
0.0
 10
943.2691148364775
 20
98.15306785268302
 30
0.0
 10
955.6398885623347
 20
101.0665227315196
 30
0.0
 10
967.0397468264501
 20
104.7943496508306
 30
0.0
 10
977.4214042653576
 20
109.2069422241063
 30
0.0
 10
986.7962886936382
 20
114.1113660061851
 30
0.0
 10
994.0732110613008
 20
118.6481986887855
 30
0.0
 10
999.3353401165466
 20
122.5490365402049
 30
0.0
 10
1002.799811061062
 20
125.4709946734537
 30
0.0
 10
1006.0449751908
 20
128.6291232984286
 30
0.0
 10
1008.980689590206
 20
132.0756947433653
 30
0.0
 10
1011.42193082348
 20
135.8925763038627
 30
0.0
 10
1013.274747690567
 20
140.1370170618596
 30
0.0
 10
1013.749447197705
 20
143.1993826434302
 30
0.0
 10
1013.991407315889
 20
144.7603076641979
 30
0.0
  0
SPLINE
  5
78
330
1F
100
AcDbEntity
  8
0
  6
Continuous
 62
     7
370
    25
100
AcDbSpline
210
0.0
220
0.0
230
1.0
 70
     8
 71
     3
 72
    34
 73
    30
 74
     0
 42
0.00000001
 43
0.00000001
 40
0.0
 40
0.0
 40
0.0
 40
0.0
 40
0.0082689181299197
 40
0.0154777258428444
 40
0.0226235942062921
 40
0.0302461902351332
 40
0.0412685783823368
 40
0.05283012173939
 40
0.0641633664669071
 40
0.0853026185517172
 40
0.1054254769669851
 40
0.1256740228939835
 40
0.1671822064861363
 40
0.2093300652270416
 40
0.2512469883182779
 40
0.3342613013372688
 40
0.4173415179853358
 40
0.5006658300455723
 40
0.5706282011463263
 40
0.6405156432004513
 40
0.710426520456077
 40
0.7803306285572967
 40
0.8117106438589241
 40
0.8430964381230731
 40
0.8744849200520626
 40
0.9058612543494932
 40
0.937243072813084
 40
0.9686336644808569
 40
1.0
 40
1.0
 40
1.0
 40
1.0
 10
1013.991407315889
 20
144.7603076641979
 30
0.0
 10
1013.760762206816
 20
145.6053468347198
 30
0.0
 10
1013.329041671055
 20
147.1870875657682
 30
0.0
 10
1011.723287326298
 20
149.0320264614267
 30
0.0
 10
1009.6827974908
 20
150.1619588311005
 30
0.0
 10
1007.047468836135
 20
150.8375247009972
 30
0.0
 10
1003.878729459936
 20
151.0542853137496
 30
0.0
 10
1000.327331951127
 20
150.9427826525747
 30
0.0
 10
995.7207129567879
 20
150.7163014996888
 30
0.0
 10
990.2149316015363
 20
150.5319635946785
 30
0.0
 10
983.7791533548275
 20
150.2059799001424
 30
0.0
 10
975.2411386393997
 20
149.3649921714982
 30
0.0
 10
964.4823227899307
 20
147.6844288074965
 30
0.0
 10
951.5614915989746
 20
145.2283580269961
 30
0.0
 10
934.3485838804392
 20
142.0706476756333
 30
0.0
 10
912.8316706260913
 20
138.6093208878972
 30
0.0
 10
886.8614041506054
 20
135.6873507706768
 30
0.0
 10
862.1581565418697
 20
133.9610501560137
 30
0.0
 10
838.7957576675848
 20
133.0964811031126
 30
0.0
 10
816.824973519148
 20
132.8373019488677
 30
0.0
 10
794.8608721161008
 20
132.9138313046034
 30
0.0
 10
776.9300606923049
 20
133.432436693323
 30
0.0
 10
763.0693033072365
 20
134.4329057939383
 30
0.0
 10
753.2336539902951
 20
135.1537756177241
 30
0.0
 10
743.3882237621325
 20
135.7110681787773
 30
0.0
 10
733.5511702001846
 20
136.4358906327813
 30
0.0
 10
723.76148036543
 20
137.6353880519436
 30
0.0
 10
713.906459773283
 20
138.2137135093307
 30
0.0
 10
707.4239035172429
 20
139.3337114247449
 30
0.0
 10
704.1838781740155
 20
139.8934939375341
 30
0.0
  0
CIRCLE
  5
79
330
1F
100
AcDbEntity
  8
0
  6
Continuous
 62
     7
370
    25
100
AcDbCircle
 10
787.0229167557
 20
122.1424746187
 30
0.0
 40
5.000000000000062
  0
CIRCLE
  5
7A
330
1F
100
AcDbEntity
  8
0
  6
Continuous
 62
     7
370
    25
100
AcDbCircle
 10
993.8340576496
 20
134.2825293348
 30
0.0
 40
4.999999999999947
  0
CIRCLE
  5
7B
330
1F
100
AcDbEntity
  8
0
  6
Continuous
 62
     7
370
    25
100
AcDbCircle
 10
104.9411498573
 20
26.2651975118
 30
0.0
 40
1.999999999999995
  0
CIRCLE
  5
7C
330
1F
100
AcDbEntity
  8
0
  6
Continuous
 62
     7
370
    25
100
AcDbCircle
 10
14.6305044741
 20
13.6121452923
 30
0.0
 40
1.999999999999954
  0
LINE
  5
7D
330
1F
100
AcDbEntity
  8
0
  6
Continuous
 62
     7
370
    25
100
AcDbLine
 10
166.575566213
 20
9.407654309
 30
0.0
 11
161.1971976422
 21
19.5937921989
 31
0.0
  0
LINE
  5
7E
330
1F
100
AcDbEntity
  8
0
  6
Continuous
 62
     7
370
    25
100
AcDbLine
 10
159.7788868584
 20
2.5390286343
 30
0.0
 11
166.4697638415
 21
8.173381685
 31
0.0
  0
CIRCLE
  5
7F
330
1F
100
AcDbEntity
  8
0
  6
Continuous
 62
     7
370
    25
100
AcDbCircle
 10
157.0610427152
 20
11.7807682106
 30
0.0
 40
2.049999999999981
  0
SPLINE
  5
80
330
1F
100
AcDbEntity
  8
0
  6
Continuous
 62
     7
370
    25
100
AcDbSpline
210
0.0
220
0.0
230
1.0
 70
     8
 71
     3
 72
    22
 73
    18
 74
     0
 42
0.00000001
 43
0.00000001
 40
0.0
 40
0.0
 40
0.0
 40
0.0
 40
0.1198646876447168
 40
0.2400408203087322
 40
0.3601589978511241
 40
0.4799267964573426
 40
0.6090254017624797
 40
0.7396874719206513
 40
0.8046253733819629
 40
0.8675850355232593
 40
0.8999995825340161
 40
0.9353576507224972
 40
0.9527735364180253
 40
0.9686165645517163
 40
0.9784548201473507
 40
0.9884943155554143
 40
1.0
 40
1.0
 40
1.0
 40
1.0
 10
159.7788868583757
 20
2.53902863431571
 30
0.0
 10
153.3709814253558
 20
3.201958183572773
 30
0.0
 10
140.5385208664796
 20
4.529539775260661
 30
0.0
 10
121.2280930931969
 20
5.906147984822974
 30
0.0
 10
101.8891455050598
 20
6.677994107470886
 30
0.0
 10
82.0528982741004
 20
6.676687406438509
 30
0.0
 10
61.67017305015781
 20
5.700751732954757
 30
0.0
 10
44.29279377890333
 20
4.118287606695025
 30
0.0
 10
30.42381510429543
 20
3.174792352484135
 30
0.0
 10
21.79641472539201
 20
3.290047076769664
 30
0.0
 10
14.79038810735089
 20
3.80469272689804
 30
0.0
 10
10.21010205212575
 20
3.965238492031065
 30
0.0
 10
6.552952791367583
 20
4.466633959987531
 30
0.0
 10
4.327450556845025
 20
5.232336274363758
 30
0.0
 10
2.783370670681795
 20
6.414839133543182
 30
0.0
 10
1.830958612257017
 20
7.865117966295132
 30
0.0
 10
1.643270383089201
 20
9.019114492413049
 30
0.0
 10
1.543040004251206
 20
9.635378546390127
 30
0.0
  0
SPLINE
  5
81
330
1F
100
AcDbEntity
  8
0
  6
Continuous
 62
     7
370
    25
100
AcDbSpline
210
0.0
220
0.0
230
1.0
 70
     8
 71
     3
 72
    26
 73
    22
 74
     0
 42
0.00000001
 43
0.00000001
 40
0.0
 40
0.0
 40
0.0
 40
0.0
 40
0.0224471125039035
 40
0.0440377405236856
 40
0.0654990098929895
 40
0.0870666555914141
 40
0.1086473487259042
 40
0.1302328221668956
 40
0.173478919615515
 40
0.2166892075786766
 40
0.2598504520228463
 40
0.3245764194947579
 40
0.3894242848069729
 40
0.4543596973264988
 40
0.5192093537141859
 40
0.5993970738732216
 40
0.6795317120085298
 40
0.7596135376738509
 40
0.839759063351915
 40
0.91993477137396
 40
1.0
 40
1.0
 40
1.0
 40
1.0
 10
1.543040004251206
 20
9.635378546390127
 30
0.0
 10
1.877597922876117
 20
10.88959432114728
 30
0.0
 10
2.53394848056987
 20
13.35017043488401
 30
0.0
 10
4.496093109234489
 20
16.61897420354735
 30
0.0
 10
6.914151196554141
 20
19.45792197296364
 30
0.0
 10
9.698020848347532
 20
21.93892399880754
 30
0.0
 10
12.69119086560933
 20
24.16463170068955
 30
0.0
 10
16.8950748672792
 20
26.832416262975
 30
0.0
 10
22.43419356574105
 20
29.68505310789943
 30
0.0
 10
29.30428114333938
 20
32.6122598895921
 30
0.0
 10
37.546861182641
 20
35.41816163704431
 30
0.0
 10
47.23683036373399
 20
37.74271397837686
 30
0.0
 10
58.35077173756731
 20
39.24262753879343
 30
0.0
 10
69.55713505875532
 20
39.75819918019868
 30
0.0
 10
81.65021221658748
 20
39.37751245364834
 30
0.0
 10
94.5510481833074
 20
37.96177800013162
 30
0.0
 10
108.1684846741828
 20
35.42631482883712
 30
0.0
 10
121.5947912652254
 20
32.04913127509429
 30
0.0
 10
134.8657661508097
 20
28.11134423313005
 30
0.0
 10
148.0341398880102
 20
23.85271327116883
 30
0.0
 10
156.8115289378619
 20
21.01277988474531
 30
0.0
 10
161.1971976422297
 20
19.59379219893259
 30
0.0
  0
LINE
  5
82
330
1F
100
AcDbEntity
  8
0
  6
Continuous
 62
     7
370
    25
100
AcDbLine
 10
166.575566213
 20
9.407654309
 30
0.0
 11
166.4697638415
 21
8.173381685
 31
0.0
  0
CIRCLE
  5
83
330
1F
100
AcDbEntity
  8
0
  6
Continuous
 62
     7
370
    25
100
AcDbCircle
 10
274.9411498573
 20
96.2651975118
 30
0.0
 40
2.000000000000022
  0
CIRCLE
  5
84
330
1F
100
AcDbEntity
  8
0
  6
Continuous
 62
     7
370
    25
100
AcDbCircle
 10
184.6305044741
 20
83.6121452923
 30
0.0
 40
1.999999999999966
  0
LINE
  5
85
330
1F
100
AcDbEntity
  8
0
  6
Continuous
 62
     7
370
    25
100
AcDbLine
 10
336.575566213
 20
79.407654309
 30
0.0
 11
331.1971976422
 21
89.5937921989
 31
0.0
  0
LINE
  5
86
330
1F
100
AcDbEntity
  8
0
  6
Continuous
 62
     7
370
    25
100
AcDbLine
 10
329.7788868584
 20
72.5390286343
 30
0.0
 11
336.4697638415
 21
78.173381685
 31
0.0
  0
CIRCLE
  5
87
330
1F
100
AcDbEntity
  8
0
  6
Continuous
 62
     7
370
    25
100
AcDbCircle
 10
327.0610427152
 20
81.7807682106
 30
0.0
 40
2.050000000000009
  0
SPLINE
  5
88
330
1F
100
AcDbEntity
  8
0
  6
Continuous
 62
     7
370
    25
100
AcDbSpline
210
0.0
220
0.0
230
1.0
 70
     8
 71
     3
 72
    22
 73
    18
 74
     0
 42
0.00000001
 43
0.00000001
 40
0.0
 40
0.0
 40
0.0
 40
0.0
 40
0.1198646876447166
 40
0.240040820308732
 40
0.360158997851124
 40
0.4799267964573425
 40
0.6090254017624795
 40
0.739687471920651
 40
0.8046253733819627
 40
0.8675850355232592
 40
0.899999582534016
 40
0.9353576507224969
 40
0.9527735364180252
 40
0.9686165645517161
 40
0.9784548201473505
 40
0.9884943155554143
 40
1.0
 40
1.0
 40
1.0
 40
1.0
 10
329.7788868583758
 20
72.53902863431566
 30
0.0
 10
323.3709814253559
 20
73.20195818357273
 30
0.0
 10
310.5385208664797
 20
74.52953977526083
 30
0.0
 10
291.2280930931968
 20
75.90614798482315
 30
0.0
 10
271.88914550506
 20
76.67799410747095
 30
0.0
 10
252.0528982741004
 20
76.67668740643869
 30
0.0
 10
231.6701730501579
 20
75.70075173295481
 30
0.0
 10
214.2927937789035
 20
74.11828760669509
 30
0.0
 10
200.4238151042954
 20
73.1747923524843
 30
0.0
 10
191.7964147253921
 20
73.29004707676961
 30
0.0
 10
184.7903881073509
 20
73.80469272689821
 30
0.0
 10
180.2101020521258
 20
73.96523849203079
 30
0.0
 10
176.5529527913676
 20
74.46663395998782
 30
0.0
 10
174.3274505568451
 20
75.23233627436338
 30
0.0
 10
172.7833706706819
 20
76.41483913354347
 30
0.0
 10
171.8309586122569
 20
77.86511796629519
 30
0.0
 10
171.6432703830893
 20
79.019114492413
 30
0.0
 10
171.5430400042513
 20
79.63537854639019
 30
0.0
  0
SPLINE
  5
89
330
1F
100
AcDbEntity
  8
0
  6
Continuous
 62
     7
370
    25
100
AcDbSpline
210
0.0
220
0.0
230
1.0
 70
     8
 71
     3
 72
    26
 73
    22
 74
     0
 42
0.00000001
 43
0.00000001
 40
0.0
 40
0.0
 40
0.0
 40
0.0
 40
0.0224471125039035
 40
0.0440377405236855
 40
0.0654990098929895
 40
0.0870666555914142
 40
0.1086473487259043
 40
0.1302328221668956
 40
0.1734789196155152
 40
0.2166892075786767
 40
0.2598504520228463
 40
0.3245764194947579
 40
0.389424284806973
 40
0.4543596973264987
 40
0.519209353714186
 40
0.5993970738732218
 40
0.6795317120085299
 40
0.7596135376738509
 40
0.839759063351915
 40
0.91993477137396
 40
1.0
 40
1.0
 40
1.0
 40
1.0
 10
171.5430400042513
 20
79.63537854639019
 30
0.0
 10
171.8775979228762
 20
80.88959432114723
 30
0.0
 10
172.53394848057
 20
83.35017043488396
 30
0.0
 10
174.4960931092344
 20
86.61897420354752
 30
0.0
 10
176.9141511965543
 20
89.4579219729637
 30
0.0
 10
179.6980208483474
 20
91.93892399880738
 30
0.0
 10
182.6911908656096
 20
94.1646317006894
 30
0.0
 10
186.8950748672789
 20
96.8324162629754
 30
0.0
 10
192.4341935657413
 20
99.68505310789938
 30
0.0
 10
199.3042811433394
 20
102.6122598895922
 30
0.0
 10
207.546861182641
 20
105.4181616370445
 30
0.0
 10
217.236830363734
 20
107.7427139783769
 30
0.0
 10
228.3507717375674
 20
109.2426275387934
 30
0.0
 10
239.5571350587554
 20
109.7581991801989
 30
0.0
 10
251.6502122165874
 20
109.3775124536484
 30
0.0
 10
264.5510481833074
 20
107.9617780001317
 30
0.0
 10
278.1684846741829
 20
105.4263148288373
 30
0.0
 10
291.5947912652254
 20
102.0491312750945
 30
0.0
 10
304.8657661508099
 20
98.11134423313
 30
0.0
 10
318.0341398880101
 20
93.8527132711689
 30
0.0
 10
326.811528937862
 20
91.01277988474537
 30
0.0
 10
331.1971976422297
 20
89.59379219893265
 30
0.0
  0
LINE
  5
8A
330
1F
100
AcDbEntity
  8
0
  6
Continuous
 62
     7
370
    25
100
AcDbLine
 10
336.575566213
 20
79.407654309
 30
0.0
 11
336.4697638415
 21
78.173381685
 31
0.0
  0
CIRCLE
  5
8B
330
1F
100
AcDbEntity
  8
0
  6
Continuous
 62
     7
370
    25
100
AcDbCircle
 10
444.9411498573
 20
131.2651975118
 30
0.0
 40
1.999999999999968
  0
CIRCLE
  5
8C
330
1F
100
AcDbEntity
  8
0
  6
Continuous
 62
     7
370
    25
100
AcDbCircle
 10
354.6305044741
 20
118.6121452923
 30
0.0
 40
2.000000000000024
  0
LINE
  5
8D
330
1F
100
AcDbEntity
  8
0
  6
Continuous
 62
     7
370
    25
100
AcDbLine
 10
506.575566213
 20
114.407654309
 30
0.0
 11
501.1971976422
 21
124.5937921989
 31
0.0
  0
LINE
  5
8E
330
1F
100
AcDbEntity
  8
0
  6
Continuous
 62
     7
370
    25
100
AcDbLine
 10
499.7788868584
 20
107.5390286343
 30
0.0
 11
506.4697638415
 21
113.173381685
 31
0.0
  0
CIRCLE
  5
8F
330
1F
100
AcDbEntity
  8
0
  6
Continuous
 62
     7
370
    25
100
AcDbCircle
 10
497.0610427152
 20
116.7807682106
 30
0.0
 40
2.050000000000009
  0
SPLINE
  5
90
330
1F
100
AcDbEntity
  8
0
  6
Continuous
 62
     7
370
    25
100
AcDbSpline
210
0.0
220
0.0
230
1.0
 70
     8
 71
     3
 72
    22
 73
    18
 74
     0
 42
0.00000001
 43
0.00000001
 40
0.0
 40
0.0
 40
0.0
 40
0.0
 40
0.1198646876447166
 40
0.240040820308732
 40
0.360158997851124
 40
0.4799267964573425
 40
0.6090254017624797
 40
0.739687471920651
 40
0.8046253733819629
 40
0.8675850355232593
 40
0.8999995825340161
 40
0.935357650722497
 40
0.9527735364180254
 40
0.9686165645517163
 40
0.9784548201473505
 40
0.9884943155554143
 40
1.0
 40
1.0
 40
1.0
 40
1.0
 10
499.7788868583757
 20
107.5390286343156
 30
0.0
 10
493.370981425356
 20
108.2019581835726
 30
0.0
 10
480.5385208664798
 20
109.5295397752609
 30
0.0
 10
461.2280930931968
 20
110.906147984823
 30
0.0
 10
441.8891455050599
 20
111.6779941074709
 30
0.0
 10
422.0528982741003
 20
111.6766874064387
 30
0.0
 10
401.6701730501579
 20
110.7007517329545
 30
0.0
 10
384.2927937789033
 20
109.1182876066953
 30
0.0
 10
370.4238151042954
 20
108.1747923524839
 30
0.0
 10
361.796414725392
 20
108.2900470767698
 30
0.0
 10
354.790388107351
 20
108.804692726898
 30
0.0
 10
350.2101020521256
 20
108.9652384920309
 30
0.0
 10
346.5529527913677
 20
109.4666339599876
 30
0.0
 10
344.327450556845
 20
110.2323362743637
 30
0.0
 10
342.7833706706819
 20
111.4148391335433
 30
0.0
 10
341.8309586122569
 20
112.8651179662952
 30
0.0
 10
341.6432703830893
 20
114.019114492413
 30
0.0
 10
341.5430400042512
 20
114.6353785463901
 30
0.0
  0
SPLINE
  5
91
330
1F
100
AcDbEntity
  8
0
  6
Continuous
 62
     7
370
    25
100
AcDbSpline
210
0.0
220
0.0
230
1.0
 70
     8
 71
     3
 72
    26
 73
    22
 74
     0
 42
0.00000001
 43
0.00000001
 40
0.0
 40
0.0
 40
0.0
 40
0.0
 40
0.0224471125039035
 40
0.0440377405236855
 40
0.0654990098929895
 40
0.0870666555914141
 40
0.1086473487259042
 40
0.1302328221668957
 40
0.1734789196155152
 40
0.2166892075786766
 40
0.2598504520228463
 40
0.3245764194947579
 40
0.389424284806973
 40
0.4543596973264987
 40
0.519209353714186
 40
0.5993970738732218
 40
0.6795317120085299
 40
0.7596135376738509
 40
0.839759063351915
 40
0.91993477137396
 40
1.0
 40
1.0
 40
1.0
 40
1.0
 10
341.5430400042512
 20
114.6353785463901
 30
0.0
 10
341.8775979228762
 20
115.8895943211471
 30
0.0
 10
342.53394848057
 20
118.350170434884
 30
0.0
 10
344.4960931092346
 20
121.6189742035471
 30
0.0
 10
346.9141511965543
 20
124.4579219729635
 30
0.0
 10
349.6980208483474
 20
126.9389239988075
 30
0.0
 10
352.6911908656096
 20
129.1646317006892
 30
0.0
 10
356.8950748672789
 20
131.8324162629754
 30
0.0
 10
362.4341935657412
 20
134.6850531078992
 30
0.0
 10
369.3042811433394
 20
137.6122598895924
 30
0.0
 10
377.546861182641
 20
140.4181616370442
 30
0.0
 10
387.236830363734
 20
142.742713978377
 30
0.0
 10
398.3507717375674
 20
144.2426275387933
 30
0.0
 10
409.5571350587554
 20
144.7581991801987
 30
0.0
 10
421.6502122165875
 20
144.3775124536483
 30
0.0
 10
434.5510481833074
 20
142.9617780001316
 30
0.0
 10
448.1684846741829
 20
140.4263148288372
 30
0.0
 10
461.5947912652254
 20
137.0491312750944
 30
0.0
 10
474.8657661508098
 20
133.1113442331298
 30
0.0
 10
488.0341398880102
 20
128.8527132711688
 30
0.0
 10
496.811528937862
 20
126.0127798847453
 30
0.0
 10
501.1971976422297
 20
124.5937921989326
 30
0.0
  0
LINE
  5
92
330
1F
100
AcDbEntity
  8
0
  6
Continuous
 62
     7
370
    25
100
AcDbLine
 10
506.575566213
 20
114.407654309
 30
0.0
 11
506.4697638415
 21
113.173381685
 31
0.0
  0
SPLINE
  5
93
330
1F
100
AcDbEntity
  8
0
  6
Continuous
 62
     7
370
    25
100
AcDbSpline
210
0.0
220
0.0
230
1.0
 70
     8
 71
     3
 72
    26
 73
    22
 74
     0
 42
0.00000001
 43
0.00000001
 40
0.0
 40
0.0
 40
0.0
 40
0.0
 40
0.0224471125039035
 40
0.0440377405236855
 40
0.0654990098929895
 40
0.0870666555914141
 40
0.1086473487259042
 40
0.1302328221668957
 40
0.1734789196155152
 40
0.2166892075786766
 40
0.2598504520228463
 40
0.3245764194947579
 40
0.389424284806973
 40
0.4543596973264987
 40
0.519209353714186
 40
0.5993970738732218
 40
0.6795317120085299
 40
0.7596135376738509
 40
0.839759063351915
 40
0.91993477137396
 40
1.0
 40
1.0
 40
1.0
 40
1.0
 10
341.5430400042512
 20
79.63537854639019
 30
0.0
 10
341.8775979228762
 20
80.88959432114734
 30
0.0
 10
342.53394848057
 20
83.35017043488396
 30
0.0
 10
344.4960931092346
 20
86.6189742035472
 30
0.0
 10
346.9141511965543
 20
89.4579219729637
 30
0.0
 10
349.6980208483474
 20
91.93892399880771
 30
0.0
 10
352.6911908656096
 20
94.16463170068928
 30
0.0
 10
356.8950748672789
 20
96.83241626297561
 30
0.0
 10
362.4341935657412
 20
99.68505310789915
 30
0.0
 10
369.3042811433394
 20
102.6122598895925
 30
0.0
 10
377.546861182641
 20
105.4181616370442
 30
0.0
 10
387.236830363734
 20
107.7427139783772
 30
0.0
 10
398.3507717375674
 20
109.2426275387933
 30
0.0
 10
409.5571350587554
 20
109.7581991801989
 30
0.0
 10
421.6502122165875
 20
109.3775124536484
 30
0.0
 10
434.5510481833074
 20
107.9617780001317
 30
0.0
 10
448.1684846741829
 20
105.4263148288373
 30
0.0
 10
461.5947912652254
 20
102.0491312750945
 30
0.0
 10
474.8657661508098
 20
98.11134423313
 30
0.0
 10
488.0341398880102
 20
93.8527132711689
 30
0.0
 10
496.811528937862
 20
91.01277988474537
 30
0.0
 10
501.1971976422297
 20
89.59379219893265
 30
0.0
  0
LINE
  5
94
330
1F
100
AcDbEntity
  8
0
  6
Continuous
 62
     7
370
    25
100
AcDbLine
 10
506.575566213
 20
79.407654309
 30
0.0
 11
501.1971976422
 21
89.5937921989
 31
0.0
  0
LINE
  5
95
330
1F
100
AcDbEntity
  8
0
  6
Continuous
 62
     7
370
    25
100
AcDbLine
 10
506.575566213
 20
79.407654309
 30
0.0
 11
506.4697638415
 21
78.173381685
 31
0.0
  0
LINE
  5
96
330
1F
100
AcDbEntity
  8
0
  6
Continuous
 62
     7
370
    25
100
AcDbLine
 10
499.7788868584
 20
72.5390286343
 30
0.0
 11
506.4697638415
 21
78.173381685
 31
0.0
  0
SPLINE
  5
97
330
1F
100
AcDbEntity
  8
0
  6
Continuous
 62
     7
370
    25
100
AcDbSpline
210
0.0
220
0.0
230
1.0
 70
     8
 71
     3
 72
    22
 73
    18
 74
     0
 42
0.00000001
 43
0.00000001
 40
0.0
 40
0.0
 40
0.0
 40
0.0
 40
0.1198646876447166
 40
0.240040820308732
 40
0.360158997851124
 40
0.4799267964573425
 40
0.6090254017624797
 40
0.739687471920651
 40
0.8046253733819629
 40
0.8675850355232593
 40
0.8999995825340161
 40
0.935357650722497
 40
0.9527735364180254
 40
0.9686165645517163
 40
0.9784548201473505
 40
0.9884943155554143
 40
1.0
 40
1.0
 40
1.0
 40
1.0
 10
499.7788868583757
 20
72.53902863431566
 30
0.0
 10
493.370981425356
 20
73.20195818357273
 30
0.0
 10
480.5385208664798
 20
74.52953977526083
 30
0.0
 10
461.2280930931968
 20
75.90614798482315
 30
0.0
 10
441.8891455050599
 20
76.67799410747095
 30
0.0
 10
422.0528982741003
 20
76.67668740643879
 30
0.0
 10
401.6701730501579
 20
75.70075173295481
 30
0.0
 10
384.2927937789033
 20
74.1182876066952
 30
0.0
 10
370.4238151042954
 20
73.17479235248398
 30
0.0
 10
361.796414725392
 20
73.29004707676984
 30
0.0
 10
354.790388107351
 20
73.804692726898
 30
0.0
 10
350.2101020521256
 20
73.96523849203113
 30
0.0
 10
346.5529527913677
 20
74.4666339599877
 30
0.0
 10
344.327450556845
 20
75.2323362743637
 30
0.0
 10
342.7833706706819
 20
76.41483913354335
 30
0.0
 10
341.8309586122569
 20
77.8651179662953
 30
0.0
 10
341.6432703830893
 20
79.01911449241311
 30
0.0
 10
341.5430400042512
 20
79.63537854639019
 30
0.0
  0
CIRCLE
  5
98
330
1F
100
AcDbEntity
  8
0
  6
Continuous
 62
     7
370
    25
100
AcDbCircle
 10
497.0610427152
 20
81.7807682106
 30
0.0
 40
2.050000000000009
  0
CIRCLE
  5
99
330
1F
100
AcDbEntity
  8
0
  6
Continuous
 62
     7
370
    25
100
AcDbCircle
 10
444.9411498573
 20
96.2651975118
 30
0.0
 40
1.999999999999966
  0
CIRCLE
  5
9A
330
1F
100
AcDbEntity
  8
0
  6
Continuous
 62
     7
370
    25
100
AcDbCircle
 10
354.6305044741
 20
83.6121452923
 30
0.0
 40
2.000000000000022
  0
CIRCLE
  5
9B
330
1F
100
AcDbEntity
  8
0
  6
Continuous
 62
     7
370
    25
100
AcDbCircle
 10
184.6305044741
 20
118.6121452923
 30
0.0
 40
1.999999999999967
  0
LINE
  5
9C
330
1F
100
AcDbEntity
  8
0
  6
Continuous
 62
     7
370
    25
100
AcDbLine
 10
336.575566213
 20
114.407654309
 30
0.0
 11
331.1971976422
 21
124.5937921989
 31
0.0
  0
LINE
  5
9D
330
1F
100
AcDbEntity
  8
0
  6
Continuous
 62
     7
370
    25
100
AcDbLine
 10
329.7788868584
 20
107.5390286343
 30
0.0
 11
336.4697638415
 21
113.173381685
 31
0.0
  0
CIRCLE
  5
9E
330
1F
100
AcDbEntity
  8
0
  6
Continuous
 62
     7
370
    25
100
AcDbCircle
 10
327.0610427152
 20
116.7807682106
 30
0.0
 40
2.050000000000009
  0
SPLINE
  5
9F
330
1F
100
AcDbEntity
  8
0
  6
Continuous
 62
     7
370
    25
100
AcDbSpline
210
0.0
220
0.0
230
1.0
 70
     8
 71
     3
 72
    22
 73
    18
 74
     0
 42
0.00000001
 43
0.00000001
 40
0.0
 40
0.0
 40
0.0
 40
0.0
 40
0.1198646876447166
 40
0.240040820308732
 40
0.360158997851124
 40
0.4799267964573425
 40
0.6090254017624795
 40
0.739687471920651
 40
0.8046253733819627
 40
0.8675850355232592
 40
0.899999582534016
 40
0.9353576507224969
 40
0.9527735364180252
 40
0.9686165645517161
 40
0.9784548201473505
 40
0.9884943155554143
 40
1.0
 40
1.0
 40
1.0
 40
1.0
 10
329.7788868583758
 20
107.5390286343156
 30
0.0
 10
323.3709814253559
 20
108.2019581835726
 30
0.0
 10
310.5385208664797
 20
109.5295397752609
 30
0.0
 10
291.2280930931968
 20
110.906147984823
 30
0.0
 10
271.88914550506
 20
111.6779941074709
 30
0.0
 10
252.0528982741004
 20
111.6766874064386
 30
0.0
 10
231.6701730501579
 20
110.7007517329546
 30
0.0
 10
214.2927937789035
 20
109.118287606695
 30
0.0
 10
200.4238151042954
 20
108.1747923524842
 30
0.0
 10
191.7964147253921
 20
108.2900470767695
 30
0.0
 10
184.7903881073509
 20
108.8046927268981
 30
0.0
 10
180.2101020521258
 20
108.9652384920306
 30
0.0
 10
176.5529527913676
 20
109.4666339599877
 30
0.0
 10
174.3274505568451
 20
110.2323362743634
 30
0.0
 10
172.7833706706819
 20
111.4148391335433
 30
0.0
 10
171.8309586122569
 20
112.8651179662952
 30
0.0
 10
171.6432703830893
 20
114.0191144924129
 30
0.0
 10
171.5430400042513
 20
114.6353785463901
 30
0.0
  0
SPLINE
  5
A0
330
1F
100
AcDbEntity
  8
0
  6
Continuous
 62
     7
370
    25
100
AcDbSpline
210
0.0
220
0.0
230
1.0
 70
     8
 71
     3
 72
    26
 73
    22
 74
     0
 42
0.00000001
 43
0.00000001
 40
0.0
 40
0.0
 40
0.0
 40
0.0
 40
0.0224471125039035
 40
0.0440377405236855
 40
0.0654990098929895
 40
0.0870666555914142
 40
0.1086473487259043
 40
0.1302328221668956
 40
0.1734789196155152
 40
0.2166892075786767
 40
0.2598504520228463
 40
0.3245764194947579
 40
0.389424284806973
 40
0.4543596973264987
 40
0.519209353714186
 40
0.5993970738732218
 40
0.6795317120085299
 40
0.7596135376738509
 40
0.839759063351915
 40
0.91993477137396
 40
1.0
 40
1.0
 40
1.0
 40
1.0
 10
171.5430400042513
 20
114.6353785463901
 30
0.0
 10
171.8775979228762
 20
115.8895943211473
 30
0.0
 10
172.53394848057
 20
118.3501704348839
 30
0.0
 10
174.4960931092344
 20
121.6189742035476
 30
0.0
 10
176.9141511965543
 20
124.4579219729635
 30
0.0
 10
179.6980208483474
 20
126.9389239988074
 30
0.0
 10
182.6911908656096
 20
129.1646317006893
 30
0.0
 10
186.8950748672789
 20
131.8324162629754
 30
0.0
 10
192.4341935657413
 20
134.6850531078993
 30
0.0
 10
199.3042811433394
 20
137.6122598895922
 30
0.0
 10
207.546861182641
 20
140.4181616370444
 30
0.0
 10
217.236830363734
 20
142.7427139783767
 30
0.0
 10
228.3507717375674
 20
144.2426275387935
 30
0.0
 10
239.5571350587554
 20
144.7581991801987
 30
0.0
 10
251.6502122165874
 20
144.3775124536483
 30
0.0
 10
264.5510481833074
 20
142.9617780001316
 30
0.0
 10
278.1684846741829
 20
140.4263148288372
 30
0.0
 10
291.5947912652254
 20
137.0491312750944
 30
0.0
 10
304.8657661508099
 20
133.1113442331298
 30
0.0
 10
318.0341398880101
 20
128.8527132711688
 30
0.0
 10
326.811528937862
 20
126.0127798847453
 30
0.0
 10
331.1971976422297
 20
124.5937921989326
 30
0.0
  0
LINE
  5
A1
330
1F
100
AcDbEntity
  8
0
  6
Continuous
 62
     7
370
    25
100
AcDbLine
 10
336.575566213
 20
114.407654309
 30
0.0
 11
336.4697638415
 21
113.173381685
 31
0.0
  0
CIRCLE
  5
A2
330
1F
100
AcDbEntity
  8
0
  6
Continuous
 62
     7
370
    25
100
AcDbCircle
 10
274.9411498573
 20
131.2651975118
 30
0.0
 40
2.000000000000024
  0
LINE
  5
A3
330
1F
100
AcDbEntity
  8
0
  6
Continuous
 62
     7
370
    25
100
AcDbLine
 10
166.575566213
 20
114.407654309
 30
0.0
 11
161.1971976422
 21
124.5937921989
 31
0.0
  0
LINE
  5
A4
330
1F
100
AcDbEntity
  8
0
  6
Continuous
 62
     7
370
    25
100
AcDbLine
 10
166.575566213
 20
114.407654309
 30
0.0
 11
166.4697638415
 21
113.173381685
 31
0.0
  0
LINE
  5
A5
330
1F
100
AcDbEntity
  8
0
  6
Continuous
 62
     7
370
    25
100
AcDbLine
 10
159.7788868584
 20
107.5390286343
 30
0.0
 11
166.4697638415
 21
113.173381685
 31
0.0
  0
SPLINE
  5
A6
330
1F
100
AcDbEntity
  8
0
  6
Continuous
 62
     7
370
    25
100
AcDbSpline
210
0.0
220
0.0
230
1.0
 70
     8
 71
     3
 72
    22
 73
    18
 74
     0
 42
0.00000001
 43
0.00000001
 40
0.0
 40
0.0
 40
0.0
 40
0.0
 40
0.1198646876447168
 40
0.2400408203087322
 40
0.3601589978511241
 40
0.4799267964573426
 40
0.6090254017624797
 40
0.7396874719206513
 40
0.8046253733819629
 40
0.8675850355232593
 40
0.8999995825340161
 40
0.9353576507224972
 40
0.9527735364180253
 40
0.9686165645517163
 40
0.9784548201473507
 40
0.9884943155554143
 40
1.0
 40
1.0
 40
1.0
 40
1.0
 10
159.7788868583757
 20
107.5390286343157
 30
0.0
 10
153.3709814253558
 20
108.2019581835728
 30
0.0
 10
140.5385208664796
 20
109.5295397752606
 30
0.0
 10
121.2280930931969
 20
110.906147984823
 30
0.0
 10
101.8891455050598
 20
111.677994107471
 30
0.0
 10
82.0528982741004
 20
111.6766874064385
 30
0.0
 10
61.67017305015781
 20
110.7007517329547
 30
0.0
 10
44.29279377890333
 20
109.1182876066952
 30
0.0
 10
30.42381510429543
 20
108.1747923524841
 30
0.0
 10
21.79641472539201
 20
108.2900470767695
 30
0.0
 10
14.79038810735089
 20
108.8046927268981
 30
0.0
 10
10.21010205212575
 20
108.9652384920309
 30
0.0
 10
6.552952791367583
 20
109.4666339599875
 30
0.0
 10
4.327450556845025
 20
110.2323362743638
 30
0.0
 10
2.783370670681795
 20
111.4148391335432
 30
0.0
 10
1.830958612257017
 20
112.8651179662951
 30
0.0
 10
1.643270383089201
 20
114.019114492413
 30
0.0
 10
1.543040004251206
 20
114.6353785463901
 30
0.0
  0
CIRCLE
  5
A7
330
1F
100
AcDbEntity
  8
0
  6
Continuous
 62
     7
370
    25
100
AcDbCircle
 10
157.0610427152
 20
116.7807682106
 30
0.0
 40
2.049999999999981
  0
CIRCLE
  5
A8
330
1F
100
AcDbEntity
  8
0
  6
Continuous
 62
     7
370
    25
100
AcDbCircle
 10
104.9411498573
 20
131.2651975118
 30
0.0
 40
1.999999999999996
  0
CIRCLE
  5
A9
330
1F
100
AcDbEntity
  8
0
  6
Continuous
 62
     7
370
    25
100
AcDbCircle
 10
14.6305044741
 20
118.6121452923
 30
0.0
 40
1.999999999999954
  0
SPLINE
  5
AA
330
1F
100
AcDbEntity
  8
0
  6
Continuous
 62
     7
370
    25
100
AcDbSpline
210
0.0
220
0.0
230
1.0
 70
     8
 71
     3
 72
    26
 73
    22
 74
     0
 42
0.00000001
 43
0.00000001
 40
0.0
 40
0.0
 40
0.0
 40
0.0
 40
0.0224471125039035
 40
0.0440377405236856
 40
0.0654990098929895
 40
0.0870666555914141
 40
0.1086473487259042
 40
0.1302328221668956
 40
0.173478919615515
 40
0.2166892075786766
 40
0.2598504520228463
 40
0.3245764194947579
 40
0.3894242848069729
 40
0.4543596973264988
 40
0.5192093537141859
 40
0.5993970738732216
 40
0.6795317120085298
 40
0.7596135376738509
 40
0.839759063351915
 40
0.91993477137396
 40
1.0
 40
1.0
 40
1.0
 40
1.0
 10
1.543040004251206
 20
114.6353785463901
 30
0.0
 10
1.877597922876117
 20
115.8895943211473
 30
0.0
 10
2.53394848056987
 20
118.350170434884
 30
0.0
 10
4.496093109234489
 20
121.6189742035473
 30
0.0
 10
6.914151196554141
 20
124.4579219729637
 30
0.0
 10
9.698020848347532
 20
126.9389239988074
 30
0.0
 10
12.69119086560933
 20
129.1646317006895
 30
0.0
 10
16.8950748672792
 20
131.8324162629749
 30
0.0
 10
22.43419356574105
 20
134.6850531078994
 30
0.0
 10
29.30428114333938
 20
137.6122598895921
 30
0.0
 10
37.546861182641
 20
140.4181616370443
 30
0.0
 10
47.23683036373399
 20
142.7427139783769
 30
0.0
 10
58.35077173756731
 20
144.2426275387935
 30
0.0
 10
69.55713505875532
 20
144.7581991801985
 30
0.0
 10
81.65021221658748
 20
144.3775124536483
 30
0.0
 10
94.5510481833074
 20
142.9617780001316
 30
0.0
 10
108.1684846741828
 20
140.426314828837
 30
0.0
 10
121.5947912652254
 20
137.0491312750943
 30
0.0
 10
134.8657661508097
 20
133.1113442331299
 30
0.0
 10
148.0341398880102
 20
128.8527132711688
 30
0.0
 10
156.8115289378619
 20
126.0127798847453
 30
0.0
 10
161.1971976422297
 20
124.5937921989326
 30
0.0
  0
SPLINE
  5
AB
330
1F
100
AcDbEntity
  8
0
  6
Continuous
 62
     7
370
    25
100
AcDbSpline
210
0.0
220
0.0
230
1.0
 70
     8
 71
     3
 72
    26
 73
    22
 74
     0
 42
0.00000001
 43
0.00000001
 40
0.0
 40
0.0
 40
0.0
 40
0.0
 40
0.0224471125039029
 40
0.0440377405236855
 40
0.0654990098929894
 40
0.0870666555914141
 40
0.1086473487259042
 40
0.1302328221668956
 40
0.173478919615515
 40
0.2166892075786766
 40
0.2598504520228463
 40
0.3245764194947578
 40
0.3894242848069729
 40
0.4543596973264987
 40
0.5192093537141858
 40
0.5993970738732216
 40
0.6795317120085298
 40
0.7596135376738509
 40
0.839759063351915
 40
0.91993477137396
 40
1.0
 40
1.0
 40
1.0
 40
1.0
 10
1.543040004251206
 20
79.63537854639007
 30
0.0
 10
1.87759792287634
 20
80.889594321147
 30
0.0
 10
2.533948480570092
 20
83.35017043488385
 30
0.0
 10
4.496093109234267
 20
86.61897420354731
 30
0.0
 10
6.914151196554363
 20
89.45792197296349
 30
0.0
 10
9.698020848347365
 20
91.93892399880748
 30
0.0
 10
12.69119086560944
 20
94.16463170068951
 30
0.0
 10
16.89507486727915
 20
96.83241626297485
 30
0.0
 10
22.43419356574117
 20
99.68505310789926
 30
0.0
 10
29.30428114333933
 20
102.6122598895922
 30
0.0
 10
37.54686118264089
 20
105.4181616370443
 30
0.0
 10
47.23683036373405
 20
107.7427139783768
 30
0.0
 10
58.35077173756731
 20
109.2426275387933
 30
0.0
 10
69.55713505875526
 20
109.7581991801987
 30
0.0
 10
81.65021221658748
 20
109.3775124536483
 30
0.0
 10
94.55104818330734
 20
107.9617780001315
 30
0.0
 10
108.1684846741828
 20
105.4263148288372
 30
0.0
 10
121.5947912652254
 20
102.0491312750941
 30
0.0
 10
134.8657661508097
 20
98.11134423313
 30
0.0
 10
148.0341398880102
 20
93.85271327116878
 30
0.0
 10
156.8115289378619
 20
91.01277988474527
 30
0.0
 10
161.1971976422297
 20
89.59379219893255
 30
0.0
  0
LINE
  5
AC
330
1F
100
AcDbEntity
  8
0
  6
Continuous
 62
     7
370
    25
100
AcDbLine
 10
166.575566213
 20
79.407654309
 30
0.0
 11
161.1971976422
 21
89.5937921989
 31
0.0
  0
LINE
  5
AD
330
1F
100
AcDbEntity
  8
0
  6
Continuous
 62
     7
370
    25
100
AcDbLine
 10
159.7788868584
 20
72.5390286343
 30
0.0
 11
166.4697638415
 21
78.173381685
 31
0.0
  0
SPLINE
  5
AE
330
1F
100
AcDbEntity
  8
0
  6
Continuous
 62
     7
370
    25
100
AcDbSpline
210
0.0
220
0.0
230
1.0
 70
     8
 71
     3
 72
    22
 73
    18
 74
     0
 42
0.00000001
 43
0.00000001
 40
0.0
 40
0.0
 40
0.0
 40
0.0
 40
0.1198646876447168
 40
0.2400408203087322
 40
0.3601589978511241
 40
0.4799267964573426
 40
0.6090254017624797
 40
0.7396874719206513
 40
0.8046253733819629
 40
0.8675850355232593
 40
0.8999995825340161
 40
0.9353576507224972
 40
0.9527735364180253
 40
0.9686165645517163
 40
0.9784548201473507
 40
0.9884943155554143
 40
1.0
 40
1.0
 40
1.0
 40
1.0
 10
159.7788868583757
 20
72.53902863431566
 30
0.0
 10
153.3709814253558
 20
73.20195818357273
 30
0.0
 10
140.5385208664796
 20
74.52953977526072
 30
0.0
 10
121.2280930931969
 20
75.90614798482281
 30
0.0
 10
101.8891455050598
 20
76.67799410747095
 30
0.0
 10
82.0528982741004
 20
76.67668740643846
 30
0.0
 10
61.67017305015781
 20
75.70075173295471
 30
0.0
 10
44.29279377890333
 20
74.11828760669509
 30
0.0
 10
30.42381510429543
 20
73.17479235248398
 30
0.0
 10
21.79641472539201
 20
73.29004707676961
 30
0.0
 10
14.79038810735089
 20
73.80469272689788
 30
0.0
 10
10.21010205212575
 20
73.96523849203102
 30
0.0
 10
6.552952791367583
 20
74.46663395998748
 30
0.0
 10
4.327450556845025
 20
75.2323362743637
 30
0.0
 10
2.783370670681795
 20
76.41483913354324
 30
0.0
 10
1.830958612257017
 20
77.86511796629509
 30
0.0
 10
1.643270383089201
 20
79.01911449241311
 30
0.0
 10
1.543040004251206
 20
79.63537854639007
 30
0.0
  0
CIRCLE
  5
AF
330
1F
100
AcDbEntity
  8
0
  6
Continuous
 62
     7
370
    25
100
AcDbCircle
 10
157.0610427152
 20
81.7807682106
 30
0.0
 40
2.049999999999981
  0
CIRCLE
  5
B0
330
1F
100
AcDbEntity
  8
0
  6
Continuous
 62
     7
370
    25
100
AcDbCircle
 10
104.9411498573
 20
96.2651975118
 30
0.0
 40
1.999999999999995
  0
CIRCLE
  5
B1
330
1F
100
AcDbEntity
  8
0
  6
Continuous
 62
     7
370
    25
100
AcDbCircle
 10
14.6305044741
 20
83.6121452923
 30
0.0
 40
1.999999999999954
  0
LINE
  5
B2
330
1F
100
AcDbEntity
  8
0
  6
Continuous
 62
     7
370
    25
100
AcDbLine
 10
166.575566213
 20
79.407654309
 30
0.0
 11
166.4697638415
 21
78.173381685
 31
0.0
  0
CIRCLE
  5
B3
330
1F
100
AcDbEntity
  8
0
  6
Continuous
 62
     7
370
    25
100
AcDbCircle
 10
444.9411498573
 20
61.2651975118
 30
0.0
 40
1.999999999999967
  0
CIRCLE
  5
B4
330
1F
100
AcDbEntity
  8
0
  6
Continuous
 62
     7
370
    25
100
AcDbCircle
 10
354.6305044741
 20
48.6121452923
 30
0.0
 40
2.000000000000023
  0
LINE
  5
B5
330
1F
100
AcDbEntity
  8
0
  6
Continuous
 62
     7
370
    25
100
AcDbLine
 10
506.575566213
 20
44.407654309
 30
0.0
 11
501.1971976422
 21
54.5937921989
 31
0.0
  0
LINE
  5
B6
330
1F
100
AcDbEntity
  8
0
  6
Continuous
 62
     7
370
    25
100
AcDbLine
 10
499.7788868584
 20
37.5390286343
 30
0.0
 11
506.4697638415
 21
43.173381685
 31
0.0
  0
CIRCLE
  5
B7
330
1F
100
AcDbEntity
  8
0
  6
Continuous
 62
     7
370
    25
100
AcDbCircle
 10
497.0610427152
 20
46.7807682106
 30
0.0
 40
2.050000000000009
  0
SPLINE
  5
B8
330
1F
100
AcDbEntity
  8
0
  6
Continuous
 62
     7
370
    25
100
AcDbSpline
210
0.0
220
0.0
230
1.0
 70
     8
 71
     3
 72
    22
 73
    18
 74
     0
 42
0.00000001
 43
0.00000001
 40
0.0
 40
0.0
 40
0.0
 40
0.0
 40
0.1198646876447166
 40
0.240040820308732
 40
0.360158997851124
 40
0.4799267964573425
 40
0.6090254017624797
 40
0.739687471920651
 40
0.8046253733819629
 40
0.8675850355232593
 40
0.8999995825340161
 40
0.935357650722497
 40
0.9527735364180254
 40
0.9686165645517163
 40
0.9784548201473505
 40
0.9884943155554143
 40
1.0
 40
1.0
 40
1.0
 40
1.0
 10
499.7788868583757
 20
37.53902863431563
 30
0.0
 10
493.370981425356
 20
38.20195818357269
 30
0.0
 10
480.5385208664798
 20
39.5295397752608
 30
0.0
 10
461.2280930931968
 20
40.90614798482311
 30
0.0
 10
441.8891455050599
 20
41.67799410747092
 30
0.0
 10
422.0528982741003
 20
41.67668740643876
 30
0.0
 10
401.6701730501579
 20
40.70075173295468
 30
0.0
 10
384.2927937789033
 20
39.11828760669517
 30
0.0
 10
370.4238151042954
 20
38.17479235248405
 30
0.0
 10
361.796414725392
 20
38.29004707676981
 30
0.0
 10
354.790388107351
 20
38.80469272689796
 30
0.0
 10
350.2101020521256
 20
38.96523849203098
 30
0.0
 10
346.5529527913677
 20
39.46663395998767
 30
0.0
 10
344.327450556845
 20
40.23233627436379
 30
0.0
 10
342.7833706706819
 20
41.41483913354321
 30
0.0
 10
341.8309586122569
 20
42.86511796629527
 30
0.0
 10
341.6432703830893
 20
44.01911449241319
 30
0.0
 10
341.5430400042512
 20
44.63537854639016
 30
0.0
  0
SPLINE
  5
B9
330
1F
100
AcDbEntity
  8
0
  6
Continuous
 62
     7
370
    25
100
AcDbSpline
210
0.0
220
0.0
230
1.0
 70
     8
 71
     3
 72
    26
 73
    22
 74
     0
 42
0.00000001
 43
0.00000001
 40
0.0
 40
0.0
 40
0.0
 40
0.0
 40
0.0224471125039029
 40
0.0440377405236855
 40
0.0654990098929894
 40
0.0870666555914141
 40
0.1086473487259042
 40
0.1302328221668957
 40
0.1734789196155152
 40
0.2166892075786766
 40
0.2598504520228463
 40
0.3245764194947579
 40
0.389424284806973
 40
0.4543596973264986
 40
0.5192093537141859
 40
0.5993970738732217
 40
0.6795317120085298
 40
0.7596135376738508
 40
0.839759063351915
 40
0.9199347713739598
 40
1.0
 40
1.0
 40
1.0
 40
1.0
 10
341.5430400042512
 20
44.63537854639016
 30
0.0
 10
341.8775979228762
 20
45.8895943211472
 30
0.0
 10
342.5339484805701
 20
48.35017043488394
 30
0.0
 10
344.4960931092344
 20
51.61897420354749
 30
0.0
 10
346.9141511965543
 20
54.45792197296356
 30
0.0
 10
349.6980208483473
 20
56.93892399880757
 30
0.0
 10
352.6911908656096
 20
59.16463170068936
 30
0.0
 10
356.8950748672789
 20
61.83241626297548
 30
0.0
 10
362.4341935657412
 20
64.68505310789912
 30
0.0
 10
369.3042811433394
 20
67.61225988959247
 30
0.0
 10
377.546861182641
 20
70.41816163704412
 30
0.0
 10
387.236830363734
 20
72.74271397837701
 30
0.0
 10
398.3507717375674
 20
74.24262753879324
 30
0.0
 10
409.5571350587554
 20
74.75819918019872
 30
0.0
 10
421.6502122165875
 20
74.37751245364838
 30
0.0
 10
434.5510481833074
 20
72.96177800013176
 30
0.0
 10
448.1684846741829
 20
70.42631482883715
 30
0.0
 10
461.5947912652254
 20
67.04913127509433
 30
0.0
 10
474.8657661508098
 20
63.11134423312975
 30
0.0
 10
488.0341398880102
 20
58.85271327116875
 30
0.0
 10
496.811528937862
 20
56.01277988474534
 30
0.0
 10
501.1971976422297
 20
54.59379219893263
 30
0.0
  0
LINE
  5
BA
330
1F
100
AcDbEntity
  8
0
  6
Continuous
 62
     7
370
    25
100
AcDbLine
 10
506.575566213
 20
44.407654309
 30
0.0
 11
506.4697638415
 21
43.173381685
 31
0.0
  0
SPLINE
  5
BB
330
1F
100
AcDbEntity
  8
0
  6
Continuous
 62
     7
370
    25
100
AcDbSpline
210
0.0
220
0.0
230
1.0
 70
     8
 71
     3
 72
    26
 73
    22
 74
     0
 42
0.00000001
 43
0.00000001
 40
0.0
 40
0.0
 40
0.0
 40
0.0
 40
0.0224471125039029
 40
0.0440377405236854
 40
0.0654990098929895
 40
0.0870666555914141
 40
0.1086473487259042
 40
0.1302328221668956
 40
0.1734789196155151
 40
0.2166892075786766
 40
0.2598504520228463
 40
0.3245764194947579
 40
0.389424284806973
 40
0.4543596973264986
 40
0.5192093537141859
 40
0.5993970738732217
 40
0.6795317120085298
 40
0.7596135376738508
 40
0.839759063351915
 40
0.9199347713739598
 40
1.0
 40
1.0
 40
1.0
 40
1.0
 10
171.5430400042513
 20
44.63537854639016
 30
0.0
 10
171.8775979228763
 20
45.88959432114731
 30
0.0
 10
172.5339484805701
 20
48.35017043488394
 30
0.0
 10
174.4960931092346
 20
51.61897420354716
 30
0.0
 10
176.9141511965543
 20
54.45792197296356
 30
0.0
 10
179.6980208483474
 20
56.93892399880757
 30
0.0
 10
182.6911908656095
 20
59.16463170068948
 30
0.0
 10
186.895074867279
 20
61.83241626297536
 30
0.0
 10
192.4341935657413
 20
64.68505310789924
 30
0.0
 10
199.3042811433394
 20
67.61225988959224
 30
0.0
 10
207.5468611826411
 20
70.41816163704412
 30
0.0
 10
217.2368303637339
 20
72.74271397837722
 30
0.0
 10
228.3507717375674
 20
74.24262753879324
 30
0.0
 10
239.5571350587553
 20
74.75819918019872
 30
0.0
 10
251.6502122165874
 20
74.37751245364838
 30
0.0
 10
264.5510481833074
 20
72.96177800013176
 30
0.0
 10
278.1684846741829
 20
70.42631482883715
 30
0.0
 10
291.5947912652255
 20
67.04913127509433
 30
0.0
 10
304.8657661508099
 20
63.11134423312975
 30
0.0
 10
318.0341398880102
 20
58.85271327116875
 30
0.0
 10
326.811528937862
 20
56.01277988474534
 30
0.0
 10
331.1971976422297
 20
54.59379219893263
 30
0.0
  0
LINE
  5
BC
330
1F
100
AcDbEntity
  8
0
  6
Continuous
 62
     7
370
    25
100
AcDbLine
 10
336.575566213
 20
44.407654309
 30
0.0
 11
331.1971976422
 21
54.5937921989
 31
0.0
  0
LINE
  5
BD
330
1F
100
AcDbEntity
  8
0
  6
Continuous
 62
     7
370
    25
100
AcDbLine
 10
329.7788868584
 20
37.5390286343
 30
0.0
 11
336.4697638415
 21
43.173381685
 31
0.0
  0
CIRCLE
  5
BE
330
1F
100
AcDbEntity
  8
0
  6
Continuous
 62
     7
370
    25
100
AcDbCircle
 10
184.6305044741
 20
48.6121452923
 30
0.0
 40
1.999999999999966
  0
CIRCLE
  5
BF
330
1F
100
AcDbEntity
  8
0
  6
Continuous
 62
     7
370
    25
100
AcDbCircle
 10
327.0610427152
 20
46.7807682106
 30
0.0
 40
2.050000000000009
  0
SPLINE
  5
C0
330
1F
100
AcDbEntity
  8
0
  6
Continuous
 62
     7
370
    25
100
AcDbSpline
210
0.0
220
0.0
230
1.0
 70
     8
 71
     3
 72
    22
 73
    18
 74
     0
 42
0.00000001
 43
0.00000001
 40
0.0
 40
0.0
 40
0.0
 40
0.0
 40
0.1198646876447166
 40
0.240040820308732
 40
0.360158997851124
 40
0.4799267964573425
 40
0.6090254017624795
 40
0.739687471920651
 40
0.8046253733819627
 40
0.8675850355232592
 40
0.899999582534016
 40
0.9353576507224969
 40
0.9527735364180252
 40
0.9686165645517161
 40
0.9784548201473505
 40
0.9884943155554143
 40
1.0
 40
1.0
 40
1.0
 40
1.0
 10
329.7788868583758
 20
37.53902863431563
 30
0.0
 10
323.3709814253559
 20
38.20195818357269
 30
0.0
 10
310.5385208664797
 20
39.5295397752608
 30
0.0
 10
291.2280930931968
 20
40.90614798482311
 30
0.0
 10
271.88914550506
 20
41.67799410747092
 30
0.0
 10
252.0528982741004
 20
41.67668740643865
 30
0.0
 10
231.6701730501579
 20
40.70075173295479
 30
0.0
 10
214.2927937789035
 20
39.11828760669506
 30
0.0
 10
200.4238151042954
 20
38.17479235248427
 30
0.0
 10
191.7964147253921
 20
38.29004707676981
 30
0.0
 10
184.7903881073509
 20
38.80469272689807
 30
0.0
 10
180.2101020521258
 20
38.96523849203087
 30
0.0
 10
176.5529527913676
 20
39.46663395998767
 30
0.0
 10
174.3274505568451
 20
40.23233627436357
 30
0.0
 10
172.7833706706819
 20
41.41483913354332
 30
0.0
 10
171.8309586122569
 20
42.86511796629517
 30
0.0
 10
171.6432703830893
 20
44.01911449241297
 30
0.0
 10
171.5430400042513
 20
44.63537854639016
 30
0.0
  0
CIRCLE
  5
C1
330
1F
100
AcDbEntity
  8
0
  6
Continuous
 62
     7
370
    25
100
AcDbCircle
 10
274.9411498573
 20
61.2651975118
 30
0.0
 40
2.000000000000024
  0
LINE
  5
C2
330
1F
100
AcDbEntity
  8
0
  6
Continuous
 62
     7
370
    25
100
AcDbLine
 10
336.575566213
 20
44.407654309
 30
0.0
 11
336.4697638415
 21
43.173381685
 31
0.0
  0
LINE
  5
C3
330
1F
100
AcDbEntity
  8
0
  6
Continuous
 62
     7
370
    25
100
AcDbLine
 10
166.575566213
 20
44.407654309
 30
0.0
 11
166.4697638415
 21
43.173381685
 31
0.0
  0
CIRCLE
  5
C4
330
1F
100
AcDbEntity
  8
0
  6
Continuous
 62
     7
370
    25
100
AcDbCircle
 10
14.6305044741
 20
48.6121452923
 30
0.0
 40
1.999999999999954
  0
LINE
  5
C5
330
1F
100
AcDbEntity
  8
0
  6
Continuous
 62
     7
370
    25
100
AcDbLine
 10
166.575566213
 20
44.407654309
 30
0.0
 11
161.1971976422
 21
54.5937921989
 31
0.0
  0
LINE
  5
C6
330
1F
100
AcDbEntity
  8
0
  6
Continuous
 62
     7
370
    25
100
AcDbLine
 10
159.7788868584
 20
37.5390286343
 30
0.0
 11
166.4697638415
 21
43.173381685
 31
0.0
  0
CIRCLE
  5
C7
330
1F
100
AcDbEntity
  8
0
  6
Continuous
 62
     7
370
    25
100
AcDbCircle
 10
157.0610427152
 20
46.7807682106
 30
0.0
 40
2.049999999999981
  0
SPLINE
  5
C8
330
1F
100
AcDbEntity
  8
0
  6
Continuous
 62
     7
370
    25
100
AcDbSpline
210
0.0
220
0.0
230
1.0
 70
     8
 71
     3
 72
    26
 73
    22
 74
     0
 42
0.00000001
 43
0.00000001
 40
0.0
 40
0.0
 40
0.0
 40
0.0
 40
0.0224471125039029
 40
0.0440377405236855
 40
0.0654990098929894
 40
0.0870666555914141
 40
0.1086473487259042
 40
0.1302328221668956
 40
0.173478919615515
 40
0.2166892075786766
 40
0.2598504520228463
 40
0.3245764194947578
 40
0.3894242848069729
 40
0.4543596973264987
 40
0.5192093537141858
 40
0.5993970738732216
 40
0.6795317120085298
 40
0.7596135376738509
 40
0.839759063351915
 40
0.91993477137396
 40
1.0
 40
1.0
 40
1.0
 40
1.0
 10
1.543040004251206
 20
44.63537854639016
 30
0.0
 10
1.87759792287634
 20
45.8895943211472
 30
0.0
 10
2.533948480570092
 20
48.35017043488382
 30
0.0
 10
4.496093109234267
 20
51.61897420354739
 30
0.0
 10
6.914151196554363
 20
54.45792197296356
 30
0.0
 10
9.698020848347365
 20
56.93892399880745
 30
0.0
 10
12.69119086560944
 20
59.1646317006897
 30
0.0
 10
16.89507486727915
 20
61.83241626297492
 30
0.0
 10
22.43419356574117
 20
64.68505310789924
 30
0.0
 10
29.30428114333933
 20
67.61225988959235
 30
0.0
 10
37.54686118264089
 20
70.41816163704445
 30
0.0
 10
47.23683036373405
 20
72.7427139783769
 30
0.0
 10
58.35077173756731
 20
74.24262753879346
 30
0.0
 10
69.55713505875526
 20
74.75819918019872
 30
0.0
 10
81.65021221658748
 20
74.37751245364849
 30
0.0
 10
94.55104818330734
 20
72.96177800013155
 30
0.0
 10
108.1684846741828
 20
70.42631482883715
 30
0.0
 10
121.5947912652254
 20
67.04913127509433
 30
0.0
 10
134.8657661508097
 20
63.11134423313008
 30
0.0
 10
148.0341398880102
 20
58.85271327116875
 30
0.0
 10
156.8115289378619
 20
56.01277988474524
 30
0.0
 10
161.1971976422297
 20
54.59379219893263
 30
0.0
  0
SPLINE
  5
C9
330
1F
100
AcDbEntity
  8
0
  6
Continuous
 62
     7
370
    25
100
AcDbSpline
210
0.0
220
0.0
230
1.0
 70
     8
 71
     3
 72
    22
 73
    18
 74
     0
 42
0.00000001
 43
0.00000001
 40
0.0
 40
0.0
 40
0.0
 40
0.0
 40
0.1198646876447168
 40
0.2400408203087322
 40
0.3601589978511241
 40
0.4799267964573426
 40
0.6090254017624797
 40
0.7396874719206513
 40
0.8046253733819629
 40
0.8675850355232593
 40
0.8999995825340161
 40
0.9353576507224972
 40
0.9527735364180253
 40
0.9686165645517163
 40
0.9784548201473507
 40
0.9884943155554143
 40
1.0
 40
1.0
 40
1.0
 40
1.0
 10
159.7788868583757
 20
37.53902863431574
 30
0.0
 10
153.3709814253558
 20
38.20195818357281
 30
0.0
 10
140.5385208664796
 20
39.52953977526069
 30
0.0
 10
121.2280930931969
 20
40.90614798482289
 30
0.0
 10
101.8891455050598
 20
41.67799410747103
 30
0.0
 10
82.0528982741004
 20
41.67668740643865
 30
0.0
 10
61.67017305015781
 20
40.70075173295479
 30
0.0
 10
44.29279377890333
 20
39.11828760669517
 30
0.0
 10
30.42381510429543
 20
38.17479235248417
 30
0.0
 10
21.79641472539201
 20
38.2900470767697
 30
0.0
 10
14.79038810735089
 20
38.80469272689818
 30
0.0
 10
10.21010205212575
 20
38.96523849203098
 30
0.0
 10
6.552952791367583
 20
39.46663395998767
 30
0.0
 10
4.327450556845025
 20
40.23233627436367
 30
0.0
 10
2.783370670681795
 20
41.41483913354332
 30
0.0
 10
1.830958612257017
 20
42.86511796629517
 30
0.0
 10
1.643270383089201
 20
44.01911449241319
 30
0.0
 10
1.543040004251206
 20
44.63537854639016
 30
0.0
  0
CIRCLE
  5
CA
330
1F
100
AcDbEntity
  8
0
  6
Continuous
 62
     7
370
    25
100
AcDbCircle
 10
104.9411498573
 20
61.2651975118
 30
0.0
 40
1.999999999999995
  0
SPLINE
  5
CB
330
1F
100
AcDbEntity
  8
0
  6
Continuous
 62
     7
370
    25
100
AcDbSpline
210
0.0
220
0.0
230
1.0
 70
     8
 71
     3
 72
    26
 73
    22
 74
     0
 42
0.00000001
 43
0.00000001
 40
0.0
 40
0.0
 40
0.0
 40
0.0
 40
0.0224471125039035
 40
0.0440377405236855
 40
0.0654990098929895
 40
0.0870666555914142
 40
0.1086473487259043
 40
0.1302328221668956
 40
0.1734789196155152
 40
0.2166892075786767
 40
0.2598504520228463
 40
0.3245764194947579
 40
0.389424284806973
 40
0.4543596973264987
 40
0.519209353714186
 40
0.5993970738732218
 40
0.6795317120085299
 40
0.7596135376738509
 40
0.839759063351915
 40
0.91993477137396
 40
1.0
 40
1.0
 40
1.0
 40
1.0
 10
171.5430400042513
 20
9.635378546390127
 30
0.0
 10
171.8775979228762
 20
10.88959432114728
 30
0.0
 10
172.53394848057
 20
13.35017043488401
 30
0.0
 10
174.4960931092344
 20
16.61897420354747
 30
0.0
 10
176.9141511965543
 20
19.45792197296353
 30
0.0
 10
179.6980208483474
 20
21.93892399880754
 30
0.0
 10
182.6911908656096
 20
24.16463170068922
 30
0.0
 10
186.8950748672789
 20
26.83241626297556
 30
0.0
 10
192.4341935657413
 20
29.68505310789921
 30
0.0
 10
199.3042811433394
 20
32.61225988959221
 30
0.0
 10
207.546861182641
 20
35.41816163704442
 30
0.0
 10
217.236830363734
 20
37.74271397837686
 30
0.0
 10
228.3507717375674
 20
39.24262753879331
 30
0.0
 10
239.5571350587554
 20
39.75819918019868
 30
0.0
 10
251.6502122165874
 20
39.37751245364834
 30
0.0
 10
264.5510481833074
 20
37.96177800013162
 30
0.0
 10
278.1684846741829
 20
35.42631482883723
 30
0.0
 10
291.5947912652254
 20
32.0491312750944
 30
0.0
 10
304.8657661508099
 20
28.11134423312972
 30
0.0
 10
318.0341398880101
 20
23.85271327116894
 30
0.0
 10
326.811528937862
 20
21.01277988474531
 30
0.0
 10
331.1971976422297
 20
19.59379219893259
 30
0.0
  0
LINE
  5
CC
330
1F
100
AcDbEntity
  8
0
  6
Continuous
 62
     7
370
    25
100
AcDbLine
 10
336.575566213
 20
9.407654309
 30
0.0
 11
331.1971976422
 21
19.5937921989
 31
0.0
  0
LINE
  5
CD
330
1F
100
AcDbEntity
  8
0
  6
Continuous
 62
     7
370
    25
100
AcDbLine
 10
329.7788868584
 20
2.5390286343
 30
0.0
 11
336.4697638415
 21
8.173381685
 31
0.0
  0
SPLINE
  5
CE
330
1F
100
AcDbEntity
  8
0
  6
Continuous
 62
     7
370
    25
100
AcDbSpline
210
0.0
220
0.0
230
1.0
 70
     8
 71
     3
 72
    22
 73
    18
 74
     0
 42
0.00000001
 43
0.00000001
 40
0.0
 40
0.0
 40
0.0
 40
0.0
 40
0.1198646876447166
 40
0.240040820308732
 40
0.360158997851124
 40
0.4799267964573425
 40
0.6090254017624795
 40
0.739687471920651
 40
0.8046253733819627
 40
0.8675850355232592
 40
0.899999582534016
 40
0.9353576507224969
 40
0.9527735364180252
 40
0.9686165645517161
 40
0.9784548201473505
 40
0.9884943155554143
 40
1.0
 40
1.0
 40
1.0
 40
1.0
 10
329.7788868583758
 20
2.539028634315599
 30
0.0
 10
323.3709814253559
 20
3.201958183572662
 30
0.0
 10
310.5385208664797
 20
4.529539775260661
 30
0.0
 10
291.2280930931968
 20
5.906147984823084
 30
0.0
 10
271.88914550506
 20
6.677994107470886
 30
0.0
 10
252.0528982741004
 20
6.676687406438619
 30
0.0
 10
231.6701730501579
 20
5.700751732954867
 30
0.0
 10
214.2927937789035
 20
4.118287606694915
 30
0.0
 10
200.4238151042954
 20
3.174792352484246
 30
0.0
 10
191.7964147253921
 20
3.290047076769664
 30
0.0
 10
184.7903881073509
 20
3.804692726898151
 30
0.0
 10
180.2101020521258
 20
3.965238492030732
 30
0.0
 10
176.5529527913676
 20
4.466633959987643
 30
0.0
 10
174.3274505568451
 20
5.232336274363536
 30
0.0
 10
172.7833706706819
 20
6.414839133543293
 30
0.0
 10
171.8309586122569
 20
7.865117966295132
 30
0.0
 10
171.6432703830893
 20
9.019114492412939
 30
0.0
 10
171.5430400042513
 20
9.635378546390127
 30
0.0
  0
CIRCLE
  5
CF
330
1F
100
AcDbEntity
  8
0
  6
Continuous
 62
     7
370
    25
100
AcDbCircle
 10
327.0610427152
 20
11.7807682106
 30
0.0
 40
2.050000000000009
  0
CIRCLE
  5
D0
330
1F
100
AcDbEntity
  8
0
  6
Continuous
 62
     7
370
    25
100
AcDbCircle
 10
184.6305044741
 20
13.6121452923
 30
0.0
 40
1.999999999999967
  0
LINE
  5
D1
330
1F
100
AcDbEntity
  8
0
  6
Continuous
 62
     7
370
    25
100
AcDbLine
 10
336.575566213
 20
9.407654309
 30
0.0
 11
336.4697638415
 21
8.173381685
 31
0.0
  0
CIRCLE
  5
D2
330
1F
100
AcDbEntity
  8
0
  6
Continuous
 62
     7
370
    25
100
AcDbCircle
 10
274.9411498573
 20
26.2651975118
 30
0.0
 40
2.000000000000023
  0
SPLINE
  5
D3
330
1F
100
AcDbEntity
  8
0
  6
Continuous
 62
     7
370
    25
100
AcDbSpline
210
0.0
220
0.0
230
1.0
 70
     8
 71
     3
 72
    26
 73
    22
 74
     0
 42
0.00000001
 43
0.00000001
 40
0.0
 40
0.0
 40
0.0
 40
0.0
 40
0.0224471125039035
 40
0.0440377405236855
 40
0.0654990098929895
 40
0.0870666555914141
 40
0.1086473487259042
 40
0.1302328221668957
 40
0.1734789196155152
 40
0.2166892075786766
 40
0.2598504520228463
 40
0.3245764194947579
 40
0.389424284806973
 40
0.4543596973264987
 40
0.519209353714186
 40
0.5993970738732218
 40
0.6795317120085299
 40
0.7596135376738509
 40
0.839759063351915
 40
0.91993477137396
 40
1.0
 40
1.0
 40
1.0
 40
1.0
 10
341.5430400042512
 20
9.635378546390127
 30
0.0
 10
341.8775979228762
 20
10.88959432114728
 30
0.0
 10
342.53394848057
 20
13.35017043488401
 30
0.0
 10
344.4960931092346
 20
16.61897420354713
 30
0.0
 10
346.9141511965543
 20
19.45792197296364
 30
0.0
 10
349.6980208483474
 20
21.93892399880754
 30
0.0
 10
352.6911908656096
 20
24.16463170068922
 30
0.0
 10
356.8950748672789
 20
26.83241626297556
 30
0.0
 10
362.4341935657412
 20
29.68505310789921
 30
0.0
 10
369.3042811433394
 20
32.61225988959243
 30
0.0
 10
377.546861182641
 20
35.4181616370442
 30
0.0
 10
387.236830363734
 20
37.74271397837708
 30
0.0
 10
398.3507717375674
 20
39.24262753879321
 30
0.0
 10
409.5571350587554
 20
39.75819918019891
 30
0.0
 10
421.6502122165875
 20
39.37751245364824
 30
0.0
 10
434.5510481833074
 20
37.96177800013162
 30
0.0
 10
448.1684846741829
 20
35.42631482883723
 30
0.0
 10
461.5947912652254
 20
32.0491312750944
 30
0.0
 10
474.8657661508098
 20
28.11134423312972
 30
0.0
 10
488.0341398880102
 20
23.85271327116894
 30
0.0
 10
496.811528937862
 20
21.01277988474531
 30
0.0
 10
501.1971976422297
 20
19.59379219893259
 30
0.0
  0
LINE
  5
D4
330
1F
100
AcDbEntity
  8
0
  6
Continuous
 62
     7
370
    25
100
AcDbLine
 10
506.575566213
 20
9.407654309
 30
0.0
 11
501.1971976422
 21
19.5937921989
 31
0.0
  0
LINE
  5
D5
330
1F
100
AcDbEntity
  8
0
  6
Continuous
 62
     7
370
    25
100
AcDbLine
 10
506.575566213
 20
9.407654309
 30
0.0
 11
506.4697638415
 21
8.173381685
 31
0.0
  0
LINE
  5
D6
330
1F
100
AcDbEntity
  8
0
  6
Continuous
 62
     7
370
    25
100
AcDbLine
 10
499.7788868584
 20
2.5390286343
 30
0.0
 11
506.4697638415
 21
8.173381685
 31
0.0
  0
SPLINE
  5
D7
330
1F
100
AcDbEntity
  8
0
  6
Continuous
 62
     7
370
    25
100
AcDbSpline
210
0.0
220
0.0
230
1.0
 70
     8
 71
     3
 72
    22
 73
    18
 74
     0
 42
0.00000001
 43
0.00000001
 40
0.0
 40
0.0
 40
0.0
 40
0.0
 40
0.1198646876447166
 40
0.240040820308732
 40
0.360158997851124
 40
0.4799267964573425
 40
0.6090254017624797
 40
0.739687471920651
 40
0.8046253733819629
 40
0.8675850355232593
 40
0.8999995825340161
 40
0.935357650722497
 40
0.9527735364180254
 40
0.9686165645517163
 40
0.9784548201473505
 40
0.9884943155554143
 40
1.0
 40
1.0
 40
1.0
 40
1.0
 10
499.7788868583757
 20
2.539028634315599
 30
0.0
 10
493.370981425356
 20
3.201958183572662
 30
0.0
 10
480.5385208664798
 20
4.529539775260661
 30
0.0
 10
461.2280930931968
 20
5.906147984823084
 30
0.0
 10
441.8891455050599
 20
6.677994107470886
 30
0.0
 10
422.0528982741003
 20
6.676687406438731
 30
0.0
 10
401.6701730501579
 20
5.700751732954645
 30
0.0
 10
384.2927937789033
 20
4.118287606695247
 30
0.0
 10
370.4238151042954
 20
3.174792352484024
 30
0.0
 10
361.796414725392
 20
3.290047076769664
 30
0.0
 10
354.790388107351
 20
3.80469272689804
 30
0.0
 10
350.2101020521256
 20
3.965238492030954
 30
0.0
 10
346.5529527913677
 20
4.466633959987643
 30
0.0
 10
344.327450556845
 20
5.232336274363758
 30
0.0
 10
342.7833706706819
 20
6.414839133543182
 30
0.0
 10
341.8309586122569
 20
7.865117966295243
 30
0.0
 10
341.6432703830893
 20
9.019114492413161
 30
0.0
 10
341.5430400042512
 20
9.635378546390127
 30
0.0
  0
CIRCLE
  5
D8
330
1F
100
AcDbEntity
  8
0
  6
Continuous
 62
     7
370
    25
100
AcDbCircle
 10
497.0610427152
 20
11.7807682106
 30
0.0
 40
2.050000000000009
  0
CIRCLE
  5
D9
330
1F
100
AcDbEntity
  8
0
  6
Continuous
 62
     7
370
    25
100
AcDbCircle
 10
444.9411498573
 20
26.2651975118
 30
0.0
 40
1.999999999999966
  0
CIRCLE
  5
DA
330
1F
100
AcDbEntity
  8
0
  6
Continuous
 62
     7
370
    25
100
AcDbCircle
 10
354.6305044741
 20
13.6121452923
 30
0.0
 40
2.000000000000023
  0
LINE
  5
DB
330
1F
100
AcDbEntity
  8
0
  6
Continuous
 62
     7
370
    25
100
AcDbLine
 10
-0.0996628793
 20
-0.1083271036
 30
0.0
 11
1015.9003371207
 21
-0.1083271036
 31
0.0
  0
LINE
  5
DC
330
1F
100
AcDbEntity
  8
0
  6
Continuous
 62
     7
370
    25
100
AcDbLine
 10
-0.0996628793
 20
152.2916728964
 30
0.0
 11
-0.0996628793
 21
-0.1083271036
 31
0.0
  0
LINE
  5
DD
330
1F
100
AcDbEntity
  8
0
  6
Continuous
 62
     7
370
    25
100
AcDbLine
 10
1015.9003371207
 20
152.2916728964
 30
0.0
 11
-0.0996628793
 21
152.2916728964
 31
0.0
  0
LINE
  5
DE
330
1F
100
AcDbEntity
  8
0
  6
Continuous
 62
     7
370
    25
100
AcDbLine
 10
1015.9003371207
 20
-0.1083271036
 30
0.0
 11
1015.9003371207
 21
152.2916728964
 31
0.0
  0
MTEXT
  5
E0
330
1F
100
AcDbEntity
  8
0
  6
Continuous
 62
     7
100
AcDbMText
 10
0.0
 20
7.3534328773
 30
0.0
 40
2.63652
 41
0.0
 71
     1
 72
     1
  1
SOLIDWORKS Educational Product.
  7
SLDTEXTSTYLE0
 73
     1
 44
1.0
  0
MTEXT
  5
E1
330
1F
100
AcDbEntity
  8
0
  6
Continuous
 62
     7
100
AcDbMText
 10
0.0
 20
3.3986528773
 30
0.0
 40
2.63652
 41
0.0
 71
     1
 72
     1
  1
For Instructional Use Only.
  7
SLDTEXTSTYLE0
 73
     1
 44
1.0
  0
ENDSEC
  0
SECTION
  2
OBJECTS
  0
DICTIONARY
  5
C
330
0
100
AcDbDictionary
281
     1
  3
ACAD_GROUP
350
D
  3
ACAD_LAYOUT
350
1A
  3
ACAD_MLINESTYLE
350
17
  3
ACAD_PLOTSETTINGS
350
19
  3
ACAD_PLOTSTYLENAME
350
E
  3
ACAD_SCALELIST
350
47
  3
DWGPROPS
350
E2
  0
DICTIONARY
  5
D
102
{ACAD_REACTORS
330
C
102
}
330
C
100
AcDbDictionary
281
     1
  0
DICTIONARY
  5
1A
102
{ACAD_REACTORS
330
C
102
}
330
C
100
AcDbDictionary
281
     1
  3
Layout1
350
1E
  3
Layout2
350
26
  3
Model
350
22
  0
DICTIONARY
  5
17
102
{ACAD_REACTORS
330
C
102
}
330
C
100
AcDbDictionary
281
     1
  3
Standard
350
18
  0
DICTIONARY
  5
19
102
{ACAD_REACTORS
330
C
102
}
330
C
100
AcDbDictionary
281
     1
  0
ACDBDICTIONARYWDFLT
  5
E
102
{ACAD_REACTORS
330
C
102
}
330
C
100
AcDbDictionary
281
     1
  3
Normal
350
F
100
AcDbDictionaryWithDefault
340
F
  0
DICTIONARY
  5
47
102
{ACAD_REACTORS
330
C
102
}
330
C
100
AcDbDictionary
281
     1
  3
A0
350
48
  3
A1
350
49
  3
A2
350
4A
  3
A3
350
4B
  3
A4
350
4C
  3
A5
350
4D
  3
A6
350
4E
  3
A7
350
4F
  3
A8
350
50
  3
A9
350
51
  3
B0
350
52
  3
B1
350
53
  3
B2
350
54
  3
B3
350
55
  3
B4
350
56
  3
B5
350
57
  3
B6
350
58
  0
XRECORD
  5
E2
102
{ACAD_REACTORS
330
C
102
}
330
C
100
AcDbXrecord
280
     1
  1
DWGPROPS COOKIE
  2

  3

  4

  6

  7

  8
joshu
  9

300
=
301
=
302
=
303
=
304
=
305
=
306
=
307
=
308
=
309
=
 40
0.0
 41
2460357.173094664
 42
2460357.173094884
  1

 90
        0
  0
LAYOUT
  5
1E
102
{ACAD_REACTORS
330
1A
102
}
330
1A
100
AcDbPlotSettings
  1

  2
none_device
  4

  6

 40
0.0
 41
0.0
 42
0.0
 43
0.0
 44
0.0
 45
0.0
 46
0.0
 47
0.0
 48
0.0
 49
0.0
140
0.0
141
0.0
142
1.0
143
1.0
 70
   688
 72
     1
 73
     0
 74
     5
  7

 75
    16
147
1.0
148
0.0
149
0.0
100
AcDbLayout
  1
Layout1
 70
     1
 71
     1
 10
0.0
 20
0.0
 11
420.0
 21
297.0
 12
0.0
 22
0.0
 32
0.0
 14
1.0000000000E+20
 24
1.0000000000E+20
 34
1.0000000000E+20
 15
-1.0000000000E+20
 25
-1.0000000000E+20
 35
-1.0000000000E+20
146
0.0
 13
0.0
 23
0.0
 33
0.0
 16
1.0
 26
0.0
 36
0.0
 17
0.0
 27
1.0
 37
0.0
 76
     0
330
1B
  0
LAYOUT
  5
26
102
{ACAD_REACTORS
330
1A
102
}
330
1A
100
AcDbPlotSettings
  1

  2
none_device
  4

  6

 40
0.0
 41
0.0
 42
0.0
 43
0.0
 44
0.0
 45
0.0
 46
0.0
 47
0.0
 48
0.0
 49
0.0
140
0.0
141
0.0
142
1.0
143
1.0
 70
   688
 72
     1
 73
     0
 74
     5
  7

 75
    16
147
1.0
148
0.0
149
0.0
100
AcDbLayout
  1
Layout2
 70
     1
 71
     2
 10
0.0
 20
0.0
 11
0.0
 21
0.0
 12
0.0
 22
0.0
 32
0.0
 14
0.0
 24
0.0
 34
0.0
 15
0.0
 25
0.0
 35
0.0
146
0.0
 13
0.0
 23
0.0
 33
0.0
 16
1.0
 26
0.0
 36
0.0
 17
0.0
 27
1.0
 37
0.0
 76
     0
330
23
  0
LAYOUT
  5
22
102
{ACAD_REACTORS
330
1A
102
}
330
1A
100
AcDbPlotSettings
  1

  2
none_device
  4
Letter_(8.50_x_11.00_Inches)
  6

 40
6.35
 41
6.35
 42
6.35000508
 43
6.35000508
 44
215.9
 45
279.4
 46
0.0
 47
0.0
 48
0.0
 49
0.0
140
0.0
141
0.0
142
1.0
143
1.0
 70
  1712
 72
     1
 73
     0
 74
     0
  7

 75
     0
147
1.0
148
0.0
149
0.0
100
AcDbLayout
  1
Model
 70
     1
 71
     0
 10
0.0
 20
0.0
 11
1016.0
 21
152.4
 12
0.0
 22
0.0
 32
0.0
 14
0.0
 24
0.0
 34
0.0
 15
1016.0
 25
152.4
 35
0.0
146
0.0
 13
0.0
 23
0.0
 33
0.0
 16
1.0
 26
0.0
 36
0.0
 17
0.0
 27
1.0
 37
0.0
 76
     0
330
1F
331
29
  0
MLINESTYLE
  5
18
102
{ACAD_REACTORS
330
17
102
}
330
17
100
AcDbMlineStyle
  2
Standard
 70
     0
  3

 62
   256
 51
90.0
 52
90.0
 71
     2
 49
0.5
 62
   256
  6
BYLAYER
 49
-0.5
 62
   256
  6
BYLAYER
  0
ACDBPLACEHOLDER
  5
F
102
{ACAD_REACTORS
330
E
102
}
330
E
  0
SCALE
  5
48
102
{ACAD_REACTORS
330
47
102
}
330
47
100
AcDbScale
 70
     0
300
1:1
140
1.0
141
1.0
290
     1
  0
SCALE
  5
49
102
{ACAD_REACTORS
330
47
102
}
330
47
100
AcDbScale
 70
     0
300
1:2
140
1.0
141
2.0
290
     0
  0
SCALE
  5
4A
102
{ACAD_REACTORS
330
47
102
}
330
47
100
AcDbScale
 70
     0
300
1:4
140
1.0
141
4.0
290
     0
  0
SCALE
  5
4B
102
{ACAD_REACTORS
330
47
102
}
330
47
100
AcDbScale
 70
     0
300
1:5
140
1.0
141
5.0
290
     0
  0
SCALE
  5
4C
102
{ACAD_REACTORS
330
47
102
}
330
47
100
AcDbScale
 70
     0
300
1:8
140
1.0
141
8.0
290
     0
  0
SCALE
  5
4D
102
{ACAD_REACTORS
330
47
102
}
330
47
100
AcDbScale
 70
     0
300
1:10
140
1.0
141
10.0
290
     0
  0
SCALE
  5
4E
102
{ACAD_REACTORS
330
47
102
}
330
47
100
AcDbScale
 70
     0
300
1:16
140
1.0
141
16.0
290
     0
  0
SCALE
  5
4F
102
{ACAD_REACTORS
330
47
102
}
330
47
100
AcDbScale
 70
     0
300
1:20
140
1.0
141
20.0
290
     0
  0
SCALE
  5
50
102
{ACAD_REACTORS
330
47
102
}
330
47
100
AcDbScale
 70
     0
300
1:30
140
1.0
141
30.0
290
     0
  0
SCALE
  5
51
102
{ACAD_REACTORS
330
47
102
}
330
47
100
AcDbScale
 70
     0
300
1:40
140
1.0
141
40.0
290
     0
  0
SCALE
  5
52
102
{ACAD_REACTORS
330
47
102
}
330
47
100
AcDbScale
 70
     0
300
1:50
140
1.0
141
50.0
290
     0
  0
SCALE
  5
53
102
{ACAD_REACTORS
330
47
102
}
330
47
100
AcDbScale
 70
     0
300
1:100
140
1.0
141
100.0
290
     0
  0
SCALE
  5
54
102
{ACAD_REACTORS
330
47
102
}
330
47
100
AcDbScale
 70
     0
300
2:1
140
2.0
141
1.0
290
     0
  0
SCALE
  5
55
102
{ACAD_REACTORS
330
47
102
}
330
47
100
AcDbScale
 70
     0
300
4:1
140
4.0
141
1.0
290
     0
  0
SCALE
  5
56
102
{ACAD_REACTORS
330
47
102
}
330
47
100
AcDbScale
 70
     0
300
8:1
140
8.0
141
1.0
290
     0
  0
SCALE
  5
57
102
{ACAD_REACTORS
330
47
102
}
330
47
100
AcDbScale
 70
     0
300
10:1
140
10.0
141
1.0
290
     0
  0
SCALE
  5
58
102
{ACAD_REACTORS
330
47
102
}
330
47
100
AcDbScale
 70
     0
300
100:1
140
100.0
141
1.0
290
     0
  0
ENDSEC
  0
EOF
